<?xml version="1.0" encoding="UTF-8" standalone="no"?>
<!DOCTYPE svg PUBLIC "-//W3C//DTD SVG 1.0//EN"
 "http://www.w3.org/TR/2001/REC-SVG-20010904/DTD/svg10.dtd" [
 <!ATTLIST svg xmlns:xlink CDATA #FIXED "http://www.w3.org/1999/xlink">
]>
<!-- Generated by dot version 1.8.5 (Tue Apr 23 17:19:23  2002)
     For user: (Administrator) ,S-1-5-21-1454471165-688789844-1708537768-500   Title: yads    Pages: 1 -->
<svg width="989px" height="1266px"
 xmlns="http://www.w3.org/2000/svg" xmlns:xlink="http://www.w3.org/1999/xlink">
<g id="graph0" class="graph" style="font-family:Times-Roman;font-size:11.00">
<title>yads</title>
<text text-anchor="middle" x="494" y="1255" style="font-family:arial;font-size:24.00">YADS - A Description Service</text>
<g id="graph2" class="cluster"><title>cluster_1</title>
<polygon style="fill:none;stroke:#d2d2d2;stroke-dasharray:5,2" points="19,1223 970,1223 970,43 19,43 19,1223"/>
<text text-anchor="middle" x="103" y="55" style="font-family:arial">Nest - Bounds Green Station</text>
</g>
<g id="graph3" class="cluster"><title>cluster_3</title>
<polygon style="fill:none;stroke:#d2d2d2;stroke-dasharray:5,2" points="27,1215 962,1215 962,238 27,238 27,1215"/>
<text text-anchor="middle" x="99" y="250" style="font-family:arial">Nest - Application Profile</text>
</g>
<g id="graph4" class="cluster"><title>cluster_5</title>
<polygon style="fill:none;stroke:#d2d2d2;stroke-dasharray:5,2" points="35,795 408,795 408,433 35,433 35,795"/>
<text text-anchor="middle" x="80" y="445" style="font-family:arial">Item - Location</text>
</g>
<g id="graph5" class="cluster"><title>cluster_7</title>
<polygon style="fill:none;stroke:#d2d2d2;stroke-dasharray:5,2" points="43,787 165,787 165,628 43,628 43,787"/>
<text text-anchor="middle" x="59" y="640" style="font-family:arial">Item</text>
</g>
<g id="graph6" class="cluster"><title>cluster_8</title>
<polygon style="fill:none;stroke:#d2d2d2;stroke-dasharray:5,2" points="173,787 295,787 295,628 173,628 173,787"/>
<text text-anchor="middle" x="189" y="640" style="font-family:arial">Item</text>
</g>
<g id="graph7" class="cluster"><title>cluster_9</title>
<polygon style="fill:none;stroke:#d2d2d2;stroke-dasharray:5,2" points="303,787 400,787 400,628 303,628 303,787"/>
<text text-anchor="middle" x="319" y="640" style="font-family:arial">Item</text>
</g>
<g id="graph8" class="cluster"><title>cluster_10</title>
<polygon style="fill:none;stroke:#d2d2d2;stroke-dasharray:5,2" points="416,1207 954,1207 954,433 416,433 416,1207"/>
<text text-anchor="middle" x="485" y="445" style="font-family:arial">Item - Line Interchanges</text>
</g>
<g id="graph9" class="cluster"><title>cluster_12</title>
<polygon style="fill:none;stroke:#d2d2d2;stroke-dasharray:5,2" points="424,1199 946,1199 946,628 424,628 424,1199"/>
<text text-anchor="middle" x="492" y="640" style="font-family:arial">Nest - Line Interchange</text>
</g>
<g id="graph10" class="cluster"><title>cluster_14</title>
<polygon style="fill:none;stroke:#d2d2d2;stroke-dasharray:5,2" points="432,1191 680,1191 680,829 432,829 432,1191"/>
<text text-anchor="middle" x="500" y="841" style="font-family:arial">Nest - Next Stop Back</text>
</g>
<g id="graph11" class="cluster"><title>cluster_16</title>
<polygon style="fill:none;stroke:#d2d2d2;stroke-dasharray:5,2" points="575,1183 672,1183 672,1024 575,1024 575,1183"/>
<text text-anchor="middle" x="591" y="1036" style="font-family:arial">Item</text>
</g>
<g id="graph12" class="cluster"><title>cluster_17</title>
<polygon style="fill:none;stroke:#d2d2d2;stroke-dasharray:5,2" points="688,1191 938,1191 938,829 688,829 688,1191"/>
<text text-anchor="middle" x="740" y="841" style="font-family:arial">Nest - Next Stop</text>
</g>
<g id="graph13" class="cluster"><title>cluster_19</title>
<polygon style="fill:none;stroke:#d2d2d2;stroke-dasharray:5,2" points="833,1183 930,1183 930,1024 833,1024 833,1183"/>
<text text-anchor="middle" x="849" y="1036" style="font-family:arial">Item</text>
</g>
<g id="node2" class="node"><title>:_1</title>
<ellipse cx="297" cy="86" rx="40" ry="18" style="fill:#eedb82;stroke:#eedb82"/>
<text text-anchor="middle" x="297" y="90" style="font-family:arial">tube:Station</text>
</g>
<g id="node4" class="node"><title>doi:1014/tube/bounds_green</title>
<a xlink:href="http://dx.doi.org/1014/tube/bounds_green" target="_blank" onmouseover="show_status('http://dx.doi.org/1014/tube/bounds_green');">
<ellipse cx="151" cy="176" rx="83" ry="18" style="fill:#dca0dd;stroke:#dca0dd"/>
<text text-anchor="middle" x="151" y="180" style="font-family:arial">doi:1014/tube/bounds_green</text>
</a></g>
<g id="edge3" class="edge"><title>:_1-&gt;doi:1014/tube/bounds_green</title>
<a xlink:href="http://www2.elsevier.co.uk/~tony/1014/yads-schema-2002-04-03#resource" target="_blank" onmouseover="show_status('http://www2.elsevier.co.uk/~tony/1014/yads-schema-2002-04-03#resource');">
<path style="fill:none;stroke:#add9e6" d="M265,97C249,103 229,112 212,122 199,131 186,142 175,152"/>
<polygon style="fill:#add9e6;stroke:#add9e6" points="174,150 168,158 177,153 174,150"/>
<text text-anchor="middle" x="259" y="135" style="font-family:arial">has:resource</text>
</a></g>
<g id="node6" class="node"><title>node_1</title>
<polygon style="fill:#6497ed;stroke:#6497ed" points="342,158 252,158 252,194 342,194 342,158"/>
<text text-anchor="middle" x="297" y="180" style="font-family:arial">Bounds Green</text>
</g>
<g id="edge5" class="edge"><title>:_1-&gt;node_1</title>
<a xlink:href="http://www2.elsevier.co.uk/~tony/1014/yads-schema-2002-04-03#label" target="_blank" onmouseover="show_status('http://www2.elsevier.co.uk/~tony/1014/yads-schema-2002-04-03#label');">
<path style="fill:none;stroke:#add9e6" d="M297,104C297,117 297,134 297,149"/>
<polygon style="fill:#add9e6;stroke:#add9e6" points="295,148 297,158 300,148 295,148"/>
<text text-anchor="middle" x="324" y="135" style="font-family:arial">has:label</text>
</a></g>
<g id="node8" class="node"><title>:_2</title>
<a xlink:href="http://www.w3.org/1999/02/22-rdf-syntax-ns#Bag" target="_blank" onmouseover="show_status('http://www.w3.org/1999/02/22-rdf-syntax-ns#Bag');">
<ellipse cx="388" cy="176" rx="28" ry="18" style="fill:#d2d2d2;stroke:#d2d2d2"/>
<text text-anchor="middle" x="388" y="180" style="font-family:arial">rdf:Bag</text>
</a></g>
<g id="edge7" class="edge"><title>:_1-&gt;:_2</title>
<a xlink:href="http://www2.elsevier.co.uk/~tony/1014/yads-schema-2002-04-03#collection" target="_blank" onmouseover="show_status('http://www2.elsevier.co.uk/~tony/1014/yads-schema-2002-04-03#collection');">
<path style="fill:none;stroke:#add9e6" d="M324,99C335,105 347,113 356,122 365,131 371,141 377,151"/>
<polygon style="fill:#add9e6;stroke:#add9e6" points="374,151 381,159 379,149 374,151"/>
<text text-anchor="middle" x="411" y="135" style="font-family:arial">has:collection</text>
</a></g>
<g id="node10" class="node"><title>:_3</title>
<ellipse cx="388" cy="281" rx="34" ry="18" style="fill:#eedb82;stroke:#eedb82"/>
<text text-anchor="middle" x="388" y="285" style="font-family:arial">doi:Profile</text>
</g>
<g id="edge9" class="edge"><title>:_2-&gt;:_3</title>
<a xlink:href="http://www.w3.org/1999/02/22-rdf-syntax-ns#_1" target="_blank" onmouseover="show_status('http://www.w3.org/1999/02/22-rdf-syntax-ns#_1');">
<path style="fill:none;stroke:#add9e6" d="M388,194C388,210 388,235 388,254"/>
<polygon style="fill:#add9e6;stroke:#add9e6" points="386,253 388,263 391,253 386,253"/>
<text text-anchor="middle" x="408" y="225" style="font-family:arial">rdf:_1</text>
</a></g>
<g id="node13" class="node"><title>doi:1014/profile.tube</title>
<a xlink:href="http://dx.doi.org/1014/profile.tube" target="_blank" onmouseover="show_status('http://dx.doi.org/1014/profile.tube');">
<ellipse cx="326" cy="371" rx="59" ry="18" style="fill:#dca0dd;stroke:#dca0dd"/>
<text text-anchor="middle" x="326" y="375" style="font-family:arial">doi:1014/profile.tube</text>
</a></g>
<g id="edge12" class="edge"><title>:_3-&gt;doi:1014/profile.tube</title>
<a xlink:href="http://www2.elsevier.co.uk/~tony/1014/yads-schema-2002-04-03#resource" target="_blank" onmouseover="show_status('http://www2.elsevier.co.uk/~tony/1014/yads-schema-2002-04-03#resource');">
<path style="fill:none;stroke:#add9e6" d="M359,291C347,297 334,305 327,317 323,325 321,335 322,344"/>
<polygon style="fill:#add9e6;stroke:#add9e6" points="320,343 322,353 325,343 320,343"/>
<text text-anchor="middle" x="371" y="330" style="font-family:arial">has:resource</text>
</a></g>
<g id="node15" class="node"><title>:_4</title>
<a xlink:href="http://www.w3.org/1999/02/22-rdf-syntax-ns#Bag" target="_blank" onmouseover="show_status('http://www.w3.org/1999/02/22-rdf-syntax-ns#Bag');">
<ellipse cx="431" cy="371" rx="28" ry="18" style="fill:#d2d2d2;stroke:#d2d2d2"/>
<text text-anchor="middle" x="431" y="375" style="font-family:arial">rdf:Bag</text>
</a></g>
<g id="edge14" class="edge"><title>:_3-&gt;:_4</title>
<a xlink:href="http://www2.elsevier.co.uk/~tony/1014/yads-schema-2002-04-03#collection" target="_blank" onmouseover="show_status('http://www2.elsevier.co.uk/~tony/1014/yads-schema-2002-04-03#collection');">
<path style="fill:none;stroke:#add9e6" d="M401,298C405,304 409,310 412,317 416,326 420,335 423,344"/>
<polygon style="fill:#add9e6;stroke:#add9e6" points="420,344 426,353 425,343 420,344"/>
<text text-anchor="middle" x="462" y="330" style="font-family:arial">has:collection</text>
</a></g>
<g id="node17" class="node"><title>:_5</title>
<a xlink:href="http://www2.elsevier.co.uk/~tony/1014/yads-schema-2002-04-03#Item" target="_blank" onmouseover="show_status('http://www2.elsevier.co.uk/~tony/1014/yads-schema-2002-04-03#Item');">
<ellipse cx="334" cy="476" rx="28" ry="18" style="fill:#d2d2d2;stroke:#d2d2d2"/>
<text text-anchor="middle" x="334" y="480" style="font-family:arial">isa:Item</text>
</a></g>
<g id="edge16" class="edge"><title>:_4-&gt;:_5</title>
<a xlink:href="http://www.w3.org/1999/02/22-rdf-syntax-ns#_1" target="_blank" onmouseover="show_status('http://www.w3.org/1999/02/22-rdf-syntax-ns#_1');">
<path style="fill:none;stroke:#add9e6" d="M417,386C401,404 373,434 354,454"/>
<polygon style="fill:#add9e6;stroke:#add9e6" points="353,451 348,460 357,455 353,451"/>
<text text-anchor="middle" x="420" y="420" style="font-family:arial">rdf:_1</text>
</a></g>
<g id="node19" class="node"><title>:_10</title>
<a xlink:href="http://www2.elsevier.co.uk/~tony/1014/yads-schema-2002-04-03#Item" target="_blank" onmouseover="show_status('http://www2.elsevier.co.uk/~tony/1014/yads-schema-2002-04-03#Item');">
<ellipse cx="481" cy="476" rx="28" ry="18" style="fill:#d2d2d2;stroke:#d2d2d2"/>
<text text-anchor="middle" x="481" y="480" style="font-family:arial">isa:Item</text>
</a></g>
<g id="edge18" class="edge"><title>:_4-&gt;:_10</title>
<a xlink:href="http://www.w3.org/1999/02/22-rdf-syntax-ns#_2" target="_blank" onmouseover="show_status('http://www.w3.org/1999/02/22-rdf-syntax-ns#_2');">
<path style="fill:none;stroke:#add9e6" d="M439,388C447,405 459,431 469,451"/>
<polygon style="fill:#add9e6;stroke:#add9e6" points="466,451 473,459 471,449 466,451"/>
<text text-anchor="middle" x="478" y="420" style="font-family:arial">rdf:_2</text>
</a></g>
<g id="node22" class="node"><title>:_6</title>
<a xlink:href="http://www.w3.org/1999/02/22-rdf-syntax-ns#Bag" target="_blank" onmouseover="show_status('http://www.w3.org/1999/02/22-rdf-syntax-ns#Bag');">
<ellipse cx="266" cy="566" rx="28" ry="18" style="fill:#d2d2d2;stroke:#d2d2d2"/>
<text text-anchor="middle" x="266" y="570" style="font-family:arial">rdf:Bag</text>
</a></g>
<g id="edge21" class="edge"><title>:_5-&gt;:_6</title>
<a xlink:href="http://www2.elsevier.co.uk/~tony/1014/yads-schema-2002-04-03#collection" target="_blank" onmouseover="show_status('http://www2.elsevier.co.uk/~tony/1014/yads-schema-2002-04-03#collection');">
<path style="fill:none;stroke:#add9e6" d="M322,493C311,507 296,527 284,543"/>
<polygon style="fill:#add9e6;stroke:#add9e6" points="283,541 278,550 286,544 283,541"/>
<text text-anchor="middle" x="349" y="525" style="font-family:arial">has:collection</text>
</a></g>
<g id="node40" class="node"><title>:_11</title>
<a xlink:href="http://www.w3.org/1999/02/22-rdf-syntax-ns#Bag" target="_blank" onmouseover="show_status('http://www.w3.org/1999/02/22-rdf-syntax-ns#Bag');">
<ellipse cx="503" cy="566" rx="28" ry="18" style="fill:#d2d2d2;stroke:#d2d2d2"/>
<text text-anchor="middle" x="503" y="570" style="font-family:arial">rdf:Bag</text>
</a></g>
<g id="edge39" class="edge"><title>:_10-&gt;:_11</title>
<a xlink:href="http://www2.elsevier.co.uk/~tony/1014/yads-schema-2002-04-03#collection" target="_blank" onmouseover="show_status('http://www2.elsevier.co.uk/~tony/1014/yads-schema-2002-04-03#collection');">
<path style="fill:none;stroke:#add9e6" d="M485,494C488,507 493,524 497,539"/>
<polygon style="fill:#add9e6;stroke:#add9e6" points="494,539 499,548 499,538 494,539"/>
<text text-anchor="middle" x="537" y="525" style="font-family:arial">has:collection</text>
</a></g>
<g id="node24" class="node"><title>:_7</title>
<ellipse cx="104" cy="671" rx="35" ry="18" style="fill:#eedb82;stroke:#eedb82"/>
<text text-anchor="middle" x="104" y="675" style="font-family:arial">tube:Zone</text>
</g>
<g id="edge23" class="edge"><title>:_6-&gt;:_7</title>
<a xlink:href="http://www.w3.org/1999/02/22-rdf-syntax-ns#_1" target="_blank" onmouseover="show_status('http://www.w3.org/1999/02/22-rdf-syntax-ns#_1');">
<path style="fill:none;stroke:#add9e6" d="M244,577C232,585 224,591 206,602 181,619 152,638 132,652"/>
<polygon style="fill:#add9e6;stroke:#add9e6" points="132,649 125,657 135,653 132,649"/>
<text text-anchor="middle" x="232" y="615" style="font-family:arial">rdf:_1</text>
</a></g>
<g id="node26" class="node"><title>:_8</title>
<ellipse cx="234" cy="671" rx="35" ry="18" style="fill:#eedb82;stroke:#eedb82"/>
<text text-anchor="middle" x="234" y="675" style="font-family:arial">tube:Zone</text>
</g>
<g id="edge25" class="edge"><title>:_6-&gt;:_8</title>
<a xlink:href="http://www.w3.org/1999/02/22-rdf-syntax-ns#_2" target="_blank" onmouseover="show_status('http://www.w3.org/1999/02/22-rdf-syntax-ns#_2');">
<path style="fill:none;stroke:#add9e6" d="M261,584C256,600 248,626 242,645"/>
<polygon style="fill:#add9e6;stroke:#add9e6" points="240,643 239,653 245,645 240,643"/>
<text text-anchor="middle" x="277" y="615" style="font-family:arial">rdf:_2</text>
</a></g>
<g id="node28" class="node"><title>:_9</title>
<ellipse cx="343" cy="671" rx="32" ry="18" style="fill:#eedb82;stroke:#eedb82"/>
<text text-anchor="middle" x="343" y="675" style="font-family:arial">tube:Grid</text>
</g>
<g id="edge27" class="edge"><title>:_6-&gt;:_9</title>
<a xlink:href="http://www.w3.org/1999/02/22-rdf-syntax-ns#_3" target="_blank" onmouseover="show_status('http://www.w3.org/1999/02/22-rdf-syntax-ns#_3');">
<path style="fill:none;stroke:#add9e6" d="M283,581C290,587 297,594 303,602 314,615 323,632 331,646"/>
<polygon style="fill:#add9e6;stroke:#add9e6" points="328,646 335,653 332,643 328,646"/>
<text text-anchor="middle" x="337" y="615" style="font-family:arial">rdf:_3</text>
</a></g>
<g id="node31" class="node"><title>data:,Zone%203</title>
<a xlink:href="" onclick="show_data('Zone%203');" onmouseover="show_status('data:,Zone%203');">
<ellipse cx="104" cy="761" rx="53" ry="18" style="fill:#dca0dd;stroke:#dca0dd"/>
<text text-anchor="middle" x="104" y="765" style="font-family:arial">data:,Zone%203</text>
</a></g>
<g id="edge30" class="edge"><title>:_7-&gt;data:,Zone%203</title>
<a xlink:href="http://www2.elsevier.co.uk/~tony/1014/yads-schema-2002-04-03#resource" target="_blank" onmouseover="show_status('http://www2.elsevier.co.uk/~tony/1014/yads-schema-2002-04-03#resource');">
<path style="fill:none;stroke:#add9e6" d="M95,689C92,694 89,701 88,707 87,715 87,718 88,725 88,728 89,731 90,734"/>
<polygon style="fill:#add9e6;stroke:#add9e6" points="88,735 94,743 92,733 88,735"/>
<text text-anchor="middle" x="132" y="720" style="font-family:arial">has:resource</text>
</a></g>
<g id="node34" class="node"><title>data:,Zone%204</title>
<a xlink:href="" onclick="show_data('Zone%204');" onmouseover="show_status('data:,Zone%204');">
<ellipse cx="234" cy="761" rx="53" ry="18" style="fill:#dca0dd;stroke:#dca0dd"/>
<text text-anchor="middle" x="234" y="765" style="font-family:arial">data:,Zone%204</text>
</a></g>
<g id="edge33" class="edge"><title>:_8-&gt;data:,Zone%204</title>
<a xlink:href="http://www2.elsevier.co.uk/~tony/1014/yads-schema-2002-04-03#resource" target="_blank" onmouseover="show_status('http://www2.elsevier.co.uk/~tony/1014/yads-schema-2002-04-03#resource');">
<path style="fill:none;stroke:#add9e6" d="M225,689C222,694 219,701 218,707 217,715 217,718 218,725 218,728 219,731 220,734"/>
<polygon style="fill:#add9e6;stroke:#add9e6" points="218,735 224,743 222,733 218,735"/>
<text text-anchor="middle" x="262" y="720" style="font-family:arial">has:resource</text>
</a></g>
<g id="node37" class="node"><title>data:,A6</title>
<a xlink:href="" onclick="show_data('A6');" onmouseover="show_status('data:,A6');">
<ellipse cx="342" cy="761" rx="31" ry="18" style="fill:#dca0dd;stroke:#dca0dd"/>
<text text-anchor="middle" x="342" y="765" style="font-family:arial">data:,A6</text>
</a></g>
<g id="edge36" class="edge"><title>:_9-&gt;data:,A6</title>
<a xlink:href="http://www2.elsevier.co.uk/~tony/1014/yads-schema-2002-04-03#resource" target="_blank" onmouseover="show_status('http://www2.elsevier.co.uk/~tony/1014/yads-schema-2002-04-03#resource');">
<path style="fill:none;stroke:#add9e6" d="M341,689C340,695 339,701 339,707 339,716 339,725 339,734"/>
<polygon style="fill:#add9e6;stroke:#add9e6" points="336,733 340,743 341,733 336,733"/>
<text text-anchor="middle" x="383" y="720" style="font-family:arial">has:resource</text>
</a></g>
<g id="node42" class="node"><title>:_12</title>
<ellipse cx="511" cy="671" rx="53" ry="18" style="fill:#eedb82;stroke:#eedb82"/>
<text text-anchor="middle" x="511" y="675" style="font-family:arial">tube:LineChange</text>
</g>
<g id="edge41" class="edge"><title>:_11-&gt;:_12</title>
<a xlink:href="http://www.w3.org/1999/02/22-rdf-syntax-ns#_1" target="_blank" onmouseover="show_status('http://www.w3.org/1999/02/22-rdf-syntax-ns#_1');">
<path style="fill:none;stroke:#add9e6" d="M504,584C506,600 507,625 509,644"/>
<polygon style="fill:#add9e6;stroke:#add9e6" points="506,643 510,653 511,643 506,643"/>
<text text-anchor="middle" x="527" y="615" style="font-family:arial">rdf:_1</text>
</a></g>
<g id="node45" class="node"><title>doi:1014/tube/piccadilly_line</title>
<a xlink:href="http://dx.doi.org/1014/tube/piccadilly_line" target="_blank" onmouseover="show_status('http://dx.doi.org/1014/tube/piccadilly_line');">
<ellipse cx="511" cy="761" rx="79" ry="18" style="fill:#dca0dd;stroke:#dca0dd"/>
<text text-anchor="middle" x="511" y="765" style="font-family:arial">doi:1014/tube/piccadilly_line</text>
</a></g>
<g id="edge44" class="edge"><title>:_12-&gt;doi:1014/tube/piccadilly_line</title>
<a xlink:href="http://www2.elsevier.co.uk/~tony/1014/yads-schema-2002-04-03#resource" target="_blank" onmouseover="show_status('http://www2.elsevier.co.uk/~tony/1014/yads-schema-2002-04-03#resource');">
<path style="fill:none;stroke:#add9e6" d="M511,689C511,702 511,719 511,734"/>
<polygon style="fill:#add9e6;stroke:#add9e6" points="509,733 511,743 514,733 509,733"/>
<text text-anchor="middle" x="552" y="720" style="font-family:arial">has:resource</text>
</a></g>
<g id="node47" class="node"><title>:_13</title>
<a xlink:href="http://www.w3.org/1999/02/22-rdf-syntax-ns#Bag" target="_blank" onmouseover="show_status('http://www.w3.org/1999/02/22-rdf-syntax-ns#Bag');">
<ellipse cx="636" cy="761" rx="28" ry="18" style="fill:#d2d2d2;stroke:#d2d2d2"/>
<text text-anchor="middle" x="636" y="765" style="font-family:arial">rdf:Bag</text>
</a></g>
<g id="edge46" class="edge"><title>:_12-&gt;:_13</title>
<a xlink:href="http://www2.elsevier.co.uk/~tony/1014/yads-schema-2002-04-03#collection" target="_blank" onmouseover="show_status('http://www2.elsevier.co.uk/~tony/1014/yads-schema-2002-04-03#collection');">
<path style="fill:none;stroke:#add9e6" d="M551,683C566,689 583,697 596,707 606,715 615,726 622,736"/>
<polygon style="fill:#add9e6;stroke:#add9e6" points="620,737 627,744 624,734 620,737"/>
<text text-anchor="middle" x="655" y="720" style="font-family:arial">has:collection</text>
</a></g>
<g id="node49" class="node"><title>:_14</title>
<ellipse cx="591" cy="872" rx="53" ry="18" style="fill:#eedb82;stroke:#eedb82"/>
<text text-anchor="middle" x="591" y="876" style="font-family:arial">tube:PrevStation</text>
</g>
<g id="edge48" class="edge"><title>:_13-&gt;:_14</title>
<a xlink:href="http://www.w3.org/1999/02/22-rdf-syntax-ns#_1" target="_blank" onmouseover="show_status('http://www.w3.org/1999/02/22-rdf-syntax-ns#_1');">
<path style="fill:none;stroke:#add9e6" d="M629,779C621,797 610,825 601,846"/>
<polygon style="fill:#add9e6;stroke:#add9e6" points="599,844 598,854 604,846 599,844"/>
<text text-anchor="middle" x="640" y="816" style="font-family:arial">rdf:_1</text>
</a></g>
<g id="node51" class="node"><title>:_17</title>
<ellipse cx="750" cy="872" rx="53" ry="18" style="fill:#eedb82;stroke:#eedb82"/>
<text text-anchor="middle" x="750" y="876" style="font-family:arial">tube:NextStation</text>
</g>
<g id="edge50" class="edge"><title>:_13-&gt;:_17</title>
<a xlink:href="http://www.w3.org/1999/02/22-rdf-syntax-ns#_2" target="_blank" onmouseover="show_status('http://www.w3.org/1999/02/22-rdf-syntax-ns#_2');">
<path style="fill:none;stroke:#add9e6" d="M652,776C671,795 703,826 725,848"/>
<polygon style="fill:#add9e6;stroke:#add9e6" points="723,850 732,855 727,846 723,850"/>
<text text-anchor="middle" x="719" y="816" style="font-family:arial">rdf:_2</text>
</a></g>
<g id="node54" class="node"><title>doi:1014/tube/wood_green</title>
<a xlink:href="http://dx.doi.org/1014/tube/wood_green" target="_blank" onmouseover="show_status('http://dx.doi.org/1014/tube/wood_green');">
<ellipse cx="519" cy="962" rx="79" ry="18" style="fill:#dca0dd;stroke:#dca0dd"/>
<text text-anchor="middle" x="519" y="966" style="font-family:arial">doi:1014/tube/wood_green</text>
</a></g>
<g id="edge53" class="edge"><title>:_14-&gt;doi:1014/tube/wood_green</title>
<a xlink:href="http://www2.elsevier.co.uk/~tony/1014/yads-schema-2002-04-03#resource" target="_blank" onmouseover="show_status('http://www2.elsevier.co.uk/~tony/1014/yads-schema-2002-04-03#resource');">
<path style="fill:none;stroke:#add9e6" d="M547,882C534,888 520,896 512,908 507,916 507,926 508,935"/>
<polygon style="fill:#add9e6;stroke:#add9e6" points="505,935 511,944 510,934 505,935"/>
<text text-anchor="middle" x="556" y="921" style="font-family:arial">has:resource</text>
</a></g>
<g id="node56" class="node"><title>:_15</title>
<a xlink:href="http://www.w3.org/1999/02/22-rdf-syntax-ns#Bag" target="_blank" onmouseover="show_status('http://www.w3.org/1999/02/22-rdf-syntax-ns#Bag');">
<ellipse cx="644" cy="962" rx="28" ry="18" style="fill:#d2d2d2;stroke:#d2d2d2"/>
<text text-anchor="middle" x="644" y="966" style="font-family:arial">rdf:Bag</text>
</a></g>
<g id="edge55" class="edge"><title>:_14-&gt;:_15</title>
<a xlink:href="http://www2.elsevier.co.uk/~tony/1014/yads-schema-2002-04-03#collection" target="_blank" onmouseover="show_status('http://www2.elsevier.co.uk/~tony/1014/yads-schema-2002-04-03#collection');">
<path style="fill:none;stroke:#add9e6" d="M592,890C594,901 597,915 603,926 606,932 612,938 617,943"/>
<polygon style="fill:#add9e6;stroke:#add9e6" points="615,944 624,949 618,941 615,944"/>
<text text-anchor="middle" x="644" y="921" style="font-family:arial">has:collection</text>
</a></g>
<g id="node64" class="node"><title>doi:1014/tube/arnos_grove</title>
<a xlink:href="http://dx.doi.org/1014/tube/arnos_grove" target="_blank" onmouseover="show_status('http://dx.doi.org/1014/tube/arnos_grove');">
<ellipse cx="776" cy="962" rx="80" ry="18" style="fill:#dca0dd;stroke:#dca0dd"/>
<text text-anchor="middle" x="776" y="966" style="font-family:arial">doi:1014/tube/arnos_grove</text>
</a></g>
<g id="edge63" class="edge"><title>:_17-&gt;doi:1014/tube/arnos_grove</title>
<a xlink:href="http://www2.elsevier.co.uk/~tony/1014/yads-schema-2002-04-03#resource" target="_blank" onmouseover="show_status('http://www2.elsevier.co.uk/~tony/1014/yads-schema-2002-04-03#resource');">
<path style="fill:none;stroke:#add9e6" d="M754,890C757,901 760,914 764,926 765,929 766,932 767,935"/>
<polygon style="fill:#add9e6;stroke:#add9e6" points="764,935 770,944 769,934 764,935"/>
<text text-anchor="middle" x="805" y="921" style="font-family:arial">has:resource</text>
</a></g>
<g id="node66" class="node"><title>:_18</title>
<a xlink:href="http://www.w3.org/1999/02/22-rdf-syntax-ns#Bag" target="_blank" onmouseover="show_status('http://www.w3.org/1999/02/22-rdf-syntax-ns#Bag');">
<ellipse cx="902" cy="962" rx="28" ry="18" style="fill:#d2d2d2;stroke:#d2d2d2"/>
<text text-anchor="middle" x="902" y="966" style="font-family:arial">rdf:Bag</text>
</a></g>
<g id="edge65" class="edge"><title>:_17-&gt;:_18</title>
<a xlink:href="http://www2.elsevier.co.uk/~tony/1014/yads-schema-2002-04-03#collection" target="_blank" onmouseover="show_status('http://www2.elsevier.co.uk/~tony/1014/yads-schema-2002-04-03#collection');">
<path style="fill:none;stroke:#add9e6" d="M790,884C807,890 826,898 841,908 849,915 849,919 857,926 863,932 869,937 876,942"/>
<polygon style="fill:#add9e6;stroke:#add9e6" points="874,943 883,948 877,940 874,943"/>
<text text-anchor="middle" x="898" y="921" style="font-family:arial">has:collection</text>
</a></g>
<g id="node58" class="node"><title>:_16</title>
<ellipse cx="620" cy="1067" rx="33" ry="18" style="fill:#eedb82;stroke:#eedb82"/>
<text text-anchor="middle" x="620" y="1071" style="font-family:arial">tube:Mins</text>
</g>
<g id="edge57" class="edge"><title>:_15-&gt;:_16</title>
<a xlink:href="http://www.w3.org/1999/02/22-rdf-syntax-ns#_1" target="_blank" onmouseover="show_status('http://www.w3.org/1999/02/22-rdf-syntax-ns#_1');">
<path style="fill:none;stroke:#add9e6" d="M640,980C637,996 631,1021 626,1040"/>
<polygon style="fill:#add9e6;stroke:#add9e6" points="624,1039 624,1049 629,1040 624,1039"/>
<text text-anchor="middle" x="657" y="1011" style="font-family:arial">rdf:_1</text>
</a></g>
<g id="node61" class="node"><title>data:,2</title>
<a xlink:href="" onclick="show_data('2');" onmouseover="show_status('data:,2');">
<ellipse cx="610" cy="1157" rx="27" ry="18" style="fill:#dca0dd;stroke:#dca0dd"/>
<text text-anchor="middle" x="610" y="1161" style="font-family:arial">data:,2</text>
</a></g>
<g id="edge60" class="edge"><title>:_16-&gt;data:,2</title>
<a xlink:href="http://www2.elsevier.co.uk/~tony/1014/yads-schema-2002-04-03#resource" target="_blank" onmouseover="show_status('http://www2.elsevier.co.uk/~tony/1014/yads-schema-2002-04-03#resource');">
<path style="fill:none;stroke:#add9e6" d="M618,1085C616,1098 615,1115 613,1130"/>
<polygon style="fill:#add9e6;stroke:#add9e6" points="611,1129 612,1139 616,1129 611,1129"/>
<text text-anchor="middle" x="658" y="1116" style="font-family:arial">has:resource</text>
</a></g>
<g id="node68" class="node"><title>:_19</title>
<ellipse cx="878" cy="1067" rx="33" ry="18" style="fill:#eedb82;stroke:#eedb82"/>
<text text-anchor="middle" x="878" y="1071" style="font-family:arial">tube:Mins</text>
</g>
<g id="edge67" class="edge"><title>:_18-&gt;:_19</title>
<a xlink:href="http://www.w3.org/1999/02/22-rdf-syntax-ns#_1" target="_blank" onmouseover="show_status('http://www.w3.org/1999/02/22-rdf-syntax-ns#_1');">
<path style="fill:none;stroke:#add9e6" d="M896,980C894,985 892,992 890,998 887,1012 884,1027 881,1040"/>
<polygon style="fill:#add9e6;stroke:#add9e6" points="879,1039 880,1049 884,1039 879,1039"/>
<text text-anchor="middle" x="910" y="1011" style="font-family:arial">rdf:_1</text>
</a></g>
<g id="node71" class="node"><title>data:,3</title>
<a xlink:href="" onclick="show_data('3');" onmouseover="show_status('data:,3');">
<ellipse cx="868" cy="1157" rx="27" ry="18" style="fill:#dca0dd;stroke:#dca0dd"/>
<text text-anchor="middle" x="868" y="1161" style="font-family:arial">data:,3</text>
</a></g>
<g id="edge70" class="edge"><title>:_19-&gt;data:,3</title>
<a xlink:href="http://www2.elsevier.co.uk/~tony/1014/yads-schema-2002-04-03#resource" target="_blank" onmouseover="show_status('http://www2.elsevier.co.uk/~tony/1014/yads-schema-2002-04-03#resource');">
<path style="fill:none;stroke:#add9e6" d="M861,1083C856,1089 851,1096 849,1103 845,1113 848,1123 852,1132"/>
<polygon style="fill:#add9e6;stroke:#add9e6" points="849,1132 856,1140 854,1130 849,1132"/>
<text text-anchor="middle" x="890" y="1116" style="font-family:arial">has:resource</text>
</a></g>
</g>
</svg>
