<?xml version="1.0" encoding="UTF-8" standalone="no"?>
<!DOCTYPE svg PUBLIC "-//W3C//DTD SVG 1.0//EN"
 "http://www.w3.org/TR/2001/REC-SVG-20010904/DTD/svg10.dtd" [
 <!ATTLIST svg xmlns:xlink CDATA #FIXED "http://www.w3.org/1999/xlink">
]>
<!-- Generated by dot version 1.8.5 (Tue Apr 23 17:19:23  2002)
     For user: (Administrator) ,S-1-5-21-1454471165-688789844-1708537768-500   Title: yads    Pages: 1 -->
<svg width="1305px" height="1280px"
 xmlns="http://www.w3.org/2000/svg" xmlns:xlink="http://www.w3.org/1999/xlink">
<g id="graph0" class="graph" style="font-family:Times-Roman;font-size:11.00">
<title>yads</title>
<text text-anchor="middle" x="652" y="1269" style="font-family:arial;font-size:24.00">YADS - A Description Service</text>
<g id="graph2" class="cluster"><title>cluster_1</title>
<polygon style="fill:none;stroke:#d2d2d2;stroke-dasharray:5,2" points="19,1237 1286,1237 1286,43 19,43 19,1237"/>
<text text-anchor="middle" x="104" y="55" style="font-family:arial">Nest - Cannon Street Station</text>
</g>
<g id="graph3" class="cluster"><title>cluster_3</title>
<polygon style="fill:none;stroke:#d2d2d2;stroke-dasharray:5,2" points="27,1229 1278,1229 1278,238 27,238 27,1229"/>
<text text-anchor="middle" x="99" y="250" style="font-family:arial">Nest - Application Profile</text>
</g>
<g id="graph4" class="cluster"><title>cluster_5</title>
<polygon style="fill:none;stroke:#d2d2d2;stroke-dasharray:5,2" points="35,795 274,795 274,433 35,433 35,795"/>
<text text-anchor="middle" x="80" y="445" style="font-family:arial">Item - Location</text>
</g>
<g id="graph5" class="cluster"><title>cluster_7</title>
<polygon style="fill:none;stroke:#d2d2d2;stroke-dasharray:5,2" points="43,787 161,787 161,628 43,628 43,787"/>
<text text-anchor="middle" x="59" y="640" style="font-family:arial">Item</text>
</g>
<g id="graph6" class="cluster"><title>cluster_8</title>
<polygon style="fill:none;stroke:#d2d2d2;stroke-dasharray:5,2" points="169,787 266,787 266,628 169,628 169,787"/>
<text text-anchor="middle" x="185" y="640" style="font-family:arial">Item</text>
</g>
<g id="graph7" class="cluster"><title>cluster_9</title>
<polygon style="fill:none;stroke:#d2d2d2;stroke-dasharray:5,2" points="282,1221 1270,1221 1270,433 282,433 282,1221"/>
<text text-anchor="middle" x="351" y="445" style="font-family:arial">Item - Line Interchanges</text>
</g>
<g id="graph8" class="cluster"><title>cluster_11</title>
<polygon style="fill:none;stroke:#d2d2d2;stroke-dasharray:5,2" points="738,1213 1262,1213 1262,628 738,628 738,1213"/>
<text text-anchor="middle" x="806" y="640" style="font-family:arial">Nest - Line Interchange</text>
</g>
<g id="graph9" class="cluster"><title>cluster_13</title>
<polygon style="fill:none;stroke:#d2d2d2;stroke-dasharray:5,2" points="746,1205 982,1205 982,829 746,829 746,1205"/>
<text text-anchor="middle" x="814" y="841" style="font-family:arial">Nest - Next Stop Back</text>
</g>
<g id="graph10" class="cluster"><title>cluster_15</title>
<polygon style="fill:none;stroke:#d2d2d2;stroke-dasharray:5,2" points="789,1197 886,1197 886,1024 789,1024 789,1197"/>
<text text-anchor="middle" x="805" y="1036" style="font-family:arial">Item</text>
</g>
<g id="graph11" class="cluster"><title>cluster_16</title>
<polygon style="fill:none;stroke:#d2d2d2;stroke-dasharray:5,2" points="990,1101 1254,1101 1254,829 990,829 990,1101"/>
<text text-anchor="middle" x="1042" y="841" style="font-family:arial">Nest - Next Stop</text>
</g>
<g id="graph12" class="cluster"><title>cluster_18</title>
<polygon style="fill:none;stroke:#d2d2d2;stroke-dasharray:5,2" points="1040,1093 1122,1093 1122,1024 1040,1024 1040,1093"/>
<text text-anchor="middle" x="1056" y="1036" style="font-family:arial">Item</text>
</g>
<g id="graph13" class="cluster"><title>cluster_19</title>
<polygon style="fill:none;stroke:#d2d2d2;stroke-dasharray:5,2" points="290,1109 558,1109 558,628 290,628 290,1109"/>
<text text-anchor="middle" x="358" y="640" style="font-family:arial">Nest - Line Interchange</text>
</g>
<g id="graph14" class="cluster"><title>cluster_21</title>
<polygon style="fill:none;stroke:#d2d2d2;stroke-dasharray:5,2" points="428,1101 550,1101 550,829 428,829 428,1101"/>
<text text-anchor="middle" x="496" y="841" style="font-family:arial">Nest - Next Stop Back</text>
</g>
<g id="graph15" class="cluster"><title>cluster_23</title>
<polygon style="fill:none;stroke:#d2d2d2;stroke-dasharray:5,2" points="448,1093 530,1093 530,1024 448,1024 448,1093"/>
<text text-anchor="middle" x="464" y="1036" style="font-family:arial">Item</text>
</g>
<g id="graph16" class="cluster"><title>cluster_24</title>
<polygon style="fill:none;stroke:#d2d2d2;stroke-dasharray:5,2" points="298,1101 420,1101 420,829 298,829 298,1101"/>
<text text-anchor="middle" x="350" y="841" style="font-family:arial">Nest - Next Stop</text>
</g>
<g id="graph17" class="cluster"><title>cluster_26</title>
<polygon style="fill:none;stroke:#d2d2d2;stroke-dasharray:5,2" points="325,1093 407,1093 407,1024 325,1024 325,1093"/>
<text text-anchor="middle" x="341" y="1036" style="font-family:arial">Item</text>
</g>
<g id="node2" class="node"><title>:_1</title>
<ellipse cx="261" cy="86" rx="40" ry="18" style="fill:#eedb82;stroke:#eedb82"/>
<text text-anchor="middle" x="261" y="90" style="font-family:arial">tube:Station</text>
</g>
<g id="node4" class="node"><title>doi:1014/tube/cannon_street</title>
<a xlink:href="http://dx.doi.org/1014/tube/cannon_street" target="_blank" onmouseover="show_status('http://dx.doi.org/1014/tube/cannon_street');">
<ellipse cx="114" cy="176" rx="84" ry="18" style="fill:#dca0dd;stroke:#dca0dd"/>
<text text-anchor="middle" x="114" y="180" style="font-family:arial">doi:1014/tube/cannon_street</text>
</a></g>
<g id="edge3" class="edge"><title>:_1-&gt;doi:1014/tube/cannon_street</title>
<a xlink:href="http://www2.elsevier.co.uk/~tony/1014/yads-schema-2002-04-03#resource" target="_blank" onmouseover="show_status('http://www2.elsevier.co.uk/~tony/1014/yads-schema-2002-04-03#resource');">
<path style="fill:none;stroke:#add9e6" d="M229,97C213,103 193,112 176,122 163,131 150,142 139,152"/>
<polygon style="fill:#add9e6;stroke:#add9e6" points="138,150 132,158 141,153 138,150"/>
<text text-anchor="middle" x="223" y="135" style="font-family:arial">has:resource</text>
</a></g>
<g id="node6" class="node"><title>node_1</title>
<polygon style="fill:#6497ed;stroke:#6497ed" points="306,158 216,158 216,194 306,194 306,158"/>
<text text-anchor="middle" x="261" y="180" style="font-family:arial">Cannon Street</text>
</g>
<g id="edge5" class="edge"><title>:_1-&gt;node_1</title>
<a xlink:href="http://www2.elsevier.co.uk/~tony/1014/yads-schema-2002-04-03#label" target="_blank" onmouseover="show_status('http://www2.elsevier.co.uk/~tony/1014/yads-schema-2002-04-03#label');">
<path style="fill:none;stroke:#add9e6" d="M261,104C261,117 261,134 261,149"/>
<polygon style="fill:#add9e6;stroke:#add9e6" points="259,148 261,158 264,148 259,148"/>
<text text-anchor="middle" x="288" y="135" style="font-family:arial">has:label</text>
</a></g>
<g id="node8" class="node"><title>:_2</title>
<a xlink:href="http://www.w3.org/1999/02/22-rdf-syntax-ns#Bag" target="_blank" onmouseover="show_status('http://www.w3.org/1999/02/22-rdf-syntax-ns#Bag');">
<ellipse cx="352" cy="176" rx="28" ry="18" style="fill:#d2d2d2;stroke:#d2d2d2"/>
<text text-anchor="middle" x="352" y="180" style="font-family:arial">rdf:Bag</text>
</a></g>
<g id="edge7" class="edge"><title>:_1-&gt;:_2</title>
<a xlink:href="http://www2.elsevier.co.uk/~tony/1014/yads-schema-2002-04-03#collection" target="_blank" onmouseover="show_status('http://www2.elsevier.co.uk/~tony/1014/yads-schema-2002-04-03#collection');">
<path style="fill:none;stroke:#add9e6" d="M288,99C299,105 311,113 320,122 329,131 335,141 341,151"/>
<polygon style="fill:#add9e6;stroke:#add9e6" points="338,151 345,159 343,149 338,151"/>
<text text-anchor="middle" x="375" y="135" style="font-family:arial">has:collection</text>
</a></g>
<g id="node10" class="node"><title>:_3</title>
<ellipse cx="352" cy="281" rx="34" ry="18" style="fill:#eedb82;stroke:#eedb82"/>
<text text-anchor="middle" x="352" y="285" style="font-family:arial">doi:Profile</text>
</g>
<g id="edge9" class="edge"><title>:_2-&gt;:_3</title>
<a xlink:href="http://www.w3.org/1999/02/22-rdf-syntax-ns#_1" target="_blank" onmouseover="show_status('http://www.w3.org/1999/02/22-rdf-syntax-ns#_1');">
<path style="fill:none;stroke:#add9e6" d="M352,194C352,210 352,235 352,254"/>
<polygon style="fill:#add9e6;stroke:#add9e6" points="350,253 352,263 355,253 350,253"/>
<text text-anchor="middle" x="372" y="225" style="font-family:arial">rdf:_1</text>
</a></g>
<g id="node13" class="node"><title>doi:1014/profile.tube</title>
<a xlink:href="http://dx.doi.org/1014/profile.tube" target="_blank" onmouseover="show_status('http://dx.doi.org/1014/profile.tube');">
<ellipse cx="265" cy="371" rx="59" ry="18" style="fill:#dca0dd;stroke:#dca0dd"/>
<text text-anchor="middle" x="265" y="375" style="font-family:arial">doi:1014/profile.tube</text>
</a></g>
<g id="edge12" class="edge"><title>:_3-&gt;doi:1014/profile.tube</title>
<a xlink:href="http://www2.elsevier.co.uk/~tony/1014/yads-schema-2002-04-03#resource" target="_blank" onmouseover="show_status('http://www2.elsevier.co.uk/~tony/1014/yads-schema-2002-04-03#resource');">
<path style="fill:none;stroke:#add9e6" d="M321,289C305,294 287,303 275,317 270,324 267,335 266,344"/>
<polygon style="fill:#add9e6;stroke:#add9e6" points="264,343 265,353 269,343 264,343"/>
<text text-anchor="middle" x="319" y="330" style="font-family:arial">has:resource</text>
</a></g>
<g id="node15" class="node"><title>:_4</title>
<a xlink:href="http://www.w3.org/1999/02/22-rdf-syntax-ns#Bag" target="_blank" onmouseover="show_status('http://www.w3.org/1999/02/22-rdf-syntax-ns#Bag');">
<ellipse cx="370" cy="371" rx="28" ry="18" style="fill:#d2d2d2;stroke:#d2d2d2"/>
<text text-anchor="middle" x="370" y="375" style="font-family:arial">rdf:Bag</text>
</a></g>
<g id="edge14" class="edge"><title>:_3-&gt;:_4</title>
<a xlink:href="http://www2.elsevier.co.uk/~tony/1014/yads-schema-2002-04-03#collection" target="_blank" onmouseover="show_status('http://www2.elsevier.co.uk/~tony/1014/yads-schema-2002-04-03#collection');">
<path style="fill:none;stroke:#add9e6" d="M356,299C358,312 362,329 364,344"/>
<polygon style="fill:#add9e6;stroke:#add9e6" points="361,344 366,353 366,343 361,344"/>
<text text-anchor="middle" x="405" y="330" style="font-family:arial">has:collection</text>
</a></g>
<g id="node17" class="node"><title>:_5</title>
<a xlink:href="http://www2.elsevier.co.uk/~tony/1014/yads-schema-2002-04-03#Item" target="_blank" onmouseover="show_status('http://www2.elsevier.co.uk/~tony/1014/yads-schema-2002-04-03#Item');">
<ellipse cx="212" cy="476" rx="28" ry="18" style="fill:#d2d2d2;stroke:#d2d2d2"/>
<text text-anchor="middle" x="212" y="480" style="font-family:arial">isa:Item</text>
</a></g>
<g id="edge16" class="edge"><title>:_4-&gt;:_5</title>
<a xlink:href="http://www.w3.org/1999/02/22-rdf-syntax-ns#_1" target="_blank" onmouseover="show_status('http://www.w3.org/1999/02/22-rdf-syntax-ns#_1');">
<path style="fill:none;stroke:#add9e6" d="M350,384C322,403 270,438 238,459"/>
<polygon style="fill:#add9e6;stroke:#add9e6" points="238,456 231,463 241,460 238,456"/>
<text text-anchor="middle" x="339" y="420" style="font-family:arial">rdf:_1</text>
</a></g>
<g id="node19" class="node"><title>:_9</title>
<a xlink:href="http://www2.elsevier.co.uk/~tony/1014/yads-schema-2002-04-03#Item" target="_blank" onmouseover="show_status('http://www2.elsevier.co.uk/~tony/1014/yads-schema-2002-04-03#Item');">
<ellipse cx="379" cy="476" rx="28" ry="18" style="fill:#d2d2d2;stroke:#d2d2d2"/>
<text text-anchor="middle" x="379" y="480" style="font-family:arial">isa:Item</text>
</a></g>
<g id="edge18" class="edge"><title>:_4-&gt;:_9</title>
<a xlink:href="http://www.w3.org/1999/02/22-rdf-syntax-ns#_2" target="_blank" onmouseover="show_status('http://www.w3.org/1999/02/22-rdf-syntax-ns#_2');">
<path style="fill:none;stroke:#add9e6" d="M372,389C373,405 375,430 376,449"/>
<polygon style="fill:#add9e6;stroke:#add9e6" points="373,448 377,458 378,448 373,448"/>
<text text-anchor="middle" x="396" y="420" style="font-family:arial">rdf:_2</text>
</a></g>
<g id="node22" class="node"><title>:_6</title>
<a xlink:href="http://www.w3.org/1999/02/22-rdf-syntax-ns#Bag" target="_blank" onmouseover="show_status('http://www.w3.org/1999/02/22-rdf-syntax-ns#Bag');">
<ellipse cx="185" cy="566" rx="28" ry="18" style="fill:#d2d2d2;stroke:#d2d2d2"/>
<text text-anchor="middle" x="185" y="570" style="font-family:arial">rdf:Bag</text>
</a></g>
<g id="edge21" class="edge"><title>:_5-&gt;:_6</title>
<a xlink:href="http://www2.elsevier.co.uk/~tony/1014/yads-schema-2002-04-03#collection" target="_blank" onmouseover="show_status('http://www2.elsevier.co.uk/~tony/1014/yads-schema-2002-04-03#collection');">
<path style="fill:none;stroke:#add9e6" d="M204,494C202,499 199,506 197,512 194,521 192,530 190,539"/>
<polygon style="fill:#add9e6;stroke:#add9e6" points="188,538 188,548 193,539 188,538"/>
<text text-anchor="middle" x="241" y="525" style="font-family:arial">has:collection</text>
</a></g>
<g id="node35" class="node"><title>:_10</title>
<a xlink:href="http://www.w3.org/1999/02/22-rdf-syntax-ns#Bag" target="_blank" onmouseover="show_status('http://www.w3.org/1999/02/22-rdf-syntax-ns#Bag');">
<ellipse cx="469" cy="566" rx="28" ry="18" style="fill:#d2d2d2;stroke:#d2d2d2"/>
<text text-anchor="middle" x="469" y="570" style="font-family:arial">rdf:Bag</text>
</a></g>
<g id="edge34" class="edge"><title>:_9-&gt;:_10</title>
<a xlink:href="http://www2.elsevier.co.uk/~tony/1014/yads-schema-2002-04-03#collection" target="_blank" onmouseover="show_status('http://www2.elsevier.co.uk/~tony/1014/yads-schema-2002-04-03#collection');">
<path style="fill:none;stroke:#add9e6" d="M394,491C409,506 431,528 448,545"/>
<polygon style="fill:#add9e6;stroke:#add9e6" points="445,546 454,551 449,542 445,546"/>
<text text-anchor="middle" x="474" y="525" style="font-family:arial">has:collection</text>
</a></g>
<g id="node24" class="node"><title>:_7</title>
<ellipse cx="102" cy="671" rx="35" ry="18" style="fill:#eedb82;stroke:#eedb82"/>
<text text-anchor="middle" x="102" y="675" style="font-family:arial">tube:Zone</text>
</g>
<g id="edge23" class="edge"><title>:_6-&gt;:_7</title>
<a xlink:href="http://www.w3.org/1999/02/22-rdf-syntax-ns#_1" target="_blank" onmouseover="show_status('http://www.w3.org/1999/02/22-rdf-syntax-ns#_1');">
<path style="fill:none;stroke:#add9e6" d="M169,581C163,588 156,595 150,602 139,616 127,633 118,647"/>
<polygon style="fill:#add9e6;stroke:#add9e6" points="117,644 113,654 121,647 117,644"/>
<text text-anchor="middle" x="173" y="615" style="font-family:arial">rdf:_1</text>
</a></g>
<g id="node26" class="node"><title>:_8</title>
<ellipse cx="209" cy="671" rx="32" ry="18" style="fill:#eedb82;stroke:#eedb82"/>
<text text-anchor="middle" x="209" y="675" style="font-family:arial">tube:Grid</text>
</g>
<g id="edge25" class="edge"><title>:_6-&gt;:_8</title>
<a xlink:href="http://www.w3.org/1999/02/22-rdf-syntax-ns#_2" target="_blank" onmouseover="show_status('http://www.w3.org/1999/02/22-rdf-syntax-ns#_2');">
<path style="fill:none;stroke:#add9e6" d="M189,584C192,600 198,625 203,644"/>
<polygon style="fill:#add9e6;stroke:#add9e6" points="200,644 205,653 205,643 200,644"/>
<text text-anchor="middle" x="218" y="615" style="font-family:arial">rdf:_2</text>
</a></g>
<g id="node29" class="node"><title>data:,Zone%201</title>
<a xlink:href="" onclick="show_data('Zone%201');" onmouseover="show_status('data:,Zone%201');">
<ellipse cx="102" cy="761" rx="51" ry="18" style="fill:#dca0dd;stroke:#dca0dd"/>
<text text-anchor="middle" x="102" y="765" style="font-family:arial">data:,Zone%201</text>
</a></g>
<g id="edge28" class="edge"><title>:_7-&gt;data:,Zone%201</title>
<a xlink:href="http://www2.elsevier.co.uk/~tony/1014/yads-schema-2002-04-03#resource" target="_blank" onmouseover="show_status('http://www2.elsevier.co.uk/~tony/1014/yads-schema-2002-04-03#resource');">
<path style="fill:none;stroke:#add9e6" d="M92,689C89,694 86,701 84,707 83,715 83,718 84,725 85,728 86,731 87,734"/>
<polygon style="fill:#add9e6;stroke:#add9e6" points="85,735 91,743 89,733 85,735"/>
<text text-anchor="middle" x="128" y="720" style="font-family:arial">has:resource</text>
</a></g>
<g id="node32" class="node"><title>data:,D6</title>
<a xlink:href="" onclick="show_data('D6');" onmouseover="show_status('data:,D6');">
<ellipse cx="207" cy="761" rx="30" ry="18" style="fill:#dca0dd;stroke:#dca0dd"/>
<text text-anchor="middle" x="207" y="765" style="font-family:arial">data:,D6</text>
</a></g>
<g id="edge31" class="edge"><title>:_8-&gt;data:,D6</title>
<a xlink:href="http://www2.elsevier.co.uk/~tony/1014/yads-schema-2002-04-03#resource" target="_blank" onmouseover="show_status('http://www2.elsevier.co.uk/~tony/1014/yads-schema-2002-04-03#resource');">
<path style="fill:none;stroke:#add9e6" d="M207,689C206,695 205,701 205,707 204,716 205,725 205,733"/>
<polygon style="fill:#add9e6;stroke:#add9e6" points="203,733 206,743 207,733 203,733"/>
<text text-anchor="middle" x="249" y="720" style="font-family:arial">has:resource</text>
</a></g>
<g id="node37" class="node"><title>:_11</title>
<ellipse cx="884" cy="671" rx="53" ry="18" style="fill:#eedb82;stroke:#eedb82"/>
<text text-anchor="middle" x="884" y="675" style="font-family:arial">tube:LineChange</text>
</g>
<g id="edge36" class="edge"><title>:_10-&gt;:_11</title>
<a xlink:href="http://www.w3.org/1999/02/22-rdf-syntax-ns#_1" target="_blank" onmouseover="show_status('http://www.w3.org/1999/02/22-rdf-syntax-ns#_1');">
<path style="fill:none;stroke:#add9e6" d="M495,573C563,590 745,636 833,658"/>
<polygon style="fill:#add9e6;stroke:#add9e6" points="831,660 841,660 832,655 831,660"/>
<text text-anchor="middle" x="700" y="615" style="font-family:arial">rdf:_1</text>
</a></g>
<g id="node39" class="node"><title>:_19</title>
<ellipse cx="469" cy="671" rx="53" ry="18" style="fill:#eedb82;stroke:#eedb82"/>
<text text-anchor="middle" x="469" y="675" style="font-family:arial">tube:LineChange</text>
</g>
<g id="edge38" class="edge"><title>:_10-&gt;:_19</title>
<a xlink:href="http://www.w3.org/1999/02/22-rdf-syntax-ns#_2" target="_blank" onmouseover="show_status('http://www.w3.org/1999/02/22-rdf-syntax-ns#_2');">
<path style="fill:none;stroke:#add9e6" d="M469,584C469,600 469,625 469,644"/>
<polygon style="fill:#add9e6;stroke:#add9e6" points="467,643 469,653 472,643 467,643"/>
<text text-anchor="middle" x="490" y="615" style="font-family:arial">rdf:_2</text>
</a></g>
<g id="node42" class="node"><title>doi:1014/tube/circle_line</title>
<a xlink:href="http://dx.doi.org/1014/tube/circle_line" target="_blank" onmouseover="show_status('http://dx.doi.org/1014/tube/circle_line');">
<ellipse cx="1086" cy="761" rx="70" ry="18" style="fill:#dca0dd;stroke:#dca0dd"/>
<text text-anchor="middle" x="1086" y="765" style="font-family:arial">doi:1014/tube/circle_line</text>
</a></g>
<g id="edge41" class="edge"><title>:_11-&gt;doi:1014/tube/circle_line</title>
<a xlink:href="http://www2.elsevier.co.uk/~tony/1014/yads-schema-2002-04-03#resource" target="_blank" onmouseover="show_status('http://www2.elsevier.co.uk/~tony/1014/yads-schema-2002-04-03#resource');">
<path style="fill:none;stroke:#add9e6" d="M935,677C964,681 1001,690 1030,707 1044,715 1057,727 1066,737"/>
<polygon style="fill:#add9e6;stroke:#add9e6" points="1063,738 1072,743 1067,734 1063,738"/>
<text text-anchor="middle" x="1094" y="720" style="font-family:arial">has:resource</text>
</a></g>
<g id="node44" class="node"><title>node_713</title>
<polygon style="fill:#6497ed;stroke:#6497ed" points="924,743 746,743 746,779 924,779 924,743"/>
<text text-anchor="middle" x="835" y="765" style="font-family:arial">Mondays to Fridays until 2100....</text>
</g>
<g id="edge43" class="edge"><title>:_11-&gt;node_713</title>
<a xlink:href="http://www2.elsevier.co.uk/~tony/1014/yads-schema-2002-04-03#detail" target="_blank" onmouseover="show_status('http://www2.elsevier.co.uk/~tony/1014/yads-schema-2002-04-03#detail');">
<path style="fill:none;stroke:#add9e6" d="M874,689C867,702 857,720 849,735"/>
<polygon style="fill:#add9e6;stroke:#add9e6" points="847,733 845,743 852,735 847,733"/>
<text text-anchor="middle" x="894" y="720" style="font-family:arial">has:detail</text>
</a></g>
<g id="node46" class="node"><title>:_12</title>
<a xlink:href="http://www.w3.org/1999/02/22-rdf-syntax-ns#Bag" target="_blank" onmouseover="show_status('http://www.w3.org/1999/02/22-rdf-syntax-ns#Bag');">
<ellipse cx="970" cy="761" rx="28" ry="18" style="fill:#d2d2d2;stroke:#d2d2d2"/>
<text text-anchor="middle" x="970" y="765" style="font-family:arial">rdf:Bag</text>
</a></g>
<g id="edge45" class="edge"><title>:_11-&gt;:_12</title>
<a xlink:href="http://www2.elsevier.co.uk/~tony/1014/yads-schema-2002-04-03#collection" target="_blank" onmouseover="show_status('http://www2.elsevier.co.uk/~tony/1014/yads-schema-2002-04-03#collection');">
<path style="fill:none;stroke:#add9e6" d="M907,688C914,693 922,700 928,707 938,717 946,727 954,737"/>
<polygon style="fill:#add9e6;stroke:#add9e6" points="951,737 959,744 955,734 951,737"/>
<text text-anchor="middle" x="986" y="720" style="font-family:arial">has:collection</text>
</a></g>
<g id="edge74" class="edge"><title>:_19-&gt;node_713</title>
<a xlink:href="http://www2.elsevier.co.uk/~tony/1014/yads-schema-2002-04-03#detail" target="_blank" onmouseover="show_status('http://www2.elsevier.co.uk/~tony/1014/yads-schema-2002-04-03#detail');">
<path style="fill:none;stroke:#add9e6" d="M512,682C572,697 680,722 755,741"/>
<polygon style="fill:#add9e6;stroke:#add9e6" points="752,743 762,743 753,738 752,743"/>
<text text-anchor="middle" x="716" y="720" style="font-family:arial">has:detail</text>
</a></g>
<g id="node72" class="node"><title>doi:1014/tube/district_line</title>
<a xlink:href="http://dx.doi.org/1014/tube/district_line" target="_blank" onmouseover="show_status('http://dx.doi.org/1014/tube/district_line');">
<ellipse cx="371" cy="761" rx="73" ry="18" style="fill:#dca0dd;stroke:#dca0dd"/>
<text text-anchor="middle" x="371" y="765" style="font-family:arial">doi:1014/tube/district_line</text>
</a></g>
<g id="edge72" class="edge"><title>:_19-&gt;doi:1014/tube/district_line</title>
<a xlink:href="http://www2.elsevier.co.uk/~tony/1014/yads-schema-2002-04-03#resource" target="_blank" onmouseover="show_status('http://www2.elsevier.co.uk/~tony/1014/yads-schema-2002-04-03#resource');">
<path style="fill:none;stroke:#add9e6" d="M431,683C418,689 404,697 394,707 387,715 382,724 378,734"/>
<polygon style="fill:#add9e6;stroke:#add9e6" points="376,733 375,743 381,734 376,733"/>
<text text-anchor="middle" x="440" y="720" style="font-family:arial">has:resource</text>
</a></g>
<g id="node75" class="node"><title>:_20</title>
<a xlink:href="http://www.w3.org/1999/02/22-rdf-syntax-ns#Bag" target="_blank" onmouseover="show_status('http://www.w3.org/1999/02/22-rdf-syntax-ns#Bag');">
<ellipse cx="490" cy="761" rx="28" ry="18" style="fill:#d2d2d2;stroke:#d2d2d2"/>
<text text-anchor="middle" x="490" y="765" style="font-family:arial">rdf:Bag</text>
</a></g>
<g id="edge76" class="edge"><title>:_19-&gt;:_20</title>
<a xlink:href="http://www2.elsevier.co.uk/~tony/1014/yads-schema-2002-04-03#collection" target="_blank" onmouseover="show_status('http://www2.elsevier.co.uk/~tony/1014/yads-schema-2002-04-03#collection');">
<path style="fill:none;stroke:#add9e6" d="M473,689C476,702 480,719 484,734"/>
<polygon style="fill:#add9e6;stroke:#add9e6" points="481,734 486,743 486,733 481,734"/>
<text text-anchor="middle" x="524" y="720" style="font-family:arial">has:collection</text>
</a></g>
<g id="node48" class="node"><title>:_13</title>
<ellipse cx="893" cy="872" rx="53" ry="18" style="fill:#eedb82;stroke:#eedb82"/>
<text text-anchor="middle" x="893" y="876" style="font-family:arial">tube:PrevStation</text>
</g>
<g id="edge47" class="edge"><title>:_12-&gt;:_13</title>
<a xlink:href="http://www.w3.org/1999/02/22-rdf-syntax-ns#_1" target="_blank" onmouseover="show_status('http://www.w3.org/1999/02/22-rdf-syntax-ns#_1');">
<path style="fill:none;stroke:#add9e6" d="M958,778C946,797 925,826 910,847"/>
<polygon style="fill:#add9e6;stroke:#add9e6" points="909,844 905,854 913,847 909,844"/>
<text text-anchor="middle" x="962" y="816" style="font-family:arial">rdf:_1</text>
</a></g>
<g id="node50" class="node"><title>:_16</title>
<ellipse cx="1066" cy="872" rx="53" ry="18" style="fill:#eedb82;stroke:#eedb82"/>
<text text-anchor="middle" x="1066" y="876" style="font-family:arial">tube:NextStation</text>
</g>
<g id="edge49" class="edge"><title>:_12-&gt;:_16</title>
<a xlink:href="http://www.w3.org/1999/02/22-rdf-syntax-ns#_2" target="_blank" onmouseover="show_status('http://www.w3.org/1999/02/22-rdf-syntax-ns#_2');">
<path style="fill:none;stroke:#add9e6" d="M984,777C999,796 1026,826 1045,847"/>
<polygon style="fill:#add9e6;stroke:#add9e6" points="1043,848 1051,854 1046,845 1043,848"/>
<text text-anchor="middle" x="1044" y="816" style="font-family:arial">rdf:_2</text>
</a></g>
<g id="node53" class="node"><title>doi:1014/tube/monument</title>
<a xlink:href="http://dx.doi.org/1014/tube/monument" target="_blank" onmouseover="show_status('http://dx.doi.org/1014/tube/monument');">
<ellipse cx="827" cy="962" rx="73" ry="18" style="fill:#dca0dd;stroke:#dca0dd"/>
<text text-anchor="middle" x="827" y="966" style="font-family:arial">doi:1014/tube/monument</text>
</a></g>
<g id="edge52" class="edge"><title>:_13-&gt;doi:1014/tube/monument</title>
<a xlink:href="http://www2.elsevier.co.uk/~tony/1014/yads-schema-2002-04-03#resource" target="_blank" onmouseover="show_status('http://www2.elsevier.co.uk/~tony/1014/yads-schema-2002-04-03#resource');">
<path style="fill:none;stroke:#add9e6" d="M849,882C836,888 822,896 814,908 809,916 810,926 813,935"/>
<polygon style="fill:#add9e6;stroke:#add9e6" points="810,935 816,944 815,934 810,935"/>
<text text-anchor="middle" x="858" y="921" style="font-family:arial">has:resource</text>
</a></g>
<g id="node55" class="node"><title>:_14</title>
<a xlink:href="http://www.w3.org/1999/02/22-rdf-syntax-ns#Bag" target="_blank" onmouseover="show_status('http://www.w3.org/1999/02/22-rdf-syntax-ns#Bag');">
<ellipse cx="946" cy="962" rx="28" ry="18" style="fill:#d2d2d2;stroke:#d2d2d2"/>
<text text-anchor="middle" x="946" y="966" style="font-family:arial">rdf:Bag</text>
</a></g>
<g id="edge54" class="edge"><title>:_13-&gt;:_14</title>
<a xlink:href="http://www2.elsevier.co.uk/~tony/1014/yads-schema-2002-04-03#collection" target="_blank" onmouseover="show_status('http://www2.elsevier.co.uk/~tony/1014/yads-schema-2002-04-03#collection');">
<path style="fill:none;stroke:#add9e6" d="M894,890C896,901 899,915 905,926 908,932 914,938 919,943"/>
<polygon style="fill:#add9e6;stroke:#add9e6" points="917,944 926,949 920,941 917,944"/>
<text text-anchor="middle" x="946" y="921" style="font-family:arial">has:collection</text>
</a></g>
<g id="node63" class="node"><title>doi:1014/tube/mansion_house</title>
<a xlink:href="http://dx.doi.org/1014/tube/mansion_house" target="_blank" onmouseover="show_status('http://dx.doi.org/1014/tube/mansion_house');">
<ellipse cx="1085" cy="962" rx="87" ry="18" style="fill:#dca0dd;stroke:#dca0dd"/>
<text text-anchor="middle" x="1085" y="966" style="font-family:arial">doi:1014/tube/mansion_house</text>
</a></g>
<g id="edge62" class="edge"><title>:_16-&gt;doi:1014/tube/mansion_house</title>
<a xlink:href="http://www2.elsevier.co.uk/~tony/1014/yads-schema-2002-04-03#resource" target="_blank" onmouseover="show_status('http://www2.elsevier.co.uk/~tony/1014/yads-schema-2002-04-03#resource');">
<path style="fill:none;stroke:#add9e6" d="M1070,890C1072,903 1076,920 1079,935"/>
<polygon style="fill:#add9e6;stroke:#add9e6" points="1076,935 1081,944 1081,934 1076,935"/>
<text text-anchor="middle" x="1120" y="921" style="font-family:arial">has:resource</text>
</a></g>
<g id="node65" class="node"><title>:_17</title>
<a xlink:href="http://www.w3.org/1999/02/22-rdf-syntax-ns#Bag" target="_blank" onmouseover="show_status('http://www.w3.org/1999/02/22-rdf-syntax-ns#Bag');">
<ellipse cx="1218" cy="962" rx="28" ry="18" style="fill:#d2d2d2;stroke:#d2d2d2"/>
<text text-anchor="middle" x="1218" y="966" style="font-family:arial">rdf:Bag</text>
</a></g>
<g id="edge64" class="edge"><title>:_16-&gt;:_17</title>
<a xlink:href="http://www2.elsevier.co.uk/~tony/1014/yads-schema-2002-04-03#collection" target="_blank" onmouseover="show_status('http://www2.elsevier.co.uk/~tony/1014/yads-schema-2002-04-03#collection');">
<path style="fill:none;stroke:#add9e6" d="M1108,883C1132,890 1157,899 1164,908 1166,912 1163,923 1165,926 1170,935 1178,942 1186,947"/>
<polygon style="fill:#add9e6;stroke:#add9e6" points="1184,949 1194,952 1187,945 1184,949"/>
<text text-anchor="middle" x="1206" y="921" style="font-family:arial">has:collection</text>
</a></g>
<g id="node57" class="node"><title>:_15</title>
<ellipse cx="837" cy="1067" rx="33" ry="18" style="fill:#eedb82;stroke:#eedb82"/>
<text text-anchor="middle" x="837" y="1071" style="font-family:arial">tube:Mins</text>
</g>
<g id="edge56" class="edge"><title>:_14-&gt;:_15</title>
<a xlink:href="http://www.w3.org/1999/02/22-rdf-syntax-ns#_1" target="_blank" onmouseover="show_status('http://www.w3.org/1999/02/22-rdf-syntax-ns#_1');">
<path style="fill:none;stroke:#add9e6" d="M930,977C912,995 881,1024 860,1045"/>
<polygon style="fill:#add9e6;stroke:#add9e6" points="859,1043 853,1051 862,1046 859,1043"/>
<text text-anchor="middle" x="929" y="1011" style="font-family:arial">rdf:_1</text>
</a></g>
<g id="node60" class="node"><title>data:,1</title>
<a xlink:href="" onclick="show_data('1');" onmouseover="show_status('data:,1');">
<ellipse cx="824" cy="1171" rx="27" ry="18" style="fill:#dca0dd;stroke:#dca0dd"/>
<text text-anchor="middle" x="824" y="1175" style="font-family:arial">data:,1</text>
</a></g>
<g id="edge59" class="edge"><title>:_15-&gt;data:,1</title>
<a xlink:href="http://www2.elsevier.co.uk/~tony/1014/yads-schema-2002-04-03#resource" target="_blank" onmouseover="show_status('http://www2.elsevier.co.uk/~tony/1014/yads-schema-2002-04-03#resource');">
<path style="fill:none;stroke:#add9e6" d="M835,1085C832,1101 830,1125 827,1144"/>
<polygon style="fill:#add9e6;stroke:#add9e6" points="825,1143 826,1153 830,1143 825,1143"/>
<text text-anchor="middle" x="872" y="1130" style="font-family:arial">has:resource</text>
</a></g>
<g id="node67" class="node"><title>:_18</title>
<ellipse cx="1081" cy="1067" rx="33" ry="18" style="fill:#eedb82;stroke:#eedb82"/>
<text text-anchor="middle" x="1081" y="1071" style="font-family:arial">tube:Mins</text>
</g>
<g id="edge66" class="edge"><title>:_17-&gt;:_18</title>
<a xlink:href="http://www.w3.org/1999/02/22-rdf-syntax-ns#_1" target="_blank" onmouseover="show_status('http://www.w3.org/1999/02/22-rdf-syntax-ns#_1');">
<path style="fill:none;stroke:#add9e6" d="M1200,976C1177,994 1136,1025 1109,1046"/>
<polygon style="fill:#add9e6;stroke:#add9e6" points="1108,1044 1101,1052 1110,1048 1108,1044"/>
<text text-anchor="middle" x="1189" y="1011" style="font-family:arial">rdf:_1</text>
</a></g>
<g id="edge69" class="edge"><title>:_18-&gt;data:,1</title>
<a xlink:href="http://www2.elsevier.co.uk/~tony/1014/yads-schema-2002-04-03#resource" target="_blank" onmouseover="show_status('http://www2.elsevier.co.uk/~tony/1014/yads-schema-2002-04-03#resource');">
<path style="fill:none;stroke:#add9e6" d="M1055,1078C1022,1092 965,1116 916,1135 896,1144 873,1152 856,1159"/>
<polygon style="fill:#add9e6;stroke:#add9e6" points="856,1156 848,1162 858,1161 856,1156"/>
<text text-anchor="middle" x="1010" y="1130" style="font-family:arial">has:resource</text>
</a></g>
<g id="node77" class="node"><title>:_21</title>
<ellipse cx="489" cy="872" rx="53" ry="18" style="fill:#eedb82;stroke:#eedb82"/>
<text text-anchor="middle" x="489" y="876" style="font-family:arial">tube:PrevStation</text>
</g>
<g id="edge78" class="edge"><title>:_20-&gt;:_21</title>
<a xlink:href="http://www.w3.org/1999/02/22-rdf-syntax-ns#_1" target="_blank" onmouseover="show_status('http://www.w3.org/1999/02/22-rdf-syntax-ns#_1');">
<path style="fill:none;stroke:#add9e6" d="M490,779C490,797 490,824 489,845"/>
<polygon style="fill:#add9e6;stroke:#add9e6" points="487,844 489,854 492,844 487,844"/>
<text text-anchor="middle" x="510" y="816" style="font-family:arial">rdf:_1</text>
</a></g>
<g id="node79" class="node"><title>:_24</title>
<ellipse cx="359" cy="872" rx="53" ry="18" style="fill:#eedb82;stroke:#eedb82"/>
<text text-anchor="middle" x="359" y="876" style="font-family:arial">tube:NextStation</text>
</g>
<g id="edge80" class="edge"><title>:_20-&gt;:_24</title>
<a xlink:href="http://www.w3.org/1999/02/22-rdf-syntax-ns#_2" target="_blank" onmouseover="show_status('http://www.w3.org/1999/02/22-rdf-syntax-ns#_2');">
<path style="fill:none;stroke:#add9e6" d="M474,776C468,782 460,789 453,795 449,799 448,800 443,803 424,819 403,836 386,850"/>
<polygon style="fill:#add9e6;stroke:#add9e6" points="386,847 379,855 389,851 386,847"/>
<text text-anchor="middle" x="469" y="816" style="font-family:arial">rdf:_2</text>
</a></g>
<g id="edge83" class="edge"><title>:_21-&gt;doi:1014/tube/mansion_house</title>
<a xlink:href="http://www2.elsevier.co.uk/~tony/1014/yads-schema-2002-04-03#resource" target="_blank" onmouseover="show_status('http://www2.elsevier.co.uk/~tony/1014/yads-schema-2002-04-03#resource');">
<path style="fill:none;stroke:#add9e6" d="M540,877C583,883 641,892 657,908 663,914 655,921 661,926 689,950 951,940 986,944 995,945 1003,947 1012,948"/>
<polygon style="fill:#add9e6;stroke:#add9e6" points="1012,950 1022,950 1013,946 1012,950"/>
<text text-anchor="middle" x="702" y="921" style="font-family:arial">has:resource</text>
</a></g>
<g id="node83" class="node"><title>:_22</title>
<a xlink:href="http://www.w3.org/1999/02/22-rdf-syntax-ns#Bag" target="_blank" onmouseover="show_status('http://www.w3.org/1999/02/22-rdf-syntax-ns#Bag');">
<ellipse cx="470" cy="962" rx="28" ry="18" style="fill:#d2d2d2;stroke:#d2d2d2"/>
<text text-anchor="middle" x="470" y="966" style="font-family:arial">rdf:Bag</text>
</a></g>
<g id="edge85" class="edge"><title>:_21-&gt;:_22</title>
<a xlink:href="http://www2.elsevier.co.uk/~tony/1014/yads-schema-2002-04-03#collection" target="_blank" onmouseover="show_status('http://www2.elsevier.co.uk/~tony/1014/yads-schema-2002-04-03#collection');">
<path style="fill:none;stroke:#add9e6" d="M480,890C477,896 475,902 473,908 471,917 470,926 470,935"/>
<polygon style="fill:#add9e6;stroke:#add9e6" points="468,934 470,944 473,934 468,934"/>
<text text-anchor="middle" x="517" y="921" style="font-family:arial">has:collection</text>
</a></g>
<g id="edge93" class="edge"><title>:_24-&gt;doi:1014/tube/monument</title>
<a xlink:href="http://www2.elsevier.co.uk/~tony/1014/yads-schema-2002-04-03#resource" target="_blank" onmouseover="show_status('http://www2.elsevier.co.uk/~tony/1014/yads-schema-2002-04-03#resource');">
<path style="fill:none;stroke:#add9e6" d="M399,884C407,886 416,888 424,890 482,902 502,883 554,908 565,914 562,921 572,926 603,941 685,951 747,956"/>
<polygon style="fill:#add9e6;stroke:#add9e6" points="746,958 756,957 746,953 746,958"/>
<text text-anchor="middle" x="613" y="921" style="font-family:arial">has:resource</text>
</a></g>
<g id="node91" class="node"><title>:_25</title>
<a xlink:href="http://www.w3.org/1999/02/22-rdf-syntax-ns#Bag" target="_blank" onmouseover="show_status('http://www.w3.org/1999/02/22-rdf-syntax-ns#Bag');">
<ellipse cx="352" cy="962" rx="28" ry="18" style="fill:#d2d2d2;stroke:#d2d2d2"/>
<text text-anchor="middle" x="352" y="966" style="font-family:arial">rdf:Bag</text>
</a></g>
<g id="edge95" class="edge"><title>:_24-&gt;:_25</title>
<a xlink:href="http://www2.elsevier.co.uk/~tony/1014/yads-schema-2002-04-03#collection" target="_blank" onmouseover="show_status('http://www2.elsevier.co.uk/~tony/1014/yads-schema-2002-04-03#collection');">
<path style="fill:none;stroke:#add9e6" d="M349,890C347,896 344,902 343,908 341,917 342,926 344,935"/>
<polygon style="fill:#add9e6;stroke:#add9e6" points="341,935 346,944 346,934 341,935"/>
<text text-anchor="middle" x="387" y="921" style="font-family:arial">has:collection</text>
</a></g>
<g id="node85" class="node"><title>:_23</title>
<ellipse cx="489" cy="1067" rx="33" ry="18" style="fill:#eedb82;stroke:#eedb82"/>
<text text-anchor="middle" x="489" y="1071" style="font-family:arial">tube:Mins</text>
</g>
<g id="edge87" class="edge"><title>:_22-&gt;:_23</title>
<a xlink:href="http://www.w3.org/1999/02/22-rdf-syntax-ns#_1" target="_blank" onmouseover="show_status('http://www.w3.org/1999/02/22-rdf-syntax-ns#_1');">
<path style="fill:none;stroke:#add9e6" d="M473,980C476,996 481,1021 484,1040"/>
<polygon style="fill:#add9e6;stroke:#add9e6" points="481,1040 486,1049 486,1039 481,1040"/>
<text text-anchor="middle" x="500" y="1011" style="font-family:arial">rdf:_1</text>
</a></g>
<g id="edge90" class="edge"><title>:_23-&gt;data:,1</title>
<a xlink:href="http://www2.elsevier.co.uk/~tony/1014/yads-schema-2002-04-03#resource" target="_blank" onmouseover="show_status('http://www2.elsevier.co.uk/~tony/1014/yads-schema-2002-04-03#resource');">
<path style="fill:none;stroke:#add9e6" d="M518,1076C580,1095 725,1140 790,1160"/>
<polygon style="fill:#add9e6;stroke:#add9e6" points="789,1162 799,1163 790,1157 789,1162"/>
<text text-anchor="middle" x="748" y="1130" style="font-family:arial">has:resource</text>
</a></g>
<g id="node93" class="node"><title>:_26</title>
<ellipse cx="366" cy="1067" rx="33" ry="18" style="fill:#eedb82;stroke:#eedb82"/>
<text text-anchor="middle" x="366" y="1071" style="font-family:arial">tube:Mins</text>
</g>
<g id="edge97" class="edge"><title>:_25-&gt;:_26</title>
<a xlink:href="http://www.w3.org/1999/02/22-rdf-syntax-ns#_1" target="_blank" onmouseover="show_status('http://www.w3.org/1999/02/22-rdf-syntax-ns#_1');">
<path style="fill:none;stroke:#add9e6" d="M354,980C357,996 360,1021 362,1040"/>
<polygon style="fill:#add9e6;stroke:#add9e6" points="359,1039 363,1049 364,1039 359,1039"/>
<text text-anchor="middle" x="380" y="1011" style="font-family:arial">rdf:_1</text>
</a></g>
<g id="edge100" class="edge"><title>:_26-&gt;data:,1</title>
<a xlink:href="http://www2.elsevier.co.uk/~tony/1014/yads-schema-2002-04-03#resource" target="_blank" onmouseover="show_status('http://www2.elsevier.co.uk/~tony/1014/yads-schema-2002-04-03#resource');">
<path style="fill:none;stroke:#add9e6" d="M388,1081C403,1090 424,1102 444,1109 565,1154 719,1167 788,1170"/>
<polygon style="fill:#add9e6;stroke:#add9e6" points="787,1172 797,1170 787,1167 787,1172"/>
<text text-anchor="middle" x="568" y="1130" style="font-family:arial">has:resource</text>
</a></g>
</g>
</svg>
