<?xml version="1.0" encoding="UTF-8" standalone="no"?>
<!DOCTYPE svg PUBLIC "-//W3C//DTD SVG 1.0//EN"
 "http://www.w3.org/TR/2001/REC-SVG-20010904/DTD/svg10.dtd" [
 <!ATTLIST svg xmlns:xlink CDATA #FIXED "http://www.w3.org/1999/xlink">
]>
<!-- Generated by dot version 1.8.5 (Tue Apr 23 17:19:23  2002)
     For user: (Administrator) ,S-1-5-21-1454471165-688789844-1708537768-500   Title: yads    Pages: 1 -->
<svg width="1229px" height="1272px"
 xmlns="http://www.w3.org/2000/svg" xmlns:xlink="http://www.w3.org/1999/xlink">
<g id="graph0" class="graph" style="font-family:Times-Roman;font-size:11.00">
<title>yads</title>
<text text-anchor="middle" x="614" y="1261" style="font-family:arial;font-size:24.00">YADS - A Description Service</text>
<g id="graph2" class="cluster"><title>cluster_1</title>
<polygon style="fill:none;stroke:#d2d2d2;stroke-dasharray:5,2" points="19,1229 1210,1229 1210,43 19,43 19,1229"/>
<text text-anchor="middle" x="128" y="55" style="font-family:arial">Nest - Chalfont &amp; Latimer Station</text>
</g>
<g id="graph3" class="cluster"><title>cluster_3</title>
<polygon style="fill:none;stroke:#d2d2d2;stroke-dasharray:5,2" points="27,1221 1202,1221 1202,238 27,238 27,1221"/>
<text text-anchor="middle" x="99" y="250" style="font-family:arial">Nest - Application Profile</text>
</g>
<g id="graph4" class="cluster"><title>cluster_5</title>
<polygon style="fill:none;stroke:#d2d2d2;stroke-dasharray:5,2" points="35,795 280,795 280,433 35,433 35,795"/>
<text text-anchor="middle" x="80" y="445" style="font-family:arial">Item - Location</text>
</g>
<g id="graph5" class="cluster"><title>cluster_7</title>
<polygon style="fill:none;stroke:#d2d2d2;stroke-dasharray:5,2" points="43,787 167,787 167,628 43,628 43,787"/>
<text text-anchor="middle" x="59" y="640" style="font-family:arial">Item</text>
</g>
<g id="graph6" class="cluster"><title>cluster_8</title>
<polygon style="fill:none;stroke:#d2d2d2;stroke-dasharray:5,2" points="175,787 272,787 272,628 175,628 175,787"/>
<text text-anchor="middle" x="191" y="640" style="font-family:arial">Item</text>
</g>
<g id="graph7" class="cluster"><title>cluster_9</title>
<polygon style="fill:none;stroke:#d2d2d2;stroke-dasharray:5,2" points="288,1213 1194,1213 1194,433 288,433 288,1213"/>
<text text-anchor="middle" x="357" y="445" style="font-family:arial">Item - Line Interchanges</text>
</g>
<g id="graph8" class="cluster"><title>cluster_11</title>
<polygon style="fill:none;stroke:#d2d2d2;stroke-dasharray:5,2" points="296,1205 804,1205 804,628 296,628 296,1205"/>
<text text-anchor="middle" x="364" y="640" style="font-family:arial">Nest - Line Interchange</text>
</g>
<g id="graph9" class="cluster"><title>cluster_13</title>
<polygon style="fill:none;stroke:#d2d2d2;stroke-dasharray:5,2" points="304,1197 540,1197 540,829 304,829 304,1197"/>
<text text-anchor="middle" x="372" y="841" style="font-family:arial">Nest - Next Stop Back</text>
</g>
<g id="graph10" class="cluster"><title>cluster_15</title>
<polygon style="fill:none;stroke:#d2d2d2;stroke-dasharray:5,2" points="435,1189 532,1189 532,1024 435,1024 435,1189"/>
<text text-anchor="middle" x="451" y="1036" style="font-family:arial">Item</text>
</g>
<g id="graph11" class="cluster"><title>cluster_16</title>
<polygon style="fill:none;stroke:#d2d2d2;stroke-dasharray:5,2" points="548,1101 796,1101 796,829 548,829 548,1101"/>
<text text-anchor="middle" x="600" y="841" style="font-family:arial">Nest - Next Stop</text>
</g>
<g id="graph12" class="cluster"><title>cluster_18</title>
<polygon style="fill:none;stroke:#d2d2d2;stroke-dasharray:5,2" points="556,1093 638,1093 638,1024 556,1024 556,1093"/>
<text text-anchor="middle" x="572" y="1036" style="font-family:arial">Item</text>
</g>
<g id="graph13" class="cluster"><title>cluster_19</title>
<polygon style="fill:none;stroke:#d2d2d2;stroke-dasharray:5,2" points="812,1205 1186,1205 1186,628 812,628 812,1205"/>
<text text-anchor="middle" x="880" y="640" style="font-family:arial">Nest - Line Interchange</text>
</g>
<g id="graph14" class="cluster"><title>cluster_21</title>
<polygon style="fill:none;stroke:#d2d2d2;stroke-dasharray:5,2" points="950,1197 1178,1197 1178,829 950,829 950,1197"/>
<text text-anchor="middle" x="1018" y="841" style="font-family:arial">Nest - Next Stop Back</text>
</g>
<g id="graph15" class="cluster"><title>cluster_23</title>
<polygon style="fill:none;stroke:#d2d2d2;stroke-dasharray:5,2" points="1073,1189 1170,1189 1170,1024 1073,1024 1073,1189"/>
<text text-anchor="middle" x="1089" y="1036" style="font-family:arial">Item</text>
</g>
<g id="graph16" class="cluster"><title>cluster_24</title>
<polygon style="fill:none;stroke:#d2d2d2;stroke-dasharray:5,2" points="820,1101 942,1101 942,829 820,829 820,1101"/>
<text text-anchor="middle" x="872" y="841" style="font-family:arial">Nest - Next Stop</text>
</g>
<g id="graph17" class="cluster"><title>cluster_26</title>
<polygon style="fill:none;stroke:#d2d2d2;stroke-dasharray:5,2" points="828,1093 910,1093 910,1024 828,1024 828,1093"/>
<text text-anchor="middle" x="844" y="1036" style="font-family:arial">Item</text>
</g>
<g id="node2" class="node"><title>:_1</title>
<ellipse cx="323" cy="86" rx="40" ry="18" style="fill:#eedb82;stroke:#eedb82"/>
<text text-anchor="middle" x="323" y="90" style="font-family:arial">tube:Station</text>
</g>
<g id="node4" class="node"><title>doi:1014/tube/chalfont_&amp;_lati...r</title>
<a xlink:href="http://dx.doi.org/1014/tube/chalfont_&amp;_latimer" target="_blank" onmouseover="show_status('http://dx.doi.org/1014/tube/chalfont_&amp;_latimer');">
<ellipse cx="134" cy="176" rx="102" ry="18" style="fill:#dca0dd;stroke:#dca0dd"/>
<text text-anchor="middle" x="134" y="180" style="font-family:arial">doi:1014/tube/chalfont_&amp;_lati...r</text>
</a></g>
<g id="edge3" class="edge"><title>:_1-&gt;doi:1014/tube/chalfont_&amp;_lati...r</title>
<a xlink:href="http://www2.elsevier.co.uk/~tony/1014/yads-schema-2002-04-03#resource" target="_blank" onmouseover="show_status('http://www2.elsevier.co.uk/~tony/1014/yads-schema-2002-04-03#resource');">
<path style="fill:none;stroke:#add9e6" d="M293,98C277,105 256,114 238,122 217,133 193,145 174,155"/>
<polygon style="fill:#add9e6;stroke:#add9e6" points="174,152 166,159 176,157 174,152"/>
<text text-anchor="middle" x="287" y="135" style="font-family:arial">has:resource</text>
</a></g>
<g id="node6" class="node"><title>node_1</title>
<polygon style="fill:#6497ed;stroke:#6497ed" points="392,158 254,158 254,194 392,194 392,158"/>
<text text-anchor="middle" x="323" y="180" style="font-family:arial">Chalfont &amp; Latimer</text>
</g>
<g id="edge5" class="edge"><title>:_1-&gt;node_1</title>
<a xlink:href="http://www2.elsevier.co.uk/~tony/1014/yads-schema-2002-04-03#label" target="_blank" onmouseover="show_status('http://www2.elsevier.co.uk/~tony/1014/yads-schema-2002-04-03#label');">
<path style="fill:none;stroke:#add9e6" d="M323,104C323,117 323,134 323,149"/>
<polygon style="fill:#add9e6;stroke:#add9e6" points="321,148 323,158 326,148 321,148"/>
<text text-anchor="middle" x="350" y="135" style="font-family:arial">has:label</text>
</a></g>
<g id="node8" class="node"><title>:_2</title>
<a xlink:href="http://www.w3.org/1999/02/22-rdf-syntax-ns#Bag" target="_blank" onmouseover="show_status('http://www.w3.org/1999/02/22-rdf-syntax-ns#Bag');">
<ellipse cx="438" cy="176" rx="28" ry="18" style="fill:#d2d2d2;stroke:#d2d2d2"/>
<text text-anchor="middle" x="438" y="180" style="font-family:arial">rdf:Bag</text>
</a></g>
<g id="edge7" class="edge"><title>:_1-&gt;:_2</title>
<a xlink:href="http://www2.elsevier.co.uk/~tony/1014/yads-schema-2002-04-03#collection" target="_blank" onmouseover="show_status('http://www2.elsevier.co.uk/~tony/1014/yads-schema-2002-04-03#collection');">
<path style="fill:none;stroke:#add9e6" d="M348,100C359,106 372,114 382,122 394,132 407,144 417,154"/>
<polygon style="fill:#add9e6;stroke:#add9e6" points="414,155 423,160 418,151 414,155"/>
<text text-anchor="middle" x="444" y="135" style="font-family:arial">has:collection</text>
</a></g>
<g id="node10" class="node"><title>:_3</title>
<ellipse cx="438" cy="281" rx="34" ry="18" style="fill:#eedb82;stroke:#eedb82"/>
<text text-anchor="middle" x="438" y="285" style="font-family:arial">doi:Profile</text>
</g>
<g id="edge9" class="edge"><title>:_2-&gt;:_3</title>
<a xlink:href="http://www.w3.org/1999/02/22-rdf-syntax-ns#_1" target="_blank" onmouseover="show_status('http://www.w3.org/1999/02/22-rdf-syntax-ns#_1');">
<path style="fill:none;stroke:#add9e6" d="M438,194C438,210 438,235 438,254"/>
<polygon style="fill:#add9e6;stroke:#add9e6" points="436,253 438,263 441,253 436,253"/>
<text text-anchor="middle" x="458" y="225" style="font-family:arial">rdf:_1</text>
</a></g>
<g id="node13" class="node"><title>doi:1014/profile.tube</title>
<a xlink:href="http://dx.doi.org/1014/profile.tube" target="_blank" onmouseover="show_status('http://dx.doi.org/1014/profile.tube');">
<ellipse cx="360" cy="371" rx="59" ry="18" style="fill:#dca0dd;stroke:#dca0dd"/>
<text text-anchor="middle" x="360" y="375" style="font-family:arial">doi:1014/profile.tube</text>
</a></g>
<g id="edge12" class="edge"><title>:_3-&gt;doi:1014/profile.tube</title>
<a xlink:href="http://www2.elsevier.co.uk/~tony/1014/yads-schema-2002-04-03#resource" target="_blank" onmouseover="show_status('http://www2.elsevier.co.uk/~tony/1014/yads-schema-2002-04-03#resource');">
<path style="fill:none;stroke:#add9e6" d="M407,289C392,294 375,303 365,317 360,324 358,335 358,344"/>
<polygon style="fill:#add9e6;stroke:#add9e6" points="356,343 358,353 361,343 356,343"/>
<text text-anchor="middle" x="409" y="330" style="font-family:arial">has:resource</text>
</a></g>
<g id="node15" class="node"><title>:_4</title>
<a xlink:href="http://www.w3.org/1999/02/22-rdf-syntax-ns#Bag" target="_blank" onmouseover="show_status('http://www.w3.org/1999/02/22-rdf-syntax-ns#Bag');">
<ellipse cx="465" cy="371" rx="28" ry="18" style="fill:#d2d2d2;stroke:#d2d2d2"/>
<text text-anchor="middle" x="465" y="375" style="font-family:arial">rdf:Bag</text>
</a></g>
<g id="edge14" class="edge"><title>:_3-&gt;:_4</title>
<a xlink:href="http://www2.elsevier.co.uk/~tony/1014/yads-schema-2002-04-03#collection" target="_blank" onmouseover="show_status('http://www2.elsevier.co.uk/~tony/1014/yads-schema-2002-04-03#collection');">
<path style="fill:none;stroke:#add9e6" d="M443,299C447,312 453,330 457,344"/>
<polygon style="fill:#add9e6;stroke:#add9e6" points="454,344 460,353 459,343 454,344"/>
<text text-anchor="middle" x="496" y="330" style="font-family:arial">has:collection</text>
</a></g>
<g id="node17" class="node"><title>:_5</title>
<a xlink:href="http://www2.elsevier.co.uk/~tony/1014/yads-schema-2002-04-03#Item" target="_blank" onmouseover="show_status('http://www2.elsevier.co.uk/~tony/1014/yads-schema-2002-04-03#Item');">
<ellipse cx="218" cy="476" rx="28" ry="18" style="fill:#d2d2d2;stroke:#d2d2d2"/>
<text text-anchor="middle" x="218" y="480" style="font-family:arial">isa:Item</text>
</a></g>
<g id="edge16" class="edge"><title>:_4-&gt;:_5</title>
<a xlink:href="http://www.w3.org/1999/02/22-rdf-syntax-ns#_1" target="_blank" onmouseover="show_status('http://www.w3.org/1999/02/22-rdf-syntax-ns#_1');">
<path style="fill:none;stroke:#add9e6" d="M443,383C438,385 433,387 428,389 366,414 345,405 284,433 270,440 255,449 243,457"/>
<polygon style="fill:#add9e6;stroke:#add9e6" points="243,454 236,462 246,458 243,454"/>
<text text-anchor="middle" x="399" y="420" style="font-family:arial">rdf:_1</text>
</a></g>
<g id="node19" class="node"><title>:_9</title>
<a xlink:href="http://www2.elsevier.co.uk/~tony/1014/yads-schema-2002-04-03#Item" target="_blank" onmouseover="show_status('http://www2.elsevier.co.uk/~tony/1014/yads-schema-2002-04-03#Item');">
<ellipse cx="482" cy="476" rx="28" ry="18" style="fill:#d2d2d2;stroke:#d2d2d2"/>
<text text-anchor="middle" x="482" y="480" style="font-family:arial">isa:Item</text>
</a></g>
<g id="edge18" class="edge"><title>:_4-&gt;:_9</title>
<a xlink:href="http://www.w3.org/1999/02/22-rdf-syntax-ns#_2" target="_blank" onmouseover="show_status('http://www.w3.org/1999/02/22-rdf-syntax-ns#_2');">
<path style="fill:none;stroke:#add9e6" d="M468,389C471,405 475,430 478,449"/>
<polygon style="fill:#add9e6;stroke:#add9e6" points="475,448 479,458 480,448 475,448"/>
<text text-anchor="middle" x="495" y="420" style="font-family:arial">rdf:_2</text>
</a></g>
<g id="node22" class="node"><title>:_6</title>
<a xlink:href="http://www.w3.org/1999/02/22-rdf-syntax-ns#Bag" target="_blank" onmouseover="show_status('http://www.w3.org/1999/02/22-rdf-syntax-ns#Bag');">
<ellipse cx="191" cy="566" rx="28" ry="18" style="fill:#d2d2d2;stroke:#d2d2d2"/>
<text text-anchor="middle" x="191" y="570" style="font-family:arial">rdf:Bag</text>
</a></g>
<g id="edge21" class="edge"><title>:_5-&gt;:_6</title>
<a xlink:href="http://www2.elsevier.co.uk/~tony/1014/yads-schema-2002-04-03#collection" target="_blank" onmouseover="show_status('http://www2.elsevier.co.uk/~tony/1014/yads-schema-2002-04-03#collection');">
<path style="fill:none;stroke:#add9e6" d="M210,494C208,499 205,506 203,512 200,521 198,530 196,539"/>
<polygon style="fill:#add9e6;stroke:#add9e6" points="194,538 194,548 199,539 194,538"/>
<text text-anchor="middle" x="247" y="525" style="font-family:arial">has:collection</text>
</a></g>
<g id="node35" class="node"><title>:_10</title>
<a xlink:href="http://www.w3.org/1999/02/22-rdf-syntax-ns#Bag" target="_blank" onmouseover="show_status('http://www.w3.org/1999/02/22-rdf-syntax-ns#Bag');">
<ellipse cx="626" cy="566" rx="28" ry="18" style="fill:#d2d2d2;stroke:#d2d2d2"/>
<text text-anchor="middle" x="626" y="570" style="font-family:arial">rdf:Bag</text>
</a></g>
<g id="edge34" class="edge"><title>:_9-&gt;:_10</title>
<a xlink:href="http://www2.elsevier.co.uk/~tony/1014/yads-schema-2002-04-03#collection" target="_blank" onmouseover="show_status('http://www2.elsevier.co.uk/~tony/1014/yads-schema-2002-04-03#collection');">
<path style="fill:none;stroke:#add9e6" d="M502,489C527,504 569,530 597,548"/>
<polygon style="fill:#add9e6;stroke:#add9e6" points="596,550 606,553 598,546 596,550"/>
<text text-anchor="middle" x="609" y="525" style="font-family:arial">has:collection</text>
</a></g>
<g id="node24" class="node"><title>:_7</title>
<ellipse cx="105" cy="671" rx="35" ry="18" style="fill:#eedb82;stroke:#eedb82"/>
<text text-anchor="middle" x="105" y="675" style="font-family:arial">tube:Zone</text>
</g>
<g id="edge23" class="edge"><title>:_6-&gt;:_7</title>
<a xlink:href="http://www.w3.org/1999/02/22-rdf-syntax-ns#_1" target="_blank" onmouseover="show_status('http://www.w3.org/1999/02/22-rdf-syntax-ns#_1');">
<path style="fill:none;stroke:#add9e6" d="M175,581C169,588 162,595 156,602 144,616 132,634 122,647"/>
<polygon style="fill:#add9e6;stroke:#add9e6" points="121,644 117,654 125,647 121,644"/>
<text text-anchor="middle" x="179" y="615" style="font-family:arial">rdf:_1</text>
</a></g>
<g id="node26" class="node"><title>:_8</title>
<ellipse cx="215" cy="671" rx="32" ry="18" style="fill:#eedb82;stroke:#eedb82"/>
<text text-anchor="middle" x="215" y="675" style="font-family:arial">tube:Grid</text>
</g>
<g id="edge25" class="edge"><title>:_6-&gt;:_8</title>
<a xlink:href="http://www.w3.org/1999/02/22-rdf-syntax-ns#_2" target="_blank" onmouseover="show_status('http://www.w3.org/1999/02/22-rdf-syntax-ns#_2');">
<path style="fill:none;stroke:#add9e6" d="M195,584C198,600 204,625 209,644"/>
<polygon style="fill:#add9e6;stroke:#add9e6" points="206,644 211,653 211,643 206,644"/>
<text text-anchor="middle" x="224" y="615" style="font-family:arial">rdf:_2</text>
</a></g>
<g id="node29" class="node"><title>data:,Zone%20C</title>
<a xlink:href="" onclick="show_data('Zone%20C');" onmouseover="show_status('data:,Zone%20C');">
<ellipse cx="105" cy="761" rx="54" ry="18" style="fill:#dca0dd;stroke:#dca0dd"/>
<text text-anchor="middle" x="105" y="765" style="font-family:arial">data:,Zone%20C</text>
</a></g>
<g id="edge28" class="edge"><title>:_7-&gt;data:,Zone%20C</title>
<a xlink:href="http://www2.elsevier.co.uk/~tony/1014/yads-schema-2002-04-03#resource" target="_blank" onmouseover="show_status('http://www2.elsevier.co.uk/~tony/1014/yads-schema-2002-04-03#resource');">
<path style="fill:none;stroke:#add9e6" d="M97,689C94,694 91,701 90,707 89,715 89,718 90,725 90,728 91,731 92,734"/>
<polygon style="fill:#add9e6;stroke:#add9e6" points="90,735 96,743 94,733 90,735"/>
<text text-anchor="middle" x="134" y="720" style="font-family:arial">has:resource</text>
</a></g>
<g id="node32" class="node"><title>data:,A1</title>
<a xlink:href="" onclick="show_data('A1');" onmouseover="show_status('data:,A1');">
<ellipse cx="212" cy="761" rx="29" ry="18" style="fill:#dca0dd;stroke:#dca0dd"/>
<text text-anchor="middle" x="212" y="765" style="font-family:arial">data:,A1</text>
</a></g>
<g id="edge31" class="edge"><title>:_8-&gt;data:,A1</title>
<a xlink:href="http://www2.elsevier.co.uk/~tony/1014/yads-schema-2002-04-03#resource" target="_blank" onmouseover="show_status('http://www2.elsevier.co.uk/~tony/1014/yads-schema-2002-04-03#resource');">
<path style="fill:none;stroke:#add9e6" d="M213,689C212,695 211,701 211,707 210,716 211,725 211,733"/>
<polygon style="fill:#add9e6;stroke:#add9e6" points="209,733 211,743 214,733 209,733"/>
<text text-anchor="middle" x="255" y="720" style="font-family:arial">has:resource</text>
</a></g>
<g id="node37" class="node"><title>:_11</title>
<ellipse cx="626" cy="671" rx="53" ry="18" style="fill:#eedb82;stroke:#eedb82"/>
<text text-anchor="middle" x="626" y="675" style="font-family:arial">tube:LineChange</text>
</g>
<g id="edge36" class="edge"><title>:_10-&gt;:_11</title>
<a xlink:href="http://www.w3.org/1999/02/22-rdf-syntax-ns#_1" target="_blank" onmouseover="show_status('http://www.w3.org/1999/02/22-rdf-syntax-ns#_1');">
<path style="fill:none;stroke:#add9e6" d="M626,584C626,600 626,625 626,644"/>
<polygon style="fill:#add9e6;stroke:#add9e6" points="624,643 626,653 629,643 624,643"/>
<text text-anchor="middle" x="646" y="615" style="font-family:arial">rdf:_1</text>
</a></g>
<g id="node39" class="node"><title>:_19</title>
<ellipse cx="873" cy="671" rx="53" ry="18" style="fill:#eedb82;stroke:#eedb82"/>
<text text-anchor="middle" x="873" y="675" style="font-family:arial">tube:LineChange</text>
</g>
<g id="edge38" class="edge"><title>:_10-&gt;:_19</title>
<a xlink:href="http://www.w3.org/1999/02/22-rdf-syntax-ns#_2" target="_blank" onmouseover="show_status('http://www.w3.org/1999/02/22-rdf-syntax-ns#_2');">
<path style="fill:none;stroke:#add9e6" d="M652,573C689,583 755,602 808,628 820,634 833,642 843,649"/>
<polygon style="fill:#add9e6;stroke:#add9e6" points="841,651 851,654 844,647 841,651"/>
<text text-anchor="middle" x="811" y="615" style="font-family:arial">rdf:_2</text>
</a></g>
<g id="node42" class="node"><title>doi:1014/tube/metropolitan_li...e</title>
<a xlink:href="http://dx.doi.org/1014/tube/metropolitan_line" target="_blank" onmouseover="show_status('http://dx.doi.org/1014/tube/metropolitan_line');">
<ellipse cx="708" cy="761" rx="88" ry="18" style="fill:#dca0dd;stroke:#dca0dd"/>
<text text-anchor="middle" x="708" y="765" style="font-family:arial">doi:1014/tube/metropolitan_li...e</text>
</a></g>
<g id="edge41" class="edge"><title>:_11-&gt;doi:1014/tube/metropolitan_li...e</title>
<a xlink:href="http://www2.elsevier.co.uk/~tony/1014/yads-schema-2002-04-03#resource" target="_blank" onmouseover="show_status('http://www2.elsevier.co.uk/~tony/1014/yads-schema-2002-04-03#resource');">
<path style="fill:none;stroke:#add9e6" d="M653,687C661,692 670,699 677,707 685,715 691,726 696,735"/>
<polygon style="fill:#add9e6;stroke:#add9e6" points="693,735 700,743 698,733 693,735"/>
<text text-anchor="middle" x="732" y="720" style="font-family:arial">has:resource</text>
</a></g>
<g id="node44" class="node"><title>:_12</title>
<a xlink:href="http://www.w3.org/1999/02/22-rdf-syntax-ns#Bag" target="_blank" onmouseover="show_status('http://www.w3.org/1999/02/22-rdf-syntax-ns#Bag');">
<ellipse cx="574" cy="761" rx="28" ry="18" style="fill:#d2d2d2;stroke:#d2d2d2"/>
<text text-anchor="middle" x="574" y="765" style="font-family:arial">rdf:Bag</text>
</a></g>
<g id="edge43" class="edge"><title>:_11-&gt;:_12</title>
<a xlink:href="http://www2.elsevier.co.uk/~tony/1014/yads-schema-2002-04-03#collection" target="_blank" onmouseover="show_status('http://www2.elsevier.co.uk/~tony/1014/yads-schema-2002-04-03#collection');">
<path style="fill:none;stroke:#add9e6" d="M608,688C602,694 596,700 592,707 588,715 584,725 581,734"/>
<polygon style="fill:#add9e6;stroke:#add9e6" points="579,733 578,743 584,734 579,733"/>
<text text-anchor="middle" x="636" y="720" style="font-family:arial">has:collection</text>
</a></g>
<g id="edge70" class="edge"><title>:_19-&gt;doi:1014/tube/metropolitan_li...e</title>
<a xlink:href="http://www2.elsevier.co.uk/~tony/1014/yads-schema-2002-04-03#resource" target="_blank" onmouseover="show_status('http://www2.elsevier.co.uk/~tony/1014/yads-schema-2002-04-03#resource');">
<path style="fill:none;stroke:#add9e6" d="M835,684C821,690 805,698 792,707 784,714 785,719 776,725 769,732 760,737 752,742"/>
<polygon style="fill:#add9e6;stroke:#add9e6" points="754,738 746,745 756,743 754,738"/>
<text text-anchor="middle" x="839" y="720" style="font-family:arial">has:resource</text>
</a></g>
<g id="node71" class="node"><title>:_20</title>
<a xlink:href="http://www.w3.org/1999/02/22-rdf-syntax-ns#Bag" target="_blank" onmouseover="show_status('http://www.w3.org/1999/02/22-rdf-syntax-ns#Bag');">
<ellipse cx="881" cy="761" rx="28" ry="18" style="fill:#d2d2d2;stroke:#d2d2d2"/>
<text text-anchor="middle" x="881" y="765" style="font-family:arial">rdf:Bag</text>
</a></g>
<g id="edge72" class="edge"><title>:_19-&gt;:_20</title>
<a xlink:href="http://www2.elsevier.co.uk/~tony/1014/yads-schema-2002-04-03#collection" target="_blank" onmouseover="show_status('http://www2.elsevier.co.uk/~tony/1014/yads-schema-2002-04-03#collection');">
<path style="fill:none;stroke:#add9e6" d="M875,689C876,702 877,719 878,734"/>
<polygon style="fill:#add9e6;stroke:#add9e6" points="875,733 879,743 880,733 875,733"/>
<text text-anchor="middle" x="920" y="720" style="font-family:arial">has:collection</text>
</a></g>
<g id="node46" class="node"><title>:_13</title>
<ellipse cx="451" cy="872" rx="53" ry="18" style="fill:#eedb82;stroke:#eedb82"/>
<text text-anchor="middle" x="451" y="876" style="font-family:arial">tube:PrevStation</text>
</g>
<g id="edge45" class="edge"><title>:_12-&gt;:_13</title>
<a xlink:href="http://www.w3.org/1999/02/22-rdf-syntax-ns#_1" target="_blank" onmouseover="show_status('http://www.w3.org/1999/02/22-rdf-syntax-ns#_1');">
<path style="fill:none;stroke:#add9e6" d="M558,776C537,795 499,828 475,850"/>
<polygon style="fill:#add9e6;stroke:#add9e6" points="475,846 470,855 479,850 475,846"/>
<text text-anchor="middle" x="550" y="816" style="font-family:arial">rdf:_1</text>
</a></g>
<g id="node48" class="node"><title>:_16</title>
<ellipse cx="609" cy="872" rx="53" ry="18" style="fill:#eedb82;stroke:#eedb82"/>
<text text-anchor="middle" x="609" y="876" style="font-family:arial">tube:NextStation</text>
</g>
<g id="edge47" class="edge"><title>:_12-&gt;:_16</title>
<a xlink:href="http://www.w3.org/1999/02/22-rdf-syntax-ns#_2" target="_blank" onmouseover="show_status('http://www.w3.org/1999/02/22-rdf-syntax-ns#_2');">
<path style="fill:none;stroke:#add9e6" d="M580,779C586,796 594,825 601,845"/>
<polygon style="fill:#add9e6;stroke:#add9e6" points="598,845 603,854 603,844 598,845"/>
<text text-anchor="middle" x="615" y="816" style="font-family:arial">rdf:_2</text>
</a></g>
<g id="node51" class="node"><title>doi:1014/tube/amersham</title>
<a xlink:href="http://dx.doi.org/1014/tube/amersham" target="_blank" onmouseover="show_status('http://dx.doi.org/1014/tube/amersham');">
<ellipse cx="385" cy="962" rx="73" ry="18" style="fill:#dca0dd;stroke:#dca0dd"/>
<text text-anchor="middle" x="385" y="966" style="font-family:arial">doi:1014/tube/amersham</text>
</a></g>
<g id="edge50" class="edge"><title>:_13-&gt;doi:1014/tube/amersham</title>
<a xlink:href="http://www2.elsevier.co.uk/~tony/1014/yads-schema-2002-04-03#resource" target="_blank" onmouseover="show_status('http://www2.elsevier.co.uk/~tony/1014/yads-schema-2002-04-03#resource');">
<path style="fill:none;stroke:#add9e6" d="M407,882C394,888 380,896 372,908 367,916 368,926 371,935"/>
<polygon style="fill:#add9e6;stroke:#add9e6" points="368,935 374,944 373,934 368,935"/>
<text text-anchor="middle" x="416" y="921" style="font-family:arial">has:resource</text>
</a></g>
<g id="node53" class="node"><title>:_14</title>
<a xlink:href="http://www.w3.org/1999/02/22-rdf-syntax-ns#Bag" target="_blank" onmouseover="show_status('http://www.w3.org/1999/02/22-rdf-syntax-ns#Bag');">
<ellipse cx="504" cy="962" rx="28" ry="18" style="fill:#d2d2d2;stroke:#d2d2d2"/>
<text text-anchor="middle" x="504" y="966" style="font-family:arial">rdf:Bag</text>
</a></g>
<g id="edge52" class="edge"><title>:_13-&gt;:_14</title>
<a xlink:href="http://www2.elsevier.co.uk/~tony/1014/yads-schema-2002-04-03#collection" target="_blank" onmouseover="show_status('http://www2.elsevier.co.uk/~tony/1014/yads-schema-2002-04-03#collection');">
<path style="fill:none;stroke:#add9e6" d="M452,890C454,901 457,915 463,926 466,932 472,938 477,943"/>
<polygon style="fill:#add9e6;stroke:#add9e6" points="475,944 484,949 478,941 475,944"/>
<text text-anchor="middle" x="504" y="921" style="font-family:arial">has:collection</text>
</a></g>
<g id="node61" class="node"><title>doi:1014/tube/chorleywood</title>
<a xlink:href="http://dx.doi.org/1014/tube/chorleywood" target="_blank" onmouseover="show_status('http://dx.doi.org/1014/tube/chorleywood');">
<ellipse cx="709" cy="962" rx="79" ry="18" style="fill:#dca0dd;stroke:#dca0dd"/>
<text text-anchor="middle" x="709" y="966" style="font-family:arial">doi:1014/tube/chorleywood</text>
</a></g>
<g id="edge60" class="edge"><title>:_16-&gt;doi:1014/tube/chorleywood</title>
<a xlink:href="http://www2.elsevier.co.uk/~tony/1014/yads-schema-2002-04-03#resource" target="_blank" onmouseover="show_status('http://www2.elsevier.co.uk/~tony/1014/yads-schema-2002-04-03#resource');">
<path style="fill:none;stroke:#add9e6" d="M632,888C640,894 648,901 655,908 663,916 663,919 669,926 673,930 677,934 681,938"/>
<polygon style="fill:#add9e6;stroke:#add9e6" points="679,940 688,945 683,936 679,940"/>
<text text-anchor="middle" x="710" y="921" style="font-family:arial">has:resource</text>
</a></g>
<g id="node63" class="node"><title>:_17</title>
<a xlink:href="http://www.w3.org/1999/02/22-rdf-syntax-ns#Bag" target="_blank" onmouseover="show_status('http://www.w3.org/1999/02/22-rdf-syntax-ns#Bag');">
<ellipse cx="584" cy="962" rx="28" ry="18" style="fill:#d2d2d2;stroke:#d2d2d2"/>
<text text-anchor="middle" x="584" y="966" style="font-family:arial">rdf:Bag</text>
</a></g>
<g id="edge62" class="edge"><title>:_16-&gt;:_17</title>
<a xlink:href="http://www2.elsevier.co.uk/~tony/1014/yads-schema-2002-04-03#collection" target="_blank" onmouseover="show_status('http://www2.elsevier.co.uk/~tony/1014/yads-schema-2002-04-03#collection');">
<path style="fill:none;stroke:#add9e6" d="M586,888C579,894 574,901 570,908 566,917 568,927 571,936"/>
<polygon style="fill:#add9e6;stroke:#add9e6" points="568,936 574,945 573,935 568,936"/>
<text text-anchor="middle" x="614" y="921" style="font-family:arial">has:collection</text>
</a></g>
<g id="node55" class="node"><title>:_15</title>
<ellipse cx="480" cy="1067" rx="33" ry="18" style="fill:#eedb82;stroke:#eedb82"/>
<text text-anchor="middle" x="480" y="1071" style="font-family:arial">tube:Mins</text>
</g>
<g id="edge54" class="edge"><title>:_14-&gt;:_15</title>
<a xlink:href="http://www.w3.org/1999/02/22-rdf-syntax-ns#_1" target="_blank" onmouseover="show_status('http://www.w3.org/1999/02/22-rdf-syntax-ns#_1');">
<path style="fill:none;stroke:#add9e6" d="M500,980C497,996 491,1021 486,1040"/>
<polygon style="fill:#add9e6;stroke:#add9e6" points="484,1039 484,1049 489,1040 484,1039"/>
<text text-anchor="middle" x="517" y="1011" style="font-family:arial">rdf:_1</text>
</a></g>
<g id="node58" class="node"><title>data:,4</title>
<a xlink:href="" onclick="show_data('4');" onmouseover="show_status('data:,4');">
<ellipse cx="497" cy="1163" rx="27" ry="18" style="fill:#dca0dd;stroke:#dca0dd"/>
<text text-anchor="middle" x="497" y="1167" style="font-family:arial">data:,4</text>
</a></g>
<g id="edge57" class="edge"><title>:_15-&gt;data:,4</title>
<a xlink:href="http://www2.elsevier.co.uk/~tony/1014/yads-schema-2002-04-03#resource" target="_blank" onmouseover="show_status('http://www2.elsevier.co.uk/~tony/1014/yads-schema-2002-04-03#resource');">
<path style="fill:none;stroke:#add9e6" d="M480,1085C480,1097 481,1113 484,1127 484,1130 485,1133 486,1136"/>
<polygon style="fill:#add9e6;stroke:#add9e6" points="484,1137 490,1145 488,1135 484,1137"/>
<text text-anchor="middle" x="525" y="1122" style="font-family:arial">has:resource</text>
</a></g>
<g id="node65" class="node"><title>:_18</title>
<ellipse cx="597" cy="1067" rx="33" ry="18" style="fill:#eedb82;stroke:#eedb82"/>
<text text-anchor="middle" x="597" y="1071" style="font-family:arial">tube:Mins</text>
</g>
<g id="edge64" class="edge"><title>:_17-&gt;:_18</title>
<a xlink:href="http://www.w3.org/1999/02/22-rdf-syntax-ns#_1" target="_blank" onmouseover="show_status('http://www.w3.org/1999/02/22-rdf-syntax-ns#_1');">
<path style="fill:none;stroke:#add9e6" d="M586,980C589,996 591,1021 594,1040"/>
<polygon style="fill:#add9e6;stroke:#add9e6" points="591,1039 595,1049 596,1039 591,1039"/>
<text text-anchor="middle" x="611" y="1011" style="font-family:arial">rdf:_1</text>
</a></g>
<g id="edge67" class="edge"><title>:_18-&gt;data:,4</title>
<a xlink:href="http://www2.elsevier.co.uk/~tony/1014/yads-schema-2002-04-03#resource" target="_blank" onmouseover="show_status('http://www2.elsevier.co.uk/~tony/1014/yads-schema-2002-04-03#resource');">
<path style="fill:none;stroke:#add9e6" d="M592,1085C588,1098 581,1115 569,1127 558,1139 544,1147 530,1153"/>
<polygon style="fill:#add9e6;stroke:#add9e6" points="530,1150 522,1156 532,1155 530,1150"/>
<text text-anchor="middle" x="625" y="1122" style="font-family:arial">has:resource</text>
</a></g>
<g id="node73" class="node"><title>:_21</title>
<ellipse cx="1011" cy="872" rx="53" ry="18" style="fill:#eedb82;stroke:#eedb82"/>
<text text-anchor="middle" x="1011" y="876" style="font-family:arial">tube:PrevStation</text>
</g>
<g id="edge74" class="edge"><title>:_20-&gt;:_21</title>
<a xlink:href="http://www.w3.org/1999/02/22-rdf-syntax-ns#_1" target="_blank" onmouseover="show_status('http://www.w3.org/1999/02/22-rdf-syntax-ns#_1');">
<path style="fill:none;stroke:#add9e6" d="M898,776C920,795 959,828 986,850"/>
<polygon style="fill:#add9e6;stroke:#add9e6" points="982,850 991,855 986,846 982,850"/>
<text text-anchor="middle" x="971" y="816" style="font-family:arial">rdf:_1</text>
</a></g>
<g id="node75" class="node"><title>:_24</title>
<ellipse cx="881" cy="872" rx="53" ry="18" style="fill:#eedb82;stroke:#eedb82"/>
<text text-anchor="middle" x="881" y="876" style="font-family:arial">tube:NextStation</text>
</g>
<g id="edge76" class="edge"><title>:_20-&gt;:_24</title>
<a xlink:href="http://www.w3.org/1999/02/22-rdf-syntax-ns#_2" target="_blank" onmouseover="show_status('http://www.w3.org/1999/02/22-rdf-syntax-ns#_2');">
<path style="fill:none;stroke:#add9e6" d="M881,779C881,797 881,824 881,845"/>
<polygon style="fill:#add9e6;stroke:#add9e6" points="879,844 881,854 884,844 879,844"/>
<text text-anchor="middle" x="902" y="816" style="font-family:arial">rdf:_2</text>
</a></g>
<g id="node78" class="node"><title>doi:1014/tube/chesham</title>
<a xlink:href="http://dx.doi.org/1014/tube/chesham" target="_blank" onmouseover="show_status('http://dx.doi.org/1014/tube/chesham');">
<ellipse cx="1027" cy="962" rx="69" ry="18" style="fill:#dca0dd;stroke:#dca0dd"/>
<text text-anchor="middle" x="1027" y="966" style="font-family:arial">doi:1014/tube/chesham</text>
</a></g>
<g id="edge79" class="edge"><title>:_21-&gt;doi:1014/tube/chesham</title>
<a xlink:href="http://www2.elsevier.co.uk/~tony/1014/yads-schema-2002-04-03#resource" target="_blank" onmouseover="show_status('http://www2.elsevier.co.uk/~tony/1014/yads-schema-2002-04-03#resource');">
<path style="fill:none;stroke:#add9e6" d="M1005,890C1003,901 1001,914 1004,926 1005,930 1006,933 1008,936"/>
<polygon style="fill:#add9e6;stroke:#add9e6" points="1006,937 1013,944 1010,934 1006,937"/>
<text text-anchor="middle" x="1045" y="921" style="font-family:arial">has:resource</text>
</a></g>
<g id="node80" class="node"><title>:_22</title>
<a xlink:href="http://www.w3.org/1999/02/22-rdf-syntax-ns#Bag" target="_blank" onmouseover="show_status('http://www.w3.org/1999/02/22-rdf-syntax-ns#Bag');">
<ellipse cx="1142" cy="962" rx="28" ry="18" style="fill:#d2d2d2;stroke:#d2d2d2"/>
<text text-anchor="middle" x="1142" y="966" style="font-family:arial">rdf:Bag</text>
</a></g>
<g id="edge81" class="edge"><title>:_21-&gt;:_22</title>
<a xlink:href="http://www2.elsevier.co.uk/~tony/1014/yads-schema-2002-04-03#collection" target="_blank" onmouseover="show_status('http://www2.elsevier.co.uk/~tony/1014/yads-schema-2002-04-03#collection');">
<path style="fill:none;stroke:#add9e6" d="M1044,886C1057,892 1070,900 1081,908 1089,915 1089,919 1097,926 1103,932 1109,937 1116,942"/>
<polygon style="fill:#add9e6;stroke:#add9e6" points="1114,943 1123,948 1117,940 1114,943"/>
<text text-anchor="middle" x="1138" y="921" style="font-family:arial">has:collection</text>
</a></g>
<g id="edge89" class="edge"><title>:_24-&gt;doi:1014/tube/chorleywood</title>
<a xlink:href="http://www2.elsevier.co.uk/~tony/1014/yads-schema-2002-04-03#resource" target="_blank" onmouseover="show_status('http://www2.elsevier.co.uk/~tony/1014/yads-schema-2002-04-03#resource');">
<path style="fill:none;stroke:#add9e6" d="M840,883C820,889 806,894 779,908 775,911 755,926 737,940"/>
<polygon style="fill:#add9e6;stroke:#add9e6" points="737,937 731,945 740,941 737,937"/>
<text text-anchor="middle" x="826" y="921" style="font-family:arial">has:resource</text>
</a></g>
<g id="node89" class="node"><title>:_25</title>
<a xlink:href="http://www.w3.org/1999/02/22-rdf-syntax-ns#Bag" target="_blank" onmouseover="show_status('http://www.w3.org/1999/02/22-rdf-syntax-ns#Bag');">
<ellipse cx="862" cy="962" rx="28" ry="18" style="fill:#d2d2d2;stroke:#d2d2d2"/>
<text text-anchor="middle" x="862" y="966" style="font-family:arial">rdf:Bag</text>
</a></g>
<g id="edge91" class="edge"><title>:_24-&gt;:_25</title>
<a xlink:href="http://www2.elsevier.co.uk/~tony/1014/yads-schema-2002-04-03#collection" target="_blank" onmouseover="show_status('http://www2.elsevier.co.uk/~tony/1014/yads-schema-2002-04-03#collection');">
<path style="fill:none;stroke:#add9e6" d="M872,890C869,896 867,902 865,908 863,917 862,926 862,935"/>
<polygon style="fill:#add9e6;stroke:#add9e6" points="860,934 862,944 865,934 860,934"/>
<text text-anchor="middle" x="909" y="921" style="font-family:arial">has:collection</text>
</a></g>
<g id="node82" class="node"><title>:_23</title>
<ellipse cx="1118" cy="1067" rx="33" ry="18" style="fill:#eedb82;stroke:#eedb82"/>
<text text-anchor="middle" x="1118" y="1071" style="font-family:arial">tube:Mins</text>
</g>
<g id="edge83" class="edge"><title>:_22-&gt;:_23</title>
<a xlink:href="http://www.w3.org/1999/02/22-rdf-syntax-ns#_1" target="_blank" onmouseover="show_status('http://www.w3.org/1999/02/22-rdf-syntax-ns#_1');">
<path style="fill:none;stroke:#add9e6" d="M1136,980C1134,985 1132,992 1130,998 1127,1012 1124,1027 1121,1040"/>
<polygon style="fill:#add9e6;stroke:#add9e6" points="1119,1039 1120,1049 1124,1039 1119,1039"/>
<text text-anchor="middle" x="1150" y="1011" style="font-family:arial">rdf:_1</text>
</a></g>
<g id="node85" class="node"><title>data:,8</title>
<a xlink:href="" onclick="show_data('8');" onmouseover="show_status('data:,8');">
<ellipse cx="1108" cy="1163" rx="27" ry="18" style="fill:#dca0dd;stroke:#dca0dd"/>
<text text-anchor="middle" x="1108" y="1167" style="font-family:arial">data:,8</text>
</a></g>
<g id="edge86" class="edge"><title>:_23-&gt;data:,8</title>
<a xlink:href="http://www2.elsevier.co.uk/~tony/1014/yads-schema-2002-04-03#resource" target="_blank" onmouseover="show_status('http://www2.elsevier.co.uk/~tony/1014/yads-schema-2002-04-03#resource');">
<path style="fill:none;stroke:#add9e6" d="M1103,1083C1098,1091 1092,1100 1089,1109 1086,1119 1088,1129 1092,1138"/>
<polygon style="fill:#add9e6;stroke:#add9e6" points="1089,1138 1096,1146 1094,1136 1089,1138"/>
<text text-anchor="middle" x="1130" y="1122" style="font-family:arial">has:resource</text>
</a></g>
<g id="node91" class="node"><title>:_26</title>
<ellipse cx="869" cy="1067" rx="33" ry="18" style="fill:#eedb82;stroke:#eedb82"/>
<text text-anchor="middle" x="869" y="1071" style="font-family:arial">tube:Mins</text>
</g>
<g id="edge93" class="edge"><title>:_25-&gt;:_26</title>
<a xlink:href="http://www.w3.org/1999/02/22-rdf-syntax-ns#_1" target="_blank" onmouseover="show_status('http://www.w3.org/1999/02/22-rdf-syntax-ns#_1');">
<path style="fill:none;stroke:#add9e6" d="M863,980C864,996 865,1021 867,1040"/>
<polygon style="fill:#add9e6;stroke:#add9e6" points="864,1039 868,1049 869,1039 864,1039"/>
<text text-anchor="middle" x="886" y="1011" style="font-family:arial">rdf:_1</text>
</a></g>
<g id="edge96" class="edge"><title>:_26-&gt;data:,4</title>
<a xlink:href="http://www2.elsevier.co.uk/~tony/1014/yads-schema-2002-04-03#resource" target="_blank" onmouseover="show_status('http://www2.elsevier.co.uk/~tony/1014/yads-schema-2002-04-03#resource');">
<path style="fill:none;stroke:#add9e6" d="M841,1077C784,1098 651,1142 532,1161"/>
<polygon style="fill:#add9e6;stroke:#add9e6" points="534,1158 524,1162 534,1163 534,1158"/>
<text text-anchor="middle" x="795" y="1122" style="font-family:arial">has:resource</text>
</a></g>
</g>
</svg>
