<?xml version="1.0" encoding="UTF-8" standalone="no"?>
<!DOCTYPE svg PUBLIC "-//W3C//DTD SVG 1.0//EN"
 "http://www.w3.org/TR/2001/REC-SVG-20010904/DTD/svg10.dtd" [
 <!ATTLIST svg xmlns:xlink CDATA #FIXED "http://www.w3.org/1999/xlink">
]>
<!-- Generated by dot version 1.8.5 (Tue Apr 23 17:19:23  2002)
     For user: (Administrator) ,S-1-5-21-1454471165-688789844-1708537768-500   Title: yads    Pages: 1 -->
<svg width="1437px" height="1266px"
 xmlns="http://www.w3.org/2000/svg" xmlns:xlink="http://www.w3.org/1999/xlink">
<g id="graph0" class="graph" style="font-family:Times-Roman;font-size:11.00">
<title>yads</title>
<text text-anchor="middle" x="718" y="1255" style="font-family:arial;font-size:24.00">YADS - A Description Service</text>
<g id="graph2" class="cluster"><title>cluster_1</title>
<polygon style="fill:none;stroke:#d2d2d2;stroke-dasharray:5,2" points="19,1223 1418,1223 1418,43 19,43 19,1223"/>
<text text-anchor="middle" x="102" y="55" style="font-family:arial">Nest - Finchley Road Station</text>
</g>
<g id="graph3" class="cluster"><title>cluster_3</title>
<polygon style="fill:none;stroke:#d2d2d2;stroke-dasharray:5,2" points="27,1215 1410,1215 1410,238 27,238 27,1215"/>
<text text-anchor="middle" x="99" y="250" style="font-family:arial">Nest - Application Profile</text>
</g>
<g id="graph4" class="cluster"><title>cluster_5</title>
<polygon style="fill:none;stroke:#d2d2d2;stroke-dasharray:5,2" points="35,795 278,795 278,433 35,433 35,795"/>
<text text-anchor="middle" x="80" y="445" style="font-family:arial">Item - Location</text>
</g>
<g id="graph5" class="cluster"><title>cluster_7</title>
<polygon style="fill:none;stroke:#d2d2d2;stroke-dasharray:5,2" points="43,787 165,787 165,628 43,628 43,787"/>
<text text-anchor="middle" x="59" y="640" style="font-family:arial">Item</text>
</g>
<g id="graph6" class="cluster"><title>cluster_8</title>
<polygon style="fill:none;stroke:#d2d2d2;stroke-dasharray:5,2" points="173,787 270,787 270,628 173,628 173,787"/>
<text text-anchor="middle" x="189" y="640" style="font-family:arial">Item</text>
</g>
<g id="graph7" class="cluster"><title>cluster_9</title>
<polygon style="fill:none;stroke:#d2d2d2;stroke-dasharray:5,2" points="286,1207 1402,1207 1402,433 286,433 286,1207"/>
<text text-anchor="middle" x="355" y="445" style="font-family:arial">Item - Line Interchanges</text>
</g>
<g id="graph8" class="cluster"><title>cluster_11</title>
<polygon style="fill:none;stroke:#d2d2d2;stroke-dasharray:5,2" points="294,1199 852,1199 852,628 294,628 294,1199"/>
<text text-anchor="middle" x="362" y="640" style="font-family:arial">Nest - Line Interchange</text>
</g>
<g id="graph9" class="cluster"><title>cluster_13</title>
<polygon style="fill:none;stroke:#d2d2d2;stroke-dasharray:5,2" points="302,1191 562,1191 562,829 302,829 302,1191"/>
<text text-anchor="middle" x="370" y="841" style="font-family:arial">Nest - Next Stop Back</text>
</g>
<g id="graph10" class="cluster"><title>cluster_15</title>
<polygon style="fill:none;stroke:#d2d2d2;stroke-dasharray:5,2" points="457,1183 554,1183 554,1024 457,1024 457,1183"/>
<text text-anchor="middle" x="473" y="1036" style="font-family:arial">Item</text>
</g>
<g id="graph11" class="cluster"><title>cluster_16</title>
<polygon style="fill:none;stroke:#d2d2d2;stroke-dasharray:5,2" points="570,1191 844,1191 844,829 570,829 570,1191"/>
<text text-anchor="middle" x="622" y="841" style="font-family:arial">Nest - Next Stop</text>
</g>
<g id="graph12" class="cluster"><title>cluster_18</title>
<polygon style="fill:none;stroke:#d2d2d2;stroke-dasharray:5,2" points="739,1183 836,1183 836,1024 739,1024 739,1183"/>
<text text-anchor="middle" x="755" y="1036" style="font-family:arial">Item</text>
</g>
<g id="graph13" class="cluster"><title>cluster_19</title>
<polygon style="fill:none;stroke:#d2d2d2;stroke-dasharray:5,2" points="860,1199 1394,1199 1394,628 860,628 860,1199"/>
<text text-anchor="middle" x="928" y="640" style="font-family:arial">Nest - Line Interchange</text>
</g>
<g id="graph14" class="cluster"><title>cluster_21</title>
<polygon style="fill:none;stroke:#d2d2d2;stroke-dasharray:5,2" points="868,1191 1128,1191 1128,829 868,829 868,1191"/>
<text text-anchor="middle" x="936" y="841" style="font-family:arial">Nest - Next Stop Back</text>
</g>
<g id="graph15" class="cluster"><title>cluster_23</title>
<polygon style="fill:none;stroke:#d2d2d2;stroke-dasharray:5,2" points="1023,1183 1120,1183 1120,1024 1023,1024 1023,1183"/>
<text text-anchor="middle" x="1039" y="1036" style="font-family:arial">Item</text>
</g>
<g id="graph16" class="cluster"><title>cluster_24</title>
<polygon style="fill:none;stroke:#d2d2d2;stroke-dasharray:5,2" points="1136,1191 1386,1191 1386,829 1136,829 1136,1191"/>
<text text-anchor="middle" x="1188" y="841" style="font-family:arial">Nest - Next Stop</text>
</g>
<g id="graph17" class="cluster"><title>cluster_26</title>
<polygon style="fill:none;stroke:#d2d2d2;stroke-dasharray:5,2" points="1281,1183 1378,1183 1378,1024 1281,1024 1281,1183"/>
<text text-anchor="middle" x="1297" y="1036" style="font-family:arial">Item</text>
</g>
<g id="node2" class="node"><title>:_1</title>
<ellipse cx="254" cy="86" rx="40" ry="18" style="fill:#eedb82;stroke:#eedb82"/>
<text text-anchor="middle" x="254" y="90" style="font-family:arial">tube:Station</text>
</g>
<g id="node4" class="node"><title>doi:1014/tube/finchley_road</title>
<a xlink:href="http://dx.doi.org/1014/tube/finchley_road" target="_blank" onmouseover="show_status('http://dx.doi.org/1014/tube/finchley_road');">
<ellipse cx="111" cy="176" rx="81" ry="18" style="fill:#dca0dd;stroke:#dca0dd"/>
<text text-anchor="middle" x="111" y="180" style="font-family:arial">doi:1014/tube/finchley_road</text>
</a></g>
<g id="edge3" class="edge"><title>:_1-&gt;doi:1014/tube/finchley_road</title>
<a xlink:href="http://www2.elsevier.co.uk/~tony/1014/yads-schema-2002-04-03#resource" target="_blank" onmouseover="show_status('http://www2.elsevier.co.uk/~tony/1014/yads-schema-2002-04-03#resource');">
<path style="fill:none;stroke:#add9e6" d="M222,97C205,103 186,112 169,122 157,131 144,142 133,152"/>
<polygon style="fill:#add9e6;stroke:#add9e6" points="132,149 127,158 136,153 132,149"/>
<text text-anchor="middle" x="216" y="135" style="font-family:arial">has:resource</text>
</a></g>
<g id="node6" class="node"><title>node_1</title>
<polygon style="fill:#6497ed;stroke:#6497ed" points="298,158 210,158 210,194 298,194 298,158"/>
<text text-anchor="middle" x="254" y="180" style="font-family:arial">Finchley Road</text>
</g>
<g id="edge5" class="edge"><title>:_1-&gt;node_1</title>
<a xlink:href="http://www2.elsevier.co.uk/~tony/1014/yads-schema-2002-04-03#label" target="_blank" onmouseover="show_status('http://www2.elsevier.co.uk/~tony/1014/yads-schema-2002-04-03#label');">
<path style="fill:none;stroke:#add9e6" d="M254,104C254,117 254,134 254,149"/>
<polygon style="fill:#add9e6;stroke:#add9e6" points="252,148 254,158 257,148 252,148"/>
<text text-anchor="middle" x="281" y="135" style="font-family:arial">has:label</text>
</a></g>
<g id="node8" class="node"><title>:_2</title>
<a xlink:href="http://www.w3.org/1999/02/22-rdf-syntax-ns#Bag" target="_blank" onmouseover="show_status('http://www.w3.org/1999/02/22-rdf-syntax-ns#Bag');">
<ellipse cx="344" cy="176" rx="28" ry="18" style="fill:#d2d2d2;stroke:#d2d2d2"/>
<text text-anchor="middle" x="344" y="180" style="font-family:arial">rdf:Bag</text>
</a></g>
<g id="edge7" class="edge"><title>:_1-&gt;:_2</title>
<a xlink:href="http://www2.elsevier.co.uk/~tony/1014/yads-schema-2002-04-03#collection" target="_blank" onmouseover="show_status('http://www2.elsevier.co.uk/~tony/1014/yads-schema-2002-04-03#collection');">
<path style="fill:none;stroke:#add9e6" d="M282,99C292,105 304,113 313,122 322,131 328,141 333,151"/>
<polygon style="fill:#add9e6;stroke:#add9e6" points="330,151 337,159 335,149 330,151"/>
<text text-anchor="middle" x="368" y="135" style="font-family:arial">has:collection</text>
</a></g>
<g id="node10" class="node"><title>:_3</title>
<ellipse cx="344" cy="281" rx="34" ry="18" style="fill:#eedb82;stroke:#eedb82"/>
<text text-anchor="middle" x="344" y="285" style="font-family:arial">doi:Profile</text>
</g>
<g id="edge9" class="edge"><title>:_2-&gt;:_3</title>
<a xlink:href="http://www.w3.org/1999/02/22-rdf-syntax-ns#_1" target="_blank" onmouseover="show_status('http://www.w3.org/1999/02/22-rdf-syntax-ns#_1');">
<path style="fill:none;stroke:#add9e6" d="M344,194C344,210 344,235 344,254"/>
<polygon style="fill:#add9e6;stroke:#add9e6" points="342,253 344,263 347,253 342,253"/>
<text text-anchor="middle" x="364" y="225" style="font-family:arial">rdf:_1</text>
</a></g>
<g id="node13" class="node"><title>doi:1014/profile.tube</title>
<a xlink:href="http://dx.doi.org/1014/profile.tube" target="_blank" onmouseover="show_status('http://dx.doi.org/1014/profile.tube');">
<ellipse cx="255" cy="371" rx="59" ry="18" style="fill:#dca0dd;stroke:#dca0dd"/>
<text text-anchor="middle" x="255" y="375" style="font-family:arial">doi:1014/profile.tube</text>
</a></g>
<g id="edge12" class="edge"><title>:_3-&gt;doi:1014/profile.tube</title>
<a xlink:href="http://www2.elsevier.co.uk/~tony/1014/yads-schema-2002-04-03#resource" target="_blank" onmouseover="show_status('http://www2.elsevier.co.uk/~tony/1014/yads-schema-2002-04-03#resource');">
<path style="fill:none;stroke:#add9e6" d="M313,289C297,294 279,303 267,317 261,324 258,335 256,344"/>
<polygon style="fill:#add9e6;stroke:#add9e6" points="254,343 255,353 259,343 254,343"/>
<text text-anchor="middle" x="311" y="330" style="font-family:arial">has:resource</text>
</a></g>
<g id="node15" class="node"><title>:_4</title>
<a xlink:href="http://www.w3.org/1999/02/22-rdf-syntax-ns#Bag" target="_blank" onmouseover="show_status('http://www.w3.org/1999/02/22-rdf-syntax-ns#Bag');">
<ellipse cx="360" cy="371" rx="28" ry="18" style="fill:#d2d2d2;stroke:#d2d2d2"/>
<text text-anchor="middle" x="360" y="375" style="font-family:arial">rdf:Bag</text>
</a></g>
<g id="edge14" class="edge"><title>:_3-&gt;:_4</title>
<a xlink:href="http://www2.elsevier.co.uk/~tony/1014/yads-schema-2002-04-03#collection" target="_blank" onmouseover="show_status('http://www2.elsevier.co.uk/~tony/1014/yads-schema-2002-04-03#collection');">
<path style="fill:none;stroke:#add9e6" d="M347,299C349,312 353,329 355,344"/>
<polygon style="fill:#add9e6;stroke:#add9e6" points="352,344 357,353 357,343 352,344"/>
<text text-anchor="middle" x="395" y="330" style="font-family:arial">has:collection</text>
</a></g>
<g id="node17" class="node"><title>:_5</title>
<a xlink:href="http://www2.elsevier.co.uk/~tony/1014/yads-schema-2002-04-03#Item" target="_blank" onmouseover="show_status('http://www2.elsevier.co.uk/~tony/1014/yads-schema-2002-04-03#Item');">
<ellipse cx="216" cy="476" rx="28" ry="18" style="fill:#d2d2d2;stroke:#d2d2d2"/>
<text text-anchor="middle" x="216" y="480" style="font-family:arial">isa:Item</text>
</a></g>
<g id="edge16" class="edge"><title>:_4-&gt;:_5</title>
<a xlink:href="http://www.w3.org/1999/02/22-rdf-syntax-ns#_1" target="_blank" onmouseover="show_status('http://www.w3.org/1999/02/22-rdf-syntax-ns#_1');">
<path style="fill:none;stroke:#add9e6" d="M341,385C316,404 270,437 241,458"/>
<polygon style="fill:#add9e6;stroke:#add9e6" points="242,454 235,462 245,459 242,454"/>
<text text-anchor="middle" x="333" y="420" style="font-family:arial">rdf:_1</text>
</a></g>
<g id="node19" class="node"><title>:_9</title>
<a xlink:href="http://www2.elsevier.co.uk/~tony/1014/yads-schema-2002-04-03#Item" target="_blank" onmouseover="show_status('http://www2.elsevier.co.uk/~tony/1014/yads-schema-2002-04-03#Item');">
<ellipse cx="368" cy="476" rx="28" ry="18" style="fill:#d2d2d2;stroke:#d2d2d2"/>
<text text-anchor="middle" x="368" y="480" style="font-family:arial">isa:Item</text>
</a></g>
<g id="edge18" class="edge"><title>:_4-&gt;:_9</title>
<a xlink:href="http://www.w3.org/1999/02/22-rdf-syntax-ns#_2" target="_blank" onmouseover="show_status('http://www.w3.org/1999/02/22-rdf-syntax-ns#_2');">
<path style="fill:none;stroke:#add9e6" d="M361,389C363,405 364,430 366,449"/>
<polygon style="fill:#add9e6;stroke:#add9e6" points="363,448 367,458 368,448 363,448"/>
<text text-anchor="middle" x="385" y="420" style="font-family:arial">rdf:_2</text>
</a></g>
<g id="node22" class="node"><title>:_6</title>
<a xlink:href="http://www.w3.org/1999/02/22-rdf-syntax-ns#Bag" target="_blank" onmouseover="show_status('http://www.w3.org/1999/02/22-rdf-syntax-ns#Bag');">
<ellipse cx="189" cy="566" rx="28" ry="18" style="fill:#d2d2d2;stroke:#d2d2d2"/>
<text text-anchor="middle" x="189" y="570" style="font-family:arial">rdf:Bag</text>
</a></g>
<g id="edge21" class="edge"><title>:_5-&gt;:_6</title>
<a xlink:href="http://www2.elsevier.co.uk/~tony/1014/yads-schema-2002-04-03#collection" target="_blank" onmouseover="show_status('http://www2.elsevier.co.uk/~tony/1014/yads-schema-2002-04-03#collection');">
<path style="fill:none;stroke:#add9e6" d="M208,494C206,499 203,506 201,512 198,521 196,530 194,539"/>
<polygon style="fill:#add9e6;stroke:#add9e6" points="192,538 192,548 197,539 192,538"/>
<text text-anchor="middle" x="245" y="525" style="font-family:arial">has:collection</text>
</a></g>
<g id="node35" class="node"><title>:_10</title>
<a xlink:href="http://www.w3.org/1999/02/22-rdf-syntax-ns#Bag" target="_blank" onmouseover="show_status('http://www.w3.org/1999/02/22-rdf-syntax-ns#Bag');">
<ellipse cx="447" cy="566" rx="28" ry="18" style="fill:#d2d2d2;stroke:#d2d2d2"/>
<text text-anchor="middle" x="447" y="570" style="font-family:arial">rdf:Bag</text>
</a></g>
<g id="edge34" class="edge"><title>:_9-&gt;:_10</title>
<a xlink:href="http://www2.elsevier.co.uk/~tony/1014/yads-schema-2002-04-03#collection" target="_blank" onmouseover="show_status('http://www2.elsevier.co.uk/~tony/1014/yads-schema-2002-04-03#collection');">
<path style="fill:none;stroke:#add9e6" d="M382,492C394,506 413,527 427,543"/>
<polygon style="fill:#add9e6;stroke:#add9e6" points="425,544 433,550 428,541 425,544"/>
<text text-anchor="middle" x="457" y="525" style="font-family:arial">has:collection</text>
</a></g>
<g id="node24" class="node"><title>:_7</title>
<ellipse cx="104" cy="671" rx="35" ry="18" style="fill:#eedb82;stroke:#eedb82"/>
<text text-anchor="middle" x="104" y="675" style="font-family:arial">tube:Zone</text>
</g>
<g id="edge23" class="edge"><title>:_6-&gt;:_7</title>
<a xlink:href="http://www.w3.org/1999/02/22-rdf-syntax-ns#_1" target="_blank" onmouseover="show_status('http://www.w3.org/1999/02/22-rdf-syntax-ns#_1');">
<path style="fill:none;stroke:#add9e6" d="M173,581C167,588 160,595 154,602 142,616 130,633 121,647"/>
<polygon style="fill:#add9e6;stroke:#add9e6" points="120,644 116,654 124,647 120,644"/>
<text text-anchor="middle" x="177" y="615" style="font-family:arial">rdf:_1</text>
</a></g>
<g id="node26" class="node"><title>:_8</title>
<ellipse cx="213" cy="671" rx="32" ry="18" style="fill:#eedb82;stroke:#eedb82"/>
<text text-anchor="middle" x="213" y="675" style="font-family:arial">tube:Grid</text>
</g>
<g id="edge25" class="edge"><title>:_6-&gt;:_8</title>
<a xlink:href="http://www.w3.org/1999/02/22-rdf-syntax-ns#_2" target="_blank" onmouseover="show_status('http://www.w3.org/1999/02/22-rdf-syntax-ns#_2');">
<path style="fill:none;stroke:#add9e6" d="M193,584C196,600 202,625 207,644"/>
<polygon style="fill:#add9e6;stroke:#add9e6" points="204,644 209,653 209,643 204,644"/>
<text text-anchor="middle" x="222" y="615" style="font-family:arial">rdf:_2</text>
</a></g>
<g id="node29" class="node"><title>data:,Zone%202</title>
<a xlink:href="" onclick="show_data('Zone%202');" onmouseover="show_status('data:,Zone%202');">
<ellipse cx="104" cy="761" rx="53" ry="18" style="fill:#dca0dd;stroke:#dca0dd"/>
<text text-anchor="middle" x="104" y="765" style="font-family:arial">data:,Zone%202</text>
</a></g>
<g id="edge28" class="edge"><title>:_7-&gt;data:,Zone%202</title>
<a xlink:href="http://www2.elsevier.co.uk/~tony/1014/yads-schema-2002-04-03#resource" target="_blank" onmouseover="show_status('http://www2.elsevier.co.uk/~tony/1014/yads-schema-2002-04-03#resource');">
<path style="fill:none;stroke:#add9e6" d="M95,689C92,694 89,701 88,707 87,715 87,718 88,725 88,728 89,731 90,734"/>
<polygon style="fill:#add9e6;stroke:#add9e6" points="88,735 94,743 92,733 88,735"/>
<text text-anchor="middle" x="132" y="720" style="font-family:arial">has:resource</text>
</a></g>
<g id="node32" class="node"><title>data:,B4</title>
<a xlink:href="" onclick="show_data('B4');" onmouseover="show_status('data:,B4');">
<ellipse cx="211" cy="761" rx="30" ry="18" style="fill:#dca0dd;stroke:#dca0dd"/>
<text text-anchor="middle" x="211" y="765" style="font-family:arial">data:,B4</text>
</a></g>
<g id="edge31" class="edge"><title>:_8-&gt;data:,B4</title>
<a xlink:href="http://www2.elsevier.co.uk/~tony/1014/yads-schema-2002-04-03#resource" target="_blank" onmouseover="show_status('http://www2.elsevier.co.uk/~tony/1014/yads-schema-2002-04-03#resource');">
<path style="fill:none;stroke:#add9e6" d="M211,689C210,695 209,701 209,707 208,716 209,725 209,733"/>
<polygon style="fill:#add9e6;stroke:#add9e6" points="207,733 210,743 211,733 207,733"/>
<text text-anchor="middle" x="253" y="720" style="font-family:arial">has:resource</text>
</a></g>
<g id="node37" class="node"><title>:_11</title>
<ellipse cx="447" cy="671" rx="53" ry="18" style="fill:#eedb82;stroke:#eedb82"/>
<text text-anchor="middle" x="447" y="675" style="font-family:arial">tube:LineChange</text>
</g>
<g id="edge36" class="edge"><title>:_10-&gt;:_11</title>
<a xlink:href="http://www.w3.org/1999/02/22-rdf-syntax-ns#_1" target="_blank" onmouseover="show_status('http://www.w3.org/1999/02/22-rdf-syntax-ns#_1');">
<path style="fill:none;stroke:#add9e6" d="M447,584C447,600 447,625 447,644"/>
<polygon style="fill:#add9e6;stroke:#add9e6" points="445,643 447,653 450,643 445,643"/>
<text text-anchor="middle" x="467" y="615" style="font-family:arial">rdf:_1</text>
</a></g>
<g id="node39" class="node"><title>:_19</title>
<ellipse cx="956" cy="671" rx="53" ry="18" style="fill:#eedb82;stroke:#eedb82"/>
<text text-anchor="middle" x="956" y="675" style="font-family:arial">tube:LineChange</text>
</g>
<g id="edge38" class="edge"><title>:_10-&gt;:_19</title>
<a xlink:href="http://www.w3.org/1999/02/22-rdf-syntax-ns#_2" target="_blank" onmouseover="show_status('http://www.w3.org/1999/02/22-rdf-syntax-ns#_2');">
<path style="fill:none;stroke:#add9e6" d="M475,568C542,573 717,588 856,628 878,634 900,644 918,652"/>
<polygon style="fill:#add9e6;stroke:#add9e6" points="916,654 926,656 918,649 916,654"/>
<text text-anchor="middle" x="842" y="615" style="font-family:arial">rdf:_2</text>
</a></g>
<g id="node42" class="node"><title>doi:1014/tube/jubilee_line</title>
<a xlink:href="http://dx.doi.org/1014/tube/jubilee_line" target="_blank" onmouseover="show_status('http://dx.doi.org/1014/tube/jubilee_line');">
<ellipse cx="393" cy="761" rx="73" ry="18" style="fill:#dca0dd;stroke:#dca0dd"/>
<text text-anchor="middle" x="393" y="765" style="font-family:arial">doi:1014/tube/jubilee_line</text>
</a></g>
<g id="edge41" class="edge"><title>:_11-&gt;doi:1014/tube/jubilee_line</title>
<a xlink:href="http://www2.elsevier.co.uk/~tony/1014/yads-schema-2002-04-03#resource" target="_blank" onmouseover="show_status('http://www2.elsevier.co.uk/~tony/1014/yads-schema-2002-04-03#resource');">
<path style="fill:none;stroke:#add9e6" d="M435,689C431,694 426,701 422,707 417,716 411,726 407,735"/>
<polygon style="fill:#add9e6;stroke:#add9e6" points="405,733 402,743 409,736 405,733"/>
<text text-anchor="middle" x="466" y="720" style="font-family:arial">has:resource</text>
</a></g>
<g id="node44" class="node"><title>:_12</title>
<a xlink:href="http://www.w3.org/1999/02/22-rdf-syntax-ns#Bag" target="_blank" onmouseover="show_status('http://www.w3.org/1999/02/22-rdf-syntax-ns#Bag');">
<ellipse cx="512" cy="761" rx="28" ry="18" style="fill:#d2d2d2;stroke:#d2d2d2"/>
<text text-anchor="middle" x="512" y="765" style="font-family:arial">rdf:Bag</text>
</a></g>
<g id="edge43" class="edge"><title>:_11-&gt;:_12</title>
<a xlink:href="http://www2.elsevier.co.uk/~tony/1014/yads-schema-2002-04-03#collection" target="_blank" onmouseover="show_status('http://www2.elsevier.co.uk/~tony/1014/yads-schema-2002-04-03#collection');">
<path style="fill:none;stroke:#add9e6" d="M482,685C492,690 501,698 507,707 512,715 514,725 514,734"/>
<polygon style="fill:#add9e6;stroke:#add9e6" points="512,733 514,743 517,733 512,733"/>
<text text-anchor="middle" x="556" y="720" style="font-family:arial">has:collection</text>
</a></g>
<g id="node71" class="node"><title>doi:1014/tube/metropolitan_li...e</title>
<a xlink:href="http://dx.doi.org/1014/tube/metropolitan_line" target="_blank" onmouseover="show_status('http://dx.doi.org/1014/tube/metropolitan_line');">
<ellipse cx="956" cy="761" rx="88" ry="18" style="fill:#dca0dd;stroke:#dca0dd"/>
<text text-anchor="middle" x="956" y="765" style="font-family:arial">doi:1014/tube/metropolitan_li...e</text>
</a></g>
<g id="edge70" class="edge"><title>:_19-&gt;doi:1014/tube/metropolitan_li...e</title>
<a xlink:href="http://www2.elsevier.co.uk/~tony/1014/yads-schema-2002-04-03#resource" target="_blank" onmouseover="show_status('http://www2.elsevier.co.uk/~tony/1014/yads-schema-2002-04-03#resource');">
<path style="fill:none;stroke:#add9e6" d="M956,689C956,702 956,719 956,734"/>
<polygon style="fill:#add9e6;stroke:#add9e6" points="954,733 956,743 959,733 954,733"/>
<text text-anchor="middle" x="997" y="720" style="font-family:arial">has:resource</text>
</a></g>
<g id="node73" class="node"><title>:_20</title>
<a xlink:href="http://www.w3.org/1999/02/22-rdf-syntax-ns#Bag" target="_blank" onmouseover="show_status('http://www.w3.org/1999/02/22-rdf-syntax-ns#Bag');">
<ellipse cx="1090" cy="761" rx="28" ry="18" style="fill:#d2d2d2;stroke:#d2d2d2"/>
<text text-anchor="middle" x="1090" y="765" style="font-family:arial">rdf:Bag</text>
</a></g>
<g id="edge72" class="edge"><title>:_19-&gt;:_20</title>
<a xlink:href="http://www2.elsevier.co.uk/~tony/1014/yads-schema-2002-04-03#collection" target="_blank" onmouseover="show_status('http://www2.elsevier.co.uk/~tony/1014/yads-schema-2002-04-03#collection');">
<path style="fill:none;stroke:#add9e6" d="M994,683C1010,689 1027,697 1041,707 1053,715 1064,727 1072,737"/>
<polygon style="fill:#add9e6;stroke:#add9e6" points="1070,738 1078,744 1073,735 1070,738"/>
<text text-anchor="middle" x="1103" y="720" style="font-family:arial">has:collection</text>
</a></g>
<g id="node46" class="node"><title>:_13</title>
<ellipse cx="473" cy="872" rx="53" ry="18" style="fill:#eedb82;stroke:#eedb82"/>
<text text-anchor="middle" x="473" y="876" style="font-family:arial">tube:PrevStation</text>
</g>
<g id="edge45" class="edge"><title>:_12-&gt;:_13</title>
<a xlink:href="http://www.w3.org/1999/02/22-rdf-syntax-ns#_1" target="_blank" onmouseover="show_status('http://www.w3.org/1999/02/22-rdf-syntax-ns#_1');">
<path style="fill:none;stroke:#add9e6" d="M506,779C500,796 490,825 482,846"/>
<polygon style="fill:#add9e6;stroke:#add9e6" points="480,844 479,854 485,846 480,844"/>
<text text-anchor="middle" x="519" y="816" style="font-family:arial">rdf:_1</text>
</a></g>
<g id="node48" class="node"><title>:_16</title>
<ellipse cx="656" cy="872" rx="53" ry="18" style="fill:#eedb82;stroke:#eedb82"/>
<text text-anchor="middle" x="656" y="876" style="font-family:arial">tube:NextStation</text>
</g>
<g id="edge47" class="edge"><title>:_12-&gt;:_16</title>
<a xlink:href="http://www.w3.org/1999/02/22-rdf-syntax-ns#_2" target="_blank" onmouseover="show_status('http://www.w3.org/1999/02/22-rdf-syntax-ns#_2');">
<path style="fill:none;stroke:#add9e6" d="M530,775C555,795 600,828 628,850"/>
<polygon style="fill:#add9e6;stroke:#add9e6" points="625,851 634,855 628,847 625,851"/>
<text text-anchor="middle" x="611" y="816" style="font-family:arial">rdf:_2</text>
</a></g>
<g id="node51" class="node"><title>doi:1014/tube/swiss_cottage</title>
<a xlink:href="http://dx.doi.org/1014/tube/swiss_cottage" target="_blank" onmouseover="show_status('http://dx.doi.org/1014/tube/swiss_cottage');">
<ellipse cx="395" cy="962" rx="85" ry="18" style="fill:#dca0dd;stroke:#dca0dd"/>
<text text-anchor="middle" x="395" y="966" style="font-family:arial">doi:1014/tube/swiss_cottage</text>
</a></g>
<g id="edge50" class="edge"><title>:_13-&gt;doi:1014/tube/swiss_cottage</title>
<a xlink:href="http://www2.elsevier.co.uk/~tony/1014/yads-schema-2002-04-03#resource" target="_blank" onmouseover="show_status('http://www2.elsevier.co.uk/~tony/1014/yads-schema-2002-04-03#resource');">
<path style="fill:none;stroke:#add9e6" d="M429,882C416,888 402,896 394,908 390,916 388,926 389,935"/>
<polygon style="fill:#add9e6;stroke:#add9e6" points="386,934 390,944 391,934 386,934"/>
<text text-anchor="middle" x="438" y="921" style="font-family:arial">has:resource</text>
</a></g>
<g id="node53" class="node"><title>:_14</title>
<a xlink:href="http://www.w3.org/1999/02/22-rdf-syntax-ns#Bag" target="_blank" onmouseover="show_status('http://www.w3.org/1999/02/22-rdf-syntax-ns#Bag');">
<ellipse cx="526" cy="962" rx="28" ry="18" style="fill:#d2d2d2;stroke:#d2d2d2"/>
<text text-anchor="middle" x="526" y="966" style="font-family:arial">rdf:Bag</text>
</a></g>
<g id="edge52" class="edge"><title>:_13-&gt;:_14</title>
<a xlink:href="http://www2.elsevier.co.uk/~tony/1014/yads-schema-2002-04-03#collection" target="_blank" onmouseover="show_status('http://www2.elsevier.co.uk/~tony/1014/yads-schema-2002-04-03#collection');">
<path style="fill:none;stroke:#add9e6" d="M474,890C476,901 479,915 485,926 488,932 494,938 499,943"/>
<polygon style="fill:#add9e6;stroke:#add9e6" points="497,944 506,949 500,941 497,944"/>
<text text-anchor="middle" x="526" y="921" style="font-family:arial">has:collection</text>
</a></g>
<g id="node61" class="node"><title>doi:1014/tube/west_hampstead</title>
<a xlink:href="http://dx.doi.org/1014/tube/west_hampstead" target="_blank" onmouseover="show_status('http://dx.doi.org/1014/tube/west_hampstead');">
<ellipse cx="670" cy="962" rx="92" ry="18" style="fill:#dca0dd;stroke:#dca0dd"/>
<text text-anchor="middle" x="670" y="966" style="font-family:arial">doi:1014/tube/west_hampstead</text>
</a></g>
<g id="edge60" class="edge"><title>:_16-&gt;doi:1014/tube/west_hampstead</title>
<a xlink:href="http://www2.elsevier.co.uk/~tony/1014/yads-schema-2002-04-03#resource" target="_blank" onmouseover="show_status('http://www2.elsevier.co.uk/~tony/1014/yads-schema-2002-04-03#resource');">
<path style="fill:none;stroke:#add9e6" d="M659,890C661,903 664,920 666,935"/>
<polygon style="fill:#add9e6;stroke:#add9e6" points="663,934 667,944 668,934 663,934"/>
<text text-anchor="middle" x="706" y="921" style="font-family:arial">has:resource</text>
</a></g>
<g id="node63" class="node"><title>:_17</title>
<a xlink:href="http://www.w3.org/1999/02/22-rdf-syntax-ns#Bag" target="_blank" onmouseover="show_status('http://www.w3.org/1999/02/22-rdf-syntax-ns#Bag');">
<ellipse cx="808" cy="962" rx="28" ry="18" style="fill:#d2d2d2;stroke:#d2d2d2"/>
<text text-anchor="middle" x="808" y="966" style="font-family:arial">rdf:Bag</text>
</a></g>
<g id="edge62" class="edge"><title>:_16-&gt;:_17</title>
<a xlink:href="http://www2.elsevier.co.uk/~tony/1014/yads-schema-2002-04-03#collection" target="_blank" onmouseover="show_status('http://www2.elsevier.co.uk/~tony/1014/yads-schema-2002-04-03#collection');">
<path style="fill:none;stroke:#add9e6" d="M696,884C714,890 734,898 750,908 764,917 777,929 788,940"/>
<polygon style="fill:#add9e6;stroke:#add9e6" points="785,941 794,946 789,937 785,941"/>
<text text-anchor="middle" x="815" y="921" style="font-family:arial">has:collection</text>
</a></g>
<g id="node55" class="node"><title>:_15</title>
<ellipse cx="502" cy="1067" rx="33" ry="18" style="fill:#eedb82;stroke:#eedb82"/>
<text text-anchor="middle" x="502" y="1071" style="font-family:arial">tube:Mins</text>
</g>
<g id="edge54" class="edge"><title>:_14-&gt;:_15</title>
<a xlink:href="http://www.w3.org/1999/02/22-rdf-syntax-ns#_1" target="_blank" onmouseover="show_status('http://www.w3.org/1999/02/22-rdf-syntax-ns#_1');">
<path style="fill:none;stroke:#add9e6" d="M522,980C519,996 513,1021 508,1040"/>
<polygon style="fill:#add9e6;stroke:#add9e6" points="506,1039 506,1049 511,1040 506,1039"/>
<text text-anchor="middle" x="539" y="1011" style="font-family:arial">rdf:_1</text>
</a></g>
<g id="node58" class="node"><title>data:,2</title>
<a xlink:href="" onclick="show_data('2');" onmouseover="show_status('data:,2');">
<ellipse cx="492" cy="1157" rx="27" ry="18" style="fill:#dca0dd;stroke:#dca0dd"/>
<text text-anchor="middle" x="492" y="1161" style="font-family:arial">data:,2</text>
</a></g>
<g id="edge57" class="edge"><title>:_15-&gt;data:,2</title>
<a xlink:href="http://www2.elsevier.co.uk/~tony/1014/yads-schema-2002-04-03#resource" target="_blank" onmouseover="show_status('http://www2.elsevier.co.uk/~tony/1014/yads-schema-2002-04-03#resource');">
<path style="fill:none;stroke:#add9e6" d="M500,1085C498,1098 497,1115 495,1130"/>
<polygon style="fill:#add9e6;stroke:#add9e6" points="493,1129 494,1139 498,1129 493,1129"/>
<text text-anchor="middle" x="540" y="1116" style="font-family:arial">has:resource</text>
</a></g>
<g id="node65" class="node"><title>:_18</title>
<ellipse cx="784" cy="1067" rx="33" ry="18" style="fill:#eedb82;stroke:#eedb82"/>
<text text-anchor="middle" x="784" y="1071" style="font-family:arial">tube:Mins</text>
</g>
<g id="edge64" class="edge"><title>:_17-&gt;:_18</title>
<a xlink:href="http://www.w3.org/1999/02/22-rdf-syntax-ns#_1" target="_blank" onmouseover="show_status('http://www.w3.org/1999/02/22-rdf-syntax-ns#_1');">
<path style="fill:none;stroke:#add9e6" d="M804,980C801,996 795,1021 790,1040"/>
<polygon style="fill:#add9e6;stroke:#add9e6" points="788,1039 788,1049 793,1040 788,1039"/>
<text text-anchor="middle" x="821" y="1011" style="font-family:arial">rdf:_1</text>
</a></g>
<g id="node68" class="node"><title>data:,1</title>
<a xlink:href="" onclick="show_data('1');" onmouseover="show_status('data:,1');">
<ellipse cx="774" cy="1157" rx="27" ry="18" style="fill:#dca0dd;stroke:#dca0dd"/>
<text text-anchor="middle" x="774" y="1161" style="font-family:arial">data:,1</text>
</a></g>
<g id="edge67" class="edge"><title>:_18-&gt;data:,1</title>
<a xlink:href="http://www2.elsevier.co.uk/~tony/1014/yads-schema-2002-04-03#resource" target="_blank" onmouseover="show_status('http://www2.elsevier.co.uk/~tony/1014/yads-schema-2002-04-03#resource');">
<path style="fill:none;stroke:#add9e6" d="M782,1085C780,1098 779,1115 777,1130"/>
<polygon style="fill:#add9e6;stroke:#add9e6" points="775,1129 776,1139 780,1129 775,1129"/>
<text text-anchor="middle" x="822" y="1116" style="font-family:arial">has:resource</text>
</a></g>
<g id="node75" class="node"><title>:_21</title>
<ellipse cx="1039" cy="872" rx="53" ry="18" style="fill:#eedb82;stroke:#eedb82"/>
<text text-anchor="middle" x="1039" y="876" style="font-family:arial">tube:PrevStation</text>
</g>
<g id="edge74" class="edge"><title>:_20-&gt;:_21</title>
<a xlink:href="http://www.w3.org/1999/02/22-rdf-syntax-ns#_1" target="_blank" onmouseover="show_status('http://www.w3.org/1999/02/22-rdf-syntax-ns#_1');">
<path style="fill:none;stroke:#add9e6" d="M1082,778C1074,796 1061,825 1051,846"/>
<polygon style="fill:#add9e6;stroke:#add9e6" points="1049,844 1047,854 1054,846 1049,844"/>
<text text-anchor="middle" x="1092" y="816" style="font-family:arial">rdf:_1</text>
</a></g>
<g id="node77" class="node"><title>:_24</title>
<ellipse cx="1198" cy="872" rx="53" ry="18" style="fill:#eedb82;stroke:#eedb82"/>
<text text-anchor="middle" x="1198" y="876" style="font-family:arial">tube:NextStation</text>
</g>
<g id="edge76" class="edge"><title>:_20-&gt;:_24</title>
<a xlink:href="http://www.w3.org/1999/02/22-rdf-syntax-ns#_2" target="_blank" onmouseover="show_status('http://www.w3.org/1999/02/22-rdf-syntax-ns#_2');">
<path style="fill:none;stroke:#add9e6" d="M1105,776C1123,795 1154,826 1175,848"/>
<polygon style="fill:#add9e6;stroke:#add9e6" points="1173,849 1181,855 1176,846 1173,849"/>
<text text-anchor="middle" x="1170" y="816" style="font-family:arial">rdf:_2</text>
</a></g>
<g id="node80" class="node"><title>doi:1014/tube/wembley_park</title>
<a xlink:href="http://dx.doi.org/1014/tube/wembley_park" target="_blank" onmouseover="show_status('http://dx.doi.org/1014/tube/wembley_park');">
<ellipse cx="961" cy="962" rx="85" ry="18" style="fill:#dca0dd;stroke:#dca0dd"/>
<text text-anchor="middle" x="961" y="966" style="font-family:arial">doi:1014/tube/wembley_park</text>
</a></g>
<g id="edge79" class="edge"><title>:_21-&gt;doi:1014/tube/wembley_park</title>
<a xlink:href="http://www2.elsevier.co.uk/~tony/1014/yads-schema-2002-04-03#resource" target="_blank" onmouseover="show_status('http://www2.elsevier.co.uk/~tony/1014/yads-schema-2002-04-03#resource');">
<path style="fill:none;stroke:#add9e6" d="M995,882C982,888 968,896 960,908 956,916 954,926 955,935"/>
<polygon style="fill:#add9e6;stroke:#add9e6" points="952,934 956,944 957,934 952,934"/>
<text text-anchor="middle" x="1004" y="921" style="font-family:arial">has:resource</text>
</a></g>
<g id="node82" class="node"><title>:_22</title>
<a xlink:href="http://www.w3.org/1999/02/22-rdf-syntax-ns#Bag" target="_blank" onmouseover="show_status('http://www.w3.org/1999/02/22-rdf-syntax-ns#Bag');">
<ellipse cx="1092" cy="962" rx="28" ry="18" style="fill:#d2d2d2;stroke:#d2d2d2"/>
<text text-anchor="middle" x="1092" y="966" style="font-family:arial">rdf:Bag</text>
</a></g>
<g id="edge81" class="edge"><title>:_21-&gt;:_22</title>
<a xlink:href="http://www2.elsevier.co.uk/~tony/1014/yads-schema-2002-04-03#collection" target="_blank" onmouseover="show_status('http://www2.elsevier.co.uk/~tony/1014/yads-schema-2002-04-03#collection');">
<path style="fill:none;stroke:#add9e6" d="M1040,890C1042,901 1045,915 1051,926 1054,932 1060,938 1065,943"/>
<polygon style="fill:#add9e6;stroke:#add9e6" points="1063,944 1072,949 1066,941 1063,944"/>
<text text-anchor="middle" x="1092" y="921" style="font-family:arial">has:collection</text>
</a></g>
<g id="node90" class="node"><title>doi:1014/tube/baker_street</title>
<a xlink:href="http://dx.doi.org/1014/tube/baker_street" target="_blank" onmouseover="show_status('http://dx.doi.org/1014/tube/baker_street');">
<ellipse cx="1224" cy="962" rx="80" ry="18" style="fill:#dca0dd;stroke:#dca0dd"/>
<text text-anchor="middle" x="1224" y="966" style="font-family:arial">doi:1014/tube/baker_street</text>
</a></g>
<g id="edge89" class="edge"><title>:_24-&gt;doi:1014/tube/baker_street</title>
<a xlink:href="http://www2.elsevier.co.uk/~tony/1014/yads-schema-2002-04-03#resource" target="_blank" onmouseover="show_status('http://www2.elsevier.co.uk/~tony/1014/yads-schema-2002-04-03#resource');">
<path style="fill:none;stroke:#add9e6" d="M1202,890C1205,901 1208,914 1212,926 1213,929 1214,932 1215,935"/>
<polygon style="fill:#add9e6;stroke:#add9e6" points="1212,935 1218,944 1217,934 1212,935"/>
<text text-anchor="middle" x="1253" y="921" style="font-family:arial">has:resource</text>
</a></g>
<g id="node92" class="node"><title>:_25</title>
<a xlink:href="http://www.w3.org/1999/02/22-rdf-syntax-ns#Bag" target="_blank" onmouseover="show_status('http://www.w3.org/1999/02/22-rdf-syntax-ns#Bag');">
<ellipse cx="1350" cy="962" rx="28" ry="18" style="fill:#d2d2d2;stroke:#d2d2d2"/>
<text text-anchor="middle" x="1350" y="966" style="font-family:arial">rdf:Bag</text>
</a></g>
<g id="edge91" class="edge"><title>:_24-&gt;:_25</title>
<a xlink:href="http://www2.elsevier.co.uk/~tony/1014/yads-schema-2002-04-03#collection" target="_blank" onmouseover="show_status('http://www2.elsevier.co.uk/~tony/1014/yads-schema-2002-04-03#collection');">
<path style="fill:none;stroke:#add9e6" d="M1238,884C1255,890 1274,898 1289,908 1297,915 1297,919 1305,926 1311,932 1317,937 1324,942"/>
<polygon style="fill:#add9e6;stroke:#add9e6" points="1322,943 1331,948 1325,940 1322,943"/>
<text text-anchor="middle" x="1346" y="921" style="font-family:arial">has:collection</text>
</a></g>
<g id="node84" class="node"><title>:_23</title>
<ellipse cx="1068" cy="1067" rx="33" ry="18" style="fill:#eedb82;stroke:#eedb82"/>
<text text-anchor="middle" x="1068" y="1071" style="font-family:arial">tube:Mins</text>
</g>
<g id="edge83" class="edge"><title>:_22-&gt;:_23</title>
<a xlink:href="http://www.w3.org/1999/02/22-rdf-syntax-ns#_1" target="_blank" onmouseover="show_status('http://www.w3.org/1999/02/22-rdf-syntax-ns#_1');">
<path style="fill:none;stroke:#add9e6" d="M1088,980C1085,996 1079,1021 1074,1040"/>
<polygon style="fill:#add9e6;stroke:#add9e6" points="1072,1039 1072,1049 1077,1040 1072,1039"/>
<text text-anchor="middle" x="1105" y="1011" style="font-family:arial">rdf:_1</text>
</a></g>
<g id="node87" class="node"><title>data:,7</title>
<a xlink:href="" onclick="show_data('7');" onmouseover="show_status('data:,7');">
<ellipse cx="1058" cy="1157" rx="27" ry="18" style="fill:#dca0dd;stroke:#dca0dd"/>
<text text-anchor="middle" x="1058" y="1161" style="font-family:arial">data:,7</text>
</a></g>
<g id="edge86" class="edge"><title>:_23-&gt;data:,7</title>
<a xlink:href="http://www2.elsevier.co.uk/~tony/1014/yads-schema-2002-04-03#resource" target="_blank" onmouseover="show_status('http://www2.elsevier.co.uk/~tony/1014/yads-schema-2002-04-03#resource');">
<path style="fill:none;stroke:#add9e6" d="M1066,1085C1064,1098 1063,1115 1061,1130"/>
<polygon style="fill:#add9e6;stroke:#add9e6" points="1059,1129 1060,1139 1064,1129 1059,1129"/>
<text text-anchor="middle" x="1106" y="1116" style="font-family:arial">has:resource</text>
</a></g>
<g id="node94" class="node"><title>:_26</title>
<ellipse cx="1326" cy="1067" rx="33" ry="18" style="fill:#eedb82;stroke:#eedb82"/>
<text text-anchor="middle" x="1326" y="1071" style="font-family:arial">tube:Mins</text>
</g>
<g id="edge93" class="edge"><title>:_25-&gt;:_26</title>
<a xlink:href="http://www.w3.org/1999/02/22-rdf-syntax-ns#_1" target="_blank" onmouseover="show_status('http://www.w3.org/1999/02/22-rdf-syntax-ns#_1');">
<path style="fill:none;stroke:#add9e6" d="M1344,980C1342,985 1340,992 1338,998 1335,1012 1332,1027 1329,1040"/>
<polygon style="fill:#add9e6;stroke:#add9e6" points="1327,1039 1328,1049 1332,1039 1327,1039"/>
<text text-anchor="middle" x="1358" y="1011" style="font-family:arial">rdf:_1</text>
</a></g>
<g id="node97" class="node"><title>data:,6</title>
<a xlink:href="" onclick="show_data('6');" onmouseover="show_status('data:,6');">
<ellipse cx="1316" cy="1157" rx="27" ry="18" style="fill:#dca0dd;stroke:#dca0dd"/>
<text text-anchor="middle" x="1316" y="1161" style="font-family:arial">data:,6</text>
</a></g>
<g id="edge96" class="edge"><title>:_26-&gt;data:,6</title>
<a xlink:href="http://www2.elsevier.co.uk/~tony/1014/yads-schema-2002-04-03#resource" target="_blank" onmouseover="show_status('http://www2.elsevier.co.uk/~tony/1014/yads-schema-2002-04-03#resource');">
<path style="fill:none;stroke:#add9e6" d="M1309,1083C1304,1089 1299,1096 1297,1103 1293,1113 1296,1123 1300,1132"/>
<polygon style="fill:#add9e6;stroke:#add9e6" points="1297,1132 1304,1140 1302,1130 1297,1132"/>
<text text-anchor="middle" x="1338" y="1116" style="font-family:arial">has:resource</text>
</a></g>
</g>
</svg>
