<?xml version="1.0" encoding="UTF-8" standalone="no"?>
<!DOCTYPE svg PUBLIC "-//W3C//DTD SVG 1.0//EN"
 "http://www.w3.org/TR/2001/REC-SVG-20010904/DTD/svg10.dtd" [
 <!ATTLIST svg xmlns:xlink CDATA #FIXED "http://www.w3.org/1999/xlink">
]>
<!-- Generated by dot version 1.8.5 (Tue Apr 23 17:19:23  2002)
     For user: (Administrator) ,S-1-5-21-1454471165-688789844-1708537768-500   Title: yads    Pages: 1 -->
<svg width="847px" height="1266px"
 xmlns="http://www.w3.org/2000/svg" xmlns:xlink="http://www.w3.org/1999/xlink">
<g id="graph0" class="graph" style="font-family:Times-Roman;font-size:11.00">
<title>yads</title>
<text text-anchor="middle" x="423" y="1255" style="font-family:arial;font-size:24.00">YADS - A Description Service</text>
<g id="graph2" class="cluster"><title>cluster_1</title>
<polygon style="fill:none;stroke:#d2d2d2;stroke-dasharray:5,2" points="19,1223 828,1223 828,43 19,43 19,1223"/>
<text text-anchor="middle" x="89" y="55" style="font-family:arial">Nest - Gants Hill Station</text>
</g>
<g id="graph3" class="cluster"><title>cluster_3</title>
<polygon style="fill:none;stroke:#d2d2d2;stroke-dasharray:5,2" points="27,1215 820,1215 820,238 27,238 27,1215"/>
<text text-anchor="middle" x="99" y="250" style="font-family:arial">Nest - Application Profile</text>
</g>
<g id="graph4" class="cluster"><title>cluster_5</title>
<polygon style="fill:none;stroke:#d2d2d2;stroke-dasharray:5,2" points="35,795 278,795 278,433 35,433 35,795"/>
<text text-anchor="middle" x="80" y="445" style="font-family:arial">Item - Location</text>
</g>
<g id="graph5" class="cluster"><title>cluster_7</title>
<polygon style="fill:none;stroke:#d2d2d2;stroke-dasharray:5,2" points="43,787 165,787 165,628 43,628 43,787"/>
<text text-anchor="middle" x="59" y="640" style="font-family:arial">Item</text>
</g>
<g id="graph6" class="cluster"><title>cluster_8</title>
<polygon style="fill:none;stroke:#d2d2d2;stroke-dasharray:5,2" points="173,787 270,787 270,628 173,628 173,787"/>
<text text-anchor="middle" x="189" y="640" style="font-family:arial">Item</text>
</g>
<g id="graph7" class="cluster"><title>cluster_9</title>
<polygon style="fill:none;stroke:#d2d2d2;stroke-dasharray:5,2" points="286,1207 812,1207 812,433 286,433 286,1207"/>
<text text-anchor="middle" x="355" y="445" style="font-family:arial">Item - Line Interchanges</text>
</g>
<g id="graph8" class="cluster"><title>cluster_11</title>
<polygon style="fill:none;stroke:#d2d2d2;stroke-dasharray:5,2" points="294,1199 804,1199 804,628 294,628 294,1199"/>
<text text-anchor="middle" x="362" y="640" style="font-family:arial">Nest - Line Interchange</text>
</g>
<g id="graph9" class="cluster"><title>cluster_13</title>
<polygon style="fill:none;stroke:#d2d2d2;stroke-dasharray:5,2" points="302,1191 530,1191 530,829 302,829 302,1191"/>
<text text-anchor="middle" x="370" y="841" style="font-family:arial">Nest - Next Stop Back</text>
</g>
<g id="graph10" class="cluster"><title>cluster_15</title>
<polygon style="fill:none;stroke:#d2d2d2;stroke-dasharray:5,2" points="425,1183 522,1183 522,1024 425,1024 425,1183"/>
<text text-anchor="middle" x="441" y="1036" style="font-family:arial">Item</text>
</g>
<g id="graph11" class="cluster"><title>cluster_16</title>
<polygon style="fill:none;stroke:#d2d2d2;stroke-dasharray:5,2" points="538,1191 796,1191 796,829 538,829 538,1191"/>
<text text-anchor="middle" x="590" y="841" style="font-family:arial">Nest - Next Stop</text>
</g>
<g id="graph12" class="cluster"><title>cluster_18</title>
<polygon style="fill:none;stroke:#d2d2d2;stroke-dasharray:5,2" points="691,1183 788,1183 788,1024 691,1024 691,1183"/>
<text text-anchor="middle" x="707" y="1036" style="font-family:arial">Item</text>
</g>
<g id="node2" class="node"><title>:_1</title>
<ellipse cx="226" cy="86" rx="40" ry="18" style="fill:#eedb82;stroke:#eedb82"/>
<text text-anchor="middle" x="226" y="90" style="font-family:arial">tube:Station</text>
</g>
<g id="node4" class="node"><title>doi:1014/tube/gants_hill</title>
<a xlink:href="http://dx.doi.org/1014/tube/gants_hill" target="_blank" onmouseover="show_status('http://dx.doi.org/1014/tube/gants_hill');">
<ellipse cx="110" cy="176" rx="68" ry="18" style="fill:#dca0dd;stroke:#dca0dd"/>
<text text-anchor="middle" x="110" y="180" style="font-family:arial">doi:1014/tube/gants_hill</text>
</a></g>
<g id="edge3" class="edge"><title>:_1-&gt;doi:1014/tube/gants_hill</title>
<a xlink:href="http://www2.elsevier.co.uk/~tony/1014/yads-schema-2002-04-03#resource" target="_blank" onmouseover="show_status('http://www2.elsevier.co.uk/~tony/1014/yads-schema-2002-04-03#resource');">
<path style="fill:none;stroke:#add9e6" d="M191,95C175,101 155,109 141,122 133,130 126,140 121,150"/>
<polygon style="fill:#add9e6;stroke:#add9e6" points="119,148 117,158 124,150 119,148"/>
<text text-anchor="middle" x="188" y="135" style="font-family:arial">has:resource</text>
</a></g>
<g id="node6" class="node"><title>node_1</title>
<polygon style="fill:#6497ed;stroke:#6497ed" points="256,158 196,158 196,194 256,194 256,158"/>
<text text-anchor="middle" x="226" y="180" style="font-family:arial">Gants Hill</text>
</g>
<g id="edge5" class="edge"><title>:_1-&gt;node_1</title>
<a xlink:href="http://www2.elsevier.co.uk/~tony/1014/yads-schema-2002-04-03#label" target="_blank" onmouseover="show_status('http://www2.elsevier.co.uk/~tony/1014/yads-schema-2002-04-03#label');">
<path style="fill:none;stroke:#add9e6" d="M226,104C226,117 226,134 226,149"/>
<polygon style="fill:#add9e6;stroke:#add9e6" points="224,148 226,158 229,148 224,148"/>
<text text-anchor="middle" x="253" y="135" style="font-family:arial">has:label</text>
</a></g>
<g id="node8" class="node"><title>:_2</title>
<a xlink:href="http://www.w3.org/1999/02/22-rdf-syntax-ns#Bag" target="_blank" onmouseover="show_status('http://www.w3.org/1999/02/22-rdf-syntax-ns#Bag');">
<ellipse cx="302" cy="176" rx="28" ry="18" style="fill:#d2d2d2;stroke:#d2d2d2"/>
<text text-anchor="middle" x="302" y="180" style="font-family:arial">rdf:Bag</text>
</a></g>
<g id="edge7" class="edge"><title>:_1-&gt;:_2</title>
<a xlink:href="http://www2.elsevier.co.uk/~tony/1014/yads-schema-2002-04-03#collection" target="_blank" onmouseover="show_status('http://www2.elsevier.co.uk/~tony/1014/yads-schema-2002-04-03#collection');">
<path style="fill:none;stroke:#add9e6" d="M255,98C266,104 278,112 285,122 291,129 295,140 298,149"/>
<polygon style="fill:#add9e6;stroke:#add9e6" points="295,149 300,158 300,148 295,149"/>
<text text-anchor="middle" x="337" y="135" style="font-family:arial">has:collection</text>
</a></g>
<g id="node10" class="node"><title>:_3</title>
<ellipse cx="302" cy="281" rx="34" ry="18" style="fill:#eedb82;stroke:#eedb82"/>
<text text-anchor="middle" x="302" y="285" style="font-family:arial">doi:Profile</text>
</g>
<g id="edge9" class="edge"><title>:_2-&gt;:_3</title>
<a xlink:href="http://www.w3.org/1999/02/22-rdf-syntax-ns#_1" target="_blank" onmouseover="show_status('http://www.w3.org/1999/02/22-rdf-syntax-ns#_1');">
<path style="fill:none;stroke:#add9e6" d="M302,194C302,210 302,235 302,254"/>
<polygon style="fill:#add9e6;stroke:#add9e6" points="300,253 302,263 305,253 300,253"/>
<text text-anchor="middle" x="322" y="225" style="font-family:arial">rdf:_1</text>
</a></g>
<g id="node13" class="node"><title>doi:1014/profile.tube</title>
<a xlink:href="http://dx.doi.org/1014/profile.tube" target="_blank" onmouseover="show_status('http://dx.doi.org/1014/profile.tube');">
<ellipse cx="214" cy="371" rx="59" ry="18" style="fill:#dca0dd;stroke:#dca0dd"/>
<text text-anchor="middle" x="214" y="375" style="font-family:arial">doi:1014/profile.tube</text>
</a></g>
<g id="edge12" class="edge"><title>:_3-&gt;doi:1014/profile.tube</title>
<a xlink:href="http://www2.elsevier.co.uk/~tony/1014/yads-schema-2002-04-03#resource" target="_blank" onmouseover="show_status('http://www2.elsevier.co.uk/~tony/1014/yads-schema-2002-04-03#resource');">
<path style="fill:none;stroke:#add9e6" d="M271,289C255,294 237,303 225,317 219,324 216,335 215,344"/>
<polygon style="fill:#add9e6;stroke:#add9e6" points="213,343 214,353 218,343 213,343"/>
<text text-anchor="middle" x="269" y="330" style="font-family:arial">has:resource</text>
</a></g>
<g id="node15" class="node"><title>:_4</title>
<a xlink:href="http://www.w3.org/1999/02/22-rdf-syntax-ns#Bag" target="_blank" onmouseover="show_status('http://www.w3.org/1999/02/22-rdf-syntax-ns#Bag');">
<ellipse cx="319" cy="371" rx="28" ry="18" style="fill:#d2d2d2;stroke:#d2d2d2"/>
<text text-anchor="middle" x="319" y="375" style="font-family:arial">rdf:Bag</text>
</a></g>
<g id="edge14" class="edge"><title>:_3-&gt;:_4</title>
<a xlink:href="http://www2.elsevier.co.uk/~tony/1014/yads-schema-2002-04-03#collection" target="_blank" onmouseover="show_status('http://www2.elsevier.co.uk/~tony/1014/yads-schema-2002-04-03#collection');">
<path style="fill:none;stroke:#add9e6" d="M305,299C307,312 311,329 313,344"/>
<polygon style="fill:#add9e6;stroke:#add9e6" points="310,344 315,353 315,343 310,344"/>
<text text-anchor="middle" x="354" y="330" style="font-family:arial">has:collection</text>
</a></g>
<g id="node17" class="node"><title>:_5</title>
<a xlink:href="http://www2.elsevier.co.uk/~tony/1014/yads-schema-2002-04-03#Item" target="_blank" onmouseover="show_status('http://www2.elsevier.co.uk/~tony/1014/yads-schema-2002-04-03#Item');">
<ellipse cx="239" cy="476" rx="28" ry="18" style="fill:#d2d2d2;stroke:#d2d2d2"/>
<text text-anchor="middle" x="239" y="480" style="font-family:arial">isa:Item</text>
</a></g>
<g id="edge16" class="edge"><title>:_4-&gt;:_5</title>
<a xlink:href="http://www.w3.org/1999/02/22-rdf-syntax-ns#_1" target="_blank" onmouseover="show_status('http://www.w3.org/1999/02/22-rdf-syntax-ns#_1');">
<path style="fill:none;stroke:#add9e6" d="M304,386C298,393 292,400 286,407 275,421 263,438 255,452"/>
<polygon style="fill:#add9e6;stroke:#add9e6" points="254,449 250,459 258,452 254,449"/>
<text text-anchor="middle" x="309" y="420" style="font-family:arial">rdf:_1</text>
</a></g>
<g id="node19" class="node"><title>:_9</title>
<a xlink:href="http://www2.elsevier.co.uk/~tony/1014/yads-schema-2002-04-03#Item" target="_blank" onmouseover="show_status('http://www2.elsevier.co.uk/~tony/1014/yads-schema-2002-04-03#Item');">
<ellipse cx="349" cy="476" rx="28" ry="18" style="fill:#d2d2d2;stroke:#d2d2d2"/>
<text text-anchor="middle" x="349" y="480" style="font-family:arial">isa:Item</text>
</a></g>
<g id="edge18" class="edge"><title>:_4-&gt;:_9</title>
<a xlink:href="http://www.w3.org/1999/02/22-rdf-syntax-ns#_2" target="_blank" onmouseover="show_status('http://www.w3.org/1999/02/22-rdf-syntax-ns#_2');">
<path style="fill:none;stroke:#add9e6" d="M324,389C329,405 337,431 342,449"/>
<polygon style="fill:#add9e6;stroke:#add9e6" points="339,449 344,458 344,448 339,449"/>
<text text-anchor="middle" x="356" y="420" style="font-family:arial">rdf:_2</text>
</a></g>
<g id="node22" class="node"><title>:_6</title>
<a xlink:href="http://www.w3.org/1999/02/22-rdf-syntax-ns#Bag" target="_blank" onmouseover="show_status('http://www.w3.org/1999/02/22-rdf-syntax-ns#Bag');">
<ellipse cx="189" cy="566" rx="28" ry="18" style="fill:#d2d2d2;stroke:#d2d2d2"/>
<text text-anchor="middle" x="189" y="570" style="font-family:arial">rdf:Bag</text>
</a></g>
<g id="edge21" class="edge"><title>:_5-&gt;:_6</title>
<a xlink:href="http://www2.elsevier.co.uk/~tony/1014/yads-schema-2002-04-03#collection" target="_blank" onmouseover="show_status('http://www2.elsevier.co.uk/~tony/1014/yads-schema-2002-04-03#collection');">
<path style="fill:none;stroke:#add9e6" d="M221,490C214,496 206,504 201,512 197,520 194,530 192,539"/>
<polygon style="fill:#add9e6;stroke:#add9e6" points="190,538 190,548 195,539 190,538"/>
<text text-anchor="middle" x="245" y="525" style="font-family:arial">has:collection</text>
</a></g>
<g id="node35" class="node"><title>:_10</title>
<a xlink:href="http://www.w3.org/1999/02/22-rdf-syntax-ns#Bag" target="_blank" onmouseover="show_status('http://www.w3.org/1999/02/22-rdf-syntax-ns#Bag');">
<ellipse cx="369" cy="566" rx="28" ry="18" style="fill:#d2d2d2;stroke:#d2d2d2"/>
<text text-anchor="middle" x="369" y="570" style="font-family:arial">rdf:Bag</text>
</a></g>
<g id="edge34" class="edge"><title>:_9-&gt;:_10</title>
<a xlink:href="http://www2.elsevier.co.uk/~tony/1014/yads-schema-2002-04-03#collection" target="_blank" onmouseover="show_status('http://www2.elsevier.co.uk/~tony/1014/yads-schema-2002-04-03#collection');">
<path style="fill:none;stroke:#add9e6" d="M353,494C356,507 360,524 363,539"/>
<polygon style="fill:#add9e6;stroke:#add9e6" points="360,539 365,548 365,538 360,539"/>
<text text-anchor="middle" x="403" y="525" style="font-family:arial">has:collection</text>
</a></g>
<g id="node24" class="node"><title>:_7</title>
<ellipse cx="104" cy="671" rx="35" ry="18" style="fill:#eedb82;stroke:#eedb82"/>
<text text-anchor="middle" x="104" y="675" style="font-family:arial">tube:Zone</text>
</g>
<g id="edge23" class="edge"><title>:_6-&gt;:_7</title>
<a xlink:href="http://www.w3.org/1999/02/22-rdf-syntax-ns#_1" target="_blank" onmouseover="show_status('http://www.w3.org/1999/02/22-rdf-syntax-ns#_1');">
<path style="fill:none;stroke:#add9e6" d="M173,581C167,588 160,595 154,602 142,616 130,633 121,647"/>
<polygon style="fill:#add9e6;stroke:#add9e6" points="120,644 116,654 124,647 120,644"/>
<text text-anchor="middle" x="177" y="615" style="font-family:arial">rdf:_1</text>
</a></g>
<g id="node26" class="node"><title>:_8</title>
<ellipse cx="213" cy="671" rx="32" ry="18" style="fill:#eedb82;stroke:#eedb82"/>
<text text-anchor="middle" x="213" y="675" style="font-family:arial">tube:Grid</text>
</g>
<g id="edge25" class="edge"><title>:_6-&gt;:_8</title>
<a xlink:href="http://www.w3.org/1999/02/22-rdf-syntax-ns#_2" target="_blank" onmouseover="show_status('http://www.w3.org/1999/02/22-rdf-syntax-ns#_2');">
<path style="fill:none;stroke:#add9e6" d="M193,584C196,600 202,625 207,644"/>
<polygon style="fill:#add9e6;stroke:#add9e6" points="204,644 209,653 209,643 204,644"/>
<text text-anchor="middle" x="222" y="615" style="font-family:arial">rdf:_2</text>
</a></g>
<g id="node29" class="node"><title>data:,Zone%204</title>
<a xlink:href="" onclick="show_data('Zone%204');" onmouseover="show_status('data:,Zone%204');">
<ellipse cx="104" cy="761" rx="53" ry="18" style="fill:#dca0dd;stroke:#dca0dd"/>
<text text-anchor="middle" x="104" y="765" style="font-family:arial">data:,Zone%204</text>
</a></g>
<g id="edge28" class="edge"><title>:_7-&gt;data:,Zone%204</title>
<a xlink:href="http://www2.elsevier.co.uk/~tony/1014/yads-schema-2002-04-03#resource" target="_blank" onmouseover="show_status('http://www2.elsevier.co.uk/~tony/1014/yads-schema-2002-04-03#resource');">
<path style="fill:none;stroke:#add9e6" d="M95,689C92,694 89,701 88,707 87,715 87,718 88,725 88,728 89,731 90,734"/>
<polygon style="fill:#add9e6;stroke:#add9e6" points="88,735 94,743 92,733 88,735"/>
<text text-anchor="middle" x="132" y="720" style="font-family:arial">has:resource</text>
</a></g>
<g id="node32" class="node"><title>data:,B8</title>
<a xlink:href="" onclick="show_data('B8');" onmouseover="show_status('data:,B8');">
<ellipse cx="211" cy="761" rx="30" ry="18" style="fill:#dca0dd;stroke:#dca0dd"/>
<text text-anchor="middle" x="211" y="765" style="font-family:arial">data:,B8</text>
</a></g>
<g id="edge31" class="edge"><title>:_8-&gt;data:,B8</title>
<a xlink:href="http://www2.elsevier.co.uk/~tony/1014/yads-schema-2002-04-03#resource" target="_blank" onmouseover="show_status('http://www2.elsevier.co.uk/~tony/1014/yads-schema-2002-04-03#resource');">
<path style="fill:none;stroke:#add9e6" d="M211,689C210,695 209,701 209,707 208,716 209,725 209,733"/>
<polygon style="fill:#add9e6;stroke:#add9e6" points="207,733 210,743 211,733 207,733"/>
<text text-anchor="middle" x="253" y="720" style="font-family:arial">has:resource</text>
</a></g>
<g id="node37" class="node"><title>:_11</title>
<ellipse cx="376" cy="671" rx="53" ry="18" style="fill:#eedb82;stroke:#eedb82"/>
<text text-anchor="middle" x="376" y="675" style="font-family:arial">tube:LineChange</text>
</g>
<g id="edge36" class="edge"><title>:_10-&gt;:_11</title>
<a xlink:href="http://www.w3.org/1999/02/22-rdf-syntax-ns#_1" target="_blank" onmouseover="show_status('http://www.w3.org/1999/02/22-rdf-syntax-ns#_1');">
<path style="fill:none;stroke:#add9e6" d="M370,584C371,600 372,625 374,644"/>
<polygon style="fill:#add9e6;stroke:#add9e6" points="371,643 375,653 376,643 371,643"/>
<text text-anchor="middle" x="393" y="615" style="font-family:arial">rdf:_1</text>
</a></g>
<g id="node40" class="node"><title>doi:1014/tube/central_line</title>
<a xlink:href="http://dx.doi.org/1014/tube/central_line" target="_blank" onmouseover="show_status('http://dx.doi.org/1014/tube/central_line');">
<ellipse cx="376" cy="761" rx="74" ry="18" style="fill:#dca0dd;stroke:#dca0dd"/>
<text text-anchor="middle" x="376" y="765" style="font-family:arial">doi:1014/tube/central_line</text>
</a></g>
<g id="edge39" class="edge"><title>:_11-&gt;doi:1014/tube/central_line</title>
<a xlink:href="http://www2.elsevier.co.uk/~tony/1014/yads-schema-2002-04-03#resource" target="_blank" onmouseover="show_status('http://www2.elsevier.co.uk/~tony/1014/yads-schema-2002-04-03#resource');">
<path style="fill:none;stroke:#add9e6" d="M376,689C376,702 376,719 376,734"/>
<polygon style="fill:#add9e6;stroke:#add9e6" points="374,733 376,743 379,733 374,733"/>
<text text-anchor="middle" x="417" y="720" style="font-family:arial">has:resource</text>
</a></g>
<g id="node42" class="node"><title>:_12</title>
<a xlink:href="http://www.w3.org/1999/02/22-rdf-syntax-ns#Bag" target="_blank" onmouseover="show_status('http://www.w3.org/1999/02/22-rdf-syntax-ns#Bag');">
<ellipse cx="496" cy="761" rx="28" ry="18" style="fill:#d2d2d2;stroke:#d2d2d2"/>
<text text-anchor="middle" x="496" y="765" style="font-family:arial">rdf:Bag</text>
</a></g>
<g id="edge41" class="edge"><title>:_11-&gt;:_12</title>
<a xlink:href="http://www2.elsevier.co.uk/~tony/1014/yads-schema-2002-04-03#collection" target="_blank" onmouseover="show_status('http://www2.elsevier.co.uk/~tony/1014/yads-schema-2002-04-03#collection');">
<path style="fill:none;stroke:#add9e6" d="M417,683C432,688 448,696 461,707 470,715 478,726 484,736"/>
<polygon style="fill:#add9e6;stroke:#add9e6" points="481,736 488,744 486,734 481,736"/>
<text text-anchor="middle" x="519" y="720" style="font-family:arial">has:collection</text>
</a></g>
<g id="node44" class="node"><title>:_13</title>
<ellipse cx="441" cy="872" rx="53" ry="18" style="fill:#eedb82;stroke:#eedb82"/>
<text text-anchor="middle" x="441" y="876" style="font-family:arial">tube:PrevStation</text>
</g>
<g id="edge43" class="edge"><title>:_12-&gt;:_13</title>
<a xlink:href="http://www.w3.org/1999/02/22-rdf-syntax-ns#_1" target="_blank" onmouseover="show_status('http://www.w3.org/1999/02/22-rdf-syntax-ns#_1');">
<path style="fill:none;stroke:#add9e6" d="M487,778C478,797 464,825 454,846"/>
<polygon style="fill:#add9e6;stroke:#add9e6" points="452,844 450,854 457,846 452,844"/>
<text text-anchor="middle" x="496" y="816" style="font-family:arial">rdf:_1</text>
</a></g>
<g id="node46" class="node"><title>:_16</title>
<ellipse cx="608" cy="872" rx="53" ry="18" style="fill:#eedb82;stroke:#eedb82"/>
<text text-anchor="middle" x="608" y="876" style="font-family:arial">tube:NextStation</text>
</g>
<g id="edge45" class="edge"><title>:_12-&gt;:_16</title>
<a xlink:href="http://www.w3.org/1999/02/22-rdf-syntax-ns#_2" target="_blank" onmouseover="show_status('http://www.w3.org/1999/02/22-rdf-syntax-ns#_2');">
<path style="fill:none;stroke:#add9e6" d="M512,776C530,795 562,826 584,848"/>
<polygon style="fill:#add9e6;stroke:#add9e6" points="582,850 591,855 586,846 582,850"/>
<text text-anchor="middle" x="578" y="816" style="font-family:arial">rdf:_2</text>
</a></g>
<g id="node49" class="node"><title>doi:1014/tube/redbridge</title>
<a xlink:href="http://dx.doi.org/1014/tube/redbridge" target="_blank" onmouseover="show_status('http://dx.doi.org/1014/tube/redbridge');">
<ellipse cx="379" cy="962" rx="69" ry="18" style="fill:#dca0dd;stroke:#dca0dd"/>
<text text-anchor="middle" x="379" y="966" style="font-family:arial">doi:1014/tube/redbridge</text>
</a></g>
<g id="edge48" class="edge"><title>:_13-&gt;doi:1014/tube/redbridge</title>
<a xlink:href="http://www2.elsevier.co.uk/~tony/1014/yads-schema-2002-04-03#resource" target="_blank" onmouseover="show_status('http://www2.elsevier.co.uk/~tony/1014/yads-schema-2002-04-03#resource');">
<path style="fill:none;stroke:#add9e6" d="M397,882C384,888 370,896 362,908 357,916 358,926 362,935"/>
<polygon style="fill:#add9e6;stroke:#add9e6" points="360,936 366,944 364,934 360,936"/>
<text text-anchor="middle" x="406" y="921" style="font-family:arial">has:resource</text>
</a></g>
<g id="node51" class="node"><title>:_14</title>
<a xlink:href="http://www.w3.org/1999/02/22-rdf-syntax-ns#Bag" target="_blank" onmouseover="show_status('http://www.w3.org/1999/02/22-rdf-syntax-ns#Bag');">
<ellipse cx="494" cy="962" rx="28" ry="18" style="fill:#d2d2d2;stroke:#d2d2d2"/>
<text text-anchor="middle" x="494" y="966" style="font-family:arial">rdf:Bag</text>
</a></g>
<g id="edge50" class="edge"><title>:_13-&gt;:_14</title>
<a xlink:href="http://www2.elsevier.co.uk/~tony/1014/yads-schema-2002-04-03#collection" target="_blank" onmouseover="show_status('http://www2.elsevier.co.uk/~tony/1014/yads-schema-2002-04-03#collection');">
<path style="fill:none;stroke:#add9e6" d="M442,890C444,901 447,915 453,926 456,932 462,938 467,943"/>
<polygon style="fill:#add9e6;stroke:#add9e6" points="465,944 474,949 468,941 465,944"/>
<text text-anchor="middle" x="494" y="921" style="font-family:arial">has:collection</text>
</a></g>
<g id="node59" class="node"><title>doi:1014/tube/newbury_park</title>
<a xlink:href="http://dx.doi.org/1014/tube/newbury_park" target="_blank" onmouseover="show_status('http://dx.doi.org/1014/tube/newbury_park');">
<ellipse cx="630" cy="962" rx="84" ry="18" style="fill:#dca0dd;stroke:#dca0dd"/>
<text text-anchor="middle" x="630" y="966" style="font-family:arial">doi:1014/tube/newbury_park</text>
</a></g>
<g id="edge58" class="edge"><title>:_16-&gt;doi:1014/tube/newbury_park</title>
<a xlink:href="http://www2.elsevier.co.uk/~tony/1014/yads-schema-2002-04-03#resource" target="_blank" onmouseover="show_status('http://www2.elsevier.co.uk/~tony/1014/yads-schema-2002-04-03#resource');">
<path style="fill:none;stroke:#add9e6" d="M612,890C615,903 620,920 624,935"/>
<polygon style="fill:#add9e6;stroke:#add9e6" points="621,935 626,944 626,934 621,935"/>
<text text-anchor="middle" x="664" y="921" style="font-family:arial">has:resource</text>
</a></g>
<g id="node61" class="node"><title>:_17</title>
<a xlink:href="http://www.w3.org/1999/02/22-rdf-syntax-ns#Bag" target="_blank" onmouseover="show_status('http://www.w3.org/1999/02/22-rdf-syntax-ns#Bag');">
<ellipse cx="760" cy="962" rx="28" ry="18" style="fill:#d2d2d2;stroke:#d2d2d2"/>
<text text-anchor="middle" x="760" y="966" style="font-family:arial">rdf:Bag</text>
</a></g>
<g id="edge60" class="edge"><title>:_16-&gt;:_17</title>
<a xlink:href="http://www2.elsevier.co.uk/~tony/1014/yads-schema-2002-04-03#collection" target="_blank" onmouseover="show_status('http://www2.elsevier.co.uk/~tony/1014/yads-schema-2002-04-03#collection');">
<path style="fill:none;stroke:#add9e6" d="M648,884C665,890 684,898 699,908 707,915 707,919 715,926 721,932 727,937 734,942"/>
<polygon style="fill:#add9e6;stroke:#add9e6" points="732,943 741,948 735,940 732,943"/>
<text text-anchor="middle" x="756" y="921" style="font-family:arial">has:collection</text>
</a></g>
<g id="node53" class="node"><title>:_15</title>
<ellipse cx="470" cy="1067" rx="33" ry="18" style="fill:#eedb82;stroke:#eedb82"/>
<text text-anchor="middle" x="470" y="1071" style="font-family:arial">tube:Mins</text>
</g>
<g id="edge52" class="edge"><title>:_14-&gt;:_15</title>
<a xlink:href="http://www.w3.org/1999/02/22-rdf-syntax-ns#_1" target="_blank" onmouseover="show_status('http://www.w3.org/1999/02/22-rdf-syntax-ns#_1');">
<path style="fill:none;stroke:#add9e6" d="M490,980C487,996 481,1021 476,1040"/>
<polygon style="fill:#add9e6;stroke:#add9e6" points="474,1039 474,1049 479,1040 474,1039"/>
<text text-anchor="middle" x="507" y="1011" style="font-family:arial">rdf:_1</text>
</a></g>
<g id="node56" class="node"><title>data:,3</title>
<a xlink:href="" onclick="show_data('3');" onmouseover="show_status('data:,3');">
<ellipse cx="460" cy="1157" rx="27" ry="18" style="fill:#dca0dd;stroke:#dca0dd"/>
<text text-anchor="middle" x="460" y="1161" style="font-family:arial">data:,3</text>
</a></g>
<g id="edge55" class="edge"><title>:_15-&gt;data:,3</title>
<a xlink:href="http://www2.elsevier.co.uk/~tony/1014/yads-schema-2002-04-03#resource" target="_blank" onmouseover="show_status('http://www2.elsevier.co.uk/~tony/1014/yads-schema-2002-04-03#resource');">
<path style="fill:none;stroke:#add9e6" d="M468,1085C466,1098 465,1115 463,1130"/>
<polygon style="fill:#add9e6;stroke:#add9e6" points="461,1129 462,1139 466,1129 461,1129"/>
<text text-anchor="middle" x="508" y="1116" style="font-family:arial">has:resource</text>
</a></g>
<g id="node63" class="node"><title>:_18</title>
<ellipse cx="736" cy="1067" rx="33" ry="18" style="fill:#eedb82;stroke:#eedb82"/>
<text text-anchor="middle" x="736" y="1071" style="font-family:arial">tube:Mins</text>
</g>
<g id="edge62" class="edge"><title>:_17-&gt;:_18</title>
<a xlink:href="http://www.w3.org/1999/02/22-rdf-syntax-ns#_1" target="_blank" onmouseover="show_status('http://www.w3.org/1999/02/22-rdf-syntax-ns#_1');">
<path style="fill:none;stroke:#add9e6" d="M754,980C752,985 750,992 748,998 745,1012 742,1027 739,1040"/>
<polygon style="fill:#add9e6;stroke:#add9e6" points="737,1039 738,1049 742,1039 737,1039"/>
<text text-anchor="middle" x="768" y="1011" style="font-family:arial">rdf:_1</text>
</a></g>
<g id="node66" class="node"><title>data:,4</title>
<a xlink:href="" onclick="show_data('4');" onmouseover="show_status('data:,4');">
<ellipse cx="726" cy="1157" rx="27" ry="18" style="fill:#dca0dd;stroke:#dca0dd"/>
<text text-anchor="middle" x="726" y="1161" style="font-family:arial">data:,4</text>
</a></g>
<g id="edge65" class="edge"><title>:_18-&gt;data:,4</title>
<a xlink:href="http://www2.elsevier.co.uk/~tony/1014/yads-schema-2002-04-03#resource" target="_blank" onmouseover="show_status('http://www2.elsevier.co.uk/~tony/1014/yads-schema-2002-04-03#resource');">
<path style="fill:none;stroke:#add9e6" d="M719,1083C714,1089 709,1096 707,1103 703,1113 706,1123 710,1132"/>
<polygon style="fill:#add9e6;stroke:#add9e6" points="707,1132 714,1140 712,1130 707,1132"/>
<text text-anchor="middle" x="748" y="1116" style="font-family:arial">has:resource</text>
</a></g>
</g>
</svg>
