<?xml version="1.0" encoding="UTF-8" standalone="no"?>
<!DOCTYPE svg PUBLIC "-//W3C//DTD SVG 1.0//EN"
 "http://www.w3.org/TR/2001/REC-SVG-20010904/DTD/svg10.dtd" [
 <!ATTLIST svg xmlns:xlink CDATA #FIXED "http://www.w3.org/1999/xlink">
]>
<!-- Generated by dot version 1.8.5 (Tue Apr 23 17:19:23  2002)
     For user: (Administrator) ,S-1-5-21-1454471165-688789844-1708537768-500   Title: yads    Pages: 1 -->
<svg width="1677px" height="1280px"
 xmlns="http://www.w3.org/2000/svg" xmlns:xlink="http://www.w3.org/1999/xlink">
<g id="graph0" class="graph" style="font-family:Times-Roman;font-size:11.00">
<title>yads</title>
<text text-anchor="middle" x="838" y="1269" style="font-family:arial;font-size:24.00">YADS - A Description Service</text>
<g id="graph2" class="cluster"><title>cluster_1</title>
<polygon style="fill:none;stroke:#d2d2d2;stroke-dasharray:5,2" points="19,1237 1658,1237 1658,43 19,43 19,1237"/>
<text text-anchor="middle" x="101" y="55" style="font-family:arial">Nest - Hammersmith Station</text>
</g>
<g id="graph3" class="cluster"><title>cluster_3</title>
<polygon style="fill:none;stroke:#d2d2d2;stroke-dasharray:5,2" points="27,1229 1650,1229 1650,238 27,238 27,1229"/>
<text text-anchor="middle" x="99" y="250" style="font-family:arial">Nest - Application Profile</text>
</g>
<g id="graph4" class="cluster"><title>cluster_5</title>
<polygon style="fill:none;stroke:#d2d2d2;stroke-dasharray:5,2" points="35,795 278,795 278,433 35,433 35,795"/>
<text text-anchor="middle" x="80" y="445" style="font-family:arial">Item - Location</text>
</g>
<g id="graph5" class="cluster"><title>cluster_7</title>
<polygon style="fill:none;stroke:#d2d2d2;stroke-dasharray:5,2" points="43,787 165,787 165,628 43,628 43,787"/>
<text text-anchor="middle" x="59" y="640" style="font-family:arial">Item</text>
</g>
<g id="graph6" class="cluster"><title>cluster_8</title>
<polygon style="fill:none;stroke:#d2d2d2;stroke-dasharray:5,2" points="173,787 270,787 270,628 173,628 173,787"/>
<text text-anchor="middle" x="189" y="640" style="font-family:arial">Item</text>
</g>
<g id="graph7" class="cluster"><title>cluster_9</title>
<polygon style="fill:none;stroke:#d2d2d2;stroke-dasharray:5,2" points="286,1221 1642,1221 1642,433 286,433 286,1221"/>
<text text-anchor="middle" x="355" y="445" style="font-family:arial">Item - Line Interchanges</text>
</g>
<g id="graph8" class="cluster"><title>cluster_11</title>
<polygon style="fill:none;stroke:#d2d2d2;stroke-dasharray:5,2" points="294,1213 840,1213 840,628 294,628 294,1213"/>
<text text-anchor="middle" x="362" y="640" style="font-family:arial">Nest - Line Interchange</text>
</g>
<g id="graph9" class="cluster"><title>cluster_13</title>
<polygon style="fill:none;stroke:#d2d2d2;stroke-dasharray:5,2" points="562,1205 832,1205 832,829 562,829 562,1205"/>
<text text-anchor="middle" x="630" y="841" style="font-family:arial">Nest - Next Stop Back</text>
</g>
<g id="graph10" class="cluster"><title>cluster_15</title>
<polygon style="fill:none;stroke:#d2d2d2;stroke-dasharray:5,2" points="727,1197 824,1197 824,1024 727,1024 727,1197"/>
<text text-anchor="middle" x="743" y="1036" style="font-family:arial">Item</text>
</g>
<g id="graph11" class="cluster"><title>cluster_16</title>
<polygon style="fill:none;stroke:#d2d2d2;stroke-dasharray:5,2" points="302,1205 554,1205 554,829 302,829 302,1205"/>
<text text-anchor="middle" x="354" y="841" style="font-family:arial">Nest - Next Stop</text>
</g>
<g id="graph12" class="cluster"><title>cluster_18</title>
<polygon style="fill:none;stroke:#d2d2d2;stroke-dasharray:5,2" points="310,1197 407,1197 407,1024 310,1024 310,1197"/>
<text text-anchor="middle" x="326" y="1036" style="font-family:arial">Item</text>
</g>
<g id="graph13" class="cluster"><title>cluster_19</title>
<polygon style="fill:none;stroke:#d2d2d2;stroke-dasharray:5,2" points="1314,1109 1634,1109 1634,628 1314,628 1314,1109"/>
<text text-anchor="middle" x="1382" y="640" style="font-family:arial">Nest - Line Interchange</text>
</g>
<g id="graph14" class="cluster"><title>cluster_21</title>
<polygon style="fill:none;stroke:#d2d2d2;stroke-dasharray:5,2" points="1342,1101 1606,1101 1606,829 1342,829 1342,1101"/>
<text text-anchor="middle" x="1394" y="841" style="font-family:arial">Nest - Next Stop</text>
</g>
<g id="graph15" class="cluster"><title>cluster_23</title>
<polygon style="fill:none;stroke:#d2d2d2;stroke-dasharray:5,2" points="1392,1093 1474,1093 1474,1024 1392,1024 1392,1093"/>
<text text-anchor="middle" x="1408" y="1036" style="font-family:arial">Item</text>
</g>
<g id="graph16" class="cluster"><title>cluster_24</title>
<polygon style="fill:none;stroke:#d2d2d2;stroke-dasharray:5,2" points="898,1213 1306,1213 1306,628 898,628 898,1213"/>
<text text-anchor="middle" x="966" y="640" style="font-family:arial">Nest - Line Interchange</text>
</g>
<g id="graph17" class="cluster"><title>cluster_26</title>
<polygon style="fill:none;stroke:#d2d2d2;stroke-dasharray:5,2" points="1036,1205 1298,1205 1298,829 1036,829 1036,1205"/>
<text text-anchor="middle" x="1104" y="841" style="font-family:arial">Nest - Next Stop Back</text>
</g>
<g id="graph18" class="cluster"><title>cluster_28</title>
<polygon style="fill:none;stroke:#d2d2d2;stroke-dasharray:5,2" points="1193,1197 1290,1197 1290,1024 1193,1024 1193,1197"/>
<text text-anchor="middle" x="1209" y="1036" style="font-family:arial">Item</text>
</g>
<g id="graph19" class="cluster"><title>cluster_29</title>
<polygon style="fill:none;stroke:#d2d2d2;stroke-dasharray:5,2" points="906,1101 1028,1101 1028,829 906,829 906,1101"/>
<text text-anchor="middle" x="958" y="841" style="font-family:arial">Nest - Next Stop</text>
</g>
<g id="graph20" class="cluster"><title>cluster_31</title>
<polygon style="fill:none;stroke:#d2d2d2;stroke-dasharray:5,2" points="914,1093 996,1093 996,1024 914,1024 914,1093"/>
<text text-anchor="middle" x="930" y="1036" style="font-family:arial">Item</text>
</g>
<g id="node2" class="node"><title>:_1</title>
<ellipse cx="280" cy="86" rx="40" ry="18" style="fill:#eedb82;stroke:#eedb82"/>
<text text-anchor="middle" x="280" y="90" style="font-family:arial">tube:Station</text>
</g>
<g id="node4" class="node"><title>doi:1014/tube/hammersmith</title>
<a xlink:href="http://dx.doi.org/1014/tube/hammersmith" target="_blank" onmouseover="show_status('http://dx.doi.org/1014/tube/hammersmith');">
<ellipse cx="138" cy="176" rx="81" ry="18" style="fill:#dca0dd;stroke:#dca0dd"/>
<text text-anchor="middle" x="138" y="180" style="font-family:arial">doi:1014/tube/hammersmith</text>
</a></g>
<g id="edge3" class="edge"><title>:_1-&gt;doi:1014/tube/hammersmith</title>
<a xlink:href="http://www2.elsevier.co.uk/~tony/1014/yads-schema-2002-04-03#resource" target="_blank" onmouseover="show_status('http://www2.elsevier.co.uk/~tony/1014/yads-schema-2002-04-03#resource');">
<path style="fill:none;stroke:#add9e6" d="M248,97C231,103 212,112 195,122 183,131 170,142 160,152"/>
<polygon style="fill:#add9e6;stroke:#add9e6" points="159,149 154,158 163,153 159,149"/>
<text text-anchor="middle" x="242" y="135" style="font-family:arial">has:resource</text>
</a></g>
<g id="node6" class="node"><title>node_1</title>
<polygon style="fill:#6497ed;stroke:#6497ed" points="323,158 237,158 237,194 323,194 323,158"/>
<text text-anchor="middle" x="280" y="180" style="font-family:arial">Hammersmith</text>
</g>
<g id="edge5" class="edge"><title>:_1-&gt;node_1</title>
<a xlink:href="http://www2.elsevier.co.uk/~tony/1014/yads-schema-2002-04-03#label" target="_blank" onmouseover="show_status('http://www2.elsevier.co.uk/~tony/1014/yads-schema-2002-04-03#label');">
<path style="fill:none;stroke:#add9e6" d="M280,104C280,117 280,134 280,149"/>
<polygon style="fill:#add9e6;stroke:#add9e6" points="278,148 280,158 283,148 278,148"/>
<text text-anchor="middle" x="307" y="135" style="font-family:arial">has:label</text>
</a></g>
<g id="node8" class="node"><title>:_2</title>
<a xlink:href="http://www.w3.org/1999/02/22-rdf-syntax-ns#Bag" target="_blank" onmouseover="show_status('http://www.w3.org/1999/02/22-rdf-syntax-ns#Bag');">
<ellipse cx="369" cy="176" rx="28" ry="18" style="fill:#d2d2d2;stroke:#d2d2d2"/>
<text text-anchor="middle" x="369" y="180" style="font-family:arial">rdf:Bag</text>
</a></g>
<g id="edge7" class="edge"><title>:_1-&gt;:_2</title>
<a xlink:href="http://www2.elsevier.co.uk/~tony/1014/yads-schema-2002-04-03#collection" target="_blank" onmouseover="show_status('http://www2.elsevier.co.uk/~tony/1014/yads-schema-2002-04-03#collection');">
<path style="fill:none;stroke:#add9e6" d="M308,99C318,105 330,113 339,122 347,130 354,141 358,150"/>
<polygon style="fill:#add9e6;stroke:#add9e6" points="355,150 362,158 360,148 355,150"/>
<text text-anchor="middle" x="394" y="135" style="font-family:arial">has:collection</text>
</a></g>
<g id="node10" class="node"><title>:_3</title>
<ellipse cx="369" cy="281" rx="34" ry="18" style="fill:#eedb82;stroke:#eedb82"/>
<text text-anchor="middle" x="369" y="285" style="font-family:arial">doi:Profile</text>
</g>
<g id="edge9" class="edge"><title>:_2-&gt;:_3</title>
<a xlink:href="http://www.w3.org/1999/02/22-rdf-syntax-ns#_1" target="_blank" onmouseover="show_status('http://www.w3.org/1999/02/22-rdf-syntax-ns#_1');">
<path style="fill:none;stroke:#add9e6" d="M369,194C369,210 369,235 369,254"/>
<polygon style="fill:#add9e6;stroke:#add9e6" points="367,253 369,263 372,253 367,253"/>
<text text-anchor="middle" x="389" y="225" style="font-family:arial">rdf:_1</text>
</a></g>
<g id="node13" class="node"><title>doi:1014/profile.tube</title>
<a xlink:href="http://dx.doi.org/1014/profile.tube" target="_blank" onmouseover="show_status('http://dx.doi.org/1014/profile.tube');">
<ellipse cx="319" cy="371" rx="59" ry="18" style="fill:#dca0dd;stroke:#dca0dd"/>
<text text-anchor="middle" x="319" y="375" style="font-family:arial">doi:1014/profile.tube</text>
</a></g>
<g id="edge12" class="edge"><title>:_3-&gt;doi:1014/profile.tube</title>
<a xlink:href="http://www2.elsevier.co.uk/~tony/1014/yads-schema-2002-04-03#resource" target="_blank" onmouseover="show_status('http://www2.elsevier.co.uk/~tony/1014/yads-schema-2002-04-03#resource');">
<path style="fill:none;stroke:#add9e6" d="M352,297C346,303 340,310 336,317 332,325 328,335 326,344"/>
<polygon style="fill:#add9e6;stroke:#add9e6" points="324,343 323,353 329,344 324,343"/>
<text text-anchor="middle" x="380" y="330" style="font-family:arial">has:resource</text>
</a></g>
<g id="node15" class="node"><title>:_4</title>
<a xlink:href="http://www.w3.org/1999/02/22-rdf-syntax-ns#Bag" target="_blank" onmouseover="show_status('http://www.w3.org/1999/02/22-rdf-syntax-ns#Bag');">
<ellipse cx="424" cy="371" rx="28" ry="18" style="fill:#d2d2d2;stroke:#d2d2d2"/>
<text text-anchor="middle" x="424" y="375" style="font-family:arial">rdf:Bag</text>
</a></g>
<g id="edge14" class="edge"><title>:_3-&gt;:_4</title>
<a xlink:href="http://www2.elsevier.co.uk/~tony/1014/yads-schema-2002-04-03#collection" target="_blank" onmouseover="show_status('http://www2.elsevier.co.uk/~tony/1014/yads-schema-2002-04-03#collection');">
<path style="fill:none;stroke:#add9e6" d="M395,293C405,299 415,307 421,317 425,325 427,335 427,344"/>
<polygon style="fill:#add9e6;stroke:#add9e6" points="425,343 427,353 430,343 425,343"/>
<text text-anchor="middle" x="469" y="330" style="font-family:arial">has:collection</text>
</a></g>
<g id="node17" class="node"><title>:_5</title>
<a xlink:href="http://www2.elsevier.co.uk/~tony/1014/yads-schema-2002-04-03#Item" target="_blank" onmouseover="show_status('http://www2.elsevier.co.uk/~tony/1014/yads-schema-2002-04-03#Item');">
<ellipse cx="216" cy="476" rx="28" ry="18" style="fill:#d2d2d2;stroke:#d2d2d2"/>
<text text-anchor="middle" x="216" y="480" style="font-family:arial">isa:Item</text>
</a></g>
<g id="edge16" class="edge"><title>:_4-&gt;:_5</title>
<a xlink:href="http://www.w3.org/1999/02/22-rdf-syntax-ns#_1" target="_blank" onmouseover="show_status('http://www.w3.org/1999/02/22-rdf-syntax-ns#_1');">
<path style="fill:none;stroke:#add9e6" d="M402,382C397,385 392,387 387,389 341,410 327,410 282,433 269,440 254,450 242,458"/>
<polygon style="fill:#add9e6;stroke:#add9e6" points="242,455 235,463 245,459 242,455"/>
<text text-anchor="middle" x="370" y="420" style="font-family:arial">rdf:_1</text>
</a></g>
<g id="node19" class="node"><title>:_9</title>
<a xlink:href="http://www2.elsevier.co.uk/~tony/1014/yads-schema-2002-04-03#Item" target="_blank" onmouseover="show_status('http://www2.elsevier.co.uk/~tony/1014/yads-schema-2002-04-03#Item');">
<ellipse cx="515" cy="476" rx="28" ry="18" style="fill:#d2d2d2;stroke:#d2d2d2"/>
<text text-anchor="middle" x="515" y="480" style="font-family:arial">isa:Item</text>
</a></g>
<g id="edge18" class="edge"><title>:_4-&gt;:_9</title>
<a xlink:href="http://www.w3.org/1999/02/22-rdf-syntax-ns#_2" target="_blank" onmouseover="show_status('http://www.w3.org/1999/02/22-rdf-syntax-ns#_2');">
<path style="fill:none;stroke:#add9e6" d="M438,387C453,405 478,433 495,453"/>
<polygon style="fill:#add9e6;stroke:#add9e6" points="493,454 501,460 496,451 493,454"/>
<text text-anchor="middle" x="491" y="420" style="font-family:arial">rdf:_2</text>
</a></g>
<g id="node22" class="node"><title>:_6</title>
<a xlink:href="http://www.w3.org/1999/02/22-rdf-syntax-ns#Bag" target="_blank" onmouseover="show_status('http://www.w3.org/1999/02/22-rdf-syntax-ns#Bag');">
<ellipse cx="189" cy="566" rx="28" ry="18" style="fill:#d2d2d2;stroke:#d2d2d2"/>
<text text-anchor="middle" x="189" y="570" style="font-family:arial">rdf:Bag</text>
</a></g>
<g id="edge21" class="edge"><title>:_5-&gt;:_6</title>
<a xlink:href="http://www2.elsevier.co.uk/~tony/1014/yads-schema-2002-04-03#collection" target="_blank" onmouseover="show_status('http://www2.elsevier.co.uk/~tony/1014/yads-schema-2002-04-03#collection');">
<path style="fill:none;stroke:#add9e6" d="M208,494C206,499 203,506 201,512 198,521 196,530 194,539"/>
<polygon style="fill:#add9e6;stroke:#add9e6" points="192,538 192,548 197,539 192,538"/>
<text text-anchor="middle" x="245" y="525" style="font-family:arial">has:collection</text>
</a></g>
<g id="node35" class="node"><title>:_10</title>
<a xlink:href="http://www.w3.org/1999/02/22-rdf-syntax-ns#Bag" target="_blank" onmouseover="show_status('http://www.w3.org/1999/02/22-rdf-syntax-ns#Bag');">
<ellipse cx="779" cy="566" rx="28" ry="18" style="fill:#d2d2d2;stroke:#d2d2d2"/>
<text text-anchor="middle" x="779" y="570" style="font-family:arial">rdf:Bag</text>
</a></g>
<g id="edge34" class="edge"><title>:_9-&gt;:_10</title>
<a xlink:href="http://www2.elsevier.co.uk/~tony/1014/yads-schema-2002-04-03#collection" target="_blank" onmouseover="show_status('http://www2.elsevier.co.uk/~tony/1014/yads-schema-2002-04-03#collection');">
<path style="fill:none;stroke:#add9e6" d="M540,484C589,501 694,537 747,555"/>
<polygon style="fill:#add9e6;stroke:#add9e6" points="744,556 754,558 746,552 744,556"/>
<text text-anchor="middle" x="712" y="525" style="font-family:arial">has:collection</text>
</a></g>
<g id="node24" class="node"><title>:_7</title>
<ellipse cx="104" cy="671" rx="35" ry="18" style="fill:#eedb82;stroke:#eedb82"/>
<text text-anchor="middle" x="104" y="675" style="font-family:arial">tube:Zone</text>
</g>
<g id="edge23" class="edge"><title>:_6-&gt;:_7</title>
<a xlink:href="http://www.w3.org/1999/02/22-rdf-syntax-ns#_1" target="_blank" onmouseover="show_status('http://www.w3.org/1999/02/22-rdf-syntax-ns#_1');">
<path style="fill:none;stroke:#add9e6" d="M173,581C167,588 160,595 154,602 142,616 130,633 121,647"/>
<polygon style="fill:#add9e6;stroke:#add9e6" points="120,644 116,654 124,647 120,644"/>
<text text-anchor="middle" x="177" y="615" style="font-family:arial">rdf:_1</text>
</a></g>
<g id="node26" class="node"><title>:_8</title>
<ellipse cx="213" cy="671" rx="32" ry="18" style="fill:#eedb82;stroke:#eedb82"/>
<text text-anchor="middle" x="213" y="675" style="font-family:arial">tube:Grid</text>
</g>
<g id="edge25" class="edge"><title>:_6-&gt;:_8</title>
<a xlink:href="http://www.w3.org/1999/02/22-rdf-syntax-ns#_2" target="_blank" onmouseover="show_status('http://www.w3.org/1999/02/22-rdf-syntax-ns#_2');">
<path style="fill:none;stroke:#add9e6" d="M193,584C196,600 202,625 207,644"/>
<polygon style="fill:#add9e6;stroke:#add9e6" points="204,644 209,653 209,643 204,644"/>
<text text-anchor="middle" x="222" y="615" style="font-family:arial">rdf:_2</text>
</a></g>
<g id="node29" class="node"><title>data:,Zone%202</title>
<a xlink:href="" onclick="show_data('Zone%202');" onmouseover="show_status('data:,Zone%202');">
<ellipse cx="104" cy="761" rx="53" ry="18" style="fill:#dca0dd;stroke:#dca0dd"/>
<text text-anchor="middle" x="104" y="765" style="font-family:arial">data:,Zone%202</text>
</a></g>
<g id="edge28" class="edge"><title>:_7-&gt;data:,Zone%202</title>
<a xlink:href="http://www2.elsevier.co.uk/~tony/1014/yads-schema-2002-04-03#resource" target="_blank" onmouseover="show_status('http://www2.elsevier.co.uk/~tony/1014/yads-schema-2002-04-03#resource');">
<path style="fill:none;stroke:#add9e6" d="M95,689C92,694 89,701 88,707 87,715 87,718 88,725 88,728 89,731 90,734"/>
<polygon style="fill:#add9e6;stroke:#add9e6" points="88,735 94,743 92,733 88,735"/>
<text text-anchor="middle" x="132" y="720" style="font-family:arial">has:resource</text>
</a></g>
<g id="node32" class="node"><title>data:,D3</title>
<a xlink:href="" onclick="show_data('D3');" onmouseover="show_status('data:,D3');">
<ellipse cx="211" cy="761" rx="30" ry="18" style="fill:#dca0dd;stroke:#dca0dd"/>
<text text-anchor="middle" x="211" y="765" style="font-family:arial">data:,D3</text>
</a></g>
<g id="edge31" class="edge"><title>:_8-&gt;data:,D3</title>
<a xlink:href="http://www2.elsevier.co.uk/~tony/1014/yads-schema-2002-04-03#resource" target="_blank" onmouseover="show_status('http://www2.elsevier.co.uk/~tony/1014/yads-schema-2002-04-03#resource');">
<path style="fill:none;stroke:#add9e6" d="M211,689C210,695 209,701 209,707 208,716 209,725 209,733"/>
<polygon style="fill:#add9e6;stroke:#add9e6" points="207,733 210,743 211,733 207,733"/>
<text text-anchor="middle" x="253" y="720" style="font-family:arial">has:resource</text>
</a></g>
<g id="node37" class="node"><title>:_11</title>
<ellipse cx="691" cy="671" rx="53" ry="18" style="fill:#eedb82;stroke:#eedb82"/>
<text text-anchor="middle" x="691" y="675" style="font-family:arial">tube:LineChange</text>
</g>
<g id="edge36" class="edge"><title>:_10-&gt;:_11</title>
<a xlink:href="http://www.w3.org/1999/02/22-rdf-syntax-ns#_1" target="_blank" onmouseover="show_status('http://www.w3.org/1999/02/22-rdf-syntax-ns#_1');">
<path style="fill:none;stroke:#add9e6" d="M766,582C752,599 728,626 712,646"/>
<polygon style="fill:#add9e6;stroke:#add9e6" points="711,644 706,653 714,647 711,644"/>
<text text-anchor="middle" x="769" y="615" style="font-family:arial">rdf:_1</text>
</a></g>
<g id="node39" class="node"><title>:_19</title>
<ellipse cx="1437" cy="671" rx="53" ry="18" style="fill:#eedb82;stroke:#eedb82"/>
<text text-anchor="middle" x="1437" y="675" style="font-family:arial">tube:LineChange</text>
</g>
<g id="edge38" class="edge"><title>:_10-&gt;:_19</title>
<a xlink:href="http://www.w3.org/1999/02/22-rdf-syntax-ns#_2" target="_blank" onmouseover="show_status('http://www.w3.org/1999/02/22-rdf-syntax-ns#_2');">
<path style="fill:none;stroke:#add9e6" d="M807,567C887,571 1121,586 1310,628 1339,635 1370,646 1394,654"/>
<polygon style="fill:#add9e6;stroke:#add9e6" points="1392,656 1402,657 1394,651 1392,656"/>
<text text-anchor="middle" x="1289" y="615" style="font-family:arial">rdf:_2</text>
</a></g>
<g id="node41" class="node"><title>:_24</title>
<ellipse cx="985" cy="671" rx="53" ry="18" style="fill:#eedb82;stroke:#eedb82"/>
<text text-anchor="middle" x="985" y="675" style="font-family:arial">tube:LineChange</text>
</g>
<g id="edge40" class="edge"><title>:_10-&gt;:_24</title>
<a xlink:href="http://www.w3.org/1999/02/22-rdf-syntax-ns#_3" target="_blank" onmouseover="show_status('http://www.w3.org/1999/02/22-rdf-syntax-ns#_3');">
<path style="fill:none;stroke:#add9e6" d="M801,577C836,595 904,630 946,652"/>
<polygon style="fill:#add9e6;stroke:#add9e6" points="945,654 955,656 947,650 945,654"/>
<text text-anchor="middle" x="905" y="615" style="font-family:arial">rdf:_3</text>
</a></g>
<g id="node44" class="node"><title>doi:1014/tube/district_line</title>
<a xlink:href="http://dx.doi.org/1014/tube/district_line" target="_blank" onmouseover="show_status('http://dx.doi.org/1014/tube/district_line');">
<ellipse cx="572" cy="761" rx="73" ry="18" style="fill:#dca0dd;stroke:#dca0dd"/>
<text text-anchor="middle" x="572" y="765" style="font-family:arial">doi:1014/tube/district_line</text>
</a></g>
<g id="edge43" class="edge"><title>:_11-&gt;doi:1014/tube/district_line</title>
<a xlink:href="http://www2.elsevier.co.uk/~tony/1014/yads-schema-2002-04-03#resource" target="_blank" onmouseover="show_status('http://www2.elsevier.co.uk/~tony/1014/yads-schema-2002-04-03#resource');">
<path style="fill:none;stroke:#add9e6" d="M650,683C635,689 619,696 606,707 597,715 590,725 584,735"/>
<polygon style="fill:#add9e6;stroke:#add9e6" points="582,733 580,743 587,735 582,733"/>
<text text-anchor="middle" x="653" y="720" style="font-family:arial">has:resource</text>
</a></g>
<g id="node46" class="node"><title>:_12</title>
<a xlink:href="http://www.w3.org/1999/02/22-rdf-syntax-ns#Bag" target="_blank" onmouseover="show_status('http://www.w3.org/1999/02/22-rdf-syntax-ns#Bag');">
<ellipse cx="691" cy="761" rx="28" ry="18" style="fill:#d2d2d2;stroke:#d2d2d2"/>
<text text-anchor="middle" x="691" y="765" style="font-family:arial">rdf:Bag</text>
</a></g>
<g id="edge45" class="edge"><title>:_11-&gt;:_12</title>
<a xlink:href="http://www2.elsevier.co.uk/~tony/1014/yads-schema-2002-04-03#collection" target="_blank" onmouseover="show_status('http://www2.elsevier.co.uk/~tony/1014/yads-schema-2002-04-03#collection');">
<path style="fill:none;stroke:#add9e6" d="M691,689C691,702 691,719 691,734"/>
<polygon style="fill:#add9e6;stroke:#add9e6" points="689,733 691,743 694,733 689,733"/>
<text text-anchor="middle" x="732" y="720" style="font-family:arial">has:collection</text>
</a></g>
<g id="node73" class="node"><title>doi:1014/tube/hammersmith_&amp;_c...e</title>
<a xlink:href="http://dx.doi.org/1014/tube/hammersmith_&amp;_city_line" target="_blank" onmouseover="show_status('http://dx.doi.org/1014/tube/hammersmith_&amp;_city_line');">
<ellipse cx="1437" cy="761" rx="115" ry="18" style="fill:#dca0dd;stroke:#dca0dd"/>
<text text-anchor="middle" x="1437" y="765" style="font-family:arial">doi:1014/tube/hammersmith_&amp;_c...e</text>
</a></g>
<g id="edge72" class="edge"><title>:_19-&gt;doi:1014/tube/hammersmith_&amp;_c...e</title>
<a xlink:href="http://www2.elsevier.co.uk/~tony/1014/yads-schema-2002-04-03#resource" target="_blank" onmouseover="show_status('http://www2.elsevier.co.uk/~tony/1014/yads-schema-2002-04-03#resource');">
<path style="fill:none;stroke:#add9e6" d="M1437,689C1437,702 1437,719 1437,734"/>
<polygon style="fill:#add9e6;stroke:#add9e6" points="1435,733 1437,743 1440,733 1435,733"/>
<text text-anchor="middle" x="1478" y="720" style="font-family:arial">has:resource</text>
</a></g>
<g id="node75" class="node"><title>:_20</title>
<a xlink:href="http://www.w3.org/1999/02/22-rdf-syntax-ns#Bag" target="_blank" onmouseover="show_status('http://www.w3.org/1999/02/22-rdf-syntax-ns#Bag');">
<ellipse cx="1598" cy="761" rx="28" ry="18" style="fill:#d2d2d2;stroke:#d2d2d2"/>
<text text-anchor="middle" x="1598" y="765" style="font-family:arial">rdf:Bag</text>
</a></g>
<g id="edge74" class="edge"><title>:_19-&gt;:_20</title>
<a xlink:href="http://www2.elsevier.co.uk/~tony/1014/yads-schema-2002-04-03#collection" target="_blank" onmouseover="show_status('http://www2.elsevier.co.uk/~tony/1014/yads-schema-2002-04-03#collection');">
<path style="fill:none;stroke:#add9e6" d="M1473,684C1489,691 1507,698 1522,707 1533,714 1534,718 1545,725 1553,731 1562,737 1570,743"/>
<polygon style="fill:#add9e6;stroke:#add9e6" points="1568,745 1578,748 1571,741 1568,745"/>
<text text-anchor="middle" x="1586" y="720" style="font-family:arial">has:collection</text>
</a></g>
<g id="node89" class="node"><title>doi:1014/tube/piccadilly_line</title>
<a xlink:href="http://dx.doi.org/1014/tube/piccadilly_line" target="_blank" onmouseover="show_status('http://dx.doi.org/1014/tube/piccadilly_line');">
<ellipse cx="985" cy="761" rx="79" ry="18" style="fill:#dca0dd;stroke:#dca0dd"/>
<text text-anchor="middle" x="985" y="765" style="font-family:arial">doi:1014/tube/piccadilly_line</text>
</a></g>
<g id="edge89" class="edge"><title>:_24-&gt;doi:1014/tube/piccadilly_line</title>
<a xlink:href="http://www2.elsevier.co.uk/~tony/1014/yads-schema-2002-04-03#resource" target="_blank" onmouseover="show_status('http://www2.elsevier.co.uk/~tony/1014/yads-schema-2002-04-03#resource');">
<path style="fill:none;stroke:#add9e6" d="M985,689C985,702 985,719 985,734"/>
<polygon style="fill:#add9e6;stroke:#add9e6" points="983,733 985,743 988,733 983,733"/>
<text text-anchor="middle" x="1026" y="720" style="font-family:arial">has:resource</text>
</a></g>
<g id="node91" class="node"><title>:_25</title>
<a xlink:href="http://www.w3.org/1999/02/22-rdf-syntax-ns#Bag" target="_blank" onmouseover="show_status('http://www.w3.org/1999/02/22-rdf-syntax-ns#Bag');">
<ellipse cx="1110" cy="761" rx="28" ry="18" style="fill:#d2d2d2;stroke:#d2d2d2"/>
<text text-anchor="middle" x="1110" y="765" style="font-family:arial">rdf:Bag</text>
</a></g>
<g id="edge91" class="edge"><title>:_24-&gt;:_25</title>
<a xlink:href="http://www2.elsevier.co.uk/~tony/1014/yads-schema-2002-04-03#collection" target="_blank" onmouseover="show_status('http://www2.elsevier.co.uk/~tony/1014/yads-schema-2002-04-03#collection');">
<path style="fill:none;stroke:#add9e6" d="M1025,683C1040,689 1057,697 1070,707 1080,715 1089,726 1096,736"/>
<polygon style="fill:#add9e6;stroke:#add9e6" points="1094,737 1101,744 1098,734 1094,737"/>
<text text-anchor="middle" x="1129" y="720" style="font-family:arial">has:collection</text>
</a></g>
<g id="node48" class="node"><title>:_13</title>
<ellipse cx="691" cy="872" rx="53" ry="18" style="fill:#eedb82;stroke:#eedb82"/>
<text text-anchor="middle" x="691" y="876" style="font-family:arial">tube:PrevStation</text>
</g>
<g id="edge47" class="edge"><title>:_12-&gt;:_13</title>
<a xlink:href="http://www.w3.org/1999/02/22-rdf-syntax-ns#_1" target="_blank" onmouseover="show_status('http://www.w3.org/1999/02/22-rdf-syntax-ns#_1');">
<path style="fill:none;stroke:#add9e6" d="M691,779C691,797 691,824 691,845"/>
<polygon style="fill:#add9e6;stroke:#add9e6" points="689,844 691,854 694,844 689,844"/>
<text text-anchor="middle" x="711" y="816" style="font-family:arial">rdf:_1</text>
</a></g>
<g id="node50" class="node"><title>:_16</title>
<ellipse cx="465" cy="872" rx="53" ry="18" style="fill:#eedb82;stroke:#eedb82"/>
<text text-anchor="middle" x="465" y="876" style="font-family:arial">tube:NextStation</text>
</g>
<g id="edge49" class="edge"><title>:_12-&gt;:_16</title>
<a xlink:href="http://www.w3.org/1999/02/22-rdf-syntax-ns#_2" target="_blank" onmouseover="show_status('http://www.w3.org/1999/02/22-rdf-syntax-ns#_2');">
<path style="fill:none;stroke:#add9e6" d="M677,777C671,783 663,790 654,795 616,819 600,812 558,829 540,837 521,846 504,853"/>
<polygon style="fill:#add9e6;stroke:#add9e6" points="504,850 496,857 506,855 504,850"/>
<text text-anchor="middle" x="666" y="816" style="font-family:arial">rdf:_2</text>
</a></g>
<g id="node53" class="node"><title>doi:1014/tube/ravenscourt_par</title>
<a xlink:href="http://dx.doi.org/1014/tube/ravenscourt_park" target="_blank" onmouseover="show_status('http://dx.doi.org/1014/tube/ravenscourt_park');">
<ellipse cx="660" cy="962" rx="90" ry="18" style="fill:#dca0dd;stroke:#dca0dd"/>
<text text-anchor="middle" x="660" y="966" style="font-family:arial">doi:1014/tube/ravenscourt_par</text>
</a></g>
<g id="edge52" class="edge"><title>:_13-&gt;doi:1014/tube/ravenscourt_par</title>
<a xlink:href="http://www2.elsevier.co.uk/~tony/1014/yads-schema-2002-04-03#resource" target="_blank" onmouseover="show_status('http://www2.elsevier.co.uk/~tony/1014/yads-schema-2002-04-03#resource');">
<path style="fill:none;stroke:#add9e6" d="M670,889C664,894 659,901 656,908 652,916 652,926 653,935"/>
<polygon style="fill:#add9e6;stroke:#add9e6" points="650,935 655,944 655,934 650,935"/>
<text text-anchor="middle" x="700" y="921" style="font-family:arial">has:resource</text>
</a></g>
<g id="node55" class="node"><title>:_14</title>
<a xlink:href="http://www.w3.org/1999/02/22-rdf-syntax-ns#Bag" target="_blank" onmouseover="show_status('http://www.w3.org/1999/02/22-rdf-syntax-ns#Bag');">
<ellipse cx="796" cy="962" rx="28" ry="18" style="fill:#d2d2d2;stroke:#d2d2d2"/>
<text text-anchor="middle" x="796" y="966" style="font-family:arial">rdf:Bag</text>
</a></g>
<g id="edge54" class="edge"><title>:_13-&gt;:_14</title>
<a xlink:href="http://www2.elsevier.co.uk/~tony/1014/yads-schema-2002-04-03#collection" target="_blank" onmouseover="show_status('http://www2.elsevier.co.uk/~tony/1014/yads-schema-2002-04-03#collection');">
<path style="fill:none;stroke:#add9e6" d="M716,888C725,894 734,901 741,908 749,916 749,919 755,926 760,931 766,937 771,941"/>
<polygon style="fill:#add9e6;stroke:#add9e6" points="769,943 778,948 773,939 769,943"/>
<text text-anchor="middle" x="796" y="921" style="font-family:arial">has:collection</text>
</a></g>
<g id="node63" class="node"><title>doi:1014/tube/barons_court</title>
<a xlink:href="http://dx.doi.org/1014/tube/barons_court" target="_blank" onmouseover="show_status('http://dx.doi.org/1014/tube/barons_court');">
<ellipse cx="465" cy="962" rx="81" ry="18" style="fill:#dca0dd;stroke:#dca0dd"/>
<text text-anchor="middle" x="465" y="966" style="font-family:arial">doi:1014/tube/barons_court</text>
</a></g>
<g id="edge62" class="edge"><title>:_16-&gt;doi:1014/tube/barons_court</title>
<a xlink:href="http://www2.elsevier.co.uk/~tony/1014/yads-schema-2002-04-03#resource" target="_blank" onmouseover="show_status('http://www2.elsevier.co.uk/~tony/1014/yads-schema-2002-04-03#resource');">
<path style="fill:none;stroke:#add9e6" d="M465,890C465,903 465,920 465,935"/>
<polygon style="fill:#add9e6;stroke:#add9e6" points="463,934 465,944 468,934 463,934"/>
<text text-anchor="middle" x="506" y="921" style="font-family:arial">has:resource</text>
</a></g>
<g id="node65" class="node"><title>:_17</title>
<a xlink:href="http://www.w3.org/1999/02/22-rdf-syntax-ns#Bag" target="_blank" onmouseover="show_status('http://www.w3.org/1999/02/22-rdf-syntax-ns#Bag');">
<ellipse cx="338" cy="962" rx="28" ry="18" style="fill:#d2d2d2;stroke:#d2d2d2"/>
<text text-anchor="middle" x="338" y="966" style="font-family:arial">rdf:Bag</text>
</a></g>
<g id="edge64" class="edge"><title>:_16-&gt;:_17</title>
<a xlink:href="http://www2.elsevier.co.uk/~tony/1014/yads-schema-2002-04-03#collection" target="_blank" onmouseover="show_status('http://www2.elsevier.co.uk/~tony/1014/yads-schema-2002-04-03#collection');">
<path style="fill:none;stroke:#add9e6" d="M426,884C411,890 394,898 380,908 370,916 361,927 353,937"/>
<polygon style="fill:#add9e6;stroke:#add9e6" points="351,935 348,945 355,938 351,935"/>
<text text-anchor="middle" x="427" y="921" style="font-family:arial">has:collection</text>
</a></g>
<g id="node57" class="node"><title>:_15</title>
<ellipse cx="772" cy="1067" rx="33" ry="18" style="fill:#eedb82;stroke:#eedb82"/>
<text text-anchor="middle" x="772" y="1071" style="font-family:arial">tube:Mins</text>
</g>
<g id="edge56" class="edge"><title>:_14-&gt;:_15</title>
<a xlink:href="http://www.w3.org/1999/02/22-rdf-syntax-ns#_1" target="_blank" onmouseover="show_status('http://www.w3.org/1999/02/22-rdf-syntax-ns#_1');">
<path style="fill:none;stroke:#add9e6" d="M792,980C789,996 783,1021 778,1040"/>
<polygon style="fill:#add9e6;stroke:#add9e6" points="776,1039 776,1049 781,1040 776,1039"/>
<text text-anchor="middle" x="809" y="1011" style="font-family:arial">rdf:_1</text>
</a></g>
<g id="node60" class="node"><title>data:,2</title>
<a xlink:href="" onclick="show_data('2');" onmouseover="show_status('data:,2');">
<ellipse cx="789" cy="1171" rx="27" ry="18" style="fill:#dca0dd;stroke:#dca0dd"/>
<text text-anchor="middle" x="789" y="1175" style="font-family:arial">data:,2</text>
</a></g>
<g id="edge59" class="edge"><title>:_15-&gt;data:,2</title>
<a xlink:href="http://www2.elsevier.co.uk/~tony/1014/yads-schema-2002-04-03#resource" target="_blank" onmouseover="show_status('http://www2.elsevier.co.uk/~tony/1014/yads-schema-2002-04-03#resource');">
<path style="fill:none;stroke:#add9e6" d="M775,1085C778,1101 782,1126 785,1144"/>
<polygon style="fill:#add9e6;stroke:#add9e6" points="782,1143 786,1153 787,1143 782,1143"/>
<text text-anchor="middle" x="825" y="1130" style="font-family:arial">has:resource</text>
</a></g>
<g id="node67" class="node"><title>:_18</title>
<ellipse cx="351" cy="1067" rx="33" ry="18" style="fill:#eedb82;stroke:#eedb82"/>
<text text-anchor="middle" x="351" y="1071" style="font-family:arial">tube:Mins</text>
</g>
<g id="edge66" class="edge"><title>:_17-&gt;:_18</title>
<a xlink:href="http://www.w3.org/1999/02/22-rdf-syntax-ns#_1" target="_blank" onmouseover="show_status('http://www.w3.org/1999/02/22-rdf-syntax-ns#_1');">
<path style="fill:none;stroke:#add9e6" d="M340,980C343,996 345,1021 348,1040"/>
<polygon style="fill:#add9e6;stroke:#add9e6" points="345,1039 349,1049 350,1039 345,1039"/>
<text text-anchor="middle" x="365" y="1011" style="font-family:arial">rdf:_1</text>
</a></g>
<g id="node70" class="node"><title>data:,1</title>
<a xlink:href="" onclick="show_data('1');" onmouseover="show_status('data:,1');">
<ellipse cx="345" cy="1171" rx="27" ry="18" style="fill:#dca0dd;stroke:#dca0dd"/>
<text text-anchor="middle" x="345" y="1175" style="font-family:arial">data:,1</text>
</a></g>
<g id="edge69" class="edge"><title>:_18-&gt;data:,1</title>
<a xlink:href="http://www2.elsevier.co.uk/~tony/1014/yads-schema-2002-04-03#resource" target="_blank" onmouseover="show_status('http://www2.elsevier.co.uk/~tony/1014/yads-schema-2002-04-03#resource');">
<path style="fill:none;stroke:#add9e6" d="M350,1085C349,1101 348,1125 346,1144"/>
<polygon style="fill:#add9e6;stroke:#add9e6" points="344,1143 346,1153 349,1143 344,1143"/>
<text text-anchor="middle" x="390" y="1130" style="font-family:arial">has:resource</text>
</a></g>
<g id="node77" class="node"><title>:_21</title>
<ellipse cx="1517" cy="872" rx="53" ry="18" style="fill:#eedb82;stroke:#eedb82"/>
<text text-anchor="middle" x="1517" y="876" style="font-family:arial">tube:NextStation</text>
</g>
<g id="edge76" class="edge"><title>:_20-&gt;:_21</title>
<a xlink:href="http://www.w3.org/1999/02/22-rdf-syntax-ns#_1" target="_blank" onmouseover="show_status('http://www.w3.org/1999/02/22-rdf-syntax-ns#_1');">
<path style="fill:none;stroke:#add9e6" d="M1586,777C1573,796 1550,826 1535,847"/>
<polygon style="fill:#add9e6;stroke:#add9e6" points="1534,844 1530,854 1538,847 1534,844"/>
<text text-anchor="middle" x="1586" y="816" style="font-family:arial">rdf:_1</text>
</a></g>
<g id="node80" class="node"><title>doi:1014/tube/goldhawk_road</title>
<a xlink:href="http://dx.doi.org/1014/tube/goldhawk_road" target="_blank" onmouseover="show_status('http://dx.doi.org/1014/tube/goldhawk_road');">
<ellipse cx="1437" cy="962" rx="87" ry="18" style="fill:#dca0dd;stroke:#dca0dd"/>
<text text-anchor="middle" x="1437" y="966" style="font-family:arial">doi:1014/tube/goldhawk_road</text>
</a></g>
<g id="edge79" class="edge"><title>:_21-&gt;doi:1014/tube/goldhawk_road</title>
<a xlink:href="http://www2.elsevier.co.uk/~tony/1014/yads-schema-2002-04-03#resource" target="_blank" onmouseover="show_status('http://www2.elsevier.co.uk/~tony/1014/yads-schema-2002-04-03#resource');">
<path style="fill:none;stroke:#add9e6" d="M1479,885C1467,890 1456,898 1448,908 1442,915 1439,926 1438,935"/>
<polygon style="fill:#add9e6;stroke:#add9e6" points="1436,934 1437,944 1441,934 1436,934"/>
<text text-anchor="middle" x="1489" y="921" style="font-family:arial">has:resource</text>
</a></g>
<g id="node82" class="node"><title>:_22</title>
<a xlink:href="http://www.w3.org/1999/02/22-rdf-syntax-ns#Bag" target="_blank" onmouseover="show_status('http://www.w3.org/1999/02/22-rdf-syntax-ns#Bag');">
<ellipse cx="1570" cy="962" rx="28" ry="18" style="fill:#d2d2d2;stroke:#d2d2d2"/>
<text text-anchor="middle" x="1570" y="966" style="font-family:arial">rdf:Bag</text>
</a></g>
<g id="edge81" class="edge"><title>:_21-&gt;:_22</title>
<a xlink:href="http://www2.elsevier.co.uk/~tony/1014/yads-schema-2002-04-03#collection" target="_blank" onmouseover="show_status('http://www2.elsevier.co.uk/~tony/1014/yads-schema-2002-04-03#collection');">
<path style="fill:none;stroke:#add9e6" d="M1526,890C1531,901 1538,914 1545,926 1547,930 1550,934 1553,938"/>
<polygon style="fill:#add9e6;stroke:#add9e6" points="1551,939 1558,946 1555,936 1551,939"/>
<text text-anchor="middle" x="1586" y="921" style="font-family:arial">has:collection</text>
</a></g>
<g id="node84" class="node"><title>:_23</title>
<ellipse cx="1433" cy="1067" rx="33" ry="18" style="fill:#eedb82;stroke:#eedb82"/>
<text text-anchor="middle" x="1433" y="1071" style="font-family:arial">tube:Mins</text>
</g>
<g id="edge83" class="edge"><title>:_22-&gt;:_23</title>
<a xlink:href="http://www.w3.org/1999/02/22-rdf-syntax-ns#_1" target="_blank" onmouseover="show_status('http://www.w3.org/1999/02/22-rdf-syntax-ns#_1');">
<path style="fill:none;stroke:#add9e6" d="M1552,976C1529,994 1488,1025 1461,1046"/>
<polygon style="fill:#add9e6;stroke:#add9e6" points="1460,1044 1453,1052 1462,1048 1460,1044"/>
<text text-anchor="middle" x="1541" y="1011" style="font-family:arial">rdf:_1</text>
</a></g>
<g id="edge86" class="edge"><title>:_23-&gt;data:,2</title>
<a xlink:href="http://www2.elsevier.co.uk/~tony/1014/yads-schema-2002-04-03#resource" target="_blank" onmouseover="show_status('http://www2.elsevier.co.uk/~tony/1014/yads-schema-2002-04-03#resource');">
<path style="fill:none;stroke:#add9e6" d="M1412,1081C1385,1097 1338,1124 1294,1135 1206,1159 924,1168 825,1170"/>
<polygon style="fill:#add9e6;stroke:#add9e6" points="826,1167 816,1170 826,1172 826,1167"/>
<text text-anchor="middle" x="1391" y="1130" style="font-family:arial">has:resource</text>
</a></g>
<g id="node93" class="node"><title>:_26</title>
<ellipse cx="1110" cy="872" rx="53" ry="18" style="fill:#eedb82;stroke:#eedb82"/>
<text text-anchor="middle" x="1110" y="876" style="font-family:arial">tube:PrevStation</text>
</g>
<g id="edge93" class="edge"><title>:_25-&gt;:_26</title>
<a xlink:href="http://www.w3.org/1999/02/22-rdf-syntax-ns#_1" target="_blank" onmouseover="show_status('http://www.w3.org/1999/02/22-rdf-syntax-ns#_1');">
<path style="fill:none;stroke:#add9e6" d="M1110,779C1110,797 1110,824 1110,845"/>
<polygon style="fill:#add9e6;stroke:#add9e6" points="1108,844 1110,854 1113,844 1108,844"/>
<text text-anchor="middle" x="1130" y="816" style="font-family:arial">rdf:_1</text>
</a></g>
<g id="node95" class="node"><title>:_29</title>
<ellipse cx="967" cy="872" rx="53" ry="18" style="fill:#eedb82;stroke:#eedb82"/>
<text text-anchor="middle" x="967" y="876" style="font-family:arial">tube:NextStation</text>
</g>
<g id="edge95" class="edge"><title>:_25-&gt;:_29</title>
<a xlink:href="http://www.w3.org/1999/02/22-rdf-syntax-ns#_2" target="_blank" onmouseover="show_status('http://www.w3.org/1999/02/22-rdf-syntax-ns#_2');">
<path style="fill:none;stroke:#add9e6" d="M1094,776C1088,782 1080,789 1073,795 1059,807 1022,833 996,852"/>
<polygon style="fill:#add9e6;stroke:#add9e6" points="997,848 990,856 1000,853 997,848"/>
<text text-anchor="middle" x="1089" y="816" style="font-family:arial">rdf:_2</text>
</a></g>
<g id="node98" class="node"><title>doi:1014/tube/turnham_green</title>
<a xlink:href="http://dx.doi.org/1014/tube/turnham_green" target="_blank" onmouseover="show_status('http://dx.doi.org/1014/tube/turnham_green');">
<ellipse cx="1130" cy="962" rx="86" ry="18" style="fill:#dca0dd;stroke:#dca0dd"/>
<text text-anchor="middle" x="1130" y="966" style="font-family:arial">doi:1014/tube/turnham_green</text>
</a></g>
<g id="edge98" class="edge"><title>:_26-&gt;doi:1014/tube/turnham_green</title>
<a xlink:href="http://www2.elsevier.co.uk/~tony/1014/yads-schema-2002-04-03#resource" target="_blank" onmouseover="show_status('http://www2.elsevier.co.uk/~tony/1014/yads-schema-2002-04-03#resource');">
<path style="fill:none;stroke:#add9e6" d="M1114,890C1117,903 1121,920 1124,935"/>
<polygon style="fill:#add9e6;stroke:#add9e6" points="1121,935 1126,944 1126,934 1121,935"/>
<text text-anchor="middle" x="1164" y="921" style="font-family:arial">has:resource</text>
</a></g>
<g id="node100" class="node"><title>:_27</title>
<a xlink:href="http://www.w3.org/1999/02/22-rdf-syntax-ns#Bag" target="_blank" onmouseover="show_status('http://www.w3.org/1999/02/22-rdf-syntax-ns#Bag');">
<ellipse cx="1262" cy="962" rx="28" ry="18" style="fill:#d2d2d2;stroke:#d2d2d2"/>
<text text-anchor="middle" x="1262" y="966" style="font-family:arial">rdf:Bag</text>
</a></g>
<g id="edge100" class="edge"><title>:_26-&gt;:_27</title>
<a xlink:href="http://www2.elsevier.co.uk/~tony/1014/yads-schema-2002-04-03#collection" target="_blank" onmouseover="show_status('http://www2.elsevier.co.uk/~tony/1014/yads-schema-2002-04-03#collection');">
<path style="fill:none;stroke:#add9e6" d="M1151,883C1170,889 1191,897 1208,908 1221,917 1234,929 1243,939"/>
<polygon style="fill:#add9e6;stroke:#add9e6" points="1241,940 1249,946 1244,937 1241,940"/>
<text text-anchor="middle" x="1272" y="921" style="font-family:arial">has:collection</text>
</a></g>
<g id="edge108" class="edge"><title>:_29-&gt;doi:1014/tube/barons_court</title>
<a xlink:href="http://www2.elsevier.co.uk/~tony/1014/yads-schema-2002-04-03#resource" target="_blank" onmouseover="show_status('http://www2.elsevier.co.uk/~tony/1014/yads-schema-2002-04-03#resource');">
<path style="fill:none;stroke:#add9e6" d="M926,884C906,890 893,895 865,908 852,915 851,922 836,926 778,945 620,937 558,944 549,946 540,947 532,949"/>
<polygon style="fill:#add9e6;stroke:#add9e6" points="535,946 525,950 535,951 535,946"/>
<text text-anchor="middle" x="913" y="921" style="font-family:arial">has:resource</text>
</a></g>
<g id="node109" class="node"><title>:_30</title>
<a xlink:href="http://www.w3.org/1999/02/22-rdf-syntax-ns#Bag" target="_blank" onmouseover="show_status('http://www.w3.org/1999/02/22-rdf-syntax-ns#Bag');">
<ellipse cx="948" cy="962" rx="28" ry="18" style="fill:#d2d2d2;stroke:#d2d2d2"/>
<text text-anchor="middle" x="948" y="966" style="font-family:arial">rdf:Bag</text>
</a></g>
<g id="edge110" class="edge"><title>:_29-&gt;:_30</title>
<a xlink:href="http://www2.elsevier.co.uk/~tony/1014/yads-schema-2002-04-03#collection" target="_blank" onmouseover="show_status('http://www2.elsevier.co.uk/~tony/1014/yads-schema-2002-04-03#collection');">
<path style="fill:none;stroke:#add9e6" d="M958,890C955,896 953,902 951,908 949,917 948,926 948,935"/>
<polygon style="fill:#add9e6;stroke:#add9e6" points="946,934 948,944 951,934 946,934"/>
<text text-anchor="middle" x="995" y="921" style="font-family:arial">has:collection</text>
</a></g>
<g id="node102" class="node"><title>:_28</title>
<ellipse cx="1238" cy="1067" rx="33" ry="18" style="fill:#eedb82;stroke:#eedb82"/>
<text text-anchor="middle" x="1238" y="1071" style="font-family:arial">tube:Mins</text>
</g>
<g id="edge102" class="edge"><title>:_27-&gt;:_28</title>
<a xlink:href="http://www.w3.org/1999/02/22-rdf-syntax-ns#_1" target="_blank" onmouseover="show_status('http://www.w3.org/1999/02/22-rdf-syntax-ns#_1');">
<path style="fill:none;stroke:#add9e6" d="M1258,980C1255,996 1249,1021 1244,1040"/>
<polygon style="fill:#add9e6;stroke:#add9e6" points="1242,1039 1242,1049 1247,1040 1242,1039"/>
<text text-anchor="middle" x="1275" y="1011" style="font-family:arial">rdf:_1</text>
</a></g>
<g id="node105" class="node"><title>data:,4</title>
<a xlink:href="" onclick="show_data('4');" onmouseover="show_status('data:,4');">
<ellipse cx="1228" cy="1171" rx="27" ry="18" style="fill:#dca0dd;stroke:#dca0dd"/>
<text text-anchor="middle" x="1228" y="1175" style="font-family:arial">data:,4</text>
</a></g>
<g id="edge105" class="edge"><title>:_28-&gt;data:,4</title>
<a xlink:href="http://www2.elsevier.co.uk/~tony/1014/yads-schema-2002-04-03#resource" target="_blank" onmouseover="show_status('http://www2.elsevier.co.uk/~tony/1014/yads-schema-2002-04-03#resource');">
<path style="fill:none;stroke:#add9e6" d="M1236,1085C1234,1101 1232,1125 1231,1144"/>
<polygon style="fill:#add9e6;stroke:#add9e6" points="1229,1143 1230,1153 1234,1143 1229,1143"/>
<text text-anchor="middle" x="1275" y="1130" style="font-family:arial">has:resource</text>
</a></g>
<g id="node111" class="node"><title>:_31</title>
<ellipse cx="955" cy="1067" rx="33" ry="18" style="fill:#eedb82;stroke:#eedb82"/>
<text text-anchor="middle" x="955" y="1071" style="font-family:arial">tube:Mins</text>
</g>
<g id="edge112" class="edge"><title>:_30-&gt;:_31</title>
<a xlink:href="http://www.w3.org/1999/02/22-rdf-syntax-ns#_1" target="_blank" onmouseover="show_status('http://www.w3.org/1999/02/22-rdf-syntax-ns#_1');">
<path style="fill:none;stroke:#add9e6" d="M949,980C950,996 951,1021 953,1040"/>
<polygon style="fill:#add9e6;stroke:#add9e6" points="950,1039 954,1049 955,1039 950,1039"/>
<text text-anchor="middle" x="972" y="1011" style="font-family:arial">rdf:_1</text>
</a></g>
<g id="edge115" class="edge"><title>:_31-&gt;data:,2</title>
<a xlink:href="http://www2.elsevier.co.uk/~tony/1014/yads-schema-2002-04-03#resource" target="_blank" onmouseover="show_status('http://www2.elsevier.co.uk/~tony/1014/yads-schema-2002-04-03#resource');">
<path style="fill:none;stroke:#add9e6" d="M938,1083C921,1098 895,1120 869,1135 854,1144 836,1153 821,1159"/>
<polygon style="fill:#add9e6;stroke:#add9e6" points="821,1156 813,1162 823,1161 821,1156"/>
<text text-anchor="middle" x="940" y="1130" style="font-family:arial">has:resource</text>
</a></g>
</g>
</svg>
