<?xml version="1.0" encoding="UTF-8" standalone="no"?>
<!DOCTYPE svg PUBLIC "-//W3C//DTD SVG 1.0//EN"
 "http://www.w3.org/TR/2001/REC-SVG-20010904/DTD/svg10.dtd" [
 <!ATTLIST svg xmlns:xlink CDATA #FIXED "http://www.w3.org/1999/xlink">
]>
<!-- Generated by dot version 1.8.5 (Tue Apr 23 17:19:23  2002)
     For user: (Administrator) ,S-1-5-21-1454471165-688789844-1708537768-500   Title: yads    Pages: 1 -->
<svg width="993px" height="1266px"
 xmlns="http://www.w3.org/2000/svg" xmlns:xlink="http://www.w3.org/1999/xlink">
<g id="graph0" class="graph" style="font-family:Times-Roman;font-size:11.00">
<title>yads</title>
<text text-anchor="middle" x="496" y="1255" style="font-family:arial;font-size:24.00">YADS - A Description Service</text>
<g id="graph2" class="cluster"><title>cluster_1</title>
<polygon style="fill:none;stroke:#d2d2d2;stroke-dasharray:5,2" points="19,1223 974,1223 974,43 19,43 19,1223"/>
<text text-anchor="middle" x="95" y="55" style="font-family:arial">Nest - Hampstead Station</text>
</g>
<g id="graph3" class="cluster"><title>cluster_3</title>
<polygon style="fill:none;stroke:#d2d2d2;stroke-dasharray:5,2" points="27,1215 966,1215 966,238 27,238 27,1215"/>
<text text-anchor="middle" x="99" y="250" style="font-family:arial">Nest - Application Profile</text>
</g>
<g id="graph4" class="cluster"><title>cluster_5</title>
<polygon style="fill:none;stroke:#d2d2d2;stroke-dasharray:5,2" points="35,795 408,795 408,433 35,433 35,795"/>
<text text-anchor="middle" x="80" y="445" style="font-family:arial">Item - Location</text>
</g>
<g id="graph5" class="cluster"><title>cluster_7</title>
<polygon style="fill:none;stroke:#d2d2d2;stroke-dasharray:5,2" points="43,787 165,787 165,628 43,628 43,787"/>
<text text-anchor="middle" x="59" y="640" style="font-family:arial">Item</text>
</g>
<g id="graph6" class="cluster"><title>cluster_8</title>
<polygon style="fill:none;stroke:#d2d2d2;stroke-dasharray:5,2" points="173,787 295,787 295,628 173,628 173,787"/>
<text text-anchor="middle" x="189" y="640" style="font-family:arial">Item</text>
</g>
<g id="graph7" class="cluster"><title>cluster_9</title>
<polygon style="fill:none;stroke:#d2d2d2;stroke-dasharray:5,2" points="303,787 400,787 400,628 303,628 303,787"/>
<text text-anchor="middle" x="319" y="640" style="font-family:arial">Item</text>
</g>
<g id="graph8" class="cluster"><title>cluster_10</title>
<polygon style="fill:none;stroke:#d2d2d2;stroke-dasharray:5,2" points="416,1207 958,1207 958,433 416,433 416,1207"/>
<text text-anchor="middle" x="485" y="445" style="font-family:arial">Item - Line Interchanges</text>
</g>
<g id="graph9" class="cluster"><title>cluster_12</title>
<polygon style="fill:none;stroke:#d2d2d2;stroke-dasharray:5,2" points="424,1199 950,1199 950,628 424,628 424,1199"/>
<text text-anchor="middle" x="492" y="640" style="font-family:arial">Nest - Line Interchange</text>
</g>
<g id="graph10" class="cluster"><title>cluster_14</title>
<polygon style="fill:none;stroke:#d2d2d2;stroke-dasharray:5,2" points="432,1191 688,1191 688,829 432,829 432,1191"/>
<text text-anchor="middle" x="500" y="841" style="font-family:arial">Nest - Next Stop Back</text>
</g>
<g id="graph11" class="cluster"><title>cluster_16</title>
<polygon style="fill:none;stroke:#d2d2d2;stroke-dasharray:5,2" points="583,1183 680,1183 680,1024 583,1024 583,1183"/>
<text text-anchor="middle" x="599" y="1036" style="font-family:arial">Item</text>
</g>
<g id="graph12" class="cluster"><title>cluster_17</title>
<polygon style="fill:none;stroke:#d2d2d2;stroke-dasharray:5,2" points="696,1191 942,1191 942,829 696,829 696,1191"/>
<text text-anchor="middle" x="748" y="841" style="font-family:arial">Nest - Next Stop</text>
</g>
<g id="graph13" class="cluster"><title>cluster_19</title>
<polygon style="fill:none;stroke:#d2d2d2;stroke-dasharray:5,2" points="837,1183 934,1183 934,1024 837,1024 837,1183"/>
<text text-anchor="middle" x="853" y="1036" style="font-family:arial">Item</text>
</g>
<g id="node2" class="node"><title>:_1</title>
<ellipse cx="266" cy="86" rx="40" ry="18" style="fill:#eedb82;stroke:#eedb82"/>
<text text-anchor="middle" x="266" y="90" style="font-family:arial">tube:Station</text>
</g>
<g id="node4" class="node"><title>doi:1014/tube/hampstead</title>
<a xlink:href="http://dx.doi.org/1014/tube/hampstead" target="_blank" onmouseover="show_status('http://dx.doi.org/1014/tube/hampstead');">
<ellipse cx="137" cy="176" rx="74" ry="18" style="fill:#dca0dd;stroke:#dca0dd"/>
<text text-anchor="middle" x="137" y="180" style="font-family:arial">doi:1014/tube/hampstead</text>
</a></g>
<g id="edge3" class="edge"><title>:_1-&gt;doi:1014/tube/hampstead</title>
<a xlink:href="http://www2.elsevier.co.uk/~tony/1014/yads-schema-2002-04-03#resource" target="_blank" onmouseover="show_status('http://www2.elsevier.co.uk/~tony/1014/yads-schema-2002-04-03#resource');">
<path style="fill:none;stroke:#add9e6" d="M233,96C216,102 196,111 181,122 171,130 162,141 154,151"/>
<polygon style="fill:#add9e6;stroke:#add9e6" points="153,148 149,158 157,151 153,148"/>
<text text-anchor="middle" x="228" y="135" style="font-family:arial">has:resource</text>
</a></g>
<g id="node6" class="node"><title>node_1</title>
<polygon style="fill:#6497ed;stroke:#6497ed" points="303,158 229,158 229,194 303,194 303,158"/>
<text text-anchor="middle" x="266" y="180" style="font-family:arial">Hampstead</text>
</g>
<g id="edge5" class="edge"><title>:_1-&gt;node_1</title>
<a xlink:href="http://www2.elsevier.co.uk/~tony/1014/yads-schema-2002-04-03#label" target="_blank" onmouseover="show_status('http://www2.elsevier.co.uk/~tony/1014/yads-schema-2002-04-03#label');">
<path style="fill:none;stroke:#add9e6" d="M266,104C266,117 266,134 266,149"/>
<polygon style="fill:#add9e6;stroke:#add9e6" points="264,148 266,158 269,148 264,148"/>
<text text-anchor="middle" x="293" y="135" style="font-family:arial">has:label</text>
</a></g>
<g id="node8" class="node"><title>:_2</title>
<a xlink:href="http://www.w3.org/1999/02/22-rdf-syntax-ns#Bag" target="_blank" onmouseover="show_status('http://www.w3.org/1999/02/22-rdf-syntax-ns#Bag');">
<ellipse cx="349" cy="176" rx="28" ry="18" style="fill:#d2d2d2;stroke:#d2d2d2"/>
<text text-anchor="middle" x="349" y="180" style="font-family:arial">rdf:Bag</text>
</a></g>
<g id="edge7" class="edge"><title>:_1-&gt;:_2</title>
<a xlink:href="http://www2.elsevier.co.uk/~tony/1014/yads-schema-2002-04-03#collection" target="_blank" onmouseover="show_status('http://www2.elsevier.co.uk/~tony/1014/yads-schema-2002-04-03#collection');">
<path style="fill:none;stroke:#add9e6" d="M295,99C305,105 317,112 325,122 332,130 338,140 341,149"/>
<polygon style="fill:#add9e6;stroke:#add9e6" points="338,149 344,158 343,148 338,149"/>
<text text-anchor="middle" x="378" y="135" style="font-family:arial">has:collection</text>
</a></g>
<g id="node10" class="node"><title>:_3</title>
<ellipse cx="349" cy="281" rx="34" ry="18" style="fill:#eedb82;stroke:#eedb82"/>
<text text-anchor="middle" x="349" y="285" style="font-family:arial">doi:Profile</text>
</g>
<g id="edge9" class="edge"><title>:_2-&gt;:_3</title>
<a xlink:href="http://www.w3.org/1999/02/22-rdf-syntax-ns#_1" target="_blank" onmouseover="show_status('http://www.w3.org/1999/02/22-rdf-syntax-ns#_1');">
<path style="fill:none;stroke:#add9e6" d="M349,194C349,210 349,235 349,254"/>
<polygon style="fill:#add9e6;stroke:#add9e6" points="347,253 349,263 352,253 347,253"/>
<text text-anchor="middle" x="369" y="225" style="font-family:arial">rdf:_1</text>
</a></g>
<g id="node13" class="node"><title>doi:1014/profile.tube</title>
<a xlink:href="http://dx.doi.org/1014/profile.tube" target="_blank" onmouseover="show_status('http://dx.doi.org/1014/profile.tube');">
<ellipse cx="322" cy="371" rx="59" ry="18" style="fill:#dca0dd;stroke:#dca0dd"/>
<text text-anchor="middle" x="322" y="375" style="font-family:arial">doi:1014/profile.tube</text>
</a></g>
<g id="edge12" class="edge"><title>:_3-&gt;doi:1014/profile.tube</title>
<a xlink:href="http://www2.elsevier.co.uk/~tony/1014/yads-schema-2002-04-03#resource" target="_blank" onmouseover="show_status('http://www2.elsevier.co.uk/~tony/1014/yads-schema-2002-04-03#resource');">
<path style="fill:none;stroke:#add9e6" d="M344,299C340,312 334,329 330,344"/>
<polygon style="fill:#add9e6;stroke:#add9e6" points="328,343 327,353 333,344 328,343"/>
<text text-anchor="middle" x="380" y="330" style="font-family:arial">has:resource</text>
</a></g>
<g id="node15" class="node"><title>:_4</title>
<a xlink:href="http://www.w3.org/1999/02/22-rdf-syntax-ns#Bag" target="_blank" onmouseover="show_status('http://www.w3.org/1999/02/22-rdf-syntax-ns#Bag');">
<ellipse cx="427" cy="371" rx="28" ry="18" style="fill:#d2d2d2;stroke:#d2d2d2"/>
<text text-anchor="middle" x="427" y="375" style="font-family:arial">rdf:Bag</text>
</a></g>
<g id="edge14" class="edge"><title>:_3-&gt;:_4</title>
<a xlink:href="http://www2.elsevier.co.uk/~tony/1014/yads-schema-2002-04-03#collection" target="_blank" onmouseover="show_status('http://www2.elsevier.co.uk/~tony/1014/yads-schema-2002-04-03#collection');">
<path style="fill:none;stroke:#add9e6" d="M381,288C396,294 414,302 424,317 429,324 431,335 431,344"/>
<polygon style="fill:#add9e6;stroke:#add9e6" points="429,343 431,353 434,343 429,343"/>
<text text-anchor="middle" x="473" y="330" style="font-family:arial">has:collection</text>
</a></g>
<g id="node17" class="node"><title>:_5</title>
<a xlink:href="http://www2.elsevier.co.uk/~tony/1014/yads-schema-2002-04-03#Item" target="_blank" onmouseover="show_status('http://www2.elsevier.co.uk/~tony/1014/yads-schema-2002-04-03#Item');">
<ellipse cx="366" cy="476" rx="28" ry="18" style="fill:#d2d2d2;stroke:#d2d2d2"/>
<text text-anchor="middle" x="366" y="480" style="font-family:arial">isa:Item</text>
</a></g>
<g id="edge16" class="edge"><title>:_4-&gt;:_5</title>
<a xlink:href="http://www.w3.org/1999/02/22-rdf-syntax-ns#_1" target="_blank" onmouseover="show_status('http://www.w3.org/1999/02/22-rdf-syntax-ns#_1');">
<path style="fill:none;stroke:#add9e6" d="M416,387C412,394 407,401 403,407 395,421 386,438 379,451"/>
<polygon style="fill:#add9e6;stroke:#add9e6" points="377,449 375,459 382,451 377,449"/>
<text text-anchor="middle" x="426" y="420" style="font-family:arial">rdf:_1</text>
</a></g>
<g id="node19" class="node"><title>:_10</title>
<a xlink:href="http://www2.elsevier.co.uk/~tony/1014/yads-schema-2002-04-03#Item" target="_blank" onmouseover="show_status('http://www2.elsevier.co.uk/~tony/1014/yads-schema-2002-04-03#Item');">
<ellipse cx="481" cy="476" rx="28" ry="18" style="fill:#d2d2d2;stroke:#d2d2d2"/>
<text text-anchor="middle" x="481" y="480" style="font-family:arial">isa:Item</text>
</a></g>
<g id="edge18" class="edge"><title>:_4-&gt;:_10</title>
<a xlink:href="http://www.w3.org/1999/02/22-rdf-syntax-ns#_2" target="_blank" onmouseover="show_status('http://www.w3.org/1999/02/22-rdf-syntax-ns#_2');">
<path style="fill:none;stroke:#add9e6" d="M436,388C445,405 458,431 468,451"/>
<polygon style="fill:#add9e6;stroke:#add9e6" points="465,451 472,459 470,449 465,451"/>
<text text-anchor="middle" x="476" y="420" style="font-family:arial">rdf:_2</text>
</a></g>
<g id="node22" class="node"><title>:_6</title>
<a xlink:href="http://www.w3.org/1999/02/22-rdf-syntax-ns#Bag" target="_blank" onmouseover="show_status('http://www.w3.org/1999/02/22-rdf-syntax-ns#Bag');">
<ellipse cx="266" cy="566" rx="28" ry="18" style="fill:#d2d2d2;stroke:#d2d2d2"/>
<text text-anchor="middle" x="266" y="570" style="font-family:arial">rdf:Bag</text>
</a></g>
<g id="edge21" class="edge"><title>:_5-&gt;:_6</title>
<a xlink:href="http://www2.elsevier.co.uk/~tony/1014/yads-schema-2002-04-03#collection" target="_blank" onmouseover="show_status('http://www2.elsevier.co.uk/~tony/1014/yads-schema-2002-04-03#collection');">
<path style="fill:none;stroke:#add9e6" d="M349,491C333,505 308,528 289,545"/>
<polygon style="fill:#add9e6;stroke:#add9e6" points="288,543 282,551 291,546 288,543"/>
<text text-anchor="middle" x="367" y="525" style="font-family:arial">has:collection</text>
</a></g>
<g id="node40" class="node"><title>:_11</title>
<a xlink:href="http://www.w3.org/1999/02/22-rdf-syntax-ns#Bag" target="_blank" onmouseover="show_status('http://www.w3.org/1999/02/22-rdf-syntax-ns#Bag');">
<ellipse cx="503" cy="566" rx="28" ry="18" style="fill:#d2d2d2;stroke:#d2d2d2"/>
<text text-anchor="middle" x="503" y="570" style="font-family:arial">rdf:Bag</text>
</a></g>
<g id="edge39" class="edge"><title>:_10-&gt;:_11</title>
<a xlink:href="http://www2.elsevier.co.uk/~tony/1014/yads-schema-2002-04-03#collection" target="_blank" onmouseover="show_status('http://www2.elsevier.co.uk/~tony/1014/yads-schema-2002-04-03#collection');">
<path style="fill:none;stroke:#add9e6" d="M485,494C488,507 493,524 497,539"/>
<polygon style="fill:#add9e6;stroke:#add9e6" points="494,539 499,548 499,538 494,539"/>
<text text-anchor="middle" x="537" y="525" style="font-family:arial">has:collection</text>
</a></g>
<g id="node24" class="node"><title>:_7</title>
<ellipse cx="104" cy="671" rx="35" ry="18" style="fill:#eedb82;stroke:#eedb82"/>
<text text-anchor="middle" x="104" y="675" style="font-family:arial">tube:Zone</text>
</g>
<g id="edge23" class="edge"><title>:_6-&gt;:_7</title>
<a xlink:href="http://www.w3.org/1999/02/22-rdf-syntax-ns#_1" target="_blank" onmouseover="show_status('http://www.w3.org/1999/02/22-rdf-syntax-ns#_1');">
<path style="fill:none;stroke:#add9e6" d="M244,577C232,585 224,591 206,602 181,619 152,638 132,652"/>
<polygon style="fill:#add9e6;stroke:#add9e6" points="132,649 125,657 135,653 132,649"/>
<text text-anchor="middle" x="232" y="615" style="font-family:arial">rdf:_1</text>
</a></g>
<g id="node26" class="node"><title>:_8</title>
<ellipse cx="234" cy="671" rx="35" ry="18" style="fill:#eedb82;stroke:#eedb82"/>
<text text-anchor="middle" x="234" y="675" style="font-family:arial">tube:Zone</text>
</g>
<g id="edge25" class="edge"><title>:_6-&gt;:_8</title>
<a xlink:href="http://www.w3.org/1999/02/22-rdf-syntax-ns#_2" target="_blank" onmouseover="show_status('http://www.w3.org/1999/02/22-rdf-syntax-ns#_2');">
<path style="fill:none;stroke:#add9e6" d="M261,584C256,600 248,626 242,645"/>
<polygon style="fill:#add9e6;stroke:#add9e6" points="240,643 239,653 245,645 240,643"/>
<text text-anchor="middle" x="277" y="615" style="font-family:arial">rdf:_2</text>
</a></g>
<g id="node28" class="node"><title>:_9</title>
<ellipse cx="343" cy="671" rx="32" ry="18" style="fill:#eedb82;stroke:#eedb82"/>
<text text-anchor="middle" x="343" y="675" style="font-family:arial">tube:Grid</text>
</g>
<g id="edge27" class="edge"><title>:_6-&gt;:_9</title>
<a xlink:href="http://www.w3.org/1999/02/22-rdf-syntax-ns#_3" target="_blank" onmouseover="show_status('http://www.w3.org/1999/02/22-rdf-syntax-ns#_3');">
<path style="fill:none;stroke:#add9e6" d="M283,581C290,587 297,594 303,602 314,615 323,632 331,646"/>
<polygon style="fill:#add9e6;stroke:#add9e6" points="328,646 335,653 332,643 328,646"/>
<text text-anchor="middle" x="337" y="615" style="font-family:arial">rdf:_3</text>
</a></g>
<g id="node31" class="node"><title>data:,Zone%203</title>
<a xlink:href="" onclick="show_data('Zone%203');" onmouseover="show_status('data:,Zone%203');">
<ellipse cx="104" cy="761" rx="53" ry="18" style="fill:#dca0dd;stroke:#dca0dd"/>
<text text-anchor="middle" x="104" y="765" style="font-family:arial">data:,Zone%203</text>
</a></g>
<g id="edge30" class="edge"><title>:_7-&gt;data:,Zone%203</title>
<a xlink:href="http://www2.elsevier.co.uk/~tony/1014/yads-schema-2002-04-03#resource" target="_blank" onmouseover="show_status('http://www2.elsevier.co.uk/~tony/1014/yads-schema-2002-04-03#resource');">
<path style="fill:none;stroke:#add9e6" d="M95,689C92,694 89,701 88,707 87,715 87,718 88,725 88,728 89,731 90,734"/>
<polygon style="fill:#add9e6;stroke:#add9e6" points="88,735 94,743 92,733 88,735"/>
<text text-anchor="middle" x="132" y="720" style="font-family:arial">has:resource</text>
</a></g>
<g id="node34" class="node"><title>data:,Zone%202</title>
<a xlink:href="" onclick="show_data('Zone%202');" onmouseover="show_status('data:,Zone%202');">
<ellipse cx="234" cy="761" rx="53" ry="18" style="fill:#dca0dd;stroke:#dca0dd"/>
<text text-anchor="middle" x="234" y="765" style="font-family:arial">data:,Zone%202</text>
</a></g>
<g id="edge33" class="edge"><title>:_8-&gt;data:,Zone%202</title>
<a xlink:href="http://www2.elsevier.co.uk/~tony/1014/yads-schema-2002-04-03#resource" target="_blank" onmouseover="show_status('http://www2.elsevier.co.uk/~tony/1014/yads-schema-2002-04-03#resource');">
<path style="fill:none;stroke:#add9e6" d="M225,689C222,694 219,701 218,707 217,715 217,718 218,725 218,728 219,731 220,734"/>
<polygon style="fill:#add9e6;stroke:#add9e6" points="218,735 224,743 222,733 218,735"/>
<text text-anchor="middle" x="262" y="720" style="font-family:arial">has:resource</text>
</a></g>
<g id="node37" class="node"><title>data:,B5</title>
<a xlink:href="" onclick="show_data('B5');" onmouseover="show_status('data:,B5');">
<ellipse cx="341" cy="761" rx="30" ry="18" style="fill:#dca0dd;stroke:#dca0dd"/>
<text text-anchor="middle" x="341" y="765" style="font-family:arial">data:,B5</text>
</a></g>
<g id="edge36" class="edge"><title>:_9-&gt;data:,B5</title>
<a xlink:href="http://www2.elsevier.co.uk/~tony/1014/yads-schema-2002-04-03#resource" target="_blank" onmouseover="show_status('http://www2.elsevier.co.uk/~tony/1014/yads-schema-2002-04-03#resource');">
<path style="fill:none;stroke:#add9e6" d="M341,689C340,695 339,701 339,707 338,716 339,725 339,733"/>
<polygon style="fill:#add9e6;stroke:#add9e6" points="337,733 340,743 341,733 337,733"/>
<text text-anchor="middle" x="383" y="720" style="font-family:arial">has:resource</text>
</a></g>
<g id="node42" class="node"><title>:_12</title>
<ellipse cx="511" cy="671" rx="53" ry="18" style="fill:#eedb82;stroke:#eedb82"/>
<text text-anchor="middle" x="511" y="675" style="font-family:arial">tube:LineChange</text>
</g>
<g id="edge41" class="edge"><title>:_11-&gt;:_12</title>
<a xlink:href="http://www.w3.org/1999/02/22-rdf-syntax-ns#_1" target="_blank" onmouseover="show_status('http://www.w3.org/1999/02/22-rdf-syntax-ns#_1');">
<path style="fill:none;stroke:#add9e6" d="M504,584C506,600 507,625 509,644"/>
<polygon style="fill:#add9e6;stroke:#add9e6" points="506,643 510,653 511,643 506,643"/>
<text text-anchor="middle" x="527" y="615" style="font-family:arial">rdf:_1</text>
</a></g>
<g id="node45" class="node"><title>doi:1014/tube/northern_line</title>
<a xlink:href="http://dx.doi.org/1014/tube/northern_line" target="_blank" onmouseover="show_status('http://dx.doi.org/1014/tube/northern_line');">
<ellipse cx="511" cy="761" rx="79" ry="18" style="fill:#dca0dd;stroke:#dca0dd"/>
<text text-anchor="middle" x="511" y="765" style="font-family:arial">doi:1014/tube/northern_line</text>
</a></g>
<g id="edge44" class="edge"><title>:_12-&gt;doi:1014/tube/northern_line</title>
<a xlink:href="http://www2.elsevier.co.uk/~tony/1014/yads-schema-2002-04-03#resource" target="_blank" onmouseover="show_status('http://www2.elsevier.co.uk/~tony/1014/yads-schema-2002-04-03#resource');">
<path style="fill:none;stroke:#add9e6" d="M511,689C511,702 511,719 511,734"/>
<polygon style="fill:#add9e6;stroke:#add9e6" points="509,733 511,743 514,733 509,733"/>
<text text-anchor="middle" x="552" y="720" style="font-family:arial">has:resource</text>
</a></g>
<g id="node47" class="node"><title>:_13</title>
<a xlink:href="http://www.w3.org/1999/02/22-rdf-syntax-ns#Bag" target="_blank" onmouseover="show_status('http://www.w3.org/1999/02/22-rdf-syntax-ns#Bag');">
<ellipse cx="636" cy="761" rx="28" ry="18" style="fill:#d2d2d2;stroke:#d2d2d2"/>
<text text-anchor="middle" x="636" y="765" style="font-family:arial">rdf:Bag</text>
</a></g>
<g id="edge46" class="edge"><title>:_12-&gt;:_13</title>
<a xlink:href="http://www2.elsevier.co.uk/~tony/1014/yads-schema-2002-04-03#collection" target="_blank" onmouseover="show_status('http://www2.elsevier.co.uk/~tony/1014/yads-schema-2002-04-03#collection');">
<path style="fill:none;stroke:#add9e6" d="M551,683C566,689 583,697 596,707 606,715 615,726 622,736"/>
<polygon style="fill:#add9e6;stroke:#add9e6" points="620,737 627,744 624,734 620,737"/>
<text text-anchor="middle" x="655" y="720" style="font-family:arial">has:collection</text>
</a></g>
<g id="node49" class="node"><title>:_14</title>
<ellipse cx="599" cy="872" rx="53" ry="18" style="fill:#eedb82;stroke:#eedb82"/>
<text text-anchor="middle" x="599" y="876" style="font-family:arial">tube:PrevStation</text>
</g>
<g id="edge48" class="edge"><title>:_13-&gt;:_14</title>
<a xlink:href="http://www.w3.org/1999/02/22-rdf-syntax-ns#_1" target="_blank" onmouseover="show_status('http://www.w3.org/1999/02/22-rdf-syntax-ns#_1');">
<path style="fill:none;stroke:#add9e6" d="M630,779C624,796 615,825 608,845"/>
<polygon style="fill:#add9e6;stroke:#add9e6" points="606,844 605,854 611,845 606,844"/>
<text text-anchor="middle" x="643" y="816" style="font-family:arial">rdf:_1</text>
</a></g>
<g id="node51" class="node"><title>:_17</title>
<ellipse cx="757" cy="872" rx="53" ry="18" style="fill:#eedb82;stroke:#eedb82"/>
<text text-anchor="middle" x="757" y="876" style="font-family:arial">tube:NextStation</text>
</g>
<g id="edge50" class="edge"><title>:_13-&gt;:_17</title>
<a xlink:href="http://www.w3.org/1999/02/22-rdf-syntax-ns#_2" target="_blank" onmouseover="show_status('http://www.w3.org/1999/02/22-rdf-syntax-ns#_2');">
<path style="fill:none;stroke:#add9e6" d="M652,776C672,794 707,826 731,848"/>
<polygon style="fill:#add9e6;stroke:#add9e6" points="729,850 738,855 733,846 729,850"/>
<text text-anchor="middle" x="723" y="816" style="font-family:arial">rdf:_2</text>
</a></g>
<g id="node54" class="node"><title>doi:1014/tube/golders_green</title>
<a xlink:href="http://dx.doi.org/1014/tube/golders_green" target="_blank" onmouseover="show_status('http://dx.doi.org/1014/tube/golders_green');">
<ellipse cx="523" cy="962" rx="83" ry="18" style="fill:#dca0dd;stroke:#dca0dd"/>
<text text-anchor="middle" x="523" y="966" style="font-family:arial">doi:1014/tube/golders_green</text>
</a></g>
<g id="edge53" class="edge"><title>:_14-&gt;doi:1014/tube/golders_green</title>
<a xlink:href="http://www2.elsevier.co.uk/~tony/1014/yads-schema-2002-04-03#resource" target="_blank" onmouseover="show_status('http://www2.elsevier.co.uk/~tony/1014/yads-schema-2002-04-03#resource');">
<path style="fill:none;stroke:#add9e6" d="M555,882C542,888 528,896 520,908 515,916 514,926 515,935"/>
<polygon style="fill:#add9e6;stroke:#add9e6" points="512,935 517,944 517,934 512,935"/>
<text text-anchor="middle" x="564" y="921" style="font-family:arial">has:resource</text>
</a></g>
<g id="node56" class="node"><title>:_15</title>
<a xlink:href="http://www.w3.org/1999/02/22-rdf-syntax-ns#Bag" target="_blank" onmouseover="show_status('http://www.w3.org/1999/02/22-rdf-syntax-ns#Bag');">
<ellipse cx="652" cy="962" rx="28" ry="18" style="fill:#d2d2d2;stroke:#d2d2d2"/>
<text text-anchor="middle" x="652" y="966" style="font-family:arial">rdf:Bag</text>
</a></g>
<g id="edge55" class="edge"><title>:_14-&gt;:_15</title>
<a xlink:href="http://www2.elsevier.co.uk/~tony/1014/yads-schema-2002-04-03#collection" target="_blank" onmouseover="show_status('http://www2.elsevier.co.uk/~tony/1014/yads-schema-2002-04-03#collection');">
<path style="fill:none;stroke:#add9e6" d="M600,890C602,901 605,915 611,926 614,932 620,938 625,943"/>
<polygon style="fill:#add9e6;stroke:#add9e6" points="623,944 632,949 626,941 623,944"/>
<text text-anchor="middle" x="652" y="921" style="font-family:arial">has:collection</text>
</a></g>
<g id="node64" class="node"><title>doi:1014/tube/belsize_park</title>
<a xlink:href="http://dx.doi.org/1014/tube/belsize_park" target="_blank" onmouseover="show_status('http://dx.doi.org/1014/tube/belsize_park');">
<ellipse cx="782" cy="962" rx="78" ry="18" style="fill:#dca0dd;stroke:#dca0dd"/>
<text text-anchor="middle" x="782" y="966" style="font-family:arial">doi:1014/tube/belsize_park</text>
</a></g>
<g id="edge63" class="edge"><title>:_17-&gt;doi:1014/tube/belsize_park</title>
<a xlink:href="http://www2.elsevier.co.uk/~tony/1014/yads-schema-2002-04-03#resource" target="_blank" onmouseover="show_status('http://www2.elsevier.co.uk/~tony/1014/yads-schema-2002-04-03#resource');">
<path style="fill:none;stroke:#add9e6" d="M760,890C762,901 765,914 768,926 769,929 770,932 771,935"/>
<polygon style="fill:#add9e6;stroke:#add9e6" points="768,935 774,944 773,934 768,935"/>
<text text-anchor="middle" x="809" y="921" style="font-family:arial">has:resource</text>
</a></g>
<g id="node66" class="node"><title>:_18</title>
<a xlink:href="http://www.w3.org/1999/02/22-rdf-syntax-ns#Bag" target="_blank" onmouseover="show_status('http://www.w3.org/1999/02/22-rdf-syntax-ns#Bag');">
<ellipse cx="906" cy="962" rx="28" ry="18" style="fill:#d2d2d2;stroke:#d2d2d2"/>
<text text-anchor="middle" x="906" y="966" style="font-family:arial">rdf:Bag</text>
</a></g>
<g id="edge65" class="edge"><title>:_17-&gt;:_18</title>
<a xlink:href="http://www2.elsevier.co.uk/~tony/1014/yads-schema-2002-04-03#collection" target="_blank" onmouseover="show_status('http://www2.elsevier.co.uk/~tony/1014/yads-schema-2002-04-03#collection');">
<path style="fill:none;stroke:#add9e6" d="M796,884C812,890 830,898 845,908 853,915 853,919 861,926 867,932 873,937 880,942"/>
<polygon style="fill:#add9e6;stroke:#add9e6" points="878,943 887,948 881,940 878,943"/>
<text text-anchor="middle" x="902" y="921" style="font-family:arial">has:collection</text>
</a></g>
<g id="node58" class="node"><title>:_16</title>
<ellipse cx="628" cy="1067" rx="33" ry="18" style="fill:#eedb82;stroke:#eedb82"/>
<text text-anchor="middle" x="628" y="1071" style="font-family:arial">tube:Mins</text>
</g>
<g id="edge57" class="edge"><title>:_15-&gt;:_16</title>
<a xlink:href="http://www.w3.org/1999/02/22-rdf-syntax-ns#_1" target="_blank" onmouseover="show_status('http://www.w3.org/1999/02/22-rdf-syntax-ns#_1');">
<path style="fill:none;stroke:#add9e6" d="M648,980C645,996 639,1021 634,1040"/>
<polygon style="fill:#add9e6;stroke:#add9e6" points="632,1039 632,1049 637,1040 632,1039"/>
<text text-anchor="middle" x="665" y="1011" style="font-family:arial">rdf:_1</text>
</a></g>
<g id="node61" class="node"><title>data:,4</title>
<a xlink:href="" onclick="show_data('4');" onmouseover="show_status('data:,4');">
<ellipse cx="618" cy="1157" rx="27" ry="18" style="fill:#dca0dd;stroke:#dca0dd"/>
<text text-anchor="middle" x="618" y="1161" style="font-family:arial">data:,4</text>
</a></g>
<g id="edge60" class="edge"><title>:_16-&gt;data:,4</title>
<a xlink:href="http://www2.elsevier.co.uk/~tony/1014/yads-schema-2002-04-03#resource" target="_blank" onmouseover="show_status('http://www2.elsevier.co.uk/~tony/1014/yads-schema-2002-04-03#resource');">
<path style="fill:none;stroke:#add9e6" d="M626,1085C624,1098 623,1115 621,1130"/>
<polygon style="fill:#add9e6;stroke:#add9e6" points="619,1129 620,1139 624,1129 619,1129"/>
<text text-anchor="middle" x="666" y="1116" style="font-family:arial">has:resource</text>
</a></g>
<g id="node68" class="node"><title>:_19</title>
<ellipse cx="882" cy="1067" rx="33" ry="18" style="fill:#eedb82;stroke:#eedb82"/>
<text text-anchor="middle" x="882" y="1071" style="font-family:arial">tube:Mins</text>
</g>
<g id="edge67" class="edge"><title>:_18-&gt;:_19</title>
<a xlink:href="http://www.w3.org/1999/02/22-rdf-syntax-ns#_1" target="_blank" onmouseover="show_status('http://www.w3.org/1999/02/22-rdf-syntax-ns#_1');">
<path style="fill:none;stroke:#add9e6" d="M900,980C898,985 896,992 894,998 891,1012 888,1027 885,1040"/>
<polygon style="fill:#add9e6;stroke:#add9e6" points="883,1039 884,1049 888,1039 883,1039"/>
<text text-anchor="middle" x="914" y="1011" style="font-family:arial">rdf:_1</text>
</a></g>
<g id="node71" class="node"><title>data:,2</title>
<a xlink:href="" onclick="show_data('2');" onmouseover="show_status('data:,2');">
<ellipse cx="872" cy="1157" rx="27" ry="18" style="fill:#dca0dd;stroke:#dca0dd"/>
<text text-anchor="middle" x="872" y="1161" style="font-family:arial">data:,2</text>
</a></g>
<g id="edge70" class="edge"><title>:_19-&gt;data:,2</title>
<a xlink:href="http://www2.elsevier.co.uk/~tony/1014/yads-schema-2002-04-03#resource" target="_blank" onmouseover="show_status('http://www2.elsevier.co.uk/~tony/1014/yads-schema-2002-04-03#resource');">
<path style="fill:none;stroke:#add9e6" d="M865,1083C860,1089 855,1096 853,1103 849,1113 852,1123 856,1132"/>
<polygon style="fill:#add9e6;stroke:#add9e6" points="853,1132 860,1140 858,1130 853,1132"/>
<text text-anchor="middle" x="894" y="1116" style="font-family:arial">has:resource</text>
</a></g>
</g>
</svg>
