<?xml version="1.0" encoding="UTF-8" standalone="no"?>
<!DOCTYPE svg PUBLIC "-//W3C//DTD SVG 1.0//EN"
 "http://www.w3.org/TR/2001/REC-SVG-20010904/DTD/svg10.dtd" [
 <!ATTLIST svg xmlns:xlink CDATA #FIXED "http://www.w3.org/1999/xlink">
]>
<!-- Generated by dot version 1.8.5 (Tue Apr 23 17:19:23  2002)
     For user: (Administrator) ,S-1-5-21-1454471165-688789844-1708537768-500   Title: yads    Pages: 1 -->
<svg width="957px" height="1266px"
 xmlns="http://www.w3.org/2000/svg" xmlns:xlink="http://www.w3.org/1999/xlink">
<g id="graph0" class="graph" style="font-family:Times-Roman;font-size:11.00">
<title>yads</title>
<text text-anchor="middle" x="478" y="1255" style="font-family:arial;font-size:24.00">YADS - A Description Service</text>
<g id="graph2" class="cluster"><title>cluster_1</title>
<polygon style="fill:none;stroke:#d2d2d2;stroke-dasharray:5,2" points="19,1223 938,1223 938,43 19,43 19,1223"/>
<text text-anchor="middle" x="106" y="55" style="font-family:arial">Nest - Hendon Central Station</text>
</g>
<g id="graph3" class="cluster"><title>cluster_3</title>
<polygon style="fill:none;stroke:#d2d2d2;stroke-dasharray:5,2" points="27,1215 930,1215 930,238 27,238 27,1215"/>
<text text-anchor="middle" x="99" y="250" style="font-family:arial">Nest - Application Profile</text>
</g>
<g id="graph4" class="cluster"><title>cluster_5</title>
<polygon style="fill:none;stroke:#d2d2d2;stroke-dasharray:5,2" points="35,795 408,795 408,433 35,433 35,795"/>
<text text-anchor="middle" x="80" y="445" style="font-family:arial">Item - Location</text>
</g>
<g id="graph5" class="cluster"><title>cluster_7</title>
<polygon style="fill:none;stroke:#d2d2d2;stroke-dasharray:5,2" points="43,787 165,787 165,628 43,628 43,787"/>
<text text-anchor="middle" x="59" y="640" style="font-family:arial">Item</text>
</g>
<g id="graph6" class="cluster"><title>cluster_8</title>
<polygon style="fill:none;stroke:#d2d2d2;stroke-dasharray:5,2" points="173,787 295,787 295,628 173,628 173,787"/>
<text text-anchor="middle" x="189" y="640" style="font-family:arial">Item</text>
</g>
<g id="graph7" class="cluster"><title>cluster_9</title>
<polygon style="fill:none;stroke:#d2d2d2;stroke-dasharray:5,2" points="303,787 400,787 400,628 303,628 303,787"/>
<text text-anchor="middle" x="319" y="640" style="font-family:arial">Item</text>
</g>
<g id="graph8" class="cluster"><title>cluster_10</title>
<polygon style="fill:none;stroke:#d2d2d2;stroke-dasharray:5,2" points="416,1207 922,1207 922,433 416,433 416,1207"/>
<text text-anchor="middle" x="485" y="445" style="font-family:arial">Item - Line Interchanges</text>
</g>
<g id="graph9" class="cluster"><title>cluster_12</title>
<polygon style="fill:none;stroke:#d2d2d2;stroke-dasharray:5,2" points="424,1199 914,1199 914,628 424,628 424,1199"/>
<text text-anchor="middle" x="492" y="640" style="font-family:arial">Nest - Line Interchange</text>
</g>
<g id="graph10" class="cluster"><title>cluster_14</title>
<polygon style="fill:none;stroke:#d2d2d2;stroke-dasharray:5,2" points="432,1191 654,1191 654,829 432,829 432,1191"/>
<text text-anchor="middle" x="500" y="841" style="font-family:arial">Nest - Next Stop Back</text>
</g>
<g id="graph11" class="cluster"><title>cluster_16</title>
<polygon style="fill:none;stroke:#d2d2d2;stroke-dasharray:5,2" points="549,1183 646,1183 646,1024 549,1024 549,1183"/>
<text text-anchor="middle" x="565" y="1036" style="font-family:arial">Item</text>
</g>
<g id="graph12" class="cluster"><title>cluster_17</title>
<polygon style="fill:none;stroke:#d2d2d2;stroke-dasharray:5,2" points="662,1191 906,1191 906,829 662,829 662,1191"/>
<text text-anchor="middle" x="714" y="841" style="font-family:arial">Nest - Next Stop</text>
</g>
<g id="graph13" class="cluster"><title>cluster_19</title>
<polygon style="fill:none;stroke:#d2d2d2;stroke-dasharray:5,2" points="801,1183 898,1183 898,1024 801,1024 801,1183"/>
<text text-anchor="middle" x="817" y="1036" style="font-family:arial">Item</text>
</g>
<g id="node2" class="node"><title>:_1</title>
<ellipse cx="304" cy="86" rx="40" ry="18" style="fill:#eedb82;stroke:#eedb82"/>
<text text-anchor="middle" x="304" y="90" style="font-family:arial">tube:Station</text>
</g>
<g id="node4" class="node"><title>doi:1014/tube/hendon_central</title>
<a xlink:href="http://dx.doi.org/1014/tube/hendon_central" target="_blank" onmouseover="show_status('http://dx.doi.org/1014/tube/hendon_central');">
<ellipse cx="153" cy="176" rx="86" ry="18" style="fill:#dca0dd;stroke:#dca0dd"/>
<text text-anchor="middle" x="153" y="180" style="font-family:arial">doi:1014/tube/hendon_central</text>
</a></g>
<g id="edge3" class="edge"><title>:_1-&gt;doi:1014/tube/hendon_central</title>
<a xlink:href="http://www2.elsevier.co.uk/~tony/1014/yads-schema-2002-04-03#resource" target="_blank" onmouseover="show_status('http://www2.elsevier.co.uk/~tony/1014/yads-schema-2002-04-03#resource');">
<path style="fill:none;stroke:#add9e6" d="M272,97C256,103 236,112 219,122 205,131 191,142 179,152"/>
<polygon style="fill:#add9e6;stroke:#add9e6" points="178,150 172,158 181,153 178,150"/>
<text text-anchor="middle" x="266" y="135" style="font-family:arial">has:resource</text>
</a></g>
<g id="node6" class="node"><title>node_1</title>
<polygon style="fill:#6497ed;stroke:#6497ed" points="351,158 257,158 257,194 351,194 351,158"/>
<text text-anchor="middle" x="304" y="180" style="font-family:arial">Hendon Central</text>
</g>
<g id="edge5" class="edge"><title>:_1-&gt;node_1</title>
<a xlink:href="http://www2.elsevier.co.uk/~tony/1014/yads-schema-2002-04-03#label" target="_blank" onmouseover="show_status('http://www2.elsevier.co.uk/~tony/1014/yads-schema-2002-04-03#label');">
<path style="fill:none;stroke:#add9e6" d="M304,104C304,117 304,134 304,149"/>
<polygon style="fill:#add9e6;stroke:#add9e6" points="302,148 304,158 307,148 302,148"/>
<text text-anchor="middle" x="331" y="135" style="font-family:arial">has:label</text>
</a></g>
<g id="node8" class="node"><title>:_2</title>
<a xlink:href="http://www.w3.org/1999/02/22-rdf-syntax-ns#Bag" target="_blank" onmouseover="show_status('http://www.w3.org/1999/02/22-rdf-syntax-ns#Bag');">
<ellipse cx="397" cy="176" rx="28" ry="18" style="fill:#d2d2d2;stroke:#d2d2d2"/>
<text text-anchor="middle" x="397" y="180" style="font-family:arial">rdf:Bag</text>
</a></g>
<g id="edge7" class="edge"><title>:_1-&gt;:_2</title>
<a xlink:href="http://www2.elsevier.co.uk/~tony/1014/yads-schema-2002-04-03#collection" target="_blank" onmouseover="show_status('http://www2.elsevier.co.uk/~tony/1014/yads-schema-2002-04-03#collection');">
<path style="fill:none;stroke:#add9e6" d="M331,99C342,105 354,113 363,122 372,131 379,141 385,151"/>
<polygon style="fill:#add9e6;stroke:#add9e6" points="382,151 389,159 387,149 382,151"/>
<text text-anchor="middle" x="420" y="135" style="font-family:arial">has:collection</text>
</a></g>
<g id="node10" class="node"><title>:_3</title>
<ellipse cx="397" cy="281" rx="34" ry="18" style="fill:#eedb82;stroke:#eedb82"/>
<text text-anchor="middle" x="397" y="285" style="font-family:arial">doi:Profile</text>
</g>
<g id="edge9" class="edge"><title>:_2-&gt;:_3</title>
<a xlink:href="http://www.w3.org/1999/02/22-rdf-syntax-ns#_1" target="_blank" onmouseover="show_status('http://www.w3.org/1999/02/22-rdf-syntax-ns#_1');">
<path style="fill:none;stroke:#add9e6" d="M397,194C397,210 397,235 397,254"/>
<polygon style="fill:#add9e6;stroke:#add9e6" points="395,253 397,263 400,253 395,253"/>
<text text-anchor="middle" x="417" y="225" style="font-family:arial">rdf:_1</text>
</a></g>
<g id="node13" class="node"><title>doi:1014/profile.tube</title>
<a xlink:href="http://dx.doi.org/1014/profile.tube" target="_blank" onmouseover="show_status('http://dx.doi.org/1014/profile.tube');">
<ellipse cx="335" cy="371" rx="59" ry="18" style="fill:#dca0dd;stroke:#dca0dd"/>
<text text-anchor="middle" x="335" y="375" style="font-family:arial">doi:1014/profile.tube</text>
</a></g>
<g id="edge12" class="edge"><title>:_3-&gt;doi:1014/profile.tube</title>
<a xlink:href="http://www2.elsevier.co.uk/~tony/1014/yads-schema-2002-04-03#resource" target="_blank" onmouseover="show_status('http://www2.elsevier.co.uk/~tony/1014/yads-schema-2002-04-03#resource');">
<path style="fill:none;stroke:#add9e6" d="M368,291C356,297 343,305 336,317 332,325 330,335 331,344"/>
<polygon style="fill:#add9e6;stroke:#add9e6" points="329,343 331,353 334,343 329,343"/>
<text text-anchor="middle" x="380" y="330" style="font-family:arial">has:resource</text>
</a></g>
<g id="node15" class="node"><title>:_4</title>
<a xlink:href="http://www.w3.org/1999/02/22-rdf-syntax-ns#Bag" target="_blank" onmouseover="show_status('http://www.w3.org/1999/02/22-rdf-syntax-ns#Bag');">
<ellipse cx="440" cy="371" rx="28" ry="18" style="fill:#d2d2d2;stroke:#d2d2d2"/>
<text text-anchor="middle" x="440" y="375" style="font-family:arial">rdf:Bag</text>
</a></g>
<g id="edge14" class="edge"><title>:_3-&gt;:_4</title>
<a xlink:href="http://www2.elsevier.co.uk/~tony/1014/yads-schema-2002-04-03#collection" target="_blank" onmouseover="show_status('http://www2.elsevier.co.uk/~tony/1014/yads-schema-2002-04-03#collection');">
<path style="fill:none;stroke:#add9e6" d="M410,298C414,304 418,310 421,317 425,326 429,335 432,344"/>
<polygon style="fill:#add9e6;stroke:#add9e6" points="429,344 435,353 434,343 429,344"/>
<text text-anchor="middle" x="471" y="330" style="font-family:arial">has:collection</text>
</a></g>
<g id="node17" class="node"><title>:_5</title>
<a xlink:href="http://www2.elsevier.co.uk/~tony/1014/yads-schema-2002-04-03#Item" target="_blank" onmouseover="show_status('http://www2.elsevier.co.uk/~tony/1014/yads-schema-2002-04-03#Item');">
<ellipse cx="339" cy="476" rx="28" ry="18" style="fill:#d2d2d2;stroke:#d2d2d2"/>
<text text-anchor="middle" x="339" y="480" style="font-family:arial">isa:Item</text>
</a></g>
<g id="edge16" class="edge"><title>:_4-&gt;:_5</title>
<a xlink:href="http://www.w3.org/1999/02/22-rdf-syntax-ns#_1" target="_blank" onmouseover="show_status('http://www.w3.org/1999/02/22-rdf-syntax-ns#_1');">
<path style="fill:none;stroke:#add9e6" d="M425,386C408,404 379,434 360,454"/>
<polygon style="fill:#add9e6;stroke:#add9e6" points="359,451 354,460 363,455 359,451"/>
<text text-anchor="middle" x="428" y="420" style="font-family:arial">rdf:_1</text>
</a></g>
<g id="node19" class="node"><title>:_10</title>
<a xlink:href="http://www2.elsevier.co.uk/~tony/1014/yads-schema-2002-04-03#Item" target="_blank" onmouseover="show_status('http://www2.elsevier.co.uk/~tony/1014/yads-schema-2002-04-03#Item');">
<ellipse cx="481" cy="476" rx="28" ry="18" style="fill:#d2d2d2;stroke:#d2d2d2"/>
<text text-anchor="middle" x="481" y="480" style="font-family:arial">isa:Item</text>
</a></g>
<g id="edge18" class="edge"><title>:_4-&gt;:_10</title>
<a xlink:href="http://www.w3.org/1999/02/22-rdf-syntax-ns#_2" target="_blank" onmouseover="show_status('http://www.w3.org/1999/02/22-rdf-syntax-ns#_2');">
<path style="fill:none;stroke:#add9e6" d="M447,389C454,405 464,431 471,450"/>
<polygon style="fill:#add9e6;stroke:#add9e6" points="468,450 474,459 473,449 468,450"/>
<text text-anchor="middle" x="482" y="420" style="font-family:arial">rdf:_2</text>
</a></g>
<g id="node22" class="node"><title>:_6</title>
<a xlink:href="http://www.w3.org/1999/02/22-rdf-syntax-ns#Bag" target="_blank" onmouseover="show_status('http://www.w3.org/1999/02/22-rdf-syntax-ns#Bag');">
<ellipse cx="266" cy="566" rx="28" ry="18" style="fill:#d2d2d2;stroke:#d2d2d2"/>
<text text-anchor="middle" x="266" y="570" style="font-family:arial">rdf:Bag</text>
</a></g>
<g id="edge21" class="edge"><title>:_5-&gt;:_6</title>
<a xlink:href="http://www2.elsevier.co.uk/~tony/1014/yads-schema-2002-04-03#collection" target="_blank" onmouseover="show_status('http://www2.elsevier.co.uk/~tony/1014/yads-schema-2002-04-03#collection');">
<path style="fill:none;stroke:#add9e6" d="M326,492C315,506 297,526 285,543"/>
<polygon style="fill:#add9e6;stroke:#add9e6" points="284,541 279,550 287,544 284,541"/>
<text text-anchor="middle" x="351" y="525" style="font-family:arial">has:collection</text>
</a></g>
<g id="node40" class="node"><title>:_11</title>
<a xlink:href="http://www.w3.org/1999/02/22-rdf-syntax-ns#Bag" target="_blank" onmouseover="show_status('http://www.w3.org/1999/02/22-rdf-syntax-ns#Bag');">
<ellipse cx="503" cy="566" rx="28" ry="18" style="fill:#d2d2d2;stroke:#d2d2d2"/>
<text text-anchor="middle" x="503" y="570" style="font-family:arial">rdf:Bag</text>
</a></g>
<g id="edge39" class="edge"><title>:_10-&gt;:_11</title>
<a xlink:href="http://www2.elsevier.co.uk/~tony/1014/yads-schema-2002-04-03#collection" target="_blank" onmouseover="show_status('http://www2.elsevier.co.uk/~tony/1014/yads-schema-2002-04-03#collection');">
<path style="fill:none;stroke:#add9e6" d="M485,494C488,507 493,524 497,539"/>
<polygon style="fill:#add9e6;stroke:#add9e6" points="494,539 499,548 499,538 494,539"/>
<text text-anchor="middle" x="537" y="525" style="font-family:arial">has:collection</text>
</a></g>
<g id="node24" class="node"><title>:_7</title>
<ellipse cx="104" cy="671" rx="35" ry="18" style="fill:#eedb82;stroke:#eedb82"/>
<text text-anchor="middle" x="104" y="675" style="font-family:arial">tube:Zone</text>
</g>
<g id="edge23" class="edge"><title>:_6-&gt;:_7</title>
<a xlink:href="http://www.w3.org/1999/02/22-rdf-syntax-ns#_1" target="_blank" onmouseover="show_status('http://www.w3.org/1999/02/22-rdf-syntax-ns#_1');">
<path style="fill:none;stroke:#add9e6" d="M244,577C232,585 224,591 206,602 181,619 152,638 132,652"/>
<polygon style="fill:#add9e6;stroke:#add9e6" points="132,649 125,657 135,653 132,649"/>
<text text-anchor="middle" x="232" y="615" style="font-family:arial">rdf:_1</text>
</a></g>
<g id="node26" class="node"><title>:_8</title>
<ellipse cx="234" cy="671" rx="35" ry="18" style="fill:#eedb82;stroke:#eedb82"/>
<text text-anchor="middle" x="234" y="675" style="font-family:arial">tube:Zone</text>
</g>
<g id="edge25" class="edge"><title>:_6-&gt;:_8</title>
<a xlink:href="http://www.w3.org/1999/02/22-rdf-syntax-ns#_2" target="_blank" onmouseover="show_status('http://www.w3.org/1999/02/22-rdf-syntax-ns#_2');">
<path style="fill:none;stroke:#add9e6" d="M261,584C256,600 248,626 242,645"/>
<polygon style="fill:#add9e6;stroke:#add9e6" points="240,643 239,653 245,645 240,643"/>
<text text-anchor="middle" x="277" y="615" style="font-family:arial">rdf:_2</text>
</a></g>
<g id="node28" class="node"><title>:_9</title>
<ellipse cx="343" cy="671" rx="32" ry="18" style="fill:#eedb82;stroke:#eedb82"/>
<text text-anchor="middle" x="343" y="675" style="font-family:arial">tube:Grid</text>
</g>
<g id="edge27" class="edge"><title>:_6-&gt;:_9</title>
<a xlink:href="http://www.w3.org/1999/02/22-rdf-syntax-ns#_3" target="_blank" onmouseover="show_status('http://www.w3.org/1999/02/22-rdf-syntax-ns#_3');">
<path style="fill:none;stroke:#add9e6" d="M283,581C290,587 297,594 303,602 314,615 323,632 331,646"/>
<polygon style="fill:#add9e6;stroke:#add9e6" points="328,646 335,653 332,643 328,646"/>
<text text-anchor="middle" x="337" y="615" style="font-family:arial">rdf:_3</text>
</a></g>
<g id="node31" class="node"><title>data:,Zone%204</title>
<a xlink:href="" onclick="show_data('Zone%204');" onmouseover="show_status('data:,Zone%204');">
<ellipse cx="104" cy="761" rx="53" ry="18" style="fill:#dca0dd;stroke:#dca0dd"/>
<text text-anchor="middle" x="104" y="765" style="font-family:arial">data:,Zone%204</text>
</a></g>
<g id="edge30" class="edge"><title>:_7-&gt;data:,Zone%204</title>
<a xlink:href="http://www2.elsevier.co.uk/~tony/1014/yads-schema-2002-04-03#resource" target="_blank" onmouseover="show_status('http://www2.elsevier.co.uk/~tony/1014/yads-schema-2002-04-03#resource');">
<path style="fill:none;stroke:#add9e6" d="M95,689C92,694 89,701 88,707 87,715 87,718 88,725 88,728 89,731 90,734"/>
<polygon style="fill:#add9e6;stroke:#add9e6" points="88,735 94,743 92,733 88,735"/>
<text text-anchor="middle" x="132" y="720" style="font-family:arial">has:resource</text>
</a></g>
<g id="node34" class="node"><title>data:,Zone%203</title>
<a xlink:href="" onclick="show_data('Zone%203');" onmouseover="show_status('data:,Zone%203');">
<ellipse cx="234" cy="761" rx="53" ry="18" style="fill:#dca0dd;stroke:#dca0dd"/>
<text text-anchor="middle" x="234" y="765" style="font-family:arial">data:,Zone%203</text>
</a></g>
<g id="edge33" class="edge"><title>:_8-&gt;data:,Zone%203</title>
<a xlink:href="http://www2.elsevier.co.uk/~tony/1014/yads-schema-2002-04-03#resource" target="_blank" onmouseover="show_status('http://www2.elsevier.co.uk/~tony/1014/yads-schema-2002-04-03#resource');">
<path style="fill:none;stroke:#add9e6" d="M225,689C222,694 219,701 218,707 217,715 217,718 218,725 218,728 219,731 220,734"/>
<polygon style="fill:#add9e6;stroke:#add9e6" points="218,735 224,743 222,733 218,735"/>
<text text-anchor="middle" x="262" y="720" style="font-family:arial">has:resource</text>
</a></g>
<g id="node37" class="node"><title>data:,A4</title>
<a xlink:href="" onclick="show_data('A4');" onmouseover="show_status('data:,A4');">
<ellipse cx="342" cy="761" rx="31" ry="18" style="fill:#dca0dd;stroke:#dca0dd"/>
<text text-anchor="middle" x="342" y="765" style="font-family:arial">data:,A4</text>
</a></g>
<g id="edge36" class="edge"><title>:_9-&gt;data:,A4</title>
<a xlink:href="http://www2.elsevier.co.uk/~tony/1014/yads-schema-2002-04-03#resource" target="_blank" onmouseover="show_status('http://www2.elsevier.co.uk/~tony/1014/yads-schema-2002-04-03#resource');">
<path style="fill:none;stroke:#add9e6" d="M341,689C340,695 339,701 339,707 339,716 339,725 339,734"/>
<polygon style="fill:#add9e6;stroke:#add9e6" points="336,733 340,743 341,733 336,733"/>
<text text-anchor="middle" x="383" y="720" style="font-family:arial">has:resource</text>
</a></g>
<g id="node42" class="node"><title>:_12</title>
<ellipse cx="511" cy="671" rx="53" ry="18" style="fill:#eedb82;stroke:#eedb82"/>
<text text-anchor="middle" x="511" y="675" style="font-family:arial">tube:LineChange</text>
</g>
<g id="edge41" class="edge"><title>:_11-&gt;:_12</title>
<a xlink:href="http://www.w3.org/1999/02/22-rdf-syntax-ns#_1" target="_blank" onmouseover="show_status('http://www.w3.org/1999/02/22-rdf-syntax-ns#_1');">
<path style="fill:none;stroke:#add9e6" d="M504,584C506,600 507,625 509,644"/>
<polygon style="fill:#add9e6;stroke:#add9e6" points="506,643 510,653 511,643 506,643"/>
<text text-anchor="middle" x="527" y="615" style="font-family:arial">rdf:_1</text>
</a></g>
<g id="node45" class="node"><title>doi:1014/tube/northern_line</title>
<a xlink:href="http://dx.doi.org/1014/tube/northern_line" target="_blank" onmouseover="show_status('http://dx.doi.org/1014/tube/northern_line');">
<ellipse cx="511" cy="761" rx="79" ry="18" style="fill:#dca0dd;stroke:#dca0dd"/>
<text text-anchor="middle" x="511" y="765" style="font-family:arial">doi:1014/tube/northern_line</text>
</a></g>
<g id="edge44" class="edge"><title>:_12-&gt;doi:1014/tube/northern_line</title>
<a xlink:href="http://www2.elsevier.co.uk/~tony/1014/yads-schema-2002-04-03#resource" target="_blank" onmouseover="show_status('http://www2.elsevier.co.uk/~tony/1014/yads-schema-2002-04-03#resource');">
<path style="fill:none;stroke:#add9e6" d="M511,689C511,702 511,719 511,734"/>
<polygon style="fill:#add9e6;stroke:#add9e6" points="509,733 511,743 514,733 509,733"/>
<text text-anchor="middle" x="552" y="720" style="font-family:arial">has:resource</text>
</a></g>
<g id="node47" class="node"><title>:_13</title>
<a xlink:href="http://www.w3.org/1999/02/22-rdf-syntax-ns#Bag" target="_blank" onmouseover="show_status('http://www.w3.org/1999/02/22-rdf-syntax-ns#Bag');">
<ellipse cx="636" cy="761" rx="28" ry="18" style="fill:#d2d2d2;stroke:#d2d2d2"/>
<text text-anchor="middle" x="636" y="765" style="font-family:arial">rdf:Bag</text>
</a></g>
<g id="edge46" class="edge"><title>:_12-&gt;:_13</title>
<a xlink:href="http://www2.elsevier.co.uk/~tony/1014/yads-schema-2002-04-03#collection" target="_blank" onmouseover="show_status('http://www2.elsevier.co.uk/~tony/1014/yads-schema-2002-04-03#collection');">
<path style="fill:none;stroke:#add9e6" d="M551,683C566,689 583,697 596,707 606,715 615,726 622,736"/>
<polygon style="fill:#add9e6;stroke:#add9e6" points="620,737 627,744 624,734 620,737"/>
<text text-anchor="middle" x="655" y="720" style="font-family:arial">has:collection</text>
</a></g>
<g id="node49" class="node"><title>:_14</title>
<ellipse cx="565" cy="872" rx="53" ry="18" style="fill:#eedb82;stroke:#eedb82"/>
<text text-anchor="middle" x="565" y="876" style="font-family:arial">tube:PrevStation</text>
</g>
<g id="edge48" class="edge"><title>:_13-&gt;:_14</title>
<a xlink:href="http://www.w3.org/1999/02/22-rdf-syntax-ns#_1" target="_blank" onmouseover="show_status('http://www.w3.org/1999/02/22-rdf-syntax-ns#_1');">
<path style="fill:none;stroke:#add9e6" d="M625,778C613,797 595,826 581,847"/>
<polygon style="fill:#add9e6;stroke:#add9e6" points="580,844 576,854 584,847 580,844"/>
<text text-anchor="middle" x="630" y="816" style="font-family:arial">rdf:_1</text>
</a></g>
<g id="node51" class="node"><title>:_17</title>
<ellipse cx="723" cy="872" rx="53" ry="18" style="fill:#eedb82;stroke:#eedb82"/>
<text text-anchor="middle" x="723" y="876" style="font-family:arial">tube:NextStation</text>
</g>
<g id="edge50" class="edge"><title>:_13-&gt;:_17</title>
<a xlink:href="http://www.w3.org/1999/02/22-rdf-syntax-ns#_2" target="_blank" onmouseover="show_status('http://www.w3.org/1999/02/22-rdf-syntax-ns#_2');">
<path style="fill:none;stroke:#add9e6" d="M649,777C663,796 687,826 704,847"/>
<polygon style="fill:#add9e6;stroke:#add9e6" points="701,847 709,854 705,844 701,847"/>
<text text-anchor="middle" x="704" y="816" style="font-family:arial">rdf:_2</text>
</a></g>
<g id="node54" class="node"><title>doi:1014/tube/colindale</title>
<a xlink:href="http://dx.doi.org/1014/tube/colindale" target="_blank" onmouseover="show_status('http://dx.doi.org/1014/tube/colindale');">
<ellipse cx="506" cy="962" rx="66" ry="18" style="fill:#dca0dd;stroke:#dca0dd"/>
<text text-anchor="middle" x="506" y="966" style="font-family:arial">doi:1014/tube/colindale</text>
</a></g>
<g id="edge53" class="edge"><title>:_14-&gt;doi:1014/tube/colindale</title>
<a xlink:href="http://www2.elsevier.co.uk/~tony/1014/yads-schema-2002-04-03#resource" target="_blank" onmouseover="show_status('http://www2.elsevier.co.uk/~tony/1014/yads-schema-2002-04-03#resource');">
<path style="fill:none;stroke:#add9e6" d="M521,882C508,888 494,896 486,908 481,916 483,926 487,936"/>
<polygon style="fill:#add9e6;stroke:#add9e6" points="485,937 492,944 489,934 485,937"/>
<text text-anchor="middle" x="530" y="921" style="font-family:arial">has:resource</text>
</a></g>
<g id="node56" class="node"><title>:_15</title>
<a xlink:href="http://www.w3.org/1999/02/22-rdf-syntax-ns#Bag" target="_blank" onmouseover="show_status('http://www.w3.org/1999/02/22-rdf-syntax-ns#Bag');">
<ellipse cx="618" cy="962" rx="28" ry="18" style="fill:#d2d2d2;stroke:#d2d2d2"/>
<text text-anchor="middle" x="618" y="966" style="font-family:arial">rdf:Bag</text>
</a></g>
<g id="edge55" class="edge"><title>:_14-&gt;:_15</title>
<a xlink:href="http://www2.elsevier.co.uk/~tony/1014/yads-schema-2002-04-03#collection" target="_blank" onmouseover="show_status('http://www2.elsevier.co.uk/~tony/1014/yads-schema-2002-04-03#collection');">
<path style="fill:none;stroke:#add9e6" d="M566,890C568,901 571,915 577,926 580,932 586,938 591,943"/>
<polygon style="fill:#add9e6;stroke:#add9e6" points="589,944 598,949 592,941 589,944"/>
<text text-anchor="middle" x="618" y="921" style="font-family:arial">has:collection</text>
</a></g>
<g id="node64" class="node"><title>doi:1014/tube/brent_cross</title>
<a xlink:href="http://dx.doi.org/1014/tube/brent_cross" target="_blank" onmouseover="show_status('http://dx.doi.org/1014/tube/brent_cross');">
<ellipse cx="747" cy="962" rx="77" ry="18" style="fill:#dca0dd;stroke:#dca0dd"/>
<text text-anchor="middle" x="747" y="966" style="font-family:arial">doi:1014/tube/brent_cross</text>
</a></g>
<g id="edge63" class="edge"><title>:_17-&gt;doi:1014/tube/brent_cross</title>
<a xlink:href="http://www2.elsevier.co.uk/~tony/1014/yads-schema-2002-04-03#resource" target="_blank" onmouseover="show_status('http://www2.elsevier.co.uk/~tony/1014/yads-schema-2002-04-03#resource');">
<path style="fill:none;stroke:#add9e6" d="M725,890C727,901 729,914 732,926 733,929 734,932 735,935"/>
<polygon style="fill:#add9e6;stroke:#add9e6" points="732,935 738,944 737,934 732,935"/>
<text text-anchor="middle" x="773" y="921" style="font-family:arial">has:resource</text>
</a></g>
<g id="node66" class="node"><title>:_18</title>
<a xlink:href="http://www.w3.org/1999/02/22-rdf-syntax-ns#Bag" target="_blank" onmouseover="show_status('http://www.w3.org/1999/02/22-rdf-syntax-ns#Bag');">
<ellipse cx="870" cy="962" rx="28" ry="18" style="fill:#d2d2d2;stroke:#d2d2d2"/>
<text text-anchor="middle" x="870" y="966" style="font-family:arial">rdf:Bag</text>
</a></g>
<g id="edge65" class="edge"><title>:_17-&gt;:_18</title>
<a xlink:href="http://www2.elsevier.co.uk/~tony/1014/yads-schema-2002-04-03#collection" target="_blank" onmouseover="show_status('http://www2.elsevier.co.uk/~tony/1014/yads-schema-2002-04-03#collection');">
<path style="fill:none;stroke:#add9e6" d="M762,884C777,890 795,898 809,908 817,915 817,919 825,926 831,932 837,937 844,942"/>
<polygon style="fill:#add9e6;stroke:#add9e6" points="842,943 851,948 845,940 842,943"/>
<text text-anchor="middle" x="866" y="921" style="font-family:arial">has:collection</text>
</a></g>
<g id="node58" class="node"><title>:_16</title>
<ellipse cx="594" cy="1067" rx="33" ry="18" style="fill:#eedb82;stroke:#eedb82"/>
<text text-anchor="middle" x="594" y="1071" style="font-family:arial">tube:Mins</text>
</g>
<g id="edge57" class="edge"><title>:_15-&gt;:_16</title>
<a xlink:href="http://www.w3.org/1999/02/22-rdf-syntax-ns#_1" target="_blank" onmouseover="show_status('http://www.w3.org/1999/02/22-rdf-syntax-ns#_1');">
<path style="fill:none;stroke:#add9e6" d="M614,980C611,996 605,1021 600,1040"/>
<polygon style="fill:#add9e6;stroke:#add9e6" points="598,1039 598,1049 603,1040 598,1039"/>
<text text-anchor="middle" x="631" y="1011" style="font-family:arial">rdf:_1</text>
</a></g>
<g id="node61" class="node"><title>data:,3</title>
<a xlink:href="" onclick="show_data('3');" onmouseover="show_status('data:,3');">
<ellipse cx="584" cy="1157" rx="27" ry="18" style="fill:#dca0dd;stroke:#dca0dd"/>
<text text-anchor="middle" x="584" y="1161" style="font-family:arial">data:,3</text>
</a></g>
<g id="edge60" class="edge"><title>:_16-&gt;data:,3</title>
<a xlink:href="http://www2.elsevier.co.uk/~tony/1014/yads-schema-2002-04-03#resource" target="_blank" onmouseover="show_status('http://www2.elsevier.co.uk/~tony/1014/yads-schema-2002-04-03#resource');">
<path style="fill:none;stroke:#add9e6" d="M592,1085C590,1098 589,1115 587,1130"/>
<polygon style="fill:#add9e6;stroke:#add9e6" points="585,1129 586,1139 590,1129 585,1129"/>
<text text-anchor="middle" x="632" y="1116" style="font-family:arial">has:resource</text>
</a></g>
<g id="node68" class="node"><title>:_19</title>
<ellipse cx="846" cy="1067" rx="33" ry="18" style="fill:#eedb82;stroke:#eedb82"/>
<text text-anchor="middle" x="846" y="1071" style="font-family:arial">tube:Mins</text>
</g>
<g id="edge67" class="edge"><title>:_18-&gt;:_19</title>
<a xlink:href="http://www.w3.org/1999/02/22-rdf-syntax-ns#_1" target="_blank" onmouseover="show_status('http://www.w3.org/1999/02/22-rdf-syntax-ns#_1');">
<path style="fill:none;stroke:#add9e6" d="M864,980C862,985 860,992 858,998 855,1012 852,1027 849,1040"/>
<polygon style="fill:#add9e6;stroke:#add9e6" points="847,1039 848,1049 852,1039 847,1039"/>
<text text-anchor="middle" x="878" y="1011" style="font-family:arial">rdf:_1</text>
</a></g>
<g id="node71" class="node"><title>data:,2</title>
<a xlink:href="" onclick="show_data('2');" onmouseover="show_status('data:,2');">
<ellipse cx="836" cy="1157" rx="27" ry="18" style="fill:#dca0dd;stroke:#dca0dd"/>
<text text-anchor="middle" x="836" y="1161" style="font-family:arial">data:,2</text>
</a></g>
<g id="edge70" class="edge"><title>:_19-&gt;data:,2</title>
<a xlink:href="http://www2.elsevier.co.uk/~tony/1014/yads-schema-2002-04-03#resource" target="_blank" onmouseover="show_status('http://www2.elsevier.co.uk/~tony/1014/yads-schema-2002-04-03#resource');">
<path style="fill:none;stroke:#add9e6" d="M829,1083C824,1089 819,1096 817,1103 813,1113 816,1123 820,1132"/>
<polygon style="fill:#add9e6;stroke:#add9e6" points="817,1132 824,1140 822,1130 817,1132"/>
<text text-anchor="middle" x="858" y="1116" style="font-family:arial">has:resource</text>
</a></g>
</g>
</svg>
