<?xml version="1.0" encoding="UTF-8" standalone="no"?>
<!DOCTYPE svg PUBLIC "-//W3C//DTD SVG 1.0//EN"
 "http://www.w3.org/TR/2001/REC-SVG-20010904/DTD/svg10.dtd" [
 <!ATTLIST svg xmlns:xlink CDATA #FIXED "http://www.w3.org/1999/xlink">
]>
<!-- Generated by dot version 1.8.5 (Tue Apr 23 17:19:23  2002)
     For user: (Administrator) ,S-1-5-21-1454471165-688789844-1708537768-500   Title: yads    Pages: 1 -->
<svg width="1383px" height="1280px"
 xmlns="http://www.w3.org/2000/svg" xmlns:xlink="http://www.w3.org/1999/xlink">
<g id="graph0" class="graph" style="font-family:Times-Roman;font-size:11.00">
<title>yads</title>
<text text-anchor="middle" x="691" y="1269" style="font-family:arial;font-size:24.00">YADS - A Description Service</text>
<g id="graph2" class="cluster"><title>cluster_1</title>
<polygon style="fill:none;stroke:#d2d2d2;stroke-dasharray:5,2" points="19,1237 1364,1237 1364,43 19,43 19,1237"/>
<text text-anchor="middle" x="98" y="55" style="font-family:arial">Nest - Leytonstone Station</text>
</g>
<g id="graph3" class="cluster"><title>cluster_3</title>
<polygon style="fill:none;stroke:#d2d2d2;stroke-dasharray:5,2" points="27,1229 1356,1229 1356,238 27,238 27,1229"/>
<text text-anchor="middle" x="99" y="250" style="font-family:arial">Nest - Application Profile</text>
</g>
<g id="graph4" class="cluster"><title>cluster_5</title>
<polygon style="fill:none;stroke:#d2d2d2;stroke-dasharray:5,2" points="35,795 408,795 408,433 35,433 35,795"/>
<text text-anchor="middle" x="80" y="445" style="font-family:arial">Item - Location</text>
</g>
<g id="graph5" class="cluster"><title>cluster_7</title>
<polygon style="fill:none;stroke:#d2d2d2;stroke-dasharray:5,2" points="43,787 165,787 165,628 43,628 43,787"/>
<text text-anchor="middle" x="59" y="640" style="font-family:arial">Item</text>
</g>
<g id="graph6" class="cluster"><title>cluster_8</title>
<polygon style="fill:none;stroke:#d2d2d2;stroke-dasharray:5,2" points="173,787 295,787 295,628 173,628 173,787"/>
<text text-anchor="middle" x="189" y="640" style="font-family:arial">Item</text>
</g>
<g id="graph7" class="cluster"><title>cluster_9</title>
<polygon style="fill:none;stroke:#d2d2d2;stroke-dasharray:5,2" points="303,787 400,787 400,628 303,628 303,787"/>
<text text-anchor="middle" x="319" y="640" style="font-family:arial">Item</text>
</g>
<g id="graph8" class="cluster"><title>cluster_10</title>
<polygon style="fill:none;stroke:#d2d2d2;stroke-dasharray:5,2" points="416,1221 1348,1221 1348,433 416,433 416,1221"/>
<text text-anchor="middle" x="485" y="445" style="font-family:arial">Item - Line Interchanges</text>
</g>
<g id="graph9" class="cluster"><title>cluster_12</title>
<polygon style="fill:none;stroke:#d2d2d2;stroke-dasharray:5,2" points="424,1213 904,1213 904,628 424,628 424,1213"/>
<text text-anchor="middle" x="492" y="640" style="font-family:arial">Nest - Line Interchange</text>
</g>
<g id="graph10" class="cluster"><title>cluster_14</title>
<polygon style="fill:none;stroke:#d2d2d2;stroke-dasharray:5,2" points="432,1205 642,1205 642,829 432,829 432,1205"/>
<text text-anchor="middle" x="500" y="841" style="font-family:arial">Nest - Next Stop Back</text>
</g>
<g id="graph11" class="cluster"><title>cluster_16</title>
<polygon style="fill:none;stroke:#d2d2d2;stroke-dasharray:5,2" points="488,1197 585,1197 585,1024 488,1024 488,1197"/>
<text text-anchor="middle" x="504" y="1036" style="font-family:arial">Item</text>
</g>
<g id="graph12" class="cluster"><title>cluster_17</title>
<polygon style="fill:none;stroke:#d2d2d2;stroke-dasharray:5,2" points="650,1205 896,1205 896,829 650,829 650,1205"/>
<text text-anchor="middle" x="702" y="841" style="font-family:arial">Nest - Next Stop</text>
</g>
<g id="graph13" class="cluster"><title>cluster_19</title>
<polygon style="fill:none;stroke:#d2d2d2;stroke-dasharray:5,2" points="791,1197 888,1197 888,1024 791,1024 791,1197"/>
<text text-anchor="middle" x="807" y="1036" style="font-family:arial">Item</text>
</g>
<g id="graph14" class="cluster"><title>cluster_20</title>
<polygon style="fill:none;stroke:#d2d2d2;stroke-dasharray:5,2" points="962,1109 1340,1109 1340,628 962,628 962,1109"/>
<text text-anchor="middle" x="1030" y="640" style="font-family:arial">Nest - Line Interchange</text>
</g>
<g id="graph15" class="cluster"><title>cluster_22</title>
<polygon style="fill:none;stroke:#d2d2d2;stroke-dasharray:5,2" points="970,1101 1092,1101 1092,829 970,829 970,1101"/>
<text text-anchor="middle" x="1038" y="841" style="font-family:arial">Nest - Next Stop Back</text>
</g>
<g id="graph16" class="cluster"><title>cluster_24</title>
<polygon style="fill:none;stroke:#d2d2d2;stroke-dasharray:5,2" points="978,1093 1060,1093 1060,1024 978,1024 978,1093"/>
<text text-anchor="middle" x="994" y="1036" style="font-family:arial">Item</text>
</g>
<g id="graph17" class="cluster"><title>cluster_25</title>
<polygon style="fill:none;stroke:#d2d2d2;stroke-dasharray:5,2" points="1100,1101 1332,1101 1332,829 1100,829 1100,1101"/>
<text text-anchor="middle" x="1152" y="841" style="font-family:arial">Nest - Next Stop</text>
</g>
<g id="graph18" class="cluster"><title>cluster_27</title>
<polygon style="fill:none;stroke:#d2d2d2;stroke-dasharray:5,2" points="1142,1093 1224,1093 1224,1024 1142,1024 1142,1093"/>
<text text-anchor="middle" x="1158" y="1036" style="font-family:arial">Item</text>
</g>
<g id="node2" class="node"><title>:_1</title>
<ellipse cx="281" cy="86" rx="40" ry="18" style="fill:#eedb82;stroke:#eedb82"/>
<text text-anchor="middle" x="281" y="90" style="font-family:arial">tube:Station</text>
</g>
<g id="node4" class="node"><title>doi:1014/tube/leytonstone</title>
<a xlink:href="http://dx.doi.org/1014/tube/leytonstone" target="_blank" onmouseover="show_status('http://dx.doi.org/1014/tube/leytonstone');">
<ellipse cx="149" cy="176" rx="75" ry="18" style="fill:#dca0dd;stroke:#dca0dd"/>
<text text-anchor="middle" x="149" y="180" style="font-family:arial">doi:1014/tube/leytonstone</text>
</a></g>
<g id="edge3" class="edge"><title>:_1-&gt;doi:1014/tube/leytonstone</title>
<a xlink:href="http://www2.elsevier.co.uk/~tony/1014/yads-schema-2002-04-03#resource" target="_blank" onmouseover="show_status('http://www2.elsevier.co.uk/~tony/1014/yads-schema-2002-04-03#resource');">
<path style="fill:none;stroke:#add9e6" d="M248,96C231,102 212,111 196,122 186,130 175,141 167,151"/>
<polygon style="fill:#add9e6;stroke:#add9e6" points="166,148 162,158 170,151 166,148"/>
<text text-anchor="middle" x="243" y="135" style="font-family:arial">has:resource</text>
</a></g>
<g id="node6" class="node"><title>node_1</title>
<polygon style="fill:#6497ed;stroke:#6497ed" points="320,158 242,158 242,194 320,194 320,158"/>
<text text-anchor="middle" x="281" y="180" style="font-family:arial">Leytonstone</text>
</g>
<g id="edge5" class="edge"><title>:_1-&gt;node_1</title>
<a xlink:href="http://www2.elsevier.co.uk/~tony/1014/yads-schema-2002-04-03#label" target="_blank" onmouseover="show_status('http://www2.elsevier.co.uk/~tony/1014/yads-schema-2002-04-03#label');">
<path style="fill:none;stroke:#add9e6" d="M281,104C281,117 281,134 281,149"/>
<polygon style="fill:#add9e6;stroke:#add9e6" points="279,148 281,158 284,148 279,148"/>
<text text-anchor="middle" x="308" y="135" style="font-family:arial">has:label</text>
</a></g>
<g id="node8" class="node"><title>:_2</title>
<a xlink:href="http://www.w3.org/1999/02/22-rdf-syntax-ns#Bag" target="_blank" onmouseover="show_status('http://www.w3.org/1999/02/22-rdf-syntax-ns#Bag');">
<ellipse cx="366" cy="176" rx="28" ry="18" style="fill:#d2d2d2;stroke:#d2d2d2"/>
<text text-anchor="middle" x="366" y="180" style="font-family:arial">rdf:Bag</text>
</a></g>
<g id="edge7" class="edge"><title>:_1-&gt;:_2</title>
<a xlink:href="http://www2.elsevier.co.uk/~tony/1014/yads-schema-2002-04-03#collection" target="_blank" onmouseover="show_status('http://www2.elsevier.co.uk/~tony/1014/yads-schema-2002-04-03#collection');">
<path style="fill:none;stroke:#add9e6" d="M309,99C320,105 332,113 340,122 347,130 353,140 357,150"/>
<polygon style="fill:#add9e6;stroke:#add9e6" points="354,150 360,158 359,148 354,150"/>
<text text-anchor="middle" x="394" y="135" style="font-family:arial">has:collection</text>
</a></g>
<g id="node10" class="node"><title>:_3</title>
<ellipse cx="366" cy="281" rx="34" ry="18" style="fill:#eedb82;stroke:#eedb82"/>
<text text-anchor="middle" x="366" y="285" style="font-family:arial">doi:Profile</text>
</g>
<g id="edge9" class="edge"><title>:_2-&gt;:_3</title>
<a xlink:href="http://www.w3.org/1999/02/22-rdf-syntax-ns#_1" target="_blank" onmouseover="show_status('http://www.w3.org/1999/02/22-rdf-syntax-ns#_1');">
<path style="fill:none;stroke:#add9e6" d="M366,194C366,210 366,235 366,254"/>
<polygon style="fill:#add9e6;stroke:#add9e6" points="364,253 366,263 369,253 364,253"/>
<text text-anchor="middle" x="386" y="225" style="font-family:arial">rdf:_1</text>
</a></g>
<g id="node13" class="node"><title>doi:1014/profile.tube</title>
<a xlink:href="http://dx.doi.org/1014/profile.tube" target="_blank" onmouseover="show_status('http://dx.doi.org/1014/profile.tube');">
<ellipse cx="338" cy="371" rx="59" ry="18" style="fill:#dca0dd;stroke:#dca0dd"/>
<text text-anchor="middle" x="338" y="375" style="font-family:arial">doi:1014/profile.tube</text>
</a></g>
<g id="edge12" class="edge"><title>:_3-&gt;doi:1014/profile.tube</title>
<a xlink:href="http://www2.elsevier.co.uk/~tony/1014/yads-schema-2002-04-03#resource" target="_blank" onmouseover="show_status('http://www2.elsevier.co.uk/~tony/1014/yads-schema-2002-04-03#resource');">
<path style="fill:none;stroke:#add9e6" d="M360,299C356,312 350,329 346,344"/>
<polygon style="fill:#add9e6;stroke:#add9e6" points="344,343 343,353 349,344 344,343"/>
<text text-anchor="middle" x="396" y="330" style="font-family:arial">has:resource</text>
</a></g>
<g id="node15" class="node"><title>:_4</title>
<a xlink:href="http://www.w3.org/1999/02/22-rdf-syntax-ns#Bag" target="_blank" onmouseover="show_status('http://www.w3.org/1999/02/22-rdf-syntax-ns#Bag');">
<ellipse cx="443" cy="371" rx="28" ry="18" style="fill:#d2d2d2;stroke:#d2d2d2"/>
<text text-anchor="middle" x="443" y="375" style="font-family:arial">rdf:Bag</text>
</a></g>
<g id="edge14" class="edge"><title>:_3-&gt;:_4</title>
<a xlink:href="http://www2.elsevier.co.uk/~tony/1014/yads-schema-2002-04-03#collection" target="_blank" onmouseover="show_status('http://www2.elsevier.co.uk/~tony/1014/yads-schema-2002-04-03#collection');">
<path style="fill:none;stroke:#add9e6" d="M397,288C413,294 430,303 440,317 445,325 447,335 447,344"/>
<polygon style="fill:#add9e6;stroke:#add9e6" points="445,343 447,353 450,343 445,343"/>
<text text-anchor="middle" x="489" y="330" style="font-family:arial">has:collection</text>
</a></g>
<g id="node17" class="node"><title>:_5</title>
<a xlink:href="http://www2.elsevier.co.uk/~tony/1014/yads-schema-2002-04-03#Item" target="_blank" onmouseover="show_status('http://www2.elsevier.co.uk/~tony/1014/yads-schema-2002-04-03#Item');">
<ellipse cx="369" cy="476" rx="28" ry="18" style="fill:#d2d2d2;stroke:#d2d2d2"/>
<text text-anchor="middle" x="369" y="480" style="font-family:arial">isa:Item</text>
</a></g>
<g id="edge16" class="edge"><title>:_4-&gt;:_5</title>
<a xlink:href="http://www.w3.org/1999/02/22-rdf-syntax-ns#_1" target="_blank" onmouseover="show_status('http://www.w3.org/1999/02/22-rdf-syntax-ns#_1');">
<path style="fill:none;stroke:#add9e6" d="M431,387C419,405 400,433 386,452"/>
<polygon style="fill:#add9e6;stroke:#add9e6" points="385,449 381,459 389,452 385,449"/>
<text text-anchor="middle" x="438" y="420" style="font-family:arial">rdf:_1</text>
</a></g>
<g id="node19" class="node"><title>:_10</title>
<a xlink:href="http://www2.elsevier.co.uk/~tony/1014/yads-schema-2002-04-03#Item" target="_blank" onmouseover="show_status('http://www2.elsevier.co.uk/~tony/1014/yads-schema-2002-04-03#Item');">
<ellipse cx="529" cy="476" rx="28" ry="18" style="fill:#d2d2d2;stroke:#d2d2d2"/>
<text text-anchor="middle" x="529" y="480" style="font-family:arial">isa:Item</text>
</a></g>
<g id="edge18" class="edge"><title>:_4-&gt;:_10</title>
<a xlink:href="http://www.w3.org/1999/02/22-rdf-syntax-ns#_2" target="_blank" onmouseover="show_status('http://www.w3.org/1999/02/22-rdf-syntax-ns#_2');">
<path style="fill:none;stroke:#add9e6" d="M456,387C470,404 494,433 511,453"/>
<polygon style="fill:#add9e6;stroke:#add9e6" points="508,453 516,460 512,450 508,453"/>
<text text-anchor="middle" x="509" y="420" style="font-family:arial">rdf:_2</text>
</a></g>
<g id="node22" class="node"><title>:_6</title>
<a xlink:href="http://www.w3.org/1999/02/22-rdf-syntax-ns#Bag" target="_blank" onmouseover="show_status('http://www.w3.org/1999/02/22-rdf-syntax-ns#Bag');">
<ellipse cx="266" cy="566" rx="28" ry="18" style="fill:#d2d2d2;stroke:#d2d2d2"/>
<text text-anchor="middle" x="266" y="570" style="font-family:arial">rdf:Bag</text>
</a></g>
<g id="edge21" class="edge"><title>:_5-&gt;:_6</title>
<a xlink:href="http://www2.elsevier.co.uk/~tony/1014/yads-schema-2002-04-03#collection" target="_blank" onmouseover="show_status('http://www2.elsevier.co.uk/~tony/1014/yads-schema-2002-04-03#collection');">
<path style="fill:none;stroke:#add9e6" d="M352,491C335,505 309,529 290,545"/>
<polygon style="fill:#add9e6;stroke:#add9e6" points="289,543 283,551 292,546 289,543"/>
<text text-anchor="middle" x="369" y="525" style="font-family:arial">has:collection</text>
</a></g>
<g id="node40" class="node"><title>:_11</title>
<a xlink:href="http://www.w3.org/1999/02/22-rdf-syntax-ns#Bag" target="_blank" onmouseover="show_status('http://www.w3.org/1999/02/22-rdf-syntax-ns#Bag');">
<ellipse cx="758" cy="566" rx="28" ry="18" style="fill:#d2d2d2;stroke:#d2d2d2"/>
<text text-anchor="middle" x="758" y="570" style="font-family:arial">rdf:Bag</text>
</a></g>
<g id="edge39" class="edge"><title>:_10-&gt;:_11</title>
<a xlink:href="http://www2.elsevier.co.uk/~tony/1014/yads-schema-2002-04-03#collection" target="_blank" onmouseover="show_status('http://www2.elsevier.co.uk/~tony/1014/yads-schema-2002-04-03#collection');">
<path style="fill:none;stroke:#add9e6" d="M553,485C594,502 678,534 725,553"/>
<polygon style="fill:#add9e6;stroke:#add9e6" points="724,555 734,557 726,551 724,555"/>
<text text-anchor="middle" x="706" y="525" style="font-family:arial">has:collection</text>
</a></g>
<g id="node24" class="node"><title>:_7</title>
<ellipse cx="104" cy="671" rx="35" ry="18" style="fill:#eedb82;stroke:#eedb82"/>
<text text-anchor="middle" x="104" y="675" style="font-family:arial">tube:Zone</text>
</g>
<g id="edge23" class="edge"><title>:_6-&gt;:_7</title>
<a xlink:href="http://www.w3.org/1999/02/22-rdf-syntax-ns#_1" target="_blank" onmouseover="show_status('http://www.w3.org/1999/02/22-rdf-syntax-ns#_1');">
<path style="fill:none;stroke:#add9e6" d="M244,577C232,585 224,591 206,602 181,619 152,638 132,652"/>
<polygon style="fill:#add9e6;stroke:#add9e6" points="132,649 125,657 135,653 132,649"/>
<text text-anchor="middle" x="232" y="615" style="font-family:arial">rdf:_1</text>
</a></g>
<g id="node26" class="node"><title>:_8</title>
<ellipse cx="234" cy="671" rx="35" ry="18" style="fill:#eedb82;stroke:#eedb82"/>
<text text-anchor="middle" x="234" y="675" style="font-family:arial">tube:Zone</text>
</g>
<g id="edge25" class="edge"><title>:_6-&gt;:_8</title>
<a xlink:href="http://www.w3.org/1999/02/22-rdf-syntax-ns#_2" target="_blank" onmouseover="show_status('http://www.w3.org/1999/02/22-rdf-syntax-ns#_2');">
<path style="fill:none;stroke:#add9e6" d="M261,584C256,600 248,626 242,645"/>
<polygon style="fill:#add9e6;stroke:#add9e6" points="240,643 239,653 245,645 240,643"/>
<text text-anchor="middle" x="277" y="615" style="font-family:arial">rdf:_2</text>
</a></g>
<g id="node28" class="node"><title>:_9</title>
<ellipse cx="343" cy="671" rx="32" ry="18" style="fill:#eedb82;stroke:#eedb82"/>
<text text-anchor="middle" x="343" y="675" style="font-family:arial">tube:Grid</text>
</g>
<g id="edge27" class="edge"><title>:_6-&gt;:_9</title>
<a xlink:href="http://www.w3.org/1999/02/22-rdf-syntax-ns#_3" target="_blank" onmouseover="show_status('http://www.w3.org/1999/02/22-rdf-syntax-ns#_3');">
<path style="fill:none;stroke:#add9e6" d="M283,581C290,587 297,594 303,602 314,615 323,632 331,646"/>
<polygon style="fill:#add9e6;stroke:#add9e6" points="328,646 335,653 332,643 328,646"/>
<text text-anchor="middle" x="337" y="615" style="font-family:arial">rdf:_3</text>
</a></g>
<g id="node31" class="node"><title>data:,Zone%203</title>
<a xlink:href="" onclick="show_data('Zone%203');" onmouseover="show_status('data:,Zone%203');">
<ellipse cx="104" cy="761" rx="53" ry="18" style="fill:#dca0dd;stroke:#dca0dd"/>
<text text-anchor="middle" x="104" y="765" style="font-family:arial">data:,Zone%203</text>
</a></g>
<g id="edge30" class="edge"><title>:_7-&gt;data:,Zone%203</title>
<a xlink:href="http://www2.elsevier.co.uk/~tony/1014/yads-schema-2002-04-03#resource" target="_blank" onmouseover="show_status('http://www2.elsevier.co.uk/~tony/1014/yads-schema-2002-04-03#resource');">
<path style="fill:none;stroke:#add9e6" d="M95,689C92,694 89,701 88,707 87,715 87,718 88,725 88,728 89,731 90,734"/>
<polygon style="fill:#add9e6;stroke:#add9e6" points="88,735 94,743 92,733 88,735"/>
<text text-anchor="middle" x="132" y="720" style="font-family:arial">has:resource</text>
</a></g>
<g id="node34" class="node"><title>data:,Zone%204</title>
<a xlink:href="" onclick="show_data('Zone%204');" onmouseover="show_status('data:,Zone%204');">
<ellipse cx="234" cy="761" rx="53" ry="18" style="fill:#dca0dd;stroke:#dca0dd"/>
<text text-anchor="middle" x="234" y="765" style="font-family:arial">data:,Zone%204</text>
</a></g>
<g id="edge33" class="edge"><title>:_8-&gt;data:,Zone%204</title>
<a xlink:href="http://www2.elsevier.co.uk/~tony/1014/yads-schema-2002-04-03#resource" target="_blank" onmouseover="show_status('http://www2.elsevier.co.uk/~tony/1014/yads-schema-2002-04-03#resource');">
<path style="fill:none;stroke:#add9e6" d="M225,689C222,694 219,701 218,707 217,715 217,718 218,725 218,728 219,731 220,734"/>
<polygon style="fill:#add9e6;stroke:#add9e6" points="218,735 224,743 222,733 218,735"/>
<text text-anchor="middle" x="262" y="720" style="font-family:arial">has:resource</text>
</a></g>
<g id="node37" class="node"><title>data:,B8</title>
<a xlink:href="" onclick="show_data('B8');" onmouseover="show_status('data:,B8');">
<ellipse cx="341" cy="761" rx="30" ry="18" style="fill:#dca0dd;stroke:#dca0dd"/>
<text text-anchor="middle" x="341" y="765" style="font-family:arial">data:,B8</text>
</a></g>
<g id="edge36" class="edge"><title>:_9-&gt;data:,B8</title>
<a xlink:href="http://www2.elsevier.co.uk/~tony/1014/yads-schema-2002-04-03#resource" target="_blank" onmouseover="show_status('http://www2.elsevier.co.uk/~tony/1014/yads-schema-2002-04-03#resource');">
<path style="fill:none;stroke:#add9e6" d="M341,689C340,695 339,701 339,707 338,716 339,725 339,733"/>
<polygon style="fill:#add9e6;stroke:#add9e6" points="337,733 340,743 341,733 337,733"/>
<text text-anchor="middle" x="383" y="720" style="font-family:arial">has:resource</text>
</a></g>
<g id="node42" class="node"><title>:_12</title>
<ellipse cx="758" cy="671" rx="53" ry="18" style="fill:#eedb82;stroke:#eedb82"/>
<text text-anchor="middle" x="758" y="675" style="font-family:arial">tube:LineChange</text>
</g>
<g id="edge41" class="edge"><title>:_11-&gt;:_12</title>
<a xlink:href="http://www.w3.org/1999/02/22-rdf-syntax-ns#_1" target="_blank" onmouseover="show_status('http://www.w3.org/1999/02/22-rdf-syntax-ns#_1');">
<path style="fill:none;stroke:#add9e6" d="M758,584C758,600 758,625 758,644"/>
<polygon style="fill:#add9e6;stroke:#add9e6" points="756,643 758,653 761,643 756,643"/>
<text text-anchor="middle" x="778" y="615" style="font-family:arial">rdf:_1</text>
</a></g>
<g id="node44" class="node"><title>:_20</title>
<ellipse cx="1023" cy="671" rx="53" ry="18" style="fill:#eedb82;stroke:#eedb82"/>
<text text-anchor="middle" x="1023" y="675" style="font-family:arial">tube:LineChange</text>
</g>
<g id="edge43" class="edge"><title>:_11-&gt;:_20</title>
<a xlink:href="http://www.w3.org/1999/02/22-rdf-syntax-ns#_2" target="_blank" onmouseover="show_status('http://www.w3.org/1999/02/22-rdf-syntax-ns#_2');">
<path style="fill:none;stroke:#add9e6" d="M782,576C827,593 925,632 981,654"/>
<polygon style="fill:#add9e6;stroke:#add9e6" points="979,656 989,657 981,651 979,656"/>
<text text-anchor="middle" x="915" y="615" style="font-family:arial">rdf:_2</text>
</a></g>
<g id="node47" class="node"><title>doi:1014/tube/central_line</title>
<a xlink:href="http://dx.doi.org/1014/tube/central_line" target="_blank" onmouseover="show_status('http://dx.doi.org/1014/tube/central_line');">
<ellipse cx="822" cy="761" rx="74" ry="18" style="fill:#dca0dd;stroke:#dca0dd"/>
<text text-anchor="middle" x="822" y="765" style="font-family:arial">doi:1014/tube/central_line</text>
</a></g>
<g id="edge46" class="edge"><title>:_12-&gt;doi:1014/tube/central_line</title>
<a xlink:href="http://www2.elsevier.co.uk/~tony/1014/yads-schema-2002-04-03#resource" target="_blank" onmouseover="show_status('http://www2.elsevier.co.uk/~tony/1014/yads-schema-2002-04-03#resource');">
<path style="fill:none;stroke:#add9e6" d="M788,686C797,691 805,699 811,707 816,715 819,725 821,734"/>
<polygon style="fill:#add9e6;stroke:#add9e6" points="818,733 822,743 823,733 818,733"/>
<text text-anchor="middle" x="861" y="720" style="font-family:arial">has:resource</text>
</a></g>
<g id="node49" class="node"><title>:_13</title>
<a xlink:href="http://www.w3.org/1999/02/22-rdf-syntax-ns#Bag" target="_blank" onmouseover="show_status('http://www.w3.org/1999/02/22-rdf-syntax-ns#Bag');">
<ellipse cx="702" cy="761" rx="28" ry="18" style="fill:#d2d2d2;stroke:#d2d2d2"/>
<text text-anchor="middle" x="702" y="765" style="font-family:arial">rdf:Bag</text>
</a></g>
<g id="edge48" class="edge"><title>:_12-&gt;:_13</title>
<a xlink:href="http://www2.elsevier.co.uk/~tony/1014/yads-schema-2002-04-03#collection" target="_blank" onmouseover="show_status('http://www2.elsevier.co.uk/~tony/1014/yads-schema-2002-04-03#collection');">
<path style="fill:none;stroke:#add9e6" d="M741,688C736,694 730,701 726,707 721,716 716,726 712,734"/>
<polygon style="fill:#add9e6;stroke:#add9e6" points="710,733 709,743 715,734 710,733"/>
<text text-anchor="middle" x="770" y="720" style="font-family:arial">has:collection</text>
</a></g>
<g id="edge75" class="edge"><title>:_20-&gt;doi:1014/tube/central_line</title>
<a xlink:href="http://www2.elsevier.co.uk/~tony/1014/yads-schema-2002-04-03#resource" target="_blank" onmouseover="show_status('http://www2.elsevier.co.uk/~tony/1014/yads-schema-2002-04-03#resource');">
<path style="fill:none;stroke:#add9e6" d="M991,685C976,692 958,700 942,707 926,715 922,718 905,725 893,731 880,736 869,741"/>
<polygon style="fill:#add9e6;stroke:#add9e6" points="868,739 860,745 870,743 868,739"/>
<text text-anchor="middle" x="990" y="720" style="font-family:arial">has:resource</text>
</a></g>
<g id="node77" class="node"><title>:_21</title>
<a xlink:href="http://www.w3.org/1999/02/22-rdf-syntax-ns#Bag" target="_blank" onmouseover="show_status('http://www.w3.org/1999/02/22-rdf-syntax-ns#Bag');">
<ellipse cx="1031" cy="761" rx="28" ry="18" style="fill:#d2d2d2;stroke:#d2d2d2"/>
<text text-anchor="middle" x="1031" y="765" style="font-family:arial">rdf:Bag</text>
</a></g>
<g id="edge77" class="edge"><title>:_20-&gt;:_21</title>
<a xlink:href="http://www2.elsevier.co.uk/~tony/1014/yads-schema-2002-04-03#collection" target="_blank" onmouseover="show_status('http://www2.elsevier.co.uk/~tony/1014/yads-schema-2002-04-03#collection');">
<path style="fill:none;stroke:#add9e6" d="M1025,689C1026,702 1027,719 1028,734"/>
<polygon style="fill:#add9e6;stroke:#add9e6" points="1025,733 1029,743 1030,733 1025,733"/>
<text text-anchor="middle" x="1070" y="720" style="font-family:arial">has:collection</text>
</a></g>
<g id="node51" class="node"><title>:_14</title>
<ellipse cx="553" cy="872" rx="53" ry="18" style="fill:#eedb82;stroke:#eedb82"/>
<text text-anchor="middle" x="553" y="876" style="font-family:arial">tube:PrevStation</text>
</g>
<g id="edge50" class="edge"><title>:_13-&gt;:_14</title>
<a xlink:href="http://www.w3.org/1999/02/22-rdf-syntax-ns#_1" target="_blank" onmouseover="show_status('http://www.w3.org/1999/02/22-rdf-syntax-ns#_1');">
<path style="fill:none;stroke:#add9e6" d="M683,775C657,795 611,829 581,851"/>
<polygon style="fill:#add9e6;stroke:#add9e6" points="581,848 575,856 584,852 581,848"/>
<text text-anchor="middle" x="668" y="816" style="font-family:arial">rdf:_1</text>
</a></g>
<g id="node53" class="node"><title>:_17</title>
<ellipse cx="711" cy="872" rx="53" ry="18" style="fill:#eedb82;stroke:#eedb82"/>
<text text-anchor="middle" x="711" y="876" style="font-family:arial">tube:NextStation</text>
</g>
<g id="edge52" class="edge"><title>:_13-&gt;:_17</title>
<a xlink:href="http://www.w3.org/1999/02/22-rdf-syntax-ns#_2" target="_blank" onmouseover="show_status('http://www.w3.org/1999/02/22-rdf-syntax-ns#_2');">
<path style="fill:none;stroke:#add9e6" d="M703,779C705,797 707,824 709,845"/>
<polygon style="fill:#add9e6;stroke:#add9e6" points="707,844 709,854 712,844 707,844"/>
<text text-anchor="middle" x="729" y="816" style="font-family:arial">rdf:_2</text>
</a></g>
<g id="node56" class="node"><title>doi:1014/tube/leyton</title>
<a xlink:href="http://dx.doi.org/1014/tube/leyton" target="_blank" onmouseover="show_status('http://dx.doi.org/1014/tube/leyton');">
<ellipse cx="574" cy="962" rx="60" ry="18" style="fill:#dca0dd;stroke:#dca0dd"/>
<text text-anchor="middle" x="574" y="966" style="font-family:arial">doi:1014/tube/leyton</text>
</a></g>
<g id="edge55" class="edge"><title>:_14-&gt;doi:1014/tube/leyton</title>
<a xlink:href="http://www2.elsevier.co.uk/~tony/1014/yads-schema-2002-04-03#resource" target="_blank" onmouseover="show_status('http://www2.elsevier.co.uk/~tony/1014/yads-schema-2002-04-03#resource');">
<path style="fill:none;stroke:#add9e6" d="M557,890C559,901 562,914 565,926 565,929 566,932 567,934"/>
<polygon style="fill:#add9e6;stroke:#add9e6" points="565,935 569,944 569,934 565,935"/>
<text text-anchor="middle" x="606" y="921" style="font-family:arial">has:resource</text>
</a></g>
<g id="node58" class="node"><title>:_15</title>
<a xlink:href="http://www.w3.org/1999/02/22-rdf-syntax-ns#Bag" target="_blank" onmouseover="show_status('http://www.w3.org/1999/02/22-rdf-syntax-ns#Bag');">
<ellipse cx="468" cy="962" rx="28" ry="18" style="fill:#d2d2d2;stroke:#d2d2d2"/>
<text text-anchor="middle" x="468" y="966" style="font-family:arial">rdf:Bag</text>
</a></g>
<g id="edge57" class="edge"><title>:_14-&gt;:_15</title>
<a xlink:href="http://www2.elsevier.co.uk/~tony/1014/yads-schema-2002-04-03#collection" target="_blank" onmouseover="show_status('http://www2.elsevier.co.uk/~tony/1014/yads-schema-2002-04-03#collection');">
<path style="fill:none;stroke:#add9e6" d="M512,884C499,889 486,897 477,908 472,915 469,926 468,935"/>
<polygon style="fill:#add9e6;stroke:#add9e6" points="466,934 467,944 471,934 466,934"/>
<text text-anchor="middle" x="521" y="921" style="font-family:arial">has:collection</text>
</a></g>
<g id="node66" class="node"><title>doi:1014/tube/snaresbrook</title>
<a xlink:href="http://dx.doi.org/1014/tube/snaresbrook" target="_blank" onmouseover="show_status('http://dx.doi.org/1014/tube/snaresbrook');">
<ellipse cx="736" cy="962" rx="78" ry="18" style="fill:#dca0dd;stroke:#dca0dd"/>
<text text-anchor="middle" x="736" y="966" style="font-family:arial">doi:1014/tube/snaresbrook</text>
</a></g>
<g id="edge65" class="edge"><title>:_17-&gt;doi:1014/tube/snaresbrook</title>
<a xlink:href="http://www2.elsevier.co.uk/~tony/1014/yads-schema-2002-04-03#resource" target="_blank" onmouseover="show_status('http://www2.elsevier.co.uk/~tony/1014/yads-schema-2002-04-03#resource');">
<path style="fill:none;stroke:#add9e6" d="M713,890C715,901 717,914 720,926 721,929 722,932 723,935"/>
<polygon style="fill:#add9e6;stroke:#add9e6" points="721,936 727,944 725,934 721,936"/>
<text text-anchor="middle" x="761" y="921" style="font-family:arial">has:resource</text>
</a></g>
<g id="node68" class="node"><title>:_18</title>
<a xlink:href="http://www.w3.org/1999/02/22-rdf-syntax-ns#Bag" target="_blank" onmouseover="show_status('http://www.w3.org/1999/02/22-rdf-syntax-ns#Bag');">
<ellipse cx="860" cy="962" rx="28" ry="18" style="fill:#d2d2d2;stroke:#d2d2d2"/>
<text text-anchor="middle" x="860" y="966" style="font-family:arial">rdf:Bag</text>
</a></g>
<g id="edge67" class="edge"><title>:_17-&gt;:_18</title>
<a xlink:href="http://www2.elsevier.co.uk/~tony/1014/yads-schema-2002-04-03#collection" target="_blank" onmouseover="show_status('http://www2.elsevier.co.uk/~tony/1014/yads-schema-2002-04-03#collection');">
<path style="fill:none;stroke:#add9e6" d="M754,883C771,889 790,897 805,908 814,915 813,919 819,926 824,931 830,937 835,941"/>
<polygon style="fill:#add9e6;stroke:#add9e6" points="833,943 842,948 837,939 833,943"/>
<text text-anchor="middle" x="860" y="921" style="font-family:arial">has:collection</text>
</a></g>
<g id="node60" class="node"><title>:_16</title>
<ellipse cx="529" cy="1067" rx="33" ry="18" style="fill:#eedb82;stroke:#eedb82"/>
<text text-anchor="middle" x="529" y="1071" style="font-family:arial">tube:Mins</text>
</g>
<g id="edge59" class="edge"><title>:_15-&gt;:_16</title>
<a xlink:href="http://www.w3.org/1999/02/22-rdf-syntax-ns#_1" target="_blank" onmouseover="show_status('http://www.w3.org/1999/02/22-rdf-syntax-ns#_1');">
<path style="fill:none;stroke:#add9e6" d="M478,979C488,997 503,1023 514,1042"/>
<polygon style="fill:#add9e6;stroke:#add9e6" points="512,1043 519,1050 516,1040 512,1043"/>
<text text-anchor="middle" x="519" y="1011" style="font-family:arial">rdf:_1</text>
</a></g>
<g id="node63" class="node"><title>data:,2</title>
<a xlink:href="" onclick="show_data('2');" onmouseover="show_status('data:,2');">
<ellipse cx="536" cy="1171" rx="27" ry="18" style="fill:#dca0dd;stroke:#dca0dd"/>
<text text-anchor="middle" x="536" y="1175" style="font-family:arial">data:,2</text>
</a></g>
<g id="edge62" class="edge"><title>:_16-&gt;data:,2</title>
<a xlink:href="http://www2.elsevier.co.uk/~tony/1014/yads-schema-2002-04-03#resource" target="_blank" onmouseover="show_status('http://www2.elsevier.co.uk/~tony/1014/yads-schema-2002-04-03#resource');">
<path style="fill:none;stroke:#add9e6" d="M530,1085C531,1101 532,1125 534,1144"/>
<polygon style="fill:#add9e6;stroke:#add9e6" points="531,1143 535,1153 536,1143 531,1143"/>
<text text-anchor="middle" x="576" y="1130" style="font-family:arial">has:resource</text>
</a></g>
<g id="node70" class="node"><title>:_19</title>
<ellipse cx="836" cy="1067" rx="33" ry="18" style="fill:#eedb82;stroke:#eedb82"/>
<text text-anchor="middle" x="836" y="1071" style="font-family:arial">tube:Mins</text>
</g>
<g id="edge69" class="edge"><title>:_18-&gt;:_19</title>
<a xlink:href="http://www.w3.org/1999/02/22-rdf-syntax-ns#_1" target="_blank" onmouseover="show_status('http://www.w3.org/1999/02/22-rdf-syntax-ns#_1');">
<path style="fill:none;stroke:#add9e6" d="M856,980C853,996 847,1021 842,1040"/>
<polygon style="fill:#add9e6;stroke:#add9e6" points="840,1039 840,1049 845,1040 840,1039"/>
<text text-anchor="middle" x="873" y="1011" style="font-family:arial">rdf:_1</text>
</a></g>
<g id="node73" class="node"><title>data:,3</title>
<a xlink:href="" onclick="show_data('3');" onmouseover="show_status('data:,3');">
<ellipse cx="839" cy="1171" rx="27" ry="18" style="fill:#dca0dd;stroke:#dca0dd"/>
<text text-anchor="middle" x="839" y="1175" style="font-family:arial">data:,3</text>
</a></g>
<g id="edge72" class="edge"><title>:_19-&gt;data:,3</title>
<a xlink:href="http://www2.elsevier.co.uk/~tony/1014/yads-schema-2002-04-03#resource" target="_blank" onmouseover="show_status('http://www2.elsevier.co.uk/~tony/1014/yads-schema-2002-04-03#resource');">
<path style="fill:none;stroke:#add9e6" d="M837,1085C837,1101 838,1125 838,1144"/>
<polygon style="fill:#add9e6;stroke:#add9e6" points="836,1143 838,1153 841,1143 836,1143"/>
<text text-anchor="middle" x="880" y="1130" style="font-family:arial">has:resource</text>
</a></g>
<g id="node79" class="node"><title>:_22</title>
<ellipse cx="1031" cy="872" rx="53" ry="18" style="fill:#eedb82;stroke:#eedb82"/>
<text text-anchor="middle" x="1031" y="876" style="font-family:arial">tube:PrevStation</text>
</g>
<g id="edge79" class="edge"><title>:_21-&gt;:_22</title>
<a xlink:href="http://www.w3.org/1999/02/22-rdf-syntax-ns#_1" target="_blank" onmouseover="show_status('http://www.w3.org/1999/02/22-rdf-syntax-ns#_1');">
<path style="fill:none;stroke:#add9e6" d="M1031,779C1031,797 1031,824 1031,845"/>
<polygon style="fill:#add9e6;stroke:#add9e6" points="1029,844 1031,854 1034,844 1029,844"/>
<text text-anchor="middle" x="1051" y="816" style="font-family:arial">rdf:_1</text>
</a></g>
<g id="node81" class="node"><title>:_25</title>
<ellipse cx="1161" cy="872" rx="53" ry="18" style="fill:#eedb82;stroke:#eedb82"/>
<text text-anchor="middle" x="1161" y="876" style="font-family:arial">tube:NextStation</text>
</g>
<g id="edge81" class="edge"><title>:_21-&gt;:_25</title>
<a xlink:href="http://www.w3.org/1999/02/22-rdf-syntax-ns#_2" target="_blank" onmouseover="show_status('http://www.w3.org/1999/02/22-rdf-syntax-ns#_2');">
<path style="fill:none;stroke:#add9e6" d="M1048,776C1070,795 1109,828 1136,850"/>
<polygon style="fill:#add9e6;stroke:#add9e6" points="1132,850 1141,855 1136,846 1132,850"/>
<text text-anchor="middle" x="1122" y="816" style="font-family:arial">rdf:_2</text>
</a></g>
<g id="edge84" class="edge"><title>:_22-&gt;doi:1014/tube/leyton</title>
<a xlink:href="http://www2.elsevier.co.uk/~tony/1014/yads-schema-2002-04-03#resource" target="_blank" onmouseover="show_status('http://www2.elsevier.co.uk/~tony/1014/yads-schema-2002-04-03#resource');">
<path style="fill:none;stroke:#add9e6" d="M990,884C970,890 957,895 929,908 916,915 915,922 900,926 793,961 758,927 646,944 639,946 632,947 626,949"/>
<polygon style="fill:#add9e6;stroke:#add9e6" points="629,946 619,950 629,951 629,946"/>
<text text-anchor="middle" x="977" y="921" style="font-family:arial">has:resource</text>
</a></g>
<g id="node85" class="node"><title>:_23</title>
<a xlink:href="http://www.w3.org/1999/02/22-rdf-syntax-ns#Bag" target="_blank" onmouseover="show_status('http://www.w3.org/1999/02/22-rdf-syntax-ns#Bag');">
<ellipse cx="1012" cy="962" rx="28" ry="18" style="fill:#d2d2d2;stroke:#d2d2d2"/>
<text text-anchor="middle" x="1012" y="966" style="font-family:arial">rdf:Bag</text>
</a></g>
<g id="edge86" class="edge"><title>:_22-&gt;:_23</title>
<a xlink:href="http://www2.elsevier.co.uk/~tony/1014/yads-schema-2002-04-03#collection" target="_blank" onmouseover="show_status('http://www2.elsevier.co.uk/~tony/1014/yads-schema-2002-04-03#collection');">
<path style="fill:none;stroke:#add9e6" d="M1022,890C1019,896 1017,902 1015,908 1013,917 1012,926 1012,935"/>
<polygon style="fill:#add9e6;stroke:#add9e6" points="1010,934 1012,944 1015,934 1010,934"/>
<text text-anchor="middle" x="1059" y="921" style="font-family:arial">has:collection</text>
</a></g>
<g id="node92" class="node"><title>doi:1014/tube/wanstead</title>
<a xlink:href="http://dx.doi.org/1014/tube/wanstead" target="_blank" onmouseover="show_status('http://dx.doi.org/1014/tube/wanstead');">
<ellipse cx="1179" cy="962" rx="71" ry="18" style="fill:#dca0dd;stroke:#dca0dd"/>
<text text-anchor="middle" x="1179" y="966" style="font-family:arial">doi:1014/tube/wanstead</text>
</a></g>
<g id="edge94" class="edge"><title>:_25-&gt;doi:1014/tube/wanstead</title>
<a xlink:href="http://www2.elsevier.co.uk/~tony/1014/yads-schema-2002-04-03#resource" target="_blank" onmouseover="show_status('http://www2.elsevier.co.uk/~tony/1014/yads-schema-2002-04-03#resource');">
<path style="fill:none;stroke:#add9e6" d="M1157,890C1156,901 1155,914 1158,926 1159,929 1160,932 1162,935"/>
<polygon style="fill:#add9e6;stroke:#add9e6" points="1160,936 1166,944 1164,934 1160,936"/>
<text text-anchor="middle" x="1199" y="921" style="font-family:arial">has:resource</text>
</a></g>
<g id="node94" class="node"><title>:_26</title>
<a xlink:href="http://www.w3.org/1999/02/22-rdf-syntax-ns#Bag" target="_blank" onmouseover="show_status('http://www.w3.org/1999/02/22-rdf-syntax-ns#Bag');">
<ellipse cx="1296" cy="962" rx="28" ry="18" style="fill:#d2d2d2;stroke:#d2d2d2"/>
<text text-anchor="middle" x="1296" y="966" style="font-family:arial">rdf:Bag</text>
</a></g>
<g id="edge96" class="edge"><title>:_25-&gt;:_26</title>
<a xlink:href="http://www2.elsevier.co.uk/~tony/1014/yads-schema-2002-04-03#collection" target="_blank" onmouseover="show_status('http://www2.elsevier.co.uk/~tony/1014/yads-schema-2002-04-03#collection');">
<path style="fill:none;stroke:#add9e6" d="M1196,886C1209,892 1223,899 1235,908 1243,915 1243,919 1251,926 1257,932 1263,937 1270,942"/>
<polygon style="fill:#add9e6;stroke:#add9e6" points="1268,943 1277,948 1271,940 1268,943"/>
<text text-anchor="middle" x="1292" y="921" style="font-family:arial">has:collection</text>
</a></g>
<g id="node87" class="node"><title>:_24</title>
<ellipse cx="1019" cy="1067" rx="33" ry="18" style="fill:#eedb82;stroke:#eedb82"/>
<text text-anchor="middle" x="1019" y="1071" style="font-family:arial">tube:Mins</text>
</g>
<g id="edge88" class="edge"><title>:_23-&gt;:_24</title>
<a xlink:href="http://www.w3.org/1999/02/22-rdf-syntax-ns#_1" target="_blank" onmouseover="show_status('http://www.w3.org/1999/02/22-rdf-syntax-ns#_1');">
<path style="fill:none;stroke:#add9e6" d="M1013,980C1014,996 1015,1021 1017,1040"/>
<polygon style="fill:#add9e6;stroke:#add9e6" points="1014,1039 1018,1049 1019,1039 1014,1039"/>
<text text-anchor="middle" x="1036" y="1011" style="font-family:arial">rdf:_1</text>
</a></g>
<g id="edge91" class="edge"><title>:_24-&gt;data:,2</title>
<a xlink:href="http://www2.elsevier.co.uk/~tony/1014/yads-schema-2002-04-03#resource" target="_blank" onmouseover="show_status('http://www2.elsevier.co.uk/~tony/1014/yads-schema-2002-04-03#resource');">
<path style="fill:none;stroke:#add9e6" d="M999,1081C975,1098 933,1123 892,1135 832,1153 646,1165 570,1170"/>
<polygon style="fill:#add9e6;stroke:#add9e6" points="573,1167 563,1170 573,1172 573,1167"/>
<text text-anchor="middle" x="983" y="1130" style="font-family:arial">has:resource</text>
</a></g>
<g id="node96" class="node"><title>:_27</title>
<ellipse cx="1183" cy="1067" rx="33" ry="18" style="fill:#eedb82;stroke:#eedb82"/>
<text text-anchor="middle" x="1183" y="1071" style="font-family:arial">tube:Mins</text>
</g>
<g id="edge98" class="edge"><title>:_26-&gt;:_27</title>
<a xlink:href="http://www.w3.org/1999/02/22-rdf-syntax-ns#_1" target="_blank" onmouseover="show_status('http://www.w3.org/1999/02/22-rdf-syntax-ns#_1');">
<path style="fill:none;stroke:#add9e6" d="M1280,977C1261,995 1229,1024 1207,1045"/>
<polygon style="fill:#add9e6;stroke:#add9e6" points="1206,1043 1200,1051 1209,1046 1206,1043"/>
<text text-anchor="middle" x="1275" y="1011" style="font-family:arial">rdf:_1</text>
</a></g>
<g id="edge101" class="edge"><title>:_27-&gt;data:,3</title>
<a xlink:href="http://www2.elsevier.co.uk/~tony/1014/yads-schema-2002-04-03#resource" target="_blank" onmouseover="show_status('http://www2.elsevier.co.uk/~tony/1014/yads-schema-2002-04-03#resource');">
<path style="fill:none;stroke:#add9e6" d="M1161,1081C1134,1096 1089,1121 1046,1135 988,1155 916,1164 874,1168"/>
<polygon style="fill:#add9e6;stroke:#add9e6" points="876,1165 866,1169 876,1170 876,1165"/>
<text text-anchor="middle" x="1138" y="1130" style="font-family:arial">has:resource</text>
</a></g>
</g>
</svg>
