<?xml version="1.0" encoding="UTF-8" standalone="no"?>
<!DOCTYPE svg PUBLIC "-//W3C//DTD SVG 1.0//EN"
 "http://www.w3.org/TR/2001/REC-SVG-20010904/DTD/svg10.dtd" [
 <!ATTLIST svg xmlns:xlink CDATA #FIXED "http://www.w3.org/1999/xlink">
]>
<!-- Generated by dot version 1.8.5 (Tue Apr 23 17:19:23  2002)
     For user: (Administrator) ,S-1-5-21-1454471165-688789844-1708537768-500   Title: yads    Pages: 1 -->
<svg width="1297px" height="1280px"
 xmlns="http://www.w3.org/2000/svg" xmlns:xlink="http://www.w3.org/1999/xlink">
<g id="graph0" class="graph" style="font-family:Times-Roman;font-size:11.00">
<title>yads</title>
<text text-anchor="middle" x="648" y="1269" style="font-family:arial;font-size:24.00">YADS - A Description Service</text>
<g id="graph2" class="cluster"><title>cluster_1</title>
<polygon style="fill:none;stroke:#d2d2d2;stroke-dasharray:5,2" points="19,1237 1278,1237 1278,43 19,43 19,1237"/>
<text text-anchor="middle" x="106" y="55" style="font-family:arial">Nest - Mansion House Station</text>
</g>
<g id="graph3" class="cluster"><title>cluster_3</title>
<polygon style="fill:none;stroke:#d2d2d2;stroke-dasharray:5,2" points="27,1229 1270,1229 1270,238 27,238 27,1229"/>
<text text-anchor="middle" x="99" y="250" style="font-family:arial">Nest - Application Profile</text>
</g>
<g id="graph4" class="cluster"><title>cluster_5</title>
<polygon style="fill:none;stroke:#d2d2d2;stroke-dasharray:5,2" points="35,795 274,795 274,433 35,433 35,795"/>
<text text-anchor="middle" x="80" y="445" style="font-family:arial">Item - Location</text>
</g>
<g id="graph5" class="cluster"><title>cluster_7</title>
<polygon style="fill:none;stroke:#d2d2d2;stroke-dasharray:5,2" points="43,787 161,787 161,628 43,628 43,787"/>
<text text-anchor="middle" x="59" y="640" style="font-family:arial">Item</text>
</g>
<g id="graph6" class="cluster"><title>cluster_8</title>
<polygon style="fill:none;stroke:#d2d2d2;stroke-dasharray:5,2" points="169,787 266,787 266,628 169,628 169,787"/>
<text text-anchor="middle" x="185" y="640" style="font-family:arial">Item</text>
</g>
<g id="graph7" class="cluster"><title>cluster_9</title>
<polygon style="fill:none;stroke:#d2d2d2;stroke-dasharray:5,2" points="282,1221 1262,1221 1262,433 282,433 282,1221"/>
<text text-anchor="middle" x="351" y="445" style="font-family:arial">Item - Line Interchanges</text>
</g>
<g id="graph8" class="cluster"><title>cluster_11</title>
<polygon style="fill:none;stroke:#d2d2d2;stroke-dasharray:5,2" points="738,1213 1254,1213 1254,628 738,628 738,1213"/>
<text text-anchor="middle" x="806" y="640" style="font-family:arial">Nest - Line Interchange</text>
</g>
<g id="graph9" class="cluster"><title>cluster_13</title>
<polygon style="fill:none;stroke:#d2d2d2;stroke-dasharray:5,2" points="746,1205 1004,1205 1004,829 746,829 746,1205"/>
<text text-anchor="middle" x="814" y="841" style="font-family:arial">Nest - Next Stop Back</text>
</g>
<g id="graph10" class="cluster"><title>cluster_15</title>
<polygon style="fill:none;stroke:#d2d2d2;stroke-dasharray:5,2" points="794,1197 891,1197 891,1024 794,1024 794,1197"/>
<text text-anchor="middle" x="810" y="1036" style="font-family:arial">Item</text>
</g>
<g id="graph11" class="cluster"><title>cluster_16</title>
<polygon style="fill:none;stroke:#d2d2d2;stroke-dasharray:5,2" points="1012,1101 1246,1101 1246,829 1012,829 1012,1101"/>
<text text-anchor="middle" x="1064" y="841" style="font-family:arial">Nest - Next Stop</text>
</g>
<g id="graph12" class="cluster"><title>cluster_18</title>
<polygon style="fill:none;stroke:#d2d2d2;stroke-dasharray:5,2" points="1054,1093 1136,1093 1136,1024 1054,1024 1054,1093"/>
<text text-anchor="middle" x="1070" y="1036" style="font-family:arial">Item</text>
</g>
<g id="graph13" class="cluster"><title>cluster_19</title>
<polygon style="fill:none;stroke:#d2d2d2;stroke-dasharray:5,2" points="290,1109 558,1109 558,628 290,628 290,1109"/>
<text text-anchor="middle" x="358" y="640" style="font-family:arial">Nest - Line Interchange</text>
</g>
<g id="graph14" class="cluster"><title>cluster_21</title>
<polygon style="fill:none;stroke:#d2d2d2;stroke-dasharray:5,2" points="428,1101 550,1101 550,829 428,829 428,1101"/>
<text text-anchor="middle" x="496" y="841" style="font-family:arial">Nest - Next Stop Back</text>
</g>
<g id="graph15" class="cluster"><title>cluster_23</title>
<polygon style="fill:none;stroke:#d2d2d2;stroke-dasharray:5,2" points="448,1093 530,1093 530,1024 448,1024 448,1093"/>
<text text-anchor="middle" x="464" y="1036" style="font-family:arial">Item</text>
</g>
<g id="graph16" class="cluster"><title>cluster_24</title>
<polygon style="fill:none;stroke:#d2d2d2;stroke-dasharray:5,2" points="298,1101 420,1101 420,829 298,829 298,1101"/>
<text text-anchor="middle" x="350" y="841" style="font-family:arial">Nest - Next Stop</text>
</g>
<g id="graph17" class="cluster"><title>cluster_26</title>
<polygon style="fill:none;stroke:#d2d2d2;stroke-dasharray:5,2" points="325,1093 407,1093 407,1024 325,1024 325,1093"/>
<text text-anchor="middle" x="341" y="1036" style="font-family:arial">Item</text>
</g>
<g id="node2" class="node"><title>:_1</title>
<ellipse cx="272" cy="86" rx="40" ry="18" style="fill:#eedb82;stroke:#eedb82"/>
<text text-anchor="middle" x="272" y="90" style="font-family:arial">tube:Station</text>
</g>
<g id="node4" class="node"><title>doi:1014/tube/mansion_house</title>
<a xlink:href="http://dx.doi.org/1014/tube/mansion_house" target="_blank" onmouseover="show_status('http://dx.doi.org/1014/tube/mansion_house');">
<ellipse cx="120" cy="176" rx="87" ry="18" style="fill:#dca0dd;stroke:#dca0dd"/>
<text text-anchor="middle" x="120" y="180" style="font-family:arial">doi:1014/tube/mansion_house</text>
</a></g>
<g id="edge3" class="edge"><title>:_1-&gt;doi:1014/tube/mansion_house</title>
<a xlink:href="http://www2.elsevier.co.uk/~tony/1014/yads-schema-2002-04-03#resource" target="_blank" onmouseover="show_status('http://www2.elsevier.co.uk/~tony/1014/yads-schema-2002-04-03#resource');">
<path style="fill:none;stroke:#add9e6" d="M240,97C224,103 204,112 187,122 173,131 158,142 146,152"/>
<polygon style="fill:#add9e6;stroke:#add9e6" points="145,150 139,158 148,153 145,150"/>
<text text-anchor="middle" x="234" y="135" style="font-family:arial">has:resource</text>
</a></g>
<g id="node6" class="node"><title>node_1</title>
<polygon style="fill:#6497ed;stroke:#6497ed" points="319,158 225,158 225,194 319,194 319,158"/>
<text text-anchor="middle" x="272" y="180" style="font-family:arial">Mansion House</text>
</g>
<g id="edge5" class="edge"><title>:_1-&gt;node_1</title>
<a xlink:href="http://www2.elsevier.co.uk/~tony/1014/yads-schema-2002-04-03#label" target="_blank" onmouseover="show_status('http://www2.elsevier.co.uk/~tony/1014/yads-schema-2002-04-03#label');">
<path style="fill:none;stroke:#add9e6" d="M272,104C272,117 272,134 272,149"/>
<polygon style="fill:#add9e6;stroke:#add9e6" points="270,148 272,158 275,148 270,148"/>
<text text-anchor="middle" x="299" y="135" style="font-family:arial">has:label</text>
</a></g>
<g id="node8" class="node"><title>:_2</title>
<a xlink:href="http://www.w3.org/1999/02/22-rdf-syntax-ns#Bag" target="_blank" onmouseover="show_status('http://www.w3.org/1999/02/22-rdf-syntax-ns#Bag');">
<ellipse cx="365" cy="176" rx="28" ry="18" style="fill:#d2d2d2;stroke:#d2d2d2"/>
<text text-anchor="middle" x="365" y="180" style="font-family:arial">rdf:Bag</text>
</a></g>
<g id="edge7" class="edge"><title>:_1-&gt;:_2</title>
<a xlink:href="http://www2.elsevier.co.uk/~tony/1014/yads-schema-2002-04-03#collection" target="_blank" onmouseover="show_status('http://www2.elsevier.co.uk/~tony/1014/yads-schema-2002-04-03#collection');">
<path style="fill:none;stroke:#add9e6" d="M299,99C310,105 322,113 331,122 340,131 347,141 353,151"/>
<polygon style="fill:#add9e6;stroke:#add9e6" points="350,151 357,159 355,149 350,151"/>
<text text-anchor="middle" x="388" y="135" style="font-family:arial">has:collection</text>
</a></g>
<g id="node10" class="node"><title>:_3</title>
<ellipse cx="365" cy="281" rx="34" ry="18" style="fill:#eedb82;stroke:#eedb82"/>
<text text-anchor="middle" x="365" y="285" style="font-family:arial">doi:Profile</text>
</g>
<g id="edge9" class="edge"><title>:_2-&gt;:_3</title>
<a xlink:href="http://www.w3.org/1999/02/22-rdf-syntax-ns#_1" target="_blank" onmouseover="show_status('http://www.w3.org/1999/02/22-rdf-syntax-ns#_1');">
<path style="fill:none;stroke:#add9e6" d="M365,194C365,210 365,235 365,254"/>
<polygon style="fill:#add9e6;stroke:#add9e6" points="363,253 365,263 368,253 363,253"/>
<text text-anchor="middle" x="385" y="225" style="font-family:arial">rdf:_1</text>
</a></g>
<g id="node13" class="node"><title>doi:1014/profile.tube</title>
<a xlink:href="http://dx.doi.org/1014/profile.tube" target="_blank" onmouseover="show_status('http://dx.doi.org/1014/profile.tube');">
<ellipse cx="316" cy="371" rx="59" ry="18" style="fill:#dca0dd;stroke:#dca0dd"/>
<text text-anchor="middle" x="316" y="375" style="font-family:arial">doi:1014/profile.tube</text>
</a></g>
<g id="edge12" class="edge"><title>:_3-&gt;doi:1014/profile.tube</title>
<a xlink:href="http://www2.elsevier.co.uk/~tony/1014/yads-schema-2002-04-03#resource" target="_blank" onmouseover="show_status('http://www2.elsevier.co.uk/~tony/1014/yads-schema-2002-04-03#resource');">
<path style="fill:none;stroke:#add9e6" d="M349,297C344,303 338,310 334,317 330,325 326,335 323,344"/>
<polygon style="fill:#add9e6;stroke:#add9e6" points="321,343 320,353 326,344 321,343"/>
<text text-anchor="middle" x="378" y="330" style="font-family:arial">has:resource</text>
</a></g>
<g id="node15" class="node"><title>:_4</title>
<a xlink:href="http://www.w3.org/1999/02/22-rdf-syntax-ns#Bag" target="_blank" onmouseover="show_status('http://www.w3.org/1999/02/22-rdf-syntax-ns#Bag');">
<ellipse cx="421" cy="371" rx="28" ry="18" style="fill:#d2d2d2;stroke:#d2d2d2"/>
<text text-anchor="middle" x="421" y="375" style="font-family:arial">rdf:Bag</text>
</a></g>
<g id="edge14" class="edge"><title>:_3-&gt;:_4</title>
<a xlink:href="http://www2.elsevier.co.uk/~tony/1014/yads-schema-2002-04-03#collection" target="_blank" onmouseover="show_status('http://www2.elsevier.co.uk/~tony/1014/yads-schema-2002-04-03#collection');">
<path style="fill:none;stroke:#add9e6" d="M392,292C402,298 413,306 419,317 423,325 425,335 425,344"/>
<polygon style="fill:#add9e6;stroke:#add9e6" points="423,343 424,353 428,343 423,343"/>
<text text-anchor="middle" x="466" y="330" style="font-family:arial">has:collection</text>
</a></g>
<g id="node17" class="node"><title>:_5</title>
<a xlink:href="http://www2.elsevier.co.uk/~tony/1014/yads-schema-2002-04-03#Item" target="_blank" onmouseover="show_status('http://www2.elsevier.co.uk/~tony/1014/yads-schema-2002-04-03#Item');">
<ellipse cx="211" cy="476" rx="28" ry="18" style="fill:#d2d2d2;stroke:#d2d2d2"/>
<text text-anchor="middle" x="211" y="480" style="font-family:arial">isa:Item</text>
</a></g>
<g id="edge16" class="edge"><title>:_4-&gt;:_5</title>
<a xlink:href="http://www.w3.org/1999/02/22-rdf-syntax-ns#_1" target="_blank" onmouseover="show_status('http://www.w3.org/1999/02/22-rdf-syntax-ns#_1');">
<path style="fill:none;stroke:#add9e6" d="M399,382C394,385 389,387 384,389 338,410 324,410 278,433 264,440 249,450 237,458"/>
<polygon style="fill:#add9e6;stroke:#add9e6" points="237,455 230,463 240,459 237,455"/>
<text text-anchor="middle" x="366" y="420" style="font-family:arial">rdf:_1</text>
</a></g>
<g id="node19" class="node"><title>:_9</title>
<a xlink:href="http://www2.elsevier.co.uk/~tony/1014/yads-schema-2002-04-03#Item" target="_blank" onmouseover="show_status('http://www2.elsevier.co.uk/~tony/1014/yads-schema-2002-04-03#Item');">
<ellipse cx="459" cy="476" rx="28" ry="18" style="fill:#d2d2d2;stroke:#d2d2d2"/>
<text text-anchor="middle" x="459" y="480" style="font-family:arial">isa:Item</text>
</a></g>
<g id="edge18" class="edge"><title>:_4-&gt;:_9</title>
<a xlink:href="http://www.w3.org/1999/02/22-rdf-syntax-ns#_2" target="_blank" onmouseover="show_status('http://www.w3.org/1999/02/22-rdf-syntax-ns#_2');">
<path style="fill:none;stroke:#add9e6" d="M427,389C433,405 442,431 449,450"/>
<polygon style="fill:#add9e6;stroke:#add9e6" points="446,450 452,458 451,448 446,450"/>
<text text-anchor="middle" x="462" y="420" style="font-family:arial">rdf:_2</text>
</a></g>
<g id="node22" class="node"><title>:_6</title>
<a xlink:href="http://www.w3.org/1999/02/22-rdf-syntax-ns#Bag" target="_blank" onmouseover="show_status('http://www.w3.org/1999/02/22-rdf-syntax-ns#Bag');">
<ellipse cx="185" cy="566" rx="28" ry="18" style="fill:#d2d2d2;stroke:#d2d2d2"/>
<text text-anchor="middle" x="185" y="570" style="font-family:arial">rdf:Bag</text>
</a></g>
<g id="edge21" class="edge"><title>:_5-&gt;:_6</title>
<a xlink:href="http://www2.elsevier.co.uk/~tony/1014/yads-schema-2002-04-03#collection" target="_blank" onmouseover="show_status('http://www2.elsevier.co.uk/~tony/1014/yads-schema-2002-04-03#collection');">
<path style="fill:none;stroke:#add9e6" d="M204,494C201,499 199,506 197,512 194,521 192,530 190,539"/>
<polygon style="fill:#add9e6;stroke:#add9e6" points="188,538 188,548 193,539 188,538"/>
<text text-anchor="middle" x="241" y="525" style="font-family:arial">has:collection</text>
</a></g>
<g id="node35" class="node"><title>:_10</title>
<a xlink:href="http://www.w3.org/1999/02/22-rdf-syntax-ns#Bag" target="_blank" onmouseover="show_status('http://www.w3.org/1999/02/22-rdf-syntax-ns#Bag');">
<ellipse cx="462" cy="566" rx="28" ry="18" style="fill:#d2d2d2;stroke:#d2d2d2"/>
<text text-anchor="middle" x="462" y="570" style="font-family:arial">rdf:Bag</text>
</a></g>
<g id="edge34" class="edge"><title>:_9-&gt;:_10</title>
<a xlink:href="http://www2.elsevier.co.uk/~tony/1014/yads-schema-2002-04-03#collection" target="_blank" onmouseover="show_status('http://www2.elsevier.co.uk/~tony/1014/yads-schema-2002-04-03#collection');">
<path style="fill:none;stroke:#add9e6" d="M460,494C460,507 461,524 461,539"/>
<polygon style="fill:#add9e6;stroke:#add9e6" points="459,538 461,548 464,538 459,538"/>
<text text-anchor="middle" x="503" y="525" style="font-family:arial">has:collection</text>
</a></g>
<g id="node24" class="node"><title>:_7</title>
<ellipse cx="102" cy="671" rx="35" ry="18" style="fill:#eedb82;stroke:#eedb82"/>
<text text-anchor="middle" x="102" y="675" style="font-family:arial">tube:Zone</text>
</g>
<g id="edge23" class="edge"><title>:_6-&gt;:_7</title>
<a xlink:href="http://www.w3.org/1999/02/22-rdf-syntax-ns#_1" target="_blank" onmouseover="show_status('http://www.w3.org/1999/02/22-rdf-syntax-ns#_1');">
<path style="fill:none;stroke:#add9e6" d="M169,581C163,588 156,595 150,602 139,616 127,633 118,647"/>
<polygon style="fill:#add9e6;stroke:#add9e6" points="117,644 113,654 121,647 117,644"/>
<text text-anchor="middle" x="173" y="615" style="font-family:arial">rdf:_1</text>
</a></g>
<g id="node26" class="node"><title>:_8</title>
<ellipse cx="209" cy="671" rx="32" ry="18" style="fill:#eedb82;stroke:#eedb82"/>
<text text-anchor="middle" x="209" y="675" style="font-family:arial">tube:Grid</text>
</g>
<g id="edge25" class="edge"><title>:_6-&gt;:_8</title>
<a xlink:href="http://www.w3.org/1999/02/22-rdf-syntax-ns#_2" target="_blank" onmouseover="show_status('http://www.w3.org/1999/02/22-rdf-syntax-ns#_2');">
<path style="fill:none;stroke:#add9e6" d="M189,584C192,600 198,625 203,644"/>
<polygon style="fill:#add9e6;stroke:#add9e6" points="200,644 205,653 205,643 200,644"/>
<text text-anchor="middle" x="218" y="615" style="font-family:arial">rdf:_2</text>
</a></g>
<g id="node29" class="node"><title>data:,Zone%201</title>
<a xlink:href="" onclick="show_data('Zone%201');" onmouseover="show_status('data:,Zone%201');">
<ellipse cx="102" cy="761" rx="51" ry="18" style="fill:#dca0dd;stroke:#dca0dd"/>
<text text-anchor="middle" x="102" y="765" style="font-family:arial">data:,Zone%201</text>
</a></g>
<g id="edge28" class="edge"><title>:_7-&gt;data:,Zone%201</title>
<a xlink:href="http://www2.elsevier.co.uk/~tony/1014/yads-schema-2002-04-03#resource" target="_blank" onmouseover="show_status('http://www2.elsevier.co.uk/~tony/1014/yads-schema-2002-04-03#resource');">
<path style="fill:none;stroke:#add9e6" d="M92,689C89,694 86,701 84,707 83,715 83,718 84,725 85,728 86,731 87,734"/>
<polygon style="fill:#add9e6;stroke:#add9e6" points="85,735 91,743 89,733 85,735"/>
<text text-anchor="middle" x="128" y="720" style="font-family:arial">has:resource</text>
</a></g>
<g id="node32" class="node"><title>data:,D5</title>
<a xlink:href="" onclick="show_data('D5');" onmouseover="show_status('data:,D5');">
<ellipse cx="207" cy="761" rx="30" ry="18" style="fill:#dca0dd;stroke:#dca0dd"/>
<text text-anchor="middle" x="207" y="765" style="font-family:arial">data:,D5</text>
</a></g>
<g id="edge31" class="edge"><title>:_8-&gt;data:,D5</title>
<a xlink:href="http://www2.elsevier.co.uk/~tony/1014/yads-schema-2002-04-03#resource" target="_blank" onmouseover="show_status('http://www2.elsevier.co.uk/~tony/1014/yads-schema-2002-04-03#resource');">
<path style="fill:none;stroke:#add9e6" d="M207,689C206,695 205,701 205,707 204,716 205,725 205,733"/>
<polygon style="fill:#add9e6;stroke:#add9e6" points="203,733 206,743 207,733 203,733"/>
<text text-anchor="middle" x="249" y="720" style="font-family:arial">has:resource</text>
</a></g>
<g id="node37" class="node"><title>:_11</title>
<ellipse cx="816" cy="671" rx="53" ry="18" style="fill:#eedb82;stroke:#eedb82"/>
<text text-anchor="middle" x="816" y="675" style="font-family:arial">tube:LineChange</text>
</g>
<g id="edge36" class="edge"><title>:_10-&gt;:_11</title>
<a xlink:href="http://www.w3.org/1999/02/22-rdf-syntax-ns#_1" target="_blank" onmouseover="show_status('http://www.w3.org/1999/02/22-rdf-syntax-ns#_1');">
<path style="fill:none;stroke:#add9e6" d="M487,574C546,591 693,634 769,657"/>
<polygon style="fill:#add9e6;stroke:#add9e6" points="766,659 776,659 767,654 766,659"/>
<text text-anchor="middle" x="663" y="615" style="font-family:arial">rdf:_1</text>
</a></g>
<g id="node39" class="node"><title>:_19</title>
<ellipse cx="462" cy="671" rx="53" ry="18" style="fill:#eedb82;stroke:#eedb82"/>
<text text-anchor="middle" x="462" y="675" style="font-family:arial">tube:LineChange</text>
</g>
<g id="edge38" class="edge"><title>:_10-&gt;:_19</title>
<a xlink:href="http://www.w3.org/1999/02/22-rdf-syntax-ns#_2" target="_blank" onmouseover="show_status('http://www.w3.org/1999/02/22-rdf-syntax-ns#_2');">
<path style="fill:none;stroke:#add9e6" d="M462,584C462,600 462,625 462,644"/>
<polygon style="fill:#add9e6;stroke:#add9e6" points="460,643 462,653 465,643 460,643"/>
<text text-anchor="middle" x="483" y="615" style="font-family:arial">rdf:_2</text>
</a></g>
<g id="node42" class="node"><title>doi:1014/tube/circle_line</title>
<a xlink:href="http://dx.doi.org/1014/tube/circle_line" target="_blank" onmouseover="show_status('http://dx.doi.org/1014/tube/circle_line');">
<ellipse cx="816" cy="761" rx="70" ry="18" style="fill:#dca0dd;stroke:#dca0dd"/>
<text text-anchor="middle" x="816" y="765" style="font-family:arial">doi:1014/tube/circle_line</text>
</a></g>
<g id="edge41" class="edge"><title>:_11-&gt;doi:1014/tube/circle_line</title>
<a xlink:href="http://www2.elsevier.co.uk/~tony/1014/yads-schema-2002-04-03#resource" target="_blank" onmouseover="show_status('http://www2.elsevier.co.uk/~tony/1014/yads-schema-2002-04-03#resource');">
<path style="fill:none;stroke:#add9e6" d="M816,689C816,702 816,719 816,734"/>
<polygon style="fill:#add9e6;stroke:#add9e6" points="814,733 816,743 819,733 814,733"/>
<text text-anchor="middle" x="857" y="720" style="font-family:arial">has:resource</text>
</a></g>
<g id="node44" class="node"><title>:_12</title>
<a xlink:href="http://www.w3.org/1999/02/22-rdf-syntax-ns#Bag" target="_blank" onmouseover="show_status('http://www.w3.org/1999/02/22-rdf-syntax-ns#Bag');">
<ellipse cx="932" cy="761" rx="28" ry="18" style="fill:#d2d2d2;stroke:#d2d2d2"/>
<text text-anchor="middle" x="932" y="765" style="font-family:arial">rdf:Bag</text>
</a></g>
<g id="edge43" class="edge"><title>:_11-&gt;:_12</title>
<a xlink:href="http://www2.elsevier.co.uk/~tony/1014/yads-schema-2002-04-03#collection" target="_blank" onmouseover="show_status('http://www2.elsevier.co.uk/~tony/1014/yads-schema-2002-04-03#collection');">
<path style="fill:none;stroke:#add9e6" d="M857,682C872,688 889,696 901,707 909,715 916,725 921,735"/>
<polygon style="fill:#add9e6;stroke:#add9e6" points="918,735 925,743 923,733 918,735"/>
<text text-anchor="middle" x="957" y="720" style="font-family:arial">has:collection</text>
</a></g>
<g id="node70" class="node"><title>doi:1014/tube/district_line</title>
<a xlink:href="http://dx.doi.org/1014/tube/district_line" target="_blank" onmouseover="show_status('http://dx.doi.org/1014/tube/district_line');">
<ellipse cx="371" cy="761" rx="73" ry="18" style="fill:#dca0dd;stroke:#dca0dd"/>
<text text-anchor="middle" x="371" y="765" style="font-family:arial">doi:1014/tube/district_line</text>
</a></g>
<g id="edge70" class="edge"><title>:_19-&gt;doi:1014/tube/district_line</title>
<a xlink:href="http://www2.elsevier.co.uk/~tony/1014/yads-schema-2002-04-03#resource" target="_blank" onmouseover="show_status('http://www2.elsevier.co.uk/~tony/1014/yads-schema-2002-04-03#resource');">
<path style="fill:none;stroke:#add9e6" d="M424,684C412,689 399,697 390,707 384,715 380,725 377,734"/>
<polygon style="fill:#add9e6;stroke:#add9e6" points="375,733 374,743 380,734 375,733"/>
<text text-anchor="middle" x="434" y="720" style="font-family:arial">has:resource</text>
</a></g>
<g id="node72" class="node"><title>:_20</title>
<a xlink:href="http://www.w3.org/1999/02/22-rdf-syntax-ns#Bag" target="_blank" onmouseover="show_status('http://www.w3.org/1999/02/22-rdf-syntax-ns#Bag');">
<ellipse cx="490" cy="761" rx="28" ry="18" style="fill:#d2d2d2;stroke:#d2d2d2"/>
<text text-anchor="middle" x="490" y="765" style="font-family:arial">rdf:Bag</text>
</a></g>
<g id="edge72" class="edge"><title>:_19-&gt;:_20</title>
<a xlink:href="http://www2.elsevier.co.uk/~tony/1014/yads-schema-2002-04-03#collection" target="_blank" onmouseover="show_status('http://www2.elsevier.co.uk/~tony/1014/yads-schema-2002-04-03#collection');">
<path style="fill:none;stroke:#add9e6" d="M468,689C472,702 478,720 482,734"/>
<polygon style="fill:#add9e6;stroke:#add9e6" points="479,734 485,743 484,733 479,734"/>
<text text-anchor="middle" x="520" y="720" style="font-family:arial">has:collection</text>
</a></g>
<g id="node46" class="node"><title>:_13</title>
<ellipse cx="915" cy="872" rx="53" ry="18" style="fill:#eedb82;stroke:#eedb82"/>
<text text-anchor="middle" x="915" y="876" style="font-family:arial">tube:PrevStation</text>
</g>
<g id="edge45" class="edge"><title>:_12-&gt;:_13</title>
<a xlink:href="http://www.w3.org/1999/02/22-rdf-syntax-ns#_1" target="_blank" onmouseover="show_status('http://www.w3.org/1999/02/22-rdf-syntax-ns#_1');">
<path style="fill:none;stroke:#add9e6" d="M929,779C926,797 922,825 919,845"/>
<polygon style="fill:#add9e6;stroke:#add9e6" points="917,844 918,854 922,844 917,844"/>
<text text-anchor="middle" x="947" y="816" style="font-family:arial">rdf:_1</text>
</a></g>
<g id="node48" class="node"><title>:_16</title>
<ellipse cx="1073" cy="872" rx="53" ry="18" style="fill:#eedb82;stroke:#eedb82"/>
<text text-anchor="middle" x="1073" y="876" style="font-family:arial">tube:NextStation</text>
</g>
<g id="edge47" class="edge"><title>:_12-&gt;:_16</title>
<a xlink:href="http://www.w3.org/1999/02/22-rdf-syntax-ns#_2" target="_blank" onmouseover="show_status('http://www.w3.org/1999/02/22-rdf-syntax-ns#_2');">
<path style="fill:none;stroke:#add9e6" d="M950,775C974,795 1018,828 1046,850"/>
<polygon style="fill:#add9e6;stroke:#add9e6" points="1043,851 1052,855 1046,847 1043,851"/>
<text text-anchor="middle" x="1029" y="816" style="font-family:arial">rdf:_2</text>
</a></g>
<g id="node51" class="node"><title>doi:1014/tube/cannon_street</title>
<a xlink:href="http://dx.doi.org/1014/tube/cannon_street" target="_blank" onmouseover="show_status('http://dx.doi.org/1014/tube/cannon_street');">
<ellipse cx="838" cy="962" rx="84" ry="18" style="fill:#dca0dd;stroke:#dca0dd"/>
<text text-anchor="middle" x="838" y="966" style="font-family:arial">doi:1014/tube/cannon_street</text>
</a></g>
<g id="edge50" class="edge"><title>:_13-&gt;doi:1014/tube/cannon_street</title>
<a xlink:href="http://www2.elsevier.co.uk/~tony/1014/yads-schema-2002-04-03#resource" target="_blank" onmouseover="show_status('http://www2.elsevier.co.uk/~tony/1014/yads-schema-2002-04-03#resource');">
<path style="fill:none;stroke:#add9e6" d="M871,882C858,888 844,896 836,908 832,916 831,926 832,935"/>
<polygon style="fill:#add9e6;stroke:#add9e6" points="829,934 833,944 834,934 829,934"/>
<text text-anchor="middle" x="880" y="921" style="font-family:arial">has:resource</text>
</a></g>
<g id="node53" class="node"><title>:_14</title>
<a xlink:href="http://www.w3.org/1999/02/22-rdf-syntax-ns#Bag" target="_blank" onmouseover="show_status('http://www.w3.org/1999/02/22-rdf-syntax-ns#Bag');">
<ellipse cx="968" cy="962" rx="28" ry="18" style="fill:#d2d2d2;stroke:#d2d2d2"/>
<text text-anchor="middle" x="968" y="966" style="font-family:arial">rdf:Bag</text>
</a></g>
<g id="edge52" class="edge"><title>:_13-&gt;:_14</title>
<a xlink:href="http://www2.elsevier.co.uk/~tony/1014/yads-schema-2002-04-03#collection" target="_blank" onmouseover="show_status('http://www2.elsevier.co.uk/~tony/1014/yads-schema-2002-04-03#collection');">
<path style="fill:none;stroke:#add9e6" d="M916,890C918,901 921,915 927,926 930,932 936,938 941,943"/>
<polygon style="fill:#add9e6;stroke:#add9e6" points="939,944 948,949 942,941 939,944"/>
<text text-anchor="middle" x="968" y="921" style="font-family:arial">has:collection</text>
</a></g>
<g id="node61" class="node"><title>doi:1014/tube/blackfriars</title>
<a xlink:href="http://dx.doi.org/1014/tube/blackfriars" target="_blank" onmouseover="show_status('http://dx.doi.org/1014/tube/blackfriars');">
<ellipse cx="1092" cy="962" rx="72" ry="18" style="fill:#dca0dd;stroke:#dca0dd"/>
<text text-anchor="middle" x="1092" y="966" style="font-family:arial">doi:1014/tube/blackfriars</text>
</a></g>
<g id="edge60" class="edge"><title>:_16-&gt;doi:1014/tube/blackfriars</title>
<a xlink:href="http://www2.elsevier.co.uk/~tony/1014/yads-schema-2002-04-03#resource" target="_blank" onmouseover="show_status('http://www2.elsevier.co.uk/~tony/1014/yads-schema-2002-04-03#resource');">
<path style="fill:none;stroke:#add9e6" d="M1070,890C1069,901 1069,914 1072,926 1073,929 1074,932 1076,935"/>
<polygon style="fill:#add9e6;stroke:#add9e6" points="1074,936 1080,944 1078,934 1074,936"/>
<text text-anchor="middle" x="1113" y="921" style="font-family:arial">has:resource</text>
</a></g>
<g id="node63" class="node"><title>:_17</title>
<a xlink:href="http://www.w3.org/1999/02/22-rdf-syntax-ns#Bag" target="_blank" onmouseover="show_status('http://www.w3.org/1999/02/22-rdf-syntax-ns#Bag');">
<ellipse cx="1210" cy="962" rx="28" ry="18" style="fill:#d2d2d2;stroke:#d2d2d2"/>
<text text-anchor="middle" x="1210" y="966" style="font-family:arial">rdf:Bag</text>
</a></g>
<g id="edge62" class="edge"><title>:_16-&gt;:_17</title>
<a xlink:href="http://www2.elsevier.co.uk/~tony/1014/yads-schema-2002-04-03#collection" target="_blank" onmouseover="show_status('http://www2.elsevier.co.uk/~tony/1014/yads-schema-2002-04-03#collection');">
<path style="fill:none;stroke:#add9e6" d="M1109,886C1122,891 1137,899 1149,908 1157,915 1157,919 1165,926 1171,932 1177,937 1184,942"/>
<polygon style="fill:#add9e6;stroke:#add9e6" points="1182,943 1191,948 1185,940 1182,943"/>
<text text-anchor="middle" x="1206" y="921" style="font-family:arial">has:collection</text>
</a></g>
<g id="node55" class="node"><title>:_15</title>
<ellipse cx="842" cy="1067" rx="33" ry="18" style="fill:#eedb82;stroke:#eedb82"/>
<text text-anchor="middle" x="842" y="1071" style="font-family:arial">tube:Mins</text>
</g>
<g id="edge54" class="edge"><title>:_14-&gt;:_15</title>
<a xlink:href="http://www.w3.org/1999/02/22-rdf-syntax-ns#_1" target="_blank" onmouseover="show_status('http://www.w3.org/1999/02/22-rdf-syntax-ns#_1');">
<path style="fill:none;stroke:#add9e6" d="M951,976C929,994 892,1024 868,1045"/>
<polygon style="fill:#add9e6;stroke:#add9e6" points="866,1044 860,1052 869,1047 866,1044"/>
<text text-anchor="middle" x="944" y="1011" style="font-family:arial">rdf:_1</text>
</a></g>
<g id="node58" class="node"><title>data:,1</title>
<a xlink:href="" onclick="show_data('1');" onmouseover="show_status('data:,1');">
<ellipse cx="829" cy="1171" rx="27" ry="18" style="fill:#dca0dd;stroke:#dca0dd"/>
<text text-anchor="middle" x="829" y="1175" style="font-family:arial">data:,1</text>
</a></g>
<g id="edge57" class="edge"><title>:_15-&gt;data:,1</title>
<a xlink:href="http://www2.elsevier.co.uk/~tony/1014/yads-schema-2002-04-03#resource" target="_blank" onmouseover="show_status('http://www2.elsevier.co.uk/~tony/1014/yads-schema-2002-04-03#resource');">
<path style="fill:none;stroke:#add9e6" d="M840,1085C837,1101 835,1125 832,1144"/>
<polygon style="fill:#add9e6;stroke:#add9e6" points="830,1143 831,1153 835,1143 830,1143"/>
<text text-anchor="middle" x="877" y="1130" style="font-family:arial">has:resource</text>
</a></g>
<g id="node65" class="node"><title>:_18</title>
<ellipse cx="1095" cy="1067" rx="33" ry="18" style="fill:#eedb82;stroke:#eedb82"/>
<text text-anchor="middle" x="1095" y="1071" style="font-family:arial">tube:Mins</text>
</g>
<g id="edge64" class="edge"><title>:_17-&gt;:_18</title>
<a xlink:href="http://www.w3.org/1999/02/22-rdf-syntax-ns#_1" target="_blank" onmouseover="show_status('http://www.w3.org/1999/02/22-rdf-syntax-ns#_1');">
<path style="fill:none;stroke:#add9e6" d="M1194,977C1174,995 1141,1024 1119,1045"/>
<polygon style="fill:#add9e6;stroke:#add9e6" points="1118,1043 1112,1051 1121,1046 1118,1043"/>
<text text-anchor="middle" x="1189" y="1011" style="font-family:arial">rdf:_1</text>
</a></g>
<g id="edge67" class="edge"><title>:_18-&gt;data:,1</title>
<a xlink:href="http://www2.elsevier.co.uk/~tony/1014/yads-schema-2002-04-03#resource" target="_blank" onmouseover="show_status('http://www2.elsevier.co.uk/~tony/1014/yads-schema-2002-04-03#resource');">
<path style="fill:none;stroke:#add9e6" d="M1068,1078C1018,1097 912,1139 860,1159"/>
<polygon style="fill:#add9e6;stroke:#add9e6" points="861,1156 853,1162 863,1160 861,1156"/>
<text text-anchor="middle" x="1012" y="1130" style="font-family:arial">has:resource</text>
</a></g>
<g id="node74" class="node"><title>:_21</title>
<ellipse cx="489" cy="872" rx="53" ry="18" style="fill:#eedb82;stroke:#eedb82"/>
<text text-anchor="middle" x="489" y="876" style="font-family:arial">tube:PrevStation</text>
</g>
<g id="edge74" class="edge"><title>:_20-&gt;:_21</title>
<a xlink:href="http://www.w3.org/1999/02/22-rdf-syntax-ns#_1" target="_blank" onmouseover="show_status('http://www.w3.org/1999/02/22-rdf-syntax-ns#_1');">
<path style="fill:none;stroke:#add9e6" d="M490,779C490,797 490,824 489,845"/>
<polygon style="fill:#add9e6;stroke:#add9e6" points="487,844 489,854 492,844 487,844"/>
<text text-anchor="middle" x="510" y="816" style="font-family:arial">rdf:_1</text>
</a></g>
<g id="node76" class="node"><title>:_24</title>
<ellipse cx="359" cy="872" rx="53" ry="18" style="fill:#eedb82;stroke:#eedb82"/>
<text text-anchor="middle" x="359" y="876" style="font-family:arial">tube:NextStation</text>
</g>
<g id="edge76" class="edge"><title>:_20-&gt;:_24</title>
<a xlink:href="http://www.w3.org/1999/02/22-rdf-syntax-ns#_2" target="_blank" onmouseover="show_status('http://www.w3.org/1999/02/22-rdf-syntax-ns#_2');">
<path style="fill:none;stroke:#add9e6" d="M474,776C468,782 460,789 453,795 449,799 448,800 443,803 424,819 403,836 386,850"/>
<polygon style="fill:#add9e6;stroke:#add9e6" points="386,847 379,855 389,851 386,847"/>
<text text-anchor="middle" x="469" y="816" style="font-family:arial">rdf:_2</text>
</a></g>
<g id="edge79" class="edge"><title>:_21-&gt;doi:1014/tube/blackfriars</title>
<a xlink:href="http://www2.elsevier.co.uk/~tony/1014/yads-schema-2002-04-03#resource" target="_blank" onmouseover="show_status('http://www2.elsevier.co.uk/~tony/1014/yads-schema-2002-04-03#resource');">
<path style="fill:none;stroke:#add9e6" d="M540,877C583,883 641,892 657,908 663,914 655,921 661,926 691,951 970,939 1008,944 1016,945 1023,947 1028,948"/>
<polygon style="fill:#add9e6;stroke:#add9e6" points="1027,950 1037,950 1028,945 1027,950"/>
<text text-anchor="middle" x="702" y="921" style="font-family:arial">has:resource</text>
</a></g>
<g id="node80" class="node"><title>:_22</title>
<a xlink:href="http://www.w3.org/1999/02/22-rdf-syntax-ns#Bag" target="_blank" onmouseover="show_status('http://www.w3.org/1999/02/22-rdf-syntax-ns#Bag');">
<ellipse cx="470" cy="962" rx="28" ry="18" style="fill:#d2d2d2;stroke:#d2d2d2"/>
<text text-anchor="middle" x="470" y="966" style="font-family:arial">rdf:Bag</text>
</a></g>
<g id="edge81" class="edge"><title>:_21-&gt;:_22</title>
<a xlink:href="http://www2.elsevier.co.uk/~tony/1014/yads-schema-2002-04-03#collection" target="_blank" onmouseover="show_status('http://www2.elsevier.co.uk/~tony/1014/yads-schema-2002-04-03#collection');">
<path style="fill:none;stroke:#add9e6" d="M480,890C477,896 475,902 473,908 471,917 470,926 470,935"/>
<polygon style="fill:#add9e6;stroke:#add9e6" points="468,934 470,944 473,934 468,934"/>
<text text-anchor="middle" x="517" y="921" style="font-family:arial">has:collection</text>
</a></g>
<g id="edge89" class="edge"><title>:_24-&gt;doi:1014/tube/cannon_street</title>
<a xlink:href="http://www2.elsevier.co.uk/~tony/1014/yads-schema-2002-04-03#resource" target="_blank" onmouseover="show_status('http://www2.elsevier.co.uk/~tony/1014/yads-schema-2002-04-03#resource');">
<path style="fill:none;stroke:#add9e6" d="M399,884C407,886 416,888 424,890 482,902 502,883 554,908 565,914 562,921 572,926 603,941 683,951 748,956"/>
<polygon style="fill:#add9e6;stroke:#add9e6" points="747,958 757,957 747,953 747,958"/>
<text text-anchor="middle" x="613" y="921" style="font-family:arial">has:resource</text>
</a></g>
<g id="node88" class="node"><title>:_25</title>
<a xlink:href="http://www.w3.org/1999/02/22-rdf-syntax-ns#Bag" target="_blank" onmouseover="show_status('http://www.w3.org/1999/02/22-rdf-syntax-ns#Bag');">
<ellipse cx="352" cy="962" rx="28" ry="18" style="fill:#d2d2d2;stroke:#d2d2d2"/>
<text text-anchor="middle" x="352" y="966" style="font-family:arial">rdf:Bag</text>
</a></g>
<g id="edge91" class="edge"><title>:_24-&gt;:_25</title>
<a xlink:href="http://www2.elsevier.co.uk/~tony/1014/yads-schema-2002-04-03#collection" target="_blank" onmouseover="show_status('http://www2.elsevier.co.uk/~tony/1014/yads-schema-2002-04-03#collection');">
<path style="fill:none;stroke:#add9e6" d="M349,890C347,896 344,902 343,908 341,917 342,926 344,935"/>
<polygon style="fill:#add9e6;stroke:#add9e6" points="341,935 346,944 346,934 341,935"/>
<text text-anchor="middle" x="387" y="921" style="font-family:arial">has:collection</text>
</a></g>
<g id="node82" class="node"><title>:_23</title>
<ellipse cx="489" cy="1067" rx="33" ry="18" style="fill:#eedb82;stroke:#eedb82"/>
<text text-anchor="middle" x="489" y="1071" style="font-family:arial">tube:Mins</text>
</g>
<g id="edge83" class="edge"><title>:_22-&gt;:_23</title>
<a xlink:href="http://www.w3.org/1999/02/22-rdf-syntax-ns#_1" target="_blank" onmouseover="show_status('http://www.w3.org/1999/02/22-rdf-syntax-ns#_1');">
<path style="fill:none;stroke:#add9e6" d="M473,980C476,996 481,1021 484,1040"/>
<polygon style="fill:#add9e6;stroke:#add9e6" points="481,1040 486,1049 486,1039 481,1040"/>
<text text-anchor="middle" x="500" y="1011" style="font-family:arial">rdf:_1</text>
</a></g>
<g id="edge86" class="edge"><title>:_23-&gt;data:,1</title>
<a xlink:href="http://www2.elsevier.co.uk/~tony/1014/yads-schema-2002-04-03#resource" target="_blank" onmouseover="show_status('http://www2.elsevier.co.uk/~tony/1014/yads-schema-2002-04-03#resource');">
<path style="fill:none;stroke:#add9e6" d="M518,1076C581,1095 729,1141 795,1160"/>
<polygon style="fill:#add9e6;stroke:#add9e6" points="794,1162 804,1163 795,1157 794,1162"/>
<text text-anchor="middle" x="751" y="1130" style="font-family:arial">has:resource</text>
</a></g>
<g id="node90" class="node"><title>:_26</title>
<ellipse cx="366" cy="1067" rx="33" ry="18" style="fill:#eedb82;stroke:#eedb82"/>
<text text-anchor="middle" x="366" y="1071" style="font-family:arial">tube:Mins</text>
</g>
<g id="edge93" class="edge"><title>:_25-&gt;:_26</title>
<a xlink:href="http://www.w3.org/1999/02/22-rdf-syntax-ns#_1" target="_blank" onmouseover="show_status('http://www.w3.org/1999/02/22-rdf-syntax-ns#_1');">
<path style="fill:none;stroke:#add9e6" d="M354,980C357,996 360,1021 362,1040"/>
<polygon style="fill:#add9e6;stroke:#add9e6" points="359,1039 363,1049 364,1039 359,1039"/>
<text text-anchor="middle" x="380" y="1011" style="font-family:arial">rdf:_1</text>
</a></g>
<g id="edge96" class="edge"><title>:_26-&gt;data:,1</title>
<a xlink:href="http://www2.elsevier.co.uk/~tony/1014/yads-schema-2002-04-03#resource" target="_blank" onmouseover="show_status('http://www2.elsevier.co.uk/~tony/1014/yads-schema-2002-04-03#resource');">
<path style="fill:none;stroke:#add9e6" d="M388,1081C403,1090 424,1102 444,1109 567,1154 723,1167 793,1170"/>
<polygon style="fill:#add9e6;stroke:#add9e6" points="792,1172 802,1170 792,1167 792,1172"/>
<text text-anchor="middle" x="569" y="1130" style="font-family:arial">has:resource</text>
</a></g>
</g>
</svg>
