<?xml version="1.0" encoding="UTF-8" standalone="no"?>
<!DOCTYPE svg PUBLIC "-//W3C//DTD SVG 1.0//EN"
 "http://www.w3.org/TR/2001/REC-SVG-20010904/DTD/svg10.dtd" [
 <!ATTLIST svg xmlns:xlink CDATA #FIXED "http://www.w3.org/1999/xlink">
]>
<!-- Generated by dot version 1.8.5 (Tue Apr 23 17:19:23  2002)
     For user: (Administrator) ,S-1-5-21-1454471165-688789844-1708537768-500   Title: yads    Pages: 1 -->
<svg width="1394px" height="1280px"
 xmlns="http://www.w3.org/2000/svg" xmlns:xlink="http://www.w3.org/1999/xlink">
<g id="graph0" class="graph" style="font-family:Times-Roman;font-size:11.00">
<title>yads</title>
<text text-anchor="middle" x="697" y="1269" style="font-family:arial;font-size:24.00">YADS - A Description Service</text>
<g id="graph2" class="cluster"><title>cluster_1</title>
<polygon style="fill:none;stroke:#d2d2d2;stroke-dasharray:5,2" points="19,1237 1375,1237 1375,43 19,43 19,1237"/>
<text text-anchor="middle" x="93" y="55" style="font-family:arial">Nest - Moor Park Station</text>
</g>
<g id="graph3" class="cluster"><title>cluster_3</title>
<polygon style="fill:none;stroke:#d2d2d2;stroke-dasharray:5,2" points="27,1229 1367,1229 1367,238 27,238 27,1229"/>
<text text-anchor="middle" x="99" y="250" style="font-family:arial">Nest - Application Profile</text>
</g>
<g id="graph4" class="cluster"><title>cluster_5</title>
<polygon style="fill:none;stroke:#d2d2d2;stroke-dasharray:5,2" points="35,795 410,795 410,433 35,433 35,795"/>
<text text-anchor="middle" x="80" y="445" style="font-family:arial">Item - Location</text>
</g>
<g id="graph5" class="cluster"><title>cluster_7</title>
<polygon style="fill:none;stroke:#d2d2d2;stroke-dasharray:5,2" points="43,787 167,787 167,628 43,628 43,787"/>
<text text-anchor="middle" x="59" y="640" style="font-family:arial">Item</text>
</g>
<g id="graph6" class="cluster"><title>cluster_8</title>
<polygon style="fill:none;stroke:#d2d2d2;stroke-dasharray:5,2" points="175,787 297,787 297,628 175,628 175,787"/>
<text text-anchor="middle" x="191" y="640" style="font-family:arial">Item</text>
</g>
<g id="graph7" class="cluster"><title>cluster_9</title>
<polygon style="fill:none;stroke:#d2d2d2;stroke-dasharray:5,2" points="305,787 402,787 402,628 305,628 305,787"/>
<text text-anchor="middle" x="321" y="640" style="font-family:arial">Item</text>
</g>
<g id="graph8" class="cluster"><title>cluster_10</title>
<polygon style="fill:none;stroke:#d2d2d2;stroke-dasharray:5,2" points="418,1221 1359,1221 1359,433 418,433 418,1221"/>
<text text-anchor="middle" x="487" y="445" style="font-family:arial">Item - Line Interchanges</text>
</g>
<g id="graph9" class="cluster"><title>cluster_12</title>
<polygon style="fill:none;stroke:#d2d2d2;stroke-dasharray:5,2" points="426,1213 944,1213 944,628 426,628 426,1213"/>
<text text-anchor="middle" x="494" y="640" style="font-family:arial">Nest - Line Interchange</text>
</g>
<g id="graph10" class="cluster"><title>cluster_14</title>
<polygon style="fill:none;stroke:#d2d2d2;stroke-dasharray:5,2" points="434,1205 692,1205 692,829 434,829 434,1205"/>
<text text-anchor="middle" x="502" y="841" style="font-family:arial">Nest - Next Stop Back</text>
</g>
<g id="graph11" class="cluster"><title>cluster_16</title>
<polygon style="fill:none;stroke:#d2d2d2;stroke-dasharray:5,2" points="587,1197 684,1197 684,1024 587,1024 587,1197"/>
<text text-anchor="middle" x="603" y="1036" style="font-family:arial">Item</text>
</g>
<g id="graph12" class="cluster"><title>cluster_17</title>
<polygon style="fill:none;stroke:#d2d2d2;stroke-dasharray:5,2" points="700,1205 936,1205 936,829 700,829 700,1205"/>
<text text-anchor="middle" x="752" y="841" style="font-family:arial">Nest - Next Stop</text>
</g>
<g id="graph13" class="cluster"><title>cluster_19</title>
<polygon style="fill:none;stroke:#d2d2d2;stroke-dasharray:5,2" points="769,1197 866,1197 866,1024 769,1024 769,1197"/>
<text text-anchor="middle" x="785" y="1036" style="font-family:arial">Item</text>
</g>
<g id="graph14" class="cluster"><title>cluster_20</title>
<polygon style="fill:none;stroke:#d2d2d2;stroke-dasharray:5,2" points="987,1109 1351,1109 1351,628 987,628 987,1109"/>
<text text-anchor="middle" x="1055" y="640" style="font-family:arial">Nest - Line Interchange</text>
</g>
<g id="graph15" class="cluster"><title>cluster_22</title>
<polygon style="fill:none;stroke:#d2d2d2;stroke-dasharray:5,2" points="995,1101 1213,1101 1213,829 995,829 995,1101"/>
<text text-anchor="middle" x="1063" y="841" style="font-family:arial">Nest - Next Stop Back</text>
</g>
<g id="graph16" class="cluster"><title>cluster_24</title>
<polygon style="fill:none;stroke:#d2d2d2;stroke-dasharray:5,2" points="1033,1093 1115,1093 1115,1024 1033,1024 1033,1093"/>
<text text-anchor="middle" x="1049" y="1036" style="font-family:arial">Item</text>
</g>
<g id="graph17" class="cluster"><title>cluster_25</title>
<polygon style="fill:none;stroke:#d2d2d2;stroke-dasharray:5,2" points="1221,1101 1343,1101 1343,829 1221,829 1221,1101"/>
<text text-anchor="middle" x="1273" y="841" style="font-family:arial">Nest - Next Stop</text>
</g>
<g id="graph18" class="cluster"><title>cluster_27</title>
<polygon style="fill:none;stroke:#d2d2d2;stroke-dasharray:5,2" points="1229,1093 1311,1093 1311,1024 1229,1024 1229,1093"/>
<text text-anchor="middle" x="1245" y="1036" style="font-family:arial">Item</text>
</g>
<g id="node2" class="node"><title>:_1</title>
<ellipse cx="280" cy="86" rx="40" ry="18" style="fill:#eedb82;stroke:#eedb82"/>
<text text-anchor="middle" x="280" y="90" style="font-family:arial">tube:Station</text>
</g>
<g id="node4" class="node"><title>doi:1014/tube/moor_park</title>
<a xlink:href="http://dx.doi.org/1014/tube/moor_park" target="_blank" onmouseover="show_status('http://dx.doi.org/1014/tube/moor_park');">
<ellipse cx="153" cy="176" rx="75" ry="18" style="fill:#dca0dd;stroke:#dca0dd"/>
<text text-anchor="middle" x="153" y="180" style="font-family:arial">doi:1014/tube/moor_park</text>
</a></g>
<g id="edge3" class="edge"><title>:_1-&gt;doi:1014/tube/moor_park</title>
<a xlink:href="http://www2.elsevier.co.uk/~tony/1014/yads-schema-2002-04-03#resource" target="_blank" onmouseover="show_status('http://www2.elsevier.co.uk/~tony/1014/yads-schema-2002-04-03#resource');">
<path style="fill:none;stroke:#add9e6" d="M247,96C230,102 210,111 195,122 185,130 176,141 169,151"/>
<polygon style="fill:#add9e6;stroke:#add9e6" points="168,148 164,158 172,151 168,148"/>
<text text-anchor="middle" x="242" y="135" style="font-family:arial">has:resource</text>
</a></g>
<g id="node6" class="node"><title>node_1</title>
<polygon style="fill:#6497ed;stroke:#6497ed" points="314,158 246,158 246,194 314,194 314,158"/>
<text text-anchor="middle" x="280" y="180" style="font-family:arial">Moor Park</text>
</g>
<g id="edge5" class="edge"><title>:_1-&gt;node_1</title>
<a xlink:href="http://www2.elsevier.co.uk/~tony/1014/yads-schema-2002-04-03#label" target="_blank" onmouseover="show_status('http://www2.elsevier.co.uk/~tony/1014/yads-schema-2002-04-03#label');">
<path style="fill:none;stroke:#add9e6" d="M280,104C280,117 280,134 280,149"/>
<polygon style="fill:#add9e6;stroke:#add9e6" points="278,148 280,158 283,148 278,148"/>
<text text-anchor="middle" x="307" y="135" style="font-family:arial">has:label</text>
</a></g>
<g id="node8" class="node"><title>:_2</title>
<a xlink:href="http://www.w3.org/1999/02/22-rdf-syntax-ns#Bag" target="_blank" onmouseover="show_status('http://www.w3.org/1999/02/22-rdf-syntax-ns#Bag');">
<ellipse cx="360" cy="176" rx="28" ry="18" style="fill:#d2d2d2;stroke:#d2d2d2"/>
<text text-anchor="middle" x="360" y="180" style="font-family:arial">rdf:Bag</text>
</a></g>
<g id="edge7" class="edge"><title>:_1-&gt;:_2</title>
<a xlink:href="http://www2.elsevier.co.uk/~tony/1014/yads-schema-2002-04-03#collection" target="_blank" onmouseover="show_status('http://www2.elsevier.co.uk/~tony/1014/yads-schema-2002-04-03#collection');">
<path style="fill:none;stroke:#add9e6" d="M309,99C319,105 331,112 339,122 346,130 350,140 353,149"/>
<polygon style="fill:#add9e6;stroke:#add9e6" points="350,149 356,158 355,148 350,149"/>
<text text-anchor="middle" x="392" y="135" style="font-family:arial">has:collection</text>
</a></g>
<g id="node10" class="node"><title>:_3</title>
<ellipse cx="360" cy="281" rx="34" ry="18" style="fill:#eedb82;stroke:#eedb82"/>
<text text-anchor="middle" x="360" y="285" style="font-family:arial">doi:Profile</text>
</g>
<g id="edge9" class="edge"><title>:_2-&gt;:_3</title>
<a xlink:href="http://www.w3.org/1999/02/22-rdf-syntax-ns#_1" target="_blank" onmouseover="show_status('http://www.w3.org/1999/02/22-rdf-syntax-ns#_1');">
<path style="fill:none;stroke:#add9e6" d="M360,194C360,210 360,235 360,254"/>
<polygon style="fill:#add9e6;stroke:#add9e6" points="358,253 360,263 363,253 358,253"/>
<text text-anchor="middle" x="380" y="225" style="font-family:arial">rdf:_1</text>
</a></g>
<g id="node13" class="node"><title>doi:1014/profile.tube</title>
<a xlink:href="http://dx.doi.org/1014/profile.tube" target="_blank" onmouseover="show_status('http://dx.doi.org/1014/profile.tube');">
<ellipse cx="335" cy="371" rx="59" ry="18" style="fill:#dca0dd;stroke:#dca0dd"/>
<text text-anchor="middle" x="335" y="375" style="font-family:arial">doi:1014/profile.tube</text>
</a></g>
<g id="edge12" class="edge"><title>:_3-&gt;doi:1014/profile.tube</title>
<a xlink:href="http://www2.elsevier.co.uk/~tony/1014/yads-schema-2002-04-03#resource" target="_blank" onmouseover="show_status('http://www2.elsevier.co.uk/~tony/1014/yads-schema-2002-04-03#resource');">
<path style="fill:none;stroke:#add9e6" d="M355,299C352,312 347,329 343,344"/>
<polygon style="fill:#add9e6;stroke:#add9e6" points="341,343 340,353 346,344 341,343"/>
<text text-anchor="middle" x="392" y="330" style="font-family:arial">has:resource</text>
</a></g>
<g id="node15" class="node"><title>:_4</title>
<a xlink:href="http://www.w3.org/1999/02/22-rdf-syntax-ns#Bag" target="_blank" onmouseover="show_status('http://www.w3.org/1999/02/22-rdf-syntax-ns#Bag');">
<ellipse cx="440" cy="371" rx="28" ry="18" style="fill:#d2d2d2;stroke:#d2d2d2"/>
<text text-anchor="middle" x="440" y="375" style="font-family:arial">rdf:Bag</text>
</a></g>
<g id="edge14" class="edge"><title>:_3-&gt;:_4</title>
<a xlink:href="http://www2.elsevier.co.uk/~tony/1014/yads-schema-2002-04-03#collection" target="_blank" onmouseover="show_status('http://www2.elsevier.co.uk/~tony/1014/yads-schema-2002-04-03#collection');">
<path style="fill:none;stroke:#add9e6" d="M391,288C407,293 426,302 436,317 441,324 443,335 443,344"/>
<polygon style="fill:#add9e6;stroke:#add9e6" points="441,343 443,353 446,343 441,343"/>
<text text-anchor="middle" x="485" y="330" style="font-family:arial">has:collection</text>
</a></g>
<g id="node17" class="node"><title>:_5</title>
<a xlink:href="http://www2.elsevier.co.uk/~tony/1014/yads-schema-2002-04-03#Item" target="_blank" onmouseover="show_status('http://www2.elsevier.co.uk/~tony/1014/yads-schema-2002-04-03#Item');">
<ellipse cx="365" cy="476" rx="28" ry="18" style="fill:#d2d2d2;stroke:#d2d2d2"/>
<text text-anchor="middle" x="365" y="480" style="font-family:arial">isa:Item</text>
</a></g>
<g id="edge16" class="edge"><title>:_4-&gt;:_5</title>
<a xlink:href="http://www.w3.org/1999/02/22-rdf-syntax-ns#_1" target="_blank" onmouseover="show_status('http://www.w3.org/1999/02/22-rdf-syntax-ns#_1');">
<path style="fill:none;stroke:#add9e6" d="M428,387C416,405 396,433 382,452"/>
<polygon style="fill:#add9e6;stroke:#add9e6" points="381,449 377,459 385,452 381,449"/>
<text text-anchor="middle" x="434" y="420" style="font-family:arial">rdf:_1</text>
</a></g>
<g id="node19" class="node"><title>:_10</title>
<a xlink:href="http://www2.elsevier.co.uk/~tony/1014/yads-schema-2002-04-03#Item" target="_blank" onmouseover="show_status('http://www2.elsevier.co.uk/~tony/1014/yads-schema-2002-04-03#Item');">
<ellipse cx="536" cy="476" rx="28" ry="18" style="fill:#d2d2d2;stroke:#d2d2d2"/>
<text text-anchor="middle" x="536" y="480" style="font-family:arial">isa:Item</text>
</a></g>
<g id="edge18" class="edge"><title>:_4-&gt;:_10</title>
<a xlink:href="http://www.w3.org/1999/02/22-rdf-syntax-ns#_2" target="_blank" onmouseover="show_status('http://www.w3.org/1999/02/22-rdf-syntax-ns#_2');">
<path style="fill:none;stroke:#add9e6" d="M455,387C471,405 497,433 516,454"/>
<polygon style="fill:#add9e6;stroke:#add9e6" points="513,455 522,460 517,451 513,455"/>
<text text-anchor="middle" x="511" y="420" style="font-family:arial">rdf:_2</text>
</a></g>
<g id="node22" class="node"><title>:_6</title>
<a xlink:href="http://www.w3.org/1999/02/22-rdf-syntax-ns#Bag" target="_blank" onmouseover="show_status('http://www.w3.org/1999/02/22-rdf-syntax-ns#Bag');">
<ellipse cx="268" cy="566" rx="28" ry="18" style="fill:#d2d2d2;stroke:#d2d2d2"/>
<text text-anchor="middle" x="268" y="570" style="font-family:arial">rdf:Bag</text>
</a></g>
<g id="edge21" class="edge"><title>:_5-&gt;:_6</title>
<a xlink:href="http://www2.elsevier.co.uk/~tony/1014/yads-schema-2002-04-03#collection" target="_blank" onmouseover="show_status('http://www2.elsevier.co.uk/~tony/1014/yads-schema-2002-04-03#collection');">
<path style="fill:none;stroke:#add9e6" d="M349,491C333,505 308,528 290,545"/>
<polygon style="fill:#add9e6;stroke:#add9e6" points="289,542 284,551 293,546 289,542"/>
<text text-anchor="middle" x="367" y="525" style="font-family:arial">has:collection</text>
</a></g>
<g id="node40" class="node"><title>:_11</title>
<a xlink:href="http://www.w3.org/1999/02/22-rdf-syntax-ns#Bag" target="_blank" onmouseover="show_status('http://www.w3.org/1999/02/22-rdf-syntax-ns#Bag');">
<ellipse cx="781" cy="566" rx="28" ry="18" style="fill:#d2d2d2;stroke:#d2d2d2"/>
<text text-anchor="middle" x="781" y="570" style="font-family:arial">rdf:Bag</text>
</a></g>
<g id="edge39" class="edge"><title>:_10-&gt;:_11</title>
<a xlink:href="http://www2.elsevier.co.uk/~tony/1014/yads-schema-2002-04-03#collection" target="_blank" onmouseover="show_status('http://www2.elsevier.co.uk/~tony/1014/yads-schema-2002-04-03#collection');">
<path style="fill:none;stroke:#add9e6" d="M560,485C605,501 700,537 749,555"/>
<polygon style="fill:#add9e6;stroke:#add9e6" points="746,557 756,557 747,552 746,557"/>
<text text-anchor="middle" x="723" y="525" style="font-family:arial">has:collection</text>
</a></g>
<g id="node24" class="node"><title>:_7</title>
<ellipse cx="105" cy="671" rx="35" ry="18" style="fill:#eedb82;stroke:#eedb82"/>
<text text-anchor="middle" x="105" y="675" style="font-family:arial">tube:Zone</text>
</g>
<g id="edge23" class="edge"><title>:_6-&gt;:_7</title>
<a xlink:href="http://www.w3.org/1999/02/22-rdf-syntax-ns#_1" target="_blank" onmouseover="show_status('http://www.w3.org/1999/02/22-rdf-syntax-ns#_1');">
<path style="fill:none;stroke:#add9e6" d="M246,577C234,585 226,591 208,602 183,619 154,638 133,652"/>
<polygon style="fill:#add9e6;stroke:#add9e6" points="133,649 126,657 136,653 133,649"/>
<text text-anchor="middle" x="234" y="615" style="font-family:arial">rdf:_1</text>
</a></g>
<g id="node26" class="node"><title>:_8</title>
<ellipse cx="236" cy="671" rx="35" ry="18" style="fill:#eedb82;stroke:#eedb82"/>
<text text-anchor="middle" x="236" y="675" style="font-family:arial">tube:Zone</text>
</g>
<g id="edge25" class="edge"><title>:_6-&gt;:_8</title>
<a xlink:href="http://www.w3.org/1999/02/22-rdf-syntax-ns#_2" target="_blank" onmouseover="show_status('http://www.w3.org/1999/02/22-rdf-syntax-ns#_2');">
<path style="fill:none;stroke:#add9e6" d="M263,584C258,600 250,626 244,645"/>
<polygon style="fill:#add9e6;stroke:#add9e6" points="242,643 241,653 247,645 242,643"/>
<text text-anchor="middle" x="279" y="615" style="font-family:arial">rdf:_2</text>
</a></g>
<g id="node28" class="node"><title>:_9</title>
<ellipse cx="345" cy="671" rx="32" ry="18" style="fill:#eedb82;stroke:#eedb82"/>
<text text-anchor="middle" x="345" y="675" style="font-family:arial">tube:Grid</text>
</g>
<g id="edge27" class="edge"><title>:_6-&gt;:_9</title>
<a xlink:href="http://www.w3.org/1999/02/22-rdf-syntax-ns#_3" target="_blank" onmouseover="show_status('http://www.w3.org/1999/02/22-rdf-syntax-ns#_3');">
<path style="fill:none;stroke:#add9e6" d="M285,581C292,587 299,594 305,602 316,615 325,632 333,646"/>
<polygon style="fill:#add9e6;stroke:#add9e6" points="330,646 337,653 334,643 330,646"/>
<text text-anchor="middle" x="339" y="615" style="font-family:arial">rdf:_3</text>
</a></g>
<g id="node31" class="node"><title>data:,Zone%20A</title>
<a xlink:href="" onclick="show_data('Zone%20A');" onmouseover="show_status('data:,Zone%20A');">
<ellipse cx="105" cy="761" rx="54" ry="18" style="fill:#dca0dd;stroke:#dca0dd"/>
<text text-anchor="middle" x="105" y="765" style="font-family:arial">data:,Zone%20A</text>
</a></g>
<g id="edge30" class="edge"><title>:_7-&gt;data:,Zone%20A</title>
<a xlink:href="http://www2.elsevier.co.uk/~tony/1014/yads-schema-2002-04-03#resource" target="_blank" onmouseover="show_status('http://www2.elsevier.co.uk/~tony/1014/yads-schema-2002-04-03#resource');">
<path style="fill:none;stroke:#add9e6" d="M97,689C94,694 91,701 90,707 89,715 89,718 90,725 90,728 91,731 92,734"/>
<polygon style="fill:#add9e6;stroke:#add9e6" points="90,735 96,743 94,733 90,735"/>
<text text-anchor="middle" x="134" y="720" style="font-family:arial">has:resource</text>
</a></g>
<g id="node34" class="node"><title>data:,Zone%206</title>
<a xlink:href="" onclick="show_data('Zone%206');" onmouseover="show_status('data:,Zone%206');">
<ellipse cx="236" cy="761" rx="53" ry="18" style="fill:#dca0dd;stroke:#dca0dd"/>
<text text-anchor="middle" x="236" y="765" style="font-family:arial">data:,Zone%206</text>
</a></g>
<g id="edge33" class="edge"><title>:_8-&gt;data:,Zone%206</title>
<a xlink:href="http://www2.elsevier.co.uk/~tony/1014/yads-schema-2002-04-03#resource" target="_blank" onmouseover="show_status('http://www2.elsevier.co.uk/~tony/1014/yads-schema-2002-04-03#resource');">
<path style="fill:none;stroke:#add9e6" d="M227,689C224,694 221,701 220,707 219,715 219,718 220,725 220,728 221,731 222,734"/>
<polygon style="fill:#add9e6;stroke:#add9e6" points="220,735 226,743 224,733 220,735"/>
<text text-anchor="middle" x="264" y="720" style="font-family:arial">has:resource</text>
</a></g>
<g id="node37" class="node"><title>data:,A2</title>
<a xlink:href="" onclick="show_data('A2');" onmouseover="show_status('data:,A2');">
<ellipse cx="344" cy="761" rx="31" ry="18" style="fill:#dca0dd;stroke:#dca0dd"/>
<text text-anchor="middle" x="344" y="765" style="font-family:arial">data:,A2</text>
</a></g>
<g id="edge36" class="edge"><title>:_9-&gt;data:,A2</title>
<a xlink:href="http://www2.elsevier.co.uk/~tony/1014/yads-schema-2002-04-03#resource" target="_blank" onmouseover="show_status('http://www2.elsevier.co.uk/~tony/1014/yads-schema-2002-04-03#resource');">
<path style="fill:none;stroke:#add9e6" d="M343,689C342,695 341,701 341,707 341,716 341,725 341,734"/>
<polygon style="fill:#add9e6;stroke:#add9e6" points="338,733 342,743 343,733 338,733"/>
<text text-anchor="middle" x="385" y="720" style="font-family:arial">has:resource</text>
</a></g>
<g id="node42" class="node"><title>:_12</title>
<ellipse cx="781" cy="671" rx="53" ry="18" style="fill:#eedb82;stroke:#eedb82"/>
<text text-anchor="middle" x="781" y="675" style="font-family:arial">tube:LineChange</text>
</g>
<g id="edge41" class="edge"><title>:_11-&gt;:_12</title>
<a xlink:href="http://www.w3.org/1999/02/22-rdf-syntax-ns#_1" target="_blank" onmouseover="show_status('http://www.w3.org/1999/02/22-rdf-syntax-ns#_1');">
<path style="fill:none;stroke:#add9e6" d="M781,584C781,600 781,625 781,644"/>
<polygon style="fill:#add9e6;stroke:#add9e6" points="779,643 781,653 784,643 779,643"/>
<text text-anchor="middle" x="801" y="615" style="font-family:arial">rdf:_1</text>
</a></g>
<g id="node44" class="node"><title>:_20</title>
<ellipse cx="1048" cy="671" rx="53" ry="18" style="fill:#eedb82;stroke:#eedb82"/>
<text text-anchor="middle" x="1048" y="675" style="font-family:arial">tube:LineChange</text>
</g>
<g id="edge43" class="edge"><title>:_11-&gt;:_20</title>
<a xlink:href="http://www.w3.org/1999/02/22-rdf-syntax-ns#_2" target="_blank" onmouseover="show_status('http://www.w3.org/1999/02/22-rdf-syntax-ns#_2');">
<path style="fill:none;stroke:#add9e6" d="M806,575C838,586 898,608 948,628 968,636 989,645 1008,653"/>
<polygon style="fill:#add9e6;stroke:#add9e6" points="1006,655 1016,657 1008,650 1006,655"/>
<text text-anchor="middle" x="948" y="615" style="font-family:arial">rdf:_2</text>
</a></g>
<g id="node47" class="node"><title>doi:1014/tube/metropolitan_li...e</title>
<a xlink:href="http://dx.doi.org/1014/tube/metropolitan_line" target="_blank" onmouseover="show_status('http://dx.doi.org/1014/tube/metropolitan_line');">
<ellipse cx="848" cy="761" rx="88" ry="18" style="fill:#dca0dd;stroke:#dca0dd"/>
<text text-anchor="middle" x="848" y="765" style="font-family:arial">doi:1014/tube/metropolitan_li...e</text>
</a></g>
<g id="edge46" class="edge"><title>:_12-&gt;doi:1014/tube/metropolitan_li...e</title>
<a xlink:href="http://www2.elsevier.co.uk/~tony/1014/yads-schema-2002-04-03#resource" target="_blank" onmouseover="show_status('http://www2.elsevier.co.uk/~tony/1014/yads-schema-2002-04-03#resource');">
<path style="fill:none;stroke:#add9e6" d="M795,689C799,694 804,701 808,707 815,716 823,726 829,735"/>
<polygon style="fill:#add9e6;stroke:#add9e6" points="827,736 835,743 831,734 827,736"/>
<text text-anchor="middle" x="862" y="720" style="font-family:arial">has:resource</text>
</a></g>
<g id="node49" class="node"><title>:_13</title>
<a xlink:href="http://www.w3.org/1999/02/22-rdf-syntax-ns#Bag" target="_blank" onmouseover="show_status('http://www.w3.org/1999/02/22-rdf-syntax-ns#Bag');">
<ellipse cx="714" cy="761" rx="28" ry="18" style="fill:#d2d2d2;stroke:#d2d2d2"/>
<text text-anchor="middle" x="714" y="765" style="font-family:arial">rdf:Bag</text>
</a></g>
<g id="edge48" class="edge"><title>:_12-&gt;:_13</title>
<a xlink:href="http://www2.elsevier.co.uk/~tony/1014/yads-schema-2002-04-03#collection" target="_blank" onmouseover="show_status('http://www2.elsevier.co.uk/~tony/1014/yads-schema-2002-04-03#collection');">
<path style="fill:none;stroke:#add9e6" d="M748,685C739,691 729,698 723,707 718,715 715,725 714,734"/>
<polygon style="fill:#add9e6;stroke:#add9e6" points="712,733 714,743 717,733 712,733"/>
<text text-anchor="middle" x="767" y="720" style="font-family:arial">has:collection</text>
</a></g>
<g id="edge75" class="edge"><title>:_20-&gt;doi:1014/tube/metropolitan_li...e</title>
<a xlink:href="http://www2.elsevier.co.uk/~tony/1014/yads-schema-2002-04-03#resource" target="_blank" onmouseover="show_status('http://www2.elsevier.co.uk/~tony/1014/yads-schema-2002-04-03#resource');">
<path style="fill:none;stroke:#add9e6" d="M1016,685C982,701 930,725 892,741"/>
<polygon style="fill:#add9e6;stroke:#add9e6" points="892,738 884,745 894,743 892,738"/>
<text text-anchor="middle" x="1014" y="720" style="font-family:arial">has:resource</text>
</a></g>
<g id="node77" class="node"><title>:_21</title>
<a xlink:href="http://www.w3.org/1999/02/22-rdf-syntax-ns#Bag" target="_blank" onmouseover="show_status('http://www.w3.org/1999/02/22-rdf-syntax-ns#Bag');">
<ellipse cx="1090" cy="761" rx="28" ry="18" style="fill:#d2d2d2;stroke:#d2d2d2"/>
<text text-anchor="middle" x="1090" y="765" style="font-family:arial">rdf:Bag</text>
</a></g>
<g id="edge77" class="edge"><title>:_20-&gt;:_21</title>
<a xlink:href="http://www2.elsevier.co.uk/~tony/1014/yads-schema-2002-04-03#collection" target="_blank" onmouseover="show_status('http://www2.elsevier.co.uk/~tony/1014/yads-schema-2002-04-03#collection');">
<path style="fill:none;stroke:#add9e6" d="M1056,689C1063,702 1071,721 1078,736"/>
<polygon style="fill:#add9e6;stroke:#add9e6" points="1075,736 1082,744 1080,734 1075,736"/>
<text text-anchor="middle" x="1115" y="720" style="font-family:arial">has:collection</text>
</a></g>
<g id="node51" class="node"><title>:_14</title>
<ellipse cx="603" cy="872" rx="53" ry="18" style="fill:#eedb82;stroke:#eedb82"/>
<text text-anchor="middle" x="603" y="876" style="font-family:arial">tube:PrevStation</text>
</g>
<g id="edge50" class="edge"><title>:_13-&gt;:_14</title>
<a xlink:href="http://www.w3.org/1999/02/22-rdf-syntax-ns#_1" target="_blank" onmouseover="show_status('http://www.w3.org/1999/02/22-rdf-syntax-ns#_1');">
<path style="fill:none;stroke:#add9e6" d="M699,776C680,795 649,826 627,848"/>
<polygon style="fill:#add9e6;stroke:#add9e6" points="625,846 620,855 629,850 625,846"/>
<text text-anchor="middle" x="694" y="816" style="font-family:arial">rdf:_1</text>
</a></g>
<g id="node53" class="node"><title>:_17</title>
<ellipse cx="761" cy="872" rx="53" ry="18" style="fill:#eedb82;stroke:#eedb82"/>
<text text-anchor="middle" x="761" y="876" style="font-family:arial">tube:NextStation</text>
</g>
<g id="edge52" class="edge"><title>:_13-&gt;:_17</title>
<a xlink:href="http://www.w3.org/1999/02/22-rdf-syntax-ns#_2" target="_blank" onmouseover="show_status('http://www.w3.org/1999/02/22-rdf-syntax-ns#_2');">
<path style="fill:none;stroke:#add9e6" d="M722,779C730,797 742,825 750,846"/>
<polygon style="fill:#add9e6;stroke:#add9e6" points="747,846 754,854 752,844 747,846"/>
<text text-anchor="middle" x="761" y="816" style="font-family:arial">rdf:_2</text>
</a></g>
<g id="node56" class="node"><title>doi:1014/tube/rickmansworth</title>
<a xlink:href="http://dx.doi.org/1014/tube/rickmansworth" target="_blank" onmouseover="show_status('http://dx.doi.org/1014/tube/rickmansworth');">
<ellipse cx="526" cy="962" rx="84" ry="18" style="fill:#dca0dd;stroke:#dca0dd"/>
<text text-anchor="middle" x="526" y="966" style="font-family:arial">doi:1014/tube/rickmansworth</text>
</a></g>
<g id="edge55" class="edge"><title>:_14-&gt;doi:1014/tube/rickmansworth</title>
<a xlink:href="http://www2.elsevier.co.uk/~tony/1014/yads-schema-2002-04-03#resource" target="_blank" onmouseover="show_status('http://www2.elsevier.co.uk/~tony/1014/yads-schema-2002-04-03#resource');">
<path style="fill:none;stroke:#add9e6" d="M559,882C546,888 532,896 524,908 520,916 519,926 520,935"/>
<polygon style="fill:#add9e6;stroke:#add9e6" points="517,934 521,944 522,934 517,934"/>
<text text-anchor="middle" x="568" y="921" style="font-family:arial">has:resource</text>
</a></g>
<g id="node58" class="node"><title>:_15</title>
<a xlink:href="http://www.w3.org/1999/02/22-rdf-syntax-ns#Bag" target="_blank" onmouseover="show_status('http://www.w3.org/1999/02/22-rdf-syntax-ns#Bag');">
<ellipse cx="656" cy="962" rx="28" ry="18" style="fill:#d2d2d2;stroke:#d2d2d2"/>
<text text-anchor="middle" x="656" y="966" style="font-family:arial">rdf:Bag</text>
</a></g>
<g id="edge57" class="edge"><title>:_14-&gt;:_15</title>
<a xlink:href="http://www2.elsevier.co.uk/~tony/1014/yads-schema-2002-04-03#collection" target="_blank" onmouseover="show_status('http://www2.elsevier.co.uk/~tony/1014/yads-schema-2002-04-03#collection');">
<path style="fill:none;stroke:#add9e6" d="M604,890C606,901 609,915 615,926 618,932 624,938 629,943"/>
<polygon style="fill:#add9e6;stroke:#add9e6" points="627,944 636,949 630,941 627,944"/>
<text text-anchor="middle" x="656" y="921" style="font-family:arial">has:collection</text>
</a></g>
<g id="node66" class="node"><title>doi:1014/tube/northwood</title>
<a xlink:href="http://dx.doi.org/1014/tube/northwood" target="_blank" onmouseover="show_status('http://dx.doi.org/1014/tube/northwood');">
<ellipse cx="855" cy="962" rx="73" ry="18" style="fill:#dca0dd;stroke:#dca0dd"/>
<text text-anchor="middle" x="855" y="966" style="font-family:arial">doi:1014/tube/northwood</text>
</a></g>
<g id="edge65" class="edge"><title>:_17-&gt;doi:1014/tube/northwood</title>
<a xlink:href="http://www2.elsevier.co.uk/~tony/1014/yads-schema-2002-04-03#resource" target="_blank" onmouseover="show_status('http://www2.elsevier.co.uk/~tony/1014/yads-schema-2002-04-03#resource');">
<path style="fill:none;stroke:#add9e6" d="M784,888C792,894 800,901 807,908 815,916 815,919 821,926 824,930 827,933 831,937"/>
<polygon style="fill:#add9e6;stroke:#add9e6" points="829,939 838,944 833,935 829,939"/>
<text text-anchor="middle" x="862" y="921" style="font-family:arial">has:resource</text>
</a></g>
<g id="node68" class="node"><title>:_18</title>
<a xlink:href="http://www.w3.org/1999/02/22-rdf-syntax-ns#Bag" target="_blank" onmouseover="show_status('http://www.w3.org/1999/02/22-rdf-syntax-ns#Bag');">
<ellipse cx="736" cy="962" rx="28" ry="18" style="fill:#d2d2d2;stroke:#d2d2d2"/>
<text text-anchor="middle" x="736" y="966" style="font-family:arial">rdf:Bag</text>
</a></g>
<g id="edge67" class="edge"><title>:_17-&gt;:_18</title>
<a xlink:href="http://www2.elsevier.co.uk/~tony/1014/yads-schema-2002-04-03#collection" target="_blank" onmouseover="show_status('http://www2.elsevier.co.uk/~tony/1014/yads-schema-2002-04-03#collection');">
<path style="fill:none;stroke:#add9e6" d="M738,888C731,894 726,901 722,908 718,917 720,927 723,936"/>
<polygon style="fill:#add9e6;stroke:#add9e6" points="720,936 726,945 725,935 720,936"/>
<text text-anchor="middle" x="766" y="921" style="font-family:arial">has:collection</text>
</a></g>
<g id="node60" class="node"><title>:_16</title>
<ellipse cx="632" cy="1067" rx="33" ry="18" style="fill:#eedb82;stroke:#eedb82"/>
<text text-anchor="middle" x="632" y="1071" style="font-family:arial">tube:Mins</text>
</g>
<g id="edge59" class="edge"><title>:_15-&gt;:_16</title>
<a xlink:href="http://www.w3.org/1999/02/22-rdf-syntax-ns#_1" target="_blank" onmouseover="show_status('http://www.w3.org/1999/02/22-rdf-syntax-ns#_1');">
<path style="fill:none;stroke:#add9e6" d="M652,980C649,996 643,1021 638,1040"/>
<polygon style="fill:#add9e6;stroke:#add9e6" points="636,1039 636,1049 641,1040 636,1039"/>
<text text-anchor="middle" x="669" y="1011" style="font-family:arial">rdf:_1</text>
</a></g>
<g id="node63" class="node"><title>data:,4</title>
<a xlink:href="" onclick="show_data('4');" onmouseover="show_status('data:,4');">
<ellipse cx="635" cy="1171" rx="27" ry="18" style="fill:#dca0dd;stroke:#dca0dd"/>
<text text-anchor="middle" x="635" y="1175" style="font-family:arial">data:,4</text>
</a></g>
<g id="edge62" class="edge"><title>:_16-&gt;data:,4</title>
<a xlink:href="http://www2.elsevier.co.uk/~tony/1014/yads-schema-2002-04-03#resource" target="_blank" onmouseover="show_status('http://www2.elsevier.co.uk/~tony/1014/yads-schema-2002-04-03#resource');">
<path style="fill:none;stroke:#add9e6" d="M633,1085C633,1101 634,1125 634,1144"/>
<polygon style="fill:#add9e6;stroke:#add9e6" points="632,1143 634,1153 637,1143 632,1143"/>
<text text-anchor="middle" x="676" y="1130" style="font-family:arial">has:resource</text>
</a></g>
<g id="node70" class="node"><title>:_19</title>
<ellipse cx="810" cy="1067" rx="33" ry="18" style="fill:#eedb82;stroke:#eedb82"/>
<text text-anchor="middle" x="810" y="1071" style="font-family:arial">tube:Mins</text>
</g>
<g id="edge69" class="edge"><title>:_18-&gt;:_19</title>
<a xlink:href="http://www.w3.org/1999/02/22-rdf-syntax-ns#_1" target="_blank" onmouseover="show_status('http://www.w3.org/1999/02/22-rdf-syntax-ns#_1');">
<path style="fill:none;stroke:#add9e6" d="M748,978C760,996 779,1023 793,1043"/>
<polygon style="fill:#add9e6;stroke:#add9e6" points="790,1043 798,1050 794,1040 790,1043"/>
<text text-anchor="middle" x="794" y="1011" style="font-family:arial">rdf:_1</text>
</a></g>
<g id="node73" class="node"><title>data:,3</title>
<a xlink:href="" onclick="show_data('3');" onmouseover="show_status('data:,3');">
<ellipse cx="817" cy="1171" rx="27" ry="18" style="fill:#dca0dd;stroke:#dca0dd"/>
<text text-anchor="middle" x="817" y="1175" style="font-family:arial">data:,3</text>
</a></g>
<g id="edge72" class="edge"><title>:_19-&gt;data:,3</title>
<a xlink:href="http://www2.elsevier.co.uk/~tony/1014/yads-schema-2002-04-03#resource" target="_blank" onmouseover="show_status('http://www2.elsevier.co.uk/~tony/1014/yads-schema-2002-04-03#resource');">
<path style="fill:none;stroke:#add9e6" d="M811,1085C812,1101 813,1125 815,1144"/>
<polygon style="fill:#add9e6;stroke:#add9e6" points="812,1143 816,1153 817,1143 812,1143"/>
<text text-anchor="middle" x="857" y="1130" style="font-family:arial">has:resource</text>
</a></g>
<g id="node79" class="node"><title>:_22</title>
<ellipse cx="1090" cy="872" rx="53" ry="18" style="fill:#eedb82;stroke:#eedb82"/>
<text text-anchor="middle" x="1090" y="876" style="font-family:arial">tube:PrevStation</text>
</g>
<g id="edge79" class="edge"><title>:_21-&gt;:_22</title>
<a xlink:href="http://www.w3.org/1999/02/22-rdf-syntax-ns#_1" target="_blank" onmouseover="show_status('http://www.w3.org/1999/02/22-rdf-syntax-ns#_1');">
<path style="fill:none;stroke:#add9e6" d="M1090,779C1090,797 1090,824 1090,845"/>
<polygon style="fill:#add9e6;stroke:#add9e6" points="1088,844 1090,854 1093,844 1088,844"/>
<text text-anchor="middle" x="1110" y="816" style="font-family:arial">rdf:_1</text>
</a></g>
<g id="node81" class="node"><title>:_25</title>
<ellipse cx="1282" cy="872" rx="53" ry="18" style="fill:#eedb82;stroke:#eedb82"/>
<text text-anchor="middle" x="1282" y="876" style="font-family:arial">tube:NextStation</text>
</g>
<g id="edge81" class="edge"><title>:_21-&gt;:_25</title>
<a xlink:href="http://www.w3.org/1999/02/22-rdf-syntax-ns#_2" target="_blank" onmouseover="show_status('http://www.w3.org/1999/02/22-rdf-syntax-ns#_2');">
<path style="fill:none;stroke:#add9e6" d="M1112,772C1138,785 1182,808 1217,829 1228,836 1240,844 1250,851"/>
<polygon style="fill:#add9e6;stroke:#add9e6" points="1248,853 1258,856 1251,849 1248,853"/>
<text text-anchor="middle" x="1223" y="816" style="font-family:arial">rdf:_2</text>
</a></g>
<g id="node84" class="node"><title>doi:1014/tube/croxley</title>
<a xlink:href="http://dx.doi.org/1014/tube/croxley" target="_blank" onmouseover="show_status('http://dx.doi.org/1014/tube/croxley');">
<ellipse cx="1067" cy="962" rx="64" ry="18" style="fill:#dca0dd;stroke:#dca0dd"/>
<text text-anchor="middle" x="1067" y="966" style="font-family:arial">doi:1014/tube/croxley</text>
</a></g>
<g id="edge84" class="edge"><title>:_22-&gt;doi:1014/tube/croxley</title>
<a xlink:href="http://www2.elsevier.co.uk/~tony/1014/yads-schema-2002-04-03#resource" target="_blank" onmouseover="show_status('http://www2.elsevier.co.uk/~tony/1014/yads-schema-2002-04-03#resource');">
<path style="fill:none;stroke:#add9e6" d="M1060,887C1051,892 1044,899 1039,908 1034,917 1037,927 1043,936"/>
<polygon style="fill:#add9e6;stroke:#add9e6" points="1041,937 1048,944 1045,934 1041,937"/>
<text text-anchor="middle" x="1083" y="921" style="font-family:arial">has:resource</text>
</a></g>
<g id="node86" class="node"><title>:_23</title>
<a xlink:href="http://www.w3.org/1999/02/22-rdf-syntax-ns#Bag" target="_blank" onmouseover="show_status('http://www.w3.org/1999/02/22-rdf-syntax-ns#Bag');">
<ellipse cx="1177" cy="962" rx="28" ry="18" style="fill:#d2d2d2;stroke:#d2d2d2"/>
<text text-anchor="middle" x="1177" y="966" style="font-family:arial">rdf:Bag</text>
</a></g>
<g id="edge86" class="edge"><title>:_22-&gt;:_23</title>
<a xlink:href="http://www2.elsevier.co.uk/~tony/1014/yads-schema-2002-04-03#collection" target="_blank" onmouseover="show_status('http://www2.elsevier.co.uk/~tony/1014/yads-schema-2002-04-03#collection');">
<path style="fill:none;stroke:#add9e6" d="M1108,889C1113,895 1119,902 1124,908 1130,916 1130,919 1136,926 1141,931 1146,937 1152,942"/>
<polygon style="fill:#add9e6;stroke:#add9e6" points="1150,943 1159,948 1153,940 1150,943"/>
<text text-anchor="middle" x="1177" y="921" style="font-family:arial">has:collection</text>
</a></g>
<g id="edge94" class="edge"><title>:_25-&gt;doi:1014/tube/northwood</title>
<a xlink:href="http://www2.elsevier.co.uk/~tony/1014/yads-schema-2002-04-03#resource" target="_blank" onmouseover="show_status('http://www2.elsevier.co.uk/~tony/1014/yads-schema-2002-04-03#resource');">
<path style="fill:none;stroke:#add9e6" d="M1240,883C1234,886 1227,888 1217,890 1184,897 937,886 910,908 904,914 911,920 906,926 903,931 899,936 894,940"/>
<polygon style="fill:#add9e6;stroke:#add9e6" points="893,938 886,946 895,942 893,938"/>
<text text-anchor="middle" x="957" y="921" style="font-family:arial">has:resource</text>
</a></g>
<g id="node94" class="node"><title>:_26</title>
<a xlink:href="http://www.w3.org/1999/02/22-rdf-syntax-ns#Bag" target="_blank" onmouseover="show_status('http://www.w3.org/1999/02/22-rdf-syntax-ns#Bag');">
<ellipse cx="1263" cy="962" rx="28" ry="18" style="fill:#d2d2d2;stroke:#d2d2d2"/>
<text text-anchor="middle" x="1263" y="966" style="font-family:arial">rdf:Bag</text>
</a></g>
<g id="edge96" class="edge"><title>:_25-&gt;:_26</title>
<a xlink:href="http://www2.elsevier.co.uk/~tony/1014/yads-schema-2002-04-03#collection" target="_blank" onmouseover="show_status('http://www2.elsevier.co.uk/~tony/1014/yads-schema-2002-04-03#collection');">
<path style="fill:none;stroke:#add9e6" d="M1265,889C1260,895 1256,901 1254,908 1251,917 1251,927 1253,935"/>
<polygon style="fill:#add9e6;stroke:#add9e6" points="1250,935 1256,944 1255,934 1250,935"/>
<text text-anchor="middle" x="1295" y="921" style="font-family:arial">has:collection</text>
</a></g>
<g id="node88" class="node"><title>:_24</title>
<ellipse cx="1074" cy="1067" rx="33" ry="18" style="fill:#eedb82;stroke:#eedb82"/>
<text text-anchor="middle" x="1074" y="1071" style="font-family:arial">tube:Mins</text>
</g>
<g id="edge88" class="edge"><title>:_23-&gt;:_24</title>
<a xlink:href="http://www.w3.org/1999/02/22-rdf-syntax-ns#_1" target="_blank" onmouseover="show_status('http://www.w3.org/1999/02/22-rdf-syntax-ns#_1');">
<path style="fill:none;stroke:#add9e6" d="M1162,977C1145,995 1116,1024 1096,1045"/>
<polygon style="fill:#add9e6;stroke:#add9e6" points="1095,1042 1090,1051 1099,1046 1095,1042"/>
<text text-anchor="middle" x="1162" y="1011" style="font-family:arial">rdf:_1</text>
</a></g>
<g id="edge91" class="edge"><title>:_24-&gt;data:,4</title>
<a xlink:href="http://www2.elsevier.co.uk/~tony/1014/yads-schema-2002-04-03#resource" target="_blank" onmouseover="show_status('http://www2.elsevier.co.uk/~tony/1014/yads-schema-2002-04-03#resource');">
<path style="fill:none;stroke:#add9e6" d="M1047,1078C1008,1093 935,1120 870,1135 852,1140 731,1157 669,1166"/>
<polygon style="fill:#add9e6;stroke:#add9e6" points="671,1163 661,1167 671,1168 671,1163"/>
<text text-anchor="middle" x="984" y="1130" style="font-family:arial">has:resource</text>
</a></g>
<g id="node96" class="node"><title>:_27</title>
<ellipse cx="1270" cy="1067" rx="33" ry="18" style="fill:#eedb82;stroke:#eedb82"/>
<text text-anchor="middle" x="1270" y="1071" style="font-family:arial">tube:Mins</text>
</g>
<g id="edge98" class="edge"><title>:_26-&gt;:_27</title>
<a xlink:href="http://www.w3.org/1999/02/22-rdf-syntax-ns#_1" target="_blank" onmouseover="show_status('http://www.w3.org/1999/02/22-rdf-syntax-ns#_1');">
<path style="fill:none;stroke:#add9e6" d="M1264,980C1265,996 1266,1021 1268,1040"/>
<polygon style="fill:#add9e6;stroke:#add9e6" points="1265,1039 1269,1049 1270,1039 1265,1039"/>
<text text-anchor="middle" x="1286" y="1011" style="font-family:arial">rdf:_1</text>
</a></g>
<g id="edge101" class="edge"><title>:_27-&gt;data:,3</title>
<a xlink:href="http://www2.elsevier.co.uk/~tony/1014/yads-schema-2002-04-03#resource" target="_blank" onmouseover="show_status('http://www2.elsevier.co.uk/~tony/1014/yads-schema-2002-04-03#resource');">
<path style="fill:none;stroke:#add9e6" d="M1241,1076C1196,1090 1106,1118 1028,1135 967,1149 894,1160 853,1166"/>
<polygon style="fill:#add9e6;stroke:#add9e6" points="854,1163 844,1167 854,1168 854,1163"/>
<text text-anchor="middle" x="1150" y="1130" style="font-family:arial">has:resource</text>
</a></g>
</g>
</svg>
