<?xml version="1.0" encoding="UTF-8" standalone="no"?>
<!DOCTYPE svg PUBLIC "-//W3C//DTD SVG 1.0//EN"
 "http://www.w3.org/TR/2001/REC-SVG-20010904/DTD/svg10.dtd" [
 <!ATTLIST svg xmlns:xlink CDATA #FIXED "http://www.w3.org/1999/xlink">
]>
<!-- Generated by dot version 1.8.5 (Tue Apr 23 17:19:23  2002)
     For user: (Administrator) ,S-1-5-21-1454471165-688789844-1708537768-500   Title: yads    Pages: 1 -->
<svg width="807px" height="1266px"
 xmlns="http://www.w3.org/2000/svg" xmlns:xlink="http://www.w3.org/1999/xlink">
<g id="graph0" class="graph" style="font-family:Times-Roman;font-size:11.00">
<title>yads</title>
<text text-anchor="middle" x="403" y="1255" style="font-family:arial;font-size:24.00">YADS - A Description Service</text>
<g id="graph2" class="cluster"><title>cluster_1</title>
<polygon style="fill:none;stroke:#d2d2d2;stroke-dasharray:5,2" points="19,1223 788,1223 788,43 19,43 19,1223"/>
<text text-anchor="middle" x="106" y="55" style="font-family:arial">Nest - Northwood Hills Station</text>
</g>
<g id="graph3" class="cluster"><title>cluster_3</title>
<polygon style="fill:none;stroke:#d2d2d2;stroke-dasharray:5,2" points="27,1215 780,1215 780,238 27,238 27,1215"/>
<text text-anchor="middle" x="99" y="250" style="font-family:arial">Nest - Application Profile</text>
</g>
<g id="graph4" class="cluster"><title>cluster_5</title>
<polygon style="fill:none;stroke:#d2d2d2;stroke-dasharray:5,2" points="35,795 278,795 278,433 35,433 35,795"/>
<text text-anchor="middle" x="80" y="445" style="font-family:arial">Item - Location</text>
</g>
<g id="graph5" class="cluster"><title>cluster_7</title>
<polygon style="fill:none;stroke:#d2d2d2;stroke-dasharray:5,2" points="43,787 165,787 165,628 43,628 43,787"/>
<text text-anchor="middle" x="59" y="640" style="font-family:arial">Item</text>
</g>
<g id="graph6" class="cluster"><title>cluster_8</title>
<polygon style="fill:none;stroke:#d2d2d2;stroke-dasharray:5,2" points="173,787 270,787 270,628 173,628 173,787"/>
<text text-anchor="middle" x="189" y="640" style="font-family:arial">Item</text>
</g>
<g id="graph7" class="cluster"><title>cluster_9</title>
<polygon style="fill:none;stroke:#d2d2d2;stroke-dasharray:5,2" points="286,1207 772,1207 772,433 286,433 286,1207"/>
<text text-anchor="middle" x="355" y="445" style="font-family:arial">Item - Line Interchanges</text>
</g>
<g id="graph8" class="cluster"><title>cluster_11</title>
<polygon style="fill:none;stroke:#d2d2d2;stroke-dasharray:5,2" points="294,1199 764,1199 764,628 294,628 294,1199"/>
<text text-anchor="middle" x="362" y="640" style="font-family:arial">Nest - Line Interchange</text>
</g>
<g id="graph9" class="cluster"><title>cluster_13</title>
<polygon style="fill:none;stroke:#d2d2d2;stroke-dasharray:5,2" points="302,1191 538,1191 538,829 302,829 302,1191"/>
<text text-anchor="middle" x="320" y="841" style="font-family:arial">Nest</text>
</g>
<g id="graph10" class="cluster"><title>cluster_15</title>
<polygon style="fill:none;stroke:#d2d2d2;stroke-dasharray:5,2" points="433,1183 530,1183 530,1024 433,1024 433,1183"/>
<text text-anchor="middle" x="449" y="1036" style="font-family:arial">Item</text>
</g>
<g id="graph11" class="cluster"><title>cluster_16</title>
<polygon style="fill:none;stroke:#d2d2d2;stroke-dasharray:5,2" points="546,1191 756,1191 756,829 546,829 546,1191"/>
<text text-anchor="middle" x="564" y="841" style="font-family:arial">Nest</text>
</g>
<g id="graph12" class="cluster"><title>cluster_18</title>
<polygon style="fill:none;stroke:#d2d2d2;stroke-dasharray:5,2" points="651,1183 748,1183 748,1024 651,1024 651,1183"/>
<text text-anchor="middle" x="667" y="1036" style="font-family:arial">Item</text>
</g>
<g id="node2" class="node"><title>:_1</title>
<ellipse cx="264" cy="86" rx="40" ry="18" style="fill:#eedb82;stroke:#eedb82"/>
<text text-anchor="middle" x="264" y="90" style="font-family:arial">tube:Station</text>
</g>
<g id="node4" class="node"><title>doi:1014/tube/northwood_hills</title>
<a xlink:href="http://dx.doi.org/1014/tube/northwood_hills" target="_blank" onmouseover="show_status('http://dx.doi.org/1014/tube/northwood_hills');">
<ellipse cx="113" cy="176" rx="86" ry="18" style="fill:#dca0dd;stroke:#dca0dd"/>
<text text-anchor="middle" x="113" y="180" style="font-family:arial">doi:1014/tube/northwood_hills</text>
</a></g>
<g id="edge3" class="edge"><title>:_1-&gt;doi:1014/tube/northwood_hills</title>
<a xlink:href="http://www2.elsevier.co.uk/~tony/1014/yads-schema-2002-04-03#resource" target="_blank" onmouseover="show_status('http://www2.elsevier.co.uk/~tony/1014/yads-schema-2002-04-03#resource');">
<path style="fill:none;stroke:#add9e6" d="M232,97C216,103 196,112 179,122 165,131 151,142 139,152"/>
<polygon style="fill:#add9e6;stroke:#add9e6" points="138,150 132,158 141,153 138,150"/>
<text text-anchor="middle" x="226" y="135" style="font-family:arial">has:resource</text>
</a></g>
<g id="node6" class="node"><title>node_1</title>
<polygon style="fill:#6497ed;stroke:#6497ed" points="311,158 217,158 217,194 311,194 311,158"/>
<text text-anchor="middle" x="264" y="180" style="font-family:arial">Northwood Hills</text>
</g>
<g id="edge5" class="edge"><title>:_1-&gt;node_1</title>
<a xlink:href="http://www2.elsevier.co.uk/~tony/1014/yads-schema-2002-04-03#label" target="_blank" onmouseover="show_status('http://www2.elsevier.co.uk/~tony/1014/yads-schema-2002-04-03#label');">
<path style="fill:none;stroke:#add9e6" d="M264,104C264,117 264,134 264,149"/>
<polygon style="fill:#add9e6;stroke:#add9e6" points="262,148 264,158 267,148 262,148"/>
<text text-anchor="middle" x="291" y="135" style="font-family:arial">has:label</text>
</a></g>
<g id="node8" class="node"><title>:_2</title>
<a xlink:href="http://www.w3.org/1999/02/22-rdf-syntax-ns#Bag" target="_blank" onmouseover="show_status('http://www.w3.org/1999/02/22-rdf-syntax-ns#Bag');">
<ellipse cx="357" cy="176" rx="28" ry="18" style="fill:#d2d2d2;stroke:#d2d2d2"/>
<text text-anchor="middle" x="357" y="180" style="font-family:arial">rdf:Bag</text>
</a></g>
<g id="edge7" class="edge"><title>:_1-&gt;:_2</title>
<a xlink:href="http://www2.elsevier.co.uk/~tony/1014/yads-schema-2002-04-03#collection" target="_blank" onmouseover="show_status('http://www2.elsevier.co.uk/~tony/1014/yads-schema-2002-04-03#collection');">
<path style="fill:none;stroke:#add9e6" d="M291,99C302,105 314,113 323,122 332,131 339,141 345,151"/>
<polygon style="fill:#add9e6;stroke:#add9e6" points="342,151 349,159 347,149 342,151"/>
<text text-anchor="middle" x="380" y="135" style="font-family:arial">has:collection</text>
</a></g>
<g id="node10" class="node"><title>:_3</title>
<ellipse cx="357" cy="281" rx="34" ry="18" style="fill:#eedb82;stroke:#eedb82"/>
<text text-anchor="middle" x="357" y="285" style="font-family:arial">doi:Profile</text>
</g>
<g id="edge9" class="edge"><title>:_2-&gt;:_3</title>
<a xlink:href="http://www.w3.org/1999/02/22-rdf-syntax-ns#_1" target="_blank" onmouseover="show_status('http://www.w3.org/1999/02/22-rdf-syntax-ns#_1');">
<path style="fill:none;stroke:#add9e6" d="M357,194C357,210 357,235 357,254"/>
<polygon style="fill:#add9e6;stroke:#add9e6" points="355,253 357,263 360,253 355,253"/>
<text text-anchor="middle" x="377" y="225" style="font-family:arial">rdf:_1</text>
</a></g>
<g id="node13" class="node"><title>doi:1014/profile.tube</title>
<a xlink:href="http://dx.doi.org/1014/profile.tube" target="_blank" onmouseover="show_status('http://dx.doi.org/1014/profile.tube');">
<ellipse cx="255" cy="371" rx="59" ry="18" style="fill:#dca0dd;stroke:#dca0dd"/>
<text text-anchor="middle" x="255" y="375" style="font-family:arial">doi:1014/profile.tube</text>
</a></g>
<g id="edge12" class="edge"><title>:_3-&gt;doi:1014/profile.tube</title>
<a xlink:href="http://www2.elsevier.co.uk/~tony/1014/yads-schema-2002-04-03#resource" target="_blank" onmouseover="show_status('http://www2.elsevier.co.uk/~tony/1014/yads-schema-2002-04-03#resource');">
<path style="fill:none;stroke:#add9e6" d="M326,288C308,294 288,303 274,317 267,325 263,334 260,344"/>
<polygon style="fill:#add9e6;stroke:#add9e6" points="258,343 258,353 263,344 258,343"/>
<text text-anchor="middle" x="318" y="330" style="font-family:arial">has:resource</text>
</a></g>
<g id="node15" class="node"><title>:_4</title>
<a xlink:href="http://www.w3.org/1999/02/22-rdf-syntax-ns#Bag" target="_blank" onmouseover="show_status('http://www.w3.org/1999/02/22-rdf-syntax-ns#Bag');">
<ellipse cx="360" cy="371" rx="28" ry="18" style="fill:#d2d2d2;stroke:#d2d2d2"/>
<text text-anchor="middle" x="360" y="375" style="font-family:arial">rdf:Bag</text>
</a></g>
<g id="edge14" class="edge"><title>:_3-&gt;:_4</title>
<a xlink:href="http://www2.elsevier.co.uk/~tony/1014/yads-schema-2002-04-03#collection" target="_blank" onmouseover="show_status('http://www2.elsevier.co.uk/~tony/1014/yads-schema-2002-04-03#collection');">
<path style="fill:none;stroke:#add9e6" d="M358,299C358,312 359,329 359,344"/>
<polygon style="fill:#add9e6;stroke:#add9e6" points="357,343 359,353 362,343 357,343"/>
<text text-anchor="middle" x="401" y="330" style="font-family:arial">has:collection</text>
</a></g>
<g id="node17" class="node"><title>:_5</title>
<a xlink:href="http://www2.elsevier.co.uk/~tony/1014/yads-schema-2002-04-03#Item" target="_blank" onmouseover="show_status('http://www2.elsevier.co.uk/~tony/1014/yads-schema-2002-04-03#Item');">
<ellipse cx="216" cy="476" rx="28" ry="18" style="fill:#d2d2d2;stroke:#d2d2d2"/>
<text text-anchor="middle" x="216" y="480" style="font-family:arial">isa:Item</text>
</a></g>
<g id="edge16" class="edge"><title>:_4-&gt;:_5</title>
<a xlink:href="http://www.w3.org/1999/02/22-rdf-syntax-ns#_1" target="_blank" onmouseover="show_status('http://www.w3.org/1999/02/22-rdf-syntax-ns#_1');">
<path style="fill:none;stroke:#add9e6" d="M341,385C316,404 270,437 241,458"/>
<polygon style="fill:#add9e6;stroke:#add9e6" points="242,454 235,462 245,459 242,454"/>
<text text-anchor="middle" x="333" y="420" style="font-family:arial">rdf:_1</text>
</a></g>
<g id="node19" class="node"><title>:_9</title>
<a xlink:href="http://www2.elsevier.co.uk/~tony/1014/yads-schema-2002-04-03#Item" target="_blank" onmouseover="show_status('http://www2.elsevier.co.uk/~tony/1014/yads-schema-2002-04-03#Item');">
<ellipse cx="361" cy="476" rx="28" ry="18" style="fill:#d2d2d2;stroke:#d2d2d2"/>
<text text-anchor="middle" x="361" y="480" style="font-family:arial">isa:Item</text>
</a></g>
<g id="edge18" class="edge"><title>:_4-&gt;:_9</title>
<a xlink:href="http://www.w3.org/1999/02/22-rdf-syntax-ns#_2" target="_blank" onmouseover="show_status('http://www.w3.org/1999/02/22-rdf-syntax-ns#_2');">
<path style="fill:none;stroke:#add9e6" d="M360,389C360,405 360,430 361,449"/>
<polygon style="fill:#add9e6;stroke:#add9e6" points="359,448 361,458 364,448 359,448"/>
<text text-anchor="middle" x="382" y="420" style="font-family:arial">rdf:_2</text>
</a></g>
<g id="node22" class="node"><title>:_6</title>
<a xlink:href="http://www.w3.org/1999/02/22-rdf-syntax-ns#Bag" target="_blank" onmouseover="show_status('http://www.w3.org/1999/02/22-rdf-syntax-ns#Bag');">
<ellipse cx="189" cy="566" rx="28" ry="18" style="fill:#d2d2d2;stroke:#d2d2d2"/>
<text text-anchor="middle" x="189" y="570" style="font-family:arial">rdf:Bag</text>
</a></g>
<g id="edge21" class="edge"><title>:_5-&gt;:_6</title>
<a xlink:href="http://www2.elsevier.co.uk/~tony/1014/yads-schema-2002-04-03#collection" target="_blank" onmouseover="show_status('http://www2.elsevier.co.uk/~tony/1014/yads-schema-2002-04-03#collection');">
<path style="fill:none;stroke:#add9e6" d="M208,494C206,499 203,506 201,512 198,521 196,530 194,539"/>
<polygon style="fill:#add9e6;stroke:#add9e6" points="192,538 192,548 197,539 192,538"/>
<text text-anchor="middle" x="245" y="525" style="font-family:arial">has:collection</text>
</a></g>
<g id="node35" class="node"><title>:_10</title>
<a xlink:href="http://www.w3.org/1999/02/22-rdf-syntax-ns#Bag" target="_blank" onmouseover="show_status('http://www.w3.org/1999/02/22-rdf-syntax-ns#Bag');">
<ellipse cx="385" cy="566" rx="28" ry="18" style="fill:#d2d2d2;stroke:#d2d2d2"/>
<text text-anchor="middle" x="385" y="570" style="font-family:arial">rdf:Bag</text>
</a></g>
<g id="edge34" class="edge"><title>:_9-&gt;:_10</title>
<a xlink:href="http://www2.elsevier.co.uk/~tony/1014/yads-schema-2002-04-03#collection" target="_blank" onmouseover="show_status('http://www2.elsevier.co.uk/~tony/1014/yads-schema-2002-04-03#collection');">
<path style="fill:none;stroke:#add9e6" d="M366,494C369,507 374,524 378,539"/>
<polygon style="fill:#add9e6;stroke:#add9e6" points="375,539 380,548 380,538 375,539"/>
<text text-anchor="middle" x="417" y="525" style="font-family:arial">has:collection</text>
</a></g>
<g id="node24" class="node"><title>:_7</title>
<ellipse cx="104" cy="671" rx="35" ry="18" style="fill:#eedb82;stroke:#eedb82"/>
<text text-anchor="middle" x="104" y="675" style="font-family:arial">tube:Zone</text>
</g>
<g id="edge23" class="edge"><title>:_6-&gt;:_7</title>
<a xlink:href="http://www.w3.org/1999/02/22-rdf-syntax-ns#_1" target="_blank" onmouseover="show_status('http://www.w3.org/1999/02/22-rdf-syntax-ns#_1');">
<path style="fill:none;stroke:#add9e6" d="M173,581C167,588 160,595 154,602 142,616 130,633 121,647"/>
<polygon style="fill:#add9e6;stroke:#add9e6" points="120,644 116,654 124,647 120,644"/>
<text text-anchor="middle" x="177" y="615" style="font-family:arial">rdf:_1</text>
</a></g>
<g id="node26" class="node"><title>:_8</title>
<ellipse cx="213" cy="671" rx="32" ry="18" style="fill:#eedb82;stroke:#eedb82"/>
<text text-anchor="middle" x="213" y="675" style="font-family:arial">tube:Grid</text>
</g>
<g id="edge25" class="edge"><title>:_6-&gt;:_8</title>
<a xlink:href="http://www.w3.org/1999/02/22-rdf-syntax-ns#_2" target="_blank" onmouseover="show_status('http://www.w3.org/1999/02/22-rdf-syntax-ns#_2');">
<path style="fill:none;stroke:#add9e6" d="M193,584C196,600 202,625 207,644"/>
<polygon style="fill:#add9e6;stroke:#add9e6" points="204,644 209,653 209,643 204,644"/>
<text text-anchor="middle" x="222" y="615" style="font-family:arial">rdf:_2</text>
</a></g>
<g id="node29" class="node"><title>data:,Zone%206</title>
<a xlink:href="" onclick="show_data('Zone%206');" onmouseover="show_status('data:,Zone%206');">
<ellipse cx="104" cy="761" rx="53" ry="18" style="fill:#dca0dd;stroke:#dca0dd"/>
<text text-anchor="middle" x="104" y="765" style="font-family:arial">data:,Zone%206</text>
</a></g>
<g id="edge28" class="edge"><title>:_7-&gt;data:,Zone%206</title>
<a xlink:href="http://www2.elsevier.co.uk/~tony/1014/yads-schema-2002-04-03#resource" target="_blank" onmouseover="show_status('http://www2.elsevier.co.uk/~tony/1014/yads-schema-2002-04-03#resource');">
<path style="fill:none;stroke:#add9e6" d="M95,689C92,694 89,701 88,707 87,715 87,718 88,725 88,728 89,731 90,734"/>
<polygon style="fill:#add9e6;stroke:#add9e6" points="88,735 94,743 92,733 88,735"/>
<text text-anchor="middle" x="132" y="720" style="font-family:arial">has:resource</text>
</a></g>
<g id="node32" class="node"><title>data:,A2</title>
<a xlink:href="" onclick="show_data('A2');" onmouseover="show_status('data:,A2');">
<ellipse cx="212" cy="761" rx="31" ry="18" style="fill:#dca0dd;stroke:#dca0dd"/>
<text text-anchor="middle" x="212" y="765" style="font-family:arial">data:,A2</text>
</a></g>
<g id="edge31" class="edge"><title>:_8-&gt;data:,A2</title>
<a xlink:href="http://www2.elsevier.co.uk/~tony/1014/yads-schema-2002-04-03#resource" target="_blank" onmouseover="show_status('http://www2.elsevier.co.uk/~tony/1014/yads-schema-2002-04-03#resource');">
<path style="fill:none;stroke:#add9e6" d="M211,689C210,695 209,701 209,707 209,716 209,725 209,734"/>
<polygon style="fill:#add9e6;stroke:#add9e6" points="206,733 210,743 211,733 206,733"/>
<text text-anchor="middle" x="253" y="720" style="font-family:arial">has:resource</text>
</a></g>
<g id="node37" class="node"><title>:_11</title>
<ellipse cx="390" cy="671" rx="53" ry="18" style="fill:#eedb82;stroke:#eedb82"/>
<text text-anchor="middle" x="390" y="675" style="font-family:arial">tube:LineChange</text>
</g>
<g id="edge36" class="edge"><title>:_10-&gt;:_11</title>
<a xlink:href="http://www.w3.org/1999/02/22-rdf-syntax-ns#_1" target="_blank" onmouseover="show_status('http://www.w3.org/1999/02/22-rdf-syntax-ns#_1');">
<path style="fill:none;stroke:#add9e6" d="M386,584C387,600 388,625 389,644"/>
<polygon style="fill:#add9e6;stroke:#add9e6" points="387,643 389,653 392,643 387,643"/>
<text text-anchor="middle" x="408" y="615" style="font-family:arial">rdf:_1</text>
</a></g>
<g id="node40" class="node"><title>doi:1014/tube/metropolitan_li...e</title>
<a xlink:href="http://dx.doi.org/1014/tube/metropolitan_line" target="_blank" onmouseover="show_status('http://dx.doi.org/1014/tube/metropolitan_line');">
<ellipse cx="390" cy="761" rx="88" ry="18" style="fill:#dca0dd;stroke:#dca0dd"/>
<text text-anchor="middle" x="390" y="765" style="font-family:arial">doi:1014/tube/metropolitan_li...e</text>
</a></g>
<g id="edge39" class="edge"><title>:_11-&gt;doi:1014/tube/metropolitan_li...e</title>
<a xlink:href="http://www2.elsevier.co.uk/~tony/1014/yads-schema-2002-04-03#resource" target="_blank" onmouseover="show_status('http://www2.elsevier.co.uk/~tony/1014/yads-schema-2002-04-03#resource');">
<path style="fill:none;stroke:#add9e6" d="M390,689C390,702 390,719 390,734"/>
<polygon style="fill:#add9e6;stroke:#add9e6" points="388,733 390,743 393,733 388,733"/>
<text text-anchor="middle" x="431" y="720" style="font-family:arial">has:resource</text>
</a></g>
<g id="node42" class="node"><title>:_12</title>
<a xlink:href="http://www.w3.org/1999/02/22-rdf-syntax-ns#Bag" target="_blank" onmouseover="show_status('http://www.w3.org/1999/02/22-rdf-syntax-ns#Bag');">
<ellipse cx="524" cy="761" rx="28" ry="18" style="fill:#d2d2d2;stroke:#d2d2d2"/>
<text text-anchor="middle" x="524" y="765" style="font-family:arial">rdf:Bag</text>
</a></g>
<g id="edge41" class="edge"><title>:_11-&gt;:_12</title>
<a xlink:href="http://www2.elsevier.co.uk/~tony/1014/yads-schema-2002-04-03#collection" target="_blank" onmouseover="show_status('http://www2.elsevier.co.uk/~tony/1014/yads-schema-2002-04-03#collection');">
<path style="fill:none;stroke:#add9e6" d="M428,683C444,689 461,697 475,707 487,715 498,727 506,737"/>
<polygon style="fill:#add9e6;stroke:#add9e6" points="504,738 512,744 507,735 504,738"/>
<text text-anchor="middle" x="537" y="720" style="font-family:arial">has:collection</text>
</a></g>
<g id="node44" class="node"><title>:_13</title>
<ellipse cx="449" cy="872" rx="53" ry="18" style="fill:#eedb82;stroke:#eedb82"/>
<text text-anchor="middle" x="449" y="876" style="font-family:arial">tube:PrevStation</text>
</g>
<g id="edge43" class="edge"><title>:_12-&gt;:_13</title>
<a xlink:href="http://www.w3.org/1999/02/22-rdf-syntax-ns#_1" target="_blank" onmouseover="show_status('http://www.w3.org/1999/02/22-rdf-syntax-ns#_1');">
<path style="fill:none;stroke:#add9e6" d="M513,778C501,797 480,826 466,847"/>
<polygon style="fill:#add9e6;stroke:#add9e6" points="465,844 461,854 469,847 465,844"/>
<text text-anchor="middle" x="516" y="816" style="font-family:arial">rdf:_1</text>
</a></g>
<g id="node46" class="node"><title>:_16</title>
<ellipse cx="607" cy="872" rx="53" ry="18" style="fill:#eedb82;stroke:#eedb82"/>
<text text-anchor="middle" x="607" y="876" style="font-family:arial">tube:NextStation</text>
</g>
<g id="edge45" class="edge"><title>:_12-&gt;:_16</title>
<a xlink:href="http://www.w3.org/1999/02/22-rdf-syntax-ns#_2" target="_blank" onmouseover="show_status('http://www.w3.org/1999/02/22-rdf-syntax-ns#_2');">
<path style="fill:none;stroke:#add9e6" d="M536,777C549,796 573,826 589,847"/>
<polygon style="fill:#add9e6;stroke:#add9e6" points="586,847 594,854 590,844 586,847"/>
<text text-anchor="middle" x="590" y="816" style="font-family:arial">rdf:_2</text>
</a></g>
<g id="node49" class="node"><title>doi:1014/tube/northwood</title>
<a xlink:href="http://dx.doi.org/1014/tube/northwood" target="_blank" onmouseover="show_status('http://dx.doi.org/1014/tube/northwood');">
<ellipse cx="383" cy="962" rx="73" ry="18" style="fill:#dca0dd;stroke:#dca0dd"/>
<text text-anchor="middle" x="383" y="966" style="font-family:arial">doi:1014/tube/northwood</text>
</a></g>
<g id="edge48" class="edge"><title>:_13-&gt;doi:1014/tube/northwood</title>
<a xlink:href="http://www2.elsevier.co.uk/~tony/1014/yads-schema-2002-04-03#resource" target="_blank" onmouseover="show_status('http://www2.elsevier.co.uk/~tony/1014/yads-schema-2002-04-03#resource');">
<path style="fill:none;stroke:#add9e6" d="M405,882C392,888 378,896 370,908 365,916 366,926 369,935"/>
<polygon style="fill:#add9e6;stroke:#add9e6" points="366,935 372,944 371,934 366,935"/>
<text text-anchor="middle" x="414" y="921" style="font-family:arial">has:resource</text>
</a></g>
<g id="node51" class="node"><title>:_14</title>
<a xlink:href="http://www.w3.org/1999/02/22-rdf-syntax-ns#Bag" target="_blank" onmouseover="show_status('http://www.w3.org/1999/02/22-rdf-syntax-ns#Bag');">
<ellipse cx="502" cy="962" rx="28" ry="18" style="fill:#d2d2d2;stroke:#d2d2d2"/>
<text text-anchor="middle" x="502" y="966" style="font-family:arial">rdf:Bag</text>
</a></g>
<g id="edge50" class="edge"><title>:_13-&gt;:_14</title>
<a xlink:href="http://www2.elsevier.co.uk/~tony/1014/yads-schema-2002-04-03#collection" target="_blank" onmouseover="show_status('http://www2.elsevier.co.uk/~tony/1014/yads-schema-2002-04-03#collection');">
<path style="fill:none;stroke:#add9e6" d="M450,890C452,901 455,915 461,926 464,932 470,938 475,943"/>
<polygon style="fill:#add9e6;stroke:#add9e6" points="473,944 482,949 476,941 473,944"/>
<text text-anchor="middle" x="502" y="921" style="font-family:arial">has:collection</text>
</a></g>
<g id="node59" class="node"><title>doi:1014/tube/pinner</title>
<a xlink:href="http://dx.doi.org/1014/tube/pinner" target="_blank" onmouseover="show_status('http://dx.doi.org/1014/tube/pinner');">
<ellipse cx="614" cy="962" rx="60" ry="18" style="fill:#dca0dd;stroke:#dca0dd"/>
<text text-anchor="middle" x="614" y="966" style="font-family:arial">doi:1014/tube/pinner</text>
</a></g>
<g id="edge58" class="edge"><title>:_16-&gt;doi:1014/tube/pinner</title>
<a xlink:href="http://www2.elsevier.co.uk/~tony/1014/yads-schema-2002-04-03#resource" target="_blank" onmouseover="show_status('http://www2.elsevier.co.uk/~tony/1014/yads-schema-2002-04-03#resource');">
<path style="fill:none;stroke:#add9e6" d="M591,890C584,900 577,914 582,926 584,930 586,934 588,937"/>
<polygon style="fill:#add9e6;stroke:#add9e6" points="586,938 594,945 590,936 586,938"/>
<text text-anchor="middle" x="625" y="921" style="font-family:arial">has:resource</text>
</a></g>
<g id="node61" class="node"><title>:_17</title>
<a xlink:href="http://www.w3.org/1999/02/22-rdf-syntax-ns#Bag" target="_blank" onmouseover="show_status('http://www.w3.org/1999/02/22-rdf-syntax-ns#Bag');">
<ellipse cx="720" cy="962" rx="28" ry="18" style="fill:#d2d2d2;stroke:#d2d2d2"/>
<text text-anchor="middle" x="720" y="966" style="font-family:arial">rdf:Bag</text>
</a></g>
<g id="edge60" class="edge"><title>:_16-&gt;:_17</title>
<a xlink:href="http://www2.elsevier.co.uk/~tony/1014/yads-schema-2002-04-03#collection" target="_blank" onmouseover="show_status('http://www2.elsevier.co.uk/~tony/1014/yads-schema-2002-04-03#collection');">
<path style="fill:none;stroke:#add9e6" d="M632,888C641,894 651,901 659,908 667,916 667,919 675,926 681,932 687,937 694,942"/>
<polygon style="fill:#add9e6;stroke:#add9e6" points="692,943 701,948 695,940 692,943"/>
<text text-anchor="middle" x="716" y="921" style="font-family:arial">has:collection</text>
</a></g>
<g id="node53" class="node"><title>:_15</title>
<ellipse cx="478" cy="1067" rx="33" ry="18" style="fill:#eedb82;stroke:#eedb82"/>
<text text-anchor="middle" x="478" y="1071" style="font-family:arial">tube:Mins</text>
</g>
<g id="edge52" class="edge"><title>:_14-&gt;:_15</title>
<a xlink:href="http://www.w3.org/1999/02/22-rdf-syntax-ns#_1" target="_blank" onmouseover="show_status('http://www.w3.org/1999/02/22-rdf-syntax-ns#_1');">
<path style="fill:none;stroke:#add9e6" d="M498,980C495,996 489,1021 484,1040"/>
<polygon style="fill:#add9e6;stroke:#add9e6" points="482,1039 482,1049 487,1040 482,1039"/>
<text text-anchor="middle" x="515" y="1011" style="font-family:arial">rdf:_1</text>
</a></g>
<g id="node56" class="node"><title>data:,2</title>
<a xlink:href="" onclick="show_data('2');" onmouseover="show_status('data:,2');">
<ellipse cx="468" cy="1157" rx="27" ry="18" style="fill:#dca0dd;stroke:#dca0dd"/>
<text text-anchor="middle" x="468" y="1161" style="font-family:arial">data:,2</text>
</a></g>
<g id="edge55" class="edge"><title>:_15-&gt;data:,2</title>
<a xlink:href="http://www2.elsevier.co.uk/~tony/1014/yads-schema-2002-04-03#resource" target="_blank" onmouseover="show_status('http://www2.elsevier.co.uk/~tony/1014/yads-schema-2002-04-03#resource');">
<path style="fill:none;stroke:#add9e6" d="M476,1085C474,1098 473,1115 471,1130"/>
<polygon style="fill:#add9e6;stroke:#add9e6" points="469,1129 470,1139 474,1129 469,1129"/>
<text text-anchor="middle" x="516" y="1116" style="font-family:arial">has:resource</text>
</a></g>
<g id="node63" class="node"><title>:_18</title>
<ellipse cx="696" cy="1067" rx="33" ry="18" style="fill:#eedb82;stroke:#eedb82"/>
<text text-anchor="middle" x="696" y="1071" style="font-family:arial">tube:Mins</text>
</g>
<g id="edge62" class="edge"><title>:_17-&gt;:_18</title>
<a xlink:href="http://www.w3.org/1999/02/22-rdf-syntax-ns#_1" target="_blank" onmouseover="show_status('http://www.w3.org/1999/02/22-rdf-syntax-ns#_1');">
<path style="fill:none;stroke:#add9e6" d="M714,980C712,985 710,992 708,998 705,1012 702,1027 699,1040"/>
<polygon style="fill:#add9e6;stroke:#add9e6" points="697,1039 698,1049 702,1039 697,1039"/>
<text text-anchor="middle" x="728" y="1011" style="font-family:arial">rdf:_1</text>
</a></g>
<g id="node66" class="node"><title>data:,3</title>
<a xlink:href="" onclick="show_data('3');" onmouseover="show_status('data:,3');">
<ellipse cx="686" cy="1157" rx="27" ry="18" style="fill:#dca0dd;stroke:#dca0dd"/>
<text text-anchor="middle" x="686" y="1161" style="font-family:arial">data:,3</text>
</a></g>
<g id="edge65" class="edge"><title>:_18-&gt;data:,3</title>
<a xlink:href="http://www2.elsevier.co.uk/~tony/1014/yads-schema-2002-04-03#resource" target="_blank" onmouseover="show_status('http://www2.elsevier.co.uk/~tony/1014/yads-schema-2002-04-03#resource');">
<path style="fill:none;stroke:#add9e6" d="M679,1083C674,1089 669,1096 667,1103 663,1113 666,1123 670,1132"/>
<polygon style="fill:#add9e6;stroke:#add9e6" points="667,1132 674,1140 672,1130 667,1132"/>
<text text-anchor="middle" x="708" y="1116" style="font-family:arial">has:resource</text>
</a></g>
</g>
</svg>
