<?xml version="1.0" encoding="UTF-8" standalone="no"?>
<!DOCTYPE svg PUBLIC "-//W3C//DTD SVG 1.0//EN"
 "http://www.w3.org/TR/2001/REC-SVG-20010904/DTD/svg10.dtd" [
 <!ATTLIST svg xmlns:xlink CDATA #FIXED "http://www.w3.org/1999/xlink">
]>
<!-- Generated by dot version 1.8.5 (Tue Apr 23 17:19:23  2002)
     For user: (Administrator) ,S-1-5-21-1454471165-688789844-1708537768-500   Title: yads    Pages: 1 -->
<svg width="1406px" height="1280px"
 xmlns="http://www.w3.org/2000/svg" xmlns:xlink="http://www.w3.org/1999/xlink">
<g id="graph0" class="graph" style="font-family:Times-Roman;font-size:11.00">
<title>yads</title>
<text text-anchor="middle" x="703" y="1269" style="font-family:arial;font-size:24.00">YADS - A Description Service</text>
<g id="graph2" class="cluster"><title>cluster_1</title>
<polygon style="fill:none;stroke:#d2d2d2;stroke-dasharray:5,2" points="19,1237 1387,1237 1387,43 19,43 19,1237"/>
<text text-anchor="middle" x="97" y="55" style="font-family:arial">Nest - North Acton Station</text>
</g>
<g id="graph3" class="cluster"><title>cluster_3</title>
<polygon style="fill:none;stroke:#d2d2d2;stroke-dasharray:5,2" points="27,1229 1379,1229 1379,238 27,238 27,1229"/>
<text text-anchor="middle" x="99" y="250" style="font-family:arial">Nest - Application Profile</text>
</g>
<g id="graph4" class="cluster"><title>cluster_5</title>
<polygon style="fill:none;stroke:#d2d2d2;stroke-dasharray:5,2" points="35,795 408,795 408,433 35,433 35,795"/>
<text text-anchor="middle" x="80" y="445" style="font-family:arial">Item - Location</text>
</g>
<g id="graph5" class="cluster"><title>cluster_7</title>
<polygon style="fill:none;stroke:#d2d2d2;stroke-dasharray:5,2" points="43,787 165,787 165,628 43,628 43,787"/>
<text text-anchor="middle" x="59" y="640" style="font-family:arial">Item</text>
</g>
<g id="graph6" class="cluster"><title>cluster_8</title>
<polygon style="fill:none;stroke:#d2d2d2;stroke-dasharray:5,2" points="173,787 295,787 295,628 173,628 173,787"/>
<text text-anchor="middle" x="189" y="640" style="font-family:arial">Item</text>
</g>
<g id="graph7" class="cluster"><title>cluster_9</title>
<polygon style="fill:none;stroke:#d2d2d2;stroke-dasharray:5,2" points="303,787 400,787 400,628 303,628 303,787"/>
<text text-anchor="middle" x="319" y="640" style="font-family:arial">Item</text>
</g>
<g id="graph8" class="cluster"><title>cluster_10</title>
<polygon style="fill:none;stroke:#d2d2d2;stroke-dasharray:5,2" points="416,1221 1371,1221 1371,433 416,433 416,1221"/>
<text text-anchor="middle" x="485" y="445" style="font-family:arial">Item - Line Interchanges</text>
</g>
<g id="graph9" class="cluster"><title>cluster_12</title>
<polygon style="fill:none;stroke:#d2d2d2;stroke-dasharray:5,2" points="424,1213 936,1213 936,628 424,628 424,1213"/>
<text text-anchor="middle" x="492" y="640" style="font-family:arial">Nest - Line Interchange</text>
</g>
<g id="graph10" class="cluster"><title>cluster_14</title>
<polygon style="fill:none;stroke:#d2d2d2;stroke-dasharray:5,2" points="432,1205 678,1205 678,829 432,829 432,1205"/>
<text text-anchor="middle" x="500" y="841" style="font-family:arial">Nest - Next Stop Back</text>
</g>
<g id="graph11" class="cluster"><title>cluster_16</title>
<polygon style="fill:none;stroke:#d2d2d2;stroke-dasharray:5,2" points="573,1197 670,1197 670,1024 573,1024 573,1197"/>
<text text-anchor="middle" x="589" y="1036" style="font-family:arial">Item</text>
</g>
<g id="graph12" class="cluster"><title>cluster_17</title>
<polygon style="fill:none;stroke:#d2d2d2;stroke-dasharray:5,2" points="686,1205 928,1205 928,829 686,829 686,1205"/>
<text text-anchor="middle" x="738" y="841" style="font-family:arial">Nest - Next Stop</text>
</g>
<g id="graph13" class="cluster"><title>cluster_19</title>
<polygon style="fill:none;stroke:#d2d2d2;stroke-dasharray:5,2" points="758,1197 855,1197 855,1024 758,1024 758,1197"/>
<text text-anchor="middle" x="774" y="1036" style="font-family:arial">Item</text>
</g>
<g id="graph14" class="cluster"><title>cluster_20</title>
<polygon style="fill:none;stroke:#d2d2d2;stroke-dasharray:5,2" points="973,1109 1363,1109 1363,628 973,628 973,1109"/>
<text text-anchor="middle" x="1041" y="640" style="font-family:arial">Nest - Line Interchange</text>
</g>
<g id="graph15" class="cluster"><title>cluster_22</title>
<polygon style="fill:none;stroke:#d2d2d2;stroke-dasharray:5,2" points="981,1101 1225,1101 1225,829 981,829 981,1101"/>
<text text-anchor="middle" x="1049" y="841" style="font-family:arial">Nest - Next Stop Back</text>
</g>
<g id="graph16" class="cluster"><title>cluster_24</title>
<polygon style="fill:none;stroke:#d2d2d2;stroke-dasharray:5,2" points="1026,1093 1108,1093 1108,1024 1026,1024 1026,1093"/>
<text text-anchor="middle" x="1042" y="1036" style="font-family:arial">Item</text>
</g>
<g id="graph17" class="cluster"><title>cluster_25</title>
<polygon style="fill:none;stroke:#d2d2d2;stroke-dasharray:5,2" points="1233,1101 1355,1101 1355,829 1233,829 1233,1101"/>
<text text-anchor="middle" x="1285" y="841" style="font-family:arial">Nest - Next Stop</text>
</g>
<g id="graph18" class="cluster"><title>cluster_27</title>
<polygon style="fill:none;stroke:#d2d2d2;stroke-dasharray:5,2" points="1241,1093 1323,1093 1323,1024 1241,1024 1241,1093"/>
<text text-anchor="middle" x="1257" y="1036" style="font-family:arial">Item</text>
</g>
<g id="node2" class="node"><title>:_1</title>
<ellipse cx="287" cy="86" rx="40" ry="18" style="fill:#eedb82;stroke:#eedb82"/>
<text text-anchor="middle" x="287" y="90" style="font-family:arial">tube:Station</text>
</g>
<g id="node4" class="node"><title>doi:1014/tube/north_acton</title>
<a xlink:href="http://dx.doi.org/1014/tube/north_acton" target="_blank" onmouseover="show_status('http://dx.doi.org/1014/tube/north_acton');">
<ellipse cx="153" cy="176" rx="77" ry="18" style="fill:#dca0dd;stroke:#dca0dd"/>
<text text-anchor="middle" x="153" y="180" style="font-family:arial">doi:1014/tube/north_acton</text>
</a></g>
<g id="edge3" class="edge"><title>:_1-&gt;doi:1014/tube/north_acton</title>
<a xlink:href="http://www2.elsevier.co.uk/~tony/1014/yads-schema-2002-04-03#resource" target="_blank" onmouseover="show_status('http://www2.elsevier.co.uk/~tony/1014/yads-schema-2002-04-03#resource');">
<path style="fill:none;stroke:#add9e6" d="M254,97C238,103 218,111 202,122 191,130 180,141 172,151"/>
<polygon style="fill:#add9e6;stroke:#add9e6" points="171,149 166,158 174,152 171,149"/>
<text text-anchor="middle" x="249" y="135" style="font-family:arial">has:resource</text>
</a></g>
<g id="node6" class="node"><title>node_1</title>
<polygon style="fill:#6497ed;stroke:#6497ed" points="326,158 248,158 248,194 326,194 326,158"/>
<text text-anchor="middle" x="287" y="180" style="font-family:arial">North Acton</text>
</g>
<g id="edge5" class="edge"><title>:_1-&gt;node_1</title>
<a xlink:href="http://www2.elsevier.co.uk/~tony/1014/yads-schema-2002-04-03#label" target="_blank" onmouseover="show_status('http://www2.elsevier.co.uk/~tony/1014/yads-schema-2002-04-03#label');">
<path style="fill:none;stroke:#add9e6" d="M287,104C287,117 287,134 287,149"/>
<polygon style="fill:#add9e6;stroke:#add9e6" points="285,148 287,158 290,148 285,148"/>
<text text-anchor="middle" x="314" y="135" style="font-family:arial">has:label</text>
</a></g>
<g id="node8" class="node"><title>:_2</title>
<a xlink:href="http://www.w3.org/1999/02/22-rdf-syntax-ns#Bag" target="_blank" onmouseover="show_status('http://www.w3.org/1999/02/22-rdf-syntax-ns#Bag');">
<ellipse cx="372" cy="176" rx="28" ry="18" style="fill:#d2d2d2;stroke:#d2d2d2"/>
<text text-anchor="middle" x="372" y="180" style="font-family:arial">rdf:Bag</text>
</a></g>
<g id="edge7" class="edge"><title>:_1-&gt;:_2</title>
<a xlink:href="http://www2.elsevier.co.uk/~tony/1014/yads-schema-2002-04-03#collection" target="_blank" onmouseover="show_status('http://www2.elsevier.co.uk/~tony/1014/yads-schema-2002-04-03#collection');">
<path style="fill:none;stroke:#add9e6" d="M315,99C326,105 338,113 346,122 353,130 359,140 363,150"/>
<polygon style="fill:#add9e6;stroke:#add9e6" points="360,150 366,158 365,148 360,150"/>
<text text-anchor="middle" x="400" y="135" style="font-family:arial">has:collection</text>
</a></g>
<g id="node10" class="node"><title>:_3</title>
<ellipse cx="372" cy="281" rx="34" ry="18" style="fill:#eedb82;stroke:#eedb82"/>
<text text-anchor="middle" x="372" y="285" style="font-family:arial">doi:Profile</text>
</g>
<g id="edge9" class="edge"><title>:_2-&gt;:_3</title>
<a xlink:href="http://www.w3.org/1999/02/22-rdf-syntax-ns#_1" target="_blank" onmouseover="show_status('http://www.w3.org/1999/02/22-rdf-syntax-ns#_1');">
<path style="fill:none;stroke:#add9e6" d="M372,194C372,210 372,235 372,254"/>
<polygon style="fill:#add9e6;stroke:#add9e6" points="370,253 372,263 375,253 370,253"/>
<text text-anchor="middle" x="392" y="225" style="font-family:arial">rdf:_1</text>
</a></g>
<g id="node13" class="node"><title>doi:1014/profile.tube</title>
<a xlink:href="http://dx.doi.org/1014/profile.tube" target="_blank" onmouseover="show_status('http://dx.doi.org/1014/profile.tube');">
<ellipse cx="343" cy="371" rx="59" ry="18" style="fill:#dca0dd;stroke:#dca0dd"/>
<text text-anchor="middle" x="343" y="375" style="font-family:arial">doi:1014/profile.tube</text>
</a></g>
<g id="edge12" class="edge"><title>:_3-&gt;doi:1014/profile.tube</title>
<a xlink:href="http://www2.elsevier.co.uk/~tony/1014/yads-schema-2002-04-03#resource" target="_blank" onmouseover="show_status('http://www2.elsevier.co.uk/~tony/1014/yads-schema-2002-04-03#resource');">
<path style="fill:none;stroke:#add9e6" d="M366,299C362,312 356,329 352,344"/>
<polygon style="fill:#add9e6;stroke:#add9e6" points="350,343 349,353 355,344 350,343"/>
<text text-anchor="middle" x="402" y="330" style="font-family:arial">has:resource</text>
</a></g>
<g id="node15" class="node"><title>:_4</title>
<a xlink:href="http://www.w3.org/1999/02/22-rdf-syntax-ns#Bag" target="_blank" onmouseover="show_status('http://www.w3.org/1999/02/22-rdf-syntax-ns#Bag');">
<ellipse cx="448" cy="371" rx="28" ry="18" style="fill:#d2d2d2;stroke:#d2d2d2"/>
<text text-anchor="middle" x="448" y="375" style="font-family:arial">rdf:Bag</text>
</a></g>
<g id="edge14" class="edge"><title>:_3-&gt;:_4</title>
<a xlink:href="http://www2.elsevier.co.uk/~tony/1014/yads-schema-2002-04-03#collection" target="_blank" onmouseover="show_status('http://www2.elsevier.co.uk/~tony/1014/yads-schema-2002-04-03#collection');">
<path style="fill:none;stroke:#add9e6" d="M403,288C419,294 437,302 446,317 451,325 453,335 453,344"/>
<polygon style="fill:#add9e6;stroke:#add9e6" points="451,343 452,353 456,343 451,343"/>
<text text-anchor="middle" x="494" y="330" style="font-family:arial">has:collection</text>
</a></g>
<g id="node17" class="node"><title>:_5</title>
<a xlink:href="http://www2.elsevier.co.uk/~tony/1014/yads-schema-2002-04-03#Item" target="_blank" onmouseover="show_status('http://www2.elsevier.co.uk/~tony/1014/yads-schema-2002-04-03#Item');">
<ellipse cx="371" cy="476" rx="28" ry="18" style="fill:#d2d2d2;stroke:#d2d2d2"/>
<text text-anchor="middle" x="371" y="480" style="font-family:arial">isa:Item</text>
</a></g>
<g id="edge16" class="edge"><title>:_4-&gt;:_5</title>
<a xlink:href="http://www.w3.org/1999/02/22-rdf-syntax-ns#_1" target="_blank" onmouseover="show_status('http://www.w3.org/1999/02/22-rdf-syntax-ns#_1');">
<path style="fill:none;stroke:#add9e6" d="M436,387C423,405 403,433 388,452"/>
<polygon style="fill:#add9e6;stroke:#add9e6" points="387,449 383,459 391,452 387,449"/>
<text text-anchor="middle" x="442" y="420" style="font-family:arial">rdf:_1</text>
</a></g>
<g id="node19" class="node"><title>:_10</title>
<a xlink:href="http://www2.elsevier.co.uk/~tony/1014/yads-schema-2002-04-03#Item" target="_blank" onmouseover="show_status('http://www2.elsevier.co.uk/~tony/1014/yads-schema-2002-04-03#Item');">
<ellipse cx="537" cy="476" rx="28" ry="18" style="fill:#d2d2d2;stroke:#d2d2d2"/>
<text text-anchor="middle" x="537" y="480" style="font-family:arial">isa:Item</text>
</a></g>
<g id="edge18" class="edge"><title>:_4-&gt;:_10</title>
<a xlink:href="http://www.w3.org/1999/02/22-rdf-syntax-ns#_2" target="_blank" onmouseover="show_status('http://www.w3.org/1999/02/22-rdf-syntax-ns#_2');">
<path style="fill:none;stroke:#add9e6" d="M462,387C476,405 501,433 518,453"/>
<polygon style="fill:#add9e6;stroke:#add9e6" points="516,454 524,460 519,451 516,454"/>
<text text-anchor="middle" x="515" y="420" style="font-family:arial">rdf:_2</text>
</a></g>
<g id="node22" class="node"><title>:_6</title>
<a xlink:href="http://www.w3.org/1999/02/22-rdf-syntax-ns#Bag" target="_blank" onmouseover="show_status('http://www.w3.org/1999/02/22-rdf-syntax-ns#Bag');">
<ellipse cx="266" cy="566" rx="28" ry="18" style="fill:#d2d2d2;stroke:#d2d2d2"/>
<text text-anchor="middle" x="266" y="570" style="font-family:arial">rdf:Bag</text>
</a></g>
<g id="edge21" class="edge"><title>:_5-&gt;:_6</title>
<a xlink:href="http://www2.elsevier.co.uk/~tony/1014/yads-schema-2002-04-03#collection" target="_blank" onmouseover="show_status('http://www2.elsevier.co.uk/~tony/1014/yads-schema-2002-04-03#collection');">
<path style="fill:none;stroke:#add9e6" d="M354,490C336,505 309,528 290,545"/>
<polygon style="fill:#add9e6;stroke:#add9e6" points="289,543 283,551 292,546 289,543"/>
<text text-anchor="middle" x="370" y="525" style="font-family:arial">has:collection</text>
</a></g>
<g id="node40" class="node"><title>:_11</title>
<a xlink:href="http://www.w3.org/1999/02/22-rdf-syntax-ns#Bag" target="_blank" onmouseover="show_status('http://www.w3.org/1999/02/22-rdf-syntax-ns#Bag');">
<ellipse cx="790" cy="566" rx="28" ry="18" style="fill:#d2d2d2;stroke:#d2d2d2"/>
<text text-anchor="middle" x="790" y="570" style="font-family:arial">rdf:Bag</text>
</a></g>
<g id="edge39" class="edge"><title>:_10-&gt;:_11</title>
<a xlink:href="http://www2.elsevier.co.uk/~tony/1014/yads-schema-2002-04-03#collection" target="_blank" onmouseover="show_status('http://www2.elsevier.co.uk/~tony/1014/yads-schema-2002-04-03#collection');">
<path style="fill:none;stroke:#add9e6" d="M562,485C608,501 708,537 759,555"/>
<polygon style="fill:#add9e6;stroke:#add9e6" points="756,557 766,557 757,552 756,557"/>
<text text-anchor="middle" x="728" y="525" style="font-family:arial">has:collection</text>
</a></g>
<g id="node24" class="node"><title>:_7</title>
<ellipse cx="104" cy="671" rx="35" ry="18" style="fill:#eedb82;stroke:#eedb82"/>
<text text-anchor="middle" x="104" y="675" style="font-family:arial">tube:Zone</text>
</g>
<g id="edge23" class="edge"><title>:_6-&gt;:_7</title>
<a xlink:href="http://www.w3.org/1999/02/22-rdf-syntax-ns#_1" target="_blank" onmouseover="show_status('http://www.w3.org/1999/02/22-rdf-syntax-ns#_1');">
<path style="fill:none;stroke:#add9e6" d="M244,577C232,585 224,591 206,602 181,619 152,638 132,652"/>
<polygon style="fill:#add9e6;stroke:#add9e6" points="132,649 125,657 135,653 132,649"/>
<text text-anchor="middle" x="232" y="615" style="font-family:arial">rdf:_1</text>
</a></g>
<g id="node26" class="node"><title>:_8</title>
<ellipse cx="234" cy="671" rx="35" ry="18" style="fill:#eedb82;stroke:#eedb82"/>
<text text-anchor="middle" x="234" y="675" style="font-family:arial">tube:Zone</text>
</g>
<g id="edge25" class="edge"><title>:_6-&gt;:_8</title>
<a xlink:href="http://www.w3.org/1999/02/22-rdf-syntax-ns#_2" target="_blank" onmouseover="show_status('http://www.w3.org/1999/02/22-rdf-syntax-ns#_2');">
<path style="fill:none;stroke:#add9e6" d="M261,584C256,600 248,626 242,645"/>
<polygon style="fill:#add9e6;stroke:#add9e6" points="240,643 239,653 245,645 240,643"/>
<text text-anchor="middle" x="277" y="615" style="font-family:arial">rdf:_2</text>
</a></g>
<g id="node28" class="node"><title>:_9</title>
<ellipse cx="343" cy="671" rx="32" ry="18" style="fill:#eedb82;stroke:#eedb82"/>
<text text-anchor="middle" x="343" y="675" style="font-family:arial">tube:Grid</text>
</g>
<g id="edge27" class="edge"><title>:_6-&gt;:_9</title>
<a xlink:href="http://www.w3.org/1999/02/22-rdf-syntax-ns#_3" target="_blank" onmouseover="show_status('http://www.w3.org/1999/02/22-rdf-syntax-ns#_3');">
<path style="fill:none;stroke:#add9e6" d="M283,581C290,587 297,594 303,602 314,615 323,632 331,646"/>
<polygon style="fill:#add9e6;stroke:#add9e6" points="328,646 335,653 332,643 328,646"/>
<text text-anchor="middle" x="337" y="615" style="font-family:arial">rdf:_3</text>
</a></g>
<g id="node31" class="node"><title>data:,Zone%203</title>
<a xlink:href="" onclick="show_data('Zone%203');" onmouseover="show_status('data:,Zone%203');">
<ellipse cx="104" cy="761" rx="53" ry="18" style="fill:#dca0dd;stroke:#dca0dd"/>
<text text-anchor="middle" x="104" y="765" style="font-family:arial">data:,Zone%203</text>
</a></g>
<g id="edge30" class="edge"><title>:_7-&gt;data:,Zone%203</title>
<a xlink:href="http://www2.elsevier.co.uk/~tony/1014/yads-schema-2002-04-03#resource" target="_blank" onmouseover="show_status('http://www2.elsevier.co.uk/~tony/1014/yads-schema-2002-04-03#resource');">
<path style="fill:none;stroke:#add9e6" d="M95,689C92,694 89,701 88,707 87,715 87,718 88,725 88,728 89,731 90,734"/>
<polygon style="fill:#add9e6;stroke:#add9e6" points="88,735 94,743 92,733 88,735"/>
<text text-anchor="middle" x="132" y="720" style="font-family:arial">has:resource</text>
</a></g>
<g id="node34" class="node"><title>data:,Zone%202</title>
<a xlink:href="" onclick="show_data('Zone%202');" onmouseover="show_status('data:,Zone%202');">
<ellipse cx="234" cy="761" rx="53" ry="18" style="fill:#dca0dd;stroke:#dca0dd"/>
<text text-anchor="middle" x="234" y="765" style="font-family:arial">data:,Zone%202</text>
</a></g>
<g id="edge33" class="edge"><title>:_8-&gt;data:,Zone%202</title>
<a xlink:href="http://www2.elsevier.co.uk/~tony/1014/yads-schema-2002-04-03#resource" target="_blank" onmouseover="show_status('http://www2.elsevier.co.uk/~tony/1014/yads-schema-2002-04-03#resource');">
<path style="fill:none;stroke:#add9e6" d="M225,689C222,694 219,701 218,707 217,715 217,718 218,725 218,728 219,731 220,734"/>
<polygon style="fill:#add9e6;stroke:#add9e6" points="218,735 224,743 222,733 218,735"/>
<text text-anchor="middle" x="262" y="720" style="font-family:arial">has:resource</text>
</a></g>
<g id="node37" class="node"><title>data:,C2</title>
<a xlink:href="" onclick="show_data('C2');" onmouseover="show_status('data:,C2');">
<ellipse cx="341" cy="761" rx="30" ry="18" style="fill:#dca0dd;stroke:#dca0dd"/>
<text text-anchor="middle" x="341" y="765" style="font-family:arial">data:,C2</text>
</a></g>
<g id="edge36" class="edge"><title>:_9-&gt;data:,C2</title>
<a xlink:href="http://www2.elsevier.co.uk/~tony/1014/yads-schema-2002-04-03#resource" target="_blank" onmouseover="show_status('http://www2.elsevier.co.uk/~tony/1014/yads-schema-2002-04-03#resource');">
<path style="fill:none;stroke:#add9e6" d="M341,689C340,695 339,701 339,707 338,716 339,725 339,733"/>
<polygon style="fill:#add9e6;stroke:#add9e6" points="337,733 340,743 341,733 337,733"/>
<text text-anchor="middle" x="383" y="720" style="font-family:arial">has:resource</text>
</a></g>
<g id="node42" class="node"><title>:_12</title>
<ellipse cx="790" cy="671" rx="53" ry="18" style="fill:#eedb82;stroke:#eedb82"/>
<text text-anchor="middle" x="790" y="675" style="font-family:arial">tube:LineChange</text>
</g>
<g id="edge41" class="edge"><title>:_11-&gt;:_12</title>
<a xlink:href="http://www.w3.org/1999/02/22-rdf-syntax-ns#_1" target="_blank" onmouseover="show_status('http://www.w3.org/1999/02/22-rdf-syntax-ns#_1');">
<path style="fill:none;stroke:#add9e6" d="M790,584C790,600 790,625 790,644"/>
<polygon style="fill:#add9e6;stroke:#add9e6" points="788,643 790,653 793,643 788,643"/>
<text text-anchor="middle" x="810" y="615" style="font-family:arial">rdf:_1</text>
</a></g>
<g id="node44" class="node"><title>:_20</title>
<ellipse cx="1034" cy="671" rx="53" ry="18" style="fill:#eedb82;stroke:#eedb82"/>
<text text-anchor="middle" x="1034" y="675" style="font-family:arial">tube:LineChange</text>
</g>
<g id="edge43" class="edge"><title>:_11-&gt;:_20</title>
<a xlink:href="http://www.w3.org/1999/02/22-rdf-syntax-ns#_2" target="_blank" onmouseover="show_status('http://www.w3.org/1999/02/22-rdf-syntax-ns#_2');">
<path style="fill:none;stroke:#add9e6" d="M814,576C843,588 896,609 940,628 958,636 978,645 995,652"/>
<polygon style="fill:#add9e6;stroke:#add9e6" points="993,654 1003,656 995,649 993,654"/>
<text text-anchor="middle" x="941" y="615" style="font-family:arial">rdf:_2</text>
</a></g>
<g id="node47" class="node"><title>doi:1014/tube/central_line</title>
<a xlink:href="http://dx.doi.org/1014/tube/central_line" target="_blank" onmouseover="show_status('http://dx.doi.org/1014/tube/central_line');">
<ellipse cx="854" cy="761" rx="74" ry="18" style="fill:#dca0dd;stroke:#dca0dd"/>
<text text-anchor="middle" x="854" y="765" style="font-family:arial">doi:1014/tube/central_line</text>
</a></g>
<g id="edge46" class="edge"><title>:_12-&gt;doi:1014/tube/central_line</title>
<a xlink:href="http://www2.elsevier.co.uk/~tony/1014/yads-schema-2002-04-03#resource" target="_blank" onmouseover="show_status('http://www2.elsevier.co.uk/~tony/1014/yads-schema-2002-04-03#resource');">
<path style="fill:none;stroke:#add9e6" d="M820,686C829,691 837,699 843,707 848,715 851,725 853,734"/>
<polygon style="fill:#add9e6;stroke:#add9e6" points="850,733 854,743 855,733 850,733"/>
<text text-anchor="middle" x="893" y="720" style="font-family:arial">has:resource</text>
</a></g>
<g id="node49" class="node"><title>:_13</title>
<a xlink:href="http://www.w3.org/1999/02/22-rdf-syntax-ns#Bag" target="_blank" onmouseover="show_status('http://www.w3.org/1999/02/22-rdf-syntax-ns#Bag');">
<ellipse cx="734" cy="761" rx="28" ry="18" style="fill:#d2d2d2;stroke:#d2d2d2"/>
<text text-anchor="middle" x="734" y="765" style="font-family:arial">rdf:Bag</text>
</a></g>
<g id="edge48" class="edge"><title>:_12-&gt;:_13</title>
<a xlink:href="http://www2.elsevier.co.uk/~tony/1014/yads-schema-2002-04-03#collection" target="_blank" onmouseover="show_status('http://www2.elsevier.co.uk/~tony/1014/yads-schema-2002-04-03#collection');">
<path style="fill:none;stroke:#add9e6" d="M773,688C768,694 762,701 758,707 753,716 748,726 744,734"/>
<polygon style="fill:#add9e6;stroke:#add9e6" points="742,733 741,743 747,734 742,733"/>
<text text-anchor="middle" x="802" y="720" style="font-family:arial">has:collection</text>
</a></g>
<g id="edge75" class="edge"><title>:_20-&gt;doi:1014/tube/central_line</title>
<a xlink:href="http://www2.elsevier.co.uk/~tony/1014/yads-schema-2002-04-03#resource" target="_blank" onmouseover="show_status('http://www2.elsevier.co.uk/~tony/1014/yads-schema-2002-04-03#resource');">
<path style="fill:none;stroke:#add9e6" d="M1008,687C989,698 962,713 937,725 925,731 911,737 898,743"/>
<polygon style="fill:#add9e6;stroke:#add9e6" points="901,739 892,745 902,744 901,739"/>
<text text-anchor="middle" x="1019" y="720" style="font-family:arial">has:resource</text>
</a></g>
<g id="node77" class="node"><title>:_21</title>
<a xlink:href="http://www.w3.org/1999/02/22-rdf-syntax-ns#Bag" target="_blank" onmouseover="show_status('http://www.w3.org/1999/02/22-rdf-syntax-ns#Bag');">
<ellipse cx="1089" cy="761" rx="28" ry="18" style="fill:#d2d2d2;stroke:#d2d2d2"/>
<text text-anchor="middle" x="1089" y="765" style="font-family:arial">rdf:Bag</text>
</a></g>
<g id="edge77" class="edge"><title>:_20-&gt;:_21</title>
<a xlink:href="http://www2.elsevier.co.uk/~tony/1014/yads-schema-2002-04-03#collection" target="_blank" onmouseover="show_status('http://www2.elsevier.co.uk/~tony/1014/yads-schema-2002-04-03#collection');">
<path style="fill:none;stroke:#add9e6" d="M1045,689C1053,703 1065,721 1074,736"/>
<polygon style="fill:#add9e6;stroke:#add9e6" points="1072,737 1079,744 1076,734 1072,737"/>
<text text-anchor="middle" x="1109" y="720" style="font-family:arial">has:collection</text>
</a></g>
<g id="node51" class="node"><title>:_14</title>
<ellipse cx="589" cy="872" rx="53" ry="18" style="fill:#eedb82;stroke:#eedb82"/>
<text text-anchor="middle" x="589" y="876" style="font-family:arial">tube:PrevStation</text>
</g>
<g id="edge50" class="edge"><title>:_13-&gt;:_14</title>
<a xlink:href="http://www.w3.org/1999/02/22-rdf-syntax-ns#_1" target="_blank" onmouseover="show_status('http://www.w3.org/1999/02/22-rdf-syntax-ns#_1');">
<path style="fill:none;stroke:#add9e6" d="M716,775C691,795 646,829 617,851"/>
<polygon style="fill:#add9e6;stroke:#add9e6" points="617,848 611,856 620,852 617,848"/>
<text text-anchor="middle" x="702" y="816" style="font-family:arial">rdf:_1</text>
</a></g>
<g id="node53" class="node"><title>:_17</title>
<ellipse cx="747" cy="872" rx="53" ry="18" style="fill:#eedb82;stroke:#eedb82"/>
<text text-anchor="middle" x="747" y="876" style="font-family:arial">tube:NextStation</text>
</g>
<g id="edge52" class="edge"><title>:_13-&gt;:_17</title>
<a xlink:href="http://www.w3.org/1999/02/22-rdf-syntax-ns#_2" target="_blank" onmouseover="show_status('http://www.w3.org/1999/02/22-rdf-syntax-ns#_2');">
<path style="fill:none;stroke:#add9e6" d="M736,779C739,797 741,824 744,845"/>
<polygon style="fill:#add9e6;stroke:#add9e6" points="741,844 745,854 746,844 741,844"/>
<text text-anchor="middle" x="763" y="816" style="font-family:arial">rdf:_2</text>
</a></g>
<g id="node56" class="node"><title>doi:1014/tube/hanger_lane</title>
<a xlink:href="http://dx.doi.org/1014/tube/hanger_lane" target="_blank" onmouseover="show_status('http://dx.doi.org/1014/tube/hanger_lane');">
<ellipse cx="518" cy="962" rx="78" ry="18" style="fill:#dca0dd;stroke:#dca0dd"/>
<text text-anchor="middle" x="518" y="966" style="font-family:arial">doi:1014/tube/hanger_lane</text>
</a></g>
<g id="edge55" class="edge"><title>:_14-&gt;doi:1014/tube/hanger_lane</title>
<a xlink:href="http://www2.elsevier.co.uk/~tony/1014/yads-schema-2002-04-03#resource" target="_blank" onmouseover="show_status('http://www2.elsevier.co.uk/~tony/1014/yads-schema-2002-04-03#resource');">
<path style="fill:none;stroke:#add9e6" d="M545,882C532,888 518,896 510,908 505,916 505,926 507,935"/>
<polygon style="fill:#add9e6;stroke:#add9e6" points="504,935 509,944 509,934 504,935"/>
<text text-anchor="middle" x="554" y="921" style="font-family:arial">has:resource</text>
</a></g>
<g id="node58" class="node"><title>:_15</title>
<a xlink:href="http://www.w3.org/1999/02/22-rdf-syntax-ns#Bag" target="_blank" onmouseover="show_status('http://www.w3.org/1999/02/22-rdf-syntax-ns#Bag');">
<ellipse cx="642" cy="962" rx="28" ry="18" style="fill:#d2d2d2;stroke:#d2d2d2"/>
<text text-anchor="middle" x="642" y="966" style="font-family:arial">rdf:Bag</text>
</a></g>
<g id="edge57" class="edge"><title>:_14-&gt;:_15</title>
<a xlink:href="http://www2.elsevier.co.uk/~tony/1014/yads-schema-2002-04-03#collection" target="_blank" onmouseover="show_status('http://www2.elsevier.co.uk/~tony/1014/yads-schema-2002-04-03#collection');">
<path style="fill:none;stroke:#add9e6" d="M590,890C592,901 595,915 601,926 604,932 610,938 615,943"/>
<polygon style="fill:#add9e6;stroke:#add9e6" points="613,944 622,949 616,941 613,944"/>
<text text-anchor="middle" x="642" y="921" style="font-family:arial">has:collection</text>
</a></g>
<g id="node66" class="node"><title>doi:1014/tube/east_acton</title>
<a xlink:href="http://dx.doi.org/1014/tube/east_acton" target="_blank" onmouseover="show_status('http://dx.doi.org/1014/tube/east_acton');">
<ellipse cx="844" cy="962" rx="76" ry="18" style="fill:#dca0dd;stroke:#dca0dd"/>
<text text-anchor="middle" x="844" y="966" style="font-family:arial">doi:1014/tube/east_acton</text>
</a></g>
<g id="edge65" class="edge"><title>:_17-&gt;doi:1014/tube/east_acton</title>
<a xlink:href="http://www2.elsevier.co.uk/~tony/1014/yads-schema-2002-04-03#resource" target="_blank" onmouseover="show_status('http://www2.elsevier.co.uk/~tony/1014/yads-schema-2002-04-03#resource');">
<path style="fill:none;stroke:#add9e6" d="M770,888C778,894 786,901 793,908 801,916 801,919 807,926 811,930 814,934 818,938"/>
<polygon style="fill:#add9e6;stroke:#add9e6" points="816,940 825,945 820,936 816,940"/>
<text text-anchor="middle" x="848" y="921" style="font-family:arial">has:resource</text>
</a></g>
<g id="node68" class="node"><title>:_18</title>
<a xlink:href="http://www.w3.org/1999/02/22-rdf-syntax-ns#Bag" target="_blank" onmouseover="show_status('http://www.w3.org/1999/02/22-rdf-syntax-ns#Bag');">
<ellipse cx="722" cy="962" rx="28" ry="18" style="fill:#d2d2d2;stroke:#d2d2d2"/>
<text text-anchor="middle" x="722" y="966" style="font-family:arial">rdf:Bag</text>
</a></g>
<g id="edge67" class="edge"><title>:_17-&gt;:_18</title>
<a xlink:href="http://www2.elsevier.co.uk/~tony/1014/yads-schema-2002-04-03#collection" target="_blank" onmouseover="show_status('http://www2.elsevier.co.uk/~tony/1014/yads-schema-2002-04-03#collection');">
<path style="fill:none;stroke:#add9e6" d="M724,888C717,894 712,901 708,908 704,917 706,927 709,936"/>
<polygon style="fill:#add9e6;stroke:#add9e6" points="706,936 712,945 711,935 706,936"/>
<text text-anchor="middle" x="752" y="921" style="font-family:arial">has:collection</text>
</a></g>
<g id="node60" class="node"><title>:_16</title>
<ellipse cx="618" cy="1067" rx="33" ry="18" style="fill:#eedb82;stroke:#eedb82"/>
<text text-anchor="middle" x="618" y="1071" style="font-family:arial">tube:Mins</text>
</g>
<g id="edge59" class="edge"><title>:_15-&gt;:_16</title>
<a xlink:href="http://www.w3.org/1999/02/22-rdf-syntax-ns#_1" target="_blank" onmouseover="show_status('http://www.w3.org/1999/02/22-rdf-syntax-ns#_1');">
<path style="fill:none;stroke:#add9e6" d="M638,980C635,996 629,1021 624,1040"/>
<polygon style="fill:#add9e6;stroke:#add9e6" points="622,1039 622,1049 627,1040 622,1039"/>
<text text-anchor="middle" x="655" y="1011" style="font-family:arial">rdf:_1</text>
</a></g>
<g id="node63" class="node"><title>data:,3</title>
<a xlink:href="" onclick="show_data('3');" onmouseover="show_status('data:,3');">
<ellipse cx="621" cy="1171" rx="27" ry="18" style="fill:#dca0dd;stroke:#dca0dd"/>
<text text-anchor="middle" x="621" y="1175" style="font-family:arial">data:,3</text>
</a></g>
<g id="edge62" class="edge"><title>:_16-&gt;data:,3</title>
<a xlink:href="http://www2.elsevier.co.uk/~tony/1014/yads-schema-2002-04-03#resource" target="_blank" onmouseover="show_status('http://www2.elsevier.co.uk/~tony/1014/yads-schema-2002-04-03#resource');">
<path style="fill:none;stroke:#add9e6" d="M619,1085C619,1101 620,1125 620,1144"/>
<polygon style="fill:#add9e6;stroke:#add9e6" points="618,1143 620,1153 623,1143 618,1143"/>
<text text-anchor="middle" x="662" y="1130" style="font-family:arial">has:resource</text>
</a></g>
<g id="node70" class="node"><title>:_19</title>
<ellipse cx="799" cy="1067" rx="33" ry="18" style="fill:#eedb82;stroke:#eedb82"/>
<text text-anchor="middle" x="799" y="1071" style="font-family:arial">tube:Mins</text>
</g>
<g id="edge69" class="edge"><title>:_18-&gt;:_19</title>
<a xlink:href="http://www.w3.org/1999/02/22-rdf-syntax-ns#_1" target="_blank" onmouseover="show_status('http://www.w3.org/1999/02/22-rdf-syntax-ns#_1');">
<path style="fill:none;stroke:#add9e6" d="M734,978C747,996 767,1023 782,1043"/>
<polygon style="fill:#add9e6;stroke:#add9e6" points="779,1043 787,1050 783,1040 779,1043"/>
<text text-anchor="middle" x="781" y="1011" style="font-family:arial">rdf:_1</text>
</a></g>
<g id="node73" class="node"><title>data:,2</title>
<a xlink:href="" onclick="show_data('2');" onmouseover="show_status('data:,2');">
<ellipse cx="806" cy="1171" rx="27" ry="18" style="fill:#dca0dd;stroke:#dca0dd"/>
<text text-anchor="middle" x="806" y="1175" style="font-family:arial">data:,2</text>
</a></g>
<g id="edge72" class="edge"><title>:_19-&gt;data:,2</title>
<a xlink:href="http://www2.elsevier.co.uk/~tony/1014/yads-schema-2002-04-03#resource" target="_blank" onmouseover="show_status('http://www2.elsevier.co.uk/~tony/1014/yads-schema-2002-04-03#resource');">
<path style="fill:none;stroke:#add9e6" d="M800,1085C801,1101 802,1125 804,1144"/>
<polygon style="fill:#add9e6;stroke:#add9e6" points="801,1143 805,1153 806,1143 801,1143"/>
<text text-anchor="middle" x="846" y="1130" style="font-family:arial">has:resource</text>
</a></g>
<g id="node79" class="node"><title>:_22</title>
<ellipse cx="1089" cy="872" rx="53" ry="18" style="fill:#eedb82;stroke:#eedb82"/>
<text text-anchor="middle" x="1089" y="876" style="font-family:arial">tube:PrevStation</text>
</g>
<g id="edge79" class="edge"><title>:_21-&gt;:_22</title>
<a xlink:href="http://www.w3.org/1999/02/22-rdf-syntax-ns#_1" target="_blank" onmouseover="show_status('http://www.w3.org/1999/02/22-rdf-syntax-ns#_1');">
<path style="fill:none;stroke:#add9e6" d="M1089,779C1089,797 1089,824 1089,845"/>
<polygon style="fill:#add9e6;stroke:#add9e6" points="1087,844 1089,854 1092,844 1087,844"/>
<text text-anchor="middle" x="1109" y="816" style="font-family:arial">rdf:_1</text>
</a></g>
<g id="node81" class="node"><title>:_25</title>
<ellipse cx="1294" cy="872" rx="53" ry="18" style="fill:#eedb82;stroke:#eedb82"/>
<text text-anchor="middle" x="1294" y="876" style="font-family:arial">tube:NextStation</text>
</g>
<g id="edge81" class="edge"><title>:_21-&gt;:_25</title>
<a xlink:href="http://www.w3.org/1999/02/22-rdf-syntax-ns#_2" target="_blank" onmouseover="show_status('http://www.w3.org/1999/02/22-rdf-syntax-ns#_2');">
<path style="fill:none;stroke:#add9e6" d="M1112,771C1140,784 1189,806 1229,829 1241,837 1254,845 1266,853"/>
<polygon style="fill:#add9e6;stroke:#add9e6" points="1261,853 1271,856 1264,849 1261,853"/>
<text text-anchor="middle" x="1235" y="816" style="font-family:arial">rdf:_2</text>
</a></g>
<g id="node84" class="node"><title>doi:1014/tube/west_acton</title>
<a xlink:href="http://dx.doi.org/1014/tube/west_acton" target="_blank" onmouseover="show_status('http://dx.doi.org/1014/tube/west_acton');">
<ellipse cx="1066" cy="962" rx="77" ry="18" style="fill:#dca0dd;stroke:#dca0dd"/>
<text text-anchor="middle" x="1066" y="966" style="font-family:arial">doi:1014/tube/west_acton</text>
</a></g>
<g id="edge84" class="edge"><title>:_22-&gt;doi:1014/tube/west_acton</title>
<a xlink:href="http://www2.elsevier.co.uk/~tony/1014/yads-schema-2002-04-03#resource" target="_blank" onmouseover="show_status('http://www2.elsevier.co.uk/~tony/1014/yads-schema-2002-04-03#resource');">
<path style="fill:none;stroke:#add9e6" d="M1066,888C1060,894 1055,901 1051,908 1047,917 1049,926 1051,935"/>
<polygon style="fill:#add9e6;stroke:#add9e6" points="1049,936 1055,944 1053,934 1049,936"/>
<text text-anchor="middle" x="1095" y="921" style="font-family:arial">has:resource</text>
</a></g>
<g id="node86" class="node"><title>:_23</title>
<a xlink:href="http://www.w3.org/1999/02/22-rdf-syntax-ns#Bag" target="_blank" onmouseover="show_status('http://www.w3.org/1999/02/22-rdf-syntax-ns#Bag');">
<ellipse cx="1189" cy="962" rx="28" ry="18" style="fill:#d2d2d2;stroke:#d2d2d2"/>
<text text-anchor="middle" x="1189" y="966" style="font-family:arial">rdf:Bag</text>
</a></g>
<g id="edge86" class="edge"><title>:_22-&gt;:_23</title>
<a xlink:href="http://www2.elsevier.co.uk/~tony/1014/yads-schema-2002-04-03#collection" target="_blank" onmouseover="show_status('http://www2.elsevier.co.uk/~tony/1014/yads-schema-2002-04-03#collection');">
<path style="fill:none;stroke:#add9e6" d="M1114,888C1121,894 1130,901 1136,908 1143,916 1142,919 1148,926 1153,931 1158,937 1164,942"/>
<polygon style="fill:#add9e6;stroke:#add9e6" points="1162,943 1171,948 1165,940 1162,943"/>
<text text-anchor="middle" x="1189" y="921" style="font-family:arial">has:collection</text>
</a></g>
<g id="edge94" class="edge"><title>:_25-&gt;doi:1014/tube/east_acton</title>
<a xlink:href="http://www2.elsevier.co.uk/~tony/1014/yads-schema-2002-04-03#resource" target="_blank" onmouseover="show_status('http://www2.elsevier.co.uk/~tony/1014/yads-schema-2002-04-03#resource');">
<path style="fill:none;stroke:#add9e6" d="M1252,883C1246,886 1239,888 1229,890 1193,897 925,885 896,908 890,914 897,920 892,926 889,931 885,935 881,939"/>
<polygon style="fill:#add9e6;stroke:#add9e6" points="880,937 874,945 883,940 880,937"/>
<text text-anchor="middle" x="944" y="921" style="font-family:arial">has:resource</text>
</a></g>
<g id="node94" class="node"><title>:_26</title>
<a xlink:href="http://www.w3.org/1999/02/22-rdf-syntax-ns#Bag" target="_blank" onmouseover="show_status('http://www.w3.org/1999/02/22-rdf-syntax-ns#Bag');">
<ellipse cx="1275" cy="962" rx="28" ry="18" style="fill:#d2d2d2;stroke:#d2d2d2"/>
<text text-anchor="middle" x="1275" y="966" style="font-family:arial">rdf:Bag</text>
</a></g>
<g id="edge96" class="edge"><title>:_25-&gt;:_26</title>
<a xlink:href="http://www2.elsevier.co.uk/~tony/1014/yads-schema-2002-04-03#collection" target="_blank" onmouseover="show_status('http://www2.elsevier.co.uk/~tony/1014/yads-schema-2002-04-03#collection');">
<path style="fill:none;stroke:#add9e6" d="M1277,889C1272,895 1268,901 1266,908 1263,917 1263,927 1265,935"/>
<polygon style="fill:#add9e6;stroke:#add9e6" points="1262,935 1268,944 1267,934 1262,935"/>
<text text-anchor="middle" x="1307" y="921" style="font-family:arial">has:collection</text>
</a></g>
<g id="node88" class="node"><title>:_24</title>
<ellipse cx="1067" cy="1067" rx="33" ry="18" style="fill:#eedb82;stroke:#eedb82"/>
<text text-anchor="middle" x="1067" y="1071" style="font-family:arial">tube:Mins</text>
</g>
<g id="edge88" class="edge"><title>:_23-&gt;:_24</title>
<a xlink:href="http://www.w3.org/1999/02/22-rdf-syntax-ns#_1" target="_blank" onmouseover="show_status('http://www.w3.org/1999/02/22-rdf-syntax-ns#_1');">
<path style="fill:none;stroke:#add9e6" d="M1172,977C1151,994 1116,1025 1092,1046"/>
<polygon style="fill:#add9e6;stroke:#add9e6" points="1091,1044 1085,1052 1094,1047 1091,1044"/>
<text text-anchor="middle" x="1167" y="1011" style="font-family:arial">rdf:_1</text>
</a></g>
<g id="edge91" class="edge"><title>:_24-&gt;data:,3</title>
<a xlink:href="http://www2.elsevier.co.uk/~tony/1014/yads-schema-2002-04-03#resource" target="_blank" onmouseover="show_status('http://www2.elsevier.co.uk/~tony/1014/yads-schema-2002-04-03#resource');">
<path style="fill:none;stroke:#add9e6" d="M1040,1078C1001,1093 925,1120 859,1135 821,1145 711,1160 655,1167"/>
<polygon style="fill:#add9e6;stroke:#add9e6" points="658,1164 648,1168 658,1169 658,1164"/>
<text text-anchor="middle" x="973" y="1130" style="font-family:arial">has:resource</text>
</a></g>
<g id="node96" class="node"><title>:_27</title>
<ellipse cx="1282" cy="1067" rx="33" ry="18" style="fill:#eedb82;stroke:#eedb82"/>
<text text-anchor="middle" x="1282" y="1071" style="font-family:arial">tube:Mins</text>
</g>
<g id="edge98" class="edge"><title>:_26-&gt;:_27</title>
<a xlink:href="http://www.w3.org/1999/02/22-rdf-syntax-ns#_1" target="_blank" onmouseover="show_status('http://www.w3.org/1999/02/22-rdf-syntax-ns#_1');">
<path style="fill:none;stroke:#add9e6" d="M1276,980C1277,996 1278,1021 1280,1040"/>
<polygon style="fill:#add9e6;stroke:#add9e6" points="1277,1039 1281,1049 1282,1039 1277,1039"/>
<text text-anchor="middle" x="1298" y="1011" style="font-family:arial">rdf:_1</text>
</a></g>
<g id="edge101" class="edge"><title>:_27-&gt;data:,2</title>
<a xlink:href="http://www2.elsevier.co.uk/~tony/1014/yads-schema-2002-04-03#resource" target="_blank" onmouseover="show_status('http://www2.elsevier.co.uk/~tony/1014/yads-schema-2002-04-03#resource');">
<path style="fill:none;stroke:#add9e6" d="M1253,1075C1204,1089 1103,1117 1017,1135 955,1148 883,1159 841,1166"/>
<polygon style="fill:#add9e6;stroke:#add9e6" points="842,1163 832,1167 842,1168 842,1163"/>
<text text-anchor="middle" x="1143" y="1130" style="font-family:arial">has:resource</text>
</a></g>
</g>
</svg>
