<?xml version="1.0" encoding="UTF-8" standalone="no"?>
<!DOCTYPE svg PUBLIC "-//W3C//DTD SVG 1.0//EN"
 "http://www.w3.org/TR/2001/REC-SVG-20010904/DTD/svg10.dtd" [
 <!ATTLIST svg xmlns:xlink CDATA #FIXED "http://www.w3.org/1999/xlink">
]>
<!-- Generated by dot version 1.8.5 (Tue Apr 23 17:19:23  2002)
     For user: (Administrator) ,S-1-5-21-1454471165-688789844-1708537768-500   Title: yads    Pages: 1 -->
<svg width="1369px" height="1280px"
 xmlns="http://www.w3.org/2000/svg" xmlns:xlink="http://www.w3.org/1999/xlink">
<g id="graph0" class="graph" style="font-family:Times-Roman;font-size:11.00">
<title>yads</title>
<text text-anchor="middle" x="684" y="1269" style="font-family:arial;font-size:24.00">YADS - A Description Service</text>
<g id="graph2" class="cluster"><title>cluster_1</title>
<polygon style="fill:none;stroke:#d2d2d2;stroke-dasharray:5,2" points="19,1237 1350,1237 1350,43 19,43 19,1237"/>
<text text-anchor="middle" x="86" y="55" style="font-family:arial">Nest - Plaistow Station</text>
</g>
<g id="graph3" class="cluster"><title>cluster_3</title>
<polygon style="fill:none;stroke:#d2d2d2;stroke-dasharray:5,2" points="27,1229 1342,1229 1342,238 27,238 27,1229"/>
<text text-anchor="middle" x="99" y="250" style="font-family:arial">Nest - Application Profile</text>
</g>
<g id="graph4" class="cluster"><title>cluster_5</title>
<polygon style="fill:none;stroke:#d2d2d2;stroke-dasharray:5,2" points="35,795 278,795 278,433 35,433 35,795"/>
<text text-anchor="middle" x="80" y="445" style="font-family:arial">Item - Location</text>
</g>
<g id="graph5" class="cluster"><title>cluster_7</title>
<polygon style="fill:none;stroke:#d2d2d2;stroke-dasharray:5,2" points="43,787 165,787 165,628 43,628 43,787"/>
<text text-anchor="middle" x="59" y="640" style="font-family:arial">Item</text>
</g>
<g id="graph6" class="cluster"><title>cluster_8</title>
<polygon style="fill:none;stroke:#d2d2d2;stroke-dasharray:5,2" points="173,787 270,787 270,628 173,628 173,787"/>
<text text-anchor="middle" x="189" y="640" style="font-family:arial">Item</text>
</g>
<g id="graph7" class="cluster"><title>cluster_9</title>
<polygon style="fill:none;stroke:#d2d2d2;stroke-dasharray:5,2" points="286,1221 1334,1221 1334,433 286,433 286,1221"/>
<text text-anchor="middle" x="355" y="445" style="font-family:arial">Item - Line Interchanges</text>
</g>
<g id="graph8" class="cluster"><title>cluster_11</title>
<polygon style="fill:none;stroke:#d2d2d2;stroke-dasharray:5,2" points="824,1213 1326,1213 1326,628 824,628 824,1213"/>
<text text-anchor="middle" x="892" y="640" style="font-family:arial">Nest - Line Interchange</text>
</g>
<g id="graph9" class="cluster"><title>cluster_13</title>
<polygon style="fill:none;stroke:#d2d2d2;stroke-dasharray:5,2" points="832,1205 1070,1205 1070,829 832,829 832,1205"/>
<text text-anchor="middle" x="900" y="841" style="font-family:arial">Nest - Next Stop Back</text>
</g>
<g id="graph10" class="cluster"><title>cluster_15</title>
<polygon style="fill:none;stroke:#d2d2d2;stroke-dasharray:5,2" points="875,1197 972,1197 972,1024 875,1024 875,1197"/>
<text text-anchor="middle" x="891" y="1036" style="font-family:arial">Item</text>
</g>
<g id="graph11" class="cluster"><title>cluster_16</title>
<polygon style="fill:none;stroke:#d2d2d2;stroke-dasharray:5,2" points="1078,1205 1318,1205 1318,829 1078,829 1078,1205"/>
<text text-anchor="middle" x="1130" y="841" style="font-family:arial">Nest - Next Stop</text>
</g>
<g id="graph12" class="cluster"><title>cluster_18</title>
<polygon style="fill:none;stroke:#d2d2d2;stroke-dasharray:5,2" points="1122,1197 1219,1197 1219,1024 1122,1024 1122,1197"/>
<text text-anchor="middle" x="1138" y="1036" style="font-family:arial">Item</text>
</g>
<g id="graph13" class="cluster"><title>cluster_19</title>
<polygon style="fill:none;stroke:#d2d2d2;stroke-dasharray:5,2" points="294,1109 816,1109 816,628 294,628 294,1109"/>
<text text-anchor="middle" x="362" y="640" style="font-family:arial">Nest - Line Interchange</text>
</g>
<g id="graph14" class="cluster"><title>cluster_21</title>
<polygon style="fill:none;stroke:#d2d2d2;stroke-dasharray:5,2" points="553,1101 675,1101 675,829 553,829 553,1101"/>
<text text-anchor="middle" x="621" y="841" style="font-family:arial">Nest - Next Stop Back</text>
</g>
<g id="graph15" class="cluster"><title>cluster_23</title>
<polygon style="fill:none;stroke:#d2d2d2;stroke-dasharray:5,2" points="573,1093 655,1093 655,1024 573,1024 573,1093"/>
<text text-anchor="middle" x="589" y="1036" style="font-family:arial">Item</text>
</g>
<g id="graph16" class="cluster"><title>cluster_24</title>
<polygon style="fill:none;stroke:#d2d2d2;stroke-dasharray:5,2" points="423,1101 545,1101 545,829 423,829 423,1101"/>
<text text-anchor="middle" x="475" y="841" style="font-family:arial">Nest - Next Stop</text>
</g>
<g id="graph17" class="cluster"><title>cluster_26</title>
<polygon style="fill:none;stroke:#d2d2d2;stroke-dasharray:5,2" points="450,1093 532,1093 532,1024 450,1024 450,1093"/>
<text text-anchor="middle" x="466" y="1036" style="font-family:arial">Item</text>
</g>
<g id="node2" class="node"><title>:_1</title>
<ellipse cx="219" cy="86" rx="40" ry="18" style="fill:#eedb82;stroke:#eedb82"/>
<text text-anchor="middle" x="219" y="90" style="font-family:arial">tube:Station</text>
</g>
<g id="node4" class="node"><title>doi:1014/tube/plaistow</title>
<a xlink:href="http://dx.doi.org/1014/tube/plaistow" target="_blank" onmouseover="show_status('http://dx.doi.org/1014/tube/plaistow');">
<ellipse cx="107" cy="176" rx="66" ry="18" style="fill:#dca0dd;stroke:#dca0dd"/>
<text text-anchor="middle" x="107" y="180" style="font-family:arial">doi:1014/tube/plaistow</text>
</a></g>
<g id="edge3" class="edge"><title>:_1-&gt;doi:1014/tube/plaistow</title>
<a xlink:href="http://www2.elsevier.co.uk/~tony/1014/yads-schema-2002-04-03#resource" target="_blank" onmouseover="show_status('http://www2.elsevier.co.uk/~tony/1014/yads-schema-2002-04-03#resource');">
<path style="fill:none;stroke:#add9e6" d="M184,95C167,100 148,109 134,122 126,130 120,140 116,149"/>
<polygon style="fill:#add9e6;stroke:#add9e6" points="114,148 113,158 119,149 114,148"/>
<text text-anchor="middle" x="180" y="135" style="font-family:arial">has:resource</text>
</a></g>
<g id="node6" class="node"><title>node_1</title>
<polygon style="fill:#6497ed;stroke:#6497ed" points="247,158 191,158 191,194 247,194 247,158"/>
<text text-anchor="middle" x="219" y="180" style="font-family:arial">Plaistow</text>
</g>
<g id="edge5" class="edge"><title>:_1-&gt;node_1</title>
<a xlink:href="http://www2.elsevier.co.uk/~tony/1014/yads-schema-2002-04-03#label" target="_blank" onmouseover="show_status('http://www2.elsevier.co.uk/~tony/1014/yads-schema-2002-04-03#label');">
<path style="fill:none;stroke:#add9e6" d="M219,104C219,117 219,134 219,149"/>
<polygon style="fill:#add9e6;stroke:#add9e6" points="217,148 219,158 222,148 217,148"/>
<text text-anchor="middle" x="246" y="135" style="font-family:arial">has:label</text>
</a></g>
<g id="node8" class="node"><title>:_2</title>
<a xlink:href="http://www.w3.org/1999/02/22-rdf-syntax-ns#Bag" target="_blank" onmouseover="show_status('http://www.w3.org/1999/02/22-rdf-syntax-ns#Bag');">
<ellipse cx="293" cy="176" rx="28" ry="18" style="fill:#d2d2d2;stroke:#d2d2d2"/>
<text text-anchor="middle" x="293" y="180" style="font-family:arial">rdf:Bag</text>
</a></g>
<g id="edge7" class="edge"><title>:_1-&gt;:_2</title>
<a xlink:href="http://www2.elsevier.co.uk/~tony/1014/yads-schema-2002-04-03#collection" target="_blank" onmouseover="show_status('http://www2.elsevier.co.uk/~tony/1014/yads-schema-2002-04-03#collection');">
<path style="fill:none;stroke:#add9e6" d="M248,98C259,104 271,112 278,122 284,129 288,140 290,149"/>
<polygon style="fill:#add9e6;stroke:#add9e6" points="287,149 292,158 292,148 287,149"/>
<text text-anchor="middle" x="329" y="135" style="font-family:arial">has:collection</text>
</a></g>
<g id="node10" class="node"><title>:_3</title>
<ellipse cx="293" cy="281" rx="34" ry="18" style="fill:#eedb82;stroke:#eedb82"/>
<text text-anchor="middle" x="293" y="285" style="font-family:arial">doi:Profile</text>
</g>
<g id="edge9" class="edge"><title>:_2-&gt;:_3</title>
<a xlink:href="http://www.w3.org/1999/02/22-rdf-syntax-ns#_1" target="_blank" onmouseover="show_status('http://www.w3.org/1999/02/22-rdf-syntax-ns#_1');">
<path style="fill:none;stroke:#add9e6" d="M293,194C293,210 293,235 293,254"/>
<polygon style="fill:#add9e6;stroke:#add9e6" points="291,253 293,263 296,253 291,253"/>
<text text-anchor="middle" x="313" y="225" style="font-family:arial">rdf:_1</text>
</a></g>
<g id="node13" class="node"><title>doi:1014/profile.tube</title>
<a xlink:href="http://dx.doi.org/1014/profile.tube" target="_blank" onmouseover="show_status('http://dx.doi.org/1014/profile.tube');">
<ellipse cx="264" cy="371" rx="59" ry="18" style="fill:#dca0dd;stroke:#dca0dd"/>
<text text-anchor="middle" x="264" y="375" style="font-family:arial">doi:1014/profile.tube</text>
</a></g>
<g id="edge12" class="edge"><title>:_3-&gt;doi:1014/profile.tube</title>
<a xlink:href="http://www2.elsevier.co.uk/~tony/1014/yads-schema-2002-04-03#resource" target="_blank" onmouseover="show_status('http://www2.elsevier.co.uk/~tony/1014/yads-schema-2002-04-03#resource');">
<path style="fill:none;stroke:#add9e6" d="M287,299C283,312 277,329 273,344"/>
<polygon style="fill:#add9e6;stroke:#add9e6" points="271,343 270,353 276,344 271,343"/>
<text text-anchor="middle" x="323" y="330" style="font-family:arial">has:resource</text>
</a></g>
<g id="node15" class="node"><title>:_4</title>
<a xlink:href="http://www.w3.org/1999/02/22-rdf-syntax-ns#Bag" target="_blank" onmouseover="show_status('http://www.w3.org/1999/02/22-rdf-syntax-ns#Bag');">
<ellipse cx="369" cy="371" rx="28" ry="18" style="fill:#d2d2d2;stroke:#d2d2d2"/>
<text text-anchor="middle" x="369" y="375" style="font-family:arial">rdf:Bag</text>
</a></g>
<g id="edge14" class="edge"><title>:_3-&gt;:_4</title>
<a xlink:href="http://www2.elsevier.co.uk/~tony/1014/yads-schema-2002-04-03#collection" target="_blank" onmouseover="show_status('http://www2.elsevier.co.uk/~tony/1014/yads-schema-2002-04-03#collection');">
<path style="fill:none;stroke:#add9e6" d="M324,288C340,294 358,302 367,317 372,325 374,335 374,344"/>
<polygon style="fill:#add9e6;stroke:#add9e6" points="372,343 373,353 377,343 372,343"/>
<text text-anchor="middle" x="415" y="330" style="font-family:arial">has:collection</text>
</a></g>
<g id="node17" class="node"><title>:_5</title>
<a xlink:href="http://www2.elsevier.co.uk/~tony/1014/yads-schema-2002-04-03#Item" target="_blank" onmouseover="show_status('http://www2.elsevier.co.uk/~tony/1014/yads-schema-2002-04-03#Item');">
<ellipse cx="215" cy="476" rx="28" ry="18" style="fill:#d2d2d2;stroke:#d2d2d2"/>
<text text-anchor="middle" x="215" y="480" style="font-family:arial">isa:Item</text>
</a></g>
<g id="edge16" class="edge"><title>:_4-&gt;:_5</title>
<a xlink:href="http://www.w3.org/1999/02/22-rdf-syntax-ns#_1" target="_blank" onmouseover="show_status('http://www.w3.org/1999/02/22-rdf-syntax-ns#_1');">
<path style="fill:none;stroke:#add9e6" d="M349,384C322,404 271,438 240,459"/>
<polygon style="fill:#add9e6;stroke:#add9e6" points="241,455 234,463 244,460 241,455"/>
<text text-anchor="middle" x="339" y="420" style="font-family:arial">rdf:_1</text>
</a></g>
<g id="node19" class="node"><title>:_9</title>
<a xlink:href="http://www2.elsevier.co.uk/~tony/1014/yads-schema-2002-04-03#Item" target="_blank" onmouseover="show_status('http://www2.elsevier.co.uk/~tony/1014/yads-schema-2002-04-03#Item');">
<ellipse cx="411" cy="476" rx="28" ry="18" style="fill:#d2d2d2;stroke:#d2d2d2"/>
<text text-anchor="middle" x="411" y="480" style="font-family:arial">isa:Item</text>
</a></g>
<g id="edge18" class="edge"><title>:_4-&gt;:_9</title>
<a xlink:href="http://www.w3.org/1999/02/22-rdf-syntax-ns#_2" target="_blank" onmouseover="show_status('http://www.w3.org/1999/02/22-rdf-syntax-ns#_2');">
<path style="fill:none;stroke:#add9e6" d="M376,389C383,405 393,431 401,451"/>
<polygon style="fill:#add9e6;stroke:#add9e6" points="398,451 404,459 403,449 398,451"/>
<text text-anchor="middle" x="412" y="420" style="font-family:arial">rdf:_2</text>
</a></g>
<g id="node22" class="node"><title>:_6</title>
<a xlink:href="http://www.w3.org/1999/02/22-rdf-syntax-ns#Bag" target="_blank" onmouseover="show_status('http://www.w3.org/1999/02/22-rdf-syntax-ns#Bag');">
<ellipse cx="189" cy="566" rx="28" ry="18" style="fill:#d2d2d2;stroke:#d2d2d2"/>
<text text-anchor="middle" x="189" y="570" style="font-family:arial">rdf:Bag</text>
</a></g>
<g id="edge21" class="edge"><title>:_5-&gt;:_6</title>
<a xlink:href="http://www2.elsevier.co.uk/~tony/1014/yads-schema-2002-04-03#collection" target="_blank" onmouseover="show_status('http://www2.elsevier.co.uk/~tony/1014/yads-schema-2002-04-03#collection');">
<path style="fill:none;stroke:#add9e6" d="M208,494C205,499 203,506 201,512 198,521 196,530 194,539"/>
<polygon style="fill:#add9e6;stroke:#add9e6" points="192,538 192,548 197,539 192,538"/>
<text text-anchor="middle" x="245" y="525" style="font-family:arial">has:collection</text>
</a></g>
<g id="node35" class="node"><title>:_10</title>
<a xlink:href="http://www.w3.org/1999/02/22-rdf-syntax-ns#Bag" target="_blank" onmouseover="show_status('http://www.w3.org/1999/02/22-rdf-syntax-ns#Bag');">
<ellipse cx="491" cy="566" rx="28" ry="18" style="fill:#d2d2d2;stroke:#d2d2d2"/>
<text text-anchor="middle" x="491" y="570" style="font-family:arial">rdf:Bag</text>
</a></g>
<g id="edge34" class="edge"><title>:_9-&gt;:_10</title>
<a xlink:href="http://www2.elsevier.co.uk/~tony/1014/yads-schema-2002-04-03#collection" target="_blank" onmouseover="show_status('http://www2.elsevier.co.uk/~tony/1014/yads-schema-2002-04-03#collection');">
<path style="fill:none;stroke:#add9e6" d="M425,492C438,506 456,527 471,543"/>
<polygon style="fill:#add9e6;stroke:#add9e6" points="469,544 477,550 472,541 469,544"/>
<text text-anchor="middle" x="500" y="525" style="font-family:arial">has:collection</text>
</a></g>
<g id="node24" class="node"><title>:_7</title>
<ellipse cx="104" cy="671" rx="35" ry="18" style="fill:#eedb82;stroke:#eedb82"/>
<text text-anchor="middle" x="104" y="675" style="font-family:arial">tube:Zone</text>
</g>
<g id="edge23" class="edge"><title>:_6-&gt;:_7</title>
<a xlink:href="http://www.w3.org/1999/02/22-rdf-syntax-ns#_1" target="_blank" onmouseover="show_status('http://www.w3.org/1999/02/22-rdf-syntax-ns#_1');">
<path style="fill:none;stroke:#add9e6" d="M173,581C167,588 160,595 154,602 142,616 130,633 121,647"/>
<polygon style="fill:#add9e6;stroke:#add9e6" points="120,644 116,654 124,647 120,644"/>
<text text-anchor="middle" x="177" y="615" style="font-family:arial">rdf:_1</text>
</a></g>
<g id="node26" class="node"><title>:_8</title>
<ellipse cx="213" cy="671" rx="32" ry="18" style="fill:#eedb82;stroke:#eedb82"/>
<text text-anchor="middle" x="213" y="675" style="font-family:arial">tube:Grid</text>
</g>
<g id="edge25" class="edge"><title>:_6-&gt;:_8</title>
<a xlink:href="http://www.w3.org/1999/02/22-rdf-syntax-ns#_2" target="_blank" onmouseover="show_status('http://www.w3.org/1999/02/22-rdf-syntax-ns#_2');">
<path style="fill:none;stroke:#add9e6" d="M193,584C196,600 202,625 207,644"/>
<polygon style="fill:#add9e6;stroke:#add9e6" points="204,644 209,653 209,643 204,644"/>
<text text-anchor="middle" x="222" y="615" style="font-family:arial">rdf:_2</text>
</a></g>
<g id="node29" class="node"><title>data:,Zone%203</title>
<a xlink:href="" onclick="show_data('Zone%203');" onmouseover="show_status('data:,Zone%203');">
<ellipse cx="104" cy="761" rx="53" ry="18" style="fill:#dca0dd;stroke:#dca0dd"/>
<text text-anchor="middle" x="104" y="765" style="font-family:arial">data:,Zone%203</text>
</a></g>
<g id="edge28" class="edge"><title>:_7-&gt;data:,Zone%203</title>
<a xlink:href="http://www2.elsevier.co.uk/~tony/1014/yads-schema-2002-04-03#resource" target="_blank" onmouseover="show_status('http://www2.elsevier.co.uk/~tony/1014/yads-schema-2002-04-03#resource');">
<path style="fill:none;stroke:#add9e6" d="M95,689C92,694 89,701 88,707 87,715 87,718 88,725 88,728 89,731 90,734"/>
<polygon style="fill:#add9e6;stroke:#add9e6" points="88,735 94,743 92,733 88,735"/>
<text text-anchor="middle" x="132" y="720" style="font-family:arial">has:resource</text>
</a></g>
<g id="node32" class="node"><title>data:,C8</title>
<a xlink:href="" onclick="show_data('C8');" onmouseover="show_status('data:,C8');">
<ellipse cx="211" cy="761" rx="30" ry="18" style="fill:#dca0dd;stroke:#dca0dd"/>
<text text-anchor="middle" x="211" y="765" style="font-family:arial">data:,C8</text>
</a></g>
<g id="edge31" class="edge"><title>:_8-&gt;data:,C8</title>
<a xlink:href="http://www2.elsevier.co.uk/~tony/1014/yads-schema-2002-04-03#resource" target="_blank" onmouseover="show_status('http://www2.elsevier.co.uk/~tony/1014/yads-schema-2002-04-03#resource');">
<path style="fill:none;stroke:#add9e6" d="M211,689C210,695 209,701 209,707 208,716 209,725 209,733"/>
<polygon style="fill:#add9e6;stroke:#add9e6" points="207,733 210,743 211,733 207,733"/>
<text text-anchor="middle" x="253" y="720" style="font-family:arial">has:resource</text>
</a></g>
<g id="node37" class="node"><title>:_11</title>
<ellipse cx="905" cy="671" rx="53" ry="18" style="fill:#eedb82;stroke:#eedb82"/>
<text text-anchor="middle" x="905" y="675" style="font-family:arial">tube:LineChange</text>
</g>
<g id="edge36" class="edge"><title>:_10-&gt;:_11</title>
<a xlink:href="http://www.w3.org/1999/02/22-rdf-syntax-ns#_1" target="_blank" onmouseover="show_status('http://www.w3.org/1999/02/22-rdf-syntax-ns#_1');">
<path style="fill:none;stroke:#add9e6" d="M519,569C577,575 713,592 820,628 838,634 856,643 871,651"/>
<polygon style="fill:#add9e6;stroke:#add9e6" points="869,653 879,655 871,648 869,653"/>
<text text-anchor="middle" x="813" y="615" style="font-family:arial">rdf:_1</text>
</a></g>
<g id="node39" class="node"><title>:_19</title>
<ellipse cx="491" cy="671" rx="53" ry="18" style="fill:#eedb82;stroke:#eedb82"/>
<text text-anchor="middle" x="491" y="675" style="font-family:arial">tube:LineChange</text>
</g>
<g id="edge38" class="edge"><title>:_10-&gt;:_19</title>
<a xlink:href="http://www.w3.org/1999/02/22-rdf-syntax-ns#_2" target="_blank" onmouseover="show_status('http://www.w3.org/1999/02/22-rdf-syntax-ns#_2');">
<path style="fill:none;stroke:#add9e6" d="M491,584C491,600 491,625 491,644"/>
<polygon style="fill:#add9e6;stroke:#add9e6" points="489,643 491,653 494,643 489,643"/>
<text text-anchor="middle" x="512" y="615" style="font-family:arial">rdf:_2</text>
</a></g>
<g id="node42" class="node"><title>doi:1014/tube/district_line</title>
<a xlink:href="http://dx.doi.org/1014/tube/district_line" target="_blank" onmouseover="show_status('http://dx.doi.org/1014/tube/district_line');">
<ellipse cx="905" cy="761" rx="73" ry="18" style="fill:#dca0dd;stroke:#dca0dd"/>
<text text-anchor="middle" x="905" y="765" style="font-family:arial">doi:1014/tube/district_line</text>
</a></g>
<g id="edge41" class="edge"><title>:_11-&gt;doi:1014/tube/district_line</title>
<a xlink:href="http://www2.elsevier.co.uk/~tony/1014/yads-schema-2002-04-03#resource" target="_blank" onmouseover="show_status('http://www2.elsevier.co.uk/~tony/1014/yads-schema-2002-04-03#resource');">
<path style="fill:none;stroke:#add9e6" d="M905,689C905,702 905,719 905,734"/>
<polygon style="fill:#add9e6;stroke:#add9e6" points="903,733 905,743 908,733 903,733"/>
<text text-anchor="middle" x="946" y="720" style="font-family:arial">has:resource</text>
</a></g>
<g id="node44" class="node"><title>:_12</title>
<a xlink:href="http://www.w3.org/1999/02/22-rdf-syntax-ns#Bag" target="_blank" onmouseover="show_status('http://www.w3.org/1999/02/22-rdf-syntax-ns#Bag');">
<ellipse cx="1024" cy="761" rx="28" ry="18" style="fill:#d2d2d2;stroke:#d2d2d2"/>
<text text-anchor="middle" x="1024" y="765" style="font-family:arial">rdf:Bag</text>
</a></g>
<g id="edge43" class="edge"><title>:_11-&gt;:_12</title>
<a xlink:href="http://www2.elsevier.co.uk/~tony/1014/yads-schema-2002-04-03#collection" target="_blank" onmouseover="show_status('http://www2.elsevier.co.uk/~tony/1014/yads-schema-2002-04-03#collection');">
<path style="fill:none;stroke:#add9e6" d="M946,683C961,688 977,696 990,707 999,715 1007,726 1012,735"/>
<polygon style="fill:#add9e6;stroke:#add9e6" points="1009,735 1016,743 1014,733 1009,735"/>
<text text-anchor="middle" x="1048" y="720" style="font-family:arial">has:collection</text>
</a></g>
<g id="node71" class="node"><title>doi:1014/tube/hammersmith_&amp;_c...e</title>
<a xlink:href="http://dx.doi.org/1014/tube/hammersmith_&amp;_city_line" target="_blank" onmouseover="show_status('http://dx.doi.org/1014/tube/hammersmith_&amp;_city_line');">
<ellipse cx="491" cy="761" rx="115" ry="18" style="fill:#dca0dd;stroke:#dca0dd"/>
<text text-anchor="middle" x="491" y="765" style="font-family:arial">doi:1014/tube/hammersmith_&amp;_c...e</text>
</a></g>
<g id="edge70" class="edge"><title>:_19-&gt;doi:1014/tube/hammersmith_&amp;_c...e</title>
<a xlink:href="http://www2.elsevier.co.uk/~tony/1014/yads-schema-2002-04-03#resource" target="_blank" onmouseover="show_status('http://www2.elsevier.co.uk/~tony/1014/yads-schema-2002-04-03#resource');">
<path style="fill:none;stroke:#add9e6" d="M491,689C491,702 491,719 491,734"/>
<polygon style="fill:#add9e6;stroke:#add9e6" points="489,733 491,743 494,733 489,733"/>
<text text-anchor="middle" x="532" y="720" style="font-family:arial">has:resource</text>
</a></g>
<g id="node73" class="node"><title>node_12</title>
<polygon style="fill:#6497ed;stroke:#6497ed" points="808,743 624,743 624,779 808,779 808,743"/>
<text text-anchor="middle" x="716" y="765" style="font-family:arial">No service Whitechapel-Barkin....</text>
</g>
<g id="edge72" class="edge"><title>:_19-&gt;node_12</title>
<a xlink:href="http://www2.elsevier.co.uk/~tony/1014/yads-schema-2002-04-03#detail" target="_blank" onmouseover="show_status('http://www2.elsevier.co.uk/~tony/1014/yads-schema-2002-04-03#detail');">
<path style="fill:none;stroke:#add9e6" d="M526,685C562,699 620,723 662,739"/>
<polygon style="fill:#add9e6;stroke:#add9e6" points="661,741 671,743 663,737 661,741"/>
<text text-anchor="middle" x="655" y="720" style="font-family:arial">has:detail</text>
</a></g>
<g id="node75" class="node"><title>:_20</title>
<a xlink:href="http://www.w3.org/1999/02/22-rdf-syntax-ns#Bag" target="_blank" onmouseover="show_status('http://www.w3.org/1999/02/22-rdf-syntax-ns#Bag');">
<ellipse cx="330" cy="761" rx="28" ry="18" style="fill:#d2d2d2;stroke:#d2d2d2"/>
<text text-anchor="middle" x="330" y="765" style="font-family:arial">rdf:Bag</text>
</a></g>
<g id="edge74" class="edge"><title>:_19-&gt;:_20</title>
<a xlink:href="http://www2.elsevier.co.uk/~tony/1014/yads-schema-2002-04-03#collection" target="_blank" onmouseover="show_status('http://www2.elsevier.co.uk/~tony/1014/yads-schema-2002-04-03#collection');">
<path style="fill:none;stroke:#add9e6" d="M456,684C440,691 422,699 406,707 388,717 369,731 355,742"/>
<polygon style="fill:#add9e6;stroke:#add9e6" points="355,739 348,747 358,743 355,739"/>
<text text-anchor="middle" x="453" y="720" style="font-family:arial">has:collection</text>
</a></g>
<g id="node46" class="node"><title>:_13</title>
<ellipse cx="981" cy="872" rx="53" ry="18" style="fill:#eedb82;stroke:#eedb82"/>
<text text-anchor="middle" x="981" y="876" style="font-family:arial">tube:PrevStation</text>
</g>
<g id="edge45" class="edge"><title>:_12-&gt;:_13</title>
<a xlink:href="http://www.w3.org/1999/02/22-rdf-syntax-ns#_1" target="_blank" onmouseover="show_status('http://www.w3.org/1999/02/22-rdf-syntax-ns#_1');">
<path style="fill:none;stroke:#add9e6" d="M1017,779C1010,797 999,825 991,846"/>
<polygon style="fill:#add9e6;stroke:#add9e6" points="989,844 988,854 994,846 989,844"/>
<text text-anchor="middle" x="1029" y="816" style="font-family:arial">rdf:_1</text>
</a></g>
<g id="node48" class="node"><title>:_16</title>
<ellipse cx="1139" cy="872" rx="53" ry="18" style="fill:#eedb82;stroke:#eedb82"/>
<text text-anchor="middle" x="1139" y="876" style="font-family:arial">tube:NextStation</text>
</g>
<g id="edge47" class="edge"><title>:_12-&gt;:_16</title>
<a xlink:href="http://www.w3.org/1999/02/22-rdf-syntax-ns#_2" target="_blank" onmouseover="show_status('http://www.w3.org/1999/02/22-rdf-syntax-ns#_2');">
<path style="fill:none;stroke:#add9e6" d="M1040,776C1060,795 1092,826 1114,848"/>
<polygon style="fill:#add9e6;stroke:#add9e6" points="1112,850 1121,855 1116,846 1112,850"/>
<text text-anchor="middle" x="1107" y="816" style="font-family:arial">rdf:_2</text>
</a></g>
<g id="node51" class="node"><title>doi:1014/tube/west_ham</title>
<a xlink:href="http://dx.doi.org/1014/tube/west_ham" target="_blank" onmouseover="show_status('http://dx.doi.org/1014/tube/west_ham');">
<ellipse cx="914" cy="962" rx="74" ry="18" style="fill:#dca0dd;stroke:#dca0dd"/>
<text text-anchor="middle" x="914" y="966" style="font-family:arial">doi:1014/tube/west_ham</text>
</a></g>
<g id="edge50" class="edge"><title>:_13-&gt;doi:1014/tube/west_ham</title>
<a xlink:href="http://www2.elsevier.co.uk/~tony/1014/yads-schema-2002-04-03#resource" target="_blank" onmouseover="show_status('http://www2.elsevier.co.uk/~tony/1014/yads-schema-2002-04-03#resource');">
<path style="fill:none;stroke:#add9e6" d="M937,882C924,888 910,896 902,908 897,916 898,926 901,935"/>
<polygon style="fill:#add9e6;stroke:#add9e6" points="898,935 904,944 903,934 898,935"/>
<text text-anchor="middle" x="946" y="921" style="font-family:arial">has:resource</text>
</a></g>
<g id="node53" class="node"><title>:_14</title>
<a xlink:href="http://www.w3.org/1999/02/22-rdf-syntax-ns#Bag" target="_blank" onmouseover="show_status('http://www.w3.org/1999/02/22-rdf-syntax-ns#Bag');">
<ellipse cx="1034" cy="962" rx="28" ry="18" style="fill:#d2d2d2;stroke:#d2d2d2"/>
<text text-anchor="middle" x="1034" y="966" style="font-family:arial">rdf:Bag</text>
</a></g>
<g id="edge52" class="edge"><title>:_13-&gt;:_14</title>
<a xlink:href="http://www2.elsevier.co.uk/~tony/1014/yads-schema-2002-04-03#collection" target="_blank" onmouseover="show_status('http://www2.elsevier.co.uk/~tony/1014/yads-schema-2002-04-03#collection');">
<path style="fill:none;stroke:#add9e6" d="M982,890C984,901 987,915 993,926 996,932 1002,938 1007,943"/>
<polygon style="fill:#add9e6;stroke:#add9e6" points="1005,944 1014,949 1008,941 1005,944"/>
<text text-anchor="middle" x="1034" y="921" style="font-family:arial">has:collection</text>
</a></g>
<g id="node61" class="node"><title>doi:1014/tube/upton_park</title>
<a xlink:href="http://dx.doi.org/1014/tube/upton_park" target="_blank" onmouseover="show_status('http://dx.doi.org/1014/tube/upton_park');">
<ellipse cx="1161" cy="962" rx="75" ry="18" style="fill:#dca0dd;stroke:#dca0dd"/>
<text text-anchor="middle" x="1161" y="966" style="font-family:arial">doi:1014/tube/upton_park</text>
</a></g>
<g id="edge60" class="edge"><title>:_16-&gt;doi:1014/tube/upton_park</title>
<a xlink:href="http://www2.elsevier.co.uk/~tony/1014/yads-schema-2002-04-03#resource" target="_blank" onmouseover="show_status('http://www2.elsevier.co.uk/~tony/1014/yads-schema-2002-04-03#resource');">
<path style="fill:none;stroke:#add9e6" d="M1139,890C1140,901 1141,914 1144,926 1145,929 1146,932 1147,935"/>
<polygon style="fill:#add9e6;stroke:#add9e6" points="1145,936 1151,944 1149,934 1145,936"/>
<text text-anchor="middle" x="1185" y="921" style="font-family:arial">has:resource</text>
</a></g>
<g id="node63" class="node"><title>:_17</title>
<a xlink:href="http://www.w3.org/1999/02/22-rdf-syntax-ns#Bag" target="_blank" onmouseover="show_status('http://www.w3.org/1999/02/22-rdf-syntax-ns#Bag');">
<ellipse cx="1282" cy="962" rx="28" ry="18" style="fill:#d2d2d2;stroke:#d2d2d2"/>
<text text-anchor="middle" x="1282" y="966" style="font-family:arial">rdf:Bag</text>
</a></g>
<g id="edge62" class="edge"><title>:_16-&gt;:_17</title>
<a xlink:href="http://www2.elsevier.co.uk/~tony/1014/yads-schema-2002-04-03#collection" target="_blank" onmouseover="show_status('http://www2.elsevier.co.uk/~tony/1014/yads-schema-2002-04-03#collection');">
<path style="fill:none;stroke:#add9e6" d="M1176,885C1191,891 1207,898 1221,908 1229,915 1229,919 1237,926 1243,932 1249,937 1256,942"/>
<polygon style="fill:#add9e6;stroke:#add9e6" points="1254,943 1263,948 1257,940 1254,943"/>
<text text-anchor="middle" x="1278" y="921" style="font-family:arial">has:collection</text>
</a></g>
<g id="node55" class="node"><title>:_15</title>
<ellipse cx="923" cy="1067" rx="33" ry="18" style="fill:#eedb82;stroke:#eedb82"/>
<text text-anchor="middle" x="923" y="1071" style="font-family:arial">tube:Mins</text>
</g>
<g id="edge54" class="edge"><title>:_14-&gt;:_15</title>
<a xlink:href="http://www.w3.org/1999/02/22-rdf-syntax-ns#_1" target="_blank" onmouseover="show_status('http://www.w3.org/1999/02/22-rdf-syntax-ns#_1');">
<path style="fill:none;stroke:#add9e6" d="M1018,977C999,995 968,1024 947,1045"/>
<polygon style="fill:#add9e6;stroke:#add9e6" points="946,1043 940,1051 949,1046 946,1043"/>
<text text-anchor="middle" x="1016" y="1011" style="font-family:arial">rdf:_1</text>
</a></g>
<g id="node58" class="node"><title>data:,1</title>
<a xlink:href="" onclick="show_data('1');" onmouseover="show_status('data:,1');">
<ellipse cx="910" cy="1171" rx="27" ry="18" style="fill:#dca0dd;stroke:#dca0dd"/>
<text text-anchor="middle" x="910" y="1175" style="font-family:arial">data:,1</text>
</a></g>
<g id="edge57" class="edge"><title>:_15-&gt;data:,1</title>
<a xlink:href="http://www2.elsevier.co.uk/~tony/1014/yads-schema-2002-04-03#resource" target="_blank" onmouseover="show_status('http://www2.elsevier.co.uk/~tony/1014/yads-schema-2002-04-03#resource');">
<path style="fill:none;stroke:#add9e6" d="M921,1085C918,1101 916,1125 913,1144"/>
<polygon style="fill:#add9e6;stroke:#add9e6" points="911,1143 912,1153 916,1143 911,1143"/>
<text text-anchor="middle" x="958" y="1130" style="font-family:arial">has:resource</text>
</a></g>
<g id="node65" class="node"><title>:_18</title>
<ellipse cx="1170" cy="1067" rx="33" ry="18" style="fill:#eedb82;stroke:#eedb82"/>
<text text-anchor="middle" x="1170" y="1071" style="font-family:arial">tube:Mins</text>
</g>
<g id="edge64" class="edge"><title>:_17-&gt;:_18</title>
<a xlink:href="http://www.w3.org/1999/02/22-rdf-syntax-ns#_1" target="_blank" onmouseover="show_status('http://www.w3.org/1999/02/22-rdf-syntax-ns#_1');">
<path style="fill:none;stroke:#add9e6" d="M1266,977C1247,995 1215,1024 1194,1045"/>
<polygon style="fill:#add9e6;stroke:#add9e6" points="1193,1043 1187,1051 1196,1046 1193,1043"/>
<text text-anchor="middle" x="1262" y="1011" style="font-family:arial">rdf:_1</text>
</a></g>
<g id="node68" class="node"><title>data:,2</title>
<a xlink:href="" onclick="show_data('2');" onmouseover="show_status('data:,2');">
<ellipse cx="1157" cy="1171" rx="27" ry="18" style="fill:#dca0dd;stroke:#dca0dd"/>
<text text-anchor="middle" x="1157" y="1175" style="font-family:arial">data:,2</text>
</a></g>
<g id="edge67" class="edge"><title>:_18-&gt;data:,2</title>
<a xlink:href="http://www2.elsevier.co.uk/~tony/1014/yads-schema-2002-04-03#resource" target="_blank" onmouseover="show_status('http://www2.elsevier.co.uk/~tony/1014/yads-schema-2002-04-03#resource');">
<path style="fill:none;stroke:#add9e6" d="M1168,1085C1165,1101 1163,1125 1160,1144"/>
<polygon style="fill:#add9e6;stroke:#add9e6" points="1158,1143 1159,1153 1163,1143 1158,1143"/>
<text text-anchor="middle" x="1205" y="1130" style="font-family:arial">has:resource</text>
</a></g>
<g id="node77" class="node"><title>:_21</title>
<ellipse cx="614" cy="872" rx="53" ry="18" style="fill:#eedb82;stroke:#eedb82"/>
<text text-anchor="middle" x="614" y="876" style="font-family:arial">tube:PrevStation</text>
</g>
<g id="edge76" class="edge"><title>:_20-&gt;:_21</title>
<a xlink:href="http://www.w3.org/1999/02/22-rdf-syntax-ns#_1" target="_blank" onmouseover="show_status('http://www.w3.org/1999/02/22-rdf-syntax-ns#_1');">
<path style="fill:none;stroke:#add9e6" d="M353,771C362,780 362,789 375,795 404,809 415,798 446,803 493,812 506,810 549,829 562,835 575,842 586,850"/>
<polygon style="fill:#add9e6;stroke:#add9e6" points="583,851 593,855 586,847 583,851"/>
<text text-anchor="middle" x="548" y="816" style="font-family:arial">rdf:_1</text>
</a></g>
<g id="node79" class="node"><title>:_24</title>
<ellipse cx="484" cy="872" rx="53" ry="18" style="fill:#eedb82;stroke:#eedb82"/>
<text text-anchor="middle" x="484" y="876" style="font-family:arial">tube:NextStation</text>
</g>
<g id="edge78" class="edge"><title>:_20-&gt;:_24</title>
<a xlink:href="http://www.w3.org/1999/02/22-rdf-syntax-ns#_2" target="_blank" onmouseover="show_status('http://www.w3.org/1999/02/22-rdf-syntax-ns#_2');">
<path style="fill:none;stroke:#add9e6" d="M345,776C352,782 360,789 367,795 394,816 426,837 449,852"/>
<polygon style="fill:#add9e6;stroke:#add9e6" points="447,854 457,856 449,849 447,854"/>
<text text-anchor="middle" x="420" y="816" style="font-family:arial">rdf:_2</text>
</a></g>
<g id="edge81" class="edge"><title>:_21-&gt;doi:1014/tube/west_ham</title>
<a xlink:href="http://www2.elsevier.co.uk/~tony/1014/yads-schema-2002-04-03#resource" target="_blank" onmouseover="show_status('http://www2.elsevier.co.uk/~tony/1014/yads-schema-2002-04-03#resource');">
<path style="fill:none;stroke:#add9e6" d="M660,881C692,887 733,897 769,908 790,915 794,919 814,926 834,934 845,940 857,945"/>
<polygon style="fill:#add9e6;stroke:#add9e6" points="855,947 865,948 857,942 855,947"/>
<text text-anchor="middle" x="855" y="921" style="font-family:arial">has:resource</text>
</a></g>
<g id="node83" class="node"><title>:_22</title>
<a xlink:href="http://www.w3.org/1999/02/22-rdf-syntax-ns#Bag" target="_blank" onmouseover="show_status('http://www.w3.org/1999/02/22-rdf-syntax-ns#Bag');">
<ellipse cx="595" cy="962" rx="28" ry="18" style="fill:#d2d2d2;stroke:#d2d2d2"/>
<text text-anchor="middle" x="595" y="966" style="font-family:arial">rdf:Bag</text>
</a></g>
<g id="edge83" class="edge"><title>:_21-&gt;:_22</title>
<a xlink:href="http://www2.elsevier.co.uk/~tony/1014/yads-schema-2002-04-03#collection" target="_blank" onmouseover="show_status('http://www2.elsevier.co.uk/~tony/1014/yads-schema-2002-04-03#collection');">
<path style="fill:none;stroke:#add9e6" d="M606,890C603,896 601,902 599,908 597,917 596,926 595,935"/>
<polygon style="fill:#add9e6;stroke:#add9e6" points="593,934 595,944 598,934 593,934"/>
<text text-anchor="middle" x="643" y="921" style="font-family:arial">has:collection</text>
</a></g>
<g id="edge91" class="edge"><title>:_24-&gt;doi:1014/tube/upton_park</title>
<a xlink:href="http://www2.elsevier.co.uk/~tony/1014/yads-schema-2002-04-03#resource" target="_blank" onmouseover="show_status('http://www2.elsevier.co.uk/~tony/1014/yads-schema-2002-04-03#resource');">
<path style="fill:none;stroke:#add9e6" d="M524,884C532,886 541,888 549,890 602,902 622,883 669,908 679,914 676,922 685,926 725,945 1032,939 1074,944 1083,945 1090,947 1096,948"/>
<polygon style="fill:#add9e6;stroke:#add9e6" points="1094,950 1104,950 1095,945 1094,950"/>
<text text-anchor="middle" x="726" y="921" style="font-family:arial">has:resource</text>
</a></g>
<g id="node91" class="node"><title>:_25</title>
<a xlink:href="http://www.w3.org/1999/02/22-rdf-syntax-ns#Bag" target="_blank" onmouseover="show_status('http://www.w3.org/1999/02/22-rdf-syntax-ns#Bag');">
<ellipse cx="477" cy="962" rx="28" ry="18" style="fill:#d2d2d2;stroke:#d2d2d2"/>
<text text-anchor="middle" x="477" y="966" style="font-family:arial">rdf:Bag</text>
</a></g>
<g id="edge93" class="edge"><title>:_24-&gt;:_25</title>
<a xlink:href="http://www2.elsevier.co.uk/~tony/1014/yads-schema-2002-04-03#collection" target="_blank" onmouseover="show_status('http://www2.elsevier.co.uk/~tony/1014/yads-schema-2002-04-03#collection');">
<path style="fill:none;stroke:#add9e6" d="M474,890C472,896 469,902 468,908 466,917 467,926 469,935"/>
<polygon style="fill:#add9e6;stroke:#add9e6" points="466,935 471,944 471,934 466,935"/>
<text text-anchor="middle" x="512" y="921" style="font-family:arial">has:collection</text>
</a></g>
<g id="node85" class="node"><title>:_23</title>
<ellipse cx="614" cy="1067" rx="33" ry="18" style="fill:#eedb82;stroke:#eedb82"/>
<text text-anchor="middle" x="614" y="1071" style="font-family:arial">tube:Mins</text>
</g>
<g id="edge85" class="edge"><title>:_22-&gt;:_23</title>
<a xlink:href="http://www.w3.org/1999/02/22-rdf-syntax-ns#_1" target="_blank" onmouseover="show_status('http://www.w3.org/1999/02/22-rdf-syntax-ns#_1');">
<path style="fill:none;stroke:#add9e6" d="M598,980C601,996 606,1021 609,1040"/>
<polygon style="fill:#add9e6;stroke:#add9e6" points="606,1040 611,1049 611,1039 606,1040"/>
<text text-anchor="middle" x="625" y="1011" style="font-family:arial">rdf:_1</text>
</a></g>
<g id="edge88" class="edge"><title>:_23-&gt;data:,1</title>
<a xlink:href="http://www2.elsevier.co.uk/~tony/1014/yads-schema-2002-04-03#resource" target="_blank" onmouseover="show_status('http://www2.elsevier.co.uk/~tony/1014/yads-schema-2002-04-03#resource');">
<path style="fill:none;stroke:#add9e6" d="M642,1077C697,1096 820,1139 878,1160"/>
<polygon style="fill:#add9e6;stroke:#add9e6" points="876,1162 886,1163 878,1157 876,1162"/>
<text text-anchor="middle" x="848" y="1130" style="font-family:arial">has:resource</text>
</a></g>
<g id="node93" class="node"><title>:_26</title>
<ellipse cx="491" cy="1067" rx="33" ry="18" style="fill:#eedb82;stroke:#eedb82"/>
<text text-anchor="middle" x="491" y="1071" style="font-family:arial">tube:Mins</text>
</g>
<g id="edge95" class="edge"><title>:_25-&gt;:_26</title>
<a xlink:href="http://www.w3.org/1999/02/22-rdf-syntax-ns#_1" target="_blank" onmouseover="show_status('http://www.w3.org/1999/02/22-rdf-syntax-ns#_1');">
<path style="fill:none;stroke:#add9e6" d="M479,980C482,996 485,1021 487,1040"/>
<polygon style="fill:#add9e6;stroke:#add9e6" points="484,1039 488,1049 489,1039 484,1039"/>
<text text-anchor="middle" x="505" y="1011" style="font-family:arial">rdf:_1</text>
</a></g>
<g id="edge98" class="edge"><title>:_26-&gt;data:,2</title>
<a xlink:href="http://www2.elsevier.co.uk/~tony/1014/yads-schema-2002-04-03#resource" target="_blank" onmouseover="show_status('http://www2.elsevier.co.uk/~tony/1014/yads-schema-2002-04-03#resource');">
<path style="fill:none;stroke:#add9e6" d="M513,1081C528,1090 550,1101 569,1109 613,1126 625,1128 670,1135 805,1157 841,1143 976,1153 1027,1158 1087,1163 1123,1167"/>
<polygon style="fill:#add9e6;stroke:#add9e6" points="1120,1169 1130,1168 1120,1164 1120,1169"/>
<text text-anchor="middle" x="711" y="1130" style="font-family:arial">has:resource</text>
</a></g>
</g>
</svg>
