<?xml version="1.0" encoding="UTF-8" standalone="no"?>
<!DOCTYPE svg PUBLIC "-//W3C//DTD SVG 1.0//EN"
 "http://www.w3.org/TR/2001/REC-SVG-20010904/DTD/svg10.dtd" [
 <!ATTLIST svg xmlns:xlink CDATA #FIXED "http://www.w3.org/1999/xlink">
]>
<!-- Generated by dot version 1.8.5 (Tue Apr 23 17:19:23  2002)
     For user: (Administrator) ,S-1-5-21-1454471165-688789844-1708537768-500   Title: yads    Pages: 1 -->
<svg width="871px" height="1266px"
 xmlns="http://www.w3.org/2000/svg" xmlns:xlink="http://www.w3.org/1999/xlink">
<g id="graph0" class="graph" style="font-family:Times-Roman;font-size:11.00">
<title>yads</title>
<text text-anchor="middle" x="435" y="1255" style="font-family:arial;font-size:24.00">YADS - A Description Service</text>
<g id="graph2" class="cluster"><title>cluster_1</title>
<polygon style="fill:none;stroke:#d2d2d2;stroke-dasharray:5,2" points="19,1223 852,1223 852,43 19,43 19,1223"/>
<text text-anchor="middle" x="102" y="55" style="font-family:arial">Nest - Putney Bridge Station</text>
</g>
<g id="graph3" class="cluster"><title>cluster_3</title>
<polygon style="fill:none;stroke:#d2d2d2;stroke-dasharray:5,2" points="27,1215 844,1215 844,238 27,238 27,1215"/>
<text text-anchor="middle" x="99" y="250" style="font-family:arial">Nest - Application Profile</text>
</g>
<g id="graph4" class="cluster"><title>cluster_5</title>
<polygon style="fill:none;stroke:#d2d2d2;stroke-dasharray:5,2" points="35,795 278,795 278,433 35,433 35,795"/>
<text text-anchor="middle" x="80" y="445" style="font-family:arial">Item - Location</text>
</g>
<g id="graph5" class="cluster"><title>cluster_7</title>
<polygon style="fill:none;stroke:#d2d2d2;stroke-dasharray:5,2" points="43,787 165,787 165,628 43,628 43,787"/>
<text text-anchor="middle" x="59" y="640" style="font-family:arial">Item</text>
</g>
<g id="graph6" class="cluster"><title>cluster_8</title>
<polygon style="fill:none;stroke:#d2d2d2;stroke-dasharray:5,2" points="173,787 270,787 270,628 173,628 173,787"/>
<text text-anchor="middle" x="189" y="640" style="font-family:arial">Item</text>
</g>
<g id="graph7" class="cluster"><title>cluster_9</title>
<polygon style="fill:none;stroke:#d2d2d2;stroke-dasharray:5,2" points="286,1207 836,1207 836,433 286,433 286,1207"/>
<text text-anchor="middle" x="355" y="445" style="font-family:arial">Item - Line Interchanges</text>
</g>
<g id="graph8" class="cluster"><title>cluster_11</title>
<polygon style="fill:none;stroke:#d2d2d2;stroke-dasharray:5,2" points="294,1199 828,1199 828,628 294,628 294,1199"/>
<text text-anchor="middle" x="362" y="640" style="font-family:arial">Nest - Line Interchange</text>
</g>
<g id="graph9" class="cluster"><title>cluster_13</title>
<polygon style="fill:none;stroke:#d2d2d2;stroke-dasharray:5,2" points="302,1191 550,1191 550,829 302,829 302,1191"/>
<text text-anchor="middle" x="370" y="841" style="font-family:arial">Nest - Next Stop Back</text>
</g>
<g id="graph10" class="cluster"><title>cluster_15</title>
<polygon style="fill:none;stroke:#d2d2d2;stroke-dasharray:5,2" points="445,1183 542,1183 542,1024 445,1024 445,1183"/>
<text text-anchor="middle" x="461" y="1036" style="font-family:arial">Item</text>
</g>
<g id="graph11" class="cluster"><title>cluster_16</title>
<polygon style="fill:none;stroke:#d2d2d2;stroke-dasharray:5,2" points="558,1191 820,1191 820,829 558,829 558,1191"/>
<text text-anchor="middle" x="610" y="841" style="font-family:arial">Nest - Next Stop</text>
</g>
<g id="graph12" class="cluster"><title>cluster_18</title>
<polygon style="fill:none;stroke:#d2d2d2;stroke-dasharray:5,2" points="715,1183 812,1183 812,1024 715,1024 715,1183"/>
<text text-anchor="middle" x="731" y="1036" style="font-family:arial">Item</text>
</g>
<g id="node2" class="node"><title>:_1</title>
<ellipse cx="254" cy="86" rx="40" ry="18" style="fill:#eedb82;stroke:#eedb82"/>
<text text-anchor="middle" x="254" y="90" style="font-family:arial">tube:Station</text>
</g>
<g id="node4" class="node"><title>doi:1014/tube/putney_bridge</title>
<a xlink:href="http://dx.doi.org/1014/tube/putney_bridge" target="_blank" onmouseover="show_status('http://dx.doi.org/1014/tube/putney_bridge');">
<ellipse cx="110" cy="176" rx="83" ry="18" style="fill:#dca0dd;stroke:#dca0dd"/>
<text text-anchor="middle" x="110" y="180" style="font-family:arial">doi:1014/tube/putney_bridge</text>
</a></g>
<g id="edge3" class="edge"><title>:_1-&gt;doi:1014/tube/putney_bridge</title>
<a xlink:href="http://www2.elsevier.co.uk/~tony/1014/yads-schema-2002-04-03#resource" target="_blank" onmouseover="show_status('http://www2.elsevier.co.uk/~tony/1014/yads-schema-2002-04-03#resource');">
<path style="fill:none;stroke:#add9e6" d="M222,97C205,103 186,112 169,122 157,131 144,142 133,152"/>
<polygon style="fill:#add9e6;stroke:#add9e6" points="132,149 127,158 136,153 132,149"/>
<text text-anchor="middle" x="216" y="135" style="font-family:arial">has:resource</text>
</a></g>
<g id="node6" class="node"><title>node_1</title>
<polygon style="fill:#6497ed;stroke:#6497ed" points="297,158 211,158 211,194 297,194 297,158"/>
<text text-anchor="middle" x="254" y="180" style="font-family:arial">Putney Bridge</text>
</g>
<g id="edge5" class="edge"><title>:_1-&gt;node_1</title>
<a xlink:href="http://www2.elsevier.co.uk/~tony/1014/yads-schema-2002-04-03#label" target="_blank" onmouseover="show_status('http://www2.elsevier.co.uk/~tony/1014/yads-schema-2002-04-03#label');">
<path style="fill:none;stroke:#add9e6" d="M254,104C254,117 254,134 254,149"/>
<polygon style="fill:#add9e6;stroke:#add9e6" points="252,148 254,158 257,148 252,148"/>
<text text-anchor="middle" x="281" y="135" style="font-family:arial">has:label</text>
</a></g>
<g id="node8" class="node"><title>:_2</title>
<a xlink:href="http://www.w3.org/1999/02/22-rdf-syntax-ns#Bag" target="_blank" onmouseover="show_status('http://www.w3.org/1999/02/22-rdf-syntax-ns#Bag');">
<ellipse cx="343" cy="176" rx="28" ry="18" style="fill:#d2d2d2;stroke:#d2d2d2"/>
<text text-anchor="middle" x="343" y="180" style="font-family:arial">rdf:Bag</text>
</a></g>
<g id="edge7" class="edge"><title>:_1-&gt;:_2</title>
<a xlink:href="http://www2.elsevier.co.uk/~tony/1014/yads-schema-2002-04-03#collection" target="_blank" onmouseover="show_status('http://www2.elsevier.co.uk/~tony/1014/yads-schema-2002-04-03#collection');">
<path style="fill:none;stroke:#add9e6" d="M282,99C292,105 304,113 313,122 321,130 328,141 332,150"/>
<polygon style="fill:#add9e6;stroke:#add9e6" points="329,150 336,158 334,148 329,150"/>
<text text-anchor="middle" x="368" y="135" style="font-family:arial">has:collection</text>
</a></g>
<g id="node10" class="node"><title>:_3</title>
<ellipse cx="343" cy="281" rx="34" ry="18" style="fill:#eedb82;stroke:#eedb82"/>
<text text-anchor="middle" x="343" y="285" style="font-family:arial">doi:Profile</text>
</g>
<g id="edge9" class="edge"><title>:_2-&gt;:_3</title>
<a xlink:href="http://www.w3.org/1999/02/22-rdf-syntax-ns#_1" target="_blank" onmouseover="show_status('http://www.w3.org/1999/02/22-rdf-syntax-ns#_1');">
<path style="fill:none;stroke:#add9e6" d="M343,194C343,210 343,235 343,254"/>
<polygon style="fill:#add9e6;stroke:#add9e6" points="341,253 343,263 346,253 341,253"/>
<text text-anchor="middle" x="363" y="225" style="font-family:arial">rdf:_1</text>
</a></g>
<g id="node13" class="node"><title>doi:1014/profile.tube</title>
<a xlink:href="http://dx.doi.org/1014/profile.tube" target="_blank" onmouseover="show_status('http://dx.doi.org/1014/profile.tube');">
<ellipse cx="241" cy="371" rx="59" ry="18" style="fill:#dca0dd;stroke:#dca0dd"/>
<text text-anchor="middle" x="241" y="375" style="font-family:arial">doi:1014/profile.tube</text>
</a></g>
<g id="edge12" class="edge"><title>:_3-&gt;doi:1014/profile.tube</title>
<a xlink:href="http://www2.elsevier.co.uk/~tony/1014/yads-schema-2002-04-03#resource" target="_blank" onmouseover="show_status('http://www2.elsevier.co.uk/~tony/1014/yads-schema-2002-04-03#resource');">
<path style="fill:none;stroke:#add9e6" d="M312,288C294,294 274,303 260,317 253,325 249,334 246,344"/>
<polygon style="fill:#add9e6;stroke:#add9e6" points="244,343 244,353 249,344 244,343"/>
<text text-anchor="middle" x="304" y="330" style="font-family:arial">has:resource</text>
</a></g>
<g id="node15" class="node"><title>:_4</title>
<a xlink:href="http://www.w3.org/1999/02/22-rdf-syntax-ns#Bag" target="_blank" onmouseover="show_status('http://www.w3.org/1999/02/22-rdf-syntax-ns#Bag');">
<ellipse cx="346" cy="371" rx="28" ry="18" style="fill:#d2d2d2;stroke:#d2d2d2"/>
<text text-anchor="middle" x="346" y="375" style="font-family:arial">rdf:Bag</text>
</a></g>
<g id="edge14" class="edge"><title>:_3-&gt;:_4</title>
<a xlink:href="http://www2.elsevier.co.uk/~tony/1014/yads-schema-2002-04-03#collection" target="_blank" onmouseover="show_status('http://www2.elsevier.co.uk/~tony/1014/yads-schema-2002-04-03#collection');">
<path style="fill:none;stroke:#add9e6" d="M344,299C344,312 345,329 345,344"/>
<polygon style="fill:#add9e6;stroke:#add9e6" points="343,343 345,353 348,343 343,343"/>
<text text-anchor="middle" x="387" y="330" style="font-family:arial">has:collection</text>
</a></g>
<g id="node17" class="node"><title>:_5</title>
<a xlink:href="http://www2.elsevier.co.uk/~tony/1014/yads-schema-2002-04-03#Item" target="_blank" onmouseover="show_status('http://www2.elsevier.co.uk/~tony/1014/yads-schema-2002-04-03#Item');">
<ellipse cx="216" cy="476" rx="28" ry="18" style="fill:#d2d2d2;stroke:#d2d2d2"/>
<text text-anchor="middle" x="216" y="480" style="font-family:arial">isa:Item</text>
</a></g>
<g id="edge16" class="edge"><title>:_4-&gt;:_5</title>
<a xlink:href="http://www.w3.org/1999/02/22-rdf-syntax-ns#_1" target="_blank" onmouseover="show_status('http://www.w3.org/1999/02/22-rdf-syntax-ns#_1');">
<path style="fill:none;stroke:#add9e6" d="M328,385C306,404 265,437 239,458"/>
<polygon style="fill:#add9e6;stroke:#add9e6" points="240,454 234,462 243,458 240,454"/>
<text text-anchor="middle" x="324" y="420" style="font-family:arial">rdf:_1</text>
</a></g>
<g id="node19" class="node"><title>:_9</title>
<a xlink:href="http://www2.elsevier.co.uk/~tony/1014/yads-schema-2002-04-03#Item" target="_blank" onmouseover="show_status('http://www2.elsevier.co.uk/~tony/1014/yads-schema-2002-04-03#Item');">
<ellipse cx="346" cy="476" rx="28" ry="18" style="fill:#d2d2d2;stroke:#d2d2d2"/>
<text text-anchor="middle" x="346" y="480" style="font-family:arial">isa:Item</text>
</a></g>
<g id="edge18" class="edge"><title>:_4-&gt;:_9</title>
<a xlink:href="http://www.w3.org/1999/02/22-rdf-syntax-ns#_2" target="_blank" onmouseover="show_status('http://www.w3.org/1999/02/22-rdf-syntax-ns#_2');">
<path style="fill:none;stroke:#add9e6" d="M346,389C346,405 346,430 346,449"/>
<polygon style="fill:#add9e6;stroke:#add9e6" points="344,448 346,458 349,448 344,448"/>
<text text-anchor="middle" x="367" y="420" style="font-family:arial">rdf:_2</text>
</a></g>
<g id="node22" class="node"><title>:_6</title>
<a xlink:href="http://www.w3.org/1999/02/22-rdf-syntax-ns#Bag" target="_blank" onmouseover="show_status('http://www.w3.org/1999/02/22-rdf-syntax-ns#Bag');">
<ellipse cx="189" cy="566" rx="28" ry="18" style="fill:#d2d2d2;stroke:#d2d2d2"/>
<text text-anchor="middle" x="189" y="570" style="font-family:arial">rdf:Bag</text>
</a></g>
<g id="edge21" class="edge"><title>:_5-&gt;:_6</title>
<a xlink:href="http://www2.elsevier.co.uk/~tony/1014/yads-schema-2002-04-03#collection" target="_blank" onmouseover="show_status('http://www2.elsevier.co.uk/~tony/1014/yads-schema-2002-04-03#collection');">
<path style="fill:none;stroke:#add9e6" d="M208,494C206,499 203,506 201,512 198,521 196,530 194,539"/>
<polygon style="fill:#add9e6;stroke:#add9e6" points="192,538 192,548 197,539 192,538"/>
<text text-anchor="middle" x="245" y="525" style="font-family:arial">has:collection</text>
</a></g>
<g id="node35" class="node"><title>:_10</title>
<a xlink:href="http://www.w3.org/1999/02/22-rdf-syntax-ns#Bag" target="_blank" onmouseover="show_status('http://www.w3.org/1999/02/22-rdf-syntax-ns#Bag');">
<ellipse cx="370" cy="566" rx="28" ry="18" style="fill:#d2d2d2;stroke:#d2d2d2"/>
<text text-anchor="middle" x="370" y="570" style="font-family:arial">rdf:Bag</text>
</a></g>
<g id="edge34" class="edge"><title>:_9-&gt;:_10</title>
<a xlink:href="http://www2.elsevier.co.uk/~tony/1014/yads-schema-2002-04-03#collection" target="_blank" onmouseover="show_status('http://www2.elsevier.co.uk/~tony/1014/yads-schema-2002-04-03#collection');">
<path style="fill:none;stroke:#add9e6" d="M351,494C354,507 359,524 363,539"/>
<polygon style="fill:#add9e6;stroke:#add9e6" points="360,539 365,548 365,538 360,539"/>
<text text-anchor="middle" x="402" y="525" style="font-family:arial">has:collection</text>
</a></g>
<g id="node24" class="node"><title>:_7</title>
<ellipse cx="104" cy="671" rx="35" ry="18" style="fill:#eedb82;stroke:#eedb82"/>
<text text-anchor="middle" x="104" y="675" style="font-family:arial">tube:Zone</text>
</g>
<g id="edge23" class="edge"><title>:_6-&gt;:_7</title>
<a xlink:href="http://www.w3.org/1999/02/22-rdf-syntax-ns#_1" target="_blank" onmouseover="show_status('http://www.w3.org/1999/02/22-rdf-syntax-ns#_1');">
<path style="fill:none;stroke:#add9e6" d="M173,581C167,588 160,595 154,602 142,616 130,633 121,647"/>
<polygon style="fill:#add9e6;stroke:#add9e6" points="120,644 116,654 124,647 120,644"/>
<text text-anchor="middle" x="177" y="615" style="font-family:arial">rdf:_1</text>
</a></g>
<g id="node26" class="node"><title>:_8</title>
<ellipse cx="213" cy="671" rx="32" ry="18" style="fill:#eedb82;stroke:#eedb82"/>
<text text-anchor="middle" x="213" y="675" style="font-family:arial">tube:Grid</text>
</g>
<g id="edge25" class="edge"><title>:_6-&gt;:_8</title>
<a xlink:href="http://www.w3.org/1999/02/22-rdf-syntax-ns#_2" target="_blank" onmouseover="show_status('http://www.w3.org/1999/02/22-rdf-syntax-ns#_2');">
<path style="fill:none;stroke:#add9e6" d="M193,584C196,600 202,625 207,644"/>
<polygon style="fill:#add9e6;stroke:#add9e6" points="204,644 209,653 209,643 204,644"/>
<text text-anchor="middle" x="222" y="615" style="font-family:arial">rdf:_2</text>
</a></g>
<g id="node29" class="node"><title>data:,Zone%202</title>
<a xlink:href="" onclick="show_data('Zone%202');" onmouseover="show_status('data:,Zone%202');">
<ellipse cx="104" cy="761" rx="53" ry="18" style="fill:#dca0dd;stroke:#dca0dd"/>
<text text-anchor="middle" x="104" y="765" style="font-family:arial">data:,Zone%202</text>
</a></g>
<g id="edge28" class="edge"><title>:_7-&gt;data:,Zone%202</title>
<a xlink:href="http://www2.elsevier.co.uk/~tony/1014/yads-schema-2002-04-03#resource" target="_blank" onmouseover="show_status('http://www2.elsevier.co.uk/~tony/1014/yads-schema-2002-04-03#resource');">
<path style="fill:none;stroke:#add9e6" d="M95,689C92,694 89,701 88,707 87,715 87,718 88,725 88,728 89,731 90,734"/>
<polygon style="fill:#add9e6;stroke:#add9e6" points="88,735 94,743 92,733 88,735"/>
<text text-anchor="middle" x="132" y="720" style="font-family:arial">has:resource</text>
</a></g>
<g id="node32" class="node"><title>data:,E3</title>
<a xlink:href="" onclick="show_data('E3');" onmouseover="show_status('data:,E3');">
<ellipse cx="211" cy="761" rx="30" ry="18" style="fill:#dca0dd;stroke:#dca0dd"/>
<text text-anchor="middle" x="211" y="765" style="font-family:arial">data:,E3</text>
</a></g>
<g id="edge31" class="edge"><title>:_8-&gt;data:,E3</title>
<a xlink:href="http://www2.elsevier.co.uk/~tony/1014/yads-schema-2002-04-03#resource" target="_blank" onmouseover="show_status('http://www2.elsevier.co.uk/~tony/1014/yads-schema-2002-04-03#resource');">
<path style="fill:none;stroke:#add9e6" d="M211,689C210,695 209,701 209,707 208,716 209,725 209,733"/>
<polygon style="fill:#add9e6;stroke:#add9e6" points="207,733 210,743 211,733 207,733"/>
<text text-anchor="middle" x="253" y="720" style="font-family:arial">has:resource</text>
</a></g>
<g id="node37" class="node"><title>:_11</title>
<ellipse cx="375" cy="671" rx="53" ry="18" style="fill:#eedb82;stroke:#eedb82"/>
<text text-anchor="middle" x="375" y="675" style="font-family:arial">tube:LineChange</text>
</g>
<g id="edge36" class="edge"><title>:_10-&gt;:_11</title>
<a xlink:href="http://www.w3.org/1999/02/22-rdf-syntax-ns#_1" target="_blank" onmouseover="show_status('http://www.w3.org/1999/02/22-rdf-syntax-ns#_1');">
<path style="fill:none;stroke:#add9e6" d="M371,584C372,600 373,625 374,644"/>
<polygon style="fill:#add9e6;stroke:#add9e6" points="372,643 374,653 377,643 372,643"/>
<text text-anchor="middle" x="393" y="615" style="font-family:arial">rdf:_1</text>
</a></g>
<g id="node40" class="node"><title>doi:1014/tube/district_line</title>
<a xlink:href="http://dx.doi.org/1014/tube/district_line" target="_blank" onmouseover="show_status('http://dx.doi.org/1014/tube/district_line');">
<ellipse cx="375" cy="761" rx="73" ry="18" style="fill:#dca0dd;stroke:#dca0dd"/>
<text text-anchor="middle" x="375" y="765" style="font-family:arial">doi:1014/tube/district_line</text>
</a></g>
<g id="edge39" class="edge"><title>:_11-&gt;doi:1014/tube/district_line</title>
<a xlink:href="http://www2.elsevier.co.uk/~tony/1014/yads-schema-2002-04-03#resource" target="_blank" onmouseover="show_status('http://www2.elsevier.co.uk/~tony/1014/yads-schema-2002-04-03#resource');">
<path style="fill:none;stroke:#add9e6" d="M375,689C375,702 375,719 375,734"/>
<polygon style="fill:#add9e6;stroke:#add9e6" points="373,733 375,743 378,733 373,733"/>
<text text-anchor="middle" x="416" y="720" style="font-family:arial">has:resource</text>
</a></g>
<g id="node42" class="node"><title>:_12</title>
<a xlink:href="http://www.w3.org/1999/02/22-rdf-syntax-ns#Bag" target="_blank" onmouseover="show_status('http://www.w3.org/1999/02/22-rdf-syntax-ns#Bag');">
<ellipse cx="494" cy="761" rx="28" ry="18" style="fill:#d2d2d2;stroke:#d2d2d2"/>
<text text-anchor="middle" x="494" y="765" style="font-family:arial">rdf:Bag</text>
</a></g>
<g id="edge41" class="edge"><title>:_11-&gt;:_12</title>
<a xlink:href="http://www2.elsevier.co.uk/~tony/1014/yads-schema-2002-04-03#collection" target="_blank" onmouseover="show_status('http://www2.elsevier.co.uk/~tony/1014/yads-schema-2002-04-03#collection');">
<path style="fill:none;stroke:#add9e6" d="M416,683C431,688 447,696 460,707 469,715 477,726 482,735"/>
<polygon style="fill:#add9e6;stroke:#add9e6" points="479,735 486,743 484,733 479,735"/>
<text text-anchor="middle" x="518" y="720" style="font-family:arial">has:collection</text>
</a></g>
<g id="node44" class="node"><title>:_13</title>
<ellipse cx="461" cy="872" rx="53" ry="18" style="fill:#eedb82;stroke:#eedb82"/>
<text text-anchor="middle" x="461" y="876" style="font-family:arial">tube:PrevStation</text>
</g>
<g id="edge43" class="edge"><title>:_12-&gt;:_13</title>
<a xlink:href="http://www.w3.org/1999/02/22-rdf-syntax-ns#_1" target="_blank" onmouseover="show_status('http://www.w3.org/1999/02/22-rdf-syntax-ns#_1');">
<path style="fill:none;stroke:#add9e6" d="M489,779C483,796 475,825 468,845"/>
<polygon style="fill:#add9e6;stroke:#add9e6" points="466,844 466,854 471,845 466,844"/>
<text text-anchor="middle" x="503" y="816" style="font-family:arial">rdf:_1</text>
</a></g>
<g id="node46" class="node"><title>:_16</title>
<ellipse cx="632" cy="872" rx="53" ry="18" style="fill:#eedb82;stroke:#eedb82"/>
<text text-anchor="middle" x="632" y="876" style="font-family:arial">tube:NextStation</text>
</g>
<g id="edge45" class="edge"><title>:_12-&gt;:_16</title>
<a xlink:href="http://www.w3.org/1999/02/22-rdf-syntax-ns#_2" target="_blank" onmouseover="show_status('http://www.w3.org/1999/02/22-rdf-syntax-ns#_2');">
<path style="fill:none;stroke:#add9e6" d="M512,775C535,795 578,828 605,850"/>
<polygon style="fill:#add9e6;stroke:#add9e6" points="602,851 611,855 605,847 602,851"/>
<text text-anchor="middle" x="589" y="816" style="font-family:arial">rdf:_2</text>
</a></g>
<g id="node49" class="node"><title>doi:1014/tube/east_putney</title>
<a xlink:href="http://dx.doi.org/1014/tube/east_putney" target="_blank" onmouseover="show_status('http://dx.doi.org/1014/tube/east_putney');">
<ellipse cx="389" cy="962" rx="79" ry="18" style="fill:#dca0dd;stroke:#dca0dd"/>
<text text-anchor="middle" x="389" y="966" style="font-family:arial">doi:1014/tube/east_putney</text>
</a></g>
<g id="edge48" class="edge"><title>:_13-&gt;doi:1014/tube/east_putney</title>
<a xlink:href="http://www2.elsevier.co.uk/~tony/1014/yads-schema-2002-04-03#resource" target="_blank" onmouseover="show_status('http://www2.elsevier.co.uk/~tony/1014/yads-schema-2002-04-03#resource');">
<path style="fill:none;stroke:#add9e6" d="M417,882C404,888 390,896 382,908 377,916 377,926 378,935"/>
<polygon style="fill:#add9e6;stroke:#add9e6" points="375,935 381,944 380,934 375,935"/>
<text text-anchor="middle" x="426" y="921" style="font-family:arial">has:resource</text>
</a></g>
<g id="node51" class="node"><title>:_14</title>
<a xlink:href="http://www.w3.org/1999/02/22-rdf-syntax-ns#Bag" target="_blank" onmouseover="show_status('http://www.w3.org/1999/02/22-rdf-syntax-ns#Bag');">
<ellipse cx="514" cy="962" rx="28" ry="18" style="fill:#d2d2d2;stroke:#d2d2d2"/>
<text text-anchor="middle" x="514" y="966" style="font-family:arial">rdf:Bag</text>
</a></g>
<g id="edge50" class="edge"><title>:_13-&gt;:_14</title>
<a xlink:href="http://www2.elsevier.co.uk/~tony/1014/yads-schema-2002-04-03#collection" target="_blank" onmouseover="show_status('http://www2.elsevier.co.uk/~tony/1014/yads-schema-2002-04-03#collection');">
<path style="fill:none;stroke:#add9e6" d="M462,890C464,901 467,915 473,926 476,932 482,938 487,943"/>
<polygon style="fill:#add9e6;stroke:#add9e6" points="485,944 494,949 488,941 485,944"/>
<text text-anchor="middle" x="514" y="921" style="font-family:arial">has:collection</text>
</a></g>
<g id="node59" class="node"><title>doi:1014/tube/parsons_green</title>
<a xlink:href="http://dx.doi.org/1014/tube/parsons_green" target="_blank" onmouseover="show_status('http://dx.doi.org/1014/tube/parsons_green');">
<ellipse cx="652" cy="962" rx="86" ry="18" style="fill:#dca0dd;stroke:#dca0dd"/>
<text text-anchor="middle" x="652" y="966" style="font-family:arial">doi:1014/tube/parsons_green</text>
</a></g>
<g id="edge58" class="edge"><title>:_16-&gt;doi:1014/tube/parsons_green</title>
<a xlink:href="http://www2.elsevier.co.uk/~tony/1014/yads-schema-2002-04-03#resource" target="_blank" onmouseover="show_status('http://www2.elsevier.co.uk/~tony/1014/yads-schema-2002-04-03#resource');">
<path style="fill:none;stroke:#add9e6" d="M636,890C639,903 643,920 646,935"/>
<polygon style="fill:#add9e6;stroke:#add9e6" points="643,935 648,944 648,934 643,935"/>
<text text-anchor="middle" x="686" y="921" style="font-family:arial">has:resource</text>
</a></g>
<g id="node61" class="node"><title>:_17</title>
<a xlink:href="http://www.w3.org/1999/02/22-rdf-syntax-ns#Bag" target="_blank" onmouseover="show_status('http://www.w3.org/1999/02/22-rdf-syntax-ns#Bag');">
<ellipse cx="784" cy="962" rx="28" ry="18" style="fill:#d2d2d2;stroke:#d2d2d2"/>
<text text-anchor="middle" x="784" y="966" style="font-family:arial">rdf:Bag</text>
</a></g>
<g id="edge60" class="edge"><title>:_16-&gt;:_17</title>
<a xlink:href="http://www2.elsevier.co.uk/~tony/1014/yads-schema-2002-04-03#collection" target="_blank" onmouseover="show_status('http://www2.elsevier.co.uk/~tony/1014/yads-schema-2002-04-03#collection');">
<path style="fill:none;stroke:#add9e6" d="M674,883C698,890 723,899 730,908 732,912 729,923 731,926 736,935 744,942 752,947"/>
<polygon style="fill:#add9e6;stroke:#add9e6" points="750,949 760,952 753,945 750,949"/>
<text text-anchor="middle" x="772" y="921" style="font-family:arial">has:collection</text>
</a></g>
<g id="node53" class="node"><title>:_15</title>
<ellipse cx="490" cy="1067" rx="33" ry="18" style="fill:#eedb82;stroke:#eedb82"/>
<text text-anchor="middle" x="490" y="1071" style="font-family:arial">tube:Mins</text>
</g>
<g id="edge52" class="edge"><title>:_14-&gt;:_15</title>
<a xlink:href="http://www.w3.org/1999/02/22-rdf-syntax-ns#_1" target="_blank" onmouseover="show_status('http://www.w3.org/1999/02/22-rdf-syntax-ns#_1');">
<path style="fill:none;stroke:#add9e6" d="M510,980C507,996 501,1021 496,1040"/>
<polygon style="fill:#add9e6;stroke:#add9e6" points="494,1039 494,1049 499,1040 494,1039"/>
<text text-anchor="middle" x="527" y="1011" style="font-family:arial">rdf:_1</text>
</a></g>
<g id="node56" class="node"><title>data:,2</title>
<a xlink:href="" onclick="show_data('2');" onmouseover="show_status('data:,2');">
<ellipse cx="480" cy="1157" rx="27" ry="18" style="fill:#dca0dd;stroke:#dca0dd"/>
<text text-anchor="middle" x="480" y="1161" style="font-family:arial">data:,2</text>
</a></g>
<g id="edge55" class="edge"><title>:_15-&gt;data:,2</title>
<a xlink:href="http://www2.elsevier.co.uk/~tony/1014/yads-schema-2002-04-03#resource" target="_blank" onmouseover="show_status('http://www2.elsevier.co.uk/~tony/1014/yads-schema-2002-04-03#resource');">
<path style="fill:none;stroke:#add9e6" d="M488,1085C486,1098 485,1115 483,1130"/>
<polygon style="fill:#add9e6;stroke:#add9e6" points="481,1129 482,1139 486,1129 481,1129"/>
<text text-anchor="middle" x="528" y="1116" style="font-family:arial">has:resource</text>
</a></g>
<g id="node63" class="node"><title>:_18</title>
<ellipse cx="760" cy="1067" rx="33" ry="18" style="fill:#eedb82;stroke:#eedb82"/>
<text text-anchor="middle" x="760" y="1071" style="font-family:arial">tube:Mins</text>
</g>
<g id="edge62" class="edge"><title>:_17-&gt;:_18</title>
<a xlink:href="http://www.w3.org/1999/02/22-rdf-syntax-ns#_1" target="_blank" onmouseover="show_status('http://www.w3.org/1999/02/22-rdf-syntax-ns#_1');">
<path style="fill:none;stroke:#add9e6" d="M778,980C776,985 774,992 772,998 769,1012 766,1027 763,1040"/>
<polygon style="fill:#add9e6;stroke:#add9e6" points="761,1039 762,1049 766,1039 761,1039"/>
<text text-anchor="middle" x="792" y="1011" style="font-family:arial">rdf:_1</text>
</a></g>
<g id="node66" class="node"><title>data:,3</title>
<a xlink:href="" onclick="show_data('3');" onmouseover="show_status('data:,3');">
<ellipse cx="750" cy="1157" rx="27" ry="18" style="fill:#dca0dd;stroke:#dca0dd"/>
<text text-anchor="middle" x="750" y="1161" style="font-family:arial">data:,3</text>
</a></g>
<g id="edge65" class="edge"><title>:_18-&gt;data:,3</title>
<a xlink:href="http://www2.elsevier.co.uk/~tony/1014/yads-schema-2002-04-03#resource" target="_blank" onmouseover="show_status('http://www2.elsevier.co.uk/~tony/1014/yads-schema-2002-04-03#resource');">
<path style="fill:none;stroke:#add9e6" d="M743,1083C738,1089 733,1096 731,1103 727,1113 730,1123 734,1132"/>
<polygon style="fill:#add9e6;stroke:#add9e6" points="731,1132 738,1140 736,1130 731,1132"/>
<text text-anchor="middle" x="772" y="1116" style="font-family:arial">has:resource</text>
</a></g>
</g>
</svg>
