<?xml version="1.0" encoding="UTF-8" standalone="no"?>
<!DOCTYPE svg PUBLIC "-//W3C//DTD SVG 1.0//EN"
 "http://www.w3.org/TR/2001/REC-SVG-20010904/DTD/svg10.dtd" [
 <!ATTLIST svg xmlns:xlink CDATA #FIXED "http://www.w3.org/1999/xlink">
]>
<!-- Generated by dot version 1.8.5 (Tue Apr 23 17:19:23  2002)
     For user: (Administrator) ,S-1-5-21-1454471165-688789844-1708537768-500   Title: yads    Pages: 1 -->
<svg width="861px" height="1272px"
 xmlns="http://www.w3.org/2000/svg" xmlns:xlink="http://www.w3.org/1999/xlink">
<g id="graph0" class="graph" style="font-family:Times-Roman;font-size:11.00">
<title>yads</title>
<text text-anchor="middle" x="430" y="1261" style="font-family:arial;font-size:24.00">YADS - A Description Service</text>
<g id="graph2" class="cluster"><title>cluster_1</title>
<polygon style="fill:none;stroke:#d2d2d2;stroke-dasharray:5,2" points="19,1229 842,1229 842,43 19,43 19,1229"/>
<text text-anchor="middle" x="102" y="55" style="font-family:arial">Nest - Regent's Park Station</text>
</g>
<g id="graph3" class="cluster"><title>cluster_3</title>
<polygon style="fill:none;stroke:#d2d2d2;stroke-dasharray:5,2" points="27,1221 834,1221 834,238 27,238 27,1221"/>
<text text-anchor="middle" x="99" y="250" style="font-family:arial">Nest - Application Profile</text>
</g>
<g id="graph4" class="cluster"><title>cluster_5</title>
<polygon style="fill:none;stroke:#d2d2d2;stroke-dasharray:5,2" points="35,795 274,795 274,433 35,433 35,795"/>
<text text-anchor="middle" x="80" y="445" style="font-family:arial">Item - Location</text>
</g>
<g id="graph5" class="cluster"><title>cluster_7</title>
<polygon style="fill:none;stroke:#d2d2d2;stroke-dasharray:5,2" points="43,787 161,787 161,628 43,628 43,787"/>
<text text-anchor="middle" x="59" y="640" style="font-family:arial">Item</text>
</g>
<g id="graph6" class="cluster"><title>cluster_8</title>
<polygon style="fill:none;stroke:#d2d2d2;stroke-dasharray:5,2" points="169,787 266,787 266,628 169,628 169,787"/>
<text text-anchor="middle" x="185" y="640" style="font-family:arial">Item</text>
</g>
<g id="graph7" class="cluster"><title>cluster_9</title>
<polygon style="fill:none;stroke:#d2d2d2;stroke-dasharray:5,2" points="282,1213 826,1213 826,433 282,433 282,1213"/>
<text text-anchor="middle" x="351" y="445" style="font-family:arial">Item - Line Interchanges</text>
</g>
<g id="graph8" class="cluster"><title>cluster_11</title>
<polygon style="fill:none;stroke:#d2d2d2;stroke-dasharray:5,2" points="290,1205 818,1205 818,628 290,628 290,1205"/>
<text text-anchor="middle" x="358" y="640" style="font-family:arial">Nest - Line Interchange</text>
</g>
<g id="graph9" class="cluster"><title>cluster_13</title>
<polygon style="fill:none;stroke:#d2d2d2;stroke-dasharray:5,2" points="298,1197 548,1197 548,829 298,829 298,1197"/>
<text text-anchor="middle" x="366" y="841" style="font-family:arial">Nest - Next Stop Back</text>
</g>
<g id="graph10" class="cluster"><title>cluster_15</title>
<polygon style="fill:none;stroke:#d2d2d2;stroke-dasharray:5,2" points="443,1189 540,1189 540,1024 443,1024 443,1189"/>
<text text-anchor="middle" x="459" y="1036" style="font-family:arial">Item</text>
</g>
<g id="graph11" class="cluster"><title>cluster_16</title>
<polygon style="fill:none;stroke:#d2d2d2;stroke-dasharray:5,2" points="556,1101 810,1101 810,829 556,829 556,1101"/>
<text text-anchor="middle" x="608" y="841" style="font-family:arial">Nest - Next Stop</text>
</g>
<g id="graph12" class="cluster"><title>cluster_18</title>
<polygon style="fill:none;stroke:#d2d2d2;stroke-dasharray:5,2" points="603,1093 685,1093 685,1024 603,1024 603,1093"/>
<text text-anchor="middle" x="619" y="1036" style="font-family:arial">Item</text>
</g>
<g id="node2" class="node"><title>:_1</title>
<ellipse cx="253" cy="86" rx="40" ry="18" style="fill:#eedb82;stroke:#eedb82"/>
<text text-anchor="middle" x="253" y="90" style="font-family:arial">tube:Station</text>
</g>
<g id="node4" class="node"><title>doi:1014/tube/regent's_park</title>
<a xlink:href="http://dx.doi.org/1014/tube/regent's_park" target="_blank" onmouseover="show_status('http://dx.doi.org/1014/tube/regent's_park');">
<ellipse cx="109" cy="176" rx="82" ry="18" style="fill:#dca0dd;stroke:#dca0dd"/>
<text text-anchor="middle" x="109" y="180" style="font-family:arial">doi:1014/tube/regent's_park</text>
</a></g>
<g id="edge3" class="edge"><title>:_1-&gt;doi:1014/tube/regent's_park</title>
<a xlink:href="http://www2.elsevier.co.uk/~tony/1014/yads-schema-2002-04-03#resource" target="_blank" onmouseover="show_status('http://www2.elsevier.co.uk/~tony/1014/yads-schema-2002-04-03#resource');">
<path style="fill:none;stroke:#add9e6" d="M221,97C204,103 185,112 168,122 156,131 143,142 132,152"/>
<polygon style="fill:#add9e6;stroke:#add9e6" points="131,149 126,158 135,153 131,149"/>
<text text-anchor="middle" x="215" y="135" style="font-family:arial">has:resource</text>
</a></g>
<g id="node6" class="node"><title>node_1</title>
<polygon style="fill:#6497ed;stroke:#6497ed" points="297,158 209,158 209,194 297,194 297,158"/>
<text text-anchor="middle" x="253" y="180" style="font-family:arial">Regent's Park</text>
</g>
<g id="edge5" class="edge"><title>:_1-&gt;node_1</title>
<a xlink:href="http://www2.elsevier.co.uk/~tony/1014/yads-schema-2002-04-03#label" target="_blank" onmouseover="show_status('http://www2.elsevier.co.uk/~tony/1014/yads-schema-2002-04-03#label');">
<path style="fill:none;stroke:#add9e6" d="M253,104C253,117 253,134 253,149"/>
<polygon style="fill:#add9e6;stroke:#add9e6" points="251,148 253,158 256,148 251,148"/>
<text text-anchor="middle" x="280" y="135" style="font-family:arial">has:label</text>
</a></g>
<g id="node8" class="node"><title>:_2</title>
<a xlink:href="http://www.w3.org/1999/02/22-rdf-syntax-ns#Bag" target="_blank" onmouseover="show_status('http://www.w3.org/1999/02/22-rdf-syntax-ns#Bag');">
<ellipse cx="343" cy="176" rx="28" ry="18" style="fill:#d2d2d2;stroke:#d2d2d2"/>
<text text-anchor="middle" x="343" y="180" style="font-family:arial">rdf:Bag</text>
</a></g>
<g id="edge7" class="edge"><title>:_1-&gt;:_2</title>
<a xlink:href="http://www2.elsevier.co.uk/~tony/1014/yads-schema-2002-04-03#collection" target="_blank" onmouseover="show_status('http://www2.elsevier.co.uk/~tony/1014/yads-schema-2002-04-03#collection');">
<path style="fill:none;stroke:#add9e6" d="M281,99C291,105 303,113 312,122 321,131 327,141 332,151"/>
<polygon style="fill:#add9e6;stroke:#add9e6" points="329,151 336,159 334,149 329,151"/>
<text text-anchor="middle" x="367" y="135" style="font-family:arial">has:collection</text>
</a></g>
<g id="node10" class="node"><title>:_3</title>
<ellipse cx="343" cy="281" rx="34" ry="18" style="fill:#eedb82;stroke:#eedb82"/>
<text text-anchor="middle" x="343" y="285" style="font-family:arial">doi:Profile</text>
</g>
<g id="edge9" class="edge"><title>:_2-&gt;:_3</title>
<a xlink:href="http://www.w3.org/1999/02/22-rdf-syntax-ns#_1" target="_blank" onmouseover="show_status('http://www.w3.org/1999/02/22-rdf-syntax-ns#_1');">
<path style="fill:none;stroke:#add9e6" d="M343,194C343,210 343,235 343,254"/>
<polygon style="fill:#add9e6;stroke:#add9e6" points="341,253 343,263 346,253 341,253"/>
<text text-anchor="middle" x="363" y="225" style="font-family:arial">rdf:_1</text>
</a></g>
<g id="node13" class="node"><title>doi:1014/profile.tube</title>
<a xlink:href="http://dx.doi.org/1014/profile.tube" target="_blank" onmouseover="show_status('http://dx.doi.org/1014/profile.tube');">
<ellipse cx="241" cy="371" rx="59" ry="18" style="fill:#dca0dd;stroke:#dca0dd"/>
<text text-anchor="middle" x="241" y="375" style="font-family:arial">doi:1014/profile.tube</text>
</a></g>
<g id="edge12" class="edge"><title>:_3-&gt;doi:1014/profile.tube</title>
<a xlink:href="http://www2.elsevier.co.uk/~tony/1014/yads-schema-2002-04-03#resource" target="_blank" onmouseover="show_status('http://www2.elsevier.co.uk/~tony/1014/yads-schema-2002-04-03#resource');">
<path style="fill:none;stroke:#add9e6" d="M312,288C294,294 274,303 260,317 253,325 249,334 246,344"/>
<polygon style="fill:#add9e6;stroke:#add9e6" points="244,343 244,353 249,344 244,343"/>
<text text-anchor="middle" x="304" y="330" style="font-family:arial">has:resource</text>
</a></g>
<g id="node15" class="node"><title>:_4</title>
<a xlink:href="http://www.w3.org/1999/02/22-rdf-syntax-ns#Bag" target="_blank" onmouseover="show_status('http://www.w3.org/1999/02/22-rdf-syntax-ns#Bag');">
<ellipse cx="346" cy="371" rx="28" ry="18" style="fill:#d2d2d2;stroke:#d2d2d2"/>
<text text-anchor="middle" x="346" y="375" style="font-family:arial">rdf:Bag</text>
</a></g>
<g id="edge14" class="edge"><title>:_3-&gt;:_4</title>
<a xlink:href="http://www2.elsevier.co.uk/~tony/1014/yads-schema-2002-04-03#collection" target="_blank" onmouseover="show_status('http://www2.elsevier.co.uk/~tony/1014/yads-schema-2002-04-03#collection');">
<path style="fill:none;stroke:#add9e6" d="M344,299C344,312 345,329 345,344"/>
<polygon style="fill:#add9e6;stroke:#add9e6" points="343,343 345,353 348,343 343,343"/>
<text text-anchor="middle" x="387" y="330" style="font-family:arial">has:collection</text>
</a></g>
<g id="node17" class="node"><title>:_5</title>
<a xlink:href="http://www2.elsevier.co.uk/~tony/1014/yads-schema-2002-04-03#Item" target="_blank" onmouseover="show_status('http://www2.elsevier.co.uk/~tony/1014/yads-schema-2002-04-03#Item');">
<ellipse cx="212" cy="476" rx="28" ry="18" style="fill:#d2d2d2;stroke:#d2d2d2"/>
<text text-anchor="middle" x="212" y="480" style="font-family:arial">isa:Item</text>
</a></g>
<g id="edge16" class="edge"><title>:_4-&gt;:_5</title>
<a xlink:href="http://www.w3.org/1999/02/22-rdf-syntax-ns#_1" target="_blank" onmouseover="show_status('http://www.w3.org/1999/02/22-rdf-syntax-ns#_1');">
<path style="fill:none;stroke:#add9e6" d="M328,385C305,404 262,437 235,458"/>
<polygon style="fill:#add9e6;stroke:#add9e6" points="236,454 230,462 239,458 236,454"/>
<text text-anchor="middle" x="323" y="420" style="font-family:arial">rdf:_1</text>
</a></g>
<g id="node19" class="node"><title>:_9</title>
<a xlink:href="http://www2.elsevier.co.uk/~tony/1014/yads-schema-2002-04-03#Item" target="_blank" onmouseover="show_status('http://www2.elsevier.co.uk/~tony/1014/yads-schema-2002-04-03#Item');">
<ellipse cx="347" cy="476" rx="28" ry="18" style="fill:#d2d2d2;stroke:#d2d2d2"/>
<text text-anchor="middle" x="347" y="480" style="font-family:arial">isa:Item</text>
</a></g>
<g id="edge18" class="edge"><title>:_4-&gt;:_9</title>
<a xlink:href="http://www.w3.org/1999/02/22-rdf-syntax-ns#_2" target="_blank" onmouseover="show_status('http://www.w3.org/1999/02/22-rdf-syntax-ns#_2');">
<path style="fill:none;stroke:#add9e6" d="M346,389C346,405 346,430 347,449"/>
<polygon style="fill:#add9e6;stroke:#add9e6" points="345,448 347,458 350,448 345,448"/>
<text text-anchor="middle" x="368" y="420" style="font-family:arial">rdf:_2</text>
</a></g>
<g id="node22" class="node"><title>:_6</title>
<a xlink:href="http://www.w3.org/1999/02/22-rdf-syntax-ns#Bag" target="_blank" onmouseover="show_status('http://www.w3.org/1999/02/22-rdf-syntax-ns#Bag');">
<ellipse cx="185" cy="566" rx="28" ry="18" style="fill:#d2d2d2;stroke:#d2d2d2"/>
<text text-anchor="middle" x="185" y="570" style="font-family:arial">rdf:Bag</text>
</a></g>
<g id="edge21" class="edge"><title>:_5-&gt;:_6</title>
<a xlink:href="http://www2.elsevier.co.uk/~tony/1014/yads-schema-2002-04-03#collection" target="_blank" onmouseover="show_status('http://www2.elsevier.co.uk/~tony/1014/yads-schema-2002-04-03#collection');">
<path style="fill:none;stroke:#add9e6" d="M204,494C202,499 199,506 197,512 194,521 192,530 190,539"/>
<polygon style="fill:#add9e6;stroke:#add9e6" points="188,538 188,548 193,539 188,538"/>
<text text-anchor="middle" x="241" y="525" style="font-family:arial">has:collection</text>
</a></g>
<g id="node35" class="node"><title>:_10</title>
<a xlink:href="http://www.w3.org/1999/02/22-rdf-syntax-ns#Bag" target="_blank" onmouseover="show_status('http://www.w3.org/1999/02/22-rdf-syntax-ns#Bag');">
<ellipse cx="373" cy="566" rx="28" ry="18" style="fill:#d2d2d2;stroke:#d2d2d2"/>
<text text-anchor="middle" x="373" y="570" style="font-family:arial">rdf:Bag</text>
</a></g>
<g id="edge34" class="edge"><title>:_9-&gt;:_10</title>
<a xlink:href="http://www2.elsevier.co.uk/~tony/1014/yads-schema-2002-04-03#collection" target="_blank" onmouseover="show_status('http://www2.elsevier.co.uk/~tony/1014/yads-schema-2002-04-03#collection');">
<path style="fill:none;stroke:#add9e6" d="M352,494C356,507 361,525 365,539"/>
<polygon style="fill:#add9e6;stroke:#add9e6" points="362,539 368,548 367,538 362,539"/>
<text text-anchor="middle" x="405" y="525" style="font-family:arial">has:collection</text>
</a></g>
<g id="node24" class="node"><title>:_7</title>
<ellipse cx="102" cy="671" rx="35" ry="18" style="fill:#eedb82;stroke:#eedb82"/>
<text text-anchor="middle" x="102" y="675" style="font-family:arial">tube:Zone</text>
</g>
<g id="edge23" class="edge"><title>:_6-&gt;:_7</title>
<a xlink:href="http://www.w3.org/1999/02/22-rdf-syntax-ns#_1" target="_blank" onmouseover="show_status('http://www.w3.org/1999/02/22-rdf-syntax-ns#_1');">
<path style="fill:none;stroke:#add9e6" d="M169,581C163,588 156,595 150,602 139,616 127,633 118,647"/>
<polygon style="fill:#add9e6;stroke:#add9e6" points="117,644 113,654 121,647 117,644"/>
<text text-anchor="middle" x="173" y="615" style="font-family:arial">rdf:_1</text>
</a></g>
<g id="node26" class="node"><title>:_8</title>
<ellipse cx="209" cy="671" rx="32" ry="18" style="fill:#eedb82;stroke:#eedb82"/>
<text text-anchor="middle" x="209" y="675" style="font-family:arial">tube:Grid</text>
</g>
<g id="edge25" class="edge"><title>:_6-&gt;:_8</title>
<a xlink:href="http://www.w3.org/1999/02/22-rdf-syntax-ns#_2" target="_blank" onmouseover="show_status('http://www.w3.org/1999/02/22-rdf-syntax-ns#_2');">
<path style="fill:none;stroke:#add9e6" d="M189,584C192,600 198,625 203,644"/>
<polygon style="fill:#add9e6;stroke:#add9e6" points="200,644 205,653 205,643 200,644"/>
<text text-anchor="middle" x="218" y="615" style="font-family:arial">rdf:_2</text>
</a></g>
<g id="node29" class="node"><title>data:,Zone%201</title>
<a xlink:href="" onclick="show_data('Zone%201');" onmouseover="show_status('data:,Zone%201');">
<ellipse cx="102" cy="761" rx="51" ry="18" style="fill:#dca0dd;stroke:#dca0dd"/>
<text text-anchor="middle" x="102" y="765" style="font-family:arial">data:,Zone%201</text>
</a></g>
<g id="edge28" class="edge"><title>:_7-&gt;data:,Zone%201</title>
<a xlink:href="http://www2.elsevier.co.uk/~tony/1014/yads-schema-2002-04-03#resource" target="_blank" onmouseover="show_status('http://www2.elsevier.co.uk/~tony/1014/yads-schema-2002-04-03#resource');">
<path style="fill:none;stroke:#add9e6" d="M92,689C89,694 86,701 84,707 83,715 83,718 84,725 85,728 86,731 87,734"/>
<polygon style="fill:#add9e6;stroke:#add9e6" points="85,735 91,743 89,733 85,735"/>
<text text-anchor="middle" x="128" y="720" style="font-family:arial">has:resource</text>
</a></g>
<g id="node32" class="node"><title>data:,C4</title>
<a xlink:href="" onclick="show_data('C4');" onmouseover="show_status('data:,C4');">
<ellipse cx="207" cy="761" rx="30" ry="18" style="fill:#dca0dd;stroke:#dca0dd"/>
<text text-anchor="middle" x="207" y="765" style="font-family:arial">data:,C4</text>
</a></g>
<g id="edge31" class="edge"><title>:_8-&gt;data:,C4</title>
<a xlink:href="http://www2.elsevier.co.uk/~tony/1014/yads-schema-2002-04-03#resource" target="_blank" onmouseover="show_status('http://www2.elsevier.co.uk/~tony/1014/yads-schema-2002-04-03#resource');">
<path style="fill:none;stroke:#add9e6" d="M207,689C206,695 205,701 205,707 204,716 205,725 205,733"/>
<polygon style="fill:#add9e6;stroke:#add9e6" points="203,733 206,743 207,733 203,733"/>
<text text-anchor="middle" x="249" y="720" style="font-family:arial">has:resource</text>
</a></g>
<g id="node37" class="node"><title>:_11</title>
<ellipse cx="378" cy="671" rx="53" ry="18" style="fill:#eedb82;stroke:#eedb82"/>
<text text-anchor="middle" x="378" y="675" style="font-family:arial">tube:LineChange</text>
</g>
<g id="edge36" class="edge"><title>:_10-&gt;:_11</title>
<a xlink:href="http://www.w3.org/1999/02/22-rdf-syntax-ns#_1" target="_blank" onmouseover="show_status('http://www.w3.org/1999/02/22-rdf-syntax-ns#_1');">
<path style="fill:none;stroke:#add9e6" d="M374,584C375,600 376,625 377,644"/>
<polygon style="fill:#add9e6;stroke:#add9e6" points="375,643 377,653 380,643 375,643"/>
<text text-anchor="middle" x="396" y="615" style="font-family:arial">rdf:_1</text>
</a></g>
<g id="node40" class="node"><title>doi:1014/tube/bakerloo_line</title>
<a xlink:href="http://dx.doi.org/1014/tube/bakerloo_line" target="_blank" onmouseover="show_status('http://dx.doi.org/1014/tube/bakerloo_line');">
<ellipse cx="378" cy="761" rx="80" ry="18" style="fill:#dca0dd;stroke:#dca0dd"/>
<text text-anchor="middle" x="378" y="765" style="font-family:arial">doi:1014/tube/bakerloo_line</text>
</a></g>
<g id="edge39" class="edge"><title>:_11-&gt;doi:1014/tube/bakerloo_line</title>
<a xlink:href="http://www2.elsevier.co.uk/~tony/1014/yads-schema-2002-04-03#resource" target="_blank" onmouseover="show_status('http://www2.elsevier.co.uk/~tony/1014/yads-schema-2002-04-03#resource');">
<path style="fill:none;stroke:#add9e6" d="M378,689C378,702 378,719 378,734"/>
<polygon style="fill:#add9e6;stroke:#add9e6" points="376,733 378,743 381,733 376,733"/>
<text text-anchor="middle" x="419" y="720" style="font-family:arial">has:resource</text>
</a></g>
<g id="node42" class="node"><title>:_12</title>
<a xlink:href="http://www.w3.org/1999/02/22-rdf-syntax-ns#Bag" target="_blank" onmouseover="show_status('http://www.w3.org/1999/02/22-rdf-syntax-ns#Bag');">
<ellipse cx="504" cy="761" rx="28" ry="18" style="fill:#d2d2d2;stroke:#d2d2d2"/>
<text text-anchor="middle" x="504" y="765" style="font-family:arial">rdf:Bag</text>
</a></g>
<g id="edge41" class="edge"><title>:_11-&gt;:_12</title>
<a xlink:href="http://www2.elsevier.co.uk/~tony/1014/yads-schema-2002-04-03#collection" target="_blank" onmouseover="show_status('http://www2.elsevier.co.uk/~tony/1014/yads-schema-2002-04-03#collection');">
<path style="fill:none;stroke:#add9e6" d="M418,683C433,689 450,697 463,707 473,715 482,726 489,736"/>
<polygon style="fill:#add9e6;stroke:#add9e6" points="487,737 494,744 491,734 487,737"/>
<text text-anchor="middle" x="523" y="720" style="font-family:arial">has:collection</text>
</a></g>
<g id="node44" class="node"><title>:_13</title>
<ellipse cx="459" cy="872" rx="53" ry="18" style="fill:#eedb82;stroke:#eedb82"/>
<text text-anchor="middle" x="459" y="876" style="font-family:arial">tube:PrevStation</text>
</g>
<g id="edge43" class="edge"><title>:_12-&gt;:_13</title>
<a xlink:href="http://www.w3.org/1999/02/22-rdf-syntax-ns#_1" target="_blank" onmouseover="show_status('http://www.w3.org/1999/02/22-rdf-syntax-ns#_1');">
<path style="fill:none;stroke:#add9e6" d="M497,779C489,797 478,825 469,846"/>
<polygon style="fill:#add9e6;stroke:#add9e6" points="467,844 466,854 472,846 467,844"/>
<text text-anchor="middle" x="508" y="816" style="font-family:arial">rdf:_1</text>
</a></g>
<g id="node46" class="node"><title>:_16</title>
<ellipse cx="622" cy="872" rx="53" ry="18" style="fill:#eedb82;stroke:#eedb82"/>
<text text-anchor="middle" x="622" y="876" style="font-family:arial">tube:NextStation</text>
</g>
<g id="edge45" class="edge"><title>:_12-&gt;:_16</title>
<a xlink:href="http://www.w3.org/1999/02/22-rdf-syntax-ns#_2" target="_blank" onmouseover="show_status('http://www.w3.org/1999/02/22-rdf-syntax-ns#_2');">
<path style="fill:none;stroke:#add9e6" d="M520,776C540,794 573,826 597,848"/>
<polygon style="fill:#add9e6;stroke:#add9e6" points="595,850 604,855 599,846 595,850"/>
<text text-anchor="middle" x="589" y="816" style="font-family:arial">rdf:_2</text>
</a></g>
<g id="node49" class="node"><title>doi:1014/tube/baker_street</title>
<a xlink:href="http://dx.doi.org/1014/tube/baker_street" target="_blank" onmouseover="show_status('http://dx.doi.org/1014/tube/baker_street');">
<ellipse cx="386" cy="962" rx="80" ry="18" style="fill:#dca0dd;stroke:#dca0dd"/>
<text text-anchor="middle" x="386" y="966" style="font-family:arial">doi:1014/tube/baker_street</text>
</a></g>
<g id="edge48" class="edge"><title>:_13-&gt;doi:1014/tube/baker_street</title>
<a xlink:href="http://www2.elsevier.co.uk/~tony/1014/yads-schema-2002-04-03#resource" target="_blank" onmouseover="show_status('http://www2.elsevier.co.uk/~tony/1014/yads-schema-2002-04-03#resource');">
<path style="fill:none;stroke:#add9e6" d="M415,882C402,888 388,896 380,908 375,916 375,926 376,935"/>
<polygon style="fill:#add9e6;stroke:#add9e6" points="373,935 378,944 378,934 373,935"/>
<text text-anchor="middle" x="424" y="921" style="font-family:arial">has:resource</text>
</a></g>
<g id="node51" class="node"><title>:_14</title>
<a xlink:href="http://www.w3.org/1999/02/22-rdf-syntax-ns#Bag" target="_blank" onmouseover="show_status('http://www.w3.org/1999/02/22-rdf-syntax-ns#Bag');">
<ellipse cx="512" cy="962" rx="28" ry="18" style="fill:#d2d2d2;stroke:#d2d2d2"/>
<text text-anchor="middle" x="512" y="966" style="font-family:arial">rdf:Bag</text>
</a></g>
<g id="edge50" class="edge"><title>:_13-&gt;:_14</title>
<a xlink:href="http://www2.elsevier.co.uk/~tony/1014/yads-schema-2002-04-03#collection" target="_blank" onmouseover="show_status('http://www2.elsevier.co.uk/~tony/1014/yads-schema-2002-04-03#collection');">
<path style="fill:none;stroke:#add9e6" d="M460,890C462,901 465,915 471,926 474,932 480,938 485,943"/>
<polygon style="fill:#add9e6;stroke:#add9e6" points="483,944 492,949 486,941 483,944"/>
<text text-anchor="middle" x="512" y="921" style="font-family:arial">has:collection</text>
</a></g>
<g id="node59" class="node"><title>doi:1014/tube/oxford_circus</title>
<a xlink:href="http://dx.doi.org/1014/tube/oxford_circus" target="_blank" onmouseover="show_status('http://dx.doi.org/1014/tube/oxford_circus');">
<ellipse cx="646" cy="962" rx="82" ry="18" style="fill:#dca0dd;stroke:#dca0dd"/>
<text text-anchor="middle" x="646" y="966" style="font-family:arial">doi:1014/tube/oxford_circus</text>
</a></g>
<g id="edge58" class="edge"><title>:_16-&gt;doi:1014/tube/oxford_circus</title>
<a xlink:href="http://www2.elsevier.co.uk/~tony/1014/yads-schema-2002-04-03#resource" target="_blank" onmouseover="show_status('http://www2.elsevier.co.uk/~tony/1014/yads-schema-2002-04-03#resource');">
<path style="fill:none;stroke:#add9e6" d="M627,890C629,901 633,914 636,926 637,929 638,932 639,934"/>
<polygon style="fill:#add9e6;stroke:#add9e6" points="637,935 641,944 641,934 637,935"/>
<text text-anchor="middle" x="677" y="921" style="font-family:arial">has:resource</text>
</a></g>
<g id="node61" class="node"><title>:_17</title>
<a xlink:href="http://www.w3.org/1999/02/22-rdf-syntax-ns#Bag" target="_blank" onmouseover="show_status('http://www.w3.org/1999/02/22-rdf-syntax-ns#Bag');">
<ellipse cx="774" cy="962" rx="28" ry="18" style="fill:#d2d2d2;stroke:#d2d2d2"/>
<text text-anchor="middle" x="774" y="966" style="font-family:arial">rdf:Bag</text>
</a></g>
<g id="edge60" class="edge"><title>:_16-&gt;:_17</title>
<a xlink:href="http://www2.elsevier.co.uk/~tony/1014/yads-schema-2002-04-03#collection" target="_blank" onmouseover="show_status('http://www2.elsevier.co.uk/~tony/1014/yads-schema-2002-04-03#collection');">
<path style="fill:none;stroke:#add9e6" d="M662,884C679,890 698,898 713,908 721,915 721,919 729,926 735,932 741,937 748,942"/>
<polygon style="fill:#add9e6;stroke:#add9e6" points="746,943 755,948 749,940 746,943"/>
<text text-anchor="middle" x="770" y="921" style="font-family:arial">has:collection</text>
</a></g>
<g id="node53" class="node"><title>:_15</title>
<ellipse cx="488" cy="1067" rx="33" ry="18" style="fill:#eedb82;stroke:#eedb82"/>
<text text-anchor="middle" x="488" y="1071" style="font-family:arial">tube:Mins</text>
</g>
<g id="edge52" class="edge"><title>:_14-&gt;:_15</title>
<a xlink:href="http://www.w3.org/1999/02/22-rdf-syntax-ns#_1" target="_blank" onmouseover="show_status('http://www.w3.org/1999/02/22-rdf-syntax-ns#_1');">
<path style="fill:none;stroke:#add9e6" d="M508,980C505,996 499,1021 494,1040"/>
<polygon style="fill:#add9e6;stroke:#add9e6" points="492,1039 492,1049 497,1040 492,1039"/>
<text text-anchor="middle" x="525" y="1011" style="font-family:arial">rdf:_1</text>
</a></g>
<g id="node56" class="node"><title>data:,2</title>
<a xlink:href="" onclick="show_data('2');" onmouseover="show_status('data:,2');">
<ellipse cx="491" cy="1163" rx="27" ry="18" style="fill:#dca0dd;stroke:#dca0dd"/>
<text text-anchor="middle" x="491" y="1167" style="font-family:arial">data:,2</text>
</a></g>
<g id="edge55" class="edge"><title>:_15-&gt;data:,2</title>
<a xlink:href="http://www2.elsevier.co.uk/~tony/1014/yads-schema-2002-04-03#resource" target="_blank" onmouseover="show_status('http://www2.elsevier.co.uk/~tony/1014/yads-schema-2002-04-03#resource');">
<path style="fill:none;stroke:#add9e6" d="M489,1085C489,1099 490,1120 490,1136"/>
<polygon style="fill:#add9e6;stroke:#add9e6" points="488,1135 490,1145 493,1135 488,1135"/>
<text text-anchor="middle" x="532" y="1122" style="font-family:arial">has:resource</text>
</a></g>
<g id="node63" class="node"><title>:_18</title>
<ellipse cx="644" cy="1067" rx="33" ry="18" style="fill:#eedb82;stroke:#eedb82"/>
<text text-anchor="middle" x="644" y="1071" style="font-family:arial">tube:Mins</text>
</g>
<g id="edge62" class="edge"><title>:_17-&gt;:_18</title>
<a xlink:href="http://www.w3.org/1999/02/22-rdf-syntax-ns#_1" target="_blank" onmouseover="show_status('http://www.w3.org/1999/02/22-rdf-syntax-ns#_1');">
<path style="fill:none;stroke:#add9e6" d="M756,976C734,994 697,1025 671,1046"/>
<polygon style="fill:#add9e6;stroke:#add9e6" points="670,1044 663,1052 672,1048 670,1044"/>
<text text-anchor="middle" x="747" y="1011" style="font-family:arial">rdf:_1</text>
</a></g>
<g id="edge65" class="edge"><title>:_18-&gt;data:,2</title>
<a xlink:href="http://www2.elsevier.co.uk/~tony/1014/yads-schema-2002-04-03#resource" target="_blank" onmouseover="show_status('http://www2.elsevier.co.uk/~tony/1014/yads-schema-2002-04-03#resource');">
<path style="fill:none;stroke:#add9e6" d="M629,1083C616,1096 596,1115 576,1127 560,1137 540,1146 523,1152"/>
<polygon style="fill:#add9e6;stroke:#add9e6" points="523,1149 515,1155 525,1154 523,1149"/>
<text text-anchor="middle" x="646" y="1122" style="font-family:arial">has:resource</text>
</a></g>
</g>
</svg>
