<?xml version="1.0" encoding="UTF-8" standalone="no"?>
<!DOCTYPE svg PUBLIC "-//W3C//DTD SVG 1.0//EN"
 "http://www.w3.org/TR/2001/REC-SVG-20010904/DTD/svg10.dtd" [
 <!ATTLIST svg xmlns:xlink CDATA #FIXED "http://www.w3.org/1999/xlink">
]>
<!-- Generated by dot version 1.8.5 (Tue Apr 23 17:19:23  2002)
     For user: (Administrator) ,S-1-5-21-1454471165-688789844-1708537768-500   Title: yads    Pages: 1 -->
<svg width="1299px" height="1280px"
 xmlns="http://www.w3.org/2000/svg" xmlns:xlink="http://www.w3.org/1999/xlink">
<g id="graph0" class="graph" style="font-family:Times-Roman;font-size:11.00">
<title>yads</title>
<text text-anchor="middle" x="649" y="1269" style="font-family:arial;font-size:24.00">YADS - A Description Service</text>
<g id="graph2" class="cluster"><title>cluster_1</title>
<polygon style="fill:none;stroke:#d2d2d2;stroke-dasharray:5,2" points="19,1237 1280,1237 1280,43 19,43 19,1237"/>
<text text-anchor="middle" x="80" y="55" style="font-family:arial">Nest - Ruislip Station</text>
</g>
<g id="graph3" class="cluster"><title>cluster_3</title>
<polygon style="fill:none;stroke:#d2d2d2;stroke-dasharray:5,2" points="27,1229 1272,1229 1272,238 27,238 27,1229"/>
<text text-anchor="middle" x="99" y="250" style="font-family:arial">Nest - Application Profile</text>
</g>
<g id="graph4" class="cluster"><title>cluster_5</title>
<polygon style="fill:none;stroke:#d2d2d2;stroke-dasharray:5,2" points="35,795 278,795 278,433 35,433 35,795"/>
<text text-anchor="middle" x="80" y="445" style="font-family:arial">Item - Location</text>
</g>
<g id="graph5" class="cluster"><title>cluster_7</title>
<polygon style="fill:none;stroke:#d2d2d2;stroke-dasharray:5,2" points="43,787 165,787 165,628 43,628 43,787"/>
<text text-anchor="middle" x="59" y="640" style="font-family:arial">Item</text>
</g>
<g id="graph6" class="cluster"><title>cluster_8</title>
<polygon style="fill:none;stroke:#d2d2d2;stroke-dasharray:5,2" points="173,787 270,787 270,628 173,628 173,787"/>
<text text-anchor="middle" x="189" y="640" style="font-family:arial">Item</text>
</g>
<g id="graph7" class="cluster"><title>cluster_9</title>
<polygon style="fill:none;stroke:#d2d2d2;stroke-dasharray:5,2" points="286,1221 1264,1221 1264,433 286,433 286,1221"/>
<text text-anchor="middle" x="355" y="445" style="font-family:arial">Item - Line Interchanges</text>
</g>
<g id="graph8" class="cluster"><title>cluster_11</title>
<polygon style="fill:none;stroke:#d2d2d2;stroke-dasharray:5,2" points="756,1213 1256,1213 1256,628 756,628 756,1213"/>
<text text-anchor="middle" x="824" y="640" style="font-family:arial">Nest - Line Interchange</text>
</g>
<g id="graph9" class="cluster"><title>cluster_13</title>
<polygon style="fill:none;stroke:#d2d2d2;stroke-dasharray:5,2" points="764,1205 992,1205 992,829 764,829 764,1205"/>
<text text-anchor="middle" x="832" y="841" style="font-family:arial">Nest - Next Stop Back</text>
</g>
<g id="graph10" class="cluster"><title>cluster_15</title>
<polygon style="fill:none;stroke:#d2d2d2;stroke-dasharray:5,2" points="805,1197 902,1197 902,1024 805,1024 805,1197"/>
<text text-anchor="middle" x="821" y="1036" style="font-family:arial">Item</text>
</g>
<g id="graph11" class="cluster"><title>cluster_16</title>
<polygon style="fill:none;stroke:#d2d2d2;stroke-dasharray:5,2" points="1000,1205 1248,1205 1248,829 1000,829 1000,1205"/>
<text text-anchor="middle" x="1052" y="841" style="font-family:arial">Nest - Next Stop</text>
</g>
<g id="graph12" class="cluster"><title>cluster_18</title>
<polygon style="fill:none;stroke:#d2d2d2;stroke-dasharray:5,2" points="1046,1197 1143,1197 1143,1024 1046,1024 1046,1197"/>
<text text-anchor="middle" x="1062" y="1036" style="font-family:arial">Item</text>
</g>
<g id="graph13" class="cluster"><title>cluster_19</title>
<polygon style="fill:none;stroke:#d2d2d2;stroke-dasharray:5,2" points="294,1109 748,1109 748,628 294,628 294,1109"/>
<text text-anchor="middle" x="362" y="640" style="font-family:arial">Nest - Line Interchange</text>
</g>
<g id="graph14" class="cluster"><title>cluster_21</title>
<polygon style="fill:none;stroke:#d2d2d2;stroke-dasharray:5,2" points="475,1101 597,1101 597,829 475,829 475,1101"/>
<text text-anchor="middle" x="543" y="841" style="font-family:arial">Nest - Next Stop Back</text>
</g>
<g id="graph15" class="cluster"><title>cluster_23</title>
<polygon style="fill:none;stroke:#d2d2d2;stroke-dasharray:5,2" points="495,1093 577,1093 577,1024 495,1024 495,1093"/>
<text text-anchor="middle" x="511" y="1036" style="font-family:arial">Item</text>
</g>
<g id="graph16" class="cluster"><title>cluster_24</title>
<polygon style="fill:none;stroke:#d2d2d2;stroke-dasharray:5,2" points="345,1101 467,1101 467,829 345,829 345,1101"/>
<text text-anchor="middle" x="397" y="841" style="font-family:arial">Nest - Next Stop</text>
</g>
<g id="graph17" class="cluster"><title>cluster_26</title>
<polygon style="fill:none;stroke:#d2d2d2;stroke-dasharray:5,2" points="372,1093 454,1093 454,1024 372,1024 372,1093"/>
<text text-anchor="middle" x="388" y="1036" style="font-family:arial">Item</text>
</g>
<g id="node2" class="node"><title>:_1</title>
<ellipse cx="211" cy="86" rx="40" ry="18" style="fill:#eedb82;stroke:#eedb82"/>
<text text-anchor="middle" x="211" y="90" style="font-family:arial">tube:Station</text>
</g>
<g id="node4" class="node"><title>doi:1014/tube/ruislip</title>
<a xlink:href="http://dx.doi.org/1014/tube/ruislip" target="_blank" onmouseover="show_status('http://dx.doi.org/1014/tube/ruislip');">
<ellipse cx="108" cy="176" rx="58" ry="18" style="fill:#dca0dd;stroke:#dca0dd"/>
<text text-anchor="middle" x="108" y="180" style="font-family:arial">doi:1014/tube/ruislip</text>
</a></g>
<g id="edge3" class="edge"><title>:_1-&gt;doi:1014/tube/ruislip</title>
<a xlink:href="http://www2.elsevier.co.uk/~tony/1014/yads-schema-2002-04-03#resource" target="_blank" onmouseover="show_status('http://www2.elsevier.co.uk/~tony/1014/yads-schema-2002-04-03#resource');">
<path style="fill:none;stroke:#add9e6" d="M175,94C158,99 139,108 126,122 119,130 115,139 112,149"/>
<polygon style="fill:#add9e6;stroke:#add9e6" points="110,148 110,158 115,149 110,148"/>
<text text-anchor="middle" x="170" y="135" style="font-family:arial">has:resource</text>
</a></g>
<g id="node6" class="node"><title>node_1</title>
<polygon style="fill:#6497ed;stroke:#6497ed" points="238,158 184,158 184,194 238,194 238,158"/>
<text text-anchor="middle" x="211" y="180" style="font-family:arial">Ruislip</text>
</g>
<g id="edge5" class="edge"><title>:_1-&gt;node_1</title>
<a xlink:href="http://www2.elsevier.co.uk/~tony/1014/yads-schema-2002-04-03#label" target="_blank" onmouseover="show_status('http://www2.elsevier.co.uk/~tony/1014/yads-schema-2002-04-03#label');">
<path style="fill:none;stroke:#add9e6" d="M211,104C211,117 211,134 211,149"/>
<polygon style="fill:#add9e6;stroke:#add9e6" points="209,148 211,158 214,148 209,148"/>
<text text-anchor="middle" x="238" y="135" style="font-family:arial">has:label</text>
</a></g>
<g id="node8" class="node"><title>:_2</title>
<a xlink:href="http://www.w3.org/1999/02/22-rdf-syntax-ns#Bag" target="_blank" onmouseover="show_status('http://www.w3.org/1999/02/22-rdf-syntax-ns#Bag');">
<ellipse cx="284" cy="176" rx="28" ry="18" style="fill:#d2d2d2;stroke:#d2d2d2"/>
<text text-anchor="middle" x="284" y="180" style="font-family:arial">rdf:Bag</text>
</a></g>
<g id="edge7" class="edge"><title>:_1-&gt;:_2</title>
<a xlink:href="http://www2.elsevier.co.uk/~tony/1014/yads-schema-2002-04-03#collection" target="_blank" onmouseover="show_status('http://www2.elsevier.co.uk/~tony/1014/yads-schema-2002-04-03#collection');">
<path style="fill:none;stroke:#add9e6" d="M240,98C251,104 263,112 270,122 276,129 279,140 281,149"/>
<polygon style="fill:#add9e6;stroke:#add9e6" points="278,149 283,158 283,148 278,149"/>
<text text-anchor="middle" x="320" y="135" style="font-family:arial">has:collection</text>
</a></g>
<g id="node10" class="node"><title>:_3</title>
<ellipse cx="284" cy="281" rx="34" ry="18" style="fill:#eedb82;stroke:#eedb82"/>
<text text-anchor="middle" x="284" y="285" style="font-family:arial">doi:Profile</text>
</g>
<g id="edge9" class="edge"><title>:_2-&gt;:_3</title>
<a xlink:href="http://www.w3.org/1999/02/22-rdf-syntax-ns#_1" target="_blank" onmouseover="show_status('http://www.w3.org/1999/02/22-rdf-syntax-ns#_1');">
<path style="fill:none;stroke:#add9e6" d="M284,194C284,210 284,235 284,254"/>
<polygon style="fill:#add9e6;stroke:#add9e6" points="282,253 284,263 287,253 282,253"/>
<text text-anchor="middle" x="304" y="225" style="font-family:arial">rdf:_1</text>
</a></g>
<g id="node13" class="node"><title>doi:1014/profile.tube</title>
<a xlink:href="http://dx.doi.org/1014/profile.tube" target="_blank" onmouseover="show_status('http://dx.doi.org/1014/profile.tube');">
<ellipse cx="205" cy="371" rx="59" ry="18" style="fill:#dca0dd;stroke:#dca0dd"/>
<text text-anchor="middle" x="205" y="375" style="font-family:arial">doi:1014/profile.tube</text>
</a></g>
<g id="edge12" class="edge"><title>:_3-&gt;doi:1014/profile.tube</title>
<a xlink:href="http://www2.elsevier.co.uk/~tony/1014/yads-schema-2002-04-03#resource" target="_blank" onmouseover="show_status('http://www2.elsevier.co.uk/~tony/1014/yads-schema-2002-04-03#resource');">
<path style="fill:none;stroke:#add9e6" d="M253,289C238,294 221,303 211,317 206,324 204,334 203,344"/>
<polygon style="fill:#add9e6;stroke:#add9e6" points="201,343 203,353 206,343 201,343"/>
<text text-anchor="middle" x="255" y="330" style="font-family:arial">has:resource</text>
</a></g>
<g id="node15" class="node"><title>:_4</title>
<a xlink:href="http://www.w3.org/1999/02/22-rdf-syntax-ns#Bag" target="_blank" onmouseover="show_status('http://www.w3.org/1999/02/22-rdf-syntax-ns#Bag');">
<ellipse cx="310" cy="371" rx="28" ry="18" style="fill:#d2d2d2;stroke:#d2d2d2"/>
<text text-anchor="middle" x="310" y="375" style="font-family:arial">rdf:Bag</text>
</a></g>
<g id="edge14" class="edge"><title>:_3-&gt;:_4</title>
<a xlink:href="http://www2.elsevier.co.uk/~tony/1014/yads-schema-2002-04-03#collection" target="_blank" onmouseover="show_status('http://www2.elsevier.co.uk/~tony/1014/yads-schema-2002-04-03#collection');">
<path style="fill:none;stroke:#add9e6" d="M289,299C293,312 298,330 302,344"/>
<polygon style="fill:#add9e6;stroke:#add9e6" points="299,344 305,353 304,343 299,344"/>
<text text-anchor="middle" x="342" y="330" style="font-family:arial">has:collection</text>
</a></g>
<g id="node17" class="node"><title>:_5</title>
<a xlink:href="http://www2.elsevier.co.uk/~tony/1014/yads-schema-2002-04-03#Item" target="_blank" onmouseover="show_status('http://www2.elsevier.co.uk/~tony/1014/yads-schema-2002-04-03#Item');">
<ellipse cx="226" cy="476" rx="28" ry="18" style="fill:#d2d2d2;stroke:#d2d2d2"/>
<text text-anchor="middle" x="226" y="480" style="font-family:arial">isa:Item</text>
</a></g>
<g id="edge16" class="edge"><title>:_4-&gt;:_5</title>
<a xlink:href="http://www.w3.org/1999/02/22-rdf-syntax-ns#_1" target="_blank" onmouseover="show_status('http://www.w3.org/1999/02/22-rdf-syntax-ns#_1');">
<path style="fill:none;stroke:#add9e6" d="M297,387C283,405 260,433 244,453"/>
<polygon style="fill:#add9e6;stroke:#add9e6" points="243,450 239,460 247,453 243,450"/>
<text text-anchor="middle" x="303" y="420" style="font-family:arial">rdf:_1</text>
</a></g>
<g id="node19" class="node"><title>:_9</title>
<a xlink:href="http://www2.elsevier.co.uk/~tony/1014/yads-schema-2002-04-03#Item" target="_blank" onmouseover="show_status('http://www2.elsevier.co.uk/~tony/1014/yads-schema-2002-04-03#Item');">
<ellipse cx="356" cy="476" rx="28" ry="18" style="fill:#d2d2d2;stroke:#d2d2d2"/>
<text text-anchor="middle" x="356" y="480" style="font-family:arial">isa:Item</text>
</a></g>
<g id="edge18" class="edge"><title>:_4-&gt;:_9</title>
<a xlink:href="http://www.w3.org/1999/02/22-rdf-syntax-ns#_2" target="_blank" onmouseover="show_status('http://www.w3.org/1999/02/22-rdf-syntax-ns#_2');">
<path style="fill:none;stroke:#add9e6" d="M318,388C325,405 336,431 345,451"/>
<polygon style="fill:#add9e6;stroke:#add9e6" points="342,451 348,459 347,449 342,451"/>
<text text-anchor="middle" x="355" y="420" style="font-family:arial">rdf:_2</text>
</a></g>
<g id="node22" class="node"><title>:_6</title>
<a xlink:href="http://www.w3.org/1999/02/22-rdf-syntax-ns#Bag" target="_blank" onmouseover="show_status('http://www.w3.org/1999/02/22-rdf-syntax-ns#Bag');">
<ellipse cx="189" cy="566" rx="28" ry="18" style="fill:#d2d2d2;stroke:#d2d2d2"/>
<text text-anchor="middle" x="189" y="570" style="font-family:arial">rdf:Bag</text>
</a></g>
<g id="edge21" class="edge"><title>:_5-&gt;:_6</title>
<a xlink:href="http://www2.elsevier.co.uk/~tony/1014/yads-schema-2002-04-03#collection" target="_blank" onmouseover="show_status('http://www2.elsevier.co.uk/~tony/1014/yads-schema-2002-04-03#collection');">
<path style="fill:none;stroke:#add9e6" d="M213,492C209,498 204,505 201,512 197,520 195,530 193,539"/>
<polygon style="fill:#add9e6;stroke:#add9e6" points="191,538 192,548 196,538 191,538"/>
<text text-anchor="middle" x="245" y="525" style="font-family:arial">has:collection</text>
</a></g>
<g id="node35" class="node"><title>:_10</title>
<a xlink:href="http://www.w3.org/1999/02/22-rdf-syntax-ns#Bag" target="_blank" onmouseover="show_status('http://www.w3.org/1999/02/22-rdf-syntax-ns#Bag');">
<ellipse cx="455" cy="566" rx="28" ry="18" style="fill:#d2d2d2;stroke:#d2d2d2"/>
<text text-anchor="middle" x="455" y="570" style="font-family:arial">rdf:Bag</text>
</a></g>
<g id="edge34" class="edge"><title>:_9-&gt;:_10</title>
<a xlink:href="http://www2.elsevier.co.uk/~tony/1014/yads-schema-2002-04-03#collection" target="_blank" onmouseover="show_status('http://www2.elsevier.co.uk/~tony/1014/yads-schema-2002-04-03#collection');">
<path style="fill:none;stroke:#add9e6" d="M372,491C388,505 413,528 432,545"/>
<polygon style="fill:#add9e6;stroke:#add9e6" points="430,546 439,551 433,543 430,546"/>
<text text-anchor="middle" x="457" y="525" style="font-family:arial">has:collection</text>
</a></g>
<g id="node24" class="node"><title>:_7</title>
<ellipse cx="104" cy="671" rx="35" ry="18" style="fill:#eedb82;stroke:#eedb82"/>
<text text-anchor="middle" x="104" y="675" style="font-family:arial">tube:Zone</text>
</g>
<g id="edge23" class="edge"><title>:_6-&gt;:_7</title>
<a xlink:href="http://www.w3.org/1999/02/22-rdf-syntax-ns#_1" target="_blank" onmouseover="show_status('http://www.w3.org/1999/02/22-rdf-syntax-ns#_1');">
<path style="fill:none;stroke:#add9e6" d="M173,581C167,588 160,595 154,602 142,616 130,633 121,647"/>
<polygon style="fill:#add9e6;stroke:#add9e6" points="120,644 116,654 124,647 120,644"/>
<text text-anchor="middle" x="177" y="615" style="font-family:arial">rdf:_1</text>
</a></g>
<g id="node26" class="node"><title>:_8</title>
<ellipse cx="213" cy="671" rx="32" ry="18" style="fill:#eedb82;stroke:#eedb82"/>
<text text-anchor="middle" x="213" y="675" style="font-family:arial">tube:Grid</text>
</g>
<g id="edge25" class="edge"><title>:_6-&gt;:_8</title>
<a xlink:href="http://www.w3.org/1999/02/22-rdf-syntax-ns#_2" target="_blank" onmouseover="show_status('http://www.w3.org/1999/02/22-rdf-syntax-ns#_2');">
<path style="fill:none;stroke:#add9e6" d="M193,584C196,600 202,625 207,644"/>
<polygon style="fill:#add9e6;stroke:#add9e6" points="204,644 209,653 209,643 204,644"/>
<text text-anchor="middle" x="222" y="615" style="font-family:arial">rdf:_2</text>
</a></g>
<g id="node29" class="node"><title>data:,Zone%206</title>
<a xlink:href="" onclick="show_data('Zone%206');" onmouseover="show_status('data:,Zone%206');">
<ellipse cx="104" cy="761" rx="53" ry="18" style="fill:#dca0dd;stroke:#dca0dd"/>
<text text-anchor="middle" x="104" y="765" style="font-family:arial">data:,Zone%206</text>
</a></g>
<g id="edge28" class="edge"><title>:_7-&gt;data:,Zone%206</title>
<a xlink:href="http://www2.elsevier.co.uk/~tony/1014/yads-schema-2002-04-03#resource" target="_blank" onmouseover="show_status('http://www2.elsevier.co.uk/~tony/1014/yads-schema-2002-04-03#resource');">
<path style="fill:none;stroke:#add9e6" d="M95,689C92,694 89,701 88,707 87,715 87,718 88,725 88,728 89,731 90,734"/>
<polygon style="fill:#add9e6;stroke:#add9e6" points="88,735 94,743 92,733 88,735"/>
<text text-anchor="middle" x="132" y="720" style="font-family:arial">has:resource</text>
</a></g>
<g id="node32" class="node"><title>data:,A1</title>
<a xlink:href="" onclick="show_data('A1');" onmouseover="show_status('data:,A1');">
<ellipse cx="210" cy="761" rx="29" ry="18" style="fill:#dca0dd;stroke:#dca0dd"/>
<text text-anchor="middle" x="210" y="765" style="font-family:arial">data:,A1</text>
</a></g>
<g id="edge31" class="edge"><title>:_8-&gt;data:,A1</title>
<a xlink:href="http://www2.elsevier.co.uk/~tony/1014/yads-schema-2002-04-03#resource" target="_blank" onmouseover="show_status('http://www2.elsevier.co.uk/~tony/1014/yads-schema-2002-04-03#resource');">
<path style="fill:none;stroke:#add9e6" d="M211,689C210,695 209,701 209,707 208,716 209,725 209,733"/>
<polygon style="fill:#add9e6;stroke:#add9e6" points="207,733 209,743 212,733 207,733"/>
<text text-anchor="middle" x="253" y="720" style="font-family:arial">has:resource</text>
</a></g>
<g id="node37" class="node"><title>:_11</title>
<ellipse cx="852" cy="671" rx="53" ry="18" style="fill:#eedb82;stroke:#eedb82"/>
<text text-anchor="middle" x="852" y="675" style="font-family:arial">tube:LineChange</text>
</g>
<g id="edge36" class="edge"><title>:_10-&gt;:_11</title>
<a xlink:href="http://www.w3.org/1999/02/22-rdf-syntax-ns#_1" target="_blank" onmouseover="show_status('http://www.w3.org/1999/02/22-rdf-syntax-ns#_1');">
<path style="fill:none;stroke:#add9e6" d="M483,570C536,578 655,598 752,628 773,635 795,644 814,652"/>
<polygon style="fill:#add9e6;stroke:#add9e6" points="812,654 822,656 814,649 812,654"/>
<text text-anchor="middle" x="742" y="615" style="font-family:arial">rdf:_1</text>
</a></g>
<g id="node39" class="node"><title>:_19</title>
<ellipse cx="455" cy="671" rx="53" ry="18" style="fill:#eedb82;stroke:#eedb82"/>
<text text-anchor="middle" x="455" y="675" style="font-family:arial">tube:LineChange</text>
</g>
<g id="edge38" class="edge"><title>:_10-&gt;:_19</title>
<a xlink:href="http://www.w3.org/1999/02/22-rdf-syntax-ns#_2" target="_blank" onmouseover="show_status('http://www.w3.org/1999/02/22-rdf-syntax-ns#_2');">
<path style="fill:none;stroke:#add9e6" d="M455,584C455,600 455,625 455,644"/>
<polygon style="fill:#add9e6;stroke:#add9e6" points="453,643 455,653 458,643 453,643"/>
<text text-anchor="middle" x="476" y="615" style="font-family:arial">rdf:_2</text>
</a></g>
<g id="node42" class="node"><title>doi:1014/tube/metropolitan_li...e</title>
<a xlink:href="http://dx.doi.org/1014/tube/metropolitan_line" target="_blank" onmouseover="show_status('http://dx.doi.org/1014/tube/metropolitan_line');">
<ellipse cx="852" cy="761" rx="88" ry="18" style="fill:#dca0dd;stroke:#dca0dd"/>
<text text-anchor="middle" x="852" y="765" style="font-family:arial">doi:1014/tube/metropolitan_li...e</text>
</a></g>
<g id="edge41" class="edge"><title>:_11-&gt;doi:1014/tube/metropolitan_li...e</title>
<a xlink:href="http://www2.elsevier.co.uk/~tony/1014/yads-schema-2002-04-03#resource" target="_blank" onmouseover="show_status('http://www2.elsevier.co.uk/~tony/1014/yads-schema-2002-04-03#resource');">
<path style="fill:none;stroke:#add9e6" d="M852,689C852,702 852,719 852,734"/>
<polygon style="fill:#add9e6;stroke:#add9e6" points="850,733 852,743 855,733 850,733"/>
<text text-anchor="middle" x="893" y="720" style="font-family:arial">has:resource</text>
</a></g>
<g id="node44" class="node"><title>:_12</title>
<a xlink:href="http://www.w3.org/1999/02/22-rdf-syntax-ns#Bag" target="_blank" onmouseover="show_status('http://www.w3.org/1999/02/22-rdf-syntax-ns#Bag');">
<ellipse cx="986" cy="761" rx="28" ry="18" style="fill:#d2d2d2;stroke:#d2d2d2"/>
<text text-anchor="middle" x="986" y="765" style="font-family:arial">rdf:Bag</text>
</a></g>
<g id="edge43" class="edge"><title>:_11-&gt;:_12</title>
<a xlink:href="http://www2.elsevier.co.uk/~tony/1014/yads-schema-2002-04-03#collection" target="_blank" onmouseover="show_status('http://www2.elsevier.co.uk/~tony/1014/yads-schema-2002-04-03#collection');">
<path style="fill:none;stroke:#add9e6" d="M890,683C906,689 923,697 937,707 949,715 960,727 968,737"/>
<polygon style="fill:#add9e6;stroke:#add9e6" points="966,738 974,744 969,735 966,738"/>
<text text-anchor="middle" x="999" y="720" style="font-family:arial">has:collection</text>
</a></g>
<g id="node71" class="node"><title>doi:1014/tube/piccadilly_line</title>
<a xlink:href="http://dx.doi.org/1014/tube/piccadilly_line" target="_blank" onmouseover="show_status('http://dx.doi.org/1014/tube/piccadilly_line');">
<ellipse cx="455" cy="761" rx="79" ry="18" style="fill:#dca0dd;stroke:#dca0dd"/>
<text text-anchor="middle" x="455" y="765" style="font-family:arial">doi:1014/tube/piccadilly_line</text>
</a></g>
<g id="edge70" class="edge"><title>:_19-&gt;doi:1014/tube/piccadilly_line</title>
<a xlink:href="http://www2.elsevier.co.uk/~tony/1014/yads-schema-2002-04-03#resource" target="_blank" onmouseover="show_status('http://www2.elsevier.co.uk/~tony/1014/yads-schema-2002-04-03#resource');">
<path style="fill:none;stroke:#add9e6" d="M455,689C455,702 455,719 455,734"/>
<polygon style="fill:#add9e6;stroke:#add9e6" points="453,733 455,743 458,733 453,733"/>
<text text-anchor="middle" x="496" y="720" style="font-family:arial">has:resource</text>
</a></g>
<g id="node73" class="node"><title>node_12</title>
<polygon style="fill:#6497ed;stroke:#6497ed" points="740,743 552,743 552,779 740,779 740,743"/>
<text text-anchor="middle" x="646" y="765" style="font-family:arial">No service Uxbridge-Rayners L....</text>
</g>
<g id="edge72" class="edge"><title>:_19-&gt;node_12</title>
<a xlink:href="http://www2.elsevier.co.uk/~tony/1014/yads-schema-2002-04-03#detail" target="_blank" onmouseover="show_status('http://www2.elsevier.co.uk/~tony/1014/yads-schema-2002-04-03#detail');">
<path style="fill:none;stroke:#add9e6" d="M489,685C505,691 524,699 540,707 561,717 584,729 603,739"/>
<polygon style="fill:#add9e6;stroke:#add9e6" points="601,741 611,743 603,736 601,741"/>
<text text-anchor="middle" x="605" y="720" style="font-family:arial">has:detail</text>
</a></g>
<g id="node75" class="node"><title>:_20</title>
<a xlink:href="http://www.w3.org/1999/02/22-rdf-syntax-ns#Bag" target="_blank" onmouseover="show_status('http://www.w3.org/1999/02/22-rdf-syntax-ns#Bag');">
<ellipse cx="330" cy="761" rx="28" ry="18" style="fill:#d2d2d2;stroke:#d2d2d2"/>
<text text-anchor="middle" x="330" y="765" style="font-family:arial">rdf:Bag</text>
</a></g>
<g id="edge74" class="edge"><title>:_19-&gt;:_20</title>
<a xlink:href="http://www2.elsevier.co.uk/~tony/1014/yads-schema-2002-04-03#collection" target="_blank" onmouseover="show_status('http://www2.elsevier.co.uk/~tony/1014/yads-schema-2002-04-03#collection');">
<path style="fill:none;stroke:#add9e6" d="M415,683C400,689 384,697 370,707 360,715 352,726 345,736"/>
<polygon style="fill:#add9e6;stroke:#add9e6" points="343,734 340,744 347,737 343,734"/>
<text text-anchor="middle" x="417" y="720" style="font-family:arial">has:collection</text>
</a></g>
<g id="node46" class="node"><title>:_13</title>
<ellipse cx="903" cy="872" rx="53" ry="18" style="fill:#eedb82;stroke:#eedb82"/>
<text text-anchor="middle" x="903" y="876" style="font-family:arial">tube:PrevStation</text>
</g>
<g id="edge45" class="edge"><title>:_12-&gt;:_13</title>
<a xlink:href="http://www.w3.org/1999/02/22-rdf-syntax-ns#_1" target="_blank" onmouseover="show_status('http://www.w3.org/1999/02/22-rdf-syntax-ns#_1');">
<path style="fill:none;stroke:#add9e6" d="M974,777C961,796 937,826 921,847"/>
<polygon style="fill:#add9e6;stroke:#add9e6" points="920,844 916,854 924,847 920,844"/>
<text text-anchor="middle" x="977" y="816" style="font-family:arial">rdf:_1</text>
</a></g>
<g id="node48" class="node"><title>:_16</title>
<ellipse cx="1061" cy="872" rx="53" ry="18" style="fill:#eedb82;stroke:#eedb82"/>
<text text-anchor="middle" x="1061" y="876" style="font-family:arial">tube:NextStation</text>
</g>
<g id="edge47" class="edge"><title>:_12-&gt;:_16</title>
<a xlink:href="http://www.w3.org/1999/02/22-rdf-syntax-ns#_2" target="_blank" onmouseover="show_status('http://www.w3.org/1999/02/22-rdf-syntax-ns#_2');">
<path style="fill:none;stroke:#add9e6" d="M997,778C1009,797 1030,826 1044,847"/>
<polygon style="fill:#add9e6;stroke:#add9e6" points="1041,847 1049,854 1045,844 1041,847"/>
<text text-anchor="middle" x="1048" y="816" style="font-family:arial">rdf:_2</text>
</a></g>
<g id="node51" class="node"><title>doi:1014/tube/ickenham</title>
<a xlink:href="http://dx.doi.org/1014/tube/ickenham" target="_blank" onmouseover="show_status('http://dx.doi.org/1014/tube/ickenham');">
<ellipse cx="841" cy="962" rx="69" ry="18" style="fill:#dca0dd;stroke:#dca0dd"/>
<text text-anchor="middle" x="841" y="966" style="font-family:arial">doi:1014/tube/ickenham</text>
</a></g>
<g id="edge50" class="edge"><title>:_13-&gt;doi:1014/tube/ickenham</title>
<a xlink:href="http://www2.elsevier.co.uk/~tony/1014/yads-schema-2002-04-03#resource" target="_blank" onmouseover="show_status('http://www2.elsevier.co.uk/~tony/1014/yads-schema-2002-04-03#resource');">
<path style="fill:none;stroke:#add9e6" d="M859,882C846,888 832,896 824,908 819,916 820,926 824,935"/>
<polygon style="fill:#add9e6;stroke:#add9e6" points="822,936 828,944 826,934 822,936"/>
<text text-anchor="middle" x="868" y="921" style="font-family:arial">has:resource</text>
</a></g>
<g id="node53" class="node"><title>:_14</title>
<a xlink:href="http://www.w3.org/1999/02/22-rdf-syntax-ns#Bag" target="_blank" onmouseover="show_status('http://www.w3.org/1999/02/22-rdf-syntax-ns#Bag');">
<ellipse cx="956" cy="962" rx="28" ry="18" style="fill:#d2d2d2;stroke:#d2d2d2"/>
<text text-anchor="middle" x="956" y="966" style="font-family:arial">rdf:Bag</text>
</a></g>
<g id="edge52" class="edge"><title>:_13-&gt;:_14</title>
<a xlink:href="http://www2.elsevier.co.uk/~tony/1014/yads-schema-2002-04-03#collection" target="_blank" onmouseover="show_status('http://www2.elsevier.co.uk/~tony/1014/yads-schema-2002-04-03#collection');">
<path style="fill:none;stroke:#add9e6" d="M904,890C906,901 909,915 915,926 918,932 924,938 929,943"/>
<polygon style="fill:#add9e6;stroke:#add9e6" points="927,944 936,949 930,941 927,944"/>
<text text-anchor="middle" x="956" y="921" style="font-family:arial">has:collection</text>
</a></g>
<g id="node61" class="node"><title>doi:1014/tube/ruislip_manor</title>
<a xlink:href="http://dx.doi.org/1014/tube/ruislip_manor" target="_blank" onmouseover="show_status('http://dx.doi.org/1014/tube/ruislip_manor');">
<ellipse cx="1087" cy="962" rx="79" ry="18" style="fill:#dca0dd;stroke:#dca0dd"/>
<text text-anchor="middle" x="1087" y="966" style="font-family:arial">doi:1014/tube/ruislip_manor</text>
</a></g>
<g id="edge60" class="edge"><title>:_16-&gt;doi:1014/tube/ruislip_manor</title>
<a xlink:href="http://www2.elsevier.co.uk/~tony/1014/yads-schema-2002-04-03#resource" target="_blank" onmouseover="show_status('http://www2.elsevier.co.uk/~tony/1014/yads-schema-2002-04-03#resource');">
<path style="fill:none;stroke:#add9e6" d="M1065,890C1067,901 1070,914 1074,926 1075,929 1076,932 1077,935"/>
<polygon style="fill:#add9e6;stroke:#add9e6" points="1074,935 1080,944 1079,934 1074,935"/>
<text text-anchor="middle" x="1115" y="921" style="font-family:arial">has:resource</text>
</a></g>
<g id="node63" class="node"><title>:_17</title>
<a xlink:href="http://www.w3.org/1999/02/22-rdf-syntax-ns#Bag" target="_blank" onmouseover="show_status('http://www.w3.org/1999/02/22-rdf-syntax-ns#Bag');">
<ellipse cx="1212" cy="962" rx="28" ry="18" style="fill:#d2d2d2;stroke:#d2d2d2"/>
<text text-anchor="middle" x="1212" y="966" style="font-family:arial">rdf:Bag</text>
</a></g>
<g id="edge62" class="edge"><title>:_16-&gt;:_17</title>
<a xlink:href="http://www2.elsevier.co.uk/~tony/1014/yads-schema-2002-04-03#collection" target="_blank" onmouseover="show_status('http://www2.elsevier.co.uk/~tony/1014/yads-schema-2002-04-03#collection');">
<path style="fill:none;stroke:#add9e6" d="M1101,884C1117,890 1136,898 1151,908 1159,915 1159,919 1167,926 1173,932 1179,937 1186,942"/>
<polygon style="fill:#add9e6;stroke:#add9e6" points="1184,943 1193,948 1187,940 1184,943"/>
<text text-anchor="middle" x="1208" y="921" style="font-family:arial">has:collection</text>
</a></g>
<g id="node55" class="node"><title>:_15</title>
<ellipse cx="853" cy="1067" rx="33" ry="18" style="fill:#eedb82;stroke:#eedb82"/>
<text text-anchor="middle" x="853" y="1071" style="font-family:arial">tube:Mins</text>
</g>
<g id="edge54" class="edge"><title>:_14-&gt;:_15</title>
<a xlink:href="http://www.w3.org/1999/02/22-rdf-syntax-ns#_1" target="_blank" onmouseover="show_status('http://www.w3.org/1999/02/22-rdf-syntax-ns#_1');">
<path style="fill:none;stroke:#add9e6" d="M941,977C924,995 895,1024 875,1045"/>
<polygon style="fill:#add9e6;stroke:#add9e6" points="874,1042 869,1051 878,1046 874,1042"/>
<text text-anchor="middle" x="941" y="1011" style="font-family:arial">rdf:_1</text>
</a></g>
<g id="node58" class="node"><title>data:,3</title>
<a xlink:href="" onclick="show_data('3');" onmouseover="show_status('data:,3');">
<ellipse cx="840" cy="1171" rx="27" ry="18" style="fill:#dca0dd;stroke:#dca0dd"/>
<text text-anchor="middle" x="840" y="1175" style="font-family:arial">data:,3</text>
</a></g>
<g id="edge57" class="edge"><title>:_15-&gt;data:,3</title>
<a xlink:href="http://www2.elsevier.co.uk/~tony/1014/yads-schema-2002-04-03#resource" target="_blank" onmouseover="show_status('http://www2.elsevier.co.uk/~tony/1014/yads-schema-2002-04-03#resource');">
<path style="fill:none;stroke:#add9e6" d="M851,1085C848,1101 846,1125 843,1144"/>
<polygon style="fill:#add9e6;stroke:#add9e6" points="841,1143 842,1153 846,1143 841,1143"/>
<text text-anchor="middle" x="888" y="1130" style="font-family:arial">has:resource</text>
</a></g>
<g id="node65" class="node"><title>:_18</title>
<ellipse cx="1094" cy="1067" rx="33" ry="18" style="fill:#eedb82;stroke:#eedb82"/>
<text text-anchor="middle" x="1094" y="1071" style="font-family:arial">tube:Mins</text>
</g>
<g id="edge64" class="edge"><title>:_17-&gt;:_18</title>
<a xlink:href="http://www.w3.org/1999/02/22-rdf-syntax-ns#_1" target="_blank" onmouseover="show_status('http://www.w3.org/1999/02/22-rdf-syntax-ns#_1');">
<path style="fill:none;stroke:#add9e6" d="M1196,977C1175,994 1142,1024 1118,1045"/>
<polygon style="fill:#add9e6;stroke:#add9e6" points="1117,1043 1111,1051 1120,1046 1117,1043"/>
<text text-anchor="middle" x="1189" y="1011" style="font-family:arial">rdf:_1</text>
</a></g>
<g id="node68" class="node"><title>data:,2</title>
<a xlink:href="" onclick="show_data('2');" onmouseover="show_status('data:,2');">
<ellipse cx="1081" cy="1171" rx="27" ry="18" style="fill:#dca0dd;stroke:#dca0dd"/>
<text text-anchor="middle" x="1081" y="1175" style="font-family:arial">data:,2</text>
</a></g>
<g id="edge67" class="edge"><title>:_18-&gt;data:,2</title>
<a xlink:href="http://www2.elsevier.co.uk/~tony/1014/yads-schema-2002-04-03#resource" target="_blank" onmouseover="show_status('http://www2.elsevier.co.uk/~tony/1014/yads-schema-2002-04-03#resource');">
<path style="fill:none;stroke:#add9e6" d="M1092,1085C1089,1101 1087,1125 1084,1144"/>
<polygon style="fill:#add9e6;stroke:#add9e6" points="1082,1143 1083,1153 1087,1143 1082,1143"/>
<text text-anchor="middle" x="1129" y="1130" style="font-family:arial">has:resource</text>
</a></g>
<g id="node77" class="node"><title>:_21</title>
<ellipse cx="536" cy="872" rx="53" ry="18" style="fill:#eedb82;stroke:#eedb82"/>
<text text-anchor="middle" x="536" y="876" style="font-family:arial">tube:PrevStation</text>
</g>
<g id="edge76" class="edge"><title>:_20-&gt;:_21</title>
<a xlink:href="http://www.w3.org/1999/02/22-rdf-syntax-ns#_1" target="_blank" onmouseover="show_status('http://www.w3.org/1999/02/22-rdf-syntax-ns#_1');">
<path style="fill:none;stroke:#add9e6" d="M351,773C357,781 358,789 369,795 389,806 397,797 418,803 443,811 449,816 471,829 483,835 495,843 505,851"/>
<polygon style="fill:#add9e6;stroke:#add9e6" points="503,853 513,856 506,849 503,853"/>
<text text-anchor="middle" x="477" y="816" style="font-family:arial">rdf:_1</text>
</a></g>
<g id="node79" class="node"><title>:_24</title>
<ellipse cx="406" cy="872" rx="53" ry="18" style="fill:#eedb82;stroke:#eedb82"/>
<text text-anchor="middle" x="406" y="876" style="font-family:arial">tube:NextStation</text>
</g>
<g id="edge78" class="edge"><title>:_20-&gt;:_24</title>
<a xlink:href="http://www.w3.org/1999/02/22-rdf-syntax-ns#_2" target="_blank" onmouseover="show_status('http://www.w3.org/1999/02/22-rdf-syntax-ns#_2');">
<path style="fill:none;stroke:#add9e6" d="M342,778C354,797 375,826 389,847"/>
<polygon style="fill:#add9e6;stroke:#add9e6" points="386,847 394,854 390,844 386,847"/>
<text text-anchor="middle" x="392" y="816" style="font-family:arial">rdf:_2</text>
</a></g>
<g id="edge81" class="edge"><title>:_21-&gt;doi:1014/tube/ickenham</title>
<a xlink:href="http://www2.elsevier.co.uk/~tony/1014/yads-schema-2002-04-03#resource" target="_blank" onmouseover="show_status('http://www2.elsevier.co.uk/~tony/1014/yads-schema-2002-04-03#resource');">
<path style="fill:none;stroke:#add9e6" d="M582,881C614,887 655,897 691,908 712,915 716,919 736,926 758,934 770,941 783,946"/>
<polygon style="fill:#add9e6;stroke:#add9e6" points="781,948 791,950 783,943 781,948"/>
<text text-anchor="middle" x="777" y="921" style="font-family:arial">has:resource</text>
</a></g>
<g id="node83" class="node"><title>:_22</title>
<a xlink:href="http://www.w3.org/1999/02/22-rdf-syntax-ns#Bag" target="_blank" onmouseover="show_status('http://www.w3.org/1999/02/22-rdf-syntax-ns#Bag');">
<ellipse cx="517" cy="962" rx="28" ry="18" style="fill:#d2d2d2;stroke:#d2d2d2"/>
<text text-anchor="middle" x="517" y="966" style="font-family:arial">rdf:Bag</text>
</a></g>
<g id="edge83" class="edge"><title>:_21-&gt;:_22</title>
<a xlink:href="http://www2.elsevier.co.uk/~tony/1014/yads-schema-2002-04-03#collection" target="_blank" onmouseover="show_status('http://www2.elsevier.co.uk/~tony/1014/yads-schema-2002-04-03#collection');">
<path style="fill:none;stroke:#add9e6" d="M528,890C525,896 523,902 521,908 519,917 518,926 517,935"/>
<polygon style="fill:#add9e6;stroke:#add9e6" points="515,934 517,944 520,934 515,934"/>
<text text-anchor="middle" x="565" y="921" style="font-family:arial">has:collection</text>
</a></g>
<g id="edge91" class="edge"><title>:_24-&gt;doi:1014/tube/ruislip_manor</title>
<a xlink:href="http://www2.elsevier.co.uk/~tony/1014/yads-schema-2002-04-03#resource" target="_blank" onmouseover="show_status('http://www2.elsevier.co.uk/~tony/1014/yads-schema-2002-04-03#resource');">
<path style="fill:none;stroke:#add9e6" d="M446,884C454,886 463,888 471,890 524,902 544,883 591,908 601,914 598,922 607,926 647,945 954,939 996,944 997,944 1007,946 1020,949"/>
<polygon style="fill:#add9e6;stroke:#add9e6" points="1017,951 1027,950 1017,946 1017,951"/>
<text text-anchor="middle" x="648" y="921" style="font-family:arial">has:resource</text>
</a></g>
<g id="node91" class="node"><title>:_25</title>
<a xlink:href="http://www.w3.org/1999/02/22-rdf-syntax-ns#Bag" target="_blank" onmouseover="show_status('http://www.w3.org/1999/02/22-rdf-syntax-ns#Bag');">
<ellipse cx="399" cy="962" rx="28" ry="18" style="fill:#d2d2d2;stroke:#d2d2d2"/>
<text text-anchor="middle" x="399" y="966" style="font-family:arial">rdf:Bag</text>
</a></g>
<g id="edge93" class="edge"><title>:_24-&gt;:_25</title>
<a xlink:href="http://www2.elsevier.co.uk/~tony/1014/yads-schema-2002-04-03#collection" target="_blank" onmouseover="show_status('http://www2.elsevier.co.uk/~tony/1014/yads-schema-2002-04-03#collection');">
<path style="fill:none;stroke:#add9e6" d="M396,890C394,896 391,902 390,908 388,917 389,926 391,935"/>
<polygon style="fill:#add9e6;stroke:#add9e6" points="388,935 393,944 393,934 388,935"/>
<text text-anchor="middle" x="434" y="921" style="font-family:arial">has:collection</text>
</a></g>
<g id="node85" class="node"><title>:_23</title>
<ellipse cx="536" cy="1067" rx="33" ry="18" style="fill:#eedb82;stroke:#eedb82"/>
<text text-anchor="middle" x="536" y="1071" style="font-family:arial">tube:Mins</text>
</g>
<g id="edge85" class="edge"><title>:_22-&gt;:_23</title>
<a xlink:href="http://www.w3.org/1999/02/22-rdf-syntax-ns#_1" target="_blank" onmouseover="show_status('http://www.w3.org/1999/02/22-rdf-syntax-ns#_1');">
<path style="fill:none;stroke:#add9e6" d="M520,980C523,996 528,1021 531,1040"/>
<polygon style="fill:#add9e6;stroke:#add9e6" points="528,1040 533,1049 533,1039 528,1040"/>
<text text-anchor="middle" x="547" y="1011" style="font-family:arial">rdf:_1</text>
</a></g>
<g id="edge88" class="edge"><title>:_23-&gt;data:,3</title>
<a xlink:href="http://www2.elsevier.co.uk/~tony/1014/yads-schema-2002-04-03#resource" target="_blank" onmouseover="show_status('http://www2.elsevier.co.uk/~tony/1014/yads-schema-2002-04-03#resource');">
<path style="fill:none;stroke:#add9e6" d="M564,1077C620,1096 748,1140 808,1160"/>
<polygon style="fill:#add9e6;stroke:#add9e6" points="806,1162 816,1163 808,1157 806,1162"/>
<text text-anchor="middle" x="775" y="1130" style="font-family:arial">has:resource</text>
</a></g>
<g id="node93" class="node"><title>:_26</title>
<ellipse cx="413" cy="1067" rx="33" ry="18" style="fill:#eedb82;stroke:#eedb82"/>
<text text-anchor="middle" x="413" y="1071" style="font-family:arial">tube:Mins</text>
</g>
<g id="edge95" class="edge"><title>:_25-&gt;:_26</title>
<a xlink:href="http://www.w3.org/1999/02/22-rdf-syntax-ns#_1" target="_blank" onmouseover="show_status('http://www.w3.org/1999/02/22-rdf-syntax-ns#_1');">
<path style="fill:none;stroke:#add9e6" d="M401,980C404,996 407,1021 409,1040"/>
<polygon style="fill:#add9e6;stroke:#add9e6" points="406,1039 410,1049 411,1039 406,1039"/>
<text text-anchor="middle" x="427" y="1011" style="font-family:arial">rdf:_1</text>
</a></g>
<g id="edge98" class="edge"><title>:_26-&gt;data:,2</title>
<a xlink:href="http://www2.elsevier.co.uk/~tony/1014/yads-schema-2002-04-03#resource" target="_blank" onmouseover="show_status('http://www2.elsevier.co.uk/~tony/1014/yads-schema-2002-04-03#resource');">
<path style="fill:none;stroke:#add9e6" d="M435,1081C450,1090 472,1101 491,1109 536,1127 549,1128 596,1135 733,1156 769,1142 906,1153 955,1158 1012,1163 1047,1167"/>
<polygon style="fill:#add9e6;stroke:#add9e6" points="1044,1169 1054,1168 1044,1164 1044,1169"/>
<text text-anchor="middle" x="637" y="1130" style="font-family:arial">has:resource</text>
</a></g>
</g>
</svg>
