<?xml version="1.0" encoding="UTF-8" standalone="no"?>
<!DOCTYPE svg PUBLIC "-//W3C//DTD SVG 1.0//EN"
 "http://www.w3.org/TR/2001/REC-SVG-20010904/DTD/svg10.dtd" [
 <!ATTLIST svg xmlns:xlink CDATA #FIXED "http://www.w3.org/1999/xlink">
]>
<!-- Generated by dot version 1.8.5 (Tue Apr 23 17:19:23  2002)
     For user: (Administrator) ,S-1-5-21-1454471165-688789844-1708537768-500   Title: yads    Pages: 1 -->
<svg width="1383px" height="1272px"
 xmlns="http://www.w3.org/2000/svg" xmlns:xlink="http://www.w3.org/1999/xlink">
<g id="graph0" class="graph" style="font-family:Times-Roman;font-size:11.00">
<title>yads</title>
<text text-anchor="middle" x="691" y="1261" style="font-family:arial;font-size:24.00">YADS - A Description Service</text>
<g id="graph2" class="cluster"><title>cluster_1</title>
<polygon style="fill:none;stroke:#d2d2d2;stroke-dasharray:5,2" points="19,1229 1364,1229 1364,43 19,43 19,1229"/>
<text text-anchor="middle" x="109" y="55" style="font-family:arial">Nest - Shepherd's Bush Station</text>
</g>
<g id="graph3" class="cluster"><title>cluster_3</title>
<polygon style="fill:none;stroke:#d2d2d2;stroke-dasharray:5,2" points="27,1221 1356,1221 1356,238 27,238 27,1221"/>
<text text-anchor="middle" x="99" y="250" style="font-family:arial">Nest - Application Profile</text>
</g>
<g id="graph4" class="cluster"><title>cluster_5</title>
<polygon style="fill:none;stroke:#d2d2d2;stroke-dasharray:5,2" points="35,795 278,795 278,433 35,433 35,795"/>
<text text-anchor="middle" x="80" y="445" style="font-family:arial">Item - Location</text>
</g>
<g id="graph5" class="cluster"><title>cluster_7</title>
<polygon style="fill:none;stroke:#d2d2d2;stroke-dasharray:5,2" points="43,787 165,787 165,628 43,628 43,787"/>
<text text-anchor="middle" x="59" y="640" style="font-family:arial">Item</text>
</g>
<g id="graph6" class="cluster"><title>cluster_8</title>
<polygon style="fill:none;stroke:#d2d2d2;stroke-dasharray:5,2" points="173,787 270,787 270,628 173,628 173,787"/>
<text text-anchor="middle" x="189" y="640" style="font-family:arial">Item</text>
</g>
<g id="graph7" class="cluster"><title>cluster_9</title>
<polygon style="fill:none;stroke:#d2d2d2;stroke-dasharray:5,2" points="286,1213 1348,1213 1348,433 286,433 286,1213"/>
<text text-anchor="middle" x="355" y="445" style="font-family:arial">Item - Line Interchanges</text>
</g>
<g id="graph8" class="cluster"><title>cluster_11</title>
<polygon style="fill:none;stroke:#d2d2d2;stroke-dasharray:5,2" points="294,1205 798,1205 798,628 294,628 294,1205"/>
<text text-anchor="middle" x="362" y="640" style="font-family:arial">Nest - Line Interchange</text>
</g>
<g id="graph9" class="cluster"><title>cluster_13</title>
<polygon style="fill:none;stroke:#d2d2d2;stroke-dasharray:5,2" points="302,1197 536,1197 536,829 302,829 302,1197"/>
<text text-anchor="middle" x="370" y="841" style="font-family:arial">Nest - Next Stop Back</text>
</g>
<g id="graph10" class="cluster"><title>cluster_15</title>
<polygon style="fill:none;stroke:#d2d2d2;stroke-dasharray:5,2" points="431,1189 528,1189 528,1024 431,1024 431,1189"/>
<text text-anchor="middle" x="447" y="1036" style="font-family:arial">Item</text>
</g>
<g id="graph11" class="cluster"><title>cluster_16</title>
<polygon style="fill:none;stroke:#d2d2d2;stroke-dasharray:5,2" points="544,1101 790,1101 790,829 544,829 544,1101"/>
<text text-anchor="middle" x="596" y="841" style="font-family:arial">Nest - Next Stop</text>
</g>
<g id="graph12" class="cluster"><title>cluster_18</title>
<polygon style="fill:none;stroke:#d2d2d2;stroke-dasharray:5,2" points="589,1093 671,1093 671,1024 589,1024 589,1093"/>
<text text-anchor="middle" x="605" y="1036" style="font-family:arial">Item</text>
</g>
<g id="graph13" class="cluster"><title>cluster_19</title>
<polygon style="fill:none;stroke:#d2d2d2;stroke-dasharray:5,2" points="806,1205 1340,1205 1340,628 806,628 806,1205"/>
<text text-anchor="middle" x="874" y="640" style="font-family:arial">Nest - Line Interchange</text>
</g>
<g id="graph14" class="cluster"><title>cluster_21</title>
<polygon style="fill:none;stroke:#d2d2d2;stroke-dasharray:5,2" points="1068,1197 1332,1197 1332,829 1068,829 1068,1197"/>
<text text-anchor="middle" x="1136" y="841" style="font-family:arial">Nest - Next Stop Back</text>
</g>
<g id="graph15" class="cluster"><title>cluster_23</title>
<polygon style="fill:none;stroke:#d2d2d2;stroke-dasharray:5,2" points="1227,1189 1324,1189 1324,1024 1227,1024 1227,1189"/>
<text text-anchor="middle" x="1243" y="1036" style="font-family:arial">Item</text>
</g>
<g id="graph16" class="cluster"><title>cluster_24</title>
<polygon style="fill:none;stroke:#d2d2d2;stroke-dasharray:5,2" points="814,1101 1060,1101 1060,829 814,829 814,1101"/>
<text text-anchor="middle" x="866" y="841" style="font-family:arial">Nest - Next Stop</text>
</g>
<g id="graph17" class="cluster"><title>cluster_26</title>
<polygon style="fill:none;stroke:#d2d2d2;stroke-dasharray:5,2" points="859,1093 941,1093 941,1024 859,1024 859,1093"/>
<text text-anchor="middle" x="875" y="1036" style="font-family:arial">Item</text>
</g>
<g id="node2" class="node"><title>:_1</title>
<ellipse cx="277" cy="86" rx="40" ry="18" style="fill:#eedb82;stroke:#eedb82"/>
<text text-anchor="middle" x="277" y="90" style="font-family:arial">tube:Station</text>
</g>
<g id="node4" class="node"><title>doi:1014/tube/shepherd's_bush</title>
<a xlink:href="http://dx.doi.org/1014/tube/shepherd's_bush" target="_blank" onmouseover="show_status('http://dx.doi.org/1014/tube/shepherd's_bush');">
<ellipse cx="118" cy="176" rx="90" ry="18" style="fill:#dca0dd;stroke:#dca0dd"/>
<text text-anchor="middle" x="118" y="180" style="font-family:arial">doi:1014/tube/shepherd's_bush</text>
</a></g>
<g id="edge3" class="edge"><title>:_1-&gt;doi:1014/tube/shepherd's_bush</title>
<a xlink:href="http://www2.elsevier.co.uk/~tony/1014/yads-schema-2002-04-03#resource" target="_blank" onmouseover="show_status('http://www2.elsevier.co.uk/~tony/1014/yads-schema-2002-04-03#resource');">
<path style="fill:none;stroke:#add9e6" d="M246,97C229,104 209,112 192,122 177,131 160,143 147,153"/>
<polygon style="fill:#add9e6;stroke:#add9e6" points="147,150 140,158 150,154 147,150"/>
<text text-anchor="middle" x="239" y="135" style="font-family:arial">has:resource</text>
</a></g>
<g id="node6" class="node"><title>node_1</title>
<polygon style="fill:#6497ed;stroke:#6497ed" points="328,158 226,158 226,194 328,194 328,158"/>
<text text-anchor="middle" x="277" y="180" style="font-family:arial">Shepherd's Bush</text>
</g>
<g id="edge5" class="edge"><title>:_1-&gt;node_1</title>
<a xlink:href="http://www2.elsevier.co.uk/~tony/1014/yads-schema-2002-04-03#label" target="_blank" onmouseover="show_status('http://www2.elsevier.co.uk/~tony/1014/yads-schema-2002-04-03#label');">
<path style="fill:none;stroke:#add9e6" d="M277,104C277,117 277,134 277,149"/>
<polygon style="fill:#add9e6;stroke:#add9e6" points="275,148 277,158 280,148 275,148"/>
<text text-anchor="middle" x="304" y="135" style="font-family:arial">has:label</text>
</a></g>
<g id="node8" class="node"><title>:_2</title>
<a xlink:href="http://www.w3.org/1999/02/22-rdf-syntax-ns#Bag" target="_blank" onmouseover="show_status('http://www.w3.org/1999/02/22-rdf-syntax-ns#Bag');">
<ellipse cx="374" cy="176" rx="28" ry="18" style="fill:#d2d2d2;stroke:#d2d2d2"/>
<text text-anchor="middle" x="374" y="180" style="font-family:arial">rdf:Bag</text>
</a></g>
<g id="edge7" class="edge"><title>:_1-&gt;:_2</title>
<a xlink:href="http://www2.elsevier.co.uk/~tony/1014/yads-schema-2002-04-03#collection" target="_blank" onmouseover="show_status('http://www2.elsevier.co.uk/~tony/1014/yads-schema-2002-04-03#collection');">
<path style="fill:none;stroke:#add9e6" d="M304,100C315,106 327,113 336,122 345,131 354,142 360,151"/>
<polygon style="fill:#add9e6;stroke:#add9e6" points="357,151 364,159 362,149 357,151"/>
<text text-anchor="middle" x="393" y="135" style="font-family:arial">has:collection</text>
</a></g>
<g id="node10" class="node"><title>:_3</title>
<ellipse cx="374" cy="281" rx="34" ry="18" style="fill:#eedb82;stroke:#eedb82"/>
<text text-anchor="middle" x="374" y="285" style="font-family:arial">doi:Profile</text>
</g>
<g id="edge9" class="edge"><title>:_2-&gt;:_3</title>
<a xlink:href="http://www.w3.org/1999/02/22-rdf-syntax-ns#_1" target="_blank" onmouseover="show_status('http://www.w3.org/1999/02/22-rdf-syntax-ns#_1');">
<path style="fill:none;stroke:#add9e6" d="M374,194C374,210 374,235 374,254"/>
<polygon style="fill:#add9e6;stroke:#add9e6" points="372,253 374,263 377,253 372,253"/>
<text text-anchor="middle" x="394" y="225" style="font-family:arial">rdf:_1</text>
</a></g>
<g id="node13" class="node"><title>doi:1014/profile.tube</title>
<a xlink:href="http://dx.doi.org/1014/profile.tube" target="_blank" onmouseover="show_status('http://dx.doi.org/1014/profile.tube');">
<ellipse cx="367" cy="371" rx="59" ry="18" style="fill:#dca0dd;stroke:#dca0dd"/>
<text text-anchor="middle" x="367" y="375" style="font-family:arial">doi:1014/profile.tube</text>
</a></g>
<g id="edge12" class="edge"><title>:_3-&gt;doi:1014/profile.tube</title>
<a xlink:href="http://www2.elsevier.co.uk/~tony/1014/yads-schema-2002-04-03#resource" target="_blank" onmouseover="show_status('http://www2.elsevier.co.uk/~tony/1014/yads-schema-2002-04-03#resource');">
<path style="fill:none;stroke:#add9e6" d="M373,299C372,312 371,329 370,344"/>
<polygon style="fill:#add9e6;stroke:#add9e6" points="368,343 369,353 373,343 368,343"/>
<text text-anchor="middle" x="413" y="330" style="font-family:arial">has:resource</text>
</a></g>
<g id="node15" class="node"><title>:_4</title>
<a xlink:href="http://www.w3.org/1999/02/22-rdf-syntax-ns#Bag" target="_blank" onmouseover="show_status('http://www.w3.org/1999/02/22-rdf-syntax-ns#Bag');">
<ellipse cx="472" cy="371" rx="28" ry="18" style="fill:#d2d2d2;stroke:#d2d2d2"/>
<text text-anchor="middle" x="472" y="375" style="font-family:arial">rdf:Bag</text>
</a></g>
<g id="edge14" class="edge"><title>:_3-&gt;:_4</title>
<a xlink:href="http://www2.elsevier.co.uk/~tony/1014/yads-schema-2002-04-03#collection" target="_blank" onmouseover="show_status('http://www2.elsevier.co.uk/~tony/1014/yads-schema-2002-04-03#collection');">
<path style="fill:none;stroke:#add9e6" d="M406,288C423,293 444,302 457,317 464,325 468,334 470,344"/>
<polygon style="fill:#add9e6;stroke:#add9e6" points="467,343 471,353 472,343 467,343"/>
<text text-anchor="middle" x="510" y="330" style="font-family:arial">has:collection</text>
</a></g>
<g id="node17" class="node"><title>:_5</title>
<a xlink:href="http://www2.elsevier.co.uk/~tony/1014/yads-schema-2002-04-03#Item" target="_blank" onmouseover="show_status('http://www2.elsevier.co.uk/~tony/1014/yads-schema-2002-04-03#Item');">
<ellipse cx="215" cy="476" rx="28" ry="18" style="fill:#d2d2d2;stroke:#d2d2d2"/>
<text text-anchor="middle" x="215" y="480" style="font-family:arial">isa:Item</text>
</a></g>
<g id="edge16" class="edge"><title>:_4-&gt;:_5</title>
<a xlink:href="http://www.w3.org/1999/02/22-rdf-syntax-ns#_1" target="_blank" onmouseover="show_status('http://www.w3.org/1999/02/22-rdf-syntax-ns#_1');">
<path style="fill:none;stroke:#add9e6" d="M450,383C445,385 440,387 435,389 369,415 347,404 282,433 268,440 253,449 240,457"/>
<polygon style="fill:#add9e6;stroke:#add9e6" points="240,454 233,462 243,458 240,454"/>
<text text-anchor="middle" x="405" y="420" style="font-family:arial">rdf:_1</text>
</a></g>
<g id="node19" class="node"><title>:_9</title>
<a xlink:href="http://www2.elsevier.co.uk/~tony/1014/yads-schema-2002-04-03#Item" target="_blank" onmouseover="show_status('http://www2.elsevier.co.uk/~tony/1014/yads-schema-2002-04-03#Item');">
<ellipse cx="479" cy="476" rx="28" ry="18" style="fill:#d2d2d2;stroke:#d2d2d2"/>
<text text-anchor="middle" x="479" y="480" style="font-family:arial">isa:Item</text>
</a></g>
<g id="edge18" class="edge"><title>:_4-&gt;:_9</title>
<a xlink:href="http://www.w3.org/1999/02/22-rdf-syntax-ns#_2" target="_blank" onmouseover="show_status('http://www.w3.org/1999/02/22-rdf-syntax-ns#_2');">
<path style="fill:none;stroke:#add9e6" d="M473,389C474,405 475,430 477,449"/>
<polygon style="fill:#add9e6;stroke:#add9e6" points="474,448 478,458 479,448 474,448"/>
<text text-anchor="middle" x="497" y="420" style="font-family:arial">rdf:_2</text>
</a></g>
<g id="node22" class="node"><title>:_6</title>
<a xlink:href="http://www.w3.org/1999/02/22-rdf-syntax-ns#Bag" target="_blank" onmouseover="show_status('http://www.w3.org/1999/02/22-rdf-syntax-ns#Bag');">
<ellipse cx="189" cy="566" rx="28" ry="18" style="fill:#d2d2d2;stroke:#d2d2d2"/>
<text text-anchor="middle" x="189" y="570" style="font-family:arial">rdf:Bag</text>
</a></g>
<g id="edge21" class="edge"><title>:_5-&gt;:_6</title>
<a xlink:href="http://www2.elsevier.co.uk/~tony/1014/yads-schema-2002-04-03#collection" target="_blank" onmouseover="show_status('http://www2.elsevier.co.uk/~tony/1014/yads-schema-2002-04-03#collection');">
<path style="fill:none;stroke:#add9e6" d="M208,494C205,499 203,506 201,512 198,521 196,530 194,539"/>
<polygon style="fill:#add9e6;stroke:#add9e6" points="192,538 192,548 197,539 192,538"/>
<text text-anchor="middle" x="245" y="525" style="font-family:arial">has:collection</text>
</a></g>
<g id="node35" class="node"><title>:_10</title>
<a xlink:href="http://www.w3.org/1999/02/22-rdf-syntax-ns#Bag" target="_blank" onmouseover="show_status('http://www.w3.org/1999/02/22-rdf-syntax-ns#Bag');">
<ellipse cx="488" cy="566" rx="28" ry="18" style="fill:#d2d2d2;stroke:#d2d2d2"/>
<text text-anchor="middle" x="488" y="570" style="font-family:arial">rdf:Bag</text>
</a></g>
<g id="edge34" class="edge"><title>:_9-&gt;:_10</title>
<a xlink:href="http://www2.elsevier.co.uk/~tony/1014/yads-schema-2002-04-03#collection" target="_blank" onmouseover="show_status('http://www2.elsevier.co.uk/~tony/1014/yads-schema-2002-04-03#collection');">
<path style="fill:none;stroke:#add9e6" d="M481,494C482,507 483,524 485,539"/>
<polygon style="fill:#add9e6;stroke:#add9e6" points="482,538 486,548 487,538 482,538"/>
<text text-anchor="middle" x="527" y="525" style="font-family:arial">has:collection</text>
</a></g>
<g id="node24" class="node"><title>:_7</title>
<ellipse cx="104" cy="671" rx="35" ry="18" style="fill:#eedb82;stroke:#eedb82"/>
<text text-anchor="middle" x="104" y="675" style="font-family:arial">tube:Zone</text>
</g>
<g id="edge23" class="edge"><title>:_6-&gt;:_7</title>
<a xlink:href="http://www.w3.org/1999/02/22-rdf-syntax-ns#_1" target="_blank" onmouseover="show_status('http://www.w3.org/1999/02/22-rdf-syntax-ns#_1');">
<path style="fill:none;stroke:#add9e6" d="M173,581C167,588 160,595 154,602 142,616 130,633 121,647"/>
<polygon style="fill:#add9e6;stroke:#add9e6" points="120,644 116,654 124,647 120,644"/>
<text text-anchor="middle" x="177" y="615" style="font-family:arial">rdf:_1</text>
</a></g>
<g id="node26" class="node"><title>:_8</title>
<ellipse cx="213" cy="671" rx="32" ry="18" style="fill:#eedb82;stroke:#eedb82"/>
<text text-anchor="middle" x="213" y="675" style="font-family:arial">tube:Grid</text>
</g>
<g id="edge25" class="edge"><title>:_6-&gt;:_8</title>
<a xlink:href="http://www.w3.org/1999/02/22-rdf-syntax-ns#_2" target="_blank" onmouseover="show_status('http://www.w3.org/1999/02/22-rdf-syntax-ns#_2');">
<path style="fill:none;stroke:#add9e6" d="M193,584C196,600 202,625 207,644"/>
<polygon style="fill:#add9e6;stroke:#add9e6" points="204,644 209,653 209,643 204,644"/>
<text text-anchor="middle" x="222" y="615" style="font-family:arial">rdf:_2</text>
</a></g>
<g id="node29" class="node"><title>data:,Zone%202</title>
<a xlink:href="" onclick="show_data('Zone%202');" onmouseover="show_status('data:,Zone%202');">
<ellipse cx="104" cy="761" rx="53" ry="18" style="fill:#dca0dd;stroke:#dca0dd"/>
<text text-anchor="middle" x="104" y="765" style="font-family:arial">data:,Zone%202</text>
</a></g>
<g id="edge28" class="edge"><title>:_7-&gt;data:,Zone%202</title>
<a xlink:href="http://www2.elsevier.co.uk/~tony/1014/yads-schema-2002-04-03#resource" target="_blank" onmouseover="show_status('http://www2.elsevier.co.uk/~tony/1014/yads-schema-2002-04-03#resource');">
<path style="fill:none;stroke:#add9e6" d="M95,689C92,694 89,701 88,707 87,715 87,718 88,725 88,728 89,731 90,734"/>
<polygon style="fill:#add9e6;stroke:#add9e6" points="88,735 94,743 92,733 88,735"/>
<text text-anchor="middle" x="132" y="720" style="font-family:arial">has:resource</text>
</a></g>
<g id="node32" class="node"><title>data:,D3</title>
<a xlink:href="" onclick="show_data('D3');" onmouseover="show_status('data:,D3');">
<ellipse cx="211" cy="761" rx="30" ry="18" style="fill:#dca0dd;stroke:#dca0dd"/>
<text text-anchor="middle" x="211" y="765" style="font-family:arial">data:,D3</text>
</a></g>
<g id="edge31" class="edge"><title>:_8-&gt;data:,D3</title>
<a xlink:href="http://www2.elsevier.co.uk/~tony/1014/yads-schema-2002-04-03#resource" target="_blank" onmouseover="show_status('http://www2.elsevier.co.uk/~tony/1014/yads-schema-2002-04-03#resource');">
<path style="fill:none;stroke:#add9e6" d="M211,689C210,695 209,701 209,707 208,716 209,725 209,733"/>
<polygon style="fill:#add9e6;stroke:#add9e6" points="207,733 210,743 211,733 207,733"/>
<text text-anchor="middle" x="253" y="720" style="font-family:arial">has:resource</text>
</a></g>
<g id="node37" class="node"><title>:_11</title>
<ellipse cx="488" cy="671" rx="53" ry="18" style="fill:#eedb82;stroke:#eedb82"/>
<text text-anchor="middle" x="488" y="675" style="font-family:arial">tube:LineChange</text>
</g>
<g id="edge36" class="edge"><title>:_10-&gt;:_11</title>
<a xlink:href="http://www.w3.org/1999/02/22-rdf-syntax-ns#_1" target="_blank" onmouseover="show_status('http://www.w3.org/1999/02/22-rdf-syntax-ns#_1');">
<path style="fill:none;stroke:#add9e6" d="M488,584C488,600 488,625 488,644"/>
<polygon style="fill:#add9e6;stroke:#add9e6" points="486,643 488,653 491,643 486,643"/>
<text text-anchor="middle" x="508" y="615" style="font-family:arial">rdf:_1</text>
</a></g>
<g id="node39" class="node"><title>:_19</title>
<ellipse cx="929" cy="671" rx="53" ry="18" style="fill:#eedb82;stroke:#eedb82"/>
<text text-anchor="middle" x="929" y="675" style="font-family:arial">tube:LineChange</text>
</g>
<g id="edge38" class="edge"><title>:_10-&gt;:_19</title>
<a xlink:href="http://www.w3.org/1999/02/22-rdf-syntax-ns#_2" target="_blank" onmouseover="show_status('http://www.w3.org/1999/02/22-rdf-syntax-ns#_2');">
<path style="fill:none;stroke:#add9e6" d="M516,570C571,579 698,601 802,628 830,636 861,647 885,655"/>
<polygon style="fill:#add9e6;stroke:#add9e6" points="883,657 893,658 885,652 883,657"/>
<text text-anchor="middle" x="788" y="615" style="font-family:arial">rdf:_2</text>
</a></g>
<g id="node42" class="node"><title>doi:1014/tube/central_line</title>
<a xlink:href="http://dx.doi.org/1014/tube/central_line" target="_blank" onmouseover="show_status('http://dx.doi.org/1014/tube/central_line');">
<ellipse cx="379" cy="761" rx="74" ry="18" style="fill:#dca0dd;stroke:#dca0dd"/>
<text text-anchor="middle" x="379" y="765" style="font-family:arial">doi:1014/tube/central_line</text>
</a></g>
<g id="edge41" class="edge"><title>:_11-&gt;doi:1014/tube/central_line</title>
<a xlink:href="http://www2.elsevier.co.uk/~tony/1014/yads-schema-2002-04-03#resource" target="_blank" onmouseover="show_status('http://www2.elsevier.co.uk/~tony/1014/yads-schema-2002-04-03#resource');">
<path style="fill:none;stroke:#add9e6" d="M449,683C435,689 420,697 409,707 401,715 394,725 390,734"/>
<polygon style="fill:#add9e6;stroke:#add9e6" points="388,733 386,743 392,735 388,733"/>
<text text-anchor="middle" x="456" y="720" style="font-family:arial">has:resource</text>
</a></g>
<g id="node44" class="node"><title>:_12</title>
<a xlink:href="http://www.w3.org/1999/02/22-rdf-syntax-ns#Bag" target="_blank" onmouseover="show_status('http://www.w3.org/1999/02/22-rdf-syntax-ns#Bag');">
<ellipse cx="499" cy="761" rx="28" ry="18" style="fill:#d2d2d2;stroke:#d2d2d2"/>
<text text-anchor="middle" x="499" y="765" style="font-family:arial">rdf:Bag</text>
</a></g>
<g id="edge43" class="edge"><title>:_11-&gt;:_12</title>
<a xlink:href="http://www2.elsevier.co.uk/~tony/1014/yads-schema-2002-04-03#collection" target="_blank" onmouseover="show_status('http://www2.elsevier.co.uk/~tony/1014/yads-schema-2002-04-03#collection');">
<path style="fill:none;stroke:#add9e6" d="M490,689C492,702 494,719 496,734"/>
<polygon style="fill:#add9e6;stroke:#add9e6" points="493,733 497,743 498,733 493,733"/>
<text text-anchor="middle" x="537" y="720" style="font-family:arial">has:collection</text>
</a></g>
<g id="node70" class="node"><title>doi:1014/tube/hammersmith_&amp;_c...e</title>
<a xlink:href="http://dx.doi.org/1014/tube/hammersmith_&amp;_city_line" target="_blank" onmouseover="show_status('http://dx.doi.org/1014/tube/hammersmith_&amp;_city_line');">
<ellipse cx="929" cy="761" rx="115" ry="18" style="fill:#dca0dd;stroke:#dca0dd"/>
<text text-anchor="middle" x="929" y="765" style="font-family:arial">doi:1014/tube/hammersmith_&amp;_c...e</text>
</a></g>
<g id="edge70" class="edge"><title>:_19-&gt;doi:1014/tube/hammersmith_&amp;_c...e</title>
<a xlink:href="http://www2.elsevier.co.uk/~tony/1014/yads-schema-2002-04-03#resource" target="_blank" onmouseover="show_status('http://www2.elsevier.co.uk/~tony/1014/yads-schema-2002-04-03#resource');">
<path style="fill:none;stroke:#add9e6" d="M929,689C929,702 929,719 929,734"/>
<polygon style="fill:#add9e6;stroke:#add9e6" points="927,733 929,743 932,733 927,733"/>
<text text-anchor="middle" x="970" y="720" style="font-family:arial">has:resource</text>
</a></g>
<g id="node72" class="node"><title>:_20</title>
<a xlink:href="http://www.w3.org/1999/02/22-rdf-syntax-ns#Bag" target="_blank" onmouseover="show_status('http://www.w3.org/1999/02/22-rdf-syntax-ns#Bag');">
<ellipse cx="1090" cy="761" rx="28" ry="18" style="fill:#d2d2d2;stroke:#d2d2d2"/>
<text text-anchor="middle" x="1090" y="765" style="font-family:arial">rdf:Bag</text>
</a></g>
<g id="edge72" class="edge"><title>:_19-&gt;:_20</title>
<a xlink:href="http://www2.elsevier.co.uk/~tony/1014/yads-schema-2002-04-03#collection" target="_blank" onmouseover="show_status('http://www2.elsevier.co.uk/~tony/1014/yads-schema-2002-04-03#collection');">
<path style="fill:none;stroke:#add9e6" d="M965,684C981,691 999,699 1014,707 1032,717 1051,731 1065,742"/>
<polygon style="fill:#add9e6;stroke:#add9e6" points="1062,743 1072,747 1065,739 1062,743"/>
<text text-anchor="middle" x="1084" y="720" style="font-family:arial">has:collection</text>
</a></g>
<g id="node46" class="node"><title>:_13</title>
<ellipse cx="447" cy="872" rx="53" ry="18" style="fill:#eedb82;stroke:#eedb82"/>
<text text-anchor="middle" x="447" y="876" style="font-family:arial">tube:PrevStation</text>
</g>
<g id="edge45" class="edge"><title>:_12-&gt;:_13</title>
<a xlink:href="http://www.w3.org/1999/02/22-rdf-syntax-ns#_1" target="_blank" onmouseover="show_status('http://www.w3.org/1999/02/22-rdf-syntax-ns#_1');">
<path style="fill:none;stroke:#add9e6" d="M491,778C482,797 469,825 459,846"/>
<polygon style="fill:#add9e6;stroke:#add9e6" points="457,844 455,854 462,846 457,844"/>
<text text-anchor="middle" x="501" y="816" style="font-family:arial">rdf:_1</text>
</a></g>
<g id="node48" class="node"><title>:_16</title>
<ellipse cx="605" cy="872" rx="53" ry="18" style="fill:#eedb82;stroke:#eedb82"/>
<text text-anchor="middle" x="605" y="876" style="font-family:arial">tube:NextStation</text>
</g>
<g id="edge47" class="edge"><title>:_12-&gt;:_16</title>
<a xlink:href="http://www.w3.org/1999/02/22-rdf-syntax-ns#_2" target="_blank" onmouseover="show_status('http://www.w3.org/1999/02/22-rdf-syntax-ns#_2');">
<path style="fill:none;stroke:#add9e6" d="M514,776C531,795 561,826 582,848"/>
<polygon style="fill:#add9e6;stroke:#add9e6" points="580,849 588,855 583,846 580,849"/>
<text text-anchor="middle" x="578" y="816" style="font-family:arial">rdf:_2</text>
</a></g>
<g id="node51" class="node"><title>doi:1014/tube/white_city</title>
<a xlink:href="http://dx.doi.org/1014/tube/white_city" target="_blank" onmouseover="show_status('http://dx.doi.org/1014/tube/white_city');">
<ellipse cx="382" cy="962" rx="72" ry="18" style="fill:#dca0dd;stroke:#dca0dd"/>
<text text-anchor="middle" x="382" y="966" style="font-family:arial">doi:1014/tube/white_city</text>
</a></g>
<g id="edge50" class="edge"><title>:_13-&gt;doi:1014/tube/white_city</title>
<a xlink:href="http://www2.elsevier.co.uk/~tony/1014/yads-schema-2002-04-03#resource" target="_blank" onmouseover="show_status('http://www2.elsevier.co.uk/~tony/1014/yads-schema-2002-04-03#resource');">
<path style="fill:none;stroke:#add9e6" d="M403,882C390,888 376,896 368,908 363,916 364,926 367,935"/>
<polygon style="fill:#add9e6;stroke:#add9e6" points="365,936 371,944 369,934 365,936"/>
<text text-anchor="middle" x="412" y="921" style="font-family:arial">has:resource</text>
</a></g>
<g id="node53" class="node"><title>:_14</title>
<a xlink:href="http://www.w3.org/1999/02/22-rdf-syntax-ns#Bag" target="_blank" onmouseover="show_status('http://www.w3.org/1999/02/22-rdf-syntax-ns#Bag');">
<ellipse cx="500" cy="962" rx="28" ry="18" style="fill:#d2d2d2;stroke:#d2d2d2"/>
<text text-anchor="middle" x="500" y="966" style="font-family:arial">rdf:Bag</text>
</a></g>
<g id="edge52" class="edge"><title>:_13-&gt;:_14</title>
<a xlink:href="http://www2.elsevier.co.uk/~tony/1014/yads-schema-2002-04-03#collection" target="_blank" onmouseover="show_status('http://www2.elsevier.co.uk/~tony/1014/yads-schema-2002-04-03#collection');">
<path style="fill:none;stroke:#add9e6" d="M448,890C450,901 453,915 459,926 462,932 468,938 473,943"/>
<polygon style="fill:#add9e6;stroke:#add9e6" points="471,944 480,949 474,941 471,944"/>
<text text-anchor="middle" x="500" y="921" style="font-family:arial">has:collection</text>
</a></g>
<g id="node61" class="node"><title>doi:1014/tube/holland_park</title>
<a xlink:href="http://dx.doi.org/1014/tube/holland_park" target="_blank" onmouseover="show_status('http://dx.doi.org/1014/tube/holland_park');">
<ellipse cx="630" cy="962" rx="78" ry="18" style="fill:#dca0dd;stroke:#dca0dd"/>
<text text-anchor="middle" x="630" y="966" style="font-family:arial">doi:1014/tube/holland_park</text>
</a></g>
<g id="edge60" class="edge"><title>:_16-&gt;doi:1014/tube/holland_park</title>
<a xlink:href="http://www2.elsevier.co.uk/~tony/1014/yads-schema-2002-04-03#resource" target="_blank" onmouseover="show_status('http://www2.elsevier.co.uk/~tony/1014/yads-schema-2002-04-03#resource');">
<path style="fill:none;stroke:#add9e6" d="M608,890C610,901 613,914 616,926 617,929 618,932 619,935"/>
<polygon style="fill:#add9e6;stroke:#add9e6" points="616,935 622,944 621,934 616,935"/>
<text text-anchor="middle" x="657" y="921" style="font-family:arial">has:resource</text>
</a></g>
<g id="node63" class="node"><title>:_17</title>
<a xlink:href="http://www.w3.org/1999/02/22-rdf-syntax-ns#Bag" target="_blank" onmouseover="show_status('http://www.w3.org/1999/02/22-rdf-syntax-ns#Bag');">
<ellipse cx="754" cy="962" rx="28" ry="18" style="fill:#d2d2d2;stroke:#d2d2d2"/>
<text text-anchor="middle" x="754" y="966" style="font-family:arial">rdf:Bag</text>
</a></g>
<g id="edge62" class="edge"><title>:_16-&gt;:_17</title>
<a xlink:href="http://www2.elsevier.co.uk/~tony/1014/yads-schema-2002-04-03#collection" target="_blank" onmouseover="show_status('http://www2.elsevier.co.uk/~tony/1014/yads-schema-2002-04-03#collection');">
<path style="fill:none;stroke:#add9e6" d="M646,883C664,889 684,897 701,908 714,917 727,929 736,939"/>
<polygon style="fill:#add9e6;stroke:#add9e6" points="733,939 741,946 737,936 733,939"/>
<text text-anchor="middle" x="765" y="921" style="font-family:arial">has:collection</text>
</a></g>
<g id="node55" class="node"><title>:_15</title>
<ellipse cx="476" cy="1067" rx="33" ry="18" style="fill:#eedb82;stroke:#eedb82"/>
<text text-anchor="middle" x="476" y="1071" style="font-family:arial">tube:Mins</text>
</g>
<g id="edge54" class="edge"><title>:_14-&gt;:_15</title>
<a xlink:href="http://www.w3.org/1999/02/22-rdf-syntax-ns#_1" target="_blank" onmouseover="show_status('http://www.w3.org/1999/02/22-rdf-syntax-ns#_1');">
<path style="fill:none;stroke:#add9e6" d="M496,980C493,996 487,1021 482,1040"/>
<polygon style="fill:#add9e6;stroke:#add9e6" points="480,1039 480,1049 485,1040 480,1039"/>
<text text-anchor="middle" x="513" y="1011" style="font-family:arial">rdf:_1</text>
</a></g>
<g id="node58" class="node"><title>data:,2</title>
<a xlink:href="" onclick="show_data('2');" onmouseover="show_status('data:,2');">
<ellipse cx="493" cy="1163" rx="27" ry="18" style="fill:#dca0dd;stroke:#dca0dd"/>
<text text-anchor="middle" x="493" y="1167" style="font-family:arial">data:,2</text>
</a></g>
<g id="edge57" class="edge"><title>:_15-&gt;data:,2</title>
<a xlink:href="http://www2.elsevier.co.uk/~tony/1014/yads-schema-2002-04-03#resource" target="_blank" onmouseover="show_status('http://www2.elsevier.co.uk/~tony/1014/yads-schema-2002-04-03#resource');">
<path style="fill:none;stroke:#add9e6" d="M479,1085C482,1099 485,1120 488,1136"/>
<polygon style="fill:#add9e6;stroke:#add9e6" points="485,1136 490,1145 490,1135 485,1136"/>
<text text-anchor="middle" x="528" y="1122" style="font-family:arial">has:resource</text>
</a></g>
<g id="node65" class="node"><title>:_18</title>
<ellipse cx="630" cy="1067" rx="33" ry="18" style="fill:#eedb82;stroke:#eedb82"/>
<text text-anchor="middle" x="630" y="1071" style="font-family:arial">tube:Mins</text>
</g>
<g id="edge64" class="edge"><title>:_17-&gt;:_18</title>
<a xlink:href="http://www.w3.org/1999/02/22-rdf-syntax-ns#_1" target="_blank" onmouseover="show_status('http://www.w3.org/1999/02/22-rdf-syntax-ns#_1');">
<path style="fill:none;stroke:#add9e6" d="M737,976C716,994 680,1024 656,1045"/>
<polygon style="fill:#add9e6;stroke:#add9e6" points="654,1044 648,1052 657,1047 654,1044"/>
<text text-anchor="middle" x="731" y="1011" style="font-family:arial">rdf:_1</text>
</a></g>
<g id="edge67" class="edge"><title>:_18-&gt;data:,2</title>
<a xlink:href="http://www2.elsevier.co.uk/~tony/1014/yads-schema-2002-04-03#resource" target="_blank" onmouseover="show_status('http://www2.elsevier.co.uk/~tony/1014/yads-schema-2002-04-03#resource');">
<path style="fill:none;stroke:#add9e6" d="M617,1084C606,1097 590,1115 572,1127 558,1137 541,1146 525,1152"/>
<polygon style="fill:#add9e6;stroke:#add9e6" points="525,1149 517,1155 527,1154 525,1149"/>
<text text-anchor="middle" x="638" y="1122" style="font-family:arial">has:resource</text>
</a></g>
<g id="node74" class="node"><title>:_21</title>
<ellipse cx="1144" cy="872" rx="53" ry="18" style="fill:#eedb82;stroke:#eedb82"/>
<text text-anchor="middle" x="1144" y="876" style="font-family:arial">tube:PrevStation</text>
</g>
<g id="edge74" class="edge"><title>:_20-&gt;:_21</title>
<a xlink:href="http://www.w3.org/1999/02/22-rdf-syntax-ns#_1" target="_blank" onmouseover="show_status('http://www.w3.org/1999/02/22-rdf-syntax-ns#_1');">
<path style="fill:none;stroke:#add9e6" d="M1098,778C1108,797 1121,825 1131,846"/>
<polygon style="fill:#add9e6;stroke:#add9e6" points="1128,846 1135,854 1133,844 1128,846"/>
<text text-anchor="middle" x="1140" y="816" style="font-family:arial">rdf:_1</text>
</a></g>
<g id="node76" class="node"><title>:_24</title>
<ellipse cx="971" cy="872" rx="53" ry="18" style="fill:#eedb82;stroke:#eedb82"/>
<text text-anchor="middle" x="971" y="876" style="font-family:arial">tube:NextStation</text>
</g>
<g id="edge76" class="edge"><title>:_20-&gt;:_24</title>
<a xlink:href="http://www.w3.org/1999/02/22-rdf-syntax-ns#_2" target="_blank" onmouseover="show_status('http://www.w3.org/1999/02/22-rdf-syntax-ns#_2');">
<path style="fill:none;stroke:#add9e6" d="M1074,776C1053,795 1017,828 994,850"/>
<polygon style="fill:#add9e6;stroke:#add9e6" points="994,846 989,855 998,850 994,846"/>
<text text-anchor="middle" x="1069" y="816" style="font-family:arial">rdf:_2</text>
</a></g>
<g id="node79" class="node"><title>doi:1014/tube/goldhawk_road</title>
<a xlink:href="http://dx.doi.org/1014/tube/goldhawk_road" target="_blank" onmouseover="show_status('http://dx.doi.org/1014/tube/goldhawk_road');">
<ellipse cx="1163" cy="962" rx="87" ry="18" style="fill:#dca0dd;stroke:#dca0dd"/>
<text text-anchor="middle" x="1163" y="966" style="font-family:arial">doi:1014/tube/goldhawk_road</text>
</a></g>
<g id="edge79" class="edge"><title>:_21-&gt;doi:1014/tube/goldhawk_road</title>
<a xlink:href="http://www2.elsevier.co.uk/~tony/1014/yads-schema-2002-04-03#resource" target="_blank" onmouseover="show_status('http://www2.elsevier.co.uk/~tony/1014/yads-schema-2002-04-03#resource');">
<path style="fill:none;stroke:#add9e6" d="M1148,890C1150,903 1154,920 1157,935"/>
<polygon style="fill:#add9e6;stroke:#add9e6" points="1154,935 1159,944 1159,934 1154,935"/>
<text text-anchor="middle" x="1198" y="921" style="font-family:arial">has:resource</text>
</a></g>
<g id="node81" class="node"><title>:_22</title>
<a xlink:href="http://www.w3.org/1999/02/22-rdf-syntax-ns#Bag" target="_blank" onmouseover="show_status('http://www.w3.org/1999/02/22-rdf-syntax-ns#Bag');">
<ellipse cx="1296" cy="962" rx="28" ry="18" style="fill:#d2d2d2;stroke:#d2d2d2"/>
<text text-anchor="middle" x="1296" y="966" style="font-family:arial">rdf:Bag</text>
</a></g>
<g id="edge81" class="edge"><title>:_21-&gt;:_22</title>
<a xlink:href="http://www2.elsevier.co.uk/~tony/1014/yads-schema-2002-04-03#collection" target="_blank" onmouseover="show_status('http://www2.elsevier.co.uk/~tony/1014/yads-schema-2002-04-03#collection');">
<path style="fill:none;stroke:#add9e6" d="M1186,883C1210,890 1235,899 1242,908 1244,912 1241,923 1243,926 1248,935 1256,942 1264,947"/>
<polygon style="fill:#add9e6;stroke:#add9e6" points="1262,949 1272,952 1265,945 1262,949"/>
<text text-anchor="middle" x="1284" y="921" style="font-family:arial">has:collection</text>
</a></g>
<g id="node89" class="node"><title>doi:1014/tube/latimer_road</title>
<a xlink:href="http://dx.doi.org/1014/tube/latimer_road" target="_blank" onmouseover="show_status('http://dx.doi.org/1014/tube/latimer_road');">
<ellipse cx="900" cy="962" rx="78" ry="18" style="fill:#dca0dd;stroke:#dca0dd"/>
<text text-anchor="middle" x="900" y="966" style="font-family:arial">doi:1014/tube/latimer_road</text>
</a></g>
<g id="edge89" class="edge"><title>:_24-&gt;doi:1014/tube/latimer_road</title>
<a xlink:href="http://www2.elsevier.co.uk/~tony/1014/yads-schema-2002-04-03#resource" target="_blank" onmouseover="show_status('http://www2.elsevier.co.uk/~tony/1014/yads-schema-2002-04-03#resource');">
<path style="fill:none;stroke:#add9e6" d="M927,882C914,888 900,896 892,908 887,916 887,926 889,935"/>
<polygon style="fill:#add9e6;stroke:#add9e6" points="886,935 891,944 891,934 886,935"/>
<text text-anchor="middle" x="936" y="921" style="font-family:arial">has:resource</text>
</a></g>
<g id="node91" class="node"><title>:_25</title>
<a xlink:href="http://www.w3.org/1999/02/22-rdf-syntax-ns#Bag" target="_blank" onmouseover="show_status('http://www.w3.org/1999/02/22-rdf-syntax-ns#Bag');">
<ellipse cx="1024" cy="962" rx="28" ry="18" style="fill:#d2d2d2;stroke:#d2d2d2"/>
<text text-anchor="middle" x="1024" y="966" style="font-family:arial">rdf:Bag</text>
</a></g>
<g id="edge91" class="edge"><title>:_24-&gt;:_25</title>
<a xlink:href="http://www2.elsevier.co.uk/~tony/1014/yads-schema-2002-04-03#collection" target="_blank" onmouseover="show_status('http://www2.elsevier.co.uk/~tony/1014/yads-schema-2002-04-03#collection');">
<path style="fill:none;stroke:#add9e6" d="M972,890C974,901 977,915 983,926 986,932 992,938 997,943"/>
<polygon style="fill:#add9e6;stroke:#add9e6" points="995,944 1004,949 998,941 995,944"/>
<text text-anchor="middle" x="1024" y="921" style="font-family:arial">has:collection</text>
</a></g>
<g id="node83" class="node"><title>:_23</title>
<ellipse cx="1272" cy="1067" rx="33" ry="18" style="fill:#eedb82;stroke:#eedb82"/>
<text text-anchor="middle" x="1272" y="1071" style="font-family:arial">tube:Mins</text>
</g>
<g id="edge83" class="edge"><title>:_22-&gt;:_23</title>
<a xlink:href="http://www.w3.org/1999/02/22-rdf-syntax-ns#_1" target="_blank" onmouseover="show_status('http://www.w3.org/1999/02/22-rdf-syntax-ns#_1');">
<path style="fill:none;stroke:#add9e6" d="M1290,980C1288,985 1286,992 1284,998 1281,1012 1278,1027 1275,1040"/>
<polygon style="fill:#add9e6;stroke:#add9e6" points="1273,1039 1274,1049 1278,1039 1273,1039"/>
<text text-anchor="middle" x="1304" y="1011" style="font-family:arial">rdf:_1</text>
</a></g>
<g id="node86" class="node"><title>data:,1</title>
<a xlink:href="" onclick="show_data('1');" onmouseover="show_status('data:,1');">
<ellipse cx="1262" cy="1163" rx="27" ry="18" style="fill:#dca0dd;stroke:#dca0dd"/>
<text text-anchor="middle" x="1262" y="1167" style="font-family:arial">data:,1</text>
</a></g>
<g id="edge86" class="edge"><title>:_23-&gt;data:,1</title>
<a xlink:href="http://www2.elsevier.co.uk/~tony/1014/yads-schema-2002-04-03#resource" target="_blank" onmouseover="show_status('http://www2.elsevier.co.uk/~tony/1014/yads-schema-2002-04-03#resource');">
<path style="fill:none;stroke:#add9e6" d="M1257,1083C1252,1091 1246,1100 1243,1109 1240,1119 1242,1129 1246,1138"/>
<polygon style="fill:#add9e6;stroke:#add9e6" points="1243,1138 1250,1146 1248,1136 1243,1138"/>
<text text-anchor="middle" x="1284" y="1122" style="font-family:arial">has:resource</text>
</a></g>
<g id="node93" class="node"><title>:_26</title>
<ellipse cx="900" cy="1067" rx="33" ry="18" style="fill:#eedb82;stroke:#eedb82"/>
<text text-anchor="middle" x="900" y="1071" style="font-family:arial">tube:Mins</text>
</g>
<g id="edge93" class="edge"><title>:_25-&gt;:_26</title>
<a xlink:href="http://www.w3.org/1999/02/22-rdf-syntax-ns#_1" target="_blank" onmouseover="show_status('http://www.w3.org/1999/02/22-rdf-syntax-ns#_1');">
<path style="fill:none;stroke:#add9e6" d="M1007,976C986,994 950,1024 926,1045"/>
<polygon style="fill:#add9e6;stroke:#add9e6" points="924,1044 918,1052 927,1047 924,1044"/>
<text text-anchor="middle" x="1001" y="1011" style="font-family:arial">rdf:_1</text>
</a></g>
<g id="edge96" class="edge"><title>:_26-&gt;data:,2</title>
<a xlink:href="http://www2.elsevier.co.uk/~tony/1014/yads-schema-2002-04-03#resource" target="_blank" onmouseover="show_status('http://www2.elsevier.co.uk/~tony/1014/yads-schema-2002-04-03#resource');">
<path style="fill:none;stroke:#add9e6" d="M872,1076C811,1096 661,1142 529,1161"/>
<polygon style="fill:#add9e6;stroke:#add9e6" points="530,1158 520,1162 530,1163 530,1158"/>
<text text-anchor="middle" x="813" y="1122" style="font-family:arial">has:resource</text>
</a></g>
</g>
</svg>
