<?xml version="1.0" encoding="UTF-8" standalone="no"?>
<!DOCTYPE svg PUBLIC "-//W3C//DTD SVG 1.0//EN"
 "http://www.w3.org/TR/2001/REC-SVG-20010904/DTD/svg10.dtd" [
 <!ATTLIST svg xmlns:xlink CDATA #FIXED "http://www.w3.org/1999/xlink">
]>
<!-- Generated by dot version 1.8.5 (Tue Apr 23 17:19:23  2002)
     For user: (Administrator) ,S-1-5-21-1454471165-688789844-1708537768-500   Title: yads    Pages: 1 -->
<svg width="965px" height="1266px"
 xmlns="http://www.w3.org/2000/svg" xmlns:xlink="http://www.w3.org/1999/xlink">
<g id="graph0" class="graph" style="font-family:Times-Roman;font-size:11.00">
<title>yads</title>
<text text-anchor="middle" x="482" y="1255" style="font-family:arial;font-size:24.00">YADS - A Description Service</text>
<g id="graph2" class="cluster"><title>cluster_1</title>
<polygon style="fill:none;stroke:#d2d2d2;stroke-dasharray:5,2" points="19,1223 946,1223 946,43 19,43 19,1223"/>
<text text-anchor="middle" x="112" y="55" style="font-family:arial">Nest - South Wimbledon Station</text>
</g>
<g id="graph3" class="cluster"><title>cluster_3</title>
<polygon style="fill:none;stroke:#d2d2d2;stroke-dasharray:5,2" points="27,1215 938,1215 938,238 27,238 27,1215"/>
<text text-anchor="middle" x="99" y="250" style="font-family:arial">Nest - Application Profile</text>
</g>
<g id="graph4" class="cluster"><title>cluster_5</title>
<polygon style="fill:none;stroke:#d2d2d2;stroke-dasharray:5,2" points="35,795 408,795 408,433 35,433 35,795"/>
<text text-anchor="middle" x="80" y="445" style="font-family:arial">Item - Location</text>
</g>
<g id="graph5" class="cluster"><title>cluster_7</title>
<polygon style="fill:none;stroke:#d2d2d2;stroke-dasharray:5,2" points="43,787 165,787 165,628 43,628 43,787"/>
<text text-anchor="middle" x="59" y="640" style="font-family:arial">Item</text>
</g>
<g id="graph6" class="cluster"><title>cluster_8</title>
<polygon style="fill:none;stroke:#d2d2d2;stroke-dasharray:5,2" points="173,787 295,787 295,628 173,628 173,787"/>
<text text-anchor="middle" x="189" y="640" style="font-family:arial">Item</text>
</g>
<g id="graph7" class="cluster"><title>cluster_9</title>
<polygon style="fill:none;stroke:#d2d2d2;stroke-dasharray:5,2" points="303,787 400,787 400,628 303,628 303,787"/>
<text text-anchor="middle" x="319" y="640" style="font-family:arial">Item</text>
</g>
<g id="graph8" class="cluster"><title>cluster_10</title>
<polygon style="fill:none;stroke:#d2d2d2;stroke-dasharray:5,2" points="416,1207 930,1207 930,433 416,433 416,1207"/>
<text text-anchor="middle" x="485" y="445" style="font-family:arial">Item - Line Interchanges</text>
</g>
<g id="graph9" class="cluster"><title>cluster_12</title>
<polygon style="fill:none;stroke:#d2d2d2;stroke-dasharray:5,2" points="424,1199 922,1199 922,628 424,628 424,1199"/>
<text text-anchor="middle" x="492" y="640" style="font-family:arial">Nest - Line Interchange</text>
</g>
<g id="graph10" class="cluster"><title>cluster_14</title>
<polygon style="fill:none;stroke:#d2d2d2;stroke-dasharray:5,2" points="432,1191 686,1191 686,829 432,829 432,1191"/>
<text text-anchor="middle" x="500" y="841" style="font-family:arial">Nest - Next Stop Back</text>
</g>
<g id="graph11" class="cluster"><title>cluster_16</title>
<polygon style="fill:none;stroke:#d2d2d2;stroke-dasharray:5,2" points="581,1183 678,1183 678,1024 581,1024 581,1183"/>
<text text-anchor="middle" x="597" y="1036" style="font-family:arial">Item</text>
</g>
<g id="graph12" class="cluster"><title>cluster_17</title>
<polygon style="fill:none;stroke:#d2d2d2;stroke-dasharray:5,2" points="694,1191 914,1191 914,829 694,829 694,1191"/>
<text text-anchor="middle" x="746" y="841" style="font-family:arial">Nest - Next Stop</text>
</g>
<g id="graph13" class="cluster"><title>cluster_19</title>
<polygon style="fill:none;stroke:#d2d2d2;stroke-dasharray:5,2" points="809,1183 906,1183 906,1024 809,1024 809,1183"/>
<text text-anchor="middle" x="825" y="1036" style="font-family:arial">Item</text>
</g>
<g id="node2" class="node"><title>:_1</title>
<ellipse cx="316" cy="86" rx="40" ry="18" style="fill:#eedb82;stroke:#eedb82"/>
<text text-anchor="middle" x="316" y="90" style="font-family:arial">tube:Station</text>
</g>
<g id="node4" class="node"><title>doi:1014/tube/south_wimbledon</title>
<a xlink:href="http://dx.doi.org/1014/tube/south_wimbledon" target="_blank" onmouseover="show_status('http://dx.doi.org/1014/tube/south_wimbledon');">
<ellipse cx="153" cy="176" rx="92" ry="18" style="fill:#dca0dd;stroke:#dca0dd"/>
<text text-anchor="middle" x="153" y="180" style="font-family:arial">doi:1014/tube/south_wimbledon</text>
</a></g>
<g id="edge3" class="edge"><title>:_1-&gt;doi:1014/tube/south_wimbledon</title>
<a xlink:href="http://www2.elsevier.co.uk/~tony/1014/yads-schema-2002-04-03#resource" target="_blank" onmouseover="show_status('http://www2.elsevier.co.uk/~tony/1014/yads-schema-2002-04-03#resource');">
<path style="fill:none;stroke:#add9e6" d="M285,98C269,104 248,113 231,122 215,131 198,143 184,153"/>
<polygon style="fill:#add9e6;stroke:#add9e6" points="183,151 176,158 186,155 183,151"/>
<text text-anchor="middle" x="278" y="135" style="font-family:arial">has:resource</text>
</a></g>
<g id="node6" class="node"><title>node_1</title>
<polygon style="fill:#6497ed;stroke:#6497ed" points="369,158 263,158 263,194 369,194 369,158"/>
<text text-anchor="middle" x="316" y="180" style="font-family:arial">South Wimbledon</text>
</g>
<g id="edge5" class="edge"><title>:_1-&gt;node_1</title>
<a xlink:href="http://www2.elsevier.co.uk/~tony/1014/yads-schema-2002-04-03#label" target="_blank" onmouseover="show_status('http://www2.elsevier.co.uk/~tony/1014/yads-schema-2002-04-03#label');">
<path style="fill:none;stroke:#add9e6" d="M316,104C316,117 316,134 316,149"/>
<polygon style="fill:#add9e6;stroke:#add9e6" points="314,148 316,158 319,148 314,148"/>
<text text-anchor="middle" x="343" y="135" style="font-family:arial">has:label</text>
</a></g>
<g id="node8" class="node"><title>:_2</title>
<a xlink:href="http://www.w3.org/1999/02/22-rdf-syntax-ns#Bag" target="_blank" onmouseover="show_status('http://www.w3.org/1999/02/22-rdf-syntax-ns#Bag');">
<ellipse cx="415" cy="176" rx="28" ry="18" style="fill:#d2d2d2;stroke:#d2d2d2"/>
<text text-anchor="middle" x="415" y="180" style="font-family:arial">rdf:Bag</text>
</a></g>
<g id="edge7" class="edge"><title>:_1-&gt;:_2</title>
<a xlink:href="http://www2.elsevier.co.uk/~tony/1014/yads-schema-2002-04-03#collection" target="_blank" onmouseover="show_status('http://www2.elsevier.co.uk/~tony/1014/yads-schema-2002-04-03#collection');">
<path style="fill:none;stroke:#add9e6" d="M343,100C354,106 366,113 375,122 384,131 393,142 400,152"/>
<polygon style="fill:#add9e6;stroke:#add9e6" points="397,152 405,159 401,149 397,152"/>
<text text-anchor="middle" x="433" y="135" style="font-family:arial">has:collection</text>
</a></g>
<g id="node10" class="node"><title>:_3</title>
<ellipse cx="415" cy="281" rx="34" ry="18" style="fill:#eedb82;stroke:#eedb82"/>
<text text-anchor="middle" x="415" y="285" style="font-family:arial">doi:Profile</text>
</g>
<g id="edge9" class="edge"><title>:_2-&gt;:_3</title>
<a xlink:href="http://www.w3.org/1999/02/22-rdf-syntax-ns#_1" target="_blank" onmouseover="show_status('http://www.w3.org/1999/02/22-rdf-syntax-ns#_1');">
<path style="fill:none;stroke:#add9e6" d="M415,194C415,210 415,235 415,254"/>
<polygon style="fill:#add9e6;stroke:#add9e6" points="413,253 415,263 418,253 413,253"/>
<text text-anchor="middle" x="435" y="225" style="font-family:arial">rdf:_1</text>
</a></g>
<g id="node13" class="node"><title>doi:1014/profile.tube</title>
<a xlink:href="http://dx.doi.org/1014/profile.tube" target="_blank" onmouseover="show_status('http://dx.doi.org/1014/profile.tube');">
<ellipse cx="347" cy="371" rx="59" ry="18" style="fill:#dca0dd;stroke:#dca0dd"/>
<text text-anchor="middle" x="347" y="375" style="font-family:arial">doi:1014/profile.tube</text>
</a></g>
<g id="edge12" class="edge"><title>:_3-&gt;doi:1014/profile.tube</title>
<a xlink:href="http://www2.elsevier.co.uk/~tony/1014/yads-schema-2002-04-03#resource" target="_blank" onmouseover="show_status('http://www2.elsevier.co.uk/~tony/1014/yads-schema-2002-04-03#resource');">
<path style="fill:none;stroke:#add9e6" d="M385,290C371,295 356,304 348,317 344,325 342,335 343,344"/>
<polygon style="fill:#add9e6;stroke:#add9e6" points="341,343 343,353 346,343 341,343"/>
<text text-anchor="middle" x="392" y="330" style="font-family:arial">has:resource</text>
</a></g>
<g id="node15" class="node"><title>:_4</title>
<a xlink:href="http://www.w3.org/1999/02/22-rdf-syntax-ns#Bag" target="_blank" onmouseover="show_status('http://www.w3.org/1999/02/22-rdf-syntax-ns#Bag');">
<ellipse cx="452" cy="371" rx="28" ry="18" style="fill:#d2d2d2;stroke:#d2d2d2"/>
<text text-anchor="middle" x="452" y="375" style="font-family:arial">rdf:Bag</text>
</a></g>
<g id="edge14" class="edge"><title>:_3-&gt;:_4</title>
<a xlink:href="http://www2.elsevier.co.uk/~tony/1014/yads-schema-2002-04-03#collection" target="_blank" onmouseover="show_status('http://www2.elsevier.co.uk/~tony/1014/yads-schema-2002-04-03#collection');">
<path style="fill:none;stroke:#add9e6" d="M425,299C428,304 431,311 433,317 437,326 440,335 443,344"/>
<polygon style="fill:#add9e6;stroke:#add9e6" points="440,344 446,353 445,343 440,344"/>
<text text-anchor="middle" x="481" y="330" style="font-family:arial">has:collection</text>
</a></g>
<g id="node17" class="node"><title>:_5</title>
<a xlink:href="http://www2.elsevier.co.uk/~tony/1014/yads-schema-2002-04-03#Item" target="_blank" onmouseover="show_status('http://www2.elsevier.co.uk/~tony/1014/yads-schema-2002-04-03#Item');">
<ellipse cx="351" cy="476" rx="28" ry="18" style="fill:#d2d2d2;stroke:#d2d2d2"/>
<text text-anchor="middle" x="351" y="480" style="font-family:arial">isa:Item</text>
</a></g>
<g id="edge16" class="edge"><title>:_4-&gt;:_5</title>
<a xlink:href="http://www.w3.org/1999/02/22-rdf-syntax-ns#_1" target="_blank" onmouseover="show_status('http://www.w3.org/1999/02/22-rdf-syntax-ns#_1');">
<path style="fill:none;stroke:#add9e6" d="M437,386C420,404 391,434 372,454"/>
<polygon style="fill:#add9e6;stroke:#add9e6" points="371,451 366,460 375,455 371,451"/>
<text text-anchor="middle" x="440" y="420" style="font-family:arial">rdf:_1</text>
</a></g>
<g id="node19" class="node"><title>:_10</title>
<a xlink:href="http://www2.elsevier.co.uk/~tony/1014/yads-schema-2002-04-03#Item" target="_blank" onmouseover="show_status('http://www2.elsevier.co.uk/~tony/1014/yads-schema-2002-04-03#Item');">
<ellipse cx="481" cy="476" rx="28" ry="18" style="fill:#d2d2d2;stroke:#d2d2d2"/>
<text text-anchor="middle" x="481" y="480" style="font-family:arial">isa:Item</text>
</a></g>
<g id="edge18" class="edge"><title>:_4-&gt;:_10</title>
<a xlink:href="http://www.w3.org/1999/02/22-rdf-syntax-ns#_2" target="_blank" onmouseover="show_status('http://www.w3.org/1999/02/22-rdf-syntax-ns#_2');">
<path style="fill:none;stroke:#add9e6" d="M457,389C461,405 469,431 474,449"/>
<polygon style="fill:#add9e6;stroke:#add9e6" points="471,449 476,458 476,448 471,449"/>
<text text-anchor="middle" x="488" y="420" style="font-family:arial">rdf:_2</text>
</a></g>
<g id="node22" class="node"><title>:_6</title>
<a xlink:href="http://www.w3.org/1999/02/22-rdf-syntax-ns#Bag" target="_blank" onmouseover="show_status('http://www.w3.org/1999/02/22-rdf-syntax-ns#Bag');">
<ellipse cx="266" cy="566" rx="28" ry="18" style="fill:#d2d2d2;stroke:#d2d2d2"/>
<text text-anchor="middle" x="266" y="570" style="font-family:arial">rdf:Bag</text>
</a></g>
<g id="edge21" class="edge"><title>:_5-&gt;:_6</title>
<a xlink:href="http://www2.elsevier.co.uk/~tony/1014/yads-schema-2002-04-03#collection" target="_blank" onmouseover="show_status('http://www2.elsevier.co.uk/~tony/1014/yads-schema-2002-04-03#collection');">
<path style="fill:none;stroke:#add9e6" d="M336,492C323,506 302,528 287,544"/>
<polygon style="fill:#add9e6;stroke:#add9e6" points="286,541 281,550 290,545 286,541"/>
<text text-anchor="middle" x="358" y="525" style="font-family:arial">has:collection</text>
</a></g>
<g id="node40" class="node"><title>:_11</title>
<a xlink:href="http://www.w3.org/1999/02/22-rdf-syntax-ns#Bag" target="_blank" onmouseover="show_status('http://www.w3.org/1999/02/22-rdf-syntax-ns#Bag');">
<ellipse cx="503" cy="566" rx="28" ry="18" style="fill:#d2d2d2;stroke:#d2d2d2"/>
<text text-anchor="middle" x="503" y="570" style="font-family:arial">rdf:Bag</text>
</a></g>
<g id="edge39" class="edge"><title>:_10-&gt;:_11</title>
<a xlink:href="http://www2.elsevier.co.uk/~tony/1014/yads-schema-2002-04-03#collection" target="_blank" onmouseover="show_status('http://www2.elsevier.co.uk/~tony/1014/yads-schema-2002-04-03#collection');">
<path style="fill:none;stroke:#add9e6" d="M485,494C488,507 493,524 497,539"/>
<polygon style="fill:#add9e6;stroke:#add9e6" points="494,539 499,548 499,538 494,539"/>
<text text-anchor="middle" x="537" y="525" style="font-family:arial">has:collection</text>
</a></g>
<g id="node24" class="node"><title>:_7</title>
<ellipse cx="104" cy="671" rx="35" ry="18" style="fill:#eedb82;stroke:#eedb82"/>
<text text-anchor="middle" x="104" y="675" style="font-family:arial">tube:Zone</text>
</g>
<g id="edge23" class="edge"><title>:_6-&gt;:_7</title>
<a xlink:href="http://www.w3.org/1999/02/22-rdf-syntax-ns#_1" target="_blank" onmouseover="show_status('http://www.w3.org/1999/02/22-rdf-syntax-ns#_1');">
<path style="fill:none;stroke:#add9e6" d="M244,577C232,585 224,591 206,602 181,619 152,638 132,652"/>
<polygon style="fill:#add9e6;stroke:#add9e6" points="132,649 125,657 135,653 132,649"/>
<text text-anchor="middle" x="232" y="615" style="font-family:arial">rdf:_1</text>
</a></g>
<g id="node26" class="node"><title>:_8</title>
<ellipse cx="234" cy="671" rx="35" ry="18" style="fill:#eedb82;stroke:#eedb82"/>
<text text-anchor="middle" x="234" y="675" style="font-family:arial">tube:Zone</text>
</g>
<g id="edge25" class="edge"><title>:_6-&gt;:_8</title>
<a xlink:href="http://www.w3.org/1999/02/22-rdf-syntax-ns#_2" target="_blank" onmouseover="show_status('http://www.w3.org/1999/02/22-rdf-syntax-ns#_2');">
<path style="fill:none;stroke:#add9e6" d="M261,584C256,600 248,626 242,645"/>
<polygon style="fill:#add9e6;stroke:#add9e6" points="240,643 239,653 245,645 240,643"/>
<text text-anchor="middle" x="277" y="615" style="font-family:arial">rdf:_2</text>
</a></g>
<g id="node28" class="node"><title>:_9</title>
<ellipse cx="343" cy="671" rx="32" ry="18" style="fill:#eedb82;stroke:#eedb82"/>
<text text-anchor="middle" x="343" y="675" style="font-family:arial">tube:Grid</text>
</g>
<g id="edge27" class="edge"><title>:_6-&gt;:_9</title>
<a xlink:href="http://www.w3.org/1999/02/22-rdf-syntax-ns#_3" target="_blank" onmouseover="show_status('http://www.w3.org/1999/02/22-rdf-syntax-ns#_3');">
<path style="fill:none;stroke:#add9e6" d="M283,581C290,587 297,594 303,602 314,615 323,632 331,646"/>
<polygon style="fill:#add9e6;stroke:#add9e6" points="328,646 335,653 332,643 328,646"/>
<text text-anchor="middle" x="337" y="615" style="font-family:arial">rdf:_3</text>
</a></g>
<g id="node31" class="node"><title>data:,Zone%203</title>
<a xlink:href="" onclick="show_data('Zone%203');" onmouseover="show_status('data:,Zone%203');">
<ellipse cx="104" cy="761" rx="53" ry="18" style="fill:#dca0dd;stroke:#dca0dd"/>
<text text-anchor="middle" x="104" y="765" style="font-family:arial">data:,Zone%203</text>
</a></g>
<g id="edge30" class="edge"><title>:_7-&gt;data:,Zone%203</title>
<a xlink:href="http://www2.elsevier.co.uk/~tony/1014/yads-schema-2002-04-03#resource" target="_blank" onmouseover="show_status('http://www2.elsevier.co.uk/~tony/1014/yads-schema-2002-04-03#resource');">
<path style="fill:none;stroke:#add9e6" d="M95,689C92,694 89,701 88,707 87,715 87,718 88,725 88,728 89,731 90,734"/>
<polygon style="fill:#add9e6;stroke:#add9e6" points="88,735 94,743 92,733 88,735"/>
<text text-anchor="middle" x="132" y="720" style="font-family:arial">has:resource</text>
</a></g>
<g id="node34" class="node"><title>data:,Zone%204</title>
<a xlink:href="" onclick="show_data('Zone%204');" onmouseover="show_status('data:,Zone%204');">
<ellipse cx="234" cy="761" rx="53" ry="18" style="fill:#dca0dd;stroke:#dca0dd"/>
<text text-anchor="middle" x="234" y="765" style="font-family:arial">data:,Zone%204</text>
</a></g>
<g id="edge33" class="edge"><title>:_8-&gt;data:,Zone%204</title>
<a xlink:href="http://www2.elsevier.co.uk/~tony/1014/yads-schema-2002-04-03#resource" target="_blank" onmouseover="show_status('http://www2.elsevier.co.uk/~tony/1014/yads-schema-2002-04-03#resource');">
<path style="fill:none;stroke:#add9e6" d="M225,689C222,694 219,701 218,707 217,715 217,718 218,725 218,728 219,731 220,734"/>
<polygon style="fill:#add9e6;stroke:#add9e6" points="218,735 224,743 222,733 218,735"/>
<text text-anchor="middle" x="262" y="720" style="font-family:arial">has:resource</text>
</a></g>
<g id="node37" class="node"><title>data:,F4</title>
<a xlink:href="" onclick="show_data('F4');" onmouseover="show_status('data:,F4');">
<ellipse cx="340" cy="761" rx="29" ry="18" style="fill:#dca0dd;stroke:#dca0dd"/>
<text text-anchor="middle" x="340" y="765" style="font-family:arial">data:,F4</text>
</a></g>
<g id="edge36" class="edge"><title>:_9-&gt;data:,F4</title>
<a xlink:href="http://www2.elsevier.co.uk/~tony/1014/yads-schema-2002-04-03#resource" target="_blank" onmouseover="show_status('http://www2.elsevier.co.uk/~tony/1014/yads-schema-2002-04-03#resource');">
<path style="fill:none;stroke:#add9e6" d="M341,689C340,695 339,701 339,707 338,716 339,725 339,733"/>
<polygon style="fill:#add9e6;stroke:#add9e6" points="337,733 339,743 342,733 337,733"/>
<text text-anchor="middle" x="383" y="720" style="font-family:arial">has:resource</text>
</a></g>
<g id="node42" class="node"><title>:_12</title>
<ellipse cx="511" cy="671" rx="53" ry="18" style="fill:#eedb82;stroke:#eedb82"/>
<text text-anchor="middle" x="511" y="675" style="font-family:arial">tube:LineChange</text>
</g>
<g id="edge41" class="edge"><title>:_11-&gt;:_12</title>
<a xlink:href="http://www.w3.org/1999/02/22-rdf-syntax-ns#_1" target="_blank" onmouseover="show_status('http://www.w3.org/1999/02/22-rdf-syntax-ns#_1');">
<path style="fill:none;stroke:#add9e6" d="M504,584C506,600 507,625 509,644"/>
<polygon style="fill:#add9e6;stroke:#add9e6" points="506,643 510,653 511,643 506,643"/>
<text text-anchor="middle" x="527" y="615" style="font-family:arial">rdf:_1</text>
</a></g>
<g id="node45" class="node"><title>doi:1014/tube/northern_line</title>
<a xlink:href="http://dx.doi.org/1014/tube/northern_line" target="_blank" onmouseover="show_status('http://dx.doi.org/1014/tube/northern_line');">
<ellipse cx="511" cy="761" rx="79" ry="18" style="fill:#dca0dd;stroke:#dca0dd"/>
<text text-anchor="middle" x="511" y="765" style="font-family:arial">doi:1014/tube/northern_line</text>
</a></g>
<g id="edge44" class="edge"><title>:_12-&gt;doi:1014/tube/northern_line</title>
<a xlink:href="http://www2.elsevier.co.uk/~tony/1014/yads-schema-2002-04-03#resource" target="_blank" onmouseover="show_status('http://www2.elsevier.co.uk/~tony/1014/yads-schema-2002-04-03#resource');">
<path style="fill:none;stroke:#add9e6" d="M511,689C511,702 511,719 511,734"/>
<polygon style="fill:#add9e6;stroke:#add9e6" points="509,733 511,743 514,733 509,733"/>
<text text-anchor="middle" x="552" y="720" style="font-family:arial">has:resource</text>
</a></g>
<g id="node47" class="node"><title>:_13</title>
<a xlink:href="http://www.w3.org/1999/02/22-rdf-syntax-ns#Bag" target="_blank" onmouseover="show_status('http://www.w3.org/1999/02/22-rdf-syntax-ns#Bag');">
<ellipse cx="636" cy="761" rx="28" ry="18" style="fill:#d2d2d2;stroke:#d2d2d2"/>
<text text-anchor="middle" x="636" y="765" style="font-family:arial">rdf:Bag</text>
</a></g>
<g id="edge46" class="edge"><title>:_12-&gt;:_13</title>
<a xlink:href="http://www2.elsevier.co.uk/~tony/1014/yads-schema-2002-04-03#collection" target="_blank" onmouseover="show_status('http://www2.elsevier.co.uk/~tony/1014/yads-schema-2002-04-03#collection');">
<path style="fill:none;stroke:#add9e6" d="M551,683C566,689 583,697 596,707 606,715 615,726 622,736"/>
<polygon style="fill:#add9e6;stroke:#add9e6" points="620,737 627,744 624,734 620,737"/>
<text text-anchor="middle" x="655" y="720" style="font-family:arial">has:collection</text>
</a></g>
<g id="node49" class="node"><title>:_14</title>
<ellipse cx="597" cy="872" rx="53" ry="18" style="fill:#eedb82;stroke:#eedb82"/>
<text text-anchor="middle" x="597" y="876" style="font-family:arial">tube:PrevStation</text>
</g>
<g id="edge48" class="edge"><title>:_13-&gt;:_14</title>
<a xlink:href="http://www.w3.org/1999/02/22-rdf-syntax-ns#_1" target="_blank" onmouseover="show_status('http://www.w3.org/1999/02/22-rdf-syntax-ns#_1');">
<path style="fill:none;stroke:#add9e6" d="M630,779C624,796 614,825 606,846"/>
<polygon style="fill:#add9e6;stroke:#add9e6" points="604,844 603,854 609,846 604,844"/>
<text text-anchor="middle" x="643" y="816" style="font-family:arial">rdf:_1</text>
</a></g>
<g id="node51" class="node"><title>:_17</title>
<ellipse cx="755" cy="872" rx="53" ry="18" style="fill:#eedb82;stroke:#eedb82"/>
<text text-anchor="middle" x="755" y="876" style="font-family:arial">tube:NextStation</text>
</g>
<g id="edge50" class="edge"><title>:_13-&gt;:_17</title>
<a xlink:href="http://www.w3.org/1999/02/22-rdf-syntax-ns#_2" target="_blank" onmouseover="show_status('http://www.w3.org/1999/02/22-rdf-syntax-ns#_2');">
<path style="fill:none;stroke:#add9e6" d="M652,776C672,794 706,826 730,848"/>
<polygon style="fill:#add9e6;stroke:#add9e6" points="728,850 737,855 732,846 728,850"/>
<text text-anchor="middle" x="722" y="816" style="font-family:arial">rdf:_2</text>
</a></g>
<g id="node54" class="node"><title>doi:1014/tube/colliers_wood</title>
<a xlink:href="http://dx.doi.org/1014/tube/colliers_wood" target="_blank" onmouseover="show_status('http://dx.doi.org/1014/tube/colliers_wood');">
<ellipse cx="522" cy="962" rx="82" ry="18" style="fill:#dca0dd;stroke:#dca0dd"/>
<text text-anchor="middle" x="522" y="966" style="font-family:arial">doi:1014/tube/colliers_wood</text>
</a></g>
<g id="edge53" class="edge"><title>:_14-&gt;doi:1014/tube/colliers_wood</title>
<a xlink:href="http://www2.elsevier.co.uk/~tony/1014/yads-schema-2002-04-03#resource" target="_blank" onmouseover="show_status('http://www2.elsevier.co.uk/~tony/1014/yads-schema-2002-04-03#resource');">
<path style="fill:none;stroke:#add9e6" d="M553,882C540,888 526,896 518,908 513,916 513,926 514,935"/>
<polygon style="fill:#add9e6;stroke:#add9e6" points="511,934 515,944 516,934 511,934"/>
<text text-anchor="middle" x="562" y="921" style="font-family:arial">has:resource</text>
</a></g>
<g id="node56" class="node"><title>:_15</title>
<a xlink:href="http://www.w3.org/1999/02/22-rdf-syntax-ns#Bag" target="_blank" onmouseover="show_status('http://www.w3.org/1999/02/22-rdf-syntax-ns#Bag');">
<ellipse cx="650" cy="962" rx="28" ry="18" style="fill:#d2d2d2;stroke:#d2d2d2"/>
<text text-anchor="middle" x="650" y="966" style="font-family:arial">rdf:Bag</text>
</a></g>
<g id="edge55" class="edge"><title>:_14-&gt;:_15</title>
<a xlink:href="http://www2.elsevier.co.uk/~tony/1014/yads-schema-2002-04-03#collection" target="_blank" onmouseover="show_status('http://www2.elsevier.co.uk/~tony/1014/yads-schema-2002-04-03#collection');">
<path style="fill:none;stroke:#add9e6" d="M598,890C600,901 603,915 609,926 612,932 618,938 623,943"/>
<polygon style="fill:#add9e6;stroke:#add9e6" points="621,944 630,949 624,941 621,944"/>
<text text-anchor="middle" x="650" y="921" style="font-family:arial">has:collection</text>
</a></g>
<g id="node64" class="node"><title>doi:1014/tube/morden</title>
<a xlink:href="http://dx.doi.org/1014/tube/morden" target="_blank" onmouseover="show_status('http://dx.doi.org/1014/tube/morden');">
<ellipse cx="767" cy="962" rx="65" ry="18" style="fill:#dca0dd;stroke:#dca0dd"/>
<text text-anchor="middle" x="767" y="966" style="font-family:arial">doi:1014/tube/morden</text>
</a></g>
<g id="edge63" class="edge"><title>:_17-&gt;doi:1014/tube/morden</title>
<a xlink:href="http://www2.elsevier.co.uk/~tony/1014/yads-schema-2002-04-03#resource" target="_blank" onmouseover="show_status('http://www2.elsevier.co.uk/~tony/1014/yads-schema-2002-04-03#resource');">
<path style="fill:none;stroke:#add9e6" d="M745,890C740,901 736,914 740,926 741,930 743,933 744,936"/>
<polygon style="fill:#add9e6;stroke:#add9e6" points="742,937 750,944 746,935 742,937"/>
<text text-anchor="middle" x="782" y="921" style="font-family:arial">has:resource</text>
</a></g>
<g id="node66" class="node"><title>:_18</title>
<a xlink:href="http://www.w3.org/1999/02/22-rdf-syntax-ns#Bag" target="_blank" onmouseover="show_status('http://www.w3.org/1999/02/22-rdf-syntax-ns#Bag');">
<ellipse cx="878" cy="962" rx="28" ry="18" style="fill:#d2d2d2;stroke:#d2d2d2"/>
<text text-anchor="middle" x="878" y="966" style="font-family:arial">rdf:Bag</text>
</a></g>
<g id="edge65" class="edge"><title>:_17-&gt;:_18</title>
<a xlink:href="http://www2.elsevier.co.uk/~tony/1014/yads-schema-2002-04-03#collection" target="_blank" onmouseover="show_status('http://www2.elsevier.co.uk/~tony/1014/yads-schema-2002-04-03#collection');">
<path style="fill:none;stroke:#add9e6" d="M785,887C796,893 808,900 817,908 825,915 825,919 833,926 839,932 845,937 852,942"/>
<polygon style="fill:#add9e6;stroke:#add9e6" points="850,943 859,948 853,940 850,943"/>
<text text-anchor="middle" x="874" y="921" style="font-family:arial">has:collection</text>
</a></g>
<g id="node58" class="node"><title>:_16</title>
<ellipse cx="626" cy="1067" rx="33" ry="18" style="fill:#eedb82;stroke:#eedb82"/>
<text text-anchor="middle" x="626" y="1071" style="font-family:arial">tube:Mins</text>
</g>
<g id="edge57" class="edge"><title>:_15-&gt;:_16</title>
<a xlink:href="http://www.w3.org/1999/02/22-rdf-syntax-ns#_1" target="_blank" onmouseover="show_status('http://www.w3.org/1999/02/22-rdf-syntax-ns#_1');">
<path style="fill:none;stroke:#add9e6" d="M646,980C643,996 637,1021 632,1040"/>
<polygon style="fill:#add9e6;stroke:#add9e6" points="630,1039 630,1049 635,1040 630,1039"/>
<text text-anchor="middle" x="663" y="1011" style="font-family:arial">rdf:_1</text>
</a></g>
<g id="node61" class="node"><title>data:,2</title>
<a xlink:href="" onclick="show_data('2');" onmouseover="show_status('data:,2');">
<ellipse cx="616" cy="1157" rx="27" ry="18" style="fill:#dca0dd;stroke:#dca0dd"/>
<text text-anchor="middle" x="616" y="1161" style="font-family:arial">data:,2</text>
</a></g>
<g id="edge60" class="edge"><title>:_16-&gt;data:,2</title>
<a xlink:href="http://www2.elsevier.co.uk/~tony/1014/yads-schema-2002-04-03#resource" target="_blank" onmouseover="show_status('http://www2.elsevier.co.uk/~tony/1014/yads-schema-2002-04-03#resource');">
<path style="fill:none;stroke:#add9e6" d="M624,1085C622,1098 621,1115 619,1130"/>
<polygon style="fill:#add9e6;stroke:#add9e6" points="617,1129 618,1139 622,1129 617,1129"/>
<text text-anchor="middle" x="664" y="1116" style="font-family:arial">has:resource</text>
</a></g>
<g id="node68" class="node"><title>:_19</title>
<ellipse cx="854" cy="1067" rx="33" ry="18" style="fill:#eedb82;stroke:#eedb82"/>
<text text-anchor="middle" x="854" y="1071" style="font-family:arial">tube:Mins</text>
</g>
<g id="edge67" class="edge"><title>:_18-&gt;:_19</title>
<a xlink:href="http://www.w3.org/1999/02/22-rdf-syntax-ns#_1" target="_blank" onmouseover="show_status('http://www.w3.org/1999/02/22-rdf-syntax-ns#_1');">
<path style="fill:none;stroke:#add9e6" d="M872,980C870,985 868,992 866,998 863,1012 860,1027 857,1040"/>
<polygon style="fill:#add9e6;stroke:#add9e6" points="855,1039 856,1049 860,1039 855,1039"/>
<text text-anchor="middle" x="886" y="1011" style="font-family:arial">rdf:_1</text>
</a></g>
<g id="node71" class="node"><title>data:,3</title>
<a xlink:href="" onclick="show_data('3');" onmouseover="show_status('data:,3');">
<ellipse cx="844" cy="1157" rx="27" ry="18" style="fill:#dca0dd;stroke:#dca0dd"/>
<text text-anchor="middle" x="844" y="1161" style="font-family:arial">data:,3</text>
</a></g>
<g id="edge70" class="edge"><title>:_19-&gt;data:,3</title>
<a xlink:href="http://www2.elsevier.co.uk/~tony/1014/yads-schema-2002-04-03#resource" target="_blank" onmouseover="show_status('http://www2.elsevier.co.uk/~tony/1014/yads-schema-2002-04-03#resource');">
<path style="fill:none;stroke:#add9e6" d="M837,1083C832,1089 827,1096 825,1103 821,1113 824,1123 828,1132"/>
<polygon style="fill:#add9e6;stroke:#add9e6" points="825,1132 832,1140 830,1130 825,1132"/>
<text text-anchor="middle" x="866" y="1116" style="font-family:arial">has:resource</text>
</a></g>
</g>
</svg>
