<?xml version="1.0" encoding="UTF-8" standalone="no"?>
<!DOCTYPE svg PUBLIC "-//W3C//DTD SVG 1.0//EN"
 "http://www.w3.org/TR/2001/REC-SVG-20010904/DTD/svg10.dtd" [
 <!ATTLIST svg xmlns:xlink CDATA #FIXED "http://www.w3.org/1999/xlink">
]>
<!-- Generated by dot version 1.8.5 (Tue Apr 23 17:19:23  2002)
     For user: (Administrator) ,S-1-5-21-1454471165-688789844-1708537768-500   Title: yads    Pages: 1 -->
<svg width="1265px" height="1280px"
 xmlns="http://www.w3.org/2000/svg" xmlns:xlink="http://www.w3.org/1999/xlink">
<g id="graph0" class="graph" style="font-family:Times-Roman;font-size:11.00">
<title>yads</title>
<text text-anchor="middle" x="632" y="1269" style="font-family:arial;font-size:24.00">YADS - A Description Service</text>
<g id="graph2" class="cluster"><title>cluster_1</title>
<polygon style="fill:none;stroke:#d2d2d2;stroke-dasharray:5,2" points="19,1237 1246,1237 1246,43 19,43 19,1237"/>
<text text-anchor="middle" x="109" y="55" style="font-family:arial">Nest - St. James's Park Station</text>
</g>
<g id="graph3" class="cluster"><title>cluster_3</title>
<polygon style="fill:none;stroke:#d2d2d2;stroke-dasharray:5,2" points="27,1229 1238,1229 1238,238 27,238 27,1229"/>
<text text-anchor="middle" x="99" y="250" style="font-family:arial">Nest - Application Profile</text>
</g>
<g id="graph4" class="cluster"><title>cluster_5</title>
<polygon style="fill:none;stroke:#d2d2d2;stroke-dasharray:5,2" points="35,795 274,795 274,433 35,433 35,795"/>
<text text-anchor="middle" x="80" y="445" style="font-family:arial">Item - Location</text>
</g>
<g id="graph5" class="cluster"><title>cluster_7</title>
<polygon style="fill:none;stroke:#d2d2d2;stroke-dasharray:5,2" points="43,787 161,787 161,628 43,628 43,787"/>
<text text-anchor="middle" x="59" y="640" style="font-family:arial">Item</text>
</g>
<g id="graph6" class="cluster"><title>cluster_8</title>
<polygon style="fill:none;stroke:#d2d2d2;stroke-dasharray:5,2" points="169,787 266,787 266,628 169,628 169,787"/>
<text text-anchor="middle" x="185" y="640" style="font-family:arial">Item</text>
</g>
<g id="graph7" class="cluster"><title>cluster_9</title>
<polygon style="fill:none;stroke:#d2d2d2;stroke-dasharray:5,2" points="282,1221 1230,1221 1230,433 282,433 282,1221"/>
<text text-anchor="middle" x="351" y="445" style="font-family:arial">Item - Line Interchanges</text>
</g>
<g id="graph8" class="cluster"><title>cluster_11</title>
<polygon style="fill:none;stroke:#d2d2d2;stroke-dasharray:5,2" points="738,1213 1222,1213 1222,628 738,628 738,1213"/>
<text text-anchor="middle" x="806" y="640" style="font-family:arial">Nest - Line Interchange</text>
</g>
<g id="graph9" class="cluster"><title>cluster_13</title>
<polygon style="fill:none;stroke:#d2d2d2;stroke-dasharray:5,2" points="746,1205 990,1205 990,829 746,829 746,1205"/>
<text text-anchor="middle" x="814" y="841" style="font-family:arial">Nest - Next Stop Back</text>
</g>
<g id="graph10" class="cluster"><title>cluster_15</title>
<polygon style="fill:none;stroke:#d2d2d2;stroke-dasharray:5,2" points="791,1197 888,1197 888,1024 791,1024 791,1197"/>
<text text-anchor="middle" x="807" y="1036" style="font-family:arial">Item</text>
</g>
<g id="graph11" class="cluster"><title>cluster_16</title>
<polygon style="fill:none;stroke:#d2d2d2;stroke-dasharray:5,2" points="998,1205 1214,1205 1214,829 998,829 998,1205"/>
<text text-anchor="middle" x="1050" y="841" style="font-family:arial">Nest - Next Stop</text>
</g>
<g id="graph12" class="cluster"><title>cluster_18</title>
<polygon style="fill:none;stroke:#d2d2d2;stroke-dasharray:5,2" points="1036,1197 1133,1197 1133,1024 1036,1024 1036,1197"/>
<text text-anchor="middle" x="1052" y="1036" style="font-family:arial">Item</text>
</g>
<g id="graph13" class="cluster"><title>cluster_19</title>
<polygon style="fill:none;stroke:#d2d2d2;stroke-dasharray:5,2" points="290,1109 558,1109 558,628 290,628 290,1109"/>
<text text-anchor="middle" x="358" y="640" style="font-family:arial">Nest - Line Interchange</text>
</g>
<g id="graph14" class="cluster"><title>cluster_21</title>
<polygon style="fill:none;stroke:#d2d2d2;stroke-dasharray:5,2" points="428,1101 550,1101 550,829 428,829 428,1101"/>
<text text-anchor="middle" x="496" y="841" style="font-family:arial">Nest - Next Stop Back</text>
</g>
<g id="graph15" class="cluster"><title>cluster_23</title>
<polygon style="fill:none;stroke:#d2d2d2;stroke-dasharray:5,2" points="448,1093 530,1093 530,1024 448,1024 448,1093"/>
<text text-anchor="middle" x="464" y="1036" style="font-family:arial">Item</text>
</g>
<g id="graph16" class="cluster"><title>cluster_24</title>
<polygon style="fill:none;stroke:#d2d2d2;stroke-dasharray:5,2" points="298,1101 420,1101 420,829 298,829 298,1101"/>
<text text-anchor="middle" x="350" y="841" style="font-family:arial">Nest - Next Stop</text>
</g>
<g id="graph17" class="cluster"><title>cluster_26</title>
<polygon style="fill:none;stroke:#d2d2d2;stroke-dasharray:5,2" points="325,1093 407,1093 407,1024 325,1024 325,1093"/>
<text text-anchor="middle" x="341" y="1036" style="font-family:arial">Item</text>
</g>
<g id="node2" class="node"><title>:_1</title>
<ellipse cx="274" cy="86" rx="40" ry="18" style="fill:#eedb82;stroke:#eedb82"/>
<text text-anchor="middle" x="274" y="90" style="font-family:arial">tube:Station</text>
</g>
<g id="node4" class="node"><title>doi:1014/tube/st._james's_par</title>
<a xlink:href="http://dx.doi.org/1014/tube/st._james's_park" target="_blank" onmouseover="show_status('http://dx.doi.org/1014/tube/st._james's_park');">
<ellipse cx="117" cy="176" rx="88" ry="18" style="fill:#dca0dd;stroke:#dca0dd"/>
<text text-anchor="middle" x="117" y="180" style="font-family:arial">doi:1014/tube/st._james's_par</text>
</a></g>
<g id="edge3" class="edge"><title>:_1-&gt;doi:1014/tube/st._james's_par</title>
<a xlink:href="http://www2.elsevier.co.uk/~tony/1014/yads-schema-2002-04-03#resource" target="_blank" onmouseover="show_status('http://www2.elsevier.co.uk/~tony/1014/yads-schema-2002-04-03#resource');">
<path style="fill:none;stroke:#add9e6" d="M243,97C226,104 206,112 189,122 174,131 158,143 145,153"/>
<polygon style="fill:#add9e6;stroke:#add9e6" points="145,150 138,158 148,154 145,150"/>
<text text-anchor="middle" x="236" y="135" style="font-family:arial">has:resource</text>
</a></g>
<g id="node6" class="node"><title>node_1</title>
<polygon style="fill:#6497ed;stroke:#6497ed" points="325,158 223,158 223,194 325,194 325,158"/>
<text text-anchor="middle" x="274" y="180" style="font-family:arial">St. James's Park</text>
</g>
<g id="edge5" class="edge"><title>:_1-&gt;node_1</title>
<a xlink:href="http://www2.elsevier.co.uk/~tony/1014/yads-schema-2002-04-03#label" target="_blank" onmouseover="show_status('http://www2.elsevier.co.uk/~tony/1014/yads-schema-2002-04-03#label');">
<path style="fill:none;stroke:#add9e6" d="M274,104C274,117 274,134 274,149"/>
<polygon style="fill:#add9e6;stroke:#add9e6" points="272,148 274,158 277,148 272,148"/>
<text text-anchor="middle" x="301" y="135" style="font-family:arial">has:label</text>
</a></g>
<g id="node8" class="node"><title>:_2</title>
<a xlink:href="http://www.w3.org/1999/02/22-rdf-syntax-ns#Bag" target="_blank" onmouseover="show_status('http://www.w3.org/1999/02/22-rdf-syntax-ns#Bag');">
<ellipse cx="371" cy="176" rx="28" ry="18" style="fill:#d2d2d2;stroke:#d2d2d2"/>
<text text-anchor="middle" x="371" y="180" style="font-family:arial">rdf:Bag</text>
</a></g>
<g id="edge7" class="edge"><title>:_1-&gt;:_2</title>
<a xlink:href="http://www2.elsevier.co.uk/~tony/1014/yads-schema-2002-04-03#collection" target="_blank" onmouseover="show_status('http://www2.elsevier.co.uk/~tony/1014/yads-schema-2002-04-03#collection');">
<path style="fill:none;stroke:#add9e6" d="M301,100C312,106 324,113 333,122 342,131 351,142 357,151"/>
<polygon style="fill:#add9e6;stroke:#add9e6" points="354,151 361,159 359,149 354,151"/>
<text text-anchor="middle" x="390" y="135" style="font-family:arial">has:collection</text>
</a></g>
<g id="node10" class="node"><title>:_3</title>
<ellipse cx="371" cy="281" rx="34" ry="18" style="fill:#eedb82;stroke:#eedb82"/>
<text text-anchor="middle" x="371" y="285" style="font-family:arial">doi:Profile</text>
</g>
<g id="edge9" class="edge"><title>:_2-&gt;:_3</title>
<a xlink:href="http://www.w3.org/1999/02/22-rdf-syntax-ns#_1" target="_blank" onmouseover="show_status('http://www.w3.org/1999/02/22-rdf-syntax-ns#_1');">
<path style="fill:none;stroke:#add9e6" d="M371,194C371,210 371,235 371,254"/>
<polygon style="fill:#add9e6;stroke:#add9e6" points="369,253 371,263 374,253 369,253"/>
<text text-anchor="middle" x="391" y="225" style="font-family:arial">rdf:_1</text>
</a></g>
<g id="node13" class="node"><title>doi:1014/profile.tube</title>
<a xlink:href="http://dx.doi.org/1014/profile.tube" target="_blank" onmouseover="show_status('http://dx.doi.org/1014/profile.tube');">
<ellipse cx="270" cy="371" rx="59" ry="18" style="fill:#dca0dd;stroke:#dca0dd"/>
<text text-anchor="middle" x="270" y="375" style="font-family:arial">doi:1014/profile.tube</text>
</a></g>
<g id="edge12" class="edge"><title>:_3-&gt;doi:1014/profile.tube</title>
<a xlink:href="http://www2.elsevier.co.uk/~tony/1014/yads-schema-2002-04-03#resource" target="_blank" onmouseover="show_status('http://www2.elsevier.co.uk/~tony/1014/yads-schema-2002-04-03#resource');">
<path style="fill:none;stroke:#add9e6" d="M340,288C322,294 302,303 288,317 281,325 277,334 274,344"/>
<polygon style="fill:#add9e6;stroke:#add9e6" points="272,343 272,353 277,344 272,343"/>
<text text-anchor="middle" x="332" y="330" style="font-family:arial">has:resource</text>
</a></g>
<g id="node15" class="node"><title>:_4</title>
<a xlink:href="http://www.w3.org/1999/02/22-rdf-syntax-ns#Bag" target="_blank" onmouseover="show_status('http://www.w3.org/1999/02/22-rdf-syntax-ns#Bag');">
<ellipse cx="375" cy="371" rx="28" ry="18" style="fill:#d2d2d2;stroke:#d2d2d2"/>
<text text-anchor="middle" x="375" y="375" style="font-family:arial">rdf:Bag</text>
</a></g>
<g id="edge14" class="edge"><title>:_3-&gt;:_4</title>
<a xlink:href="http://www2.elsevier.co.uk/~tony/1014/yads-schema-2002-04-03#collection" target="_blank" onmouseover="show_status('http://www2.elsevier.co.uk/~tony/1014/yads-schema-2002-04-03#collection');">
<path style="fill:none;stroke:#add9e6" d="M372,299C373,312 374,329 374,344"/>
<polygon style="fill:#add9e6;stroke:#add9e6" points="372,343 374,353 377,343 372,343"/>
<text text-anchor="middle" x="416" y="330" style="font-family:arial">has:collection</text>
</a></g>
<g id="node17" class="node"><title>:_5</title>
<a xlink:href="http://www2.elsevier.co.uk/~tony/1014/yads-schema-2002-04-03#Item" target="_blank" onmouseover="show_status('http://www2.elsevier.co.uk/~tony/1014/yads-schema-2002-04-03#Item');">
<ellipse cx="211" cy="476" rx="28" ry="18" style="fill:#d2d2d2;stroke:#d2d2d2"/>
<text text-anchor="middle" x="211" y="480" style="font-family:arial">isa:Item</text>
</a></g>
<g id="edge16" class="edge"><title>:_4-&gt;:_5</title>
<a xlink:href="http://www.w3.org/1999/02/22-rdf-syntax-ns#_1" target="_blank" onmouseover="show_status('http://www.w3.org/1999/02/22-rdf-syntax-ns#_1');">
<path style="fill:none;stroke:#add9e6" d="M355,384C336,397 305,416 278,433 266,442 251,451 239,459"/>
<polygon style="fill:#add9e6;stroke:#add9e6" points="238,457 231,464 241,461 238,457"/>
<text text-anchor="middle" x="344" y="420" style="font-family:arial">rdf:_1</text>
</a></g>
<g id="node19" class="node"><title>:_9</title>
<a xlink:href="http://www2.elsevier.co.uk/~tony/1014/yads-schema-2002-04-03#Item" target="_blank" onmouseover="show_status('http://www2.elsevier.co.uk/~tony/1014/yads-schema-2002-04-03#Item');">
<ellipse cx="387" cy="476" rx="28" ry="18" style="fill:#d2d2d2;stroke:#d2d2d2"/>
<text text-anchor="middle" x="387" y="480" style="font-family:arial">isa:Item</text>
</a></g>
<g id="edge18" class="edge"><title>:_4-&gt;:_9</title>
<a xlink:href="http://www.w3.org/1999/02/22-rdf-syntax-ns#_2" target="_blank" onmouseover="show_status('http://www.w3.org/1999/02/22-rdf-syntax-ns#_2');">
<path style="fill:none;stroke:#add9e6" d="M377,389C380,405 382,430 384,449"/>
<polygon style="fill:#add9e6;stroke:#add9e6" points="381,448 385,458 386,448 381,448"/>
<text text-anchor="middle" x="402" y="420" style="font-family:arial">rdf:_2</text>
</a></g>
<g id="node22" class="node"><title>:_6</title>
<a xlink:href="http://www.w3.org/1999/02/22-rdf-syntax-ns#Bag" target="_blank" onmouseover="show_status('http://www.w3.org/1999/02/22-rdf-syntax-ns#Bag');">
<ellipse cx="185" cy="566" rx="28" ry="18" style="fill:#d2d2d2;stroke:#d2d2d2"/>
<text text-anchor="middle" x="185" y="570" style="font-family:arial">rdf:Bag</text>
</a></g>
<g id="edge21" class="edge"><title>:_5-&gt;:_6</title>
<a xlink:href="http://www2.elsevier.co.uk/~tony/1014/yads-schema-2002-04-03#collection" target="_blank" onmouseover="show_status('http://www2.elsevier.co.uk/~tony/1014/yads-schema-2002-04-03#collection');">
<path style="fill:none;stroke:#add9e6" d="M204,494C201,499 199,506 197,512 194,521 192,530 190,539"/>
<polygon style="fill:#add9e6;stroke:#add9e6" points="188,538 188,548 193,539 188,538"/>
<text text-anchor="middle" x="241" y="525" style="font-family:arial">has:collection</text>
</a></g>
<g id="node35" class="node"><title>:_10</title>
<a xlink:href="http://www.w3.org/1999/02/22-rdf-syntax-ns#Bag" target="_blank" onmouseover="show_status('http://www.w3.org/1999/02/22-rdf-syntax-ns#Bag');">
<ellipse cx="422" cy="566" rx="28" ry="18" style="fill:#d2d2d2;stroke:#d2d2d2"/>
<text text-anchor="middle" x="422" y="570" style="font-family:arial">rdf:Bag</text>
</a></g>
<g id="edge34" class="edge"><title>:_9-&gt;:_10</title>
<a xlink:href="http://www2.elsevier.co.uk/~tony/1014/yads-schema-2002-04-03#collection" target="_blank" onmouseover="show_status('http://www2.elsevier.co.uk/~tony/1014/yads-schema-2002-04-03#collection');">
<path style="fill:none;stroke:#add9e6" d="M394,494C399,507 406,525 412,540"/>
<polygon style="fill:#add9e6;stroke:#add9e6" points="409,540 415,548 414,538 409,540"/>
<text text-anchor="middle" x="450" y="525" style="font-family:arial">has:collection</text>
</a></g>
<g id="node24" class="node"><title>:_7</title>
<ellipse cx="102" cy="671" rx="35" ry="18" style="fill:#eedb82;stroke:#eedb82"/>
<text text-anchor="middle" x="102" y="675" style="font-family:arial">tube:Zone</text>
</g>
<g id="edge23" class="edge"><title>:_6-&gt;:_7</title>
<a xlink:href="http://www.w3.org/1999/02/22-rdf-syntax-ns#_1" target="_blank" onmouseover="show_status('http://www.w3.org/1999/02/22-rdf-syntax-ns#_1');">
<path style="fill:none;stroke:#add9e6" d="M169,581C163,588 156,595 150,602 139,616 127,633 118,647"/>
<polygon style="fill:#add9e6;stroke:#add9e6" points="117,644 113,654 121,647 117,644"/>
<text text-anchor="middle" x="173" y="615" style="font-family:arial">rdf:_1</text>
</a></g>
<g id="node26" class="node"><title>:_8</title>
<ellipse cx="209" cy="671" rx="32" ry="18" style="fill:#eedb82;stroke:#eedb82"/>
<text text-anchor="middle" x="209" y="675" style="font-family:arial">tube:Grid</text>
</g>
<g id="edge25" class="edge"><title>:_6-&gt;:_8</title>
<a xlink:href="http://www.w3.org/1999/02/22-rdf-syntax-ns#_2" target="_blank" onmouseover="show_status('http://www.w3.org/1999/02/22-rdf-syntax-ns#_2');">
<path style="fill:none;stroke:#add9e6" d="M189,584C192,600 198,625 203,644"/>
<polygon style="fill:#add9e6;stroke:#add9e6" points="200,644 205,653 205,643 200,644"/>
<text text-anchor="middle" x="218" y="615" style="font-family:arial">rdf:_2</text>
</a></g>
<g id="node29" class="node"><title>data:,Zone%201</title>
<a xlink:href="" onclick="show_data('Zone%201');" onmouseover="show_status('data:,Zone%201');">
<ellipse cx="102" cy="761" rx="51" ry="18" style="fill:#dca0dd;stroke:#dca0dd"/>
<text text-anchor="middle" x="102" y="765" style="font-family:arial">data:,Zone%201</text>
</a></g>
<g id="edge28" class="edge"><title>:_7-&gt;data:,Zone%201</title>
<a xlink:href="http://www2.elsevier.co.uk/~tony/1014/yads-schema-2002-04-03#resource" target="_blank" onmouseover="show_status('http://www2.elsevier.co.uk/~tony/1014/yads-schema-2002-04-03#resource');">
<path style="fill:none;stroke:#add9e6" d="M92,689C89,694 86,701 84,707 83,715 83,718 84,725 85,728 86,731 87,734"/>
<polygon style="fill:#add9e6;stroke:#add9e6" points="85,735 91,743 89,733 85,735"/>
<text text-anchor="middle" x="128" y="720" style="font-family:arial">has:resource</text>
</a></g>
<g id="node32" class="node"><title>data:,D4</title>
<a xlink:href="" onclick="show_data('D4');" onmouseover="show_status('data:,D4');">
<ellipse cx="207" cy="761" rx="30" ry="18" style="fill:#dca0dd;stroke:#dca0dd"/>
<text text-anchor="middle" x="207" y="765" style="font-family:arial">data:,D4</text>
</a></g>
<g id="edge31" class="edge"><title>:_8-&gt;data:,D4</title>
<a xlink:href="http://www2.elsevier.co.uk/~tony/1014/yads-schema-2002-04-03#resource" target="_blank" onmouseover="show_status('http://www2.elsevier.co.uk/~tony/1014/yads-schema-2002-04-03#resource');">
<path style="fill:none;stroke:#add9e6" d="M207,689C206,695 205,701 205,707 204,716 205,725 205,733"/>
<polygon style="fill:#add9e6;stroke:#add9e6" points="203,733 206,743 207,733 203,733"/>
<text text-anchor="middle" x="249" y="720" style="font-family:arial">has:resource</text>
</a></g>
<g id="node37" class="node"><title>:_11</title>
<ellipse cx="816" cy="671" rx="53" ry="18" style="fill:#eedb82;stroke:#eedb82"/>
<text text-anchor="middle" x="816" y="675" style="font-family:arial">tube:LineChange</text>
</g>
<g id="edge36" class="edge"><title>:_10-&gt;:_11</title>
<a xlink:href="http://www.w3.org/1999/02/22-rdf-syntax-ns#_1" target="_blank" onmouseover="show_status('http://www.w3.org/1999/02/22-rdf-syntax-ns#_1');">
<path style="fill:none;stroke:#add9e6" d="M448,573C513,589 683,635 767,658"/>
<polygon style="fill:#add9e6;stroke:#add9e6" points="764,660 774,660 765,655 764,660"/>
<text text-anchor="middle" x="643" y="615" style="font-family:arial">rdf:_1</text>
</a></g>
<g id="node39" class="node"><title>:_19</title>
<ellipse cx="422" cy="671" rx="53" ry="18" style="fill:#eedb82;stroke:#eedb82"/>
<text text-anchor="middle" x="422" y="675" style="font-family:arial">tube:LineChange</text>
</g>
<g id="edge38" class="edge"><title>:_10-&gt;:_19</title>
<a xlink:href="http://www.w3.org/1999/02/22-rdf-syntax-ns#_2" target="_blank" onmouseover="show_status('http://www.w3.org/1999/02/22-rdf-syntax-ns#_2');">
<path style="fill:none;stroke:#add9e6" d="M422,584C422,600 422,625 422,644"/>
<polygon style="fill:#add9e6;stroke:#add9e6" points="420,643 422,653 425,643 420,643"/>
<text text-anchor="middle" x="443" y="615" style="font-family:arial">rdf:_2</text>
</a></g>
<g id="node42" class="node"><title>doi:1014/tube/circle_line</title>
<a xlink:href="http://dx.doi.org/1014/tube/circle_line" target="_blank" onmouseover="show_status('http://dx.doi.org/1014/tube/circle_line');">
<ellipse cx="816" cy="761" rx="70" ry="18" style="fill:#dca0dd;stroke:#dca0dd"/>
<text text-anchor="middle" x="816" y="765" style="font-family:arial">doi:1014/tube/circle_line</text>
</a></g>
<g id="edge41" class="edge"><title>:_11-&gt;doi:1014/tube/circle_line</title>
<a xlink:href="http://www2.elsevier.co.uk/~tony/1014/yads-schema-2002-04-03#resource" target="_blank" onmouseover="show_status('http://www2.elsevier.co.uk/~tony/1014/yads-schema-2002-04-03#resource');">
<path style="fill:none;stroke:#add9e6" d="M816,689C816,702 816,719 816,734"/>
<polygon style="fill:#add9e6;stroke:#add9e6" points="814,733 816,743 819,733 814,733"/>
<text text-anchor="middle" x="857" y="720" style="font-family:arial">has:resource</text>
</a></g>
<g id="node44" class="node"><title>:_12</title>
<a xlink:href="http://www.w3.org/1999/02/22-rdf-syntax-ns#Bag" target="_blank" onmouseover="show_status('http://www.w3.org/1999/02/22-rdf-syntax-ns#Bag');">
<ellipse cx="932" cy="761" rx="28" ry="18" style="fill:#d2d2d2;stroke:#d2d2d2"/>
<text text-anchor="middle" x="932" y="765" style="font-family:arial">rdf:Bag</text>
</a></g>
<g id="edge43" class="edge"><title>:_11-&gt;:_12</title>
<a xlink:href="http://www2.elsevier.co.uk/~tony/1014/yads-schema-2002-04-03#collection" target="_blank" onmouseover="show_status('http://www2.elsevier.co.uk/~tony/1014/yads-schema-2002-04-03#collection');">
<path style="fill:none;stroke:#add9e6" d="M857,682C872,688 889,696 901,707 909,715 916,725 921,735"/>
<polygon style="fill:#add9e6;stroke:#add9e6" points="918,735 925,743 923,733 918,735"/>
<text text-anchor="middle" x="957" y="720" style="font-family:arial">has:collection</text>
</a></g>
<g id="node71" class="node"><title>doi:1014/tube/district_line</title>
<a xlink:href="http://dx.doi.org/1014/tube/district_line" target="_blank" onmouseover="show_status('http://dx.doi.org/1014/tube/district_line');">
<ellipse cx="371" cy="761" rx="73" ry="18" style="fill:#dca0dd;stroke:#dca0dd"/>
<text text-anchor="middle" x="371" y="765" style="font-family:arial">doi:1014/tube/district_line</text>
</a></g>
<g id="edge70" class="edge"><title>:_19-&gt;doi:1014/tube/district_line</title>
<a xlink:href="http://www2.elsevier.co.uk/~tony/1014/yads-schema-2002-04-03#resource" target="_blank" onmouseover="show_status('http://www2.elsevier.co.uk/~tony/1014/yads-schema-2002-04-03#resource');">
<path style="fill:none;stroke:#add9e6" d="M401,688C394,693 388,700 384,707 380,715 377,725 375,734"/>
<polygon style="fill:#add9e6;stroke:#add9e6" points="373,733 373,743 378,734 373,733"/>
<text text-anchor="middle" x="428" y="720" style="font-family:arial">has:resource</text>
</a></g>
<g id="node73" class="node"><title>:_20</title>
<a xlink:href="http://www.w3.org/1999/02/22-rdf-syntax-ns#Bag" target="_blank" onmouseover="show_status('http://www.w3.org/1999/02/22-rdf-syntax-ns#Bag');">
<ellipse cx="490" cy="761" rx="28" ry="18" style="fill:#d2d2d2;stroke:#d2d2d2"/>
<text text-anchor="middle" x="490" y="765" style="font-family:arial">rdf:Bag</text>
</a></g>
<g id="edge72" class="edge"><title>:_19-&gt;:_20</title>
<a xlink:href="http://www2.elsevier.co.uk/~tony/1014/yads-schema-2002-04-03#collection" target="_blank" onmouseover="show_status('http://www2.elsevier.co.uk/~tony/1014/yads-schema-2002-04-03#collection');">
<path style="fill:none;stroke:#add9e6" d="M448,687C456,692 463,699 469,707 475,715 480,725 483,734"/>
<polygon style="fill:#add9e6;stroke:#add9e6" points="480,734 486,743 485,733 480,734"/>
<text text-anchor="middle" x="521" y="720" style="font-family:arial">has:collection</text>
</a></g>
<g id="node46" class="node"><title>:_13</title>
<ellipse cx="901" cy="872" rx="53" ry="18" style="fill:#eedb82;stroke:#eedb82"/>
<text text-anchor="middle" x="901" y="876" style="font-family:arial">tube:PrevStation</text>
</g>
<g id="edge45" class="edge"><title>:_12-&gt;:_13</title>
<a xlink:href="http://www.w3.org/1999/02/22-rdf-syntax-ns#_1" target="_blank" onmouseover="show_status('http://www.w3.org/1999/02/22-rdf-syntax-ns#_1');">
<path style="fill:none;stroke:#add9e6" d="M927,779C922,796 914,825 908,845"/>
<polygon style="fill:#add9e6;stroke:#add9e6" points="906,844 906,854 911,845 906,844"/>
<text text-anchor="middle" x="941" y="816" style="font-family:arial">rdf:_1</text>
</a></g>
<g id="node48" class="node"><title>:_16</title>
<ellipse cx="1059" cy="872" rx="53" ry="18" style="fill:#eedb82;stroke:#eedb82"/>
<text text-anchor="middle" x="1059" y="876" style="font-family:arial">tube:NextStation</text>
</g>
<g id="edge47" class="edge"><title>:_12-&gt;:_16</title>
<a xlink:href="http://www.w3.org/1999/02/22-rdf-syntax-ns#_2" target="_blank" onmouseover="show_status('http://www.w3.org/1999/02/22-rdf-syntax-ns#_2');">
<path style="fill:none;stroke:#add9e6" d="M949,776C970,794 1007,826 1031,848"/>
<polygon style="fill:#add9e6;stroke:#add9e6" points="1030,850 1039,855 1033,847 1030,850"/>
<text text-anchor="middle" x="1022" y="816" style="font-family:arial">rdf:_2</text>
</a></g>
<g id="node51" class="node"><title>doi:1014/tube/westminster</title>
<a xlink:href="http://dx.doi.org/1014/tube/westminster" target="_blank" onmouseover="show_status('http://dx.doi.org/1014/tube/westminster');">
<ellipse cx="831" cy="962" rx="77" ry="18" style="fill:#dca0dd;stroke:#dca0dd"/>
<text text-anchor="middle" x="831" y="966" style="font-family:arial">doi:1014/tube/westminster</text>
</a></g>
<g id="edge50" class="edge"><title>:_13-&gt;doi:1014/tube/westminster</title>
<a xlink:href="http://www2.elsevier.co.uk/~tony/1014/yads-schema-2002-04-03#resource" target="_blank" onmouseover="show_status('http://www2.elsevier.co.uk/~tony/1014/yads-schema-2002-04-03#resource');">
<path style="fill:none;stroke:#add9e6" d="M857,882C844,888 830,896 822,908 817,916 817,926 819,935"/>
<polygon style="fill:#add9e6;stroke:#add9e6" points="816,935 822,944 821,934 816,935"/>
<text text-anchor="middle" x="866" y="921" style="font-family:arial">has:resource</text>
</a></g>
<g id="node53" class="node"><title>:_14</title>
<a xlink:href="http://www.w3.org/1999/02/22-rdf-syntax-ns#Bag" target="_blank" onmouseover="show_status('http://www.w3.org/1999/02/22-rdf-syntax-ns#Bag');">
<ellipse cx="954" cy="962" rx="28" ry="18" style="fill:#d2d2d2;stroke:#d2d2d2"/>
<text text-anchor="middle" x="954" y="966" style="font-family:arial">rdf:Bag</text>
</a></g>
<g id="edge52" class="edge"><title>:_13-&gt;:_14</title>
<a xlink:href="http://www2.elsevier.co.uk/~tony/1014/yads-schema-2002-04-03#collection" target="_blank" onmouseover="show_status('http://www2.elsevier.co.uk/~tony/1014/yads-schema-2002-04-03#collection');">
<path style="fill:none;stroke:#add9e6" d="M902,890C904,901 907,915 913,926 916,932 922,938 927,943"/>
<polygon style="fill:#add9e6;stroke:#add9e6" points="925,944 934,949 928,941 925,944"/>
<text text-anchor="middle" x="954" y="921" style="font-family:arial">has:collection</text>
</a></g>
<g id="node61" class="node"><title>doi:1014/tube/victoria</title>
<a xlink:href="http://dx.doi.org/1014/tube/victoria" target="_blank" onmouseover="show_status('http://dx.doi.org/1014/tube/victoria');">
<ellipse cx="1069" cy="962" rx="63" ry="18" style="fill:#dca0dd;stroke:#dca0dd"/>
<text text-anchor="middle" x="1069" y="966" style="font-family:arial">doi:1014/tube/victoria</text>
</a></g>
<g id="edge60" class="edge"><title>:_16-&gt;doi:1014/tube/victoria</title>
<a xlink:href="http://www2.elsevier.co.uk/~tony/1014/yads-schema-2002-04-03#resource" target="_blank" onmouseover="show_status('http://www2.elsevier.co.uk/~tony/1014/yads-schema-2002-04-03#resource');">
<path style="fill:none;stroke:#add9e6" d="M1047,890C1041,901 1036,914 1040,926 1041,930 1043,933 1045,937"/>
<polygon style="fill:#add9e6;stroke:#add9e6" points="1043,938 1051,945 1047,936 1043,938"/>
<text text-anchor="middle" x="1082" y="921" style="font-family:arial">has:resource</text>
</a></g>
<g id="node63" class="node"><title>:_17</title>
<a xlink:href="http://www.w3.org/1999/02/22-rdf-syntax-ns#Bag" target="_blank" onmouseover="show_status('http://www.w3.org/1999/02/22-rdf-syntax-ns#Bag');">
<ellipse cx="1178" cy="962" rx="28" ry="18" style="fill:#d2d2d2;stroke:#d2d2d2"/>
<text text-anchor="middle" x="1178" y="966" style="font-family:arial">rdf:Bag</text>
</a></g>
<g id="edge62" class="edge"><title>:_16-&gt;:_17</title>
<a xlink:href="http://www2.elsevier.co.uk/~tony/1014/yads-schema-2002-04-03#collection" target="_blank" onmouseover="show_status('http://www2.elsevier.co.uk/~tony/1014/yads-schema-2002-04-03#collection');">
<path style="fill:none;stroke:#add9e6" d="M1087,887C1097,893 1108,901 1117,908 1125,915 1125,919 1133,926 1139,932 1145,937 1152,942"/>
<polygon style="fill:#add9e6;stroke:#add9e6" points="1150,943 1159,948 1153,940 1150,943"/>
<text text-anchor="middle" x="1174" y="921" style="font-family:arial">has:collection</text>
</a></g>
<g id="node55" class="node"><title>:_15</title>
<ellipse cx="839" cy="1067" rx="33" ry="18" style="fill:#eedb82;stroke:#eedb82"/>
<text text-anchor="middle" x="839" y="1071" style="font-family:arial">tube:Mins</text>
</g>
<g id="edge54" class="edge"><title>:_14-&gt;:_15</title>
<a xlink:href="http://www.w3.org/1999/02/22-rdf-syntax-ns#_1" target="_blank" onmouseover="show_status('http://www.w3.org/1999/02/22-rdf-syntax-ns#_1');">
<path style="fill:none;stroke:#add9e6" d="M938,977C918,995 885,1024 863,1045"/>
<polygon style="fill:#add9e6;stroke:#add9e6" points="862,1043 856,1051 865,1046 862,1043"/>
<text text-anchor="middle" x="934" y="1011" style="font-family:arial">rdf:_1</text>
</a></g>
<g id="node58" class="node"><title>data:,1</title>
<a xlink:href="" onclick="show_data('1');" onmouseover="show_status('data:,1');">
<ellipse cx="826" cy="1171" rx="27" ry="18" style="fill:#dca0dd;stroke:#dca0dd"/>
<text text-anchor="middle" x="826" y="1175" style="font-family:arial">data:,1</text>
</a></g>
<g id="edge57" class="edge"><title>:_15-&gt;data:,1</title>
<a xlink:href="http://www2.elsevier.co.uk/~tony/1014/yads-schema-2002-04-03#resource" target="_blank" onmouseover="show_status('http://www2.elsevier.co.uk/~tony/1014/yads-schema-2002-04-03#resource');">
<path style="fill:none;stroke:#add9e6" d="M837,1085C834,1101 832,1125 829,1144"/>
<polygon style="fill:#add9e6;stroke:#add9e6" points="827,1143 828,1153 832,1143 827,1143"/>
<text text-anchor="middle" x="874" y="1130" style="font-family:arial">has:resource</text>
</a></g>
<g id="node65" class="node"><title>:_18</title>
<ellipse cx="1084" cy="1067" rx="33" ry="18" style="fill:#eedb82;stroke:#eedb82"/>
<text text-anchor="middle" x="1084" y="1071" style="font-family:arial">tube:Mins</text>
</g>
<g id="edge64" class="edge"><title>:_17-&gt;:_18</title>
<a xlink:href="http://www.w3.org/1999/02/22-rdf-syntax-ns#_1" target="_blank" onmouseover="show_status('http://www.w3.org/1999/02/22-rdf-syntax-ns#_1');">
<path style="fill:none;stroke:#add9e6" d="M1164,978C1148,995 1122,1024 1105,1044"/>
<polygon style="fill:#add9e6;stroke:#add9e6" points="1104,1041 1099,1050 1108,1045 1104,1041"/>
<text text-anchor="middle" x="1164" y="1011" style="font-family:arial">rdf:_1</text>
</a></g>
<g id="node68" class="node"><title>data:,2</title>
<a xlink:href="" onclick="show_data('2');" onmouseover="show_status('data:,2');">
<ellipse cx="1071" cy="1171" rx="27" ry="18" style="fill:#dca0dd;stroke:#dca0dd"/>
<text text-anchor="middle" x="1071" y="1175" style="font-family:arial">data:,2</text>
</a></g>
<g id="edge67" class="edge"><title>:_18-&gt;data:,2</title>
<a xlink:href="http://www2.elsevier.co.uk/~tony/1014/yads-schema-2002-04-03#resource" target="_blank" onmouseover="show_status('http://www2.elsevier.co.uk/~tony/1014/yads-schema-2002-04-03#resource');">
<path style="fill:none;stroke:#add9e6" d="M1082,1085C1079,1101 1077,1125 1074,1144"/>
<polygon style="fill:#add9e6;stroke:#add9e6" points="1072,1143 1073,1153 1077,1143 1072,1143"/>
<text text-anchor="middle" x="1119" y="1130" style="font-family:arial">has:resource</text>
</a></g>
<g id="node75" class="node"><title>:_21</title>
<ellipse cx="489" cy="872" rx="53" ry="18" style="fill:#eedb82;stroke:#eedb82"/>
<text text-anchor="middle" x="489" y="876" style="font-family:arial">tube:PrevStation</text>
</g>
<g id="edge74" class="edge"><title>:_20-&gt;:_21</title>
<a xlink:href="http://www.w3.org/1999/02/22-rdf-syntax-ns#_1" target="_blank" onmouseover="show_status('http://www.w3.org/1999/02/22-rdf-syntax-ns#_1');">
<path style="fill:none;stroke:#add9e6" d="M490,779C490,797 490,824 489,845"/>
<polygon style="fill:#add9e6;stroke:#add9e6" points="487,844 489,854 492,844 487,844"/>
<text text-anchor="middle" x="510" y="816" style="font-family:arial">rdf:_1</text>
</a></g>
<g id="node77" class="node"><title>:_24</title>
<ellipse cx="359" cy="872" rx="53" ry="18" style="fill:#eedb82;stroke:#eedb82"/>
<text text-anchor="middle" x="359" y="876" style="font-family:arial">tube:NextStation</text>
</g>
<g id="edge76" class="edge"><title>:_20-&gt;:_24</title>
<a xlink:href="http://www.w3.org/1999/02/22-rdf-syntax-ns#_2" target="_blank" onmouseover="show_status('http://www.w3.org/1999/02/22-rdf-syntax-ns#_2');">
<path style="fill:none;stroke:#add9e6" d="M474,776C468,782 460,789 453,795 449,799 448,800 443,803 424,819 403,836 386,850"/>
<polygon style="fill:#add9e6;stroke:#add9e6" points="386,847 379,855 389,851 386,847"/>
<text text-anchor="middle" x="469" y="816" style="font-family:arial">rdf:_2</text>
</a></g>
<g id="edge79" class="edge"><title>:_21-&gt;doi:1014/tube/victoria</title>
<a xlink:href="http://www2.elsevier.co.uk/~tony/1014/yads-schema-2002-04-03#resource" target="_blank" onmouseover="show_status('http://www2.elsevier.co.uk/~tony/1014/yads-schema-2002-04-03#resource');">
<path style="fill:none;stroke:#add9e6" d="M540,877C583,883 641,892 657,908 663,914 655,921 661,926 690,950 958,938 994,944 1001,945 1005,947 1010,948"/>
<polygon style="fill:#add9e6;stroke:#add9e6" points="1008,950 1018,951 1010,945 1008,950"/>
<text text-anchor="middle" x="702" y="921" style="font-family:arial">has:resource</text>
</a></g>
<g id="node81" class="node"><title>:_22</title>
<a xlink:href="http://www.w3.org/1999/02/22-rdf-syntax-ns#Bag" target="_blank" onmouseover="show_status('http://www.w3.org/1999/02/22-rdf-syntax-ns#Bag');">
<ellipse cx="470" cy="962" rx="28" ry="18" style="fill:#d2d2d2;stroke:#d2d2d2"/>
<text text-anchor="middle" x="470" y="966" style="font-family:arial">rdf:Bag</text>
</a></g>
<g id="edge81" class="edge"><title>:_21-&gt;:_22</title>
<a xlink:href="http://www2.elsevier.co.uk/~tony/1014/yads-schema-2002-04-03#collection" target="_blank" onmouseover="show_status('http://www2.elsevier.co.uk/~tony/1014/yads-schema-2002-04-03#collection');">
<path style="fill:none;stroke:#add9e6" d="M480,890C477,896 475,902 473,908 471,917 470,926 470,935"/>
<polygon style="fill:#add9e6;stroke:#add9e6" points="468,934 470,944 473,934 468,934"/>
<text text-anchor="middle" x="517" y="921" style="font-family:arial">has:collection</text>
</a></g>
<g id="edge89" class="edge"><title>:_24-&gt;doi:1014/tube/westminster</title>
<a xlink:href="http://www2.elsevier.co.uk/~tony/1014/yads-schema-2002-04-03#resource" target="_blank" onmouseover="show_status('http://www2.elsevier.co.uk/~tony/1014/yads-schema-2002-04-03#resource');">
<path style="fill:none;stroke:#add9e6" d="M399,884C407,886 416,888 424,890 482,902 502,883 554,908 565,914 562,921 572,926 603,941 684,951 748,956"/>
<polygon style="fill:#add9e6;stroke:#add9e6" points="747,958 757,957 747,953 747,958"/>
<text text-anchor="middle" x="613" y="921" style="font-family:arial">has:resource</text>
</a></g>
<g id="node89" class="node"><title>:_25</title>
<a xlink:href="http://www.w3.org/1999/02/22-rdf-syntax-ns#Bag" target="_blank" onmouseover="show_status('http://www.w3.org/1999/02/22-rdf-syntax-ns#Bag');">
<ellipse cx="352" cy="962" rx="28" ry="18" style="fill:#d2d2d2;stroke:#d2d2d2"/>
<text text-anchor="middle" x="352" y="966" style="font-family:arial">rdf:Bag</text>
</a></g>
<g id="edge91" class="edge"><title>:_24-&gt;:_25</title>
<a xlink:href="http://www2.elsevier.co.uk/~tony/1014/yads-schema-2002-04-03#collection" target="_blank" onmouseover="show_status('http://www2.elsevier.co.uk/~tony/1014/yads-schema-2002-04-03#collection');">
<path style="fill:none;stroke:#add9e6" d="M349,890C347,896 344,902 343,908 341,917 342,926 344,935"/>
<polygon style="fill:#add9e6;stroke:#add9e6" points="341,935 346,944 346,934 341,935"/>
<text text-anchor="middle" x="387" y="921" style="font-family:arial">has:collection</text>
</a></g>
<g id="node83" class="node"><title>:_23</title>
<ellipse cx="489" cy="1067" rx="33" ry="18" style="fill:#eedb82;stroke:#eedb82"/>
<text text-anchor="middle" x="489" y="1071" style="font-family:arial">tube:Mins</text>
</g>
<g id="edge83" class="edge"><title>:_22-&gt;:_23</title>
<a xlink:href="http://www.w3.org/1999/02/22-rdf-syntax-ns#_1" target="_blank" onmouseover="show_status('http://www.w3.org/1999/02/22-rdf-syntax-ns#_1');">
<path style="fill:none;stroke:#add9e6" d="M473,980C476,996 481,1021 484,1040"/>
<polygon style="fill:#add9e6;stroke:#add9e6" points="481,1040 486,1049 486,1039 481,1040"/>
<text text-anchor="middle" x="500" y="1011" style="font-family:arial">rdf:_1</text>
</a></g>
<g id="edge86" class="edge"><title>:_23-&gt;data:,2</title>
<a xlink:href="http://www2.elsevier.co.uk/~tony/1014/yads-schema-2002-04-03#resource" target="_blank" onmouseover="show_status('http://www2.elsevier.co.uk/~tony/1014/yads-schema-2002-04-03#resource');">
<path style="fill:none;stroke:#add9e6" d="M516,1077C557,1093 636,1121 706,1135 788,1152 810,1145 892,1153 942,1158 1001,1164 1037,1167"/>
<polygon style="fill:#add9e6;stroke:#add9e6" points="1034,1169 1044,1168 1034,1164 1034,1169"/>
<text text-anchor="middle" x="747" y="1130" style="font-family:arial">has:resource</text>
</a></g>
<g id="node91" class="node"><title>:_26</title>
<ellipse cx="366" cy="1067" rx="33" ry="18" style="fill:#eedb82;stroke:#eedb82"/>
<text text-anchor="middle" x="366" y="1071" style="font-family:arial">tube:Mins</text>
</g>
<g id="edge93" class="edge"><title>:_25-&gt;:_26</title>
<a xlink:href="http://www.w3.org/1999/02/22-rdf-syntax-ns#_1" target="_blank" onmouseover="show_status('http://www.w3.org/1999/02/22-rdf-syntax-ns#_1');">
<path style="fill:none;stroke:#add9e6" d="M354,980C357,996 360,1021 362,1040"/>
<polygon style="fill:#add9e6;stroke:#add9e6" points="359,1039 363,1049 364,1039 359,1039"/>
<text text-anchor="middle" x="380" y="1011" style="font-family:arial">rdf:_1</text>
</a></g>
<g id="edge96" class="edge"><title>:_26-&gt;data:,1</title>
<a xlink:href="http://www2.elsevier.co.uk/~tony/1014/yads-schema-2002-04-03#resource" target="_blank" onmouseover="show_status('http://www2.elsevier.co.uk/~tony/1014/yads-schema-2002-04-03#resource');">
<path style="fill:none;stroke:#add9e6" d="M386,1082C409,1098 450,1123 488,1135 543,1153 713,1165 789,1169"/>
<polygon style="fill:#add9e6;stroke:#add9e6" points="789,1171 799,1170 789,1167 789,1171"/>
<text text-anchor="middle" x="529" y="1130" style="font-family:arial">has:resource</text>
</a></g>
</g>
</svg>
