<?xml version="1.0" encoding="UTF-8" standalone="no"?>
<!DOCTYPE svg PUBLIC "-//W3C//DTD SVG 1.0//EN"
 "http://www.w3.org/TR/2001/REC-SVG-20010904/DTD/svg10.dtd" [
 <!ATTLIST svg xmlns:xlink CDATA #FIXED "http://www.w3.org/1999/xlink">
]>
<!-- Generated by dot version 1.8.5 (Tue Apr 23 17:19:23  2002)
     For user: (Administrator) ,S-1-5-21-1454471165-688789844-1708537768-500   Title: yads    Pages: 1 -->
<svg width="1353px" height="1280px"
 xmlns="http://www.w3.org/2000/svg" xmlns:xlink="http://www.w3.org/1999/xlink">
<g id="graph0" class="graph" style="font-family:Times-Roman;font-size:11.00">
<title>yads</title>
<text text-anchor="middle" x="676" y="1269" style="font-family:arial;font-size:24.00">YADS - A Description Service</text>
<g id="graph2" class="cluster"><title>cluster_1</title>
<polygon style="fill:none;stroke:#d2d2d2;stroke-dasharray:5,2" points="19,1237 1334,1237 1334,43 19,43 19,1237"/>
<text text-anchor="middle" x="88" y="55" style="font-family:arial">Nest - Stratford Station</text>
</g>
<g id="graph3" class="cluster"><title>cluster_3</title>
<polygon style="fill:none;stroke:#d2d2d2;stroke-dasharray:5,2" points="27,1229 1326,1229 1326,238 27,238 27,1229"/>
<text text-anchor="middle" x="99" y="250" style="font-family:arial">Nest - Application Profile</text>
</g>
<g id="graph4" class="cluster"><title>cluster_5</title>
<polygon style="fill:none;stroke:#d2d2d2;stroke-dasharray:5,2" points="35,795 278,795 278,433 35,433 35,795"/>
<text text-anchor="middle" x="80" y="445" style="font-family:arial">Item - Location</text>
</g>
<g id="graph5" class="cluster"><title>cluster_7</title>
<polygon style="fill:none;stroke:#d2d2d2;stroke-dasharray:5,2" points="43,787 165,787 165,628 43,628 43,787"/>
<text text-anchor="middle" x="59" y="640" style="font-family:arial">Item</text>
</g>
<g id="graph6" class="cluster"><title>cluster_8</title>
<polygon style="fill:none;stroke:#d2d2d2;stroke-dasharray:5,2" points="173,787 270,787 270,628 173,628 173,787"/>
<text text-anchor="middle" x="189" y="640" style="font-family:arial">Item</text>
</g>
<g id="graph7" class="cluster"><title>cluster_9</title>
<polygon style="fill:none;stroke:#d2d2d2;stroke-dasharray:5,2" points="286,1221 1318,1221 1318,433 286,433 286,1221"/>
<text text-anchor="middle" x="355" y="445" style="font-family:arial">Item - Line Interchanges</text>
</g>
<g id="graph8" class="cluster"><title>cluster_11</title>
<polygon style="fill:none;stroke:#d2d2d2;stroke-dasharray:5,2" points="294,1213 754,1213 754,628 294,628 294,1213"/>
<text text-anchor="middle" x="362" y="640" style="font-family:arial">Nest - Line Interchange</text>
</g>
<g id="graph9" class="cluster"><title>cluster_13</title>
<polygon style="fill:none;stroke:#d2d2d2;stroke-dasharray:5,2" points="302,1205 528,1205 528,829 302,829 302,1205"/>
<text text-anchor="middle" x="370" y="841" style="font-family:arial">Nest - Next Stop Back</text>
</g>
<g id="graph10" class="cluster"><title>cluster_15</title>
<polygon style="fill:none;stroke:#d2d2d2;stroke-dasharray:5,2" points="423,1197 520,1197 520,1024 423,1024 423,1197"/>
<text text-anchor="middle" x="439" y="1036" style="font-family:arial">Item</text>
</g>
<g id="graph11" class="cluster"><title>cluster_16</title>
<polygon style="fill:none;stroke:#d2d2d2;stroke-dasharray:5,2" points="536,1205 746,1205 746,829 536,829 536,1205"/>
<text text-anchor="middle" x="588" y="841" style="font-family:arial">Nest - Next Stop</text>
</g>
<g id="graph12" class="cluster"><title>cluster_18</title>
<polygon style="fill:none;stroke:#d2d2d2;stroke-dasharray:5,2" points="641,1197 738,1197 738,1024 641,1024 641,1197"/>
<text text-anchor="middle" x="657" y="1036" style="font-family:arial">Item</text>
</g>
<g id="graph13" class="cluster"><title>cluster_19</title>
<polygon style="fill:none;stroke:#d2d2d2;stroke-dasharray:5,2" points="762,1109 1016,1109 1016,628 762,628 762,1109"/>
<text text-anchor="middle" x="830" y="640" style="font-family:arial">Nest - Line Interchange</text>
</g>
<g id="graph14" class="cluster"><title>cluster_21</title>
<polygon style="fill:none;stroke:#d2d2d2;stroke-dasharray:5,2" points="770,1101 1008,1101 1008,829 770,829 770,1101"/>
<text text-anchor="middle" x="822" y="841" style="font-family:arial">Nest - Next Stop</text>
</g>
<g id="graph15" class="cluster"><title>cluster_23</title>
<polygon style="fill:none;stroke:#d2d2d2;stroke-dasharray:5,2" points="813,1093 895,1093 895,1024 813,1024 813,1093"/>
<text text-anchor="middle" x="829" y="1036" style="font-family:arial">Item</text>
</g>
<g id="graph16" class="cluster"><title>cluster_24</title>
<polygon style="fill:none;stroke:#d2d2d2;stroke-dasharray:5,2" points="1024,1213 1310,1213 1310,628 1024,628 1024,1213"/>
<text text-anchor="middle" x="1092" y="640" style="font-family:arial">Nest - Line Interchange</text>
</g>
<g id="graph17" class="cluster"><title>cluster_26</title>
<polygon style="fill:none;stroke:#d2d2d2;stroke-dasharray:5,2" points="1032,1205 1302,1205 1302,829 1032,829 1032,1205"/>
<text text-anchor="middle" x="1100" y="841" style="font-family:arial">Nest - Next Stop Back</text>
</g>
<g id="graph18" class="cluster"><title>cluster_28</title>
<polygon style="fill:none;stroke:#d2d2d2;stroke-dasharray:5,2" points="1197,1197 1294,1197 1294,1024 1197,1024 1197,1197"/>
<text text-anchor="middle" x="1213" y="1036" style="font-family:arial">Item</text>
</g>
<g id="node2" class="node"><title>:_1</title>
<ellipse cx="241" cy="86" rx="40" ry="18" style="fill:#eedb82;stroke:#eedb82"/>
<text text-anchor="middle" x="241" y="90" style="font-family:arial">tube:Station</text>
</g>
<g id="node4" class="node"><title>doi:1014/tube/stratford</title>
<a xlink:href="http://dx.doi.org/1014/tube/stratford" target="_blank" onmouseover="show_status('http://dx.doi.org/1014/tube/stratford');">
<ellipse cx="126" cy="176" rx="67" ry="18" style="fill:#dca0dd;stroke:#dca0dd"/>
<text text-anchor="middle" x="126" y="180" style="font-family:arial">doi:1014/tube/stratford</text>
</a></g>
<g id="edge3" class="edge"><title>:_1-&gt;doi:1014/tube/stratford</title>
<a xlink:href="http://www2.elsevier.co.uk/~tony/1014/yads-schema-2002-04-03#resource" target="_blank" onmouseover="show_status('http://www2.elsevier.co.uk/~tony/1014/yads-schema-2002-04-03#resource');">
<path style="fill:none;stroke:#add9e6" d="M206,95C190,101 170,109 156,122 148,130 141,140 137,149"/>
<polygon style="fill:#add9e6;stroke:#add9e6" points="135,148 133,158 139,150 135,148"/>
<text text-anchor="middle" x="203" y="135" style="font-family:arial">has:resource</text>
</a></g>
<g id="node6" class="node"><title>node_1</title>
<polygon style="fill:#6497ed;stroke:#6497ed" points="271,158 211,158 211,194 271,194 271,158"/>
<text text-anchor="middle" x="241" y="180" style="font-family:arial">Stratford</text>
</g>
<g id="edge5" class="edge"><title>:_1-&gt;node_1</title>
<a xlink:href="http://www2.elsevier.co.uk/~tony/1014/yads-schema-2002-04-03#label" target="_blank" onmouseover="show_status('http://www2.elsevier.co.uk/~tony/1014/yads-schema-2002-04-03#label');">
<path style="fill:none;stroke:#add9e6" d="M241,104C241,117 241,134 241,149"/>
<polygon style="fill:#add9e6;stroke:#add9e6" points="239,148 241,158 244,148 239,148"/>
<text text-anchor="middle" x="268" y="135" style="font-family:arial">has:label</text>
</a></g>
<g id="node8" class="node"><title>:_2</title>
<a xlink:href="http://www.w3.org/1999/02/22-rdf-syntax-ns#Bag" target="_blank" onmouseover="show_status('http://www.w3.org/1999/02/22-rdf-syntax-ns#Bag');">
<ellipse cx="317" cy="176" rx="28" ry="18" style="fill:#d2d2d2;stroke:#d2d2d2"/>
<text text-anchor="middle" x="317" y="180" style="font-family:arial">rdf:Bag</text>
</a></g>
<g id="edge7" class="edge"><title>:_1-&gt;:_2</title>
<a xlink:href="http://www2.elsevier.co.uk/~tony/1014/yads-schema-2002-04-03#collection" target="_blank" onmouseover="show_status('http://www2.elsevier.co.uk/~tony/1014/yads-schema-2002-04-03#collection');">
<path style="fill:none;stroke:#add9e6" d="M270,98C281,104 293,112 300,122 306,129 310,140 313,149"/>
<polygon style="fill:#add9e6;stroke:#add9e6" points="310,149 315,158 315,148 310,149"/>
<text text-anchor="middle" x="352" y="135" style="font-family:arial">has:collection</text>
</a></g>
<g id="node10" class="node"><title>:_3</title>
<ellipse cx="317" cy="281" rx="34" ry="18" style="fill:#eedb82;stroke:#eedb82"/>
<text text-anchor="middle" x="317" y="285" style="font-family:arial">doi:Profile</text>
</g>
<g id="edge9" class="edge"><title>:_2-&gt;:_3</title>
<a xlink:href="http://www.w3.org/1999/02/22-rdf-syntax-ns#_1" target="_blank" onmouseover="show_status('http://www.w3.org/1999/02/22-rdf-syntax-ns#_1');">
<path style="fill:none;stroke:#add9e6" d="M317,194C317,210 317,235 317,254"/>
<polygon style="fill:#add9e6;stroke:#add9e6" points="315,253 317,263 320,253 315,253"/>
<text text-anchor="middle" x="337" y="225" style="font-family:arial">rdf:_1</text>
</a></g>
<g id="node13" class="node"><title>doi:1014/profile.tube</title>
<a xlink:href="http://dx.doi.org/1014/profile.tube" target="_blank" onmouseover="show_status('http://dx.doi.org/1014/profile.tube');">
<ellipse cx="247" cy="371" rx="59" ry="18" style="fill:#dca0dd;stroke:#dca0dd"/>
<text text-anchor="middle" x="247" y="375" style="font-family:arial">doi:1014/profile.tube</text>
</a></g>
<g id="edge12" class="edge"><title>:_3-&gt;doi:1014/profile.tube</title>
<a xlink:href="http://www2.elsevier.co.uk/~tony/1014/yads-schema-2002-04-03#resource" target="_blank" onmouseover="show_status('http://www2.elsevier.co.uk/~tony/1014/yads-schema-2002-04-03#resource');">
<path style="fill:none;stroke:#add9e6" d="M286,289C272,295 257,304 248,317 244,325 242,335 243,344"/>
<polygon style="fill:#add9e6;stroke:#add9e6" points="241,343 243,353 246,343 241,343"/>
<text text-anchor="middle" x="292" y="330" style="font-family:arial">has:resource</text>
</a></g>
<g id="node15" class="node"><title>:_4</title>
<a xlink:href="http://www.w3.org/1999/02/22-rdf-syntax-ns#Bag" target="_blank" onmouseover="show_status('http://www.w3.org/1999/02/22-rdf-syntax-ns#Bag');">
<ellipse cx="352" cy="371" rx="28" ry="18" style="fill:#d2d2d2;stroke:#d2d2d2"/>
<text text-anchor="middle" x="352" y="375" style="font-family:arial">rdf:Bag</text>
</a></g>
<g id="edge14" class="edge"><title>:_3-&gt;:_4</title>
<a xlink:href="http://www2.elsevier.co.uk/~tony/1014/yads-schema-2002-04-03#collection" target="_blank" onmouseover="show_status('http://www2.elsevier.co.uk/~tony/1014/yads-schema-2002-04-03#collection');">
<path style="fill:none;stroke:#add9e6" d="M325,299C328,304 331,311 333,317 337,326 340,335 343,344"/>
<polygon style="fill:#add9e6;stroke:#add9e6" points="340,344 346,353 345,343 340,344"/>
<text text-anchor="middle" x="381" y="330" style="font-family:arial">has:collection</text>
</a></g>
<g id="node17" class="node"><title>:_5</title>
<a xlink:href="http://www2.elsevier.co.uk/~tony/1014/yads-schema-2002-04-03#Item" target="_blank" onmouseover="show_status('http://www2.elsevier.co.uk/~tony/1014/yads-schema-2002-04-03#Item');">
<ellipse cx="238" cy="476" rx="28" ry="18" style="fill:#d2d2d2;stroke:#d2d2d2"/>
<text text-anchor="middle" x="238" y="480" style="font-family:arial">isa:Item</text>
</a></g>
<g id="edge16" class="edge"><title>:_4-&gt;:_5</title>
<a xlink:href="http://www.w3.org/1999/02/22-rdf-syntax-ns#_1" target="_blank" onmouseover="show_status('http://www.w3.org/1999/02/22-rdf-syntax-ns#_1');">
<path style="fill:none;stroke:#add9e6" d="M335,386C321,398 300,417 282,433 274,440 267,448 260,455"/>
<polygon style="fill:#add9e6;stroke:#add9e6" points="259,453 253,461 262,456 259,453"/>
<text text-anchor="middle" x="334" y="420" style="font-family:arial">rdf:_1</text>
</a></g>
<g id="node19" class="node"><title>:_9</title>
<a xlink:href="http://www2.elsevier.co.uk/~tony/1014/yads-schema-2002-04-03#Item" target="_blank" onmouseover="show_status('http://www2.elsevier.co.uk/~tony/1014/yads-schema-2002-04-03#Item');">
<ellipse cx="464" cy="476" rx="28" ry="18" style="fill:#d2d2d2;stroke:#d2d2d2"/>
<text text-anchor="middle" x="464" y="480" style="font-family:arial">isa:Item</text>
</a></g>
<g id="edge18" class="edge"><title>:_4-&gt;:_9</title>
<a xlink:href="http://www.w3.org/1999/02/22-rdf-syntax-ns#_2" target="_blank" onmouseover="show_status('http://www.w3.org/1999/02/22-rdf-syntax-ns#_2');">
<path style="fill:none;stroke:#add9e6" d="M368,386C387,404 420,434 441,455"/>
<polygon style="fill:#add9e6;stroke:#add9e6" points="439,456 448,461 442,453 439,456"/>
<text text-anchor="middle" x="429" y="420" style="font-family:arial">rdf:_2</text>
</a></g>
<g id="node22" class="node"><title>:_6</title>
<a xlink:href="http://www.w3.org/1999/02/22-rdf-syntax-ns#Bag" target="_blank" onmouseover="show_status('http://www.w3.org/1999/02/22-rdf-syntax-ns#Bag');">
<ellipse cx="189" cy="566" rx="28" ry="18" style="fill:#d2d2d2;stroke:#d2d2d2"/>
<text text-anchor="middle" x="189" y="570" style="font-family:arial">rdf:Bag</text>
</a></g>
<g id="edge21" class="edge"><title>:_5-&gt;:_6</title>
<a xlink:href="http://www2.elsevier.co.uk/~tony/1014/yads-schema-2002-04-03#collection" target="_blank" onmouseover="show_status('http://www2.elsevier.co.uk/~tony/1014/yads-schema-2002-04-03#collection');">
<path style="fill:none;stroke:#add9e6" d="M220,490C213,496 206,504 201,512 197,520 194,530 192,539"/>
<polygon style="fill:#add9e6;stroke:#add9e6" points="190,538 191,548 195,538 190,538"/>
<text text-anchor="middle" x="245" y="525" style="font-family:arial">has:collection</text>
</a></g>
<g id="node35" class="node"><title>:_10</title>
<a xlink:href="http://www.w3.org/1999/02/22-rdf-syntax-ns#Bag" target="_blank" onmouseover="show_status('http://www.w3.org/1999/02/22-rdf-syntax-ns#Bag');">
<ellipse cx="692" cy="566" rx="28" ry="18" style="fill:#d2d2d2;stroke:#d2d2d2"/>
<text text-anchor="middle" x="692" y="570" style="font-family:arial">rdf:Bag</text>
</a></g>
<g id="edge34" class="edge"><title>:_9-&gt;:_10</title>
<a xlink:href="http://www2.elsevier.co.uk/~tony/1014/yads-schema-2002-04-03#collection" target="_blank" onmouseover="show_status('http://www2.elsevier.co.uk/~tony/1014/yads-schema-2002-04-03#collection');">
<path style="fill:none;stroke:#add9e6" d="M488,485C529,502 612,534 659,553"/>
<polygon style="fill:#add9e6;stroke:#add9e6" points="658,555 668,557 660,551 658,555"/>
<text text-anchor="middle" x="640" y="525" style="font-family:arial">has:collection</text>
</a></g>
<g id="node24" class="node"><title>:_7</title>
<ellipse cx="104" cy="671" rx="35" ry="18" style="fill:#eedb82;stroke:#eedb82"/>
<text text-anchor="middle" x="104" y="675" style="font-family:arial">tube:Zone</text>
</g>
<g id="edge23" class="edge"><title>:_6-&gt;:_7</title>
<a xlink:href="http://www.w3.org/1999/02/22-rdf-syntax-ns#_1" target="_blank" onmouseover="show_status('http://www.w3.org/1999/02/22-rdf-syntax-ns#_1');">
<path style="fill:none;stroke:#add9e6" d="M173,581C167,588 160,595 154,602 142,616 130,633 121,647"/>
<polygon style="fill:#add9e6;stroke:#add9e6" points="120,644 116,654 124,647 120,644"/>
<text text-anchor="middle" x="177" y="615" style="font-family:arial">rdf:_1</text>
</a></g>
<g id="node26" class="node"><title>:_8</title>
<ellipse cx="213" cy="671" rx="32" ry="18" style="fill:#eedb82;stroke:#eedb82"/>
<text text-anchor="middle" x="213" y="675" style="font-family:arial">tube:Grid</text>
</g>
<g id="edge25" class="edge"><title>:_6-&gt;:_8</title>
<a xlink:href="http://www.w3.org/1999/02/22-rdf-syntax-ns#_2" target="_blank" onmouseover="show_status('http://www.w3.org/1999/02/22-rdf-syntax-ns#_2');">
<path style="fill:none;stroke:#add9e6" d="M193,584C196,600 202,625 207,644"/>
<polygon style="fill:#add9e6;stroke:#add9e6" points="204,644 209,653 209,643 204,644"/>
<text text-anchor="middle" x="222" y="615" style="font-family:arial">rdf:_2</text>
</a></g>
<g id="node29" class="node"><title>data:,Zone%203</title>
<a xlink:href="" onclick="show_data('Zone%203');" onmouseover="show_status('data:,Zone%203');">
<ellipse cx="104" cy="761" rx="53" ry="18" style="fill:#dca0dd;stroke:#dca0dd"/>
<text text-anchor="middle" x="104" y="765" style="font-family:arial">data:,Zone%203</text>
</a></g>
<g id="edge28" class="edge"><title>:_7-&gt;data:,Zone%203</title>
<a xlink:href="http://www2.elsevier.co.uk/~tony/1014/yads-schema-2002-04-03#resource" target="_blank" onmouseover="show_status('http://www2.elsevier.co.uk/~tony/1014/yads-schema-2002-04-03#resource');">
<path style="fill:none;stroke:#add9e6" d="M95,689C92,694 89,701 88,707 87,715 87,718 88,725 88,728 89,731 90,734"/>
<polygon style="fill:#add9e6;stroke:#add9e6" points="88,735 94,743 92,733 88,735"/>
<text text-anchor="middle" x="132" y="720" style="font-family:arial">has:resource</text>
</a></g>
<g id="node32" class="node"><title>data:,C8</title>
<a xlink:href="" onclick="show_data('C8');" onmouseover="show_status('data:,C8');">
<ellipse cx="211" cy="761" rx="30" ry="18" style="fill:#dca0dd;stroke:#dca0dd"/>
<text text-anchor="middle" x="211" y="765" style="font-family:arial">data:,C8</text>
</a></g>
<g id="edge31" class="edge"><title>:_8-&gt;data:,C8</title>
<a xlink:href="http://www2.elsevier.co.uk/~tony/1014/yads-schema-2002-04-03#resource" target="_blank" onmouseover="show_status('http://www2.elsevier.co.uk/~tony/1014/yads-schema-2002-04-03#resource');">
<path style="fill:none;stroke:#add9e6" d="M211,689C210,695 209,701 209,707 208,716 209,725 209,733"/>
<polygon style="fill:#add9e6;stroke:#add9e6" points="207,733 210,743 211,733 207,733"/>
<text text-anchor="middle" x="253" y="720" style="font-family:arial">has:resource</text>
</a></g>
<g id="node37" class="node"><title>:_11</title>
<ellipse cx="627" cy="671" rx="53" ry="18" style="fill:#eedb82;stroke:#eedb82"/>
<text text-anchor="middle" x="627" y="675" style="font-family:arial">tube:LineChange</text>
</g>
<g id="edge36" class="edge"><title>:_10-&gt;:_11</title>
<a xlink:href="http://www.w3.org/1999/02/22-rdf-syntax-ns#_1" target="_blank" onmouseover="show_status('http://www.w3.org/1999/02/22-rdf-syntax-ns#_1');">
<path style="fill:none;stroke:#add9e6" d="M682,583C671,600 655,626 643,646"/>
<polygon style="fill:#add9e6;stroke:#add9e6" points="642,643 638,653 646,646 642,643"/>
<text text-anchor="middle" x="690" y="615" style="font-family:arial">rdf:_1</text>
</a></g>
<g id="node39" class="node"><title>:_19</title>
<ellipse cx="828" cy="671" rx="53" ry="18" style="fill:#eedb82;stroke:#eedb82"/>
<text text-anchor="middle" x="828" y="675" style="font-family:arial">tube:LineChange</text>
</g>
<g id="edge38" class="edge"><title>:_10-&gt;:_19</title>
<a xlink:href="http://www.w3.org/1999/02/22-rdf-syntax-ns#_2" target="_blank" onmouseover="show_status('http://www.w3.org/1999/02/22-rdf-syntax-ns#_2');">
<path style="fill:none;stroke:#add9e6" d="M710,580C732,597 771,627 798,648"/>
<polygon style="fill:#add9e6;stroke:#add9e6" points="797,650 806,654 800,646 797,650"/>
<text text-anchor="middle" x="783" y="615" style="font-family:arial">rdf:_2</text>
</a></g>
<g id="node41" class="node"><title>:_24</title>
<ellipse cx="1122" cy="671" rx="53" ry="18" style="fill:#eedb82;stroke:#eedb82"/>
<text text-anchor="middle" x="1122" y="675" style="font-family:arial">tube:LineChange</text>
</g>
<g id="edge40" class="edge"><title>:_10-&gt;:_24</title>
<a xlink:href="http://www.w3.org/1999/02/22-rdf-syntax-ns#_3" target="_blank" onmouseover="show_status('http://www.w3.org/1999/02/22-rdf-syntax-ns#_3');">
<path style="fill:none;stroke:#add9e6" d="M720,570C851,590 889,589 1020,628 1042,635 1064,644 1083,652"/>
<polygon style="fill:#add9e6;stroke:#add9e6" points="1081,654 1091,656 1083,649 1081,654"/>
<text text-anchor="middle" x="1010" y="615" style="font-family:arial">rdf:_3</text>
</a></g>
<g id="node44" class="node"><title>doi:1014/tube/central_line</title>
<a xlink:href="http://dx.doi.org/1014/tube/central_line" target="_blank" onmouseover="show_status('http://dx.doi.org/1014/tube/central_line');">
<ellipse cx="507" cy="761" rx="74" ry="18" style="fill:#dca0dd;stroke:#dca0dd"/>
<text text-anchor="middle" x="507" y="765" style="font-family:arial">doi:1014/tube/central_line</text>
</a></g>
<g id="edge43" class="edge"><title>:_11-&gt;doi:1014/tube/central_line</title>
<a xlink:href="http://www2.elsevier.co.uk/~tony/1014/yads-schema-2002-04-03#resource" target="_blank" onmouseover="show_status('http://www2.elsevier.co.uk/~tony/1014/yads-schema-2002-04-03#resource');">
<path style="fill:none;stroke:#add9e6" d="M586,683C571,689 555,696 542,707 533,715 526,725 520,735"/>
<polygon style="fill:#add9e6;stroke:#add9e6" points="518,733 516,743 523,735 518,733"/>
<text text-anchor="middle" x="589" y="720" style="font-family:arial">has:resource</text>
</a></g>
<g id="node46" class="node"><title>:_12</title>
<a xlink:href="http://www.w3.org/1999/02/22-rdf-syntax-ns#Bag" target="_blank" onmouseover="show_status('http://www.w3.org/1999/02/22-rdf-syntax-ns#Bag');">
<ellipse cx="627" cy="761" rx="28" ry="18" style="fill:#d2d2d2;stroke:#d2d2d2"/>
<text text-anchor="middle" x="627" y="765" style="font-family:arial">rdf:Bag</text>
</a></g>
<g id="edge45" class="edge"><title>:_11-&gt;:_12</title>
<a xlink:href="http://www2.elsevier.co.uk/~tony/1014/yads-schema-2002-04-03#collection" target="_blank" onmouseover="show_status('http://www2.elsevier.co.uk/~tony/1014/yads-schema-2002-04-03#collection');">
<path style="fill:none;stroke:#add9e6" d="M627,689C627,702 627,719 627,734"/>
<polygon style="fill:#add9e6;stroke:#add9e6" points="625,733 627,743 630,733 625,733"/>
<text text-anchor="middle" x="668" y="720" style="font-family:arial">has:collection</text>
</a></g>
<g id="node73" class="node"><title>doi:1014/tube/jubilee_line</title>
<a xlink:href="http://dx.doi.org/1014/tube/jubilee_line" target="_blank" onmouseover="show_status('http://dx.doi.org/1014/tube/jubilee_line');">
<ellipse cx="843" cy="761" rx="73" ry="18" style="fill:#dca0dd;stroke:#dca0dd"/>
<text text-anchor="middle" x="843" y="765" style="font-family:arial">doi:1014/tube/jubilee_line</text>
</a></g>
<g id="edge72" class="edge"><title>:_19-&gt;doi:1014/tube/jubilee_line</title>
<a xlink:href="http://www2.elsevier.co.uk/~tony/1014/yads-schema-2002-04-03#resource" target="_blank" onmouseover="show_status('http://www2.elsevier.co.uk/~tony/1014/yads-schema-2002-04-03#resource');">
<path style="fill:none;stroke:#add9e6" d="M831,689C833,702 836,719 838,734"/>
<polygon style="fill:#add9e6;stroke:#add9e6" points="835,734 840,743 840,733 835,734"/>
<text text-anchor="middle" x="879" y="720" style="font-family:arial">has:resource</text>
</a></g>
<g id="node75" class="node"><title>:_20</title>
<a xlink:href="http://www.w3.org/1999/02/22-rdf-syntax-ns#Bag" target="_blank" onmouseover="show_status('http://www.w3.org/1999/02/22-rdf-syntax-ns#Bag');">
<ellipse cx="962" cy="761" rx="28" ry="18" style="fill:#d2d2d2;stroke:#d2d2d2"/>
<text text-anchor="middle" x="962" y="765" style="font-family:arial">rdf:Bag</text>
</a></g>
<g id="edge74" class="edge"><title>:_19-&gt;:_20</title>
<a xlink:href="http://www2.elsevier.co.uk/~tony/1014/yads-schema-2002-04-03#collection" target="_blank" onmouseover="show_status('http://www2.elsevier.co.uk/~tony/1014/yads-schema-2002-04-03#collection');">
<path style="fill:none;stroke:#add9e6" d="M871,682C889,687 908,696 923,707 928,712 937,724 945,735"/>
<polygon style="fill:#add9e6;stroke:#add9e6" points="943,737 951,744 948,734 943,737"/>
<text text-anchor="middle" x="980" y="720" style="font-family:arial">has:collection</text>
</a></g>
<g id="node89" class="node"><title>doi:1014/tube/docklands_light...e</title>
<a xlink:href="http://dx.doi.org/1014/tube/docklands_light_railway_line" target="_blank" onmouseover="show_status('http://dx.doi.org/1014/tube/docklands_light_railway_line');">
<ellipse cx="1123" cy="761" rx="91" ry="18" style="fill:#dca0dd;stroke:#dca0dd"/>
<text text-anchor="middle" x="1123" y="765" style="font-family:arial">doi:1014/tube/docklands_light...e</text>
</a></g>
<g id="edge89" class="edge"><title>:_24-&gt;doi:1014/tube/docklands_light...e</title>
<a xlink:href="http://www2.elsevier.co.uk/~tony/1014/yads-schema-2002-04-03#resource" target="_blank" onmouseover="show_status('http://www2.elsevier.co.uk/~tony/1014/yads-schema-2002-04-03#resource');">
<path style="fill:none;stroke:#add9e6" d="M1122,689C1122,702 1122,719 1123,734"/>
<polygon style="fill:#add9e6;stroke:#add9e6" points="1121,733 1123,743 1126,733 1121,733"/>
<text text-anchor="middle" x="1164" y="720" style="font-family:arial">has:resource</text>
</a></g>
<g id="node91" class="node"><title>:_25</title>
<a xlink:href="http://www.w3.org/1999/02/22-rdf-syntax-ns#Bag" target="_blank" onmouseover="show_status('http://www.w3.org/1999/02/22-rdf-syntax-ns#Bag');">
<ellipse cx="1260" cy="761" rx="28" ry="18" style="fill:#d2d2d2;stroke:#d2d2d2"/>
<text text-anchor="middle" x="1260" y="765" style="font-family:arial">rdf:Bag</text>
</a></g>
<g id="edge91" class="edge"><title>:_24-&gt;:_25</title>
<a xlink:href="http://www2.elsevier.co.uk/~tony/1014/yads-schema-2002-04-03#collection" target="_blank" onmouseover="show_status('http://www2.elsevier.co.uk/~tony/1014/yads-schema-2002-04-03#collection');">
<path style="fill:none;stroke:#add9e6" d="M1162,683C1177,689 1194,697 1208,707 1215,714 1214,718 1221,725 1225,730 1231,735 1236,740"/>
<polygon style="fill:#add9e6;stroke:#add9e6" points="1234,742 1243,747 1238,738 1234,742"/>
<text text-anchor="middle" x="1262" y="720" style="font-family:arial">has:collection</text>
</a></g>
<g id="node48" class="node"><title>:_13</title>
<ellipse cx="439" cy="872" rx="53" ry="18" style="fill:#eedb82;stroke:#eedb82"/>
<text text-anchor="middle" x="439" y="876" style="font-family:arial">tube:PrevStation</text>
</g>
<g id="edge47" class="edge"><title>:_12-&gt;:_13</title>
<a xlink:href="http://www.w3.org/1999/02/22-rdf-syntax-ns#_1" target="_blank" onmouseover="show_status('http://www.w3.org/1999/02/22-rdf-syntax-ns#_1');">
<path style="fill:none;stroke:#add9e6" d="M613,777C606,783 598,790 590,795 571,809 517,835 479,853"/>
<polygon style="fill:#add9e6;stroke:#add9e6" points="479,850 471,857 481,855 479,850"/>
<text text-anchor="middle" x="602" y="816" style="font-family:arial">rdf:_1</text>
</a></g>
<g id="node50" class="node"><title>:_16</title>
<ellipse cx="627" cy="872" rx="53" ry="18" style="fill:#eedb82;stroke:#eedb82"/>
<text text-anchor="middle" x="627" y="876" style="font-family:arial">tube:NextStation</text>
</g>
<g id="edge49" class="edge"><title>:_12-&gt;:_16</title>
<a xlink:href="http://www.w3.org/1999/02/22-rdf-syntax-ns#_2" target="_blank" onmouseover="show_status('http://www.w3.org/1999/02/22-rdf-syntax-ns#_2');">
<path style="fill:none;stroke:#add9e6" d="M627,779C627,797 627,824 627,845"/>
<polygon style="fill:#add9e6;stroke:#add9e6" points="625,844 627,854 630,844 625,844"/>
<text text-anchor="middle" x="648" y="816" style="font-family:arial">rdf:_2</text>
</a></g>
<g id="node53" class="node"><title>doi:1014/tube/mile_end</title>
<a xlink:href="http://dx.doi.org/1014/tube/mile_end" target="_blank" onmouseover="show_status('http://dx.doi.org/1014/tube/mile_end');">
<ellipse cx="378" cy="962" rx="68" ry="18" style="fill:#dca0dd;stroke:#dca0dd"/>
<text text-anchor="middle" x="378" y="966" style="font-family:arial">doi:1014/tube/mile_end</text>
</a></g>
<g id="edge52" class="edge"><title>:_13-&gt;doi:1014/tube/mile_end</title>
<a xlink:href="http://www2.elsevier.co.uk/~tony/1014/yads-schema-2002-04-03#resource" target="_blank" onmouseover="show_status('http://www2.elsevier.co.uk/~tony/1014/yads-schema-2002-04-03#resource');">
<path style="fill:none;stroke:#add9e6" d="M395,882C382,888 368,896 360,908 355,916 356,926 360,935"/>
<polygon style="fill:#add9e6;stroke:#add9e6" points="358,936 365,944 362,934 358,936"/>
<text text-anchor="middle" x="404" y="921" style="font-family:arial">has:resource</text>
</a></g>
<g id="node55" class="node"><title>:_14</title>
<a xlink:href="http://www.w3.org/1999/02/22-rdf-syntax-ns#Bag" target="_blank" onmouseover="show_status('http://www.w3.org/1999/02/22-rdf-syntax-ns#Bag');">
<ellipse cx="492" cy="962" rx="28" ry="18" style="fill:#d2d2d2;stroke:#d2d2d2"/>
<text text-anchor="middle" x="492" y="966" style="font-family:arial">rdf:Bag</text>
</a></g>
<g id="edge54" class="edge"><title>:_13-&gt;:_14</title>
<a xlink:href="http://www2.elsevier.co.uk/~tony/1014/yads-schema-2002-04-03#collection" target="_blank" onmouseover="show_status('http://www2.elsevier.co.uk/~tony/1014/yads-schema-2002-04-03#collection');">
<path style="fill:none;stroke:#add9e6" d="M440,890C442,901 445,915 451,926 454,932 460,938 465,943"/>
<polygon style="fill:#add9e6;stroke:#add9e6" points="463,944 472,949 466,941 463,944"/>
<text text-anchor="middle" x="492" y="921" style="font-family:arial">has:collection</text>
</a></g>
<g id="node63" class="node"><title>doi:1014/tube/leyton</title>
<a xlink:href="http://dx.doi.org/1014/tube/leyton" target="_blank" onmouseover="show_status('http://dx.doi.org/1014/tube/leyton');">
<ellipse cx="604" cy="962" rx="60" ry="18" style="fill:#dca0dd;stroke:#dca0dd"/>
<text text-anchor="middle" x="604" y="966" style="font-family:arial">doi:1014/tube/leyton</text>
</a></g>
<g id="edge62" class="edge"><title>:_16-&gt;doi:1014/tube/leyton</title>
<a xlink:href="http://www2.elsevier.co.uk/~tony/1014/yads-schema-2002-04-03#resource" target="_blank" onmouseover="show_status('http://www2.elsevier.co.uk/~tony/1014/yads-schema-2002-04-03#resource');">
<path style="fill:none;stroke:#add9e6" d="M594,886C586,892 577,899 572,908 567,918 571,928 578,937"/>
<polygon style="fill:#add9e6;stroke:#add9e6" points="576,938 584,945 580,936 576,938"/>
<text text-anchor="middle" x="616" y="921" style="font-family:arial">has:resource</text>
</a></g>
<g id="node65" class="node"><title>:_17</title>
<a xlink:href="http://www.w3.org/1999/02/22-rdf-syntax-ns#Bag" target="_blank" onmouseover="show_status('http://www.w3.org/1999/02/22-rdf-syntax-ns#Bag');">
<ellipse cx="710" cy="962" rx="28" ry="18" style="fill:#d2d2d2;stroke:#d2d2d2"/>
<text text-anchor="middle" x="710" y="966" style="font-family:arial">rdf:Bag</text>
</a></g>
<g id="edge64" class="edge"><title>:_16-&gt;:_17</title>
<a xlink:href="http://www2.elsevier.co.uk/~tony/1014/yads-schema-2002-04-03#collection" target="_blank" onmouseover="show_status('http://www2.elsevier.co.uk/~tony/1014/yads-schema-2002-04-03#collection');">
<path style="fill:none;stroke:#add9e6" d="M643,889C656,904 675,924 689,939"/>
<polygon style="fill:#add9e6;stroke:#add9e6" points="687,940 695,946 690,937 687,940"/>
<text text-anchor="middle" x="719" y="921" style="font-family:arial">has:collection</text>
</a></g>
<g id="node57" class="node"><title>:_15</title>
<ellipse cx="468" cy="1067" rx="33" ry="18" style="fill:#eedb82;stroke:#eedb82"/>
<text text-anchor="middle" x="468" y="1071" style="font-family:arial">tube:Mins</text>
</g>
<g id="edge56" class="edge"><title>:_14-&gt;:_15</title>
<a xlink:href="http://www.w3.org/1999/02/22-rdf-syntax-ns#_1" target="_blank" onmouseover="show_status('http://www.w3.org/1999/02/22-rdf-syntax-ns#_1');">
<path style="fill:none;stroke:#add9e6" d="M488,980C485,996 479,1021 474,1040"/>
<polygon style="fill:#add9e6;stroke:#add9e6" points="472,1039 472,1049 477,1040 472,1039"/>
<text text-anchor="middle" x="505" y="1011" style="font-family:arial">rdf:_1</text>
</a></g>
<g id="node60" class="node"><title>data:,4</title>
<a xlink:href="" onclick="show_data('4');" onmouseover="show_status('data:,4');">
<ellipse cx="458" cy="1171" rx="27" ry="18" style="fill:#dca0dd;stroke:#dca0dd"/>
<text text-anchor="middle" x="458" y="1175" style="font-family:arial">data:,4</text>
</a></g>
<g id="edge59" class="edge"><title>:_15-&gt;data:,4</title>
<a xlink:href="http://www2.elsevier.co.uk/~tony/1014/yads-schema-2002-04-03#resource" target="_blank" onmouseover="show_status('http://www2.elsevier.co.uk/~tony/1014/yads-schema-2002-04-03#resource');">
<path style="fill:none;stroke:#add9e6" d="M466,1085C464,1101 462,1125 461,1144"/>
<polygon style="fill:#add9e6;stroke:#add9e6" points="459,1143 460,1153 464,1143 459,1143"/>
<text text-anchor="middle" x="505" y="1130" style="font-family:arial">has:resource</text>
</a></g>
<g id="node67" class="node"><title>:_18</title>
<ellipse cx="686" cy="1067" rx="33" ry="18" style="fill:#eedb82;stroke:#eedb82"/>
<text text-anchor="middle" x="686" y="1071" style="font-family:arial">tube:Mins</text>
</g>
<g id="edge66" class="edge"><title>:_17-&gt;:_18</title>
<a xlink:href="http://www.w3.org/1999/02/22-rdf-syntax-ns#_1" target="_blank" onmouseover="show_status('http://www.w3.org/1999/02/22-rdf-syntax-ns#_1');">
<path style="fill:none;stroke:#add9e6" d="M706,980C703,996 697,1021 692,1040"/>
<polygon style="fill:#add9e6;stroke:#add9e6" points="690,1039 690,1049 695,1040 690,1039"/>
<text text-anchor="middle" x="723" y="1011" style="font-family:arial">rdf:_1</text>
</a></g>
<g id="node70" class="node"><title>data:,3</title>
<a xlink:href="" onclick="show_data('3');" onmouseover="show_status('data:,3');">
<ellipse cx="689" cy="1171" rx="27" ry="18" style="fill:#dca0dd;stroke:#dca0dd"/>
<text text-anchor="middle" x="689" y="1175" style="font-family:arial">data:,3</text>
</a></g>
<g id="edge69" class="edge"><title>:_18-&gt;data:,3</title>
<a xlink:href="http://www2.elsevier.co.uk/~tony/1014/yads-schema-2002-04-03#resource" target="_blank" onmouseover="show_status('http://www2.elsevier.co.uk/~tony/1014/yads-schema-2002-04-03#resource');">
<path style="fill:none;stroke:#add9e6" d="M687,1085C687,1101 688,1125 688,1144"/>
<polygon style="fill:#add9e6;stroke:#add9e6" points="686,1143 688,1153 691,1143 686,1143"/>
<text text-anchor="middle" x="730" y="1130" style="font-family:arial">has:resource</text>
</a></g>
<g id="node77" class="node"><title>:_21</title>
<ellipse cx="919" cy="872" rx="53" ry="18" style="fill:#eedb82;stroke:#eedb82"/>
<text text-anchor="middle" x="919" y="876" style="font-family:arial">tube:NextStation</text>
</g>
<g id="edge76" class="edge"><title>:_20-&gt;:_21</title>
<a xlink:href="http://www.w3.org/1999/02/22-rdf-syntax-ns#_1" target="_blank" onmouseover="show_status('http://www.w3.org/1999/02/22-rdf-syntax-ns#_1');">
<path style="fill:none;stroke:#add9e6" d="M955,779C948,797 937,825 929,846"/>
<polygon style="fill:#add9e6;stroke:#add9e6" points="927,844 926,854 932,846 927,844"/>
<text text-anchor="middle" x="967" y="816" style="font-family:arial">rdf:_1</text>
</a></g>
<g id="node80" class="node"><title>doi:1014/tube/west_ham</title>
<a xlink:href="http://dx.doi.org/1014/tube/west_ham" target="_blank" onmouseover="show_status('http://dx.doi.org/1014/tube/west_ham');">
<ellipse cx="852" cy="962" rx="74" ry="18" style="fill:#dca0dd;stroke:#dca0dd"/>
<text text-anchor="middle" x="852" y="966" style="font-family:arial">doi:1014/tube/west_ham</text>
</a></g>
<g id="edge79" class="edge"><title>:_21-&gt;doi:1014/tube/west_ham</title>
<a xlink:href="http://www2.elsevier.co.uk/~tony/1014/yads-schema-2002-04-03#resource" target="_blank" onmouseover="show_status('http://www2.elsevier.co.uk/~tony/1014/yads-schema-2002-04-03#resource');">
<path style="fill:none;stroke:#add9e6" d="M881,885C870,890 860,898 853,908 849,916 847,926 848,935"/>
<polygon style="fill:#add9e6;stroke:#add9e6" points="846,934 848,944 851,934 846,934"/>
<text text-anchor="middle" x="897" y="921" style="font-family:arial">has:resource</text>
</a></g>
<g id="node82" class="node"><title>:_22</title>
<a xlink:href="http://www.w3.org/1999/02/22-rdf-syntax-ns#Bag" target="_blank" onmouseover="show_status('http://www.w3.org/1999/02/22-rdf-syntax-ns#Bag');">
<ellipse cx="972" cy="962" rx="28" ry="18" style="fill:#d2d2d2;stroke:#d2d2d2"/>
<text text-anchor="middle" x="972" y="966" style="font-family:arial">rdf:Bag</text>
</a></g>
<g id="edge81" class="edge"><title>:_21-&gt;:_22</title>
<a xlink:href="http://www2.elsevier.co.uk/~tony/1014/yads-schema-2002-04-03#collection" target="_blank" onmouseover="show_status('http://www2.elsevier.co.uk/~tony/1014/yads-schema-2002-04-03#collection');">
<path style="fill:none;stroke:#add9e6" d="M928,890C933,901 940,914 947,926 949,930 952,934 955,938"/>
<polygon style="fill:#add9e6;stroke:#add9e6" points="953,939 960,946 957,936 953,939"/>
<text text-anchor="middle" x="988" y="921" style="font-family:arial">has:collection</text>
</a></g>
<g id="node84" class="node"><title>:_23</title>
<ellipse cx="854" cy="1067" rx="33" ry="18" style="fill:#eedb82;stroke:#eedb82"/>
<text text-anchor="middle" x="854" y="1071" style="font-family:arial">tube:Mins</text>
</g>
<g id="edge83" class="edge"><title>:_22-&gt;:_23</title>
<a xlink:href="http://www.w3.org/1999/02/22-rdf-syntax-ns#_1" target="_blank" onmouseover="show_status('http://www.w3.org/1999/02/22-rdf-syntax-ns#_1');">
<path style="fill:none;stroke:#add9e6" d="M956,977C935,994 902,1024 878,1045"/>
<polygon style="fill:#add9e6;stroke:#add9e6" points="877,1043 871,1051 880,1046 877,1043"/>
<text text-anchor="middle" x="952" y="1011" style="font-family:arial">rdf:_1</text>
</a></g>
<g id="edge86" class="edge"><title>:_23-&gt;data:,3</title>
<a xlink:href="http://www2.elsevier.co.uk/~tony/1014/yads-schema-2002-04-03#resource" target="_blank" onmouseover="show_status('http://www2.elsevier.co.uk/~tony/1014/yads-schema-2002-04-03#resource');">
<path style="fill:none;stroke:#add9e6" d="M838,1083C823,1098 799,1120 774,1135 758,1145 738,1154 721,1160"/>
<polygon style="fill:#add9e6;stroke:#add9e6" points="721,1157 713,1163 723,1162 721,1157"/>
<text text-anchor="middle" x="845" y="1130" style="font-family:arial">has:resource</text>
</a></g>
<g id="node93" class="node"><title>:_26</title>
<ellipse cx="1213" cy="872" rx="53" ry="18" style="fill:#eedb82;stroke:#eedb82"/>
<text text-anchor="middle" x="1213" y="876" style="font-family:arial">tube:PrevStation</text>
</g>
<g id="edge93" class="edge"><title>:_25-&gt;:_26</title>
<a xlink:href="http://www.w3.org/1999/02/22-rdf-syntax-ns#_1" target="_blank" onmouseover="show_status('http://www.w3.org/1999/02/22-rdf-syntax-ns#_1');">
<path style="fill:none;stroke:#add9e6" d="M1252,779C1244,797 1232,825 1224,846"/>
<polygon style="fill:#add9e6;stroke:#add9e6" points="1222,844 1220,854 1227,846 1222,844"/>
<text text-anchor="middle" x="1261" y="816" style="font-family:arial">rdf:_1</text>
</a></g>
<g id="node96" class="node"><title>doi:1014/tube/pudding_mill_la...e</title>
<a xlink:href="http://dx.doi.org/1014/tube/pudding_mill_lane" target="_blank" onmouseover="show_status('http://dx.doi.org/1014/tube/pudding_mill_lane');">
<ellipse cx="1130" cy="962" rx="90" ry="18" style="fill:#dca0dd;stroke:#dca0dd"/>
<text text-anchor="middle" x="1130" y="966" style="font-family:arial">doi:1014/tube/pudding_mill_la...e</text>
</a></g>
<g id="edge96" class="edge"><title>:_26-&gt;doi:1014/tube/pudding_mill_la...e</title>
<a xlink:href="http://www2.elsevier.co.uk/~tony/1014/yads-schema-2002-04-03#resource" target="_blank" onmouseover="show_status('http://www2.elsevier.co.uk/~tony/1014/yads-schema-2002-04-03#resource');">
<path style="fill:none;stroke:#add9e6" d="M1167,881C1151,886 1136,894 1127,908 1122,916 1121,926 1122,935"/>
<polygon style="fill:#add9e6;stroke:#add9e6" points="1119,935 1124,944 1124,934 1119,935"/>
<text text-anchor="middle" x="1171" y="921" style="font-family:arial">has:resource</text>
</a></g>
<g id="node98" class="node"><title>:_27</title>
<a xlink:href="http://www.w3.org/1999/02/22-rdf-syntax-ns#Bag" target="_blank" onmouseover="show_status('http://www.w3.org/1999/02/22-rdf-syntax-ns#Bag');">
<ellipse cx="1266" cy="962" rx="28" ry="18" style="fill:#d2d2d2;stroke:#d2d2d2"/>
<text text-anchor="middle" x="1266" y="966" style="font-family:arial">rdf:Bag</text>
</a></g>
<g id="edge98" class="edge"><title>:_26-&gt;:_27</title>
<a xlink:href="http://www2.elsevier.co.uk/~tony/1014/yads-schema-2002-04-03#collection" target="_blank" onmouseover="show_status('http://www2.elsevier.co.uk/~tony/1014/yads-schema-2002-04-03#collection');">
<path style="fill:none;stroke:#add9e6" d="M1212,890C1212,901 1214,915 1221,926 1225,933 1231,939 1237,944"/>
<polygon style="fill:#add9e6;stroke:#add9e6" points="1235,945 1244,950 1238,942 1235,945"/>
<text text-anchor="middle" x="1262" y="921" style="font-family:arial">has:collection</text>
</a></g>
<g id="node100" class="node"><title>:_28</title>
<ellipse cx="1242" cy="1067" rx="33" ry="18" style="fill:#eedb82;stroke:#eedb82"/>
<text text-anchor="middle" x="1242" y="1071" style="font-family:arial">tube:Mins</text>
</g>
<g id="edge100" class="edge"><title>:_27-&gt;:_28</title>
<a xlink:href="http://www.w3.org/1999/02/22-rdf-syntax-ns#_1" target="_blank" onmouseover="show_status('http://www.w3.org/1999/02/22-rdf-syntax-ns#_1');">
<path style="fill:none;stroke:#add9e6" d="M1262,980C1259,996 1253,1021 1248,1040"/>
<polygon style="fill:#add9e6;stroke:#add9e6" points="1246,1039 1246,1049 1251,1040 1246,1039"/>
<text text-anchor="middle" x="1277" y="1011" style="font-family:arial">rdf:_1</text>
</a></g>
<g id="node103" class="node"><title>data:,2</title>
<a xlink:href="" onclick="show_data('2');" onmouseover="show_status('data:,2');">
<ellipse cx="1232" cy="1171" rx="27" ry="18" style="fill:#dca0dd;stroke:#dca0dd"/>
<text text-anchor="middle" x="1232" y="1175" style="font-family:arial">data:,2</text>
</a></g>
<g id="edge103" class="edge"><title>:_28-&gt;data:,2</title>
<a xlink:href="http://www2.elsevier.co.uk/~tony/1014/yads-schema-2002-04-03#resource" target="_blank" onmouseover="show_status('http://www2.elsevier.co.uk/~tony/1014/yads-schema-2002-04-03#resource');">
<path style="fill:none;stroke:#add9e6" d="M1233,1084C1228,1094 1223,1106 1221,1117 1220,1126 1220,1136 1222,1144"/>
<polygon style="fill:#add9e6;stroke:#add9e6" points="1219,1144 1225,1153 1224,1143 1219,1144"/>
<text text-anchor="middle" x="1262" y="1130" style="font-family:arial">has:resource</text>
</a></g>
</g>
</svg>
