<?xml version="1.0" encoding="UTF-8" standalone="no"?>
<!DOCTYPE svg PUBLIC "-//W3C//DTD SVG 1.0//EN"
 "http://www.w3.org/TR/2001/REC-SVG-20010904/DTD/svg10.dtd" [
 <!ATTLIST svg xmlns:xlink CDATA #FIXED "http://www.w3.org/1999/xlink">
]>
<!-- Generated by dot version 1.8.5 (Tue Apr 23 17:19:23  2002)
     For user: (Administrator) ,S-1-5-21-1454471165-688789844-1708537768-500   Title: yads    Pages: 1 -->
<svg width="819px" height="1266px"
 xmlns="http://www.w3.org/2000/svg" xmlns:xlink="http://www.w3.org/1999/xlink">
<g id="graph0" class="graph" style="font-family:Times-Roman;font-size:11.00">
<title>yads</title>
<text text-anchor="middle" x="409" y="1255" style="font-family:arial;font-size:24.00">YADS - A Description Service</text>
<g id="graph2" class="cluster"><title>cluster_1</title>
<polygon style="fill:none;stroke:#d2d2d2;stroke-dasharray:5,2" points="19,1223 800,1223 800,43 19,43 19,1223"/>
<text text-anchor="middle" x="88" y="55" style="font-family:arial">Nest - Wapping Station</text>
</g>
<g id="graph3" class="cluster"><title>cluster_3</title>
<polygon style="fill:none;stroke:#d2d2d2;stroke-dasharray:5,2" points="27,1215 792,1215 792,238 27,238 27,1215"/>
<text text-anchor="middle" x="99" y="250" style="font-family:arial">Nest - Application Profile</text>
</g>
<g id="graph4" class="cluster"><title>cluster_5</title>
<polygon style="fill:none;stroke:#d2d2d2;stroke-dasharray:5,2" points="35,795 278,795 278,433 35,433 35,795"/>
<text text-anchor="middle" x="80" y="445" style="font-family:arial">Item - Location</text>
</g>
<g id="graph5" class="cluster"><title>cluster_7</title>
<polygon style="fill:none;stroke:#d2d2d2;stroke-dasharray:5,2" points="43,787 165,787 165,628 43,628 43,787"/>
<text text-anchor="middle" x="59" y="640" style="font-family:arial">Item</text>
</g>
<g id="graph6" class="cluster"><title>cluster_8</title>
<polygon style="fill:none;stroke:#d2d2d2;stroke-dasharray:5,2" points="173,787 270,787 270,628 173,628 173,787"/>
<text text-anchor="middle" x="189" y="640" style="font-family:arial">Item</text>
</g>
<g id="graph7" class="cluster"><title>cluster_9</title>
<polygon style="fill:none;stroke:#d2d2d2;stroke-dasharray:5,2" points="286,1207 784,1207 784,433 286,433 286,1207"/>
<text text-anchor="middle" x="355" y="445" style="font-family:arial">Item - Line Interchanges</text>
</g>
<g id="graph8" class="cluster"><title>cluster_11</title>
<polygon style="fill:none;stroke:#d2d2d2;stroke-dasharray:5,2" points="294,1199 776,1199 776,628 294,628 294,1199"/>
<text text-anchor="middle" x="362" y="640" style="font-family:arial">Nest - Line Interchange</text>
</g>
<g id="graph9" class="cluster"><title>cluster_13</title>
<polygon style="fill:none;stroke:#d2d2d2;stroke-dasharray:5,2" points="302,1191 526,1191 526,829 302,829 302,1191"/>
<text text-anchor="middle" x="370" y="841" style="font-family:arial">Nest - Next Stop Back</text>
</g>
<g id="graph10" class="cluster"><title>cluster_15</title>
<polygon style="fill:none;stroke:#d2d2d2;stroke-dasharray:5,2" points="421,1183 518,1183 518,1024 421,1024 421,1183"/>
<text text-anchor="middle" x="437" y="1036" style="font-family:arial">Item</text>
</g>
<g id="graph11" class="cluster"><title>cluster_16</title>
<polygon style="fill:none;stroke:#d2d2d2;stroke-dasharray:5,2" points="534,1191 768,1191 768,829 534,829 534,1191"/>
<text text-anchor="middle" x="586" y="841" style="font-family:arial">Nest - Next Stop</text>
</g>
<g id="graph12" class="cluster"><title>cluster_18</title>
<polygon style="fill:none;stroke:#d2d2d2;stroke-dasharray:5,2" points="663,1183 760,1183 760,1024 663,1024 663,1183"/>
<text text-anchor="middle" x="679" y="1036" style="font-family:arial">Item</text>
</g>
<g id="node2" class="node"><title>:_1</title>
<ellipse cx="224" cy="86" rx="40" ry="18" style="fill:#eedb82;stroke:#eedb82"/>
<text text-anchor="middle" x="224" y="90" style="font-family:arial">tube:Station</text>
</g>
<g id="node4" class="node"><title>doi:1014/tube/wapping</title>
<a xlink:href="http://dx.doi.org/1014/tube/wapping" target="_blank" onmouseover="show_status('http://dx.doi.org/1014/tube/wapping');">
<ellipse cx="111" cy="176" rx="66" ry="18" style="fill:#dca0dd;stroke:#dca0dd"/>
<text text-anchor="middle" x="111" y="180" style="font-family:arial">doi:1014/tube/wapping</text>
</a></g>
<g id="edge3" class="edge"><title>:_1-&gt;doi:1014/tube/wapping</title>
<a xlink:href="http://www2.elsevier.co.uk/~tony/1014/yads-schema-2002-04-03#resource" target="_blank" onmouseover="show_status('http://www2.elsevier.co.uk/~tony/1014/yads-schema-2002-04-03#resource');">
<path style="fill:none;stroke:#add9e6" d="M189,95C173,101 153,109 139,122 131,130 125,140 121,149"/>
<polygon style="fill:#add9e6;stroke:#add9e6" points="119,148 117,158 123,150 119,148"/>
<text text-anchor="middle" x="186" y="135" style="font-family:arial">has:resource</text>
</a></g>
<g id="node6" class="node"><title>node_1</title>
<polygon style="fill:#6497ed;stroke:#6497ed" points="253,158 195,158 195,194 253,194 253,158"/>
<text text-anchor="middle" x="224" y="180" style="font-family:arial">Wapping</text>
</g>
<g id="edge5" class="edge"><title>:_1-&gt;node_1</title>
<a xlink:href="http://www2.elsevier.co.uk/~tony/1014/yads-schema-2002-04-03#label" target="_blank" onmouseover="show_status('http://www2.elsevier.co.uk/~tony/1014/yads-schema-2002-04-03#label');">
<path style="fill:none;stroke:#add9e6" d="M224,104C224,117 224,134 224,149"/>
<polygon style="fill:#add9e6;stroke:#add9e6" points="222,148 224,158 227,148 222,148"/>
<text text-anchor="middle" x="251" y="135" style="font-family:arial">has:label</text>
</a></g>
<g id="node8" class="node"><title>:_2</title>
<a xlink:href="http://www.w3.org/1999/02/22-rdf-syntax-ns#Bag" target="_blank" onmouseover="show_status('http://www.w3.org/1999/02/22-rdf-syntax-ns#Bag');">
<ellipse cx="299" cy="176" rx="28" ry="18" style="fill:#d2d2d2;stroke:#d2d2d2"/>
<text text-anchor="middle" x="299" y="180" style="font-family:arial">rdf:Bag</text>
</a></g>
<g id="edge7" class="edge"><title>:_1-&gt;:_2</title>
<a xlink:href="http://www2.elsevier.co.uk/~tony/1014/yads-schema-2002-04-03#collection" target="_blank" onmouseover="show_status('http://www2.elsevier.co.uk/~tony/1014/yads-schema-2002-04-03#collection');">
<path style="fill:none;stroke:#add9e6" d="M253,98C264,104 276,112 283,122 289,129 293,140 295,149"/>
<polygon style="fill:#add9e6;stroke:#add9e6" points="292,149 297,158 297,148 292,149"/>
<text text-anchor="middle" x="334" y="135" style="font-family:arial">has:collection</text>
</a></g>
<g id="node10" class="node"><title>:_3</title>
<ellipse cx="299" cy="281" rx="34" ry="18" style="fill:#eedb82;stroke:#eedb82"/>
<text text-anchor="middle" x="299" y="285" style="font-family:arial">doi:Profile</text>
</g>
<g id="edge9" class="edge"><title>:_2-&gt;:_3</title>
<a xlink:href="http://www.w3.org/1999/02/22-rdf-syntax-ns#_1" target="_blank" onmouseover="show_status('http://www.w3.org/1999/02/22-rdf-syntax-ns#_1');">
<path style="fill:none;stroke:#add9e6" d="M299,194C299,210 299,235 299,254"/>
<polygon style="fill:#add9e6;stroke:#add9e6" points="297,253 299,263 302,253 297,253"/>
<text text-anchor="middle" x="319" y="225" style="font-family:arial">rdf:_1</text>
</a></g>
<g id="node13" class="node"><title>doi:1014/profile.tube</title>
<a xlink:href="http://dx.doi.org/1014/profile.tube" target="_blank" onmouseover="show_status('http://dx.doi.org/1014/profile.tube');">
<ellipse cx="214" cy="371" rx="59" ry="18" style="fill:#dca0dd;stroke:#dca0dd"/>
<text text-anchor="middle" x="214" y="375" style="font-family:arial">doi:1014/profile.tube</text>
</a></g>
<g id="edge12" class="edge"><title>:_3-&gt;doi:1014/profile.tube</title>
<a xlink:href="http://www2.elsevier.co.uk/~tony/1014/yads-schema-2002-04-03#resource" target="_blank" onmouseover="show_status('http://www2.elsevier.co.uk/~tony/1014/yads-schema-2002-04-03#resource');">
<path style="fill:none;stroke:#add9e6" d="M268,289C252,294 234,303 223,317 218,324 215,335 214,344"/>
<polygon style="fill:#add9e6;stroke:#add9e6" points="212,343 213,353 217,343 212,343"/>
<text text-anchor="middle" x="267" y="330" style="font-family:arial">has:resource</text>
</a></g>
<g id="node15" class="node"><title>:_4</title>
<a xlink:href="http://www.w3.org/1999/02/22-rdf-syntax-ns#Bag" target="_blank" onmouseover="show_status('http://www.w3.org/1999/02/22-rdf-syntax-ns#Bag');">
<ellipse cx="319" cy="371" rx="28" ry="18" style="fill:#d2d2d2;stroke:#d2d2d2"/>
<text text-anchor="middle" x="319" y="375" style="font-family:arial">rdf:Bag</text>
</a></g>
<g id="edge14" class="edge"><title>:_3-&gt;:_4</title>
<a xlink:href="http://www2.elsevier.co.uk/~tony/1014/yads-schema-2002-04-03#collection" target="_blank" onmouseover="show_status('http://www2.elsevier.co.uk/~tony/1014/yads-schema-2002-04-03#collection');">
<path style="fill:none;stroke:#add9e6" d="M303,299C306,312 310,329 313,344"/>
<polygon style="fill:#add9e6;stroke:#add9e6" points="310,344 315,353 315,343 310,344"/>
<text text-anchor="middle" x="353" y="330" style="font-family:arial">has:collection</text>
</a></g>
<g id="node17" class="node"><title>:_5</title>
<a xlink:href="http://www2.elsevier.co.uk/~tony/1014/yads-schema-2002-04-03#Item" target="_blank" onmouseover="show_status('http://www2.elsevier.co.uk/~tony/1014/yads-schema-2002-04-03#Item');">
<ellipse cx="236" cy="476" rx="28" ry="18" style="fill:#d2d2d2;stroke:#d2d2d2"/>
<text text-anchor="middle" x="236" y="480" style="font-family:arial">isa:Item</text>
</a></g>
<g id="edge16" class="edge"><title>:_4-&gt;:_5</title>
<a xlink:href="http://www.w3.org/1999/02/22-rdf-syntax-ns#_1" target="_blank" onmouseover="show_status('http://www.w3.org/1999/02/22-rdf-syntax-ns#_1');">
<path style="fill:none;stroke:#add9e6" d="M306,387C301,393 295,400 289,407 277,422 264,440 254,453"/>
<polygon style="fill:#add9e6;stroke:#add9e6" points="253,450 249,460 257,453 253,450"/>
<text text-anchor="middle" x="312" y="420" style="font-family:arial">rdf:_1</text>
</a></g>
<g id="node19" class="node"><title>:_9</title>
<a xlink:href="http://www2.elsevier.co.uk/~tony/1014/yads-schema-2002-04-03#Item" target="_blank" onmouseover="show_status('http://www2.elsevier.co.uk/~tony/1014/yads-schema-2002-04-03#Item');">
<ellipse cx="355" cy="476" rx="28" ry="18" style="fill:#d2d2d2;stroke:#d2d2d2"/>
<text text-anchor="middle" x="355" y="480" style="font-family:arial">isa:Item</text>
</a></g>
<g id="edge18" class="edge"><title>:_4-&gt;:_9</title>
<a xlink:href="http://www.w3.org/1999/02/22-rdf-syntax-ns#_2" target="_blank" onmouseover="show_status('http://www.w3.org/1999/02/22-rdf-syntax-ns#_2');">
<path style="fill:none;stroke:#add9e6" d="M325,389C330,405 339,431 346,450"/>
<polygon style="fill:#add9e6;stroke:#add9e6" points="343,450 349,458 348,448 343,450"/>
<text text-anchor="middle" x="358" y="420" style="font-family:arial">rdf:_2</text>
</a></g>
<g id="node22" class="node"><title>:_6</title>
<a xlink:href="http://www.w3.org/1999/02/22-rdf-syntax-ns#Bag" target="_blank" onmouseover="show_status('http://www.w3.org/1999/02/22-rdf-syntax-ns#Bag');">
<ellipse cx="189" cy="566" rx="28" ry="18" style="fill:#d2d2d2;stroke:#d2d2d2"/>
<text text-anchor="middle" x="189" y="570" style="font-family:arial">rdf:Bag</text>
</a></g>
<g id="edge21" class="edge"><title>:_5-&gt;:_6</title>
<a xlink:href="http://www2.elsevier.co.uk/~tony/1014/yads-schema-2002-04-03#collection" target="_blank" onmouseover="show_status('http://www2.elsevier.co.uk/~tony/1014/yads-schema-2002-04-03#collection');">
<path style="fill:none;stroke:#add9e6" d="M219,490C212,497 206,504 201,512 197,520 194,530 192,539"/>
<polygon style="fill:#add9e6;stroke:#add9e6" points="190,538 191,548 195,538 190,538"/>
<text text-anchor="middle" x="245" y="525" style="font-family:arial">has:collection</text>
</a></g>
<g id="node35" class="node"><title>:_10</title>
<a xlink:href="http://www.w3.org/1999/02/22-rdf-syntax-ns#Bag" target="_blank" onmouseover="show_status('http://www.w3.org/1999/02/22-rdf-syntax-ns#Bag');">
<ellipse cx="380" cy="566" rx="28" ry="18" style="fill:#d2d2d2;stroke:#d2d2d2"/>
<text text-anchor="middle" x="380" y="570" style="font-family:arial">rdf:Bag</text>
</a></g>
<g id="edge34" class="edge"><title>:_9-&gt;:_10</title>
<a xlink:href="http://www2.elsevier.co.uk/~tony/1014/yads-schema-2002-04-03#collection" target="_blank" onmouseover="show_status('http://www2.elsevier.co.uk/~tony/1014/yads-schema-2002-04-03#collection');">
<path style="fill:none;stroke:#add9e6" d="M360,494C363,507 369,525 373,539"/>
<polygon style="fill:#add9e6;stroke:#add9e6" points="370,539 375,548 375,538 370,539"/>
<text text-anchor="middle" x="412" y="525" style="font-family:arial">has:collection</text>
</a></g>
<g id="node24" class="node"><title>:_7</title>
<ellipse cx="104" cy="671" rx="35" ry="18" style="fill:#eedb82;stroke:#eedb82"/>
<text text-anchor="middle" x="104" y="675" style="font-family:arial">tube:Zone</text>
</g>
<g id="edge23" class="edge"><title>:_6-&gt;:_7</title>
<a xlink:href="http://www.w3.org/1999/02/22-rdf-syntax-ns#_1" target="_blank" onmouseover="show_status('http://www.w3.org/1999/02/22-rdf-syntax-ns#_1');">
<path style="fill:none;stroke:#add9e6" d="M173,581C167,588 160,595 154,602 142,616 130,633 121,647"/>
<polygon style="fill:#add9e6;stroke:#add9e6" points="120,644 116,654 124,647 120,644"/>
<text text-anchor="middle" x="177" y="615" style="font-family:arial">rdf:_1</text>
</a></g>
<g id="node26" class="node"><title>:_8</title>
<ellipse cx="213" cy="671" rx="32" ry="18" style="fill:#eedb82;stroke:#eedb82"/>
<text text-anchor="middle" x="213" y="675" style="font-family:arial">tube:Grid</text>
</g>
<g id="edge25" class="edge"><title>:_6-&gt;:_8</title>
<a xlink:href="http://www.w3.org/1999/02/22-rdf-syntax-ns#_2" target="_blank" onmouseover="show_status('http://www.w3.org/1999/02/22-rdf-syntax-ns#_2');">
<path style="fill:none;stroke:#add9e6" d="M193,584C196,600 202,625 207,644"/>
<polygon style="fill:#add9e6;stroke:#add9e6" points="204,644 209,653 209,643 204,644"/>
<text text-anchor="middle" x="222" y="615" style="font-family:arial">rdf:_2</text>
</a></g>
<g id="node29" class="node"><title>data:,Zone%202</title>
<a xlink:href="" onclick="show_data('Zone%202');" onmouseover="show_status('data:,Zone%202');">
<ellipse cx="104" cy="761" rx="53" ry="18" style="fill:#dca0dd;stroke:#dca0dd"/>
<text text-anchor="middle" x="104" y="765" style="font-family:arial">data:,Zone%202</text>
</a></g>
<g id="edge28" class="edge"><title>:_7-&gt;data:,Zone%202</title>
<a xlink:href="http://www2.elsevier.co.uk/~tony/1014/yads-schema-2002-04-03#resource" target="_blank" onmouseover="show_status('http://www2.elsevier.co.uk/~tony/1014/yads-schema-2002-04-03#resource');">
<path style="fill:none;stroke:#add9e6" d="M95,689C92,694 89,701 88,707 87,715 87,718 88,725 88,728 89,731 90,734"/>
<polygon style="fill:#add9e6;stroke:#add9e6" points="88,735 94,743 92,733 88,735"/>
<text text-anchor="middle" x="132" y="720" style="font-family:arial">has:resource</text>
</a></g>
<g id="node32" class="node"><title>data:,D7</title>
<a xlink:href="" onclick="show_data('D7');" onmouseover="show_status('data:,D7');">
<ellipse cx="211" cy="761" rx="30" ry="18" style="fill:#dca0dd;stroke:#dca0dd"/>
<text text-anchor="middle" x="211" y="765" style="font-family:arial">data:,D7</text>
</a></g>
<g id="edge31" class="edge"><title>:_8-&gt;data:,D7</title>
<a xlink:href="http://www2.elsevier.co.uk/~tony/1014/yads-schema-2002-04-03#resource" target="_blank" onmouseover="show_status('http://www2.elsevier.co.uk/~tony/1014/yads-schema-2002-04-03#resource');">
<path style="fill:none;stroke:#add9e6" d="M211,689C210,695 209,701 209,707 208,716 209,725 209,733"/>
<polygon style="fill:#add9e6;stroke:#add9e6" points="207,733 210,743 211,733 207,733"/>
<text text-anchor="middle" x="253" y="720" style="font-family:arial">has:resource</text>
</a></g>
<g id="node37" class="node"><title>:_11</title>
<ellipse cx="389" cy="671" rx="53" ry="18" style="fill:#eedb82;stroke:#eedb82"/>
<text text-anchor="middle" x="389" y="675" style="font-family:arial">tube:LineChange</text>
</g>
<g id="edge36" class="edge"><title>:_10-&gt;:_11</title>
<a xlink:href="http://www.w3.org/1999/02/22-rdf-syntax-ns#_1" target="_blank" onmouseover="show_status('http://www.w3.org/1999/02/22-rdf-syntax-ns#_1');">
<path style="fill:none;stroke:#add9e6" d="M382,584C383,600 385,625 386,644"/>
<polygon style="fill:#add9e6;stroke:#add9e6" points="383,643 387,653 388,643 383,643"/>
<text text-anchor="middle" x="405" y="615" style="font-family:arial">rdf:_1</text>
</a></g>
<g id="node40" class="node"><title>doi:1014/tube/east_london_lin</title>
<a xlink:href="http://dx.doi.org/1014/tube/east_london_line" target="_blank" onmouseover="show_status('http://dx.doi.org/1014/tube/east_london_line');">
<ellipse cx="389" cy="761" rx="87" ry="18" style="fill:#dca0dd;stroke:#dca0dd"/>
<text text-anchor="middle" x="389" y="765" style="font-family:arial">doi:1014/tube/east_london_lin</text>
</a></g>
<g id="edge39" class="edge"><title>:_11-&gt;doi:1014/tube/east_london_lin</title>
<a xlink:href="http://www2.elsevier.co.uk/~tony/1014/yads-schema-2002-04-03#resource" target="_blank" onmouseover="show_status('http://www2.elsevier.co.uk/~tony/1014/yads-schema-2002-04-03#resource');">
<path style="fill:none;stroke:#add9e6" d="M389,689C389,702 389,719 389,734"/>
<polygon style="fill:#add9e6;stroke:#add9e6" points="387,733 389,743 392,733 387,733"/>
<text text-anchor="middle" x="430" y="720" style="font-family:arial">has:resource</text>
</a></g>
<g id="node42" class="node"><title>:_12</title>
<a xlink:href="http://www.w3.org/1999/02/22-rdf-syntax-ns#Bag" target="_blank" onmouseover="show_status('http://www.w3.org/1999/02/22-rdf-syntax-ns#Bag');">
<ellipse cx="522" cy="761" rx="28" ry="18" style="fill:#d2d2d2;stroke:#d2d2d2"/>
<text text-anchor="middle" x="522" y="765" style="font-family:arial">rdf:Bag</text>
</a></g>
<g id="edge41" class="edge"><title>:_11-&gt;:_12</title>
<a xlink:href="http://www2.elsevier.co.uk/~tony/1014/yads-schema-2002-04-03#collection" target="_blank" onmouseover="show_status('http://www2.elsevier.co.uk/~tony/1014/yads-schema-2002-04-03#collection');">
<path style="fill:none;stroke:#add9e6" d="M427,683C443,689 460,697 474,707 486,715 497,727 505,737"/>
<polygon style="fill:#add9e6;stroke:#add9e6" points="502,737 510,744 506,734 502,737"/>
<text text-anchor="middle" x="535" y="720" style="font-family:arial">has:collection</text>
</a></g>
<g id="node44" class="node"><title>:_13</title>
<ellipse cx="437" cy="872" rx="53" ry="18" style="fill:#eedb82;stroke:#eedb82"/>
<text text-anchor="middle" x="437" y="876" style="font-family:arial">tube:PrevStation</text>
</g>
<g id="edge43" class="edge"><title>:_12-&gt;:_13</title>
<a xlink:href="http://www.w3.org/1999/02/22-rdf-syntax-ns#_1" target="_blank" onmouseover="show_status('http://www.w3.org/1999/02/22-rdf-syntax-ns#_1');">
<path style="fill:none;stroke:#add9e6" d="M509,777C496,796 472,826 456,847"/>
<polygon style="fill:#add9e6;stroke:#add9e6" points="455,845 450,854 458,848 455,845"/>
<text text-anchor="middle" x="513" y="816" style="font-family:arial">rdf:_1</text>
</a></g>
<g id="node46" class="node"><title>:_16</title>
<ellipse cx="595" cy="872" rx="53" ry="18" style="fill:#eedb82;stroke:#eedb82"/>
<text text-anchor="middle" x="595" y="876" style="font-family:arial">tube:NextStation</text>
</g>
<g id="edge45" class="edge"><title>:_12-&gt;:_16</title>
<a xlink:href="http://www.w3.org/1999/02/22-rdf-syntax-ns#_2" target="_blank" onmouseover="show_status('http://www.w3.org/1999/02/22-rdf-syntax-ns#_2');">
<path style="fill:none;stroke:#add9e6" d="M533,778C545,797 565,826 578,847"/>
<polygon style="fill:#add9e6;stroke:#add9e6" points="575,847 583,854 579,844 575,847"/>
<text text-anchor="middle" x="583" y="816" style="font-family:arial">rdf:_2</text>
</a></g>
<g id="node49" class="node"><title>doi:1014/tube/shadwell</title>
<a xlink:href="http://dx.doi.org/1014/tube/shadwell" target="_blank" onmouseover="show_status('http://dx.doi.org/1014/tube/shadwell');">
<ellipse cx="377" cy="962" rx="67" ry="18" style="fill:#dca0dd;stroke:#dca0dd"/>
<text text-anchor="middle" x="377" y="966" style="font-family:arial">doi:1014/tube/shadwell</text>
</a></g>
<g id="edge48" class="edge"><title>:_13-&gt;doi:1014/tube/shadwell</title>
<a xlink:href="http://www2.elsevier.co.uk/~tony/1014/yads-schema-2002-04-03#resource" target="_blank" onmouseover="show_status('http://www2.elsevier.co.uk/~tony/1014/yads-schema-2002-04-03#resource');">
<path style="fill:none;stroke:#add9e6" d="M393,882C380,888 366,896 358,908 353,916 355,926 359,935"/>
<polygon style="fill:#add9e6;stroke:#add9e6" points="357,936 363,944 361,934 357,936"/>
<text text-anchor="middle" x="402" y="921" style="font-family:arial">has:resource</text>
</a></g>
<g id="node51" class="node"><title>:_14</title>
<a xlink:href="http://www.w3.org/1999/02/22-rdf-syntax-ns#Bag" target="_blank" onmouseover="show_status('http://www.w3.org/1999/02/22-rdf-syntax-ns#Bag');">
<ellipse cx="490" cy="962" rx="28" ry="18" style="fill:#d2d2d2;stroke:#d2d2d2"/>
<text text-anchor="middle" x="490" y="966" style="font-family:arial">rdf:Bag</text>
</a></g>
<g id="edge50" class="edge"><title>:_13-&gt;:_14</title>
<a xlink:href="http://www2.elsevier.co.uk/~tony/1014/yads-schema-2002-04-03#collection" target="_blank" onmouseover="show_status('http://www2.elsevier.co.uk/~tony/1014/yads-schema-2002-04-03#collection');">
<path style="fill:none;stroke:#add9e6" d="M438,890C440,901 443,915 449,926 452,932 458,938 463,943"/>
<polygon style="fill:#add9e6;stroke:#add9e6" points="461,944 470,949 464,941 461,944"/>
<text text-anchor="middle" x="490" y="921" style="font-family:arial">has:collection</text>
</a></g>
<g id="node59" class="node"><title>doi:1014/tube/rotherhithe</title>
<a xlink:href="http://dx.doi.org/1014/tube/rotherhithe" target="_blank" onmouseover="show_status('http://dx.doi.org/1014/tube/rotherhithe');">
<ellipse cx="614" cy="962" rx="72" ry="18" style="fill:#dca0dd;stroke:#dca0dd"/>
<text text-anchor="middle" x="614" y="966" style="font-family:arial">doi:1014/tube/rotherhithe</text>
</a></g>
<g id="edge58" class="edge"><title>:_16-&gt;doi:1014/tube/rotherhithe</title>
<a xlink:href="http://www2.elsevier.co.uk/~tony/1014/yads-schema-2002-04-03#resource" target="_blank" onmouseover="show_status('http://www2.elsevier.co.uk/~tony/1014/yads-schema-2002-04-03#resource');">
<path style="fill:none;stroke:#add9e6" d="M592,890C591,901 591,914 594,926 595,929 596,932 598,935"/>
<polygon style="fill:#add9e6;stroke:#add9e6" points="596,936 602,944 600,934 596,936"/>
<text text-anchor="middle" x="635" y="921" style="font-family:arial">has:resource</text>
</a></g>
<g id="node61" class="node"><title>:_17</title>
<a xlink:href="http://www.w3.org/1999/02/22-rdf-syntax-ns#Bag" target="_blank" onmouseover="show_status('http://www.w3.org/1999/02/22-rdf-syntax-ns#Bag');">
<ellipse cx="732" cy="962" rx="28" ry="18" style="fill:#d2d2d2;stroke:#d2d2d2"/>
<text text-anchor="middle" x="732" y="966" style="font-family:arial">rdf:Bag</text>
</a></g>
<g id="edge60" class="edge"><title>:_16-&gt;:_17</title>
<a xlink:href="http://www2.elsevier.co.uk/~tony/1014/yads-schema-2002-04-03#collection" target="_blank" onmouseover="show_status('http://www2.elsevier.co.uk/~tony/1014/yads-schema-2002-04-03#collection');">
<path style="fill:none;stroke:#add9e6" d="M631,886C644,891 659,899 671,908 679,915 679,919 687,926 693,932 699,937 706,942"/>
<polygon style="fill:#add9e6;stroke:#add9e6" points="704,943 713,948 707,940 704,943"/>
<text text-anchor="middle" x="728" y="921" style="font-family:arial">has:collection</text>
</a></g>
<g id="node53" class="node"><title>:_15</title>
<ellipse cx="466" cy="1067" rx="33" ry="18" style="fill:#eedb82;stroke:#eedb82"/>
<text text-anchor="middle" x="466" y="1071" style="font-family:arial">tube:Mins</text>
</g>
<g id="edge52" class="edge"><title>:_14-&gt;:_15</title>
<a xlink:href="http://www.w3.org/1999/02/22-rdf-syntax-ns#_1" target="_blank" onmouseover="show_status('http://www.w3.org/1999/02/22-rdf-syntax-ns#_1');">
<path style="fill:none;stroke:#add9e6" d="M486,980C483,996 477,1021 472,1040"/>
<polygon style="fill:#add9e6;stroke:#add9e6" points="470,1039 470,1049 475,1040 470,1039"/>
<text text-anchor="middle" x="503" y="1011" style="font-family:arial">rdf:_1</text>
</a></g>
<g id="node56" class="node"><title>data:,2</title>
<a xlink:href="" onclick="show_data('2');" onmouseover="show_status('data:,2');">
<ellipse cx="456" cy="1157" rx="27" ry="18" style="fill:#dca0dd;stroke:#dca0dd"/>
<text text-anchor="middle" x="456" y="1161" style="font-family:arial">data:,2</text>
</a></g>
<g id="edge55" class="edge"><title>:_15-&gt;data:,2</title>
<a xlink:href="http://www2.elsevier.co.uk/~tony/1014/yads-schema-2002-04-03#resource" target="_blank" onmouseover="show_status('http://www2.elsevier.co.uk/~tony/1014/yads-schema-2002-04-03#resource');">
<path style="fill:none;stroke:#add9e6" d="M464,1085C462,1098 461,1115 459,1130"/>
<polygon style="fill:#add9e6;stroke:#add9e6" points="457,1129 458,1139 462,1129 457,1129"/>
<text text-anchor="middle" x="504" y="1116" style="font-family:arial">has:resource</text>
</a></g>
<g id="node63" class="node"><title>:_18</title>
<ellipse cx="708" cy="1067" rx="33" ry="18" style="fill:#eedb82;stroke:#eedb82"/>
<text text-anchor="middle" x="708" y="1071" style="font-family:arial">tube:Mins</text>
</g>
<g id="edge62" class="edge"><title>:_17-&gt;:_18</title>
<a xlink:href="http://www.w3.org/1999/02/22-rdf-syntax-ns#_1" target="_blank" onmouseover="show_status('http://www.w3.org/1999/02/22-rdf-syntax-ns#_1');">
<path style="fill:none;stroke:#add9e6" d="M726,980C724,985 722,992 720,998 717,1012 714,1027 711,1040"/>
<polygon style="fill:#add9e6;stroke:#add9e6" points="709,1039 710,1049 714,1039 709,1039"/>
<text text-anchor="middle" x="740" y="1011" style="font-family:arial">rdf:_1</text>
</a></g>
<g id="node66" class="node"><title>data:,1</title>
<a xlink:href="" onclick="show_data('1');" onmouseover="show_status('data:,1');">
<ellipse cx="698" cy="1157" rx="27" ry="18" style="fill:#dca0dd;stroke:#dca0dd"/>
<text text-anchor="middle" x="698" y="1161" style="font-family:arial">data:,1</text>
</a></g>
<g id="edge65" class="edge"><title>:_18-&gt;data:,1</title>
<a xlink:href="http://www2.elsevier.co.uk/~tony/1014/yads-schema-2002-04-03#resource" target="_blank" onmouseover="show_status('http://www2.elsevier.co.uk/~tony/1014/yads-schema-2002-04-03#resource');">
<path style="fill:none;stroke:#add9e6" d="M691,1083C686,1089 681,1096 679,1103 675,1113 678,1123 682,1132"/>
<polygon style="fill:#add9e6;stroke:#add9e6" points="679,1132 686,1140 684,1130 679,1132"/>
<text text-anchor="middle" x="720" y="1116" style="font-family:arial">has:resource</text>
</a></g>
</g>
</svg>
