<?xml version="1.0" encoding="UTF-8" standalone="no"?>
<!DOCTYPE svg PUBLIC "-//W3C//DTD SVG 1.0//EN"
 "http://www.w3.org/TR/2001/REC-SVG-20010904/DTD/svg10.dtd" [
 <!ATTLIST svg xmlns:xlink CDATA #FIXED "http://www.w3.org/1999/xlink">
]>
<!-- Generated by dot version 1.8.5 (Tue Apr 23 17:19:23  2002)
     For user: (Administrator) ,S-1-5-21-1454471165-688789844-1708537768-500   Title: yads    Pages: 1 -->
<svg width="1244px" height="1280px"
 xmlns="http://www.w3.org/2000/svg" xmlns:xlink="http://www.w3.org/1999/xlink">
<g id="graph0" class="graph" style="font-family:Times-Roman;font-size:11.00">
<title>yads</title>
<text text-anchor="middle" x="622" y="1269" style="font-family:arial;font-size:24.00">YADS - A Description Service</text>
<g id="graph2" class="cluster"><title>cluster_1</title>
<polygon style="fill:none;stroke:#d2d2d2;stroke-dasharray:5,2" points="19,1237 1225,1237 1225,43 19,43 19,1237"/>
<text text-anchor="middle" x="172" y="55" style="font-family:arial">Nest - 7th Street / Metro Center / Julian Dixon Station</text>
</g>
<g id="graph3" class="cluster"><title>cluster_3</title>
<polygon style="fill:none;stroke:#d2d2d2;stroke-dasharray:5,2" points="27,1229 1217,1229 1217,238 27,238 27,1229"/>
<text text-anchor="middle" x="99" y="250" style="font-family:arial">Nest - Application Profile</text>
</g>
<g id="graph4" class="cluster"><title>cluster_5</title>
<polygon style="fill:none;stroke:#d2d2d2;stroke-dasharray:5,2" points="35,795 165,795 165,433 35,433 35,795"/>
<text text-anchor="middle" x="80" y="445" style="font-family:arial">Item - Location</text>
</g>
<g id="graph5" class="cluster"><title>cluster_7</title>
<polygon style="fill:none;stroke:#d2d2d2;stroke-dasharray:5,2" points="43,787 157,787 157,628 43,628 43,787"/>
<text text-anchor="middle" x="59" y="640" style="font-family:arial">Item</text>
</g>
<g id="graph6" class="cluster"><title>cluster_8</title>
<polygon style="fill:none;stroke:#d2d2d2;stroke-dasharray:5,2" points="173,1221 1209,1221 1209,433 173,433 173,1221"/>
<text text-anchor="middle" x="242" y="445" style="font-family:arial">Item - Line Interchanges</text>
</g>
<g id="graph7" class="cluster"><title>cluster_10</title>
<polygon style="fill:none;stroke:#d2d2d2;stroke-dasharray:5,2" points="181,1213 615,1213 615,628 181,628 181,1213"/>
<text text-anchor="middle" x="249" y="640" style="font-family:arial">Nest - Line Interchange</text>
</g>
<g id="graph8" class="cluster"><title>cluster_12</title>
<polygon style="fill:none;stroke:#d2d2d2;stroke-dasharray:5,2" points="189,1205 391,1205 391,829 189,829 189,1205"/>
<text text-anchor="middle" x="257" y="841" style="font-family:arial">Nest - Next Stop Back</text>
</g>
<g id="graph9" class="cluster"><title>cluster_14</title>
<polygon style="fill:none;stroke:#d2d2d2;stroke-dasharray:5,2" points="286,1197 383,1197 383,1024 286,1024 286,1197"/>
<text text-anchor="middle" x="302" y="1036" style="font-family:arial">Item</text>
</g>
<g id="graph10" class="cluster"><title>cluster_15</title>
<polygon style="fill:none;stroke:#d2d2d2;stroke-dasharray:5,2" points="399,1101 607,1101 607,829 399,829 399,1101"/>
<text text-anchor="middle" x="451" y="841" style="font-family:arial">Nest - Next Stop</text>
</g>
<g id="graph11" class="cluster"><title>cluster_17</title>
<polygon style="fill:none;stroke:#d2d2d2;stroke-dasharray:5,2" points="433,1093 525,1093 525,1024 433,1024 433,1093"/>
<text text-anchor="middle" x="449" y="1036" style="font-family:arial">Item</text>
</g>
<g id="graph12" class="cluster"><title>cluster_18</title>
<polygon style="fill:none;stroke:#d2d2d2;stroke-dasharray:5,2" points="623,1109 1201,1109 1201,628 623,628 623,1109"/>
<text text-anchor="middle" x="691" y="640" style="font-family:arial">Nest - Line Interchange</text>
</g>
<g id="graph13" class="cluster"><title>cluster_20</title>
<polygon style="fill:none;stroke:#d2d2d2;stroke-dasharray:5,2" points="631,1101 915,1101 915,829 631,829 631,1101"/>
<text text-anchor="middle" x="699" y="841" style="font-family:arial">Nest - Next Stop Back</text>
</g>
<g id="graph14" class="cluster"><title>cluster_22</title>
<polygon style="fill:none;stroke:#d2d2d2;stroke-dasharray:5,2" points="684,1093 776,1093 776,1024 684,1024 684,1093"/>
<text text-anchor="middle" x="700" y="1036" style="font-family:arial">Item</text>
</g>
<g id="graph15" class="cluster"><title>cluster_23</title>
<polygon style="fill:none;stroke:#d2d2d2;stroke-dasharray:5,2" points="923,1101 1193,1101 1193,829 923,829 923,1101"/>
<text text-anchor="middle" x="975" y="841" style="font-family:arial">Nest - Next Stop</text>
</g>
<g id="graph16" class="cluster"><title>cluster_25</title>
<polygon style="fill:none;stroke:#d2d2d2;stroke-dasharray:5,2" points="973,1093 1065,1093 1065,1024 973,1024 973,1093"/>
<text text-anchor="middle" x="989" y="1036" style="font-family:arial">Item</text>
</g>
<g id="node2" class="node"><title>:_1</title>
<ellipse cx="323" cy="86" rx="44" ry="18" style="fill:#eedb82;stroke:#eedb82"/>
<text text-anchor="middle" x="323" y="90" style="font-family:arial">metro:Station</text>
</g>
<g id="node4" class="node"><title>doi:1014/metro/7th_street,met...n</title>
<a xlink:href="http://dx.doi.org/1014/metro/7th_street,metro_center,julian_dixon" target="_blank" onmouseover="show_status('http://dx.doi.org/1014/metro/7th_street,metro_center,julian_dixon');">
<ellipse cx="121" cy="176" rx="94" ry="18" style="fill:#dca0dd;stroke:#dca0dd"/>
<text text-anchor="middle" x="121" y="180" style="font-family:arial">doi:1014/metro/7th_street,met...n</text>
</a></g>
<g id="edge3" class="edge"><title>:_1-&gt;doi:1014/metro/7th_street,met...n</title>
<a xlink:href="http://www2.elsevier.co.uk/~tony/1014/yads-schema-2002-04-03#resource" target="_blank" onmouseover="show_status('http://www2.elsevier.co.uk/~tony/1014/yads-schema-2002-04-03#resource');">
<path style="fill:none;stroke:#add9e6" d="M292,99C276,106 256,114 238,122 214,134 187,146 165,155"/>
<polygon style="fill:#add9e6;stroke:#add9e6" points="165,152 157,159 167,157 165,152"/>
<text text-anchor="middle" x="287" y="135" style="font-family:arial">has:resource</text>
</a></g>
<g id="node6" class="node"><title>node_2</title>
<polygon style="fill:#6497ed;stroke:#6497ed" points="413,158 233,158 233,194 413,194 413,158"/>
<text text-anchor="middle" x="323" y="180" style="font-family:arial">7th Street / Metro Center / J...n</text>
</g>
<g id="edge5" class="edge"><title>:_1-&gt;node_2</title>
<a xlink:href="http://www2.elsevier.co.uk/~tony/1014/yads-schema-2002-04-03#label" target="_blank" onmouseover="show_status('http://www2.elsevier.co.uk/~tony/1014/yads-schema-2002-04-03#label');">
<path style="fill:none;stroke:#add9e6" d="M323,104C323,117 323,134 323,149"/>
<polygon style="fill:#add9e6;stroke:#add9e6" points="321,148 323,158 326,148 321,148"/>
<text text-anchor="middle" x="350" y="135" style="font-family:arial">has:label</text>
</a></g>
<g id="node8" class="node"><title>:_2</title>
<a xlink:href="http://www.w3.org/1999/02/22-rdf-syntax-ns#Bag" target="_blank" onmouseover="show_status('http://www.w3.org/1999/02/22-rdf-syntax-ns#Bag');">
<ellipse cx="459" cy="176" rx="28" ry="18" style="fill:#d2d2d2;stroke:#d2d2d2"/>
<text text-anchor="middle" x="459" y="180" style="font-family:arial">rdf:Bag</text>
</a></g>
<g id="edge7" class="edge"><title>:_1-&gt;:_2</title>
<a xlink:href="http://www2.elsevier.co.uk/~tony/1014/yads-schema-2002-04-03#collection" target="_blank" onmouseover="show_status('http://www2.elsevier.co.uk/~tony/1014/yads-schema-2002-04-03#collection');">
<path style="fill:none;stroke:#add9e6" d="M348,101C359,107 371,115 382,122 399,133 419,147 433,157"/>
<polygon style="fill:#add9e6;stroke:#add9e6" points="430,158 440,162 433,154 430,158"/>
<text text-anchor="middle" x="450" y="135" style="font-family:arial">has:collection</text>
</a></g>
<g id="node10" class="node"><title>:_3</title>
<ellipse cx="459" cy="281" rx="34" ry="18" style="fill:#eedb82;stroke:#eedb82"/>
<text text-anchor="middle" x="459" y="285" style="font-family:arial">doi:Profile</text>
</g>
<g id="edge9" class="edge"><title>:_2-&gt;:_3</title>
<a xlink:href="http://www.w3.org/1999/02/22-rdf-syntax-ns#_1" target="_blank" onmouseover="show_status('http://www.w3.org/1999/02/22-rdf-syntax-ns#_1');">
<path style="fill:none;stroke:#add9e6" d="M459,194C459,210 459,235 459,254"/>
<polygon style="fill:#add9e6;stroke:#add9e6" points="457,253 459,263 462,253 457,253"/>
<text text-anchor="middle" x="479" y="225" style="font-family:arial">rdf:_1</text>
</a></g>
<g id="node13" class="node"><title>doi:1014/profile.metro</title>
<a xlink:href="http://dx.doi.org/1014/profile.metro" target="_blank" onmouseover="show_status('http://dx.doi.org/1014/profile.metro');">
<ellipse cx="350" cy="371" rx="63" ry="18" style="fill:#dca0dd;stroke:#dca0dd"/>
<text text-anchor="middle" x="350" y="375" style="font-family:arial">doi:1014/profile.metro</text>
</a></g>
<g id="edge12" class="edge"><title>:_3-&gt;doi:1014/profile.metro</title>
<a xlink:href="http://www2.elsevier.co.uk/~tony/1014/yads-schema-2002-04-03#resource" target="_blank" onmouseover="show_status('http://www2.elsevier.co.uk/~tony/1014/yads-schema-2002-04-03#resource');">
<path style="fill:none;stroke:#add9e6" d="M428,288C410,294 389,303 374,317 367,325 361,334 358,344"/>
<polygon style="fill:#add9e6;stroke:#add9e6" points="356,343 355,353 361,344 356,343"/>
<text text-anchor="middle" x="420" y="330" style="font-family:arial">has:resource</text>
</a></g>
<g id="node15" class="node"><title>:_4</title>
<a xlink:href="http://www.w3.org/1999/02/22-rdf-syntax-ns#Bag" target="_blank" onmouseover="show_status('http://www.w3.org/1999/02/22-rdf-syntax-ns#Bag');">
<ellipse cx="459" cy="371" rx="28" ry="18" style="fill:#d2d2d2;stroke:#d2d2d2"/>
<text text-anchor="middle" x="459" y="375" style="font-family:arial">rdf:Bag</text>
</a></g>
<g id="edge14" class="edge"><title>:_3-&gt;:_4</title>
<a xlink:href="http://www2.elsevier.co.uk/~tony/1014/yads-schema-2002-04-03#collection" target="_blank" onmouseover="show_status('http://www2.elsevier.co.uk/~tony/1014/yads-schema-2002-04-03#collection');">
<path style="fill:none;stroke:#add9e6" d="M459,299C459,312 459,329 459,344"/>
<polygon style="fill:#add9e6;stroke:#add9e6" points="457,343 459,353 462,343 457,343"/>
<text text-anchor="middle" x="500" y="330" style="font-family:arial">has:collection</text>
</a></g>
<g id="node17" class="node"><title>:_5</title>
<a xlink:href="http://www2.elsevier.co.uk/~tony/1014/yads-schema-2002-04-03#Item" target="_blank" onmouseover="show_status('http://www2.elsevier.co.uk/~tony/1014/yads-schema-2002-04-03#Item');">
<ellipse cx="103" cy="476" rx="28" ry="18" style="fill:#d2d2d2;stroke:#d2d2d2"/>
<text text-anchor="middle" x="103" y="480" style="font-family:arial">isa:Item</text>
</a></g>
<g id="edge16" class="edge"><title>:_4-&gt;:_5</title>
<a xlink:href="http://www.w3.org/1999/02/22-rdf-syntax-ns#_1" target="_blank" onmouseover="show_status('http://www.w3.org/1999/02/22-rdf-syntax-ns#_1');">
<path style="fill:none;stroke:#add9e6" d="M438,383C433,385 427,388 422,389 314,425 276,392 169,433 154,439 139,448 128,457"/>
<polygon style="fill:#add9e6;stroke:#add9e6" points="128,454 121,462 131,458 128,454"/>
<text text-anchor="middle" x="373" y="420" style="font-family:arial">rdf:_1</text>
</a></g>
<g id="node19" class="node"><title>:_8</title>
<a xlink:href="http://www2.elsevier.co.uk/~tony/1014/yads-schema-2002-04-03#Item" target="_blank" onmouseover="show_status('http://www2.elsevier.co.uk/~tony/1014/yads-schema-2002-04-03#Item');">
<ellipse cx="459" cy="476" rx="28" ry="18" style="fill:#d2d2d2;stroke:#d2d2d2"/>
<text text-anchor="middle" x="459" y="480" style="font-family:arial">isa:Item</text>
</a></g>
<g id="edge18" class="edge"><title>:_4-&gt;:_8</title>
<a xlink:href="http://www.w3.org/1999/02/22-rdf-syntax-ns#_2" target="_blank" onmouseover="show_status('http://www.w3.org/1999/02/22-rdf-syntax-ns#_2');">
<path style="fill:none;stroke:#add9e6" d="M459,389C459,405 459,430 459,449"/>
<polygon style="fill:#add9e6;stroke:#add9e6" points="457,448 459,458 462,448 457,448"/>
<text text-anchor="middle" x="480" y="420" style="font-family:arial">rdf:_2</text>
</a></g>
<g id="node22" class="node"><title>:_6</title>
<a xlink:href="http://www.w3.org/1999/02/22-rdf-syntax-ns#Bag" target="_blank" onmouseover="show_status('http://www.w3.org/1999/02/22-rdf-syntax-ns#Bag');">
<ellipse cx="88" cy="566" rx="28" ry="18" style="fill:#d2d2d2;stroke:#d2d2d2"/>
<text text-anchor="middle" x="88" y="570" style="font-family:arial">rdf:Bag</text>
</a></g>
<g id="edge21" class="edge"><title>:_5-&gt;:_6</title>
<a xlink:href="http://www2.elsevier.co.uk/~tony/1014/yads-schema-2002-04-03#collection" target="_blank" onmouseover="show_status('http://www2.elsevier.co.uk/~tony/1014/yads-schema-2002-04-03#collection');">
<path style="fill:none;stroke:#add9e6" d="M95,493C92,499 90,506 88,512 87,521 86,530 86,538"/>
<polygon style="fill:#add9e6;stroke:#add9e6" points="84,538 86,548 89,538 84,538"/>
<text text-anchor="middle" x="132" y="525" style="font-family:arial">has:collection</text>
</a></g>
<g id="node30" class="node"><title>:_9</title>
<a xlink:href="http://www.w3.org/1999/02/22-rdf-syntax-ns#Bag" target="_blank" onmouseover="show_status('http://www.w3.org/1999/02/22-rdf-syntax-ns#Bag');">
<ellipse cx="459" cy="566" rx="28" ry="18" style="fill:#d2d2d2;stroke:#d2d2d2"/>
<text text-anchor="middle" x="459" y="570" style="font-family:arial">rdf:Bag</text>
</a></g>
<g id="edge29" class="edge"><title>:_8-&gt;:_9</title>
<a xlink:href="http://www2.elsevier.co.uk/~tony/1014/yads-schema-2002-04-03#collection" target="_blank" onmouseover="show_status('http://www2.elsevier.co.uk/~tony/1014/yads-schema-2002-04-03#collection');">
<path style="fill:none;stroke:#add9e6" d="M459,494C459,507 459,524 459,539"/>
<polygon style="fill:#add9e6;stroke:#add9e6" points="457,538 459,548 462,538 457,538"/>
<text text-anchor="middle" x="500" y="525" style="font-family:arial">has:collection</text>
</a></g>
<g id="node24" class="node"><title>:_7</title>
<ellipse cx="100" cy="671" rx="49" ry="18" style="fill:#eedb82;stroke:#eedb82"/>
<text text-anchor="middle" x="100" y="675" style="font-family:arial">metro:Address</text>
</g>
<g id="edge23" class="edge"><title>:_6-&gt;:_7</title>
<a xlink:href="http://www.w3.org/1999/02/22-rdf-syntax-ns#_1" target="_blank" onmouseover="show_status('http://www.w3.org/1999/02/22-rdf-syntax-ns#_1');">
<path style="fill:none;stroke:#add9e6" d="M90,584C93,600 95,625 97,644"/>
<polygon style="fill:#add9e6;stroke:#add9e6" points="94,643 98,653 99,643 94,643"/>
<text text-anchor="middle" x="114" y="615" style="font-family:arial">rdf:_1</text>
</a></g>
<g id="node27" class="node"><title>data:,</title>
<a xlink:href="" onclick="show_data('');" onmouseover="show_status('data:,');">
<ellipse cx="78" cy="761" rx="27" ry="18" style="fill:#dca0dd;stroke:#dca0dd"/>
<text text-anchor="middle" x="78" y="765" style="font-family:arial">data:,</text>
</a></g>
<g id="edge26" class="edge"><title>:_7-&gt;data:,</title>
<a xlink:href="http://www2.elsevier.co.uk/~tony/1014/yads-schema-2002-04-03#resource" target="_blank" onmouseover="show_status('http://www2.elsevier.co.uk/~tony/1014/yads-schema-2002-04-03#resource');">
<path style="fill:none;stroke:#add9e6" d="M96,689C93,702 88,719 84,734"/>
<polygon style="fill:#add9e6;stroke:#add9e6" points="82,733 82,743 87,734 82,733"/>
<text text-anchor="middle" x="134" y="720" style="font-family:arial">has:resource</text>
</a></g>
<g id="node32" class="node"><title>:_10</title>
<ellipse cx="459" cy="671" rx="57" ry="18" style="fill:#eedb82;stroke:#eedb82"/>
<text text-anchor="middle" x="459" y="675" style="font-family:arial">metro:LineChange</text>
</g>
<g id="edge31" class="edge"><title>:_9-&gt;:_10</title>
<a xlink:href="http://www.w3.org/1999/02/22-rdf-syntax-ns#_1" target="_blank" onmouseover="show_status('http://www.w3.org/1999/02/22-rdf-syntax-ns#_1');">
<path style="fill:none;stroke:#add9e6" d="M459,584C459,600 459,625 459,644"/>
<polygon style="fill:#add9e6;stroke:#add9e6" points="457,643 459,653 462,643 457,643"/>
<text text-anchor="middle" x="479" y="615" style="font-family:arial">rdf:_1</text>
</a></g>
<g id="node34" class="node"><title>:_18</title>
<ellipse cx="705" cy="671" rx="57" ry="18" style="fill:#eedb82;stroke:#eedb82"/>
<text text-anchor="middle" x="705" y="675" style="font-family:arial">metro:LineChange</text>
</g>
<g id="edge33" class="edge"><title>:_9-&gt;:_18</title>
<a xlink:href="http://www.w3.org/1999/02/22-rdf-syntax-ns#_2" target="_blank" onmouseover="show_status('http://www.w3.org/1999/02/22-rdf-syntax-ns#_2');">
<path style="fill:none;stroke:#add9e6" d="M484,575C515,586 572,608 619,628 635,636 652,644 667,651"/>
<polygon style="fill:#add9e6;stroke:#add9e6" points="665,653 675,655 667,648 665,653"/>
<text text-anchor="middle" x="620" y="615" style="font-family:arial">rdf:_2</text>
</a></g>
<g id="node37" class="node"><title>doi:1014/metro/blue_line</title>
<a xlink:href="http://dx.doi.org/1014/metro/blue_line" target="_blank" onmouseover="show_status('http://dx.doi.org/1014/metro/blue_line');">
<ellipse cx="345" cy="761" rx="71" ry="18" style="fill:#dca0dd;stroke:#dca0dd"/>
<text text-anchor="middle" x="345" y="765" style="font-family:arial">doi:1014/metro/blue_line</text>
</a></g>
<g id="edge36" class="edge"><title>:_10-&gt;doi:1014/metro/blue_line</title>
<a xlink:href="http://www2.elsevier.co.uk/~tony/1014/yads-schema-2002-04-03#resource" target="_blank" onmouseover="show_status('http://www2.elsevier.co.uk/~tony/1014/yads-schema-2002-04-03#resource');">
<path style="fill:none;stroke:#add9e6" d="M417,683C403,689 388,697 376,707 368,715 361,725 356,735"/>
<polygon style="fill:#add9e6;stroke:#add9e6" points="354,733 352,743 359,735 354,733"/>
<text text-anchor="middle" x="423" y="720" style="font-family:arial">has:resource</text>
</a></g>
<g id="node39" class="node"><title>:_11</title>
<a xlink:href="http://www.w3.org/1999/02/22-rdf-syntax-ns#Bag" target="_blank" onmouseover="show_status('http://www.w3.org/1999/02/22-rdf-syntax-ns#Bag');">
<ellipse cx="462" cy="761" rx="28" ry="18" style="fill:#d2d2d2;stroke:#d2d2d2"/>
<text text-anchor="middle" x="462" y="765" style="font-family:arial">rdf:Bag</text>
</a></g>
<g id="edge38" class="edge"><title>:_10-&gt;:_11</title>
<a xlink:href="http://www2.elsevier.co.uk/~tony/1014/yads-schema-2002-04-03#collection" target="_blank" onmouseover="show_status('http://www2.elsevier.co.uk/~tony/1014/yads-schema-2002-04-03#collection');">
<path style="fill:none;stroke:#add9e6" d="M460,689C460,702 461,719 461,734"/>
<polygon style="fill:#add9e6;stroke:#add9e6" points="459,733 461,743 464,733 459,733"/>
<text text-anchor="middle" x="503" y="720" style="font-family:arial">has:collection</text>
</a></g>
<g id="node65" class="node"><title>doi:1014/metro/red_line</title>
<a xlink:href="http://dx.doi.org/1014/metro/red_line" target="_blank" onmouseover="show_status('http://dx.doi.org/1014/metro/red_line');">
<ellipse cx="705" cy="761" rx="69" ry="18" style="fill:#dca0dd;stroke:#dca0dd"/>
<text text-anchor="middle" x="705" y="765" style="font-family:arial">doi:1014/metro/red_line</text>
</a></g>
<g id="edge65" class="edge"><title>:_18-&gt;doi:1014/metro/red_line</title>
<a xlink:href="http://www2.elsevier.co.uk/~tony/1014/yads-schema-2002-04-03#resource" target="_blank" onmouseover="show_status('http://www2.elsevier.co.uk/~tony/1014/yads-schema-2002-04-03#resource');">
<path style="fill:none;stroke:#add9e6" d="M705,689C705,702 705,719 705,734"/>
<polygon style="fill:#add9e6;stroke:#add9e6" points="703,733 705,743 708,733 703,733"/>
<text text-anchor="middle" x="746" y="720" style="font-family:arial">has:resource</text>
</a></g>
<g id="node67" class="node"><title>:_19</title>
<a xlink:href="http://www.w3.org/1999/02/22-rdf-syntax-ns#Bag" target="_blank" onmouseover="show_status('http://www.w3.org/1999/02/22-rdf-syntax-ns#Bag');">
<ellipse cx="823" cy="761" rx="28" ry="18" style="fill:#d2d2d2;stroke:#d2d2d2"/>
<text text-anchor="middle" x="823" y="765" style="font-family:arial">rdf:Bag</text>
</a></g>
<g id="edge67" class="edge"><title>:_18-&gt;:_19</title>
<a xlink:href="http://www2.elsevier.co.uk/~tony/1014/yads-schema-2002-04-03#collection" target="_blank" onmouseover="show_status('http://www2.elsevier.co.uk/~tony/1014/yads-schema-2002-04-03#collection');">
<path style="fill:none;stroke:#add9e6" d="M747,683C762,689 778,697 790,707 799,715 806,726 812,735"/>
<polygon style="fill:#add9e6;stroke:#add9e6" points="809,735 816,743 814,733 809,735"/>
<text text-anchor="middle" x="847" y="720" style="font-family:arial">has:collection</text>
</a></g>
<g id="node41" class="node"><title>:_12</title>
<ellipse cx="302" cy="872" rx="57" ry="18" style="fill:#eedb82;stroke:#eedb82"/>
<text text-anchor="middle" x="302" y="876" style="font-family:arial">metro:PrevStation</text>
</g>
<g id="edge40" class="edge"><title>:_11-&gt;:_12</title>
<a xlink:href="http://www.w3.org/1999/02/22-rdf-syntax-ns#_1" target="_blank" onmouseover="show_status('http://www.w3.org/1999/02/22-rdf-syntax-ns#_1');">
<path style="fill:none;stroke:#add9e6" d="M447,776C440,783 433,790 425,795 397,817 364,837 339,852"/>
<polygon style="fill:#add9e6;stroke:#add9e6" points="339,849 331,856 341,854 339,849"/>
<text text-anchor="middle" x="439" y="816" style="font-family:arial">rdf:_1</text>
</a></g>
<g id="node43" class="node"><title>:_15</title>
<ellipse cx="464" cy="872" rx="57" ry="18" style="fill:#eedb82;stroke:#eedb82"/>
<text text-anchor="middle" x="464" y="876" style="font-family:arial">metro:NextStation</text>
</g>
<g id="edge42" class="edge"><title>:_11-&gt;:_15</title>
<a xlink:href="http://www.w3.org/1999/02/22-rdf-syntax-ns#_2" target="_blank" onmouseover="show_status('http://www.w3.org/1999/02/22-rdf-syntax-ns#_2');">
<path style="fill:none;stroke:#add9e6" d="M462,779C463,797 463,824 464,845"/>
<polygon style="fill:#add9e6;stroke:#add9e6" points="462,844 464,854 467,844 462,844"/>
<text text-anchor="middle" x="485" y="816" style="font-family:arial">rdf:_2</text>
</a></g>
<g id="node46" class="node"><title>doi:1014/metro/null</title>
<a xlink:href="http://dx.doi.org/1014/metro/null" target="_blank" onmouseover="show_status('http://dx.doi.org/1014/metro/null');">
<ellipse cx="253" cy="962" rx="56" ry="18" style="fill:#dca0dd;stroke:#dca0dd"/>
<text text-anchor="middle" x="253" y="966" style="font-family:arial">doi:1014/metro/null</text>
</a></g>
<g id="edge45" class="edge"><title>:_12-&gt;doi:1014/metro/null</title>
<a xlink:href="http://www2.elsevier.co.uk/~tony/1014/yads-schema-2002-04-03#resource" target="_blank" onmouseover="show_status('http://www2.elsevier.co.uk/~tony/1014/yads-schema-2002-04-03#resource');">
<path style="fill:none;stroke:#add9e6" d="M254,882C239,887 226,895 217,908 211,918 216,929 223,938"/>
<polygon style="fill:#add9e6;stroke:#add9e6" points="221,940 230,945 225,936 221,940"/>
<text text-anchor="middle" x="261" y="921" style="font-family:arial">has:resource</text>
</a></g>
<g id="node48" class="node"><title>:_13</title>
<a xlink:href="http://www.w3.org/1999/02/22-rdf-syntax-ns#Bag" target="_blank" onmouseover="show_status('http://www.w3.org/1999/02/22-rdf-syntax-ns#Bag');">
<ellipse cx="355" cy="962" rx="28" ry="18" style="fill:#d2d2d2;stroke:#d2d2d2"/>
<text text-anchor="middle" x="355" y="966" style="font-family:arial">rdf:Bag</text>
</a></g>
<g id="edge47" class="edge"><title>:_12-&gt;:_13</title>
<a xlink:href="http://www2.elsevier.co.uk/~tony/1014/yads-schema-2002-04-03#collection" target="_blank" onmouseover="show_status('http://www2.elsevier.co.uk/~tony/1014/yads-schema-2002-04-03#collection');">
<path style="fill:none;stroke:#add9e6" d="M303,890C305,901 308,915 314,926 317,932 323,938 328,943"/>
<polygon style="fill:#add9e6;stroke:#add9e6" points="326,944 335,949 329,941 326,944"/>
<text text-anchor="middle" x="355" y="921" style="font-family:arial">has:collection</text>
</a></g>
<g id="node56" class="node"><title>doi:1014/metro/pico</title>
<a xlink:href="http://dx.doi.org/1014/metro/pico" target="_blank" onmouseover="show_status('http://dx.doi.org/1014/metro/pico');">
<ellipse cx="466" cy="962" rx="59" ry="18" style="fill:#dca0dd;stroke:#dca0dd"/>
<text text-anchor="middle" x="466" y="966" style="font-family:arial">doi:1014/metro/pico</text>
</a></g>
<g id="edge55" class="edge"><title>:_15-&gt;doi:1014/metro/pico</title>
<a xlink:href="http://www2.elsevier.co.uk/~tony/1014/yads-schema-2002-04-03#resource" target="_blank" onmouseover="show_status('http://www2.elsevier.co.uk/~tony/1014/yads-schema-2002-04-03#resource');">
<path style="fill:none;stroke:#add9e6" d="M445,889C440,895 436,901 433,908 431,916 431,919 433,926 435,930 437,934 439,937"/>
<polygon style="fill:#add9e6;stroke:#add9e6" points="437,938 445,945 441,936 437,938"/>
<text text-anchor="middle" x="477" y="921" style="font-family:arial">has:resource</text>
</a></g>
<g id="node58" class="node"><title>:_16</title>
<a xlink:href="http://www.w3.org/1999/02/22-rdf-syntax-ns#Bag" target="_blank" onmouseover="show_status('http://www.w3.org/1999/02/22-rdf-syntax-ns#Bag');">
<ellipse cx="571" cy="962" rx="28" ry="18" style="fill:#d2d2d2;stroke:#d2d2d2"/>
<text text-anchor="middle" x="571" y="966" style="font-family:arial">rdf:Bag</text>
</a></g>
<g id="edge57" class="edge"><title>:_15-&gt;:_16</title>
<a xlink:href="http://www2.elsevier.co.uk/~tony/1014/yads-schema-2002-04-03#collection" target="_blank" onmouseover="show_status('http://www2.elsevier.co.uk/~tony/1014/yads-schema-2002-04-03#collection');">
<path style="fill:none;stroke:#add9e6" d="M490,888C499,894 509,901 518,908 529,918 542,930 551,940"/>
<polygon style="fill:#add9e6;stroke:#add9e6" points="548,941 557,946 552,937 548,941"/>
<text text-anchor="middle" x="579" y="921" style="font-family:arial">has:collection</text>
</a></g>
<g id="node50" class="node"><title>:_14</title>
<ellipse cx="334" cy="1067" rx="38" ry="18" style="fill:#eedb82;stroke:#eedb82"/>
<text text-anchor="middle" x="334" y="1071" style="font-family:arial">metro:Mins</text>
</g>
<g id="edge49" class="edge"><title>:_13-&gt;:_14</title>
<a xlink:href="http://www.w3.org/1999/02/22-rdf-syntax-ns#_1" target="_blank" onmouseover="show_status('http://www.w3.org/1999/02/22-rdf-syntax-ns#_1');">
<path style="fill:none;stroke:#add9e6" d="M351,980C348,996 343,1021 339,1040"/>
<polygon style="fill:#add9e6;stroke:#add9e6" points="337,1039 338,1049 342,1039 337,1039"/>
<text text-anchor="middle" x="368" y="1011" style="font-family:arial">rdf:_1</text>
</a></g>
<g id="node53" class="node"><title>data:,0</title>
<a xlink:href="" onclick="show_data('0');" onmouseover="show_status('data:,0');">
<ellipse cx="348" cy="1171" rx="27" ry="18" style="fill:#dca0dd;stroke:#dca0dd"/>
<text text-anchor="middle" x="348" y="1175" style="font-family:arial">data:,0</text>
</a></g>
<g id="edge52" class="edge"><title>:_14-&gt;data:,0</title>
<a xlink:href="http://www2.elsevier.co.uk/~tony/1014/yads-schema-2002-04-03#resource" target="_blank" onmouseover="show_status('http://www2.elsevier.co.uk/~tony/1014/yads-schema-2002-04-03#resource');">
<path style="fill:none;stroke:#add9e6" d="M336,1085C339,1101 342,1125 344,1144"/>
<polygon style="fill:#add9e6;stroke:#add9e6" points="341,1143 345,1153 346,1143 341,1143"/>
<text text-anchor="middle" x="385" y="1130" style="font-family:arial">has:resource</text>
</a></g>
<g id="node60" class="node"><title>:_17</title>
<ellipse cx="479" cy="1067" rx="38" ry="18" style="fill:#eedb82;stroke:#eedb82"/>
<text text-anchor="middle" x="479" y="1071" style="font-family:arial">metro:Mins</text>
</g>
<g id="edge59" class="edge"><title>:_16-&gt;:_17</title>
<a xlink:href="http://www.w3.org/1999/02/22-rdf-syntax-ns#_1" target="_blank" onmouseover="show_status('http://www.w3.org/1999/02/22-rdf-syntax-ns#_1');">
<path style="fill:none;stroke:#add9e6" d="M557,978C542,995 517,1023 500,1043"/>
<polygon style="fill:#add9e6;stroke:#add9e6" points="499,1041 494,1050 502,1044 499,1041"/>
<text text-anchor="middle" x="560" y="1011" style="font-family:arial">rdf:_1</text>
</a></g>
<g id="edge62" class="edge"><title>:_17-&gt;data:,0</title>
<a xlink:href="http://www2.elsevier.co.uk/~tony/1014/yads-schema-2002-04-03#resource" target="_blank" onmouseover="show_status('http://www2.elsevier.co.uk/~tony/1014/yads-schema-2002-04-03#resource');">
<path style="fill:none;stroke:#add9e6" d="M470,1084C461,1100 447,1121 429,1135 416,1147 397,1155 381,1161"/>
<polygon style="fill:#add9e6;stroke:#add9e6" points="381,1158 373,1164 383,1163 381,1158"/>
<text text-anchor="middle" x="491" y="1130" style="font-family:arial">has:resource</text>
</a></g>
<g id="node69" class="node"><title>:_20</title>
<ellipse cx="823" cy="872" rx="57" ry="18" style="fill:#eedb82;stroke:#eedb82"/>
<text text-anchor="middle" x="823" y="876" style="font-family:arial">metro:PrevStation</text>
</g>
<g id="edge69" class="edge"><title>:_19-&gt;:_20</title>
<a xlink:href="http://www.w3.org/1999/02/22-rdf-syntax-ns#_1" target="_blank" onmouseover="show_status('http://www.w3.org/1999/02/22-rdf-syntax-ns#_1');">
<path style="fill:none;stroke:#add9e6" d="M823,779C823,797 823,824 823,845"/>
<polygon style="fill:#add9e6;stroke:#add9e6" points="821,844 823,854 826,844 821,844"/>
<text text-anchor="middle" x="843" y="816" style="font-family:arial">rdf:_1</text>
</a></g>
<g id="node71" class="node"><title>:_23</title>
<ellipse cx="1005" cy="872" rx="57" ry="18" style="fill:#eedb82;stroke:#eedb82"/>
<text text-anchor="middle" x="1005" y="876" style="font-family:arial">metro:NextStation</text>
</g>
<g id="edge71" class="edge"><title>:_19-&gt;:_23</title>
<a xlink:href="http://www.w3.org/1999/02/22-rdf-syntax-ns#_2" target="_blank" onmouseover="show_status('http://www.w3.org/1999/02/22-rdf-syntax-ns#_2');">
<path style="fill:none;stroke:#add9e6" d="M844,774C875,793 933,829 970,851"/>
<polygon style="fill:#add9e6;stroke:#add9e6" points="968,853 978,856 971,849 968,853"/>
<text text-anchor="middle" x="942" y="816" style="font-family:arial">rdf:_2</text>
</a></g>
<g id="node74" class="node"><title>doi:1014/metro/westlake,macar...k</title>
<a xlink:href="http://dx.doi.org/1014/metro/westlake,macarthur_park" target="_blank" onmouseover="show_status('http://dx.doi.org/1014/metro/westlake,macarthur_park');">
<ellipse cx="736" cy="962" rx="97" ry="18" style="fill:#dca0dd;stroke:#dca0dd"/>
<text text-anchor="middle" x="736" y="966" style="font-family:arial">doi:1014/metro/westlake,macar...k</text>
</a></g>
<g id="edge74" class="edge"><title>:_20-&gt;doi:1014/metro/westlake,macar...k</title>
<a xlink:href="http://www2.elsevier.co.uk/~tony/1014/yads-schema-2002-04-03#resource" target="_blank" onmouseover="show_status('http://www2.elsevier.co.uk/~tony/1014/yads-schema-2002-04-03#resource');">
<path style="fill:none;stroke:#add9e6" d="M781,884C768,890 755,897 746,908 741,915 738,926 737,935"/>
<polygon style="fill:#add9e6;stroke:#add9e6" points="735,934 736,944 740,934 735,934"/>
<text text-anchor="middle" x="790" y="921" style="font-family:arial">has:resource</text>
</a></g>
<g id="node76" class="node"><title>:_21</title>
<a xlink:href="http://www.w3.org/1999/02/22-rdf-syntax-ns#Bag" target="_blank" onmouseover="show_status('http://www.w3.org/1999/02/22-rdf-syntax-ns#Bag');">
<ellipse cx="879" cy="962" rx="28" ry="18" style="fill:#d2d2d2;stroke:#d2d2d2"/>
<text text-anchor="middle" x="879" y="966" style="font-family:arial">rdf:Bag</text>
</a></g>
<g id="edge76" class="edge"><title>:_20-&gt;:_21</title>
<a xlink:href="http://www2.elsevier.co.uk/~tony/1014/yads-schema-2002-04-03#collection" target="_blank" onmouseover="show_status('http://www2.elsevier.co.uk/~tony/1014/yads-schema-2002-04-03#collection');">
<path style="fill:none;stroke:#add9e6" d="M825,890C828,901 831,915 838,926 841,932 847,938 852,943"/>
<polygon style="fill:#add9e6;stroke:#add9e6" points="850,944 859,949 853,941 850,944"/>
<text text-anchor="middle" x="879" y="921" style="font-family:arial">has:collection</text>
</a></g>
<g id="node83" class="node"><title>doi:1014/metro/pershing_squar</title>
<a xlink:href="http://dx.doi.org/1014/metro/pershing_square" target="_blank" onmouseover="show_status('http://dx.doi.org/1014/metro/pershing_square');">
<ellipse cx="1021" cy="962" rx="90" ry="18" style="fill:#dca0dd;stroke:#dca0dd"/>
<text text-anchor="middle" x="1021" y="966" style="font-family:arial">doi:1014/metro/pershing_squar</text>
</a></g>
<g id="edge84" class="edge"><title>:_23-&gt;doi:1014/metro/pershing_squar</title>
<a xlink:href="http://www2.elsevier.co.uk/~tony/1014/yads-schema-2002-04-03#resource" target="_blank" onmouseover="show_status('http://www2.elsevier.co.uk/~tony/1014/yads-schema-2002-04-03#resource');">
<path style="fill:none;stroke:#add9e6" d="M1008,890C1010,903 1014,920 1016,935"/>
<polygon style="fill:#add9e6;stroke:#add9e6" points="1013,935 1018,944 1018,934 1013,935"/>
<text text-anchor="middle" x="1056" y="921" style="font-family:arial">has:resource</text>
</a></g>
<g id="node85" class="node"><title>:_24</title>
<a xlink:href="http://www.w3.org/1999/02/22-rdf-syntax-ns#Bag" target="_blank" onmouseover="show_status('http://www.w3.org/1999/02/22-rdf-syntax-ns#Bag');">
<ellipse cx="1157" cy="962" rx="28" ry="18" style="fill:#d2d2d2;stroke:#d2d2d2"/>
<text text-anchor="middle" x="1157" y="966" style="font-family:arial">rdf:Bag</text>
</a></g>
<g id="edge86" class="edge"><title>:_23-&gt;:_24</title>
<a xlink:href="http://www2.elsevier.co.uk/~tony/1014/yads-schema-2002-04-03#collection" target="_blank" onmouseover="show_status('http://www2.elsevier.co.uk/~tony/1014/yads-schema-2002-04-03#collection');">
<path style="fill:none;stroke:#add9e6" d="M1055,881C1071,886 1088,895 1100,908 1105,915 1099,920 1104,926 1109,934 1117,941 1126,947"/>
<polygon style="fill:#add9e6;stroke:#add9e6" points="1124,949 1134,952 1127,945 1124,949"/>
<text text-anchor="middle" x="1145" y="921" style="font-family:arial">has:collection</text>
</a></g>
<g id="node78" class="node"><title>:_22</title>
<ellipse cx="730" cy="1067" rx="38" ry="18" style="fill:#eedb82;stroke:#eedb82"/>
<text text-anchor="middle" x="730" y="1071" style="font-family:arial">metro:Mins</text>
</g>
<g id="edge78" class="edge"><title>:_21-&gt;:_22</title>
<a xlink:href="http://www.w3.org/1999/02/22-rdf-syntax-ns#_1" target="_blank" onmouseover="show_status('http://www.w3.org/1999/02/22-rdf-syntax-ns#_1');">
<path style="fill:none;stroke:#add9e6" d="M860,975C834,994 788,1026 758,1048"/>
<polygon style="fill:#add9e6;stroke:#add9e6" points="759,1044 752,1052 762,1049 759,1044"/>
<text text-anchor="middle" x="848" y="1011" style="font-family:arial">rdf:_1</text>
</a></g>
<g id="edge81" class="edge"><title>:_22-&gt;data:,0</title>
<a xlink:href="http://www2.elsevier.co.uk/~tony/1014/yads-schema-2002-04-03#resource" target="_blank" onmouseover="show_status('http://www2.elsevier.co.uk/~tony/1014/yads-schema-2002-04-03#resource');">
<path style="fill:none;stroke:#add9e6" d="M700,1079C663,1093 595,1118 535,1135 469,1155 451,1160 384,1169"/>
<polygon style="fill:#add9e6;stroke:#add9e6" points="385,1166 375,1170 385,1171 385,1166"/>
<text text-anchor="middle" x="640" y="1130" style="font-family:arial">has:resource</text>
</a></g>
<g id="node87" class="node"><title>:_25</title>
<ellipse cx="1019" cy="1067" rx="38" ry="18" style="fill:#eedb82;stroke:#eedb82"/>
<text text-anchor="middle" x="1019" y="1071" style="font-family:arial">metro:Mins</text>
</g>
<g id="edge88" class="edge"><title>:_24-&gt;:_25</title>
<a xlink:href="http://www.w3.org/1999/02/22-rdf-syntax-ns#_1" target="_blank" onmouseover="show_status('http://www.w3.org/1999/02/22-rdf-syntax-ns#_1');">
<path style="fill:none;stroke:#add9e6" d="M1139,976C1116,994 1075,1024 1048,1045"/>
<polygon style="fill:#add9e6;stroke:#add9e6" points="1045,1044 1039,1052 1048,1048 1045,1044"/>
<text text-anchor="middle" x="1127" y="1011" style="font-family:arial">rdf:_1</text>
</a></g>
<g id="edge91" class="edge"><title>:_25-&gt;data:,0</title>
<a xlink:href="http://www2.elsevier.co.uk/~tony/1014/yads-schema-2002-04-03#resource" target="_blank" onmouseover="show_status('http://www2.elsevier.co.uk/~tony/1014/yads-schema-2002-04-03#resource');">
<path style="fill:none;stroke:#add9e6" d="M985,1075C924,1089 795,1117 684,1135 558,1156 526,1159 397,1169 393,1170 389,1170 385,1170"/>
<polygon style="fill:#add9e6;stroke:#add9e6" points="385,1167 375,1170 385,1172 385,1167"/>
<text text-anchor="middle" x="836" y="1130" style="font-family:arial">has:resource</text>
</a></g>
</g>
</svg>
