<?xml version="1.0" encoding="UTF-8" standalone="no"?>
<!DOCTYPE svg PUBLIC "-//W3C//DTD SVG 1.0//EN"
 "http://www.w3.org/TR/2001/REC-SVG-20010904/DTD/svg10.dtd" [
 <!ATTLIST svg xmlns:xlink CDATA #FIXED "http://www.w3.org/1999/xlink">
]>
<!-- Generated by dot version 1.8.5 (Tue Apr 23 17:19:23  2002)
     For user: (Administrator) ,S-1-5-21-1454471165-688789844-1708537768-500   Title: yads    Pages: 1 -->
<svg width="896px" height="1272px"
 xmlns="http://www.w3.org/2000/svg" xmlns:xlink="http://www.w3.org/1999/xlink">
<g id="graph0" class="graph" style="font-family:Times-Roman;font-size:11.00">
<title>yads</title>
<text text-anchor="middle" x="448" y="1261" style="font-family:arial;font-size:24.00">YADS - A Description Service</text>
<g id="graph2" class="cluster"><title>cluster_1</title>
<polygon style="fill:none;stroke:#d2d2d2;stroke-dasharray:5,2" points="19,1229 877,1229 877,43 19,43 19,1229"/>
<text text-anchor="middle" x="88" y="55" style="font-family:arial">Nest - Anaheim Station</text>
</g>
<g id="graph3" class="cluster"><title>cluster_3</title>
<polygon style="fill:none;stroke:#d2d2d2;stroke-dasharray:5,2" points="27,1221 869,1221 869,238 27,238 27,1221"/>
<text text-anchor="middle" x="99" y="250" style="font-family:arial">Nest - Application Profile</text>
</g>
<g id="graph4" class="cluster"><title>cluster_5</title>
<polygon style="fill:none;stroke:#d2d2d2;stroke-dasharray:5,2" points="35,795 289,795 289,433 35,433 35,795"/>
<text text-anchor="middle" x="80" y="445" style="font-family:arial">Item - Location</text>
</g>
<g id="graph5" class="cluster"><title>cluster_7</title>
<polygon style="fill:none;stroke:#d2d2d2;stroke-dasharray:5,2" points="43,787 281,787 281,628 43,628 43,787"/>
<text text-anchor="middle" x="59" y="640" style="font-family:arial">Item</text>
</g>
<g id="graph6" class="cluster"><title>cluster_8</title>
<polygon style="fill:none;stroke:#d2d2d2;stroke-dasharray:5,2" points="297,1213 861,1213 861,433 297,433 297,1213"/>
<text text-anchor="middle" x="366" y="445" style="font-family:arial">Item - Line Interchanges</text>
</g>
<g id="graph7" class="cluster"><title>cluster_10</title>
<polygon style="fill:none;stroke:#d2d2d2;stroke-dasharray:5,2" points="305,1205 853,1205 853,628 305,628 305,1205"/>
<text text-anchor="middle" x="373" y="640" style="font-family:arial">Nest - Line Interchange</text>
</g>
<g id="graph8" class="cluster"><title>cluster_12</title>
<polygon style="fill:none;stroke:#d2d2d2;stroke-dasharray:5,2" points="313,1197 593,1197 593,829 313,829 313,1197"/>
<text text-anchor="middle" x="381" y="841" style="font-family:arial">Nest - Next Stop Back</text>
</g>
<g id="graph9" class="cluster"><title>cluster_14</title>
<polygon style="fill:none;stroke:#d2d2d2;stroke-dasharray:5,2" points="488,1189 585,1189 585,1024 488,1024 488,1189"/>
<text text-anchor="middle" x="504" y="1036" style="font-family:arial">Item</text>
</g>
<g id="graph10" class="cluster"><title>cluster_15</title>
<polygon style="fill:none;stroke:#d2d2d2;stroke-dasharray:5,2" points="601,1101 845,1101 845,829 601,829 601,1101"/>
<text text-anchor="middle" x="653" y="841" style="font-family:arial">Nest - Next Stop</text>
</g>
<g id="graph11" class="cluster"><title>cluster_17</title>
<polygon style="fill:none;stroke:#d2d2d2;stroke-dasharray:5,2" points="644,1093 736,1093 736,1024 644,1024 644,1093"/>
<text text-anchor="middle" x="660" y="1036" style="font-family:arial">Item</text>
</g>
<g id="node2" class="node"><title>:_1</title>
<ellipse cx="237" cy="86" rx="44" ry="18" style="fill:#eedb82;stroke:#eedb82"/>
<text text-anchor="middle" x="237" y="90" style="font-family:arial">metro:Station</text>
</g>
<g id="node4" class="node"><title>doi:1014/metro/anaheim</title>
<a xlink:href="http://dx.doi.org/1014/metro/anaheim" target="_blank" onmouseover="show_status('http://dx.doi.org/1014/metro/anaheim');">
<ellipse cx="119" cy="176" rx="71" ry="18" style="fill:#dca0dd;stroke:#dca0dd"/>
<text text-anchor="middle" x="119" y="180" style="font-family:arial">doi:1014/metro/anaheim</text>
</a></g>
<g id="edge3" class="edge"><title>:_1-&gt;doi:1014/metro/anaheim</title>
<a xlink:href="http://www2.elsevier.co.uk/~tony/1014/yads-schema-2002-04-03#resource" target="_blank" onmouseover="show_status('http://www2.elsevier.co.uk/~tony/1014/yads-schema-2002-04-03#resource');">
<path style="fill:none;stroke:#add9e6" d="M201,96C185,102 166,110 152,122 143,130 136,140 131,150"/>
<polygon style="fill:#add9e6;stroke:#add9e6" points="129,148 127,158 134,150 129,148"/>
<text text-anchor="middle" x="199" y="135" style="font-family:arial">has:resource</text>
</a></g>
<g id="node6" class="node"><title>node_2</title>
<polygon style="fill:#6497ed;stroke:#6497ed" points="266,158 208,158 208,194 266,194 266,158"/>
<text text-anchor="middle" x="237" y="180" style="font-family:arial">Anaheim</text>
</g>
<g id="edge5" class="edge"><title>:_1-&gt;node_2</title>
<a xlink:href="http://www2.elsevier.co.uk/~tony/1014/yads-schema-2002-04-03#label" target="_blank" onmouseover="show_status('http://www2.elsevier.co.uk/~tony/1014/yads-schema-2002-04-03#label');">
<path style="fill:none;stroke:#add9e6" d="M237,104C237,117 237,134 237,149"/>
<polygon style="fill:#add9e6;stroke:#add9e6" points="235,148 237,158 240,148 235,148"/>
<text text-anchor="middle" x="264" y="135" style="font-family:arial">has:label</text>
</a></g>
<g id="node8" class="node"><title>:_2</title>
<a xlink:href="http://www.w3.org/1999/02/22-rdf-syntax-ns#Bag" target="_blank" onmouseover="show_status('http://www.w3.org/1999/02/22-rdf-syntax-ns#Bag');">
<ellipse cx="312" cy="176" rx="28" ry="18" style="fill:#d2d2d2;stroke:#d2d2d2"/>
<text text-anchor="middle" x="312" y="180" style="font-family:arial">rdf:Bag</text>
</a></g>
<g id="edge7" class="edge"><title>:_1-&gt;:_2</title>
<a xlink:href="http://www2.elsevier.co.uk/~tony/1014/yads-schema-2002-04-03#collection" target="_blank" onmouseover="show_status('http://www2.elsevier.co.uk/~tony/1014/yads-schema-2002-04-03#collection');">
<path style="fill:none;stroke:#add9e6" d="M268,99C278,105 289,112 296,122 302,129 306,140 308,149"/>
<polygon style="fill:#add9e6;stroke:#add9e6" points="305,149 310,158 310,148 305,149"/>
<text text-anchor="middle" x="347" y="135" style="font-family:arial">has:collection</text>
</a></g>
<g id="node10" class="node"><title>:_3</title>
<ellipse cx="312" cy="281" rx="34" ry="18" style="fill:#eedb82;stroke:#eedb82"/>
<text text-anchor="middle" x="312" y="285" style="font-family:arial">doi:Profile</text>
</g>
<g id="edge9" class="edge"><title>:_2-&gt;:_3</title>
<a xlink:href="http://www.w3.org/1999/02/22-rdf-syntax-ns#_1" target="_blank" onmouseover="show_status('http://www.w3.org/1999/02/22-rdf-syntax-ns#_1');">
<path style="fill:none;stroke:#add9e6" d="M312,194C312,210 312,235 312,254"/>
<polygon style="fill:#add9e6;stroke:#add9e6" points="310,253 312,263 315,253 310,253"/>
<text text-anchor="middle" x="332" y="225" style="font-family:arial">rdf:_1</text>
</a></g>
<g id="node13" class="node"><title>doi:1014/profile.metro</title>
<a xlink:href="http://dx.doi.org/1014/profile.metro" target="_blank" onmouseover="show_status('http://dx.doi.org/1014/profile.metro');">
<ellipse cx="218" cy="371" rx="63" ry="18" style="fill:#dca0dd;stroke:#dca0dd"/>
<text text-anchor="middle" x="218" y="375" style="font-family:arial">doi:1014/profile.metro</text>
</a></g>
<g id="edge12" class="edge"><title>:_3-&gt;doi:1014/profile.metro</title>
<a xlink:href="http://www2.elsevier.co.uk/~tony/1014/yads-schema-2002-04-03#resource" target="_blank" onmouseover="show_status('http://www2.elsevier.co.uk/~tony/1014/yads-schema-2002-04-03#resource');">
<path style="fill:none;stroke:#add9e6" d="M281,289C266,295 247,303 235,317 229,324 225,334 222,344"/>
<polygon style="fill:#add9e6;stroke:#add9e6" points="220,343 220,353 225,344 220,343"/>
<text text-anchor="middle" x="279" y="330" style="font-family:arial">has:resource</text>
</a></g>
<g id="node15" class="node"><title>:_4</title>
<a xlink:href="http://www.w3.org/1999/02/22-rdf-syntax-ns#Bag" target="_blank" onmouseover="show_status('http://www.w3.org/1999/02/22-rdf-syntax-ns#Bag');">
<ellipse cx="327" cy="371" rx="28" ry="18" style="fill:#d2d2d2;stroke:#d2d2d2"/>
<text text-anchor="middle" x="327" y="375" style="font-family:arial">rdf:Bag</text>
</a></g>
<g id="edge14" class="edge"><title>:_3-&gt;:_4</title>
<a xlink:href="http://www2.elsevier.co.uk/~tony/1014/yads-schema-2002-04-03#collection" target="_blank" onmouseover="show_status('http://www2.elsevier.co.uk/~tony/1014/yads-schema-2002-04-03#collection');">
<path style="fill:none;stroke:#add9e6" d="M315,299C317,312 320,329 322,344"/>
<polygon style="fill:#add9e6;stroke:#add9e6" points="319,344 324,353 324,343 319,344"/>
<text text-anchor="middle" x="363" y="330" style="font-family:arial">has:collection</text>
</a></g>
<g id="node17" class="node"><title>:_5</title>
<a xlink:href="http://www2.elsevier.co.uk/~tony/1014/yads-schema-2002-04-03#Item" target="_blank" onmouseover="show_status('http://www2.elsevier.co.uk/~tony/1014/yads-schema-2002-04-03#Item');">
<ellipse cx="232" cy="476" rx="28" ry="18" style="fill:#d2d2d2;stroke:#d2d2d2"/>
<text text-anchor="middle" x="232" y="480" style="font-family:arial">isa:Item</text>
</a></g>
<g id="edge16" class="edge"><title>:_4-&gt;:_5</title>
<a xlink:href="http://www.w3.org/1999/02/22-rdf-syntax-ns#_1" target="_blank" onmouseover="show_status('http://www.w3.org/1999/02/22-rdf-syntax-ns#_1');">
<path style="fill:none;stroke:#add9e6" d="M313,387C297,405 270,433 252,454"/>
<polygon style="fill:#add9e6;stroke:#add9e6" points="251,451 246,460 255,455 251,451"/>
<text text-anchor="middle" x="317" y="420" style="font-family:arial">rdf:_1</text>
</a></g>
<g id="node19" class="node"><title>:_8</title>
<a xlink:href="http://www2.elsevier.co.uk/~tony/1014/yads-schema-2002-04-03#Item" target="_blank" onmouseover="show_status('http://www2.elsevier.co.uk/~tony/1014/yads-schema-2002-04-03#Item');">
<ellipse cx="359" cy="476" rx="28" ry="18" style="fill:#d2d2d2;stroke:#d2d2d2"/>
<text text-anchor="middle" x="359" y="480" style="font-family:arial">isa:Item</text>
</a></g>
<g id="edge18" class="edge"><title>:_4-&gt;:_8</title>
<a xlink:href="http://www.w3.org/1999/02/22-rdf-syntax-ns#_2" target="_blank" onmouseover="show_status('http://www.w3.org/1999/02/22-rdf-syntax-ns#_2');">
<path style="fill:none;stroke:#add9e6" d="M332,389C337,405 345,431 351,450"/>
<polygon style="fill:#add9e6;stroke:#add9e6" points="348,450 354,458 353,448 348,450"/>
<text text-anchor="middle" x="364" y="420" style="font-family:arial">rdf:_2</text>
</a></g>
<g id="node22" class="node"><title>:_6</title>
<a xlink:href="http://www.w3.org/1999/02/22-rdf-syntax-ns#Bag" target="_blank" onmouseover="show_status('http://www.w3.org/1999/02/22-rdf-syntax-ns#Bag');">
<ellipse cx="193" cy="566" rx="28" ry="18" style="fill:#d2d2d2;stroke:#d2d2d2"/>
<text text-anchor="middle" x="193" y="570" style="font-family:arial">rdf:Bag</text>
</a></g>
<g id="edge21" class="edge"><title>:_5-&gt;:_6</title>
<a xlink:href="http://www2.elsevier.co.uk/~tony/1014/yads-schema-2002-04-03#collection" target="_blank" onmouseover="show_status('http://www2.elsevier.co.uk/~tony/1014/yads-schema-2002-04-03#collection');">
<path style="fill:none;stroke:#add9e6" d="M222,493C219,499 215,506 212,512 208,521 205,530 202,539"/>
<polygon style="fill:#add9e6;stroke:#add9e6" points="200,538 199,548 205,539 200,538"/>
<text text-anchor="middle" x="256" y="525" style="font-family:arial">has:collection</text>
</a></g>
<g id="node30" class="node"><title>:_9</title>
<a xlink:href="http://www.w3.org/1999/02/22-rdf-syntax-ns#Bag" target="_blank" onmouseover="show_status('http://www.w3.org/1999/02/22-rdf-syntax-ns#Bag');">
<ellipse cx="378" cy="566" rx="28" ry="18" style="fill:#d2d2d2;stroke:#d2d2d2"/>
<text text-anchor="middle" x="378" y="570" style="font-family:arial">rdf:Bag</text>
</a></g>
<g id="edge29" class="edge"><title>:_8-&gt;:_9</title>
<a xlink:href="http://www2.elsevier.co.uk/~tony/1014/yads-schema-2002-04-03#collection" target="_blank" onmouseover="show_status('http://www2.elsevier.co.uk/~tony/1014/yads-schema-2002-04-03#collection');">
<path style="fill:none;stroke:#add9e6" d="M363,494C365,507 369,524 372,539"/>
<polygon style="fill:#add9e6;stroke:#add9e6" points="369,539 374,548 374,538 369,539"/>
<text text-anchor="middle" x="413" y="525" style="font-family:arial">has:collection</text>
</a></g>
<g id="node24" class="node"><title>:_7</title>
<ellipse cx="190" cy="671" rx="49" ry="18" style="fill:#eedb82;stroke:#eedb82"/>
<text text-anchor="middle" x="190" y="675" style="font-family:arial">metro:Address</text>
</g>
<g id="edge23" class="edge"><title>:_6-&gt;:_7</title>
<a xlink:href="http://www.w3.org/1999/02/22-rdf-syntax-ns#_1" target="_blank" onmouseover="show_status('http://www.w3.org/1999/02/22-rdf-syntax-ns#_1');">
<path style="fill:none;stroke:#add9e6" d="M192,584C192,600 191,625 191,644"/>
<polygon style="fill:#add9e6;stroke:#add9e6" points="189,643 191,653 194,643 189,643"/>
<text text-anchor="middle" x="213" y="615" style="font-family:arial">rdf:_1</text>
</a></g>
<g id="node27" class="node"><title>data:,1290%20N.%20Long%20Beac...3</title>
<a xlink:href="" onclick="show_data('1290%20N.%20Long%20Beach%20Bl.,%20Long%20Beach%2090813');" onmouseover="show_status('data:,1290%20N.%20Long%20Beach%20Bl.,%20Long%20Beach%2090813');">
<ellipse cx="162" cy="761" rx="111" ry="18" style="fill:#dca0dd;stroke:#dca0dd"/>
<text text-anchor="middle" x="162" y="765" style="font-family:arial">data:,1290%20N.%20Long%20Beac...3</text>
</a></g>
<g id="edge26" class="edge"><title>:_7-&gt;data:,1290%20N.%20Long%20Beac...3</title>
<a xlink:href="http://www2.elsevier.co.uk/~tony/1014/yads-schema-2002-04-03#resource" target="_blank" onmouseover="show_status('http://www2.elsevier.co.uk/~tony/1014/yads-schema-2002-04-03#resource');">
<path style="fill:none;stroke:#add9e6" d="M184,689C180,702 174,719 170,734"/>
<polygon style="fill:#add9e6;stroke:#add9e6" points="168,733 168,743 173,734 168,733"/>
<text text-anchor="middle" x="220" y="720" style="font-family:arial">has:resource</text>
</a></g>
<g id="node32" class="node"><title>:_10</title>
<ellipse cx="385" cy="671" rx="57" ry="18" style="fill:#eedb82;stroke:#eedb82"/>
<text text-anchor="middle" x="385" y="675" style="font-family:arial">metro:LineChange</text>
</g>
<g id="edge31" class="edge"><title>:_9-&gt;:_10</title>
<a xlink:href="http://www.w3.org/1999/02/22-rdf-syntax-ns#_1" target="_blank" onmouseover="show_status('http://www.w3.org/1999/02/22-rdf-syntax-ns#_1');">
<path style="fill:none;stroke:#add9e6" d="M379,584C380,600 381,625 383,644"/>
<polygon style="fill:#add9e6;stroke:#add9e6" points="380,643 384,653 385,643 380,643"/>
<text text-anchor="middle" x="402" y="615" style="font-family:arial">rdf:_1</text>
</a></g>
<g id="node35" class="node"><title>doi:1014/metro/blue_line</title>
<a xlink:href="http://dx.doi.org/1014/metro/blue_line" target="_blank" onmouseover="show_status('http://dx.doi.org/1014/metro/blue_line');">
<ellipse cx="385" cy="761" rx="71" ry="18" style="fill:#dca0dd;stroke:#dca0dd"/>
<text text-anchor="middle" x="385" y="765" style="font-family:arial">doi:1014/metro/blue_line</text>
</a></g>
<g id="edge34" class="edge"><title>:_10-&gt;doi:1014/metro/blue_line</title>
<a xlink:href="http://www2.elsevier.co.uk/~tony/1014/yads-schema-2002-04-03#resource" target="_blank" onmouseover="show_status('http://www2.elsevier.co.uk/~tony/1014/yads-schema-2002-04-03#resource');">
<path style="fill:none;stroke:#add9e6" d="M385,689C385,702 385,719 385,734"/>
<polygon style="fill:#add9e6;stroke:#add9e6" points="383,733 385,743 388,733 383,733"/>
<text text-anchor="middle" x="426" y="720" style="font-family:arial">has:resource</text>
</a></g>
<g id="node37" class="node"><title>:_11</title>
<a xlink:href="http://www.w3.org/1999/02/22-rdf-syntax-ns#Bag" target="_blank" onmouseover="show_status('http://www.w3.org/1999/02/22-rdf-syntax-ns#Bag');">
<ellipse cx="503" cy="761" rx="28" ry="18" style="fill:#d2d2d2;stroke:#d2d2d2"/>
<text text-anchor="middle" x="503" y="765" style="font-family:arial">rdf:Bag</text>
</a></g>
<g id="edge36" class="edge"><title>:_10-&gt;:_11</title>
<a xlink:href="http://www2.elsevier.co.uk/~tony/1014/yads-schema-2002-04-03#collection" target="_blank" onmouseover="show_status('http://www2.elsevier.co.uk/~tony/1014/yads-schema-2002-04-03#collection');">
<path style="fill:none;stroke:#add9e6" d="M427,683C442,689 458,697 470,707 479,715 486,726 492,735"/>
<polygon style="fill:#add9e6;stroke:#add9e6" points="489,735 496,743 494,733 489,735"/>
<text text-anchor="middle" x="527" y="720" style="font-family:arial">has:collection</text>
</a></g>
<g id="node39" class="node"><title>:_12</title>
<ellipse cx="503" cy="872" rx="57" ry="18" style="fill:#eedb82;stroke:#eedb82"/>
<text text-anchor="middle" x="503" y="876" style="font-family:arial">metro:PrevStation</text>
</g>
<g id="edge38" class="edge"><title>:_11-&gt;:_12</title>
<a xlink:href="http://www.w3.org/1999/02/22-rdf-syntax-ns#_1" target="_blank" onmouseover="show_status('http://www.w3.org/1999/02/22-rdf-syntax-ns#_1');">
<path style="fill:none;stroke:#add9e6" d="M503,779C503,797 503,824 503,845"/>
<polygon style="fill:#add9e6;stroke:#add9e6" points="501,844 503,854 506,844 501,844"/>
<text text-anchor="middle" x="523" y="816" style="font-family:arial">rdf:_1</text>
</a></g>
<g id="node41" class="node"><title>:_15</title>
<ellipse cx="666" cy="872" rx="57" ry="18" style="fill:#eedb82;stroke:#eedb82"/>
<text text-anchor="middle" x="666" y="876" style="font-family:arial">metro:NextStation</text>
</g>
<g id="edge40" class="edge"><title>:_11-&gt;:_15</title>
<a xlink:href="http://www.w3.org/1999/02/22-rdf-syntax-ns#_2" target="_blank" onmouseover="show_status('http://www.w3.org/1999/02/22-rdf-syntax-ns#_2');">
<path style="fill:none;stroke:#add9e6" d="M522,774C550,794 602,828 635,851"/>
<polygon style="fill:#add9e6;stroke:#add9e6" points="632,852 642,856 635,848 632,852"/>
<text text-anchor="middle" x="612" y="816" style="font-family:arial">rdf:_2</text>
</a></g>
<g id="node44" class="node"><title>doi:1014/metro/pacific_coast_...y</title>
<a xlink:href="http://dx.doi.org/1014/metro/pacific_coast_highway" target="_blank" onmouseover="show_status('http://dx.doi.org/1014/metro/pacific_coast_highway');">
<ellipse cx="416" cy="962" rx="95" ry="18" style="fill:#dca0dd;stroke:#dca0dd"/>
<text text-anchor="middle" x="416" y="966" style="font-family:arial">doi:1014/metro/pacific_coast_...y</text>
</a></g>
<g id="edge43" class="edge"><title>:_12-&gt;doi:1014/metro/pacific_coast_...y</title>
<a xlink:href="http://www2.elsevier.co.uk/~tony/1014/yads-schema-2002-04-03#resource" target="_blank" onmouseover="show_status('http://www2.elsevier.co.uk/~tony/1014/yads-schema-2002-04-03#resource');">
<path style="fill:none;stroke:#add9e6" d="M459,884C447,889 434,897 425,908 420,915 417,926 416,935"/>
<polygon style="fill:#add9e6;stroke:#add9e6" points="414,934 415,944 419,934 414,934"/>
<text text-anchor="middle" x="469" y="921" style="font-family:arial">has:resource</text>
</a></g>
<g id="node46" class="node"><title>:_13</title>
<a xlink:href="http://www.w3.org/1999/02/22-rdf-syntax-ns#Bag" target="_blank" onmouseover="show_status('http://www.w3.org/1999/02/22-rdf-syntax-ns#Bag');">
<ellipse cx="557" cy="962" rx="28" ry="18" style="fill:#d2d2d2;stroke:#d2d2d2"/>
<text text-anchor="middle" x="557" y="966" style="font-family:arial">rdf:Bag</text>
</a></g>
<g id="edge45" class="edge"><title>:_12-&gt;:_13</title>
<a xlink:href="http://www2.elsevier.co.uk/~tony/1014/yads-schema-2002-04-03#collection" target="_blank" onmouseover="show_status('http://www2.elsevier.co.uk/~tony/1014/yads-schema-2002-04-03#collection');">
<path style="fill:none;stroke:#add9e6" d="M505,890C507,901 510,915 516,926 519,932 525,938 530,943"/>
<polygon style="fill:#add9e6;stroke:#add9e6" points="528,944 537,949 531,941 528,944"/>
<text text-anchor="middle" x="557" y="921" style="font-family:arial">has:collection</text>
</a></g>
<g id="node54" class="node"><title>doi:1014/metro/5th_street</title>
<a xlink:href="http://dx.doi.org/1014/metro/5th_street" target="_blank" onmouseover="show_status('http://dx.doi.org/1014/metro/5th_street');">
<ellipse cx="686" cy="962" rx="77" ry="18" style="fill:#dca0dd;stroke:#dca0dd"/>
<text text-anchor="middle" x="686" y="966" style="font-family:arial">doi:1014/metro/5th_street</text>
</a></g>
<g id="edge53" class="edge"><title>:_15-&gt;doi:1014/metro/5th_street</title>
<a xlink:href="http://www2.elsevier.co.uk/~tony/1014/yads-schema-2002-04-03#resource" target="_blank" onmouseover="show_status('http://www2.elsevier.co.uk/~tony/1014/yads-schema-2002-04-03#resource');">
<path style="fill:none;stroke:#add9e6" d="M667,890C667,901 668,914 671,926 672,929 673,932 674,935"/>
<polygon style="fill:#add9e6;stroke:#add9e6" points="671,935 677,944 676,934 671,935"/>
<text text-anchor="middle" x="712" y="921" style="font-family:arial">has:resource</text>
</a></g>
<g id="node56" class="node"><title>:_16</title>
<a xlink:href="http://www.w3.org/1999/02/22-rdf-syntax-ns#Bag" target="_blank" onmouseover="show_status('http://www.w3.org/1999/02/22-rdf-syntax-ns#Bag');">
<ellipse cx="809" cy="962" rx="28" ry="18" style="fill:#d2d2d2;stroke:#d2d2d2"/>
<text text-anchor="middle" x="809" y="966" style="font-family:arial">rdf:Bag</text>
</a></g>
<g id="edge55" class="edge"><title>:_15-&gt;:_16</title>
<a xlink:href="http://www2.elsevier.co.uk/~tony/1014/yads-schema-2002-04-03#collection" target="_blank" onmouseover="show_status('http://www2.elsevier.co.uk/~tony/1014/yads-schema-2002-04-03#collection');">
<path style="fill:none;stroke:#add9e6" d="M705,885C719,891 735,899 748,908 756,915 756,919 764,926 770,932 776,937 783,942"/>
<polygon style="fill:#add9e6;stroke:#add9e6" points="781,943 790,948 784,940 781,943"/>
<text text-anchor="middle" x="805" y="921" style="font-family:arial">has:collection</text>
</a></g>
<g id="node48" class="node"><title>:_14</title>
<ellipse cx="536" cy="1067" rx="38" ry="18" style="fill:#eedb82;stroke:#eedb82"/>
<text text-anchor="middle" x="536" y="1071" style="font-family:arial">metro:Mins</text>
</g>
<g id="edge47" class="edge"><title>:_13-&gt;:_14</title>
<a xlink:href="http://www.w3.org/1999/02/22-rdf-syntax-ns#_1" target="_blank" onmouseover="show_status('http://www.w3.org/1999/02/22-rdf-syntax-ns#_1');">
<path style="fill:none;stroke:#add9e6" d="M553,980C550,996 545,1021 541,1040"/>
<polygon style="fill:#add9e6;stroke:#add9e6" points="539,1039 540,1049 544,1039 539,1039"/>
<text text-anchor="middle" x="570" y="1011" style="font-family:arial">rdf:_1</text>
</a></g>
<g id="node51" class="node"><title>data:,0</title>
<a xlink:href="" onclick="show_data('0');" onmouseover="show_status('data:,0');">
<ellipse cx="536" cy="1163" rx="27" ry="18" style="fill:#dca0dd;stroke:#dca0dd"/>
<text text-anchor="middle" x="536" y="1167" style="font-family:arial">data:,0</text>
</a></g>
<g id="edge50" class="edge"><title>:_14-&gt;data:,0</title>
<a xlink:href="http://www2.elsevier.co.uk/~tony/1014/yads-schema-2002-04-03#resource" target="_blank" onmouseover="show_status('http://www2.elsevier.co.uk/~tony/1014/yads-schema-2002-04-03#resource');">
<path style="fill:none;stroke:#add9e6" d="M536,1085C536,1099 536,1120 536,1136"/>
<polygon style="fill:#add9e6;stroke:#add9e6" points="534,1135 536,1145 539,1135 534,1135"/>
<text text-anchor="middle" x="577" y="1122" style="font-family:arial">has:resource</text>
</a></g>
<g id="node58" class="node"><title>:_17</title>
<ellipse cx="690" cy="1067" rx="38" ry="18" style="fill:#eedb82;stroke:#eedb82"/>
<text text-anchor="middle" x="690" y="1071" style="font-family:arial">metro:Mins</text>
</g>
<g id="edge57" class="edge"><title>:_16-&gt;:_17</title>
<a xlink:href="http://www.w3.org/1999/02/22-rdf-syntax-ns#_1" target="_blank" onmouseover="show_status('http://www.w3.org/1999/02/22-rdf-syntax-ns#_1');">
<path style="fill:none;stroke:#add9e6" d="M792,977C772,994 739,1024 715,1045"/>
<polygon style="fill:#add9e6;stroke:#add9e6" points="714,1043 708,1051 717,1046 714,1043"/>
<text text-anchor="middle" x="786" y="1011" style="font-family:arial">rdf:_1</text>
</a></g>
<g id="edge60" class="edge"><title>:_17-&gt;data:,0</title>
<a xlink:href="http://www2.elsevier.co.uk/~tony/1014/yads-schema-2002-04-03#resource" target="_blank" onmouseover="show_status('http://www2.elsevier.co.uk/~tony/1014/yads-schema-2002-04-03#resource');">
<path style="fill:none;stroke:#add9e6" d="M674,1084C661,1097 641,1115 621,1127 605,1137 585,1146 568,1152"/>
<polygon style="fill:#add9e6;stroke:#add9e6" points="568,1149 560,1155 570,1154 568,1149"/>
<text text-anchor="middle" x="691" y="1122" style="font-family:arial">has:resource</text>
</a></g>
</g>
</svg>
