<?xml version="1.0" encoding="UTF-8" standalone="no"?>
<!DOCTYPE svg PUBLIC "-//W3C//DTD SVG 1.0//EN"
 "http://www.w3.org/TR/2001/REC-SVG-20010904/DTD/svg10.dtd" [
 <!ATTLIST svg xmlns:xlink CDATA #FIXED "http://www.w3.org/1999/xlink">
]>
<!-- Generated by dot version 1.8.5 (Tue Apr 23 17:19:23  2002)
     For user: (Administrator) ,S-1-5-21-1454471165-688789844-1708537768-500   Title: yads    Pages: 1 -->
<svg width="836px" height="1272px"
 xmlns="http://www.w3.org/2000/svg" xmlns:xlink="http://www.w3.org/1999/xlink">
<g id="graph0" class="graph" style="font-family:Times-Roman;font-size:11.00">
<title>yads</title>
<text text-anchor="middle" x="418" y="1261" style="font-family:arial;font-size:24.00">YADS - A Description Service</text>
<g id="graph2" class="cluster"><title>cluster_1</title>
<polygon style="fill:none;stroke:#d2d2d2;stroke-dasharray:5,2" points="19,1229 817,1229 817,43 19,43 19,1229"/>
<text text-anchor="middle" x="87" y="55" style="font-family:arial">Nest - Florence Station</text>
</g>
<g id="graph3" class="cluster"><title>cluster_3</title>
<polygon style="fill:none;stroke:#d2d2d2;stroke-dasharray:5,2" points="27,1221 809,1221 809,238 27,238 27,1221"/>
<text text-anchor="middle" x="99" y="250" style="font-family:arial">Nest - Application Profile</text>
</g>
<g id="graph4" class="cluster"><title>cluster_5</title>
<polygon style="fill:none;stroke:#d2d2d2;stroke-dasharray:5,2" points="35,795 291,795 291,433 35,433 35,795"/>
<text text-anchor="middle" x="80" y="445" style="font-family:arial">Item - Location</text>
</g>
<g id="graph5" class="cluster"><title>cluster_7</title>
<polygon style="fill:none;stroke:#d2d2d2;stroke-dasharray:5,2" points="43,787 283,787 283,628 43,628 43,787"/>
<text text-anchor="middle" x="59" y="640" style="font-family:arial">Item</text>
</g>
<g id="graph6" class="cluster"><title>cluster_8</title>
<polygon style="fill:none;stroke:#d2d2d2;stroke-dasharray:5,2" points="299,1213 801,1213 801,433 299,433 299,1213"/>
<text text-anchor="middle" x="368" y="445" style="font-family:arial">Item - Line Interchanges</text>
</g>
<g id="graph7" class="cluster"><title>cluster_10</title>
<polygon style="fill:none;stroke:#d2d2d2;stroke-dasharray:5,2" points="307,1205 793,1205 793,628 307,628 307,1205"/>
<text text-anchor="middle" x="375" y="640" style="font-family:arial">Nest - Line Interchange</text>
</g>
<g id="graph8" class="cluster"><title>cluster_12</title>
<polygon style="fill:none;stroke:#d2d2d2;stroke-dasharray:5,2" points="315,1197 543,1197 543,829 315,829 315,1197"/>
<text text-anchor="middle" x="383" y="841" style="font-family:arial">Nest - Next Stop Back</text>
</g>
<g id="graph9" class="cluster"><title>cluster_14</title>
<polygon style="fill:none;stroke:#d2d2d2;stroke-dasharray:5,2" points="438,1189 535,1189 535,1024 438,1024 438,1189"/>
<text text-anchor="middle" x="454" y="1036" style="font-family:arial">Item</text>
</g>
<g id="graph10" class="cluster"><title>cluster_15</title>
<polygon style="fill:none;stroke:#d2d2d2;stroke-dasharray:5,2" points="551,1101 785,1101 785,829 551,829 551,1101"/>
<text text-anchor="middle" x="603" y="841" style="font-family:arial">Nest - Next Stop</text>
</g>
<g id="graph11" class="cluster"><title>cluster_17</title>
<polygon style="fill:none;stroke:#d2d2d2;stroke-dasharray:5,2" points="592,1093 684,1093 684,1024 592,1024 592,1093"/>
<text text-anchor="middle" x="608" y="1036" style="font-family:arial">Item</text>
</g>
<g id="node2" class="node"><title>:_1</title>
<ellipse cx="234" cy="86" rx="44" ry="18" style="fill:#eedb82;stroke:#eedb82"/>
<text text-anchor="middle" x="234" y="90" style="font-family:arial">metro:Station</text>
</g>
<g id="node4" class="node"><title>doi:1014/metro/florence</title>
<a xlink:href="http://dx.doi.org/1014/metro/florence" target="_blank" onmouseover="show_status('http://dx.doi.org/1014/metro/florence');">
<ellipse cx="118" cy="176" rx="70" ry="18" style="fill:#dca0dd;stroke:#dca0dd"/>
<text text-anchor="middle" x="118" y="180" style="font-family:arial">doi:1014/metro/florence</text>
</a></g>
<g id="edge3" class="edge"><title>:_1-&gt;doi:1014/metro/florence</title>
<a xlink:href="http://www2.elsevier.co.uk/~tony/1014/yads-schema-2002-04-03#resource" target="_blank" onmouseover="show_status('http://www2.elsevier.co.uk/~tony/1014/yads-schema-2002-04-03#resource');">
<path style="fill:none;stroke:#add9e6" d="M197,96C181,102 163,110 149,122 141,130 134,140 129,150"/>
<polygon style="fill:#add9e6;stroke:#add9e6" points="127,148 125,158 132,150 127,148"/>
<text text-anchor="middle" x="196" y="135" style="font-family:arial">has:resource</text>
</a></g>
<g id="node6" class="node"><title>node_2</title>
<polygon style="fill:#6497ed;stroke:#6497ed" points="262,158 206,158 206,194 262,194 262,158"/>
<text text-anchor="middle" x="234" y="180" style="font-family:arial">Florence</text>
</g>
<g id="edge5" class="edge"><title>:_1-&gt;node_2</title>
<a xlink:href="http://www2.elsevier.co.uk/~tony/1014/yads-schema-2002-04-03#label" target="_blank" onmouseover="show_status('http://www2.elsevier.co.uk/~tony/1014/yads-schema-2002-04-03#label');">
<path style="fill:none;stroke:#add9e6" d="M234,104C234,117 234,134 234,149"/>
<polygon style="fill:#add9e6;stroke:#add9e6" points="232,148 234,158 237,148 232,148"/>
<text text-anchor="middle" x="261" y="135" style="font-family:arial">has:label</text>
</a></g>
<g id="node8" class="node"><title>:_2</title>
<a xlink:href="http://www.w3.org/1999/02/22-rdf-syntax-ns#Bag" target="_blank" onmouseover="show_status('http://www.w3.org/1999/02/22-rdf-syntax-ns#Bag');">
<ellipse cx="308" cy="176" rx="28" ry="18" style="fill:#d2d2d2;stroke:#d2d2d2"/>
<text text-anchor="middle" x="308" y="180" style="font-family:arial">rdf:Bag</text>
</a></g>
<g id="edge7" class="edge"><title>:_1-&gt;:_2</title>
<a xlink:href="http://www2.elsevier.co.uk/~tony/1014/yads-schema-2002-04-03#collection" target="_blank" onmouseover="show_status('http://www2.elsevier.co.uk/~tony/1014/yads-schema-2002-04-03#collection');">
<path style="fill:none;stroke:#add9e6" d="M265,99C275,105 286,112 293,122 299,129 303,140 305,149"/>
<polygon style="fill:#add9e6;stroke:#add9e6" points="302,149 307,158 307,148 302,149"/>
<text text-anchor="middle" x="344" y="135" style="font-family:arial">has:collection</text>
</a></g>
<g id="node10" class="node"><title>:_3</title>
<ellipse cx="308" cy="281" rx="34" ry="18" style="fill:#eedb82;stroke:#eedb82"/>
<text text-anchor="middle" x="308" y="285" style="font-family:arial">doi:Profile</text>
</g>
<g id="edge9" class="edge"><title>:_2-&gt;:_3</title>
<a xlink:href="http://www.w3.org/1999/02/22-rdf-syntax-ns#_1" target="_blank" onmouseover="show_status('http://www.w3.org/1999/02/22-rdf-syntax-ns#_1');">
<path style="fill:none;stroke:#add9e6" d="M308,194C308,210 308,235 308,254"/>
<polygon style="fill:#add9e6;stroke:#add9e6" points="306,253 308,263 311,253 306,253"/>
<text text-anchor="middle" x="328" y="225" style="font-family:arial">rdf:_1</text>
</a></g>
<g id="node13" class="node"><title>doi:1014/profile.metro</title>
<a xlink:href="http://dx.doi.org/1014/profile.metro" target="_blank" onmouseover="show_status('http://dx.doi.org/1014/profile.metro');">
<ellipse cx="217" cy="371" rx="63" ry="18" style="fill:#dca0dd;stroke:#dca0dd"/>
<text text-anchor="middle" x="217" y="375" style="font-family:arial">doi:1014/profile.metro</text>
</a></g>
<g id="edge12" class="edge"><title>:_3-&gt;doi:1014/profile.metro</title>
<a xlink:href="http://www2.elsevier.co.uk/~tony/1014/yads-schema-2002-04-03#resource" target="_blank" onmouseover="show_status('http://www2.elsevier.co.uk/~tony/1014/yads-schema-2002-04-03#resource');">
<path style="fill:none;stroke:#add9e6" d="M277,289C261,294 243,303 231,317 225,324 222,335 220,344"/>
<polygon style="fill:#add9e6;stroke:#add9e6" points="218,343 218,353 223,344 218,343"/>
<text text-anchor="middle" x="275" y="330" style="font-family:arial">has:resource</text>
</a></g>
<g id="node15" class="node"><title>:_4</title>
<a xlink:href="http://www.w3.org/1999/02/22-rdf-syntax-ns#Bag" target="_blank" onmouseover="show_status('http://www.w3.org/1999/02/22-rdf-syntax-ns#Bag');">
<ellipse cx="326" cy="371" rx="28" ry="18" style="fill:#d2d2d2;stroke:#d2d2d2"/>
<text text-anchor="middle" x="326" y="375" style="font-family:arial">rdf:Bag</text>
</a></g>
<g id="edge14" class="edge"><title>:_3-&gt;:_4</title>
<a xlink:href="http://www2.elsevier.co.uk/~tony/1014/yads-schema-2002-04-03#collection" target="_blank" onmouseover="show_status('http://www2.elsevier.co.uk/~tony/1014/yads-schema-2002-04-03#collection');">
<path style="fill:none;stroke:#add9e6" d="M312,299C314,312 318,329 320,344"/>
<polygon style="fill:#add9e6;stroke:#add9e6" points="317,344 322,353 322,343 317,344"/>
<text text-anchor="middle" x="361" y="330" style="font-family:arial">has:collection</text>
</a></g>
<g id="node17" class="node"><title>:_5</title>
<a xlink:href="http://www2.elsevier.co.uk/~tony/1014/yads-schema-2002-04-03#Item" target="_blank" onmouseover="show_status('http://www2.elsevier.co.uk/~tony/1014/yads-schema-2002-04-03#Item');">
<ellipse cx="234" cy="476" rx="28" ry="18" style="fill:#d2d2d2;stroke:#d2d2d2"/>
<text text-anchor="middle" x="234" y="480" style="font-family:arial">isa:Item</text>
</a></g>
<g id="edge16" class="edge"><title>:_4-&gt;:_5</title>
<a xlink:href="http://www.w3.org/1999/02/22-rdf-syntax-ns#_1" target="_blank" onmouseover="show_status('http://www.w3.org/1999/02/22-rdf-syntax-ns#_1');">
<path style="fill:none;stroke:#add9e6" d="M312,387C296,405 271,433 254,453"/>
<polygon style="fill:#add9e6;stroke:#add9e6" points="253,451 248,460 256,454 253,451"/>
<text text-anchor="middle" x="317" y="420" style="font-family:arial">rdf:_1</text>
</a></g>
<g id="node19" class="node"><title>:_8</title>
<a xlink:href="http://www2.elsevier.co.uk/~tony/1014/yads-schema-2002-04-03#Item" target="_blank" onmouseover="show_status('http://www2.elsevier.co.uk/~tony/1014/yads-schema-2002-04-03#Item');">
<ellipse cx="360" cy="476" rx="28" ry="18" style="fill:#d2d2d2;stroke:#d2d2d2"/>
<text text-anchor="middle" x="360" y="480" style="font-family:arial">isa:Item</text>
</a></g>
<g id="edge18" class="edge"><title>:_4-&gt;:_8</title>
<a xlink:href="http://www.w3.org/1999/02/22-rdf-syntax-ns#_2" target="_blank" onmouseover="show_status('http://www.w3.org/1999/02/22-rdf-syntax-ns#_2');">
<path style="fill:none;stroke:#add9e6" d="M332,389C337,405 345,431 351,450"/>
<polygon style="fill:#add9e6;stroke:#add9e6" points="348,450 354,458 353,448 348,450"/>
<text text-anchor="middle" x="365" y="420" style="font-family:arial">rdf:_2</text>
</a></g>
<g id="node22" class="node"><title>:_6</title>
<a xlink:href="http://www.w3.org/1999/02/22-rdf-syntax-ns#Bag" target="_blank" onmouseover="show_status('http://www.w3.org/1999/02/22-rdf-syntax-ns#Bag');">
<ellipse cx="195" cy="566" rx="28" ry="18" style="fill:#d2d2d2;stroke:#d2d2d2"/>
<text text-anchor="middle" x="195" y="570" style="font-family:arial">rdf:Bag</text>
</a></g>
<g id="edge21" class="edge"><title>:_5-&gt;:_6</title>
<a xlink:href="http://www2.elsevier.co.uk/~tony/1014/yads-schema-2002-04-03#collection" target="_blank" onmouseover="show_status('http://www2.elsevier.co.uk/~tony/1014/yads-schema-2002-04-03#collection');">
<path style="fill:none;stroke:#add9e6" d="M224,493C221,499 217,506 214,512 210,521 207,530 204,539"/>
<polygon style="fill:#add9e6;stroke:#add9e6" points="202,538 201,548 207,539 202,538"/>
<text text-anchor="middle" x="258" y="525" style="font-family:arial">has:collection</text>
</a></g>
<g id="node30" class="node"><title>:_9</title>
<a xlink:href="http://www.w3.org/1999/02/22-rdf-syntax-ns#Bag" target="_blank" onmouseover="show_status('http://www.w3.org/1999/02/22-rdf-syntax-ns#Bag');">
<ellipse cx="379" cy="566" rx="28" ry="18" style="fill:#d2d2d2;stroke:#d2d2d2"/>
<text text-anchor="middle" x="379" y="570" style="font-family:arial">rdf:Bag</text>
</a></g>
<g id="edge29" class="edge"><title>:_8-&gt;:_9</title>
<a xlink:href="http://www2.elsevier.co.uk/~tony/1014/yads-schema-2002-04-03#collection" target="_blank" onmouseover="show_status('http://www2.elsevier.co.uk/~tony/1014/yads-schema-2002-04-03#collection');">
<path style="fill:none;stroke:#add9e6" d="M364,494C366,507 370,524 373,539"/>
<polygon style="fill:#add9e6;stroke:#add9e6" points="370,539 375,548 375,538 370,539"/>
<text text-anchor="middle" x="414" y="525" style="font-family:arial">has:collection</text>
</a></g>
<g id="node24" class="node"><title>:_7</title>
<ellipse cx="192" cy="671" rx="49" ry="18" style="fill:#eedb82;stroke:#eedb82"/>
<text text-anchor="middle" x="192" y="675" style="font-family:arial">metro:Address</text>
</g>
<g id="edge23" class="edge"><title>:_6-&gt;:_7</title>
<a xlink:href="http://www.w3.org/1999/02/22-rdf-syntax-ns#_1" target="_blank" onmouseover="show_status('http://www.w3.org/1999/02/22-rdf-syntax-ns#_1');">
<path style="fill:none;stroke:#add9e6" d="M194,584C194,600 193,625 193,644"/>
<polygon style="fill:#add9e6;stroke:#add9e6" points="191,643 193,653 196,643 191,643"/>
<text text-anchor="middle" x="215" y="615" style="font-family:arial">rdf:_1</text>
</a></g>
<g id="node27" class="node"><title>data:,7225%20Graham%20Av.,%20...2</title>
<a xlink:href="" onclick="show_data('7225%20Graham%20Av.,%20Los%20Angeles%2090002');" onmouseover="show_status('data:,7225%20Graham%20Av.,%20Los%20Angeles%2090002');">
<ellipse cx="163" cy="761" rx="112" ry="18" style="fill:#dca0dd;stroke:#dca0dd"/>
<text text-anchor="middle" x="163" y="765" style="font-family:arial">data:,7225%20Graham%20Av.,%20...2</text>
</a></g>
<g id="edge26" class="edge"><title>:_7-&gt;data:,7225%20Graham%20Av.,%20...2</title>
<a xlink:href="http://www2.elsevier.co.uk/~tony/1014/yads-schema-2002-04-03#resource" target="_blank" onmouseover="show_status('http://www2.elsevier.co.uk/~tony/1014/yads-schema-2002-04-03#resource');">
<path style="fill:none;stroke:#add9e6" d="M186,689C182,702 176,719 172,734"/>
<polygon style="fill:#add9e6;stroke:#add9e6" points="170,733 169,743 175,734 170,733"/>
<text text-anchor="middle" x="222" y="720" style="font-family:arial">has:resource</text>
</a></g>
<g id="node32" class="node"><title>:_10</title>
<ellipse cx="386" cy="671" rx="57" ry="18" style="fill:#eedb82;stroke:#eedb82"/>
<text text-anchor="middle" x="386" y="675" style="font-family:arial">metro:LineChange</text>
</g>
<g id="edge31" class="edge"><title>:_9-&gt;:_10</title>
<a xlink:href="http://www.w3.org/1999/02/22-rdf-syntax-ns#_1" target="_blank" onmouseover="show_status('http://www.w3.org/1999/02/22-rdf-syntax-ns#_1');">
<path style="fill:none;stroke:#add9e6" d="M380,584C381,600 382,625 384,644"/>
<polygon style="fill:#add9e6;stroke:#add9e6" points="381,643 385,653 386,643 381,643"/>
<text text-anchor="middle" x="403" y="615" style="font-family:arial">rdf:_1</text>
</a></g>
<g id="node35" class="node"><title>doi:1014/metro/blue_line</title>
<a xlink:href="http://dx.doi.org/1014/metro/blue_line" target="_blank" onmouseover="show_status('http://dx.doi.org/1014/metro/blue_line');">
<ellipse cx="386" cy="761" rx="71" ry="18" style="fill:#dca0dd;stroke:#dca0dd"/>
<text text-anchor="middle" x="386" y="765" style="font-family:arial">doi:1014/metro/blue_line</text>
</a></g>
<g id="edge34" class="edge"><title>:_10-&gt;doi:1014/metro/blue_line</title>
<a xlink:href="http://www2.elsevier.co.uk/~tony/1014/yads-schema-2002-04-03#resource" target="_blank" onmouseover="show_status('http://www2.elsevier.co.uk/~tony/1014/yads-schema-2002-04-03#resource');">
<path style="fill:none;stroke:#add9e6" d="M386,689C386,702 386,719 386,734"/>
<polygon style="fill:#add9e6;stroke:#add9e6" points="384,733 386,743 389,733 384,733"/>
<text text-anchor="middle" x="427" y="720" style="font-family:arial">has:resource</text>
</a></g>
<g id="node37" class="node"><title>:_11</title>
<a xlink:href="http://www.w3.org/1999/02/22-rdf-syntax-ns#Bag" target="_blank" onmouseover="show_status('http://www.w3.org/1999/02/22-rdf-syntax-ns#Bag');">
<ellipse cx="503" cy="761" rx="28" ry="18" style="fill:#d2d2d2;stroke:#d2d2d2"/>
<text text-anchor="middle" x="503" y="765" style="font-family:arial">rdf:Bag</text>
</a></g>
<g id="edge36" class="edge"><title>:_10-&gt;:_11</title>
<a xlink:href="http://www2.elsevier.co.uk/~tony/1014/yads-schema-2002-04-03#collection" target="_blank" onmouseover="show_status('http://www2.elsevier.co.uk/~tony/1014/yads-schema-2002-04-03#collection');">
<path style="fill:none;stroke:#add9e6" d="M428,683C443,689 459,697 471,707 480,715 487,726 492,735"/>
<polygon style="fill:#add9e6;stroke:#add9e6" points="489,735 496,743 494,733 489,735"/>
<text text-anchor="middle" x="528" y="720" style="font-family:arial">has:collection</text>
</a></g>
<g id="node39" class="node"><title>:_12</title>
<ellipse cx="454" cy="872" rx="57" ry="18" style="fill:#eedb82;stroke:#eedb82"/>
<text text-anchor="middle" x="454" y="876" style="font-family:arial">metro:PrevStation</text>
</g>
<g id="edge38" class="edge"><title>:_11-&gt;:_12</title>
<a xlink:href="http://www.w3.org/1999/02/22-rdf-syntax-ns#_1" target="_blank" onmouseover="show_status('http://www.w3.org/1999/02/22-rdf-syntax-ns#_1');">
<path style="fill:none;stroke:#add9e6" d="M495,778C487,796 475,825 465,846"/>
<polygon style="fill:#add9e6;stroke:#add9e6" points="463,844 462,854 468,846 463,844"/>
<text text-anchor="middle" x="505" y="816" style="font-family:arial">rdf:_1</text>
</a></g>
<g id="node41" class="node"><title>:_15</title>
<ellipse cx="616" cy="872" rx="57" ry="18" style="fill:#eedb82;stroke:#eedb82"/>
<text text-anchor="middle" x="616" y="876" style="font-family:arial">metro:NextStation</text>
</g>
<g id="edge40" class="edge"><title>:_11-&gt;:_15</title>
<a xlink:href="http://www.w3.org/1999/02/22-rdf-syntax-ns#_2" target="_blank" onmouseover="show_status('http://www.w3.org/1999/02/22-rdf-syntax-ns#_2');">
<path style="fill:none;stroke:#add9e6" d="M519,776C538,795 569,826 591,848"/>
<polygon style="fill:#add9e6;stroke:#add9e6" points="589,850 598,855 593,846 589,850"/>
<text text-anchor="middle" x="585" y="816" style="font-family:arial">rdf:_2</text>
</a></g>
<g id="node44" class="node"><title>doi:1014/metro/slauson</title>
<a xlink:href="http://dx.doi.org/1014/metro/slauson" target="_blank" onmouseover="show_status('http://dx.doi.org/1014/metro/slauson');">
<ellipse cx="392" cy="962" rx="69" ry="18" style="fill:#dca0dd;stroke:#dca0dd"/>
<text text-anchor="middle" x="392" y="966" style="font-family:arial">doi:1014/metro/slauson</text>
</a></g>
<g id="edge43" class="edge"><title>:_12-&gt;doi:1014/metro/slauson</title>
<a xlink:href="http://www2.elsevier.co.uk/~tony/1014/yads-schema-2002-04-03#resource" target="_blank" onmouseover="show_status('http://www2.elsevier.co.uk/~tony/1014/yads-schema-2002-04-03#resource');">
<path style="fill:none;stroke:#add9e6" d="M408,883C395,888 383,896 375,908 370,916 371,926 375,935"/>
<polygon style="fill:#add9e6;stroke:#add9e6" points="373,936 379,944 377,934 373,936"/>
<text text-anchor="middle" x="419" y="921" style="font-family:arial">has:resource</text>
</a></g>
<g id="node46" class="node"><title>:_13</title>
<a xlink:href="http://www.w3.org/1999/02/22-rdf-syntax-ns#Bag" target="_blank" onmouseover="show_status('http://www.w3.org/1999/02/22-rdf-syntax-ns#Bag');">
<ellipse cx="507" cy="962" rx="28" ry="18" style="fill:#d2d2d2;stroke:#d2d2d2"/>
<text text-anchor="middle" x="507" y="966" style="font-family:arial">rdf:Bag</text>
</a></g>
<g id="edge45" class="edge"><title>:_12-&gt;:_13</title>
<a xlink:href="http://www2.elsevier.co.uk/~tony/1014/yads-schema-2002-04-03#collection" target="_blank" onmouseover="show_status('http://www2.elsevier.co.uk/~tony/1014/yads-schema-2002-04-03#collection');">
<path style="fill:none;stroke:#add9e6" d="M455,890C457,901 460,915 466,926 469,932 475,938 480,943"/>
<polygon style="fill:#add9e6;stroke:#add9e6" points="478,944 487,949 481,941 478,944"/>
<text text-anchor="middle" x="507" y="921" style="font-family:arial">has:collection</text>
</a></g>
<g id="node54" class="node"><title>doi:1014/metro/firestone</title>
<a xlink:href="http://dx.doi.org/1014/metro/firestone" target="_blank" onmouseover="show_status('http://dx.doi.org/1014/metro/firestone');">
<ellipse cx="631" cy="962" rx="72" ry="18" style="fill:#dca0dd;stroke:#dca0dd"/>
<text text-anchor="middle" x="631" y="966" style="font-family:arial">doi:1014/metro/firestone</text>
</a></g>
<g id="edge53" class="edge"><title>:_15-&gt;doi:1014/metro/firestone</title>
<a xlink:href="http://www2.elsevier.co.uk/~tony/1014/yads-schema-2002-04-03#resource" target="_blank" onmouseover="show_status('http://www2.elsevier.co.uk/~tony/1014/yads-schema-2002-04-03#resource');">
<path style="fill:none;stroke:#add9e6" d="M611,890C609,901 608,914 611,926 612,929 613,932 615,935"/>
<polygon style="fill:#add9e6;stroke:#add9e6" points="613,936 619,944 617,934 613,936"/>
<text text-anchor="middle" x="652" y="921" style="font-family:arial">has:resource</text>
</a></g>
<g id="node56" class="node"><title>:_16</title>
<a xlink:href="http://www.w3.org/1999/02/22-rdf-syntax-ns#Bag" target="_blank" onmouseover="show_status('http://www.w3.org/1999/02/22-rdf-syntax-ns#Bag');">
<ellipse cx="749" cy="962" rx="28" ry="18" style="fill:#d2d2d2;stroke:#d2d2d2"/>
<text text-anchor="middle" x="749" y="966" style="font-family:arial">rdf:Bag</text>
</a></g>
<g id="edge55" class="edge"><title>:_15-&gt;:_16</title>
<a xlink:href="http://www2.elsevier.co.uk/~tony/1014/yads-schema-2002-04-03#collection" target="_blank" onmouseover="show_status('http://www2.elsevier.co.uk/~tony/1014/yads-schema-2002-04-03#collection');">
<path style="fill:none;stroke:#add9e6" d="M651,886C663,892 677,900 688,908 696,915 696,919 704,926 710,932 716,937 723,942"/>
<polygon style="fill:#add9e6;stroke:#add9e6" points="721,943 730,948 724,940 721,943"/>
<text text-anchor="middle" x="745" y="921" style="font-family:arial">has:collection</text>
</a></g>
<g id="node48" class="node"><title>:_14</title>
<ellipse cx="486" cy="1067" rx="38" ry="18" style="fill:#eedb82;stroke:#eedb82"/>
<text text-anchor="middle" x="486" y="1071" style="font-family:arial">metro:Mins</text>
</g>
<g id="edge47" class="edge"><title>:_13-&gt;:_14</title>
<a xlink:href="http://www.w3.org/1999/02/22-rdf-syntax-ns#_1" target="_blank" onmouseover="show_status('http://www.w3.org/1999/02/22-rdf-syntax-ns#_1');">
<path style="fill:none;stroke:#add9e6" d="M503,980C500,996 495,1021 491,1040"/>
<polygon style="fill:#add9e6;stroke:#add9e6" points="489,1039 490,1049 494,1039 489,1039"/>
<text text-anchor="middle" x="520" y="1011" style="font-family:arial">rdf:_1</text>
</a></g>
<g id="node51" class="node"><title>data:,0</title>
<a xlink:href="" onclick="show_data('0');" onmouseover="show_status('data:,0');">
<ellipse cx="486" cy="1163" rx="27" ry="18" style="fill:#dca0dd;stroke:#dca0dd"/>
<text text-anchor="middle" x="486" y="1167" style="font-family:arial">data:,0</text>
</a></g>
<g id="edge50" class="edge"><title>:_14-&gt;data:,0</title>
<a xlink:href="http://www2.elsevier.co.uk/~tony/1014/yads-schema-2002-04-03#resource" target="_blank" onmouseover="show_status('http://www2.elsevier.co.uk/~tony/1014/yads-schema-2002-04-03#resource');">
<path style="fill:none;stroke:#add9e6" d="M486,1085C486,1099 486,1120 486,1136"/>
<polygon style="fill:#add9e6;stroke:#add9e6" points="484,1135 486,1145 489,1135 484,1135"/>
<text text-anchor="middle" x="527" y="1122" style="font-family:arial">has:resource</text>
</a></g>
<g id="node58" class="node"><title>:_17</title>
<ellipse cx="638" cy="1067" rx="38" ry="18" style="fill:#eedb82;stroke:#eedb82"/>
<text text-anchor="middle" x="638" y="1071" style="font-family:arial">metro:Mins</text>
</g>
<g id="edge57" class="edge"><title>:_16-&gt;:_17</title>
<a xlink:href="http://www.w3.org/1999/02/22-rdf-syntax-ns#_1" target="_blank" onmouseover="show_status('http://www.w3.org/1999/02/22-rdf-syntax-ns#_1');">
<path style="fill:none;stroke:#add9e6" d="M733,977C714,994 683,1023 662,1044"/>
<polygon style="fill:#add9e6;stroke:#add9e6" points="660,1042 655,1051 664,1046 660,1042"/>
<text text-anchor="middle" x="729" y="1011" style="font-family:arial">rdf:_1</text>
</a></g>
<g id="edge60" class="edge"><title>:_17-&gt;data:,0</title>
<a xlink:href="http://www2.elsevier.co.uk/~tony/1014/yads-schema-2002-04-03#resource" target="_blank" onmouseover="show_status('http://www2.elsevier.co.uk/~tony/1014/yads-schema-2002-04-03#resource');">
<path style="fill:none;stroke:#add9e6" d="M623,1084C610,1097 591,1115 571,1127 555,1137 535,1146 518,1152"/>
<polygon style="fill:#add9e6;stroke:#add9e6" points="518,1149 510,1155 520,1154 518,1149"/>
<text text-anchor="middle" x="640" y="1122" style="font-family:arial">has:resource</text>
</a></g>
</g>
</svg>
