<?xml version="1.0" encoding="UTF-8" standalone="no"?>
<!DOCTYPE svg PUBLIC "-//W3C//DTD SVG 1.0//EN"
 "http://www.w3.org/TR/2001/REC-SVG-20010904/DTD/svg10.dtd" [
 <!ATTLIST svg xmlns:xlink CDATA #FIXED "http://www.w3.org/1999/xlink">
]>
<!-- Generated by dot version 1.8.5 (Tue Apr 23 17:19:23  2002)
     For user: (Administrator) ,S-1-5-21-1454471165-688789844-1708537768-500   Title: yads    Pages: 1 -->
<svg width="848px" height="1272px"
 xmlns="http://www.w3.org/2000/svg" xmlns:xlink="http://www.w3.org/1999/xlink">
<g id="graph0" class="graph" style="font-family:Times-Roman;font-size:11.00">
<title>yads</title>
<text text-anchor="middle" x="424" y="1261" style="font-family:arial;font-size:24.00">YADS - A Description Service</text>
<g id="graph2" class="cluster"><title>cluster_1</title>
<polygon style="fill:none;stroke:#d2d2d2;stroke-dasharray:5,2" points="19,1229 829,1229 829,43 19,43 19,1229"/>
<text text-anchor="middle" x="93" y="55" style="font-family:arial">Nest - Lakewood Station</text>
</g>
<g id="graph3" class="cluster"><title>cluster_3</title>
<polygon style="fill:none;stroke:#d2d2d2;stroke-dasharray:5,2" points="27,1221 821,1221 821,238 27,238 27,1221"/>
<text text-anchor="middle" x="99" y="250" style="font-family:arial">Nest - Application Profile</text>
</g>
<g id="graph4" class="cluster"><title>cluster_5</title>
<polygon style="fill:none;stroke:#d2d2d2;stroke-dasharray:5,2" points="35,795 277,795 277,433 35,433 35,795"/>
<text text-anchor="middle" x="80" y="445" style="font-family:arial">Item - Location</text>
</g>
<g id="graph5" class="cluster"><title>cluster_7</title>
<polygon style="fill:none;stroke:#d2d2d2;stroke-dasharray:5,2" points="43,787 269,787 269,628 43,628 43,787"/>
<text text-anchor="middle" x="59" y="640" style="font-family:arial">Item</text>
</g>
<g id="graph6" class="cluster"><title>cluster_8</title>
<polygon style="fill:none;stroke:#d2d2d2;stroke-dasharray:5,2" points="285,1213 813,1213 813,433 285,433 285,1213"/>
<text text-anchor="middle" x="354" y="445" style="font-family:arial">Item - Line Interchanges</text>
</g>
<g id="graph7" class="cluster"><title>cluster_10</title>
<polygon style="fill:none;stroke:#d2d2d2;stroke-dasharray:5,2" points="293,1205 805,1205 805,628 293,628 293,1205"/>
<text text-anchor="middle" x="361" y="640" style="font-family:arial">Nest - Line Interchange</text>
</g>
<g id="graph8" class="cluster"><title>cluster_12</title>
<polygon style="fill:none;stroke:#d2d2d2;stroke-dasharray:5,2" points="301,1197 551,1197 551,829 301,829 301,1197"/>
<text text-anchor="middle" x="369" y="841" style="font-family:arial">Nest - Next Stop Back</text>
</g>
<g id="graph9" class="cluster"><title>cluster_14</title>
<polygon style="fill:none;stroke:#d2d2d2;stroke-dasharray:5,2" points="446,1189 543,1189 543,1024 446,1024 446,1189"/>
<text text-anchor="middle" x="462" y="1036" style="font-family:arial">Item</text>
</g>
<g id="graph10" class="cluster"><title>cluster_15</title>
<polygon style="fill:none;stroke:#d2d2d2;stroke-dasharray:5,2" points="559,1101 797,1101 797,829 559,829 559,1101"/>
<text text-anchor="middle" x="611" y="841" style="font-family:arial">Nest - Next Stop</text>
</g>
<g id="graph11" class="cluster"><title>cluster_17</title>
<polygon style="fill:none;stroke:#d2d2d2;stroke-dasharray:5,2" points="601,1093 693,1093 693,1024 601,1024 601,1093"/>
<text text-anchor="middle" x="617" y="1036" style="font-family:arial">Item</text>
</g>
<g id="node2" class="node"><title>:_1</title>
<ellipse cx="233" cy="86" rx="44" ry="18" style="fill:#eedb82;stroke:#eedb82"/>
<text text-anchor="middle" x="233" y="90" style="font-family:arial">metro:Station</text>
</g>
<g id="node4" class="node"><title>doi:1014/metro/lakewood</title>
<a xlink:href="http://dx.doi.org/1014/metro/lakewood" target="_blank" onmouseover="show_status('http://dx.doi.org/1014/metro/lakewood');">
<ellipse cx="106" cy="176" rx="75" ry="18" style="fill:#dca0dd;stroke:#dca0dd"/>
<text text-anchor="middle" x="106" y="180" style="font-family:arial">doi:1014/metro/lakewood</text>
</a></g>
<g id="edge3" class="edge"><title>:_1-&gt;doi:1014/metro/lakewood</title>
<a xlink:href="http://www2.elsevier.co.uk/~tony/1014/yads-schema-2002-04-03#resource" target="_blank" onmouseover="show_status('http://www2.elsevier.co.uk/~tony/1014/yads-schema-2002-04-03#resource');">
<path style="fill:none;stroke:#add9e6" d="M198,97C181,103 163,111 148,122 138,130 129,141 122,151"/>
<polygon style="fill:#add9e6;stroke:#add9e6" points="121,148 117,158 125,151 121,148"/>
<text text-anchor="middle" x="195" y="135" style="font-family:arial">has:resource</text>
</a></g>
<g id="node6" class="node"><title>node_2</title>
<polygon style="fill:#6497ed;stroke:#6497ed" points="267,158 199,158 199,194 267,194 267,158"/>
<text text-anchor="middle" x="233" y="180" style="font-family:arial">Lakewood</text>
</g>
<g id="edge5" class="edge"><title>:_1-&gt;node_2</title>
<a xlink:href="http://www2.elsevier.co.uk/~tony/1014/yads-schema-2002-04-03#label" target="_blank" onmouseover="show_status('http://www2.elsevier.co.uk/~tony/1014/yads-schema-2002-04-03#label');">
<path style="fill:none;stroke:#add9e6" d="M233,104C233,117 233,134 233,149"/>
<polygon style="fill:#add9e6;stroke:#add9e6" points="231,148 233,158 236,148 231,148"/>
<text text-anchor="middle" x="260" y="135" style="font-family:arial">has:label</text>
</a></g>
<g id="node8" class="node"><title>:_2</title>
<a xlink:href="http://www.w3.org/1999/02/22-rdf-syntax-ns#Bag" target="_blank" onmouseover="show_status('http://www.w3.org/1999/02/22-rdf-syntax-ns#Bag');">
<ellipse cx="313" cy="176" rx="28" ry="18" style="fill:#d2d2d2;stroke:#d2d2d2"/>
<text text-anchor="middle" x="313" y="180" style="font-family:arial">rdf:Bag</text>
</a></g>
<g id="edge7" class="edge"><title>:_1-&gt;:_2</title>
<a xlink:href="http://www2.elsevier.co.uk/~tony/1014/yads-schema-2002-04-03#collection" target="_blank" onmouseover="show_status('http://www2.elsevier.co.uk/~tony/1014/yads-schema-2002-04-03#collection');">
<path style="fill:none;stroke:#add9e6" d="M263,99C273,105 284,113 292,122 299,130 303,140 306,149"/>
<polygon style="fill:#add9e6;stroke:#add9e6" points="303,149 309,158 308,148 303,149"/>
<text text-anchor="middle" x="345" y="135" style="font-family:arial">has:collection</text>
</a></g>
<g id="node10" class="node"><title>:_3</title>
<ellipse cx="313" cy="281" rx="34" ry="18" style="fill:#eedb82;stroke:#eedb82"/>
<text text-anchor="middle" x="313" y="285" style="font-family:arial">doi:Profile</text>
</g>
<g id="edge9" class="edge"><title>:_2-&gt;:_3</title>
<a xlink:href="http://www.w3.org/1999/02/22-rdf-syntax-ns#_1" target="_blank" onmouseover="show_status('http://www.w3.org/1999/02/22-rdf-syntax-ns#_1');">
<path style="fill:none;stroke:#add9e6" d="M313,194C313,210 313,235 313,254"/>
<polygon style="fill:#add9e6;stroke:#add9e6" points="311,253 313,263 316,253 311,253"/>
<text text-anchor="middle" x="333" y="225" style="font-family:arial">rdf:_1</text>
</a></g>
<g id="node13" class="node"><title>doi:1014/profile.metro</title>
<a xlink:href="http://dx.doi.org/1014/profile.metro" target="_blank" onmouseover="show_status('http://dx.doi.org/1014/profile.metro');">
<ellipse cx="229" cy="371" rx="63" ry="18" style="fill:#dca0dd;stroke:#dca0dd"/>
<text text-anchor="middle" x="229" y="375" style="font-family:arial">doi:1014/profile.metro</text>
</a></g>
<g id="edge12" class="edge"><title>:_3-&gt;doi:1014/profile.metro</title>
<a xlink:href="http://www2.elsevier.co.uk/~tony/1014/yads-schema-2002-04-03#resource" target="_blank" onmouseover="show_status('http://www2.elsevier.co.uk/~tony/1014/yads-schema-2002-04-03#resource');">
<path style="fill:none;stroke:#add9e6" d="M282,289C267,294 250,303 239,317 234,324 231,335 230,344"/>
<polygon style="fill:#add9e6;stroke:#add9e6" points="228,343 229,353 233,343 228,343"/>
<text text-anchor="middle" x="283" y="330" style="font-family:arial">has:resource</text>
</a></g>
<g id="node15" class="node"><title>:_4</title>
<a xlink:href="http://www.w3.org/1999/02/22-rdf-syntax-ns#Bag" target="_blank" onmouseover="show_status('http://www.w3.org/1999/02/22-rdf-syntax-ns#Bag');">
<ellipse cx="338" cy="371" rx="28" ry="18" style="fill:#d2d2d2;stroke:#d2d2d2"/>
<text text-anchor="middle" x="338" y="375" style="font-family:arial">rdf:Bag</text>
</a></g>
<g id="edge14" class="edge"><title>:_3-&gt;:_4</title>
<a xlink:href="http://www2.elsevier.co.uk/~tony/1014/yads-schema-2002-04-03#collection" target="_blank" onmouseover="show_status('http://www2.elsevier.co.uk/~tony/1014/yads-schema-2002-04-03#collection');">
<path style="fill:none;stroke:#add9e6" d="M318,299C321,312 327,330 331,344"/>
<polygon style="fill:#add9e6;stroke:#add9e6" points="328,344 333,353 333,343 328,344"/>
<text text-anchor="middle" x="370" y="330" style="font-family:arial">has:collection</text>
</a></g>
<g id="node17" class="node"><title>:_5</title>
<a xlink:href="http://www2.elsevier.co.uk/~tony/1014/yads-schema-2002-04-03#Item" target="_blank" onmouseover="show_status('http://www2.elsevier.co.uk/~tony/1014/yads-schema-2002-04-03#Item');">
<ellipse cx="199" cy="476" rx="28" ry="18" style="fill:#d2d2d2;stroke:#d2d2d2"/>
<text text-anchor="middle" x="199" y="480" style="font-family:arial">isa:Item</text>
</a></g>
<g id="edge16" class="edge"><title>:_4-&gt;:_5</title>
<a xlink:href="http://www.w3.org/1999/02/22-rdf-syntax-ns#_1" target="_blank" onmouseover="show_status('http://www.w3.org/1999/02/22-rdf-syntax-ns#_1');">
<path style="fill:none;stroke:#add9e6" d="M320,385C295,404 250,437 223,458"/>
<polygon style="fill:#add9e6;stroke:#add9e6" points="224,454 217,462 227,459 224,454"/>
<text text-anchor="middle" x="313" y="420" style="font-family:arial">rdf:_1</text>
</a></g>
<g id="node19" class="node"><title>:_8</title>
<a xlink:href="http://www2.elsevier.co.uk/~tony/1014/yads-schema-2002-04-03#Item" target="_blank" onmouseover="show_status('http://www2.elsevier.co.uk/~tony/1014/yads-schema-2002-04-03#Item');">
<ellipse cx="349" cy="476" rx="28" ry="18" style="fill:#d2d2d2;stroke:#d2d2d2"/>
<text text-anchor="middle" x="349" y="480" style="font-family:arial">isa:Item</text>
</a></g>
<g id="edge18" class="edge"><title>:_4-&gt;:_8</title>
<a xlink:href="http://www.w3.org/1999/02/22-rdf-syntax-ns#_2" target="_blank" onmouseover="show_status('http://www.w3.org/1999/02/22-rdf-syntax-ns#_2');">
<path style="fill:none;stroke:#add9e6" d="M340,389C342,405 344,430 346,449"/>
<polygon style="fill:#add9e6;stroke:#add9e6" points="343,448 347,458 348,448 343,448"/>
<text text-anchor="middle" x="365" y="420" style="font-family:arial">rdf:_2</text>
</a></g>
<g id="node22" class="node"><title>:_6</title>
<a xlink:href="http://www.w3.org/1999/02/22-rdf-syntax-ns#Bag" target="_blank" onmouseover="show_status('http://www.w3.org/1999/02/22-rdf-syntax-ns#Bag');">
<ellipse cx="183" cy="566" rx="28" ry="18" style="fill:#d2d2d2;stroke:#d2d2d2"/>
<text text-anchor="middle" x="183" y="570" style="font-family:arial">rdf:Bag</text>
</a></g>
<g id="edge21" class="edge"><title>:_5-&gt;:_6</title>
<a xlink:href="http://www2.elsevier.co.uk/~tony/1014/yads-schema-2002-04-03#collection" target="_blank" onmouseover="show_status('http://www2.elsevier.co.uk/~tony/1014/yads-schema-2002-04-03#collection');">
<path style="fill:none;stroke:#add9e6" d="M196,494C194,507 190,524 188,539"/>
<polygon style="fill:#add9e6;stroke:#add9e6" points="186,538 186,548 191,539 186,538"/>
<text text-anchor="middle" x="234" y="525" style="font-family:arial">has:collection</text>
</a></g>
<g id="node30" class="node"><title>:_9</title>
<a xlink:href="http://www.w3.org/1999/02/22-rdf-syntax-ns#Bag" target="_blank" onmouseover="show_status('http://www.w3.org/1999/02/22-rdf-syntax-ns#Bag');">
<ellipse cx="370" cy="566" rx="28" ry="18" style="fill:#d2d2d2;stroke:#d2d2d2"/>
<text text-anchor="middle" x="370" y="570" style="font-family:arial">rdf:Bag</text>
</a></g>
<g id="edge29" class="edge"><title>:_8-&gt;:_9</title>
<a xlink:href="http://www2.elsevier.co.uk/~tony/1014/yads-schema-2002-04-03#collection" target="_blank" onmouseover="show_status('http://www2.elsevier.co.uk/~tony/1014/yads-schema-2002-04-03#collection');">
<path style="fill:none;stroke:#add9e6" d="M353,494C356,507 360,524 364,539"/>
<polygon style="fill:#add9e6;stroke:#add9e6" points="361,539 366,548 366,538 361,539"/>
<text text-anchor="middle" x="404" y="525" style="font-family:arial">has:collection</text>
</a></g>
<g id="node24" class="node"><title>:_7</title>
<ellipse cx="180" cy="671" rx="49" ry="18" style="fill:#eedb82;stroke:#eedb82"/>
<text text-anchor="middle" x="180" y="675" style="font-family:arial">metro:Address</text>
</g>
<g id="edge23" class="edge"><title>:_6-&gt;:_7</title>
<a xlink:href="http://www.w3.org/1999/02/22-rdf-syntax-ns#_1" target="_blank" onmouseover="show_status('http://www.w3.org/1999/02/22-rdf-syntax-ns#_1');">
<path style="fill:none;stroke:#add9e6" d="M182,584C182,600 181,625 181,644"/>
<polygon style="fill:#add9e6;stroke:#add9e6" points="179,643 181,653 184,643 179,643"/>
<text text-anchor="middle" x="203" y="615" style="font-family:arial">rdf:_1</text>
</a></g>
<g id="node27" class="node"><title>data:,12801%20Lakewood%20Av.,...1</title>
<a xlink:href="" onclick="show_data('12801%20Lakewood%20Av.,%20Downey%2090241');" onmouseover="show_status('data:,12801%20Lakewood%20Av.,%20Downey%2090241');">
<ellipse cx="156" cy="761" rx="105" ry="18" style="fill:#dca0dd;stroke:#dca0dd"/>
<text text-anchor="middle" x="156" y="765" style="font-family:arial">data:,12801%20Lakewood%20Av.,...1</text>
</a></g>
<g id="edge26" class="edge"><title>:_7-&gt;data:,12801%20Lakewood%20Av.,...1</title>
<a xlink:href="http://www2.elsevier.co.uk/~tony/1014/yads-schema-2002-04-03#resource" target="_blank" onmouseover="show_status('http://www2.elsevier.co.uk/~tony/1014/yads-schema-2002-04-03#resource');">
<path style="fill:none;stroke:#add9e6" d="M175,689C172,702 167,719 163,734"/>
<polygon style="fill:#add9e6;stroke:#add9e6" points="161,733 161,743 166,734 161,733"/>
<text text-anchor="middle" x="212" y="720" style="font-family:arial">has:resource</text>
</a></g>
<g id="node32" class="node"><title>:_10</title>
<ellipse cx="377" cy="671" rx="57" ry="18" style="fill:#eedb82;stroke:#eedb82"/>
<text text-anchor="middle" x="377" y="675" style="font-family:arial">metro:LineChange</text>
</g>
<g id="edge31" class="edge"><title>:_9-&gt;:_10</title>
<a xlink:href="http://www.w3.org/1999/02/22-rdf-syntax-ns#_1" target="_blank" onmouseover="show_status('http://www.w3.org/1999/02/22-rdf-syntax-ns#_1');">
<path style="fill:none;stroke:#add9e6" d="M371,584C372,600 373,625 375,644"/>
<polygon style="fill:#add9e6;stroke:#add9e6" points="372,643 376,653 377,643 372,643"/>
<text text-anchor="middle" x="394" y="615" style="font-family:arial">rdf:_1</text>
</a></g>
<g id="node35" class="node"><title>doi:1014/metro/green_line</title>
<a xlink:href="http://dx.doi.org/1014/metro/green_line" target="_blank" onmouseover="show_status('http://dx.doi.org/1014/metro/green_line');">
<ellipse cx="377" cy="761" rx="76" ry="18" style="fill:#dca0dd;stroke:#dca0dd"/>
<text text-anchor="middle" x="377" y="765" style="font-family:arial">doi:1014/metro/green_line</text>
</a></g>
<g id="edge34" class="edge"><title>:_10-&gt;doi:1014/metro/green_line</title>
<a xlink:href="http://www2.elsevier.co.uk/~tony/1014/yads-schema-2002-04-03#resource" target="_blank" onmouseover="show_status('http://www2.elsevier.co.uk/~tony/1014/yads-schema-2002-04-03#resource');">
<path style="fill:none;stroke:#add9e6" d="M377,689C377,702 377,719 377,734"/>
<polygon style="fill:#add9e6;stroke:#add9e6" points="375,733 377,743 380,733 375,733"/>
<text text-anchor="middle" x="418" y="720" style="font-family:arial">has:resource</text>
</a></g>
<g id="node37" class="node"><title>:_11</title>
<a xlink:href="http://www.w3.org/1999/02/22-rdf-syntax-ns#Bag" target="_blank" onmouseover="show_status('http://www.w3.org/1999/02/22-rdf-syntax-ns#Bag');">
<ellipse cx="499" cy="761" rx="28" ry="18" style="fill:#d2d2d2;stroke:#d2d2d2"/>
<text text-anchor="middle" x="499" y="765" style="font-family:arial">rdf:Bag</text>
</a></g>
<g id="edge36" class="edge"><title>:_10-&gt;:_11</title>
<a xlink:href="http://www2.elsevier.co.uk/~tony/1014/yads-schema-2002-04-03#collection" target="_blank" onmouseover="show_status('http://www2.elsevier.co.uk/~tony/1014/yads-schema-2002-04-03#collection');">
<path style="fill:none;stroke:#add9e6" d="M418,683C433,689 450,697 462,707 471,715 480,726 486,736"/>
<polygon style="fill:#add9e6;stroke:#add9e6" points="484,737 491,744 488,734 484,737"/>
<text text-anchor="middle" x="520" y="720" style="font-family:arial">has:collection</text>
</a></g>
<g id="node39" class="node"><title>:_12</title>
<ellipse cx="462" cy="872" rx="57" ry="18" style="fill:#eedb82;stroke:#eedb82"/>
<text text-anchor="middle" x="462" y="876" style="font-family:arial">metro:PrevStation</text>
</g>
<g id="edge38" class="edge"><title>:_11-&gt;:_12</title>
<a xlink:href="http://www.w3.org/1999/02/22-rdf-syntax-ns#_1" target="_blank" onmouseover="show_status('http://www.w3.org/1999/02/22-rdf-syntax-ns#_1');">
<path style="fill:none;stroke:#add9e6" d="M493,779C487,796 478,825 471,845"/>
<polygon style="fill:#add9e6;stroke:#add9e6" points="469,844 468,854 474,845 469,844"/>
<text text-anchor="middle" x="506" y="816" style="font-family:arial">rdf:_1</text>
</a></g>
<g id="node41" class="node"><title>:_15</title>
<ellipse cx="624" cy="872" rx="57" ry="18" style="fill:#eedb82;stroke:#eedb82"/>
<text text-anchor="middle" x="624" y="876" style="font-family:arial">metro:NextStation</text>
</g>
<g id="edge40" class="edge"><title>:_11-&gt;:_15</title>
<a xlink:href="http://www.w3.org/1999/02/22-rdf-syntax-ns#_2" target="_blank" onmouseover="show_status('http://www.w3.org/1999/02/22-rdf-syntax-ns#_2');">
<path style="fill:none;stroke:#add9e6" d="M516,776C537,794 572,826 597,848"/>
<polygon style="fill:#add9e6;stroke:#add9e6" points="596,850 605,855 599,847 596,850"/>
<text text-anchor="middle" x="588" y="816" style="font-family:arial">rdf:_2</text>
</a></g>
<g id="node44" class="node"><title>doi:1014/metro/long_beach</title>
<a xlink:href="http://dx.doi.org/1014/metro/long_beach" target="_blank" onmouseover="show_status('http://dx.doi.org/1014/metro/long_beach');">
<ellipse cx="389" cy="962" rx="80" ry="18" style="fill:#dca0dd;stroke:#dca0dd"/>
<text text-anchor="middle" x="389" y="966" style="font-family:arial">doi:1014/metro/long_beach</text>
</a></g>
<g id="edge43" class="edge"><title>:_12-&gt;doi:1014/metro/long_beach</title>
<a xlink:href="http://www2.elsevier.co.uk/~tony/1014/yads-schema-2002-04-03#resource" target="_blank" onmouseover="show_status('http://www2.elsevier.co.uk/~tony/1014/yads-schema-2002-04-03#resource');">
<path style="fill:none;stroke:#add9e6" d="M416,883C403,888 391,896 383,908 378,916 378,926 379,935"/>
<polygon style="fill:#add9e6;stroke:#add9e6" points="376,935 381,944 381,934 376,935"/>
<text text-anchor="middle" x="427" y="921" style="font-family:arial">has:resource</text>
</a></g>
<g id="node46" class="node"><title>:_13</title>
<a xlink:href="http://www.w3.org/1999/02/22-rdf-syntax-ns#Bag" target="_blank" onmouseover="show_status('http://www.w3.org/1999/02/22-rdf-syntax-ns#Bag');">
<ellipse cx="515" cy="962" rx="28" ry="18" style="fill:#d2d2d2;stroke:#d2d2d2"/>
<text text-anchor="middle" x="515" y="966" style="font-family:arial">rdf:Bag</text>
</a></g>
<g id="edge45" class="edge"><title>:_12-&gt;:_13</title>
<a xlink:href="http://www2.elsevier.co.uk/~tony/1014/yads-schema-2002-04-03#collection" target="_blank" onmouseover="show_status('http://www2.elsevier.co.uk/~tony/1014/yads-schema-2002-04-03#collection');">
<path style="fill:none;stroke:#add9e6" d="M463,890C465,901 468,915 474,926 477,932 483,938 488,943"/>
<polygon style="fill:#add9e6;stroke:#add9e6" points="486,944 495,949 489,941 486,944"/>
<text text-anchor="middle" x="515" y="921" style="font-family:arial">has:collection</text>
</a></g>
<g id="node54" class="node"><title>doi:1014/metro/i-605,i-105</title>
<a xlink:href="http://dx.doi.org/1014/metro/i-605,i-105" target="_blank" onmouseover="show_status('http://dx.doi.org/1014/metro/i-605,i-105');">
<ellipse cx="641" cy="962" rx="74" ry="18" style="fill:#dca0dd;stroke:#dca0dd"/>
<text text-anchor="middle" x="641" y="966" style="font-family:arial">doi:1014/metro/i-605,i-105</text>
</a></g>
<g id="edge53" class="edge"><title>:_15-&gt;doi:1014/metro/i-605,i-105</title>
<a xlink:href="http://www2.elsevier.co.uk/~tony/1014/yads-schema-2002-04-03#resource" target="_blank" onmouseover="show_status('http://www2.elsevier.co.uk/~tony/1014/yads-schema-2002-04-03#resource');">
<path style="fill:none;stroke:#add9e6" d="M622,890C621,901 620,914 623,926 624,929 625,932 626,935"/>
<polygon style="fill:#add9e6;stroke:#add9e6" points="624,936 630,944 628,934 624,936"/>
<text text-anchor="middle" x="664" y="921" style="font-family:arial">has:resource</text>
</a></g>
<g id="node56" class="node"><title>:_16</title>
<a xlink:href="http://www.w3.org/1999/02/22-rdf-syntax-ns#Bag" target="_blank" onmouseover="show_status('http://www.w3.org/1999/02/22-rdf-syntax-ns#Bag');">
<ellipse cx="761" cy="962" rx="28" ry="18" style="fill:#d2d2d2;stroke:#d2d2d2"/>
<text text-anchor="middle" x="761" y="966" style="font-family:arial">rdf:Bag</text>
</a></g>
<g id="edge55" class="edge"><title>:_15-&gt;:_16</title>
<a xlink:href="http://www2.elsevier.co.uk/~tony/1014/yads-schema-2002-04-03#collection" target="_blank" onmouseover="show_status('http://www2.elsevier.co.uk/~tony/1014/yads-schema-2002-04-03#collection');">
<path style="fill:none;stroke:#add9e6" d="M660,886C674,892 688,899 700,908 708,915 708,919 716,926 722,932 728,937 735,942"/>
<polygon style="fill:#add9e6;stroke:#add9e6" points="733,943 742,948 736,940 733,943"/>
<text text-anchor="middle" x="757" y="921" style="font-family:arial">has:collection</text>
</a></g>
<g id="node48" class="node"><title>:_14</title>
<ellipse cx="494" cy="1067" rx="38" ry="18" style="fill:#eedb82;stroke:#eedb82"/>
<text text-anchor="middle" x="494" y="1071" style="font-family:arial">metro:Mins</text>
</g>
<g id="edge47" class="edge"><title>:_13-&gt;:_14</title>
<a xlink:href="http://www.w3.org/1999/02/22-rdf-syntax-ns#_1" target="_blank" onmouseover="show_status('http://www.w3.org/1999/02/22-rdf-syntax-ns#_1');">
<path style="fill:none;stroke:#add9e6" d="M511,980C508,996 503,1021 499,1040"/>
<polygon style="fill:#add9e6;stroke:#add9e6" points="497,1039 498,1049 502,1039 497,1039"/>
<text text-anchor="middle" x="528" y="1011" style="font-family:arial">rdf:_1</text>
</a></g>
<g id="node51" class="node"><title>data:,0</title>
<a xlink:href="" onclick="show_data('0');" onmouseover="show_status('data:,0');">
<ellipse cx="494" cy="1163" rx="27" ry="18" style="fill:#dca0dd;stroke:#dca0dd"/>
<text text-anchor="middle" x="494" y="1167" style="font-family:arial">data:,0</text>
</a></g>
<g id="edge50" class="edge"><title>:_14-&gt;data:,0</title>
<a xlink:href="http://www2.elsevier.co.uk/~tony/1014/yads-schema-2002-04-03#resource" target="_blank" onmouseover="show_status('http://www2.elsevier.co.uk/~tony/1014/yads-schema-2002-04-03#resource');">
<path style="fill:none;stroke:#add9e6" d="M494,1085C494,1099 494,1120 494,1136"/>
<polygon style="fill:#add9e6;stroke:#add9e6" points="492,1135 494,1145 497,1135 492,1135"/>
<text text-anchor="middle" x="535" y="1122" style="font-family:arial">has:resource</text>
</a></g>
<g id="node58" class="node"><title>:_17</title>
<ellipse cx="647" cy="1067" rx="38" ry="18" style="fill:#eedb82;stroke:#eedb82"/>
<text text-anchor="middle" x="647" y="1071" style="font-family:arial">metro:Mins</text>
</g>
<g id="edge57" class="edge"><title>:_16-&gt;:_17</title>
<a xlink:href="http://www.w3.org/1999/02/22-rdf-syntax-ns#_1" target="_blank" onmouseover="show_status('http://www.w3.org/1999/02/22-rdf-syntax-ns#_1');">
<path style="fill:none;stroke:#add9e6" d="M745,977C725,995 693,1024 671,1045"/>
<polygon style="fill:#add9e6;stroke:#add9e6" points="670,1043 664,1051 673,1046 670,1043"/>
<text text-anchor="middle" x="740" y="1011" style="font-family:arial">rdf:_1</text>
</a></g>
<g id="edge60" class="edge"><title>:_17-&gt;data:,0</title>
<a xlink:href="http://www2.elsevier.co.uk/~tony/1014/yads-schema-2002-04-03#resource" target="_blank" onmouseover="show_status('http://www2.elsevier.co.uk/~tony/1014/yads-schema-2002-04-03#resource');">
<path style="fill:none;stroke:#add9e6" d="M632,1084C619,1097 599,1115 579,1127 563,1137 543,1146 526,1152"/>
<polygon style="fill:#add9e6;stroke:#add9e6" points="526,1149 518,1155 528,1154 526,1149"/>
<text text-anchor="middle" x="649" y="1122" style="font-family:arial">has:resource</text>
</a></g>
</g>
</svg>
