<?xml version="1.0" encoding="UTF-8" standalone="no"?>
<!DOCTYPE svg PUBLIC "-//W3C//DTD SVG 1.0//EN"
 "http://www.w3.org/TR/2001/REC-SVG-20010904/DTD/svg10.dtd" [
 <!ATTLIST svg xmlns:xlink CDATA #FIXED "http://www.w3.org/1999/xlink">
]>
<!-- Generated by dot version 1.8.5 (Tue Apr 23 17:19:23  2002)
     For user: (Administrator) ,S-1-5-21-1454471165-688789844-1708537768-500   Title: yads    Pages: 1 -->
<svg width="852px" height="1272px"
 xmlns="http://www.w3.org/2000/svg" xmlns:xlink="http://www.w3.org/1999/xlink">
<g id="graph0" class="graph" style="font-family:Times-Roman;font-size:11.00">
<title>yads</title>
<text text-anchor="middle" x="426" y="1261" style="font-family:arial;font-size:24.00">YADS - A Description Service</text>
<g id="graph2" class="cluster"><title>cluster_1</title>
<polygon style="fill:none;stroke:#d2d2d2;stroke-dasharray:5,2" points="19,1229 833,1229 833,43 19,43 19,1229"/>
<text text-anchor="middle" x="84" y="55" style="font-family:arial">Nest - Vernon Station</text>
</g>
<g id="graph3" class="cluster"><title>cluster_3</title>
<polygon style="fill:none;stroke:#d2d2d2;stroke-dasharray:5,2" points="27,1221 825,1221 825,238 27,238 27,1221"/>
<text text-anchor="middle" x="99" y="250" style="font-family:arial">Nest - Application Profile</text>
</g>
<g id="graph4" class="cluster"><title>cluster_5</title>
<polygon style="fill:none;stroke:#d2d2d2;stroke-dasharray:5,2" points="35,795 293,795 293,433 35,433 35,795"/>
<text text-anchor="middle" x="80" y="445" style="font-family:arial">Item - Location</text>
</g>
<g id="graph5" class="cluster"><title>cluster_7</title>
<polygon style="fill:none;stroke:#d2d2d2;stroke-dasharray:5,2" points="43,787 285,787 285,628 43,628 43,787"/>
<text text-anchor="middle" x="59" y="640" style="font-family:arial">Item</text>
</g>
<g id="graph6" class="cluster"><title>cluster_8</title>
<polygon style="fill:none;stroke:#d2d2d2;stroke-dasharray:5,2" points="301,1213 817,1213 817,433 301,433 301,1213"/>
<text text-anchor="middle" x="370" y="445" style="font-family:arial">Item - Line Interchanges</text>
</g>
<g id="graph7" class="cluster"><title>cluster_10</title>
<polygon style="fill:none;stroke:#d2d2d2;stroke-dasharray:5,2" points="309,1205 809,1205 809,628 309,628 309,1205"/>
<text text-anchor="middle" x="377" y="640" style="font-family:arial">Nest - Line Interchange</text>
</g>
<g id="graph8" class="cluster"><title>cluster_12</title>
<polygon style="fill:none;stroke:#d2d2d2;stroke-dasharray:5,2" points="317,1197 565,1197 565,829 317,829 317,1197"/>
<text text-anchor="middle" x="385" y="841" style="font-family:arial">Nest - Next Stop Back</text>
</g>
<g id="graph9" class="cluster"><title>cluster_14</title>
<polygon style="fill:none;stroke:#d2d2d2;stroke-dasharray:5,2" points="460,1189 557,1189 557,1024 460,1024 460,1189"/>
<text text-anchor="middle" x="476" y="1036" style="font-family:arial">Item</text>
</g>
<g id="graph10" class="cluster"><title>cluster_15</title>
<polygon style="fill:none;stroke:#d2d2d2;stroke-dasharray:5,2" points="573,1101 801,1101 801,829 573,829 573,1101"/>
<text text-anchor="middle" x="625" y="841" style="font-family:arial">Nest - Next Stop</text>
</g>
<g id="graph11" class="cluster"><title>cluster_17</title>
<polygon style="fill:none;stroke:#d2d2d2;stroke-dasharray:5,2" points="612,1093 704,1093 704,1024 612,1024 612,1093"/>
<text text-anchor="middle" x="628" y="1036" style="font-family:arial">Item</text>
</g>
<g id="node2" class="node"><title>:_1</title>
<ellipse cx="227" cy="86" rx="44" ry="18" style="fill:#eedb82;stroke:#eedb82"/>
<text text-anchor="middle" x="227" y="90" style="font-family:arial">metro:Station</text>
</g>
<g id="node4" class="node"><title>doi:1014/metro/vernon</title>
<a xlink:href="http://dx.doi.org/1014/metro/vernon" target="_blank" onmouseover="show_status('http://dx.doi.org/1014/metro/vernon');">
<ellipse cx="115" cy="176" rx="67" ry="18" style="fill:#dca0dd;stroke:#dca0dd"/>
<text text-anchor="middle" x="115" y="180" style="font-family:arial">doi:1014/metro/vernon</text>
</a></g>
<g id="edge3" class="edge"><title>:_1-&gt;doi:1014/metro/vernon</title>
<a xlink:href="http://www2.elsevier.co.uk/~tony/1014/yads-schema-2002-04-03#resource" target="_blank" onmouseover="show_status('http://www2.elsevier.co.uk/~tony/1014/yads-schema-2002-04-03#resource');">
<path style="fill:none;stroke:#add9e6" d="M189,96C173,101 155,110 142,122 134,130 128,140 124,149"/>
<polygon style="fill:#add9e6;stroke:#add9e6" points="122,148 121,158 127,149 122,148"/>
<text text-anchor="middle" x="188" y="135" style="font-family:arial">has:resource</text>
</a></g>
<g id="node6" class="node"><title>node_2</title>
<polygon style="fill:#6497ed;stroke:#6497ed" points="254,158 200,158 200,194 254,194 254,158"/>
<text text-anchor="middle" x="227" y="180" style="font-family:arial">Vernon</text>
</g>
<g id="edge5" class="edge"><title>:_1-&gt;node_2</title>
<a xlink:href="http://www2.elsevier.co.uk/~tony/1014/yads-schema-2002-04-03#label" target="_blank" onmouseover="show_status('http://www2.elsevier.co.uk/~tony/1014/yads-schema-2002-04-03#label');">
<path style="fill:none;stroke:#add9e6" d="M227,104C227,117 227,134 227,149"/>
<polygon style="fill:#add9e6;stroke:#add9e6" points="225,148 227,158 230,148 225,148"/>
<text text-anchor="middle" x="254" y="135" style="font-family:arial">has:label</text>
</a></g>
<g id="node8" class="node"><title>:_2</title>
<a xlink:href="http://www.w3.org/1999/02/22-rdf-syntax-ns#Bag" target="_blank" onmouseover="show_status('http://www.w3.org/1999/02/22-rdf-syntax-ns#Bag');">
<ellipse cx="300" cy="176" rx="28" ry="18" style="fill:#d2d2d2;stroke:#d2d2d2"/>
<text text-anchor="middle" x="300" y="180" style="font-family:arial">rdf:Bag</text>
</a></g>
<g id="edge7" class="edge"><title>:_1-&gt;:_2</title>
<a xlink:href="http://www2.elsevier.co.uk/~tony/1014/yads-schema-2002-04-03#collection" target="_blank" onmouseover="show_status('http://www2.elsevier.co.uk/~tony/1014/yads-schema-2002-04-03#collection');">
<path style="fill:none;stroke:#add9e6" d="M258,99C268,105 279,112 286,122 292,129 295,140 297,149"/>
<polygon style="fill:#add9e6;stroke:#add9e6" points="294,149 299,158 299,148 294,149"/>
<text text-anchor="middle" x="336" y="135" style="font-family:arial">has:collection</text>
</a></g>
<g id="node10" class="node"><title>:_3</title>
<ellipse cx="300" cy="281" rx="34" ry="18" style="fill:#eedb82;stroke:#eedb82"/>
<text text-anchor="middle" x="300" y="285" style="font-family:arial">doi:Profile</text>
</g>
<g id="edge9" class="edge"><title>:_2-&gt;:_3</title>
<a xlink:href="http://www.w3.org/1999/02/22-rdf-syntax-ns#_1" target="_blank" onmouseover="show_status('http://www.w3.org/1999/02/22-rdf-syntax-ns#_1');">
<path style="fill:none;stroke:#add9e6" d="M300,194C300,210 300,235 300,254"/>
<polygon style="fill:#add9e6;stroke:#add9e6" points="298,253 300,263 303,253 298,253"/>
<text text-anchor="middle" x="320" y="225" style="font-family:arial">rdf:_1</text>
</a></g>
<g id="node13" class="node"><title>doi:1014/profile.metro</title>
<a xlink:href="http://dx.doi.org/1014/profile.metro" target="_blank" onmouseover="show_status('http://dx.doi.org/1014/profile.metro');">
<ellipse cx="214" cy="371" rx="63" ry="18" style="fill:#dca0dd;stroke:#dca0dd"/>
<text text-anchor="middle" x="214" y="375" style="font-family:arial">doi:1014/profile.metro</text>
</a></g>
<g id="edge12" class="edge"><title>:_3-&gt;doi:1014/profile.metro</title>
<a xlink:href="http://www2.elsevier.co.uk/~tony/1014/yads-schema-2002-04-03#resource" target="_blank" onmouseover="show_status('http://www2.elsevier.co.uk/~tony/1014/yads-schema-2002-04-03#resource');">
<path style="fill:none;stroke:#add9e6" d="M269,289C254,295 237,304 226,317 220,324 217,335 215,344"/>
<polygon style="fill:#add9e6;stroke:#add9e6" points="213,343 214,353 218,343 213,343"/>
<text text-anchor="middle" x="270" y="330" style="font-family:arial">has:resource</text>
</a></g>
<g id="node15" class="node"><title>:_4</title>
<a xlink:href="http://www.w3.org/1999/02/22-rdf-syntax-ns#Bag" target="_blank" onmouseover="show_status('http://www.w3.org/1999/02/22-rdf-syntax-ns#Bag');">
<ellipse cx="323" cy="371" rx="28" ry="18" style="fill:#d2d2d2;stroke:#d2d2d2"/>
<text text-anchor="middle" x="323" y="375" style="font-family:arial">rdf:Bag</text>
</a></g>
<g id="edge14" class="edge"><title>:_3-&gt;:_4</title>
<a xlink:href="http://www2.elsevier.co.uk/~tony/1014/yads-schema-2002-04-03#collection" target="_blank" onmouseover="show_status('http://www2.elsevier.co.uk/~tony/1014/yads-schema-2002-04-03#collection');">
<path style="fill:none;stroke:#add9e6" d="M305,299C308,312 312,330 316,344"/>
<polygon style="fill:#add9e6;stroke:#add9e6" points="313,344 318,353 318,343 313,344"/>
<text text-anchor="middle" x="356" y="330" style="font-family:arial">has:collection</text>
</a></g>
<g id="node17" class="node"><title>:_5</title>
<a xlink:href="http://www2.elsevier.co.uk/~tony/1014/yads-schema-2002-04-03#Item" target="_blank" onmouseover="show_status('http://www2.elsevier.co.uk/~tony/1014/yads-schema-2002-04-03#Item');">
<ellipse cx="235" cy="476" rx="28" ry="18" style="fill:#d2d2d2;stroke:#d2d2d2"/>
<text text-anchor="middle" x="235" y="480" style="font-family:arial">isa:Item</text>
</a></g>
<g id="edge16" class="edge"><title>:_4-&gt;:_5</title>
<a xlink:href="http://www.w3.org/1999/02/22-rdf-syntax-ns#_1" target="_blank" onmouseover="show_status('http://www.w3.org/1999/02/22-rdf-syntax-ns#_1');">
<path style="fill:none;stroke:#add9e6" d="M310,387C295,404 271,433 254,453"/>
<polygon style="fill:#add9e6;stroke:#add9e6" points="253,450 249,460 257,453 253,450"/>
<text text-anchor="middle" x="315" y="420" style="font-family:arial">rdf:_1</text>
</a></g>
<g id="node19" class="node"><title>:_8</title>
<a xlink:href="http://www2.elsevier.co.uk/~tony/1014/yads-schema-2002-04-03#Item" target="_blank" onmouseover="show_status('http://www2.elsevier.co.uk/~tony/1014/yads-schema-2002-04-03#Item');">
<ellipse cx="362" cy="476" rx="28" ry="18" style="fill:#d2d2d2;stroke:#d2d2d2"/>
<text text-anchor="middle" x="362" y="480" style="font-family:arial">isa:Item</text>
</a></g>
<g id="edge18" class="edge"><title>:_4-&gt;:_8</title>
<a xlink:href="http://www.w3.org/1999/02/22-rdf-syntax-ns#_2" target="_blank" onmouseover="show_status('http://www.w3.org/1999/02/22-rdf-syntax-ns#_2');">
<path style="fill:none;stroke:#add9e6" d="M330,389C336,405 345,431 352,450"/>
<polygon style="fill:#add9e6;stroke:#add9e6" points="349,450 355,458 354,448 349,450"/>
<text text-anchor="middle" x="364" y="420" style="font-family:arial">rdf:_2</text>
</a></g>
<g id="node22" class="node"><title>:_6</title>
<a xlink:href="http://www.w3.org/1999/02/22-rdf-syntax-ns#Bag" target="_blank" onmouseover="show_status('http://www.w3.org/1999/02/22-rdf-syntax-ns#Bag');">
<ellipse cx="197" cy="566" rx="28" ry="18" style="fill:#d2d2d2;stroke:#d2d2d2"/>
<text text-anchor="middle" x="197" y="570" style="font-family:arial">rdf:Bag</text>
</a></g>
<g id="edge21" class="edge"><title>:_5-&gt;:_6</title>
<a xlink:href="http://www2.elsevier.co.uk/~tony/1014/yads-schema-2002-04-03#collection" target="_blank" onmouseover="show_status('http://www2.elsevier.co.uk/~tony/1014/yads-schema-2002-04-03#collection');">
<path style="fill:none;stroke:#add9e6" d="M226,493C223,499 219,506 216,512 212,521 209,530 206,539"/>
<polygon style="fill:#add9e6;stroke:#add9e6" points="204,538 203,548 209,539 204,538"/>
<text text-anchor="middle" x="260" y="525" style="font-family:arial">has:collection</text>
</a></g>
<g id="node30" class="node"><title>:_9</title>
<a xlink:href="http://www.w3.org/1999/02/22-rdf-syntax-ns#Bag" target="_blank" onmouseover="show_status('http://www.w3.org/1999/02/22-rdf-syntax-ns#Bag');">
<ellipse cx="381" cy="566" rx="28" ry="18" style="fill:#d2d2d2;stroke:#d2d2d2"/>
<text text-anchor="middle" x="381" y="570" style="font-family:arial">rdf:Bag</text>
</a></g>
<g id="edge29" class="edge"><title>:_8-&gt;:_9</title>
<a xlink:href="http://www2.elsevier.co.uk/~tony/1014/yads-schema-2002-04-03#collection" target="_blank" onmouseover="show_status('http://www2.elsevier.co.uk/~tony/1014/yads-schema-2002-04-03#collection');">
<path style="fill:none;stroke:#add9e6" d="M366,494C368,507 372,524 375,539"/>
<polygon style="fill:#add9e6;stroke:#add9e6" points="372,539 377,548 377,538 372,539"/>
<text text-anchor="middle" x="416" y="525" style="font-family:arial">has:collection</text>
</a></g>
<g id="node24" class="node"><title>:_7</title>
<ellipse cx="194" cy="671" rx="49" ry="18" style="fill:#eedb82;stroke:#eedb82"/>
<text text-anchor="middle" x="194" y="675" style="font-family:arial">metro:Address</text>
</g>
<g id="edge23" class="edge"><title>:_6-&gt;:_7</title>
<a xlink:href="http://www.w3.org/1999/02/22-rdf-syntax-ns#_1" target="_blank" onmouseover="show_status('http://www.w3.org/1999/02/22-rdf-syntax-ns#_1');">
<path style="fill:none;stroke:#add9e6" d="M196,584C196,600 195,625 195,644"/>
<polygon style="fill:#add9e6;stroke:#add9e6" points="193,643 195,653 198,643 193,643"/>
<text text-anchor="middle" x="217" y="615" style="font-family:arial">rdf:_1</text>
</a></g>
<g id="node27" class="node"><title>data:,4421%20Long%20Beach%20A...1</title>
<a xlink:href="" onclick="show_data('4421%20Long%20Beach%20Av.,%20Los%20Angeles%2090021');" onmouseover="show_status('data:,4421%20Long%20Beach%20Av.,%20Los%20Angeles%2090021');">
<ellipse cx="164" cy="761" rx="113" ry="18" style="fill:#dca0dd;stroke:#dca0dd"/>
<text text-anchor="middle" x="164" y="765" style="font-family:arial">data:,4421%20Long%20Beach%20A...1</text>
</a></g>
<g id="edge26" class="edge"><title>:_7-&gt;data:,4421%20Long%20Beach%20A...1</title>
<a xlink:href="http://www2.elsevier.co.uk/~tony/1014/yads-schema-2002-04-03#resource" target="_blank" onmouseover="show_status('http://www2.elsevier.co.uk/~tony/1014/yads-schema-2002-04-03#resource');">
<path style="fill:none;stroke:#add9e6" d="M188,689C184,702 178,719 173,734"/>
<polygon style="fill:#add9e6;stroke:#add9e6" points="171,733 170,743 176,734 171,733"/>
<text text-anchor="middle" x="224" y="720" style="font-family:arial">has:resource</text>
</a></g>
<g id="node32" class="node"><title>:_10</title>
<ellipse cx="388" cy="671" rx="57" ry="18" style="fill:#eedb82;stroke:#eedb82"/>
<text text-anchor="middle" x="388" y="675" style="font-family:arial">metro:LineChange</text>
</g>
<g id="edge31" class="edge"><title>:_9-&gt;:_10</title>
<a xlink:href="http://www.w3.org/1999/02/22-rdf-syntax-ns#_1" target="_blank" onmouseover="show_status('http://www.w3.org/1999/02/22-rdf-syntax-ns#_1');">
<path style="fill:none;stroke:#add9e6" d="M382,584C383,600 384,625 386,644"/>
<polygon style="fill:#add9e6;stroke:#add9e6" points="383,643 387,653 388,643 383,643"/>
<text text-anchor="middle" x="405" y="615" style="font-family:arial">rdf:_1</text>
</a></g>
<g id="node35" class="node"><title>doi:1014/metro/blue_line</title>
<a xlink:href="http://dx.doi.org/1014/metro/blue_line" target="_blank" onmouseover="show_status('http://dx.doi.org/1014/metro/blue_line');">
<ellipse cx="388" cy="761" rx="71" ry="18" style="fill:#dca0dd;stroke:#dca0dd"/>
<text text-anchor="middle" x="388" y="765" style="font-family:arial">doi:1014/metro/blue_line</text>
</a></g>
<g id="edge34" class="edge"><title>:_10-&gt;doi:1014/metro/blue_line</title>
<a xlink:href="http://www2.elsevier.co.uk/~tony/1014/yads-schema-2002-04-03#resource" target="_blank" onmouseover="show_status('http://www2.elsevier.co.uk/~tony/1014/yads-schema-2002-04-03#resource');">
<path style="fill:none;stroke:#add9e6" d="M388,689C388,702 388,719 388,734"/>
<polygon style="fill:#add9e6;stroke:#add9e6" points="386,733 388,743 391,733 386,733"/>
<text text-anchor="middle" x="429" y="720" style="font-family:arial">has:resource</text>
</a></g>
<g id="node37" class="node"><title>:_11</title>
<a xlink:href="http://www.w3.org/1999/02/22-rdf-syntax-ns#Bag" target="_blank" onmouseover="show_status('http://www.w3.org/1999/02/22-rdf-syntax-ns#Bag');">
<ellipse cx="505" cy="761" rx="28" ry="18" style="fill:#d2d2d2;stroke:#d2d2d2"/>
<text text-anchor="middle" x="505" y="765" style="font-family:arial">rdf:Bag</text>
</a></g>
<g id="edge36" class="edge"><title>:_10-&gt;:_11</title>
<a xlink:href="http://www2.elsevier.co.uk/~tony/1014/yads-schema-2002-04-03#collection" target="_blank" onmouseover="show_status('http://www2.elsevier.co.uk/~tony/1014/yads-schema-2002-04-03#collection');">
<path style="fill:none;stroke:#add9e6" d="M430,683C445,689 461,697 473,707 482,715 489,726 494,735"/>
<polygon style="fill:#add9e6;stroke:#add9e6" points="491,735 498,743 496,733 491,735"/>
<text text-anchor="middle" x="530" y="720" style="font-family:arial">has:collection</text>
</a></g>
<g id="node39" class="node"><title>:_12</title>
<ellipse cx="476" cy="872" rx="57" ry="18" style="fill:#eedb82;stroke:#eedb82"/>
<text text-anchor="middle" x="476" y="876" style="font-family:arial">metro:PrevStation</text>
</g>
<g id="edge38" class="edge"><title>:_11-&gt;:_12</title>
<a xlink:href="http://www.w3.org/1999/02/22-rdf-syntax-ns#_1" target="_blank" onmouseover="show_status('http://www.w3.org/1999/02/22-rdf-syntax-ns#_1');">
<path style="fill:none;stroke:#add9e6" d="M500,779C496,796 488,824 483,845"/>
<polygon style="fill:#add9e6;stroke:#add9e6" points="481,844 481,854 486,845 481,844"/>
<text text-anchor="middle" x="515" y="816" style="font-family:arial">rdf:_1</text>
</a></g>
<g id="node41" class="node"><title>:_15</title>
<ellipse cx="638" cy="872" rx="57" ry="18" style="fill:#eedb82;stroke:#eedb82"/>
<text text-anchor="middle" x="638" y="876" style="font-family:arial">metro:NextStation</text>
</g>
<g id="edge40" class="edge"><title>:_11-&gt;:_15</title>
<a xlink:href="http://www.w3.org/1999/02/22-rdf-syntax-ns#_2" target="_blank" onmouseover="show_status('http://www.w3.org/1999/02/22-rdf-syntax-ns#_2');">
<path style="fill:none;stroke:#add9e6" d="M522,775C544,794 585,828 612,850"/>
<polygon style="fill:#add9e6;stroke:#add9e6" points="608,850 617,855 612,846 608,850"/>
<text text-anchor="middle" x="598" y="816" style="font-family:arial">rdf:_2</text>
</a></g>
<g id="node44" class="node"><title>doi:1014/metro/washington</title>
<a xlink:href="http://dx.doi.org/1014/metro/washington" target="_blank" onmouseover="show_status('http://dx.doi.org/1014/metro/washington');">
<ellipse cx="404" cy="962" rx="79" ry="18" style="fill:#dca0dd;stroke:#dca0dd"/>
<text text-anchor="middle" x="404" y="966" style="font-family:arial">doi:1014/metro/washington</text>
</a></g>
<g id="edge43" class="edge"><title>:_12-&gt;doi:1014/metro/washington</title>
<a xlink:href="http://www2.elsevier.co.uk/~tony/1014/yads-schema-2002-04-03#resource" target="_blank" onmouseover="show_status('http://www2.elsevier.co.uk/~tony/1014/yads-schema-2002-04-03#resource');">
<path style="fill:none;stroke:#add9e6" d="M430,883C417,888 405,896 397,908 392,916 392,926 393,935"/>
<polygon style="fill:#add9e6;stroke:#add9e6" points="390,935 396,944 395,934 390,935"/>
<text text-anchor="middle" x="441" y="921" style="font-family:arial">has:resource</text>
</a></g>
<g id="node46" class="node"><title>:_13</title>
<a xlink:href="http://www.w3.org/1999/02/22-rdf-syntax-ns#Bag" target="_blank" onmouseover="show_status('http://www.w3.org/1999/02/22-rdf-syntax-ns#Bag');">
<ellipse cx="529" cy="962" rx="28" ry="18" style="fill:#d2d2d2;stroke:#d2d2d2"/>
<text text-anchor="middle" x="529" y="966" style="font-family:arial">rdf:Bag</text>
</a></g>
<g id="edge45" class="edge"><title>:_12-&gt;:_13</title>
<a xlink:href="http://www2.elsevier.co.uk/~tony/1014/yads-schema-2002-04-03#collection" target="_blank" onmouseover="show_status('http://www2.elsevier.co.uk/~tony/1014/yads-schema-2002-04-03#collection');">
<path style="fill:none;stroke:#add9e6" d="M477,890C479,901 482,915 488,926 491,932 497,938 502,943"/>
<polygon style="fill:#add9e6;stroke:#add9e6" points="500,944 509,949 503,941 500,944"/>
<text text-anchor="middle" x="529" y="921" style="font-family:arial">has:collection</text>
</a></g>
<g id="node54" class="node"><title>doi:1014/metro/slauson</title>
<a xlink:href="http://dx.doi.org/1014/metro/slauson" target="_blank" onmouseover="show_status('http://dx.doi.org/1014/metro/slauson');">
<ellipse cx="650" cy="962" rx="69" ry="18" style="fill:#dca0dd;stroke:#dca0dd"/>
<text text-anchor="middle" x="650" y="966" style="font-family:arial">doi:1014/metro/slauson</text>
</a></g>
<g id="edge53" class="edge"><title>:_15-&gt;doi:1014/metro/slauson</title>
<a xlink:href="http://www2.elsevier.co.uk/~tony/1014/yads-schema-2002-04-03#resource" target="_blank" onmouseover="show_status('http://www2.elsevier.co.uk/~tony/1014/yads-schema-2002-04-03#resource');">
<path style="fill:none;stroke:#add9e6" d="M630,890C627,901 624,914 627,926 628,930 629,933 631,936"/>
<polygon style="fill:#add9e6;stroke:#add9e6" points="629,937 636,944 633,934 629,937"/>
<text text-anchor="middle" x="669" y="921" style="font-family:arial">has:resource</text>
</a></g>
<g id="node56" class="node"><title>:_16</title>
<a xlink:href="http://www.w3.org/1999/02/22-rdf-syntax-ns#Bag" target="_blank" onmouseover="show_status('http://www.w3.org/1999/02/22-rdf-syntax-ns#Bag');">
<ellipse cx="765" cy="962" rx="28" ry="18" style="fill:#d2d2d2;stroke:#d2d2d2"/>
<text text-anchor="middle" x="765" y="966" style="font-family:arial">rdf:Bag</text>
</a></g>
<g id="edge55" class="edge"><title>:_15-&gt;:_16</title>
<a xlink:href="http://www2.elsevier.co.uk/~tony/1014/yads-schema-2002-04-03#collection" target="_blank" onmouseover="show_status('http://www2.elsevier.co.uk/~tony/1014/yads-schema-2002-04-03#collection');">
<path style="fill:none;stroke:#add9e6" d="M670,887C681,893 694,900 704,908 712,915 712,919 720,926 726,932 732,937 739,942"/>
<polygon style="fill:#add9e6;stroke:#add9e6" points="737,943 746,948 740,940 737,943"/>
<text text-anchor="middle" x="761" y="921" style="font-family:arial">has:collection</text>
</a></g>
<g id="node48" class="node"><title>:_14</title>
<ellipse cx="508" cy="1067" rx="38" ry="18" style="fill:#eedb82;stroke:#eedb82"/>
<text text-anchor="middle" x="508" y="1071" style="font-family:arial">metro:Mins</text>
</g>
<g id="edge47" class="edge"><title>:_13-&gt;:_14</title>
<a xlink:href="http://www.w3.org/1999/02/22-rdf-syntax-ns#_1" target="_blank" onmouseover="show_status('http://www.w3.org/1999/02/22-rdf-syntax-ns#_1');">
<path style="fill:none;stroke:#add9e6" d="M525,980C522,996 517,1021 513,1040"/>
<polygon style="fill:#add9e6;stroke:#add9e6" points="511,1039 512,1049 516,1039 511,1039"/>
<text text-anchor="middle" x="542" y="1011" style="font-family:arial">rdf:_1</text>
</a></g>
<g id="node51" class="node"><title>data:,0</title>
<a xlink:href="" onclick="show_data('0');" onmouseover="show_status('data:,0');">
<ellipse cx="508" cy="1163" rx="27" ry="18" style="fill:#dca0dd;stroke:#dca0dd"/>
<text text-anchor="middle" x="508" y="1167" style="font-family:arial">data:,0</text>
</a></g>
<g id="edge50" class="edge"><title>:_14-&gt;data:,0</title>
<a xlink:href="http://www2.elsevier.co.uk/~tony/1014/yads-schema-2002-04-03#resource" target="_blank" onmouseover="show_status('http://www2.elsevier.co.uk/~tony/1014/yads-schema-2002-04-03#resource');">
<path style="fill:none;stroke:#add9e6" d="M508,1085C508,1099 508,1120 508,1136"/>
<polygon style="fill:#add9e6;stroke:#add9e6" points="506,1135 508,1145 511,1135 506,1135"/>
<text text-anchor="middle" x="549" y="1122" style="font-family:arial">has:resource</text>
</a></g>
<g id="node58" class="node"><title>:_17</title>
<ellipse cx="658" cy="1067" rx="38" ry="18" style="fill:#eedb82;stroke:#eedb82"/>
<text text-anchor="middle" x="658" y="1071" style="font-family:arial">metro:Mins</text>
</g>
<g id="edge57" class="edge"><title>:_16-&gt;:_17</title>
<a xlink:href="http://www.w3.org/1999/02/22-rdf-syntax-ns#_1" target="_blank" onmouseover="show_status('http://www.w3.org/1999/02/22-rdf-syntax-ns#_1');">
<path style="fill:none;stroke:#add9e6" d="M749,977C731,995 702,1024 681,1044"/>
<polygon style="fill:#add9e6;stroke:#add9e6" points="680,1041 675,1050 684,1045 680,1041"/>
<text text-anchor="middle" x="746" y="1011" style="font-family:arial">rdf:_1</text>
</a></g>
<g id="edge60" class="edge"><title>:_17-&gt;data:,0</title>
<a xlink:href="http://www2.elsevier.co.uk/~tony/1014/yads-schema-2002-04-03#resource" target="_blank" onmouseover="show_status('http://www2.elsevier.co.uk/~tony/1014/yads-schema-2002-04-03#resource');">
<path style="fill:none;stroke:#add9e6" d="M643,1084C631,1097 613,1115 593,1127 577,1138 557,1146 541,1152"/>
<polygon style="fill:#add9e6;stroke:#add9e6" points="541,1149 533,1155 543,1154 541,1149"/>
<text text-anchor="middle" x="661" y="1122" style="font-family:arial">has:resource</text>
</a></g>
</g>
</svg>
