<?xml version="1.0" encoding="UTF-8" standalone="no"?>
<!DOCTYPE svg PUBLIC "-//W3C//DTD SVG 1.0//EN"
 "http://www.w3.org/TR/2001/REC-SVG-20010904/DTD/svg10.dtd" [
 <!ATTLIST svg xmlns:xlink CDATA #FIXED "http://www.w3.org/1999/xlink">
]>
<!-- Generated by dot version 1.8.5 (Tue Apr 23 17:19:23  2002)
     For user: (Administrator) ,S-1-5-21-1454471165-688789844-1708537768-500   Title: yads    Pages: 1 -->
<svg width="846px" height="1272px"
 xmlns="http://www.w3.org/2000/svg" xmlns:xlink="http://www.w3.org/1999/xlink">
<g id="graph0" class="graph" style="font-family:Times-Roman;font-size:11.00">
<title>yads</title>
<text text-anchor="middle" x="423" y="1261" style="font-family:arial;font-size:24.00">YADS - A Description Service</text>
<g id="graph2" class="cluster"><title>cluster_1</title>
<polygon style="fill:none;stroke:#d2d2d2;stroke-dasharray:5,2" points="19,1229 827,1229 827,43 19,43 19,1229"/>
<text text-anchor="middle" x="96" y="55" style="font-family:arial">Nest - Washington Station</text>
</g>
<g id="graph3" class="cluster"><title>cluster_3</title>
<polygon style="fill:none;stroke:#d2d2d2;stroke-dasharray:5,2" points="27,1221 819,1221 819,238 27,238 27,1221"/>
<text text-anchor="middle" x="99" y="250" style="font-family:arial">Nest - Application Profile</text>
</g>
<g id="graph4" class="cluster"><title>cluster_5</title>
<polygon style="fill:none;stroke:#d2d2d2;stroke-dasharray:5,2" points="35,795 293,795 293,433 35,433 35,795"/>
<text text-anchor="middle" x="80" y="445" style="font-family:arial">Item - Location</text>
</g>
<g id="graph5" class="cluster"><title>cluster_7</title>
<polygon style="fill:none;stroke:#d2d2d2;stroke-dasharray:5,2" points="43,787 285,787 285,628 43,628 43,787"/>
<text text-anchor="middle" x="59" y="640" style="font-family:arial">Item</text>
</g>
<g id="graph6" class="cluster"><title>cluster_8</title>
<polygon style="fill:none;stroke:#d2d2d2;stroke-dasharray:5,2" points="301,1213 811,1213 811,433 301,433 301,1213"/>
<text text-anchor="middle" x="370" y="445" style="font-family:arial">Item - Line Interchanges</text>
</g>
<g id="graph7" class="cluster"><title>cluster_10</title>
<polygon style="fill:none;stroke:#d2d2d2;stroke-dasharray:5,2" points="309,1205 803,1205 803,628 309,628 309,1205"/>
<text text-anchor="middle" x="377" y="640" style="font-family:arial">Nest - Line Interchange</text>
</g>
<g id="graph8" class="cluster"><title>cluster_12</title>
<polygon style="fill:none;stroke:#d2d2d2;stroke-dasharray:5,2" points="317,1197 563,1197 563,829 317,829 317,1197"/>
<text text-anchor="middle" x="385" y="841" style="font-family:arial">Nest - Next Stop Back</text>
</g>
<g id="graph9" class="cluster"><title>cluster_14</title>
<polygon style="fill:none;stroke:#d2d2d2;stroke-dasharray:5,2" points="458,1189 555,1189 555,1024 458,1024 458,1189"/>
<text text-anchor="middle" x="474" y="1036" style="font-family:arial">Item</text>
</g>
<g id="graph10" class="cluster"><title>cluster_15</title>
<polygon style="fill:none;stroke:#d2d2d2;stroke-dasharray:5,2" points="571,1101 795,1101 795,829 571,829 571,1101"/>
<text text-anchor="middle" x="623" y="841" style="font-family:arial">Nest - Next Stop</text>
</g>
<g id="graph11" class="cluster"><title>cluster_17</title>
<polygon style="fill:none;stroke:#d2d2d2;stroke-dasharray:5,2" points="609,1093 701,1093 701,1024 609,1024 609,1093"/>
<text text-anchor="middle" x="625" y="1036" style="font-family:arial">Item</text>
</g>
<g id="node2" class="node"><title>:_1</title>
<ellipse cx="244" cy="86" rx="44" ry="18" style="fill:#eedb82;stroke:#eedb82"/>
<text text-anchor="middle" x="244" y="90" style="font-family:arial">metro:Station</text>
</g>
<g id="node4" class="node"><title>doi:1014/metro/washington</title>
<a xlink:href="http://dx.doi.org/1014/metro/washington" target="_blank" onmouseover="show_status('http://dx.doi.org/1014/metro/washington');">
<ellipse cx="110" cy="176" rx="79" ry="18" style="fill:#dca0dd;stroke:#dca0dd"/>
<text text-anchor="middle" x="110" y="180" style="font-family:arial">doi:1014/metro/washington</text>
</a></g>
<g id="edge3" class="edge"><title>:_1-&gt;doi:1014/metro/washington</title>
<a xlink:href="http://www2.elsevier.co.uk/~tony/1014/yads-schema-2002-04-03#resource" target="_blank" onmouseover="show_status('http://www2.elsevier.co.uk/~tony/1014/yads-schema-2002-04-03#resource');">
<path style="fill:none;stroke:#add9e6" d="M209,97C193,103 174,112 159,122 148,130 137,141 129,151"/>
<polygon style="fill:#add9e6;stroke:#add9e6" points="128,149 123,158 131,152 128,149"/>
<text text-anchor="middle" x="206" y="135" style="font-family:arial">has:resource</text>
</a></g>
<g id="node6" class="node"><title>node_2</title>
<polygon style="fill:#6497ed;stroke:#6497ed" points="281,158 207,158 207,194 281,194 281,158"/>
<text text-anchor="middle" x="244" y="180" style="font-family:arial">Washington</text>
</g>
<g id="edge5" class="edge"><title>:_1-&gt;node_2</title>
<a xlink:href="http://www2.elsevier.co.uk/~tony/1014/yads-schema-2002-04-03#label" target="_blank" onmouseover="show_status('http://www2.elsevier.co.uk/~tony/1014/yads-schema-2002-04-03#label');">
<path style="fill:none;stroke:#add9e6" d="M244,104C244,117 244,134 244,149"/>
<polygon style="fill:#add9e6;stroke:#add9e6" points="242,148 244,158 247,148 242,148"/>
<text text-anchor="middle" x="271" y="135" style="font-family:arial">has:label</text>
</a></g>
<g id="node8" class="node"><title>:_2</title>
<a xlink:href="http://www.w3.org/1999/02/22-rdf-syntax-ns#Bag" target="_blank" onmouseover="show_status('http://www.w3.org/1999/02/22-rdf-syntax-ns#Bag');">
<ellipse cx="327" cy="176" rx="28" ry="18" style="fill:#d2d2d2;stroke:#d2d2d2"/>
<text text-anchor="middle" x="327" y="180" style="font-family:arial">rdf:Bag</text>
</a></g>
<g id="edge7" class="edge"><title>:_1-&gt;:_2</title>
<a xlink:href="http://www2.elsevier.co.uk/~tony/1014/yads-schema-2002-04-03#collection" target="_blank" onmouseover="show_status('http://www2.elsevier.co.uk/~tony/1014/yads-schema-2002-04-03#collection');">
<path style="fill:none;stroke:#add9e6" d="M274,99C284,105 295,113 303,122 310,130 316,140 319,149"/>
<polygon style="fill:#add9e6;stroke:#add9e6" points="316,149 322,158 321,148 316,149"/>
<text text-anchor="middle" x="356" y="135" style="font-family:arial">has:collection</text>
</a></g>
<g id="node10" class="node"><title>:_3</title>
<ellipse cx="327" cy="281" rx="34" ry="18" style="fill:#eedb82;stroke:#eedb82"/>
<text text-anchor="middle" x="327" y="285" style="font-family:arial">doi:Profile</text>
</g>
<g id="edge9" class="edge"><title>:_2-&gt;:_3</title>
<a xlink:href="http://www.w3.org/1999/02/22-rdf-syntax-ns#_1" target="_blank" onmouseover="show_status('http://www.w3.org/1999/02/22-rdf-syntax-ns#_1');">
<path style="fill:none;stroke:#add9e6" d="M327,194C327,210 327,235 327,254"/>
<polygon style="fill:#add9e6;stroke:#add9e6" points="325,253 327,263 330,253 325,253"/>
<text text-anchor="middle" x="347" y="225" style="font-family:arial">rdf:_1</text>
</a></g>
<g id="node13" class="node"><title>doi:1014/profile.metro</title>
<a xlink:href="http://dx.doi.org/1014/profile.metro" target="_blank" onmouseover="show_status('http://dx.doi.org/1014/profile.metro');">
<ellipse cx="242" cy="371" rx="63" ry="18" style="fill:#dca0dd;stroke:#dca0dd"/>
<text text-anchor="middle" x="242" y="375" style="font-family:arial">doi:1014/profile.metro</text>
</a></g>
<g id="edge12" class="edge"><title>:_3-&gt;doi:1014/profile.metro</title>
<a xlink:href="http://www2.elsevier.co.uk/~tony/1014/yads-schema-2002-04-03#resource" target="_blank" onmouseover="show_status('http://www2.elsevier.co.uk/~tony/1014/yads-schema-2002-04-03#resource');">
<path style="fill:none;stroke:#add9e6" d="M296,289C281,295 264,304 253,317 247,324 244,335 243,344"/>
<polygon style="fill:#add9e6;stroke:#add9e6" points="241,343 242,353 246,343 241,343"/>
<text text-anchor="middle" x="297" y="330" style="font-family:arial">has:resource</text>
</a></g>
<g id="node15" class="node"><title>:_4</title>
<a xlink:href="http://www.w3.org/1999/02/22-rdf-syntax-ns#Bag" target="_blank" onmouseover="show_status('http://www.w3.org/1999/02/22-rdf-syntax-ns#Bag');">
<ellipse cx="351" cy="371" rx="28" ry="18" style="fill:#d2d2d2;stroke:#d2d2d2"/>
<text text-anchor="middle" x="351" y="375" style="font-family:arial">rdf:Bag</text>
</a></g>
<g id="edge14" class="edge"><title>:_3-&gt;:_4</title>
<a xlink:href="http://www2.elsevier.co.uk/~tony/1014/yads-schema-2002-04-03#collection" target="_blank" onmouseover="show_status('http://www2.elsevier.co.uk/~tony/1014/yads-schema-2002-04-03#collection');">
<path style="fill:none;stroke:#add9e6" d="M332,299C335,312 340,330 344,344"/>
<polygon style="fill:#add9e6;stroke:#add9e6" points="341,344 346,353 346,343 341,344"/>
<text text-anchor="middle" x="383" y="330" style="font-family:arial">has:collection</text>
</a></g>
<g id="node17" class="node"><title>:_5</title>
<a xlink:href="http://www2.elsevier.co.uk/~tony/1014/yads-schema-2002-04-03#Item" target="_blank" onmouseover="show_status('http://www2.elsevier.co.uk/~tony/1014/yads-schema-2002-04-03#Item');">
<ellipse cx="211" cy="476" rx="28" ry="18" style="fill:#d2d2d2;stroke:#d2d2d2"/>
<text text-anchor="middle" x="211" y="480" style="font-family:arial">isa:Item</text>
</a></g>
<g id="edge16" class="edge"><title>:_4-&gt;:_5</title>
<a xlink:href="http://www.w3.org/1999/02/22-rdf-syntax-ns#_1" target="_blank" onmouseover="show_status('http://www.w3.org/1999/02/22-rdf-syntax-ns#_1');">
<path style="fill:none;stroke:#add9e6" d="M333,385C308,404 263,437 235,458"/>
<polygon style="fill:#add9e6;stroke:#add9e6" points="236,454 229,462 239,459 236,454"/>
<text text-anchor="middle" x="326" y="420" style="font-family:arial">rdf:_1</text>
</a></g>
<g id="node19" class="node"><title>:_8</title>
<a xlink:href="http://www2.elsevier.co.uk/~tony/1014/yads-schema-2002-04-03#Item" target="_blank" onmouseover="show_status('http://www2.elsevier.co.uk/~tony/1014/yads-schema-2002-04-03#Item');">
<ellipse cx="362" cy="476" rx="28" ry="18" style="fill:#d2d2d2;stroke:#d2d2d2"/>
<text text-anchor="middle" x="362" y="480" style="font-family:arial">isa:Item</text>
</a></g>
<g id="edge18" class="edge"><title>:_4-&gt;:_8</title>
<a xlink:href="http://www.w3.org/1999/02/22-rdf-syntax-ns#_2" target="_blank" onmouseover="show_status('http://www.w3.org/1999/02/22-rdf-syntax-ns#_2');">
<path style="fill:none;stroke:#add9e6" d="M353,389C355,405 357,430 359,449"/>
<polygon style="fill:#add9e6;stroke:#add9e6" points="356,448 360,458 361,448 356,448"/>
<text text-anchor="middle" x="378" y="420" style="font-family:arial">rdf:_2</text>
</a></g>
<g id="node22" class="node"><title>:_6</title>
<a xlink:href="http://www.w3.org/1999/02/22-rdf-syntax-ns#Bag" target="_blank" onmouseover="show_status('http://www.w3.org/1999/02/22-rdf-syntax-ns#Bag');">
<ellipse cx="197" cy="566" rx="28" ry="18" style="fill:#d2d2d2;stroke:#d2d2d2"/>
<text text-anchor="middle" x="197" y="570" style="font-family:arial">rdf:Bag</text>
</a></g>
<g id="edge21" class="edge"><title>:_5-&gt;:_6</title>
<a xlink:href="http://www2.elsevier.co.uk/~tony/1014/yads-schema-2002-04-03#collection" target="_blank" onmouseover="show_status('http://www2.elsevier.co.uk/~tony/1014/yads-schema-2002-04-03#collection');">
<path style="fill:none;stroke:#add9e6" d="M208,494C206,507 203,524 201,539"/>
<polygon style="fill:#add9e6;stroke:#add9e6" points="199,538 200,548 204,538 199,538"/>
<text text-anchor="middle" x="247" y="525" style="font-family:arial">has:collection</text>
</a></g>
<g id="node30" class="node"><title>:_9</title>
<a xlink:href="http://www.w3.org/1999/02/22-rdf-syntax-ns#Bag" target="_blank" onmouseover="show_status('http://www.w3.org/1999/02/22-rdf-syntax-ns#Bag');">
<ellipse cx="381" cy="566" rx="28" ry="18" style="fill:#d2d2d2;stroke:#d2d2d2"/>
<text text-anchor="middle" x="381" y="570" style="font-family:arial">rdf:Bag</text>
</a></g>
<g id="edge29" class="edge"><title>:_8-&gt;:_9</title>
<a xlink:href="http://www2.elsevier.co.uk/~tony/1014/yads-schema-2002-04-03#collection" target="_blank" onmouseover="show_status('http://www2.elsevier.co.uk/~tony/1014/yads-schema-2002-04-03#collection');">
<path style="fill:none;stroke:#add9e6" d="M366,494C368,507 372,524 375,539"/>
<polygon style="fill:#add9e6;stroke:#add9e6" points="372,539 377,548 377,538 372,539"/>
<text text-anchor="middle" x="416" y="525" style="font-family:arial">has:collection</text>
</a></g>
<g id="node24" class="node"><title>:_7</title>
<ellipse cx="194" cy="671" rx="49" ry="18" style="fill:#eedb82;stroke:#eedb82"/>
<text text-anchor="middle" x="194" y="675" style="font-family:arial">metro:Address</text>
</g>
<g id="edge23" class="edge"><title>:_6-&gt;:_7</title>
<a xlink:href="http://www.w3.org/1999/02/22-rdf-syntax-ns#_1" target="_blank" onmouseover="show_status('http://www.w3.org/1999/02/22-rdf-syntax-ns#_1');">
<path style="fill:none;stroke:#add9e6" d="M196,584C196,600 195,625 195,644"/>
<polygon style="fill:#add9e6;stroke:#add9e6" points="193,643 195,653 198,643 193,643"/>
<text text-anchor="middle" x="217" y="615" style="font-family:arial">rdf:_1</text>
</a></g>
<g id="node27" class="node"><title>data:,1945%20Long%20Beach%20A...1</title>
<a xlink:href="" onclick="show_data('1945%20Long%20Beach%20Av.,%20Los%20Angeles%2090021');" onmouseover="show_status('data:,1945%20Long%20Beach%20Av.,%20Los%20Angeles%2090021');">
<ellipse cx="164" cy="761" rx="113" ry="18" style="fill:#dca0dd;stroke:#dca0dd"/>
<text text-anchor="middle" x="164" y="765" style="font-family:arial">data:,1945%20Long%20Beach%20A...1</text>
</a></g>
<g id="edge26" class="edge"><title>:_7-&gt;data:,1945%20Long%20Beach%20A...1</title>
<a xlink:href="http://www2.elsevier.co.uk/~tony/1014/yads-schema-2002-04-03#resource" target="_blank" onmouseover="show_status('http://www2.elsevier.co.uk/~tony/1014/yads-schema-2002-04-03#resource');">
<path style="fill:none;stroke:#add9e6" d="M188,689C184,702 178,719 173,734"/>
<polygon style="fill:#add9e6;stroke:#add9e6" points="171,733 170,743 176,734 171,733"/>
<text text-anchor="middle" x="224" y="720" style="font-family:arial">has:resource</text>
</a></g>
<g id="node32" class="node"><title>:_10</title>
<ellipse cx="388" cy="671" rx="57" ry="18" style="fill:#eedb82;stroke:#eedb82"/>
<text text-anchor="middle" x="388" y="675" style="font-family:arial">metro:LineChange</text>
</g>
<g id="edge31" class="edge"><title>:_9-&gt;:_10</title>
<a xlink:href="http://www.w3.org/1999/02/22-rdf-syntax-ns#_1" target="_blank" onmouseover="show_status('http://www.w3.org/1999/02/22-rdf-syntax-ns#_1');">
<path style="fill:none;stroke:#add9e6" d="M382,584C383,600 384,625 386,644"/>
<polygon style="fill:#add9e6;stroke:#add9e6" points="383,643 387,653 388,643 383,643"/>
<text text-anchor="middle" x="405" y="615" style="font-family:arial">rdf:_1</text>
</a></g>
<g id="node35" class="node"><title>doi:1014/metro/blue_line</title>
<a xlink:href="http://dx.doi.org/1014/metro/blue_line" target="_blank" onmouseover="show_status('http://dx.doi.org/1014/metro/blue_line');">
<ellipse cx="388" cy="761" rx="71" ry="18" style="fill:#dca0dd;stroke:#dca0dd"/>
<text text-anchor="middle" x="388" y="765" style="font-family:arial">doi:1014/metro/blue_line</text>
</a></g>
<g id="edge34" class="edge"><title>:_10-&gt;doi:1014/metro/blue_line</title>
<a xlink:href="http://www2.elsevier.co.uk/~tony/1014/yads-schema-2002-04-03#resource" target="_blank" onmouseover="show_status('http://www2.elsevier.co.uk/~tony/1014/yads-schema-2002-04-03#resource');">
<path style="fill:none;stroke:#add9e6" d="M388,689C388,702 388,719 388,734"/>
<polygon style="fill:#add9e6;stroke:#add9e6" points="386,733 388,743 391,733 386,733"/>
<text text-anchor="middle" x="429" y="720" style="font-family:arial">has:resource</text>
</a></g>
<g id="node37" class="node"><title>:_11</title>
<a xlink:href="http://www.w3.org/1999/02/22-rdf-syntax-ns#Bag" target="_blank" onmouseover="show_status('http://www.w3.org/1999/02/22-rdf-syntax-ns#Bag');">
<ellipse cx="505" cy="761" rx="28" ry="18" style="fill:#d2d2d2;stroke:#d2d2d2"/>
<text text-anchor="middle" x="505" y="765" style="font-family:arial">rdf:Bag</text>
</a></g>
<g id="edge36" class="edge"><title>:_10-&gt;:_11</title>
<a xlink:href="http://www2.elsevier.co.uk/~tony/1014/yads-schema-2002-04-03#collection" target="_blank" onmouseover="show_status('http://www2.elsevier.co.uk/~tony/1014/yads-schema-2002-04-03#collection');">
<path style="fill:none;stroke:#add9e6" d="M430,683C445,689 461,697 473,707 482,715 489,726 494,735"/>
<polygon style="fill:#add9e6;stroke:#add9e6" points="491,735 498,743 496,733 491,735"/>
<text text-anchor="middle" x="530" y="720" style="font-family:arial">has:collection</text>
</a></g>
<g id="node39" class="node"><title>:_12</title>
<ellipse cx="474" cy="872" rx="57" ry="18" style="fill:#eedb82;stroke:#eedb82"/>
<text text-anchor="middle" x="474" y="876" style="font-family:arial">metro:PrevStation</text>
</g>
<g id="edge38" class="edge"><title>:_11-&gt;:_12</title>
<a xlink:href="http://www.w3.org/1999/02/22-rdf-syntax-ns#_1" target="_blank" onmouseover="show_status('http://www.w3.org/1999/02/22-rdf-syntax-ns#_1');">
<path style="fill:none;stroke:#add9e6" d="M500,779C495,796 487,825 481,845"/>
<polygon style="fill:#add9e6;stroke:#add9e6" points="479,844 479,854 484,845 479,844"/>
<text text-anchor="middle" x="514" y="816" style="font-family:arial">rdf:_1</text>
</a></g>
<g id="node41" class="node"><title>:_15</title>
<ellipse cx="636" cy="872" rx="57" ry="18" style="fill:#eedb82;stroke:#eedb82"/>
<text text-anchor="middle" x="636" y="876" style="font-family:arial">metro:NextStation</text>
</g>
<g id="edge40" class="edge"><title>:_11-&gt;:_15</title>
<a xlink:href="http://www.w3.org/1999/02/22-rdf-syntax-ns#_2" target="_blank" onmouseover="show_status('http://www.w3.org/1999/02/22-rdf-syntax-ns#_2');">
<path style="fill:none;stroke:#add9e6" d="M522,776C544,795 584,828 611,850"/>
<polygon style="fill:#add9e6;stroke:#add9e6" points="607,850 616,855 611,846 607,850"/>
<text text-anchor="middle" x="597" y="816" style="font-family:arial">rdf:_2</text>
</a></g>
<g id="node44" class="node"><title>doi:1014/metro/san_pedro</title>
<a xlink:href="http://dx.doi.org/1014/metro/san_pedro" target="_blank" onmouseover="show_status('http://dx.doi.org/1014/metro/san_pedro');">
<ellipse cx="403" cy="962" rx="78" ry="18" style="fill:#dca0dd;stroke:#dca0dd"/>
<text text-anchor="middle" x="403" y="966" style="font-family:arial">doi:1014/metro/san_pedro</text>
</a></g>
<g id="edge43" class="edge"><title>:_12-&gt;doi:1014/metro/san_pedro</title>
<a xlink:href="http://www2.elsevier.co.uk/~tony/1014/yads-schema-2002-04-03#resource" target="_blank" onmouseover="show_status('http://www2.elsevier.co.uk/~tony/1014/yads-schema-2002-04-03#resource');">
<path style="fill:none;stroke:#add9e6" d="M428,883C415,888 403,896 395,908 390,916 390,926 392,935"/>
<polygon style="fill:#add9e6;stroke:#add9e6" points="389,935 394,944 394,934 389,935"/>
<text text-anchor="middle" x="439" y="921" style="font-family:arial">has:resource</text>
</a></g>
<g id="node46" class="node"><title>:_13</title>
<a xlink:href="http://www.w3.org/1999/02/22-rdf-syntax-ns#Bag" target="_blank" onmouseover="show_status('http://www.w3.org/1999/02/22-rdf-syntax-ns#Bag');">
<ellipse cx="527" cy="962" rx="28" ry="18" style="fill:#d2d2d2;stroke:#d2d2d2"/>
<text text-anchor="middle" x="527" y="966" style="font-family:arial">rdf:Bag</text>
</a></g>
<g id="edge45" class="edge"><title>:_12-&gt;:_13</title>
<a xlink:href="http://www2.elsevier.co.uk/~tony/1014/yads-schema-2002-04-03#collection" target="_blank" onmouseover="show_status('http://www2.elsevier.co.uk/~tony/1014/yads-schema-2002-04-03#collection');">
<path style="fill:none;stroke:#add9e6" d="M475,890C477,901 480,915 486,926 489,932 495,938 500,943"/>
<polygon style="fill:#add9e6;stroke:#add9e6" points="498,944 507,949 501,941 498,944"/>
<text text-anchor="middle" x="527" y="921" style="font-family:arial">has:collection</text>
</a></g>
<g id="node54" class="node"><title>doi:1014/metro/vernon</title>
<a xlink:href="http://dx.doi.org/1014/metro/vernon" target="_blank" onmouseover="show_status('http://dx.doi.org/1014/metro/vernon');">
<ellipse cx="646" cy="962" rx="67" ry="18" style="fill:#dca0dd;stroke:#dca0dd"/>
<text text-anchor="middle" x="646" y="966" style="font-family:arial">doi:1014/metro/vernon</text>
</a></g>
<g id="edge53" class="edge"><title>:_15-&gt;doi:1014/metro/vernon</title>
<a xlink:href="http://www2.elsevier.co.uk/~tony/1014/yads-schema-2002-04-03#resource" target="_blank" onmouseover="show_status('http://www2.elsevier.co.uk/~tony/1014/yads-schema-2002-04-03#resource');">
<path style="fill:none;stroke:#add9e6" d="M626,890C621,901 617,914 621,926 622,930 624,933 625,936"/>
<polygon style="fill:#add9e6;stroke:#add9e6" points="623,937 630,944 627,934 623,937"/>
<text text-anchor="middle" x="663" y="921" style="font-family:arial">has:resource</text>
</a></g>
<g id="node56" class="node"><title>:_16</title>
<a xlink:href="http://www.w3.org/1999/02/22-rdf-syntax-ns#Bag" target="_blank" onmouseover="show_status('http://www.w3.org/1999/02/22-rdf-syntax-ns#Bag');">
<ellipse cx="759" cy="962" rx="28" ry="18" style="fill:#d2d2d2;stroke:#d2d2d2"/>
<text text-anchor="middle" x="759" y="966" style="font-family:arial">rdf:Bag</text>
</a></g>
<g id="edge55" class="edge"><title>:_15-&gt;:_16</title>
<a xlink:href="http://www2.elsevier.co.uk/~tony/1014/yads-schema-2002-04-03#collection" target="_blank" onmouseover="show_status('http://www2.elsevier.co.uk/~tony/1014/yads-schema-2002-04-03#collection');">
<path style="fill:none;stroke:#add9e6" d="M667,887C677,893 689,900 698,908 706,915 706,919 714,926 720,932 726,937 733,942"/>
<polygon style="fill:#add9e6;stroke:#add9e6" points="731,943 740,948 734,940 731,943"/>
<text text-anchor="middle" x="755" y="921" style="font-family:arial">has:collection</text>
</a></g>
<g id="node48" class="node"><title>:_14</title>
<ellipse cx="506" cy="1067" rx="38" ry="18" style="fill:#eedb82;stroke:#eedb82"/>
<text text-anchor="middle" x="506" y="1071" style="font-family:arial">metro:Mins</text>
</g>
<g id="edge47" class="edge"><title>:_13-&gt;:_14</title>
<a xlink:href="http://www.w3.org/1999/02/22-rdf-syntax-ns#_1" target="_blank" onmouseover="show_status('http://www.w3.org/1999/02/22-rdf-syntax-ns#_1');">
<path style="fill:none;stroke:#add9e6" d="M523,980C520,996 515,1021 511,1040"/>
<polygon style="fill:#add9e6;stroke:#add9e6" points="509,1039 510,1049 514,1039 509,1039"/>
<text text-anchor="middle" x="540" y="1011" style="font-family:arial">rdf:_1</text>
</a></g>
<g id="node51" class="node"><title>data:,0</title>
<a xlink:href="" onclick="show_data('0');" onmouseover="show_status('data:,0');">
<ellipse cx="506" cy="1163" rx="27" ry="18" style="fill:#dca0dd;stroke:#dca0dd"/>
<text text-anchor="middle" x="506" y="1167" style="font-family:arial">data:,0</text>
</a></g>
<g id="edge50" class="edge"><title>:_14-&gt;data:,0</title>
<a xlink:href="http://www2.elsevier.co.uk/~tony/1014/yads-schema-2002-04-03#resource" target="_blank" onmouseover="show_status('http://www2.elsevier.co.uk/~tony/1014/yads-schema-2002-04-03#resource');">
<path style="fill:none;stroke:#add9e6" d="M506,1085C506,1099 506,1120 506,1136"/>
<polygon style="fill:#add9e6;stroke:#add9e6" points="504,1135 506,1145 509,1135 504,1135"/>
<text text-anchor="middle" x="547" y="1122" style="font-family:arial">has:resource</text>
</a></g>
<g id="node58" class="node"><title>:_17</title>
<ellipse cx="655" cy="1067" rx="38" ry="18" style="fill:#eedb82;stroke:#eedb82"/>
<text text-anchor="middle" x="655" y="1071" style="font-family:arial">metro:Mins</text>
</g>
<g id="edge57" class="edge"><title>:_16-&gt;:_17</title>
<a xlink:href="http://www.w3.org/1999/02/22-rdf-syntax-ns#_1" target="_blank" onmouseover="show_status('http://www.w3.org/1999/02/22-rdf-syntax-ns#_1');">
<path style="fill:none;stroke:#add9e6" d="M744,977C727,995 698,1024 678,1044"/>
<polygon style="fill:#add9e6;stroke:#add9e6" points="677,1041 672,1050 681,1045 677,1041"/>
<text text-anchor="middle" x="742" y="1011" style="font-family:arial">rdf:_1</text>
</a></g>
<g id="edge60" class="edge"><title>:_17-&gt;data:,0</title>
<a xlink:href="http://www2.elsevier.co.uk/~tony/1014/yads-schema-2002-04-03#resource" target="_blank" onmouseover="show_status('http://www2.elsevier.co.uk/~tony/1014/yads-schema-2002-04-03#resource');">
<path style="fill:none;stroke:#add9e6" d="M640,1084C628,1097 610,1115 591,1127 575,1138 555,1146 539,1152"/>
<polygon style="fill:#add9e6;stroke:#add9e6" points="539,1149 531,1155 541,1154 539,1149"/>
<text text-anchor="middle" x="658" y="1122" style="font-family:arial">has:resource</text>
</a></g>
</g>
</svg>
