<!-- Generated by dot version 1.7.4 (Thu Feb  8 16:15:16 EST 2001)
     For: (root) root
     Title: dotfile
     Pages: 1
-->
<svg width="972pt" height="508pt" >
<ellipse  cx="343" cy="230" rx="30" ry="18" style="fill:none;stroke:black" />
<text x="320" y="233" style="font-family:arial;font-size:10.00" >genid:1619</text>
<ellipse  cx="82" cy="314" rx="82" ry="18" style="fill:none;stroke:black" />
<text x="7" y="317" style="font-family:arial;font-size:10.00" >doi:1014/10.1000/system.profile.zero</text>
<g  style="fill:none;stroke:#006400"><path d="M313 233C264 238 166 249 111 266 104 268 97 279 92 290"/></g>
<polygon  style="fill:#006400" points="91,286 89,296 96,288 91,286 "/>
<text x="116" y="275" style="font-family:arial;font-size:10.00" >doi:1014/10.1000/system.schema.2001-07-26#profile</text>
<ellipse  cx="343" cy="314" rx="30" ry="18" style="fill:none;stroke:black" />
<text x="320" y="317" style="font-family:arial;font-size:10.00" >genid:1621</text>
<g  style="fill:none;stroke:#006400"><path d="M343 248C343 259 343 274 343 287"/></g>
<polygon  style="fill:#006400" points="341,286 343,296 346,286 341,286 "/>
<text x="348" y="275" style="font-family:arial;font-size:10.00" >doi:1014/10.1000/system.schema.2001-07-26#contains</text>
<ellipse  cx="127" cy="398" rx="30" ry="18" style="fill:none;stroke:black" />
<text x="104" y="401" style="font-family:arial;font-size:10.00" >genid:1622</text>
<ellipse  cx="127" cy="482" rx="69" ry="18" style="fill:none;stroke:black" />
<text x="66" y="485" style="font-family:arial;font-size:10.00" >http://www.doi.org/index.html</text>
<g  style="fill:none;stroke:#006400"><path d="M127 416C127 427 127 442 127 455"/></g>
<polygon  style="fill:#006400" points="125,454 127,464 130,454 125,454 "/>
<text x="132" y="443" style="font-family:arial;font-size:10.00" >doi:1014/10.1000/system.schema.2001-07-26#resource</text>
<g  style="fill:none;stroke:#006400"><path d="M313 318C272 323 198 335 157 350 150 353 142 364 137 374"/></g>
<polygon  style="fill:#006400" points="136,370 134,380 141,372 136,370 "/>
<text x="162" y="359" style="font-family:arial;font-size:10.00" >http://www.w3.org/1999/02/22-rdf-syntax-ns#_1</text>
<ellipse  cx="489" cy="398" rx="108" ry="18" style="fill:none;stroke:black" />
<text x="388" y="401" style="font-family:arial;font-size:10.00" >http://www.w3.org/1999/02/22-rdf-syntax-ns#Bag</text>
<g  style="fill:none;stroke:#006400"><path d="M353 331C361 343 371 357 380 362 391 369 408 375 424 381"/></g>
<polygon  style="fill:#006400" points="421,383 431,383 422,378 421,383 "/>
<text x="385" y="359" style="font-family:arial;font-size:10.00" >http://www.w3.org/1999/02/22-rdf-syntax-ns#type</text>
<ellipse  cx="492" cy="146" rx="30" ry="18" style="fill:none;stroke:black" />
<text x="469" y="149" style="font-family:arial;font-size:10.00" >genid:1618</text>
<g  style="fill:none;stroke:#006400"><path d="M464 154C440 160 407 171 387 182 378 187 368 198 359 209"/></g>
<polygon  style="fill:#006400" points="359,205 355,214 363,208 359,205 "/>
<text x="392" y="191" style="font-family:arial;font-size:10.00" >http://www.w3.org/1999/02/22-rdf-syntax-ns#_1</text>
<g  style="fill:none;stroke:#006400"><path d="M522 149C550 152 589 161 600 182 626 236 627 309 600 362 595 371 586 378 574 383"/></g>
<polygon  style="fill:#006400" points="575,380 567,386 577,384 575,380 "/>
<text x="625" y="275" style="font-family:arial;font-size:10.00" >http://www.w3.org/1999/02/22-rdf-syntax-ns#type</text>
<ellipse  cx="625" cy="62" rx="35" ry="18" style="fill:none;stroke:black" />
<text x="597" y="65" style="font-family:arial;font-size:10.00" >doi:10.1000/1</text>
<g  style="fill:none;stroke:#006400"><path d="M592 68C564 74 524 85 503 98 497 102 494 111 493 121"/></g>
<polygon  style="fill:#006400" points="491,118 492,128 496,118 491,118 "/>
<text x="508" y="107" style="font-family:arial;font-size:10.00" >doi:1014/10.1000/system.schema.2001-07-26#contains</text>
<ellipse  cx="759" cy="146" rx="115" ry="18" style="fill:none;stroke:black" />
<text x="652" y="149" style="font-family:arial;font-size:10.00" >doi:1014/10.1000/system.schema.2001-07-26#Object</text>
<g  style="fill:none;stroke:#006400"><path d="M657 69C684 75 720 86 741 98 746 102 750 110 753 118"/></g>
<polygon  style="fill:#006400" points="751,119 756,128 756,118 751,119 "/>
<text x="755" y="107" style="font-family:arial;font-size:10.00" >http://www.w3.org/1999/02/22-rdf-syntax-ns#type</text>
</svg>
