<?xml version="1.0" encoding="UTF-8" standalone="no"?>
<!DOCTYPE svg PUBLIC "-//W3C//DTD SVG 1.0//EN"
 "http://www.w3.org/TR/2001/REC-SVG-20010904/DTD/svg10.dtd" [
 <!ATTLIST svg xmlns:xlink CDATA #FIXED "http://www.w3.org/1999/xlink">
]>
<!-- Generated by dot version 1.8.5 (Tue Apr 23 17:19:23  2002)
     For user: (Administrator) ,S-1-5-21-1454471165-688789844-1708537768-500   Title: yads    Pages: 1 -->
<svg width="2942px" height="651px"
 xmlns="http://www.w3.org/2000/svg" xmlns:xlink="http://www.w3.org/1999/xlink">
<g id="graph0" class="graph" style="font-family:Times-Roman;font-size:11.00">
<title>yads</title>
<text text-anchor="middle" x="1471" y="640" style="font-family:arial;font-size:24.00">YADS - A Description Service</text>
<g id="graph2" class="cluster"><title>cluster_1</title>
<polygon style="fill:none;stroke:#d2d2d2;stroke-dasharray:5,2" points="19,608 2923,608 2923,43 19,43 19,608"/>
<text text-anchor="middle" x="71" y="55" style="font-family:arial">Nest - TubeTime</text>
</g>
<g id="graph3" class="cluster"><title>cluster_3</title>
<polygon style="fill:none;stroke:#d2d2d2;stroke-dasharray:5,2" points="27,600 2327,600 2327,238 27,238 27,600"/>
<text text-anchor="middle" x="99" y="250" style="font-family:arial">Nest - Application Profile</text>
</g>
<g id="graph4" class="cluster"><title>cluster_5</title>
<polygon style="fill:none;stroke:#d2d2d2;stroke-dasharray:5,2" points="35,592 211,592 211,433 35,433 35,592"/>
<text text-anchor="middle" x="51" y="445" style="font-family:arial">Item</text>
</g>
<g id="graph5" class="cluster"><title>cluster_6</title>
<polygon style="fill:none;stroke:#d2d2d2;stroke-dasharray:5,2" points="219,592 383,592 383,433 219,433 219,592"/>
<text text-anchor="middle" x="235" y="445" style="font-family:arial">Item</text>
</g>
<g id="graph6" class="cluster"><title>cluster_7</title>
<polygon style="fill:none;stroke:#d2d2d2;stroke-dasharray:5,2" points="391,592 547,592 547,433 391,433 391,592"/>
<text text-anchor="middle" x="407" y="445" style="font-family:arial">Item</text>
</g>
<g id="graph7" class="cluster"><title>cluster_8</title>
<polygon style="fill:none;stroke:#d2d2d2;stroke-dasharray:5,2" points="555,592 717,592 717,433 555,433 555,592"/>
<text text-anchor="middle" x="571" y="445" style="font-family:arial">Item</text>
</g>
<g id="graph8" class="cluster"><title>cluster_9</title>
<polygon style="fill:none;stroke:#d2d2d2;stroke-dasharray:5,2" points="725,592 915,592 915,433 725,433 725,592"/>
<text text-anchor="middle" x="741" y="445" style="font-family:arial">Item</text>
</g>
<g id="graph9" class="cluster"><title>cluster_10</title>
<polygon style="fill:none;stroke:#d2d2d2;stroke-dasharray:5,2" points="923,592 1169,592 1169,433 923,433 923,592"/>
<text text-anchor="middle" x="939" y="445" style="font-family:arial">Item</text>
</g>
<g id="graph10" class="cluster"><title>cluster_11</title>
<polygon style="fill:none;stroke:#d2d2d2;stroke-dasharray:5,2" points="1177,592 1339,592 1339,433 1177,433 1177,592"/>
<text text-anchor="middle" x="1193" y="445" style="font-family:arial">Item</text>
</g>
<g id="graph11" class="cluster"><title>cluster_12</title>
<polygon style="fill:none;stroke:#d2d2d2;stroke-dasharray:5,2" points="1347,592 1539,592 1539,433 1347,433 1347,592"/>
<text text-anchor="middle" x="1363" y="445" style="font-family:arial">Item</text>
</g>
<g id="graph12" class="cluster"><title>cluster_13</title>
<polygon style="fill:none;stroke:#d2d2d2;stroke-dasharray:5,2" points="1547,592 1721,592 1721,433 1547,433 1547,592"/>
<text text-anchor="middle" x="1563" y="445" style="font-family:arial">Item</text>
</g>
<g id="graph13" class="cluster"><title>cluster_14</title>
<polygon style="fill:none;stroke:#d2d2d2;stroke-dasharray:5,2" points="1729,592 1903,592 1903,433 1729,433 1729,592"/>
<text text-anchor="middle" x="1745" y="445" style="font-family:arial">Item</text>
</g>
<g id="graph14" class="cluster"><title>cluster_15</title>
<polygon style="fill:none;stroke:#d2d2d2;stroke-dasharray:5,2" points="1911,592 2077,592 2077,433 1911,433 1911,592"/>
<text text-anchor="middle" x="1927" y="445" style="font-family:arial">Item</text>
</g>
<g id="graph15" class="cluster"><title>cluster_16</title>
<polygon style="fill:none;stroke:#d2d2d2;stroke-dasharray:5,2" points="2085,592 2319,592 2319,433 2085,433 2085,592"/>
<text text-anchor="middle" x="2101" y="445" style="font-family:arial">Item</text>
</g>
<g id="graph16" class="cluster"><title>cluster_17</title>
<polygon style="fill:none;stroke:#d2d2d2;stroke-dasharray:5,2" points="2335,600 2915,600 2915,238 2335,238 2335,600"/>
<text text-anchor="middle" x="2407" y="250" style="font-family:arial">Nest - Application Profile</text>
</g>
<g id="graph17" class="cluster"><title>cluster_19</title>
<polygon style="fill:none;stroke:#d2d2d2;stroke-dasharray:5,2" points="2709,592 2907,592 2907,433 2709,433 2709,592"/>
<text text-anchor="middle" x="2725" y="445" style="font-family:arial">Item</text>
</g>
<g id="node2" class="node"><title>:_1</title>
<a xlink:href="http://www2.elsevier.co.uk/~tony/1014/yads-schema-2002-04-03#Nest" target="_blank" onmouseover="show_status('http://www2.elsevier.co.uk/~tony/1014/yads-schema-2002-04-03#Nest');">
<ellipse cx="1631" cy="86" rx="29" ry="18" style="fill:#d2d2d2;stroke:#d2d2d2"/>
<text text-anchor="middle" x="1631" y="90" style="font-family:arial">isa:Nest</text>
</a></g>
<g id="node4" class="node"><title>doi:1014/tube</title>
<a xlink:href="http://dx.doi.org/1014/tube" target="_blank" onmouseover="show_status('http://dx.doi.org/1014/tube');">
<ellipse cx="1450" cy="176" rx="42" ry="18" style="fill:#dca0dd;stroke:#dca0dd"/>
<text text-anchor="middle" x="1450" y="180" style="font-family:arial">doi:1014/tube</text>
</a></g>
<g id="edge3" class="edge"><title>:_1-&gt;doi:1014/tube</title>
<a xlink:href="http://www2.elsevier.co.uk/~tony/1014/yads-schema-2002-04-03#resource" target="_blank" onmouseover="show_status('http://www2.elsevier.co.uk/~tony/1014/yads-schema-2002-04-03#resource');">
<path style="fill:none;stroke:#add9e6" d="M1602,88C1573,92 1528,101 1495,122 1484,129 1474,141 1466,152"/>
<polygon style="fill:#add9e6;stroke:#add9e6" points="1465,149 1461,159 1469,152 1465,149"/>
<text text-anchor="middle" x="1542" y="135" style="font-family:arial">has:resource</text>
</a></g>
<g id="node6" class="node"><title>node_1</title>
<polygon style="fill:#6497ed;stroke:#6497ed" points="1576,158 1510,158 1510,194 1576,194 1576,158"/>
<text text-anchor="middle" x="1543" y="180" style="font-family:arial">TubeTime</text>
</g>
<g id="edge5" class="edge"><title>:_1-&gt;node_1</title>
<a xlink:href="http://www2.elsevier.co.uk/~tony/1014/yads-schema-2002-04-03#label" target="_blank" onmouseover="show_status('http://www2.elsevier.co.uk/~tony/1014/yads-schema-2002-04-03#label');">
<path style="fill:none;stroke:#add9e6" d="M1616,102C1602,115 1583,135 1567,151"/>
<polygon style="fill:#add9e6;stroke:#add9e6" points="1565,149 1560,158 1569,153 1565,149"/>
<text text-anchor="middle" x="1625" y="135" style="font-family:arial">has:label</text>
</a></g>
<g id="node8" class="node"><title>node_2</title>
<polygon style="fill:#6497ed;stroke:#6497ed" points="1800,158 1594,158 1594,194 1800,194 1800,158"/>
<text text-anchor="middle" x="1697" y="180" style="font-family:arial">TubeTime implements the YADS ...n</text>
</g>
<g id="edge7" class="edge"><title>:_1-&gt;node_2</title>
<a xlink:href="http://www2.elsevier.co.uk/~tony/1014/yads-schema-2002-04-03#detail" target="_blank" onmouseover="show_status('http://www2.elsevier.co.uk/~tony/1014/yads-schema-2002-04-03#detail');">
<path style="fill:none;stroke:#add9e6" d="M1643,103C1653,116 1667,135 1678,151"/>
<polygon style="fill:#add9e6;stroke:#add9e6" points="1676,152 1684,158 1679,149 1676,152"/>
<text text-anchor="middle" x="1700" y="135" style="font-family:arial">has:detail</text>
</a></g>
<g id="node10" class="node"><title>:_2</title>
<a xlink:href="http://www.w3.org/1999/02/22-rdf-syntax-ns#Bag" target="_blank" onmouseover="show_status('http://www.w3.org/1999/02/22-rdf-syntax-ns#Bag');">
<ellipse cx="1846" cy="176" rx="28" ry="18" style="fill:#d2d2d2;stroke:#d2d2d2"/>
<text text-anchor="middle" x="1846" y="180" style="font-family:arial">rdf:Bag</text>
</a></g>
<g id="edge9" class="edge"><title>:_1-&gt;:_2</title>
<a xlink:href="http://www2.elsevier.co.uk/~tony/1014/yads-schema-2002-04-03#collection" target="_blank" onmouseover="show_status('http://www2.elsevier.co.uk/~tony/1014/yads-schema-2002-04-03#collection');">
<path style="fill:none;stroke:#add9e6" d="M1659,92C1724,111 1742,126 1809,158 1811,159 1813,160 1815,161"/>
<polygon style="fill:#add9e6;stroke:#add9e6" points="1814,163 1824,165 1816,159 1814,163"/>
<text text-anchor="middle" x="1812" y="135" style="font-family:arial">has:collection</text>
</a></g>
<g id="node12" class="node"><title>:_3</title>
<ellipse cx="1137" cy="281" rx="34" ry="18" style="fill:#eedb82;stroke:#eedb82"/>
<text text-anchor="middle" x="1137" y="285" style="font-family:arial">doi:Profile</text>
</g>
<g id="edge11" class="edge"><title>:_2-&gt;:_3</title>
<a xlink:href="http://www.w3.org/1999/02/22-rdf-syntax-ns#_1" target="_blank" onmouseover="show_status('http://www.w3.org/1999/02/22-rdf-syntax-ns#_1');">
<path style="fill:none;stroke:#add9e6" d="M1825,188C1820,190 1814,193 1809,194 1579,263 1289,277 1180,281"/>
<polygon style="fill:#add9e6;stroke:#add9e6" points="1181,278 1171,281 1181,283 1181,278"/>
<text text-anchor="middle" x="1767" y="225" style="font-family:arial">rdf:_1</text>
</a></g>
<g id="node14" class="node"><title>:_17</title>
<a xlink:href="http://www2.elsevier.co.uk/~tony/1014/yads-schema-2002-04-03#Nest" target="_blank" onmouseover="show_status('http://www2.elsevier.co.uk/~tony/1014/yads-schema-2002-04-03#Nest');">
<ellipse cx="2554" cy="281" rx="29" ry="18" style="fill:#d2d2d2;stroke:#d2d2d2"/>
<text text-anchor="middle" x="2554" y="285" style="font-family:arial">isa:Nest</text>
</a></g>
<g id="edge13" class="edge"><title>:_2-&gt;:_17</title>
<a xlink:href="http://www.w3.org/1999/02/22-rdf-syntax-ns#_2" target="_blank" onmouseover="show_status('http://www.w3.org/1999/02/22-rdf-syntax-ns#_2');">
<path style="fill:none;stroke:#add9e6" d="M1874,179C1948,187 2158,211 2331,238 2397,248 2473,264 2517,273"/>
<polygon style="fill:#add9e6;stroke:#add9e6" points="2516,275 2526,275 2517,270 2516,275"/>
<text text-anchor="middle" x="2287" y="225" style="font-family:arial">rdf:_2</text>
</a></g>
<g id="node17" class="node"><title>doi:1014/profile.tube</title>
<a xlink:href="http://dx.doi.org/1014/profile.tube" target="_blank" onmouseover="show_status('http://dx.doi.org/1014/profile.tube');">
<ellipse cx="911" cy="371" rx="59" ry="18" style="fill:#dca0dd;stroke:#dca0dd"/>
<text text-anchor="middle" x="911" y="375" style="font-family:arial">doi:1014/profile.tube</text>
</a></g>
<g id="edge16" class="edge"><title>:_3-&gt;doi:1014/profile.tube</title>
<a xlink:href="http://www2.elsevier.co.uk/~tony/1014/yads-schema-2002-04-03#resource" target="_blank" onmouseover="show_status('http://www2.elsevier.co.uk/~tony/1014/yads-schema-2002-04-03#resource');">
<path style="fill:none;stroke:#add9e6" d="M1103,284C1069,287 1016,296 974,317 959,325 945,337 933,348"/>
<polygon style="fill:#add9e6;stroke:#add9e6" points="932,345 927,354 936,349 932,345"/>
<text text-anchor="middle" x="1021" y="330" style="font-family:arial">has:resource</text>
</a></g>
<g id="node19" class="node"><title>node_4</title>
<polygon style="fill:#6497ed;stroke:#6497ed" points="1052,353 988,353 988,389 1052,389 1052,353"/>
<text text-anchor="middle" x="1020" y="375" style="font-family:arial">The Tube</text>
</g>
<g id="edge18" class="edge"><title>:_3-&gt;node_4</title>
<a xlink:href="http://www2.elsevier.co.uk/~tony/1014/yads-schema-2002-04-03#label" target="_blank" onmouseover="show_status('http://www2.elsevier.co.uk/~tony/1014/yads-schema-2002-04-03#label');">
<path style="fill:none;stroke:#add9e6" d="M1114,294C1103,301 1089,309 1078,317 1067,326 1055,337 1045,347"/>
<polygon style="fill:#add9e6;stroke:#add9e6" points="1044,345 1038,353 1047,348 1044,345"/>
<text text-anchor="middle" x="1111" y="330" style="font-family:arial">has:label</text>
</a></g>
<g id="node21" class="node"><title>node_5</title>
<polygon style="fill:#6497ed;stroke:#6497ed" points="1204,353 1070,353 1070,389 1204,389 1204,353"/>
<text text-anchor="middle" x="1137" y="375" style="font-family:arial">TubeTime - The Tube.</text>
</g>
<g id="edge20" class="edge"><title>:_3-&gt;node_5</title>
<a xlink:href="http://www2.elsevier.co.uk/~tony/1014/yads-schema-2002-04-03#detail" target="_blank" onmouseover="show_status('http://www2.elsevier.co.uk/~tony/1014/yads-schema-2002-04-03#detail');">
<path style="fill:none;stroke:#add9e6" d="M1137,299C1137,312 1137,329 1137,344"/>
<polygon style="fill:#add9e6;stroke:#add9e6" points="1135,343 1137,353 1140,343 1135,343"/>
<text text-anchor="middle" x="1166" y="330" style="font-family:arial">has:detail</text>
</a></g>
<g id="node23" class="node"><title>:_4</title>
<a xlink:href="http://www.w3.org/1999/02/22-rdf-syntax-ns#Bag" target="_blank" onmouseover="show_status('http://www.w3.org/1999/02/22-rdf-syntax-ns#Bag');">
<ellipse cx="1250" cy="371" rx="28" ry="18" style="fill:#d2d2d2;stroke:#d2d2d2"/>
<text text-anchor="middle" x="1250" y="375" style="font-family:arial">rdf:Bag</text>
</a></g>
<g id="edge22" class="edge"><title>:_3-&gt;:_4</title>
<a xlink:href="http://www2.elsevier.co.uk/~tony/1014/yads-schema-2002-04-03#collection" target="_blank" onmouseover="show_status('http://www2.elsevier.co.uk/~tony/1014/yads-schema-2002-04-03#collection');">
<path style="fill:none;stroke:#add9e6" d="M1162,293C1174,300 1189,308 1200,317 1211,326 1223,338 1231,348"/>
<polygon style="fill:#add9e6;stroke:#add9e6" points="1229,349 1237,355 1232,346 1229,349"/>
<text text-anchor="middle" x="1261" y="330" style="font-family:arial">has:collection</text>
</a></g>
<g id="node86" class="node"><title>doi:doi:1014/profile.dlr</title>
<a xlink:href="http://dx.doi.org/doi:1014/profile.dlr" target="_blank" onmouseover="show_status('http://dx.doi.org/doi:1014/profile.dlr');">
<ellipse cx="2404" cy="371" rx="61" ry="18" style="fill:#dca0dd;stroke:#dca0dd"/>
<text text-anchor="middle" x="2404" y="375" style="font-family:arial">doi:doi:1014/profile.dlr</text>
</a></g>
<g id="edge85" class="edge"><title>:_17-&gt;doi:doi:1014/profile.dlr</title>
<a xlink:href="http://www2.elsevier.co.uk/~tony/1014/yads-schema-2002-04-03#resource" target="_blank" onmouseover="show_status('http://www2.elsevier.co.uk/~tony/1014/yads-schema-2002-04-03#resource');">
<path style="fill:none;stroke:#add9e6" d="M2528,290C2511,296 2488,306 2469,317 2455,326 2440,337 2428,348"/>
<polygon style="fill:#add9e6;stroke:#add9e6" points="2427,345 2422,354 2431,349 2427,345"/>
<text text-anchor="middle" x="2516" y="330" style="font-family:arial">has:resource</text>
</a></g>
<g id="node88" class="node"><title>node_18</title>
<polygon style="fill:#6497ed;stroke:#6497ed" points="2625,353 2483,353 2483,389 2625,389 2625,353"/>
<text text-anchor="middle" x="2554" y="375" style="font-family:arial">Docklands Light Railway</text>
</g>
<g id="edge87" class="edge"><title>:_17-&gt;node_18</title>
<a xlink:href="http://www2.elsevier.co.uk/~tony/1014/yads-schema-2002-04-03#label" target="_blank" onmouseover="show_status('http://www2.elsevier.co.uk/~tony/1014/yads-schema-2002-04-03#label');">
<path style="fill:none;stroke:#add9e6" d="M2554,299C2554,312 2554,329 2554,344"/>
<polygon style="fill:#add9e6;stroke:#add9e6" points="2552,343 2554,353 2557,343 2552,343"/>
<text text-anchor="middle" x="2581" y="330" style="font-family:arial">has:label</text>
</a></g>
<g id="node90" class="node"><title>node_19</title>
<polygon style="fill:#6497ed;stroke:#6497ed" points="2833,353 2643,353 2643,389 2833,389 2833,353"/>
<text text-anchor="middle" x="2738" y="375" style="font-family:arial">TubeTime - Docklands Light Ra....</text>
</g>
<g id="edge89" class="edge"><title>:_17-&gt;node_19</title>
<a xlink:href="http://www2.elsevier.co.uk/~tony/1014/yads-schema-2002-04-03#detail" target="_blank" onmouseover="show_status('http://www2.elsevier.co.uk/~tony/1014/yads-schema-2002-04-03#detail');">
<path style="fill:none;stroke:#add9e6" d="M2577,292C2606,306 2657,331 2693,349"/>
<polygon style="fill:#add9e6;stroke:#add9e6" points="2691,351 2701,353 2693,346 2691,351"/>
<text text-anchor="middle" x="2691" y="330" style="font-family:arial">has:detail</text>
</a></g>
<g id="node92" class="node"><title>:_18</title>
<a xlink:href="http://www.w3.org/1999/02/22-rdf-syntax-ns#Bag" target="_blank" onmouseover="show_status('http://www.w3.org/1999/02/22-rdf-syntax-ns#Bag');">
<ellipse cx="2879" cy="371" rx="28" ry="18" style="fill:#d2d2d2;stroke:#d2d2d2"/>
<text text-anchor="middle" x="2879" y="375" style="font-family:arial">rdf:Bag</text>
</a></g>
<g id="edge91" class="edge"><title>:_17-&gt;:_18</title>
<a xlink:href="http://www2.elsevier.co.uk/~tony/1014/yads-schema-2002-04-03#collection" target="_blank" onmouseover="show_status('http://www2.elsevier.co.uk/~tony/1014/yads-schema-2002-04-03#collection');">
<path style="fill:none;stroke:#add9e6" d="M2583,284C2698,302 2730,310 2842,353 2845,354 2848,355 2851,357"/>
<polygon style="fill:#add9e6;stroke:#add9e6" points="2847,358 2857,360 2849,353 2847,358"/>
<text text-anchor="middle" x="2832" y="330" style="font-family:arial">has:collection</text>
</a></g>
<g id="node25" class="node"><title>:_5</title>
<ellipse cx="147" cy="476" rx="32" ry="18" style="fill:#eedb82;stroke:#eedb82"/>
<text text-anchor="middle" x="147" y="480" style="font-family:arial">tube:Line</text>
</g>
<g id="edge24" class="edge"><title>:_4-&gt;:_5</title>
<a xlink:href="http://www.w3.org/1999/02/22-rdf-syntax-ns#_1" target="_blank" onmouseover="show_status('http://www.w3.org/1999/02/22-rdf-syntax-ns#_1');">
<path style="fill:none;stroke:#add9e6" d="M1224,377C1220,382 1219,387 1212,389 1210,391 375,407 372,407 302,414 282,408 215,433 200,439 185,448 173,456"/>
<polygon style="fill:#add9e6;stroke:#add9e6" points="173,453 166,461 176,457 173,453"/>
<text text-anchor="middle" x="478" y="420" style="font-family:arial">rdf:_1</text>
</a></g>
<g id="node27" class="node"><title>:_6</title>
<ellipse cx="319" cy="476" rx="32" ry="18" style="fill:#eedb82;stroke:#eedb82"/>
<text text-anchor="middle" x="319" y="480" style="font-family:arial">tube:Line</text>
</g>
<g id="edge26" class="edge"><title>:_4-&gt;:_6</title>
<a xlink:href="http://www.w3.org/1999/02/22-rdf-syntax-ns#_2" target="_blank" onmouseover="show_status('http://www.w3.org/1999/02/22-rdf-syntax-ns#_2');">
<path style="fill:none;stroke:#add9e6" d="M1224,377C1220,382 1219,387 1212,389 1208,391 537,407 532,407 467,414 449,410 387,433 372,439 357,448 345,456"/>
<polygon style="fill:#add9e6;stroke:#add9e6" points="345,453 338,461 348,457 345,453"/>
<text text-anchor="middle" x="623" y="420" style="font-family:arial">rdf:_2</text>
</a></g>
<g id="node29" class="node"><title>:_7</title>
<ellipse cx="483" cy="476" rx="32" ry="18" style="fill:#eedb82;stroke:#eedb82"/>
<text text-anchor="middle" x="483" y="480" style="font-family:arial">tube:Line</text>
</g>
<g id="edge28" class="edge"><title>:_4-&gt;:_7</title>
<a xlink:href="http://www.w3.org/1999/02/22-rdf-syntax-ns#_3" target="_blank" onmouseover="show_status('http://www.w3.org/1999/02/22-rdf-syntax-ns#_3');">
<path style="fill:none;stroke:#add9e6" d="M1224,377C1220,382 1219,387 1212,389 1206,392 713,407 705,407 636,415 616,409 551,433 536,439 521,448 509,456"/>
<polygon style="fill:#add9e6;stroke:#add9e6" points="509,453 502,461 512,457 509,453"/>
<text text-anchor="middle" x="781" y="420" style="font-family:arial">rdf:_3</text>
</a></g>
<g id="node31" class="node"><title>:_8</title>
<ellipse cx="653" cy="476" rx="32" ry="18" style="fill:#eedb82;stroke:#eedb82"/>
<text text-anchor="middle" x="653" y="480" style="font-family:arial">tube:Line</text>
</g>
<g id="edge30" class="edge"><title>:_4-&gt;:_8</title>
<a xlink:href="http://www.w3.org/1999/02/22-rdf-syntax-ns#_4" target="_blank" onmouseover="show_status('http://www.w3.org/1999/02/22-rdf-syntax-ns#_4');">
<path style="fill:none;stroke:#add9e6" d="M1224,377C1220,382 1219,386 1212,389 1198,396 940,406 924,407 834,416 807,403 721,433 706,439 691,448 679,456"/>
<polygon style="fill:#add9e6;stroke:#add9e6" points="679,453 672,461 682,457 679,453"/>
<text text-anchor="middle" x="987" y="420" style="font-family:arial">rdf:_4</text>
</a></g>
<g id="node33" class="node"><title>:_9</title>
<ellipse cx="848" cy="476" rx="32" ry="18" style="fill:#eedb82;stroke:#eedb82"/>
<text text-anchor="middle" x="848" y="480" style="font-family:arial">tube:Line</text>
</g>
<g id="edge32" class="edge"><title>:_4-&gt;:_9</title>
<a xlink:href="http://www.w3.org/1999/02/22-rdf-syntax-ns#_5" target="_blank" onmouseover="show_status('http://www.w3.org/1999/02/22-rdf-syntax-ns#_5');">
<path style="fill:none;stroke:#add9e6" d="M1224,378C1221,382 1220,386 1213,389 1184,404 951,422 919,433 904,439 888,448 875,456"/>
<polygon style="fill:#add9e6;stroke:#add9e6" points="875,453 868,461 878,457 875,453"/>
<text text-anchor="middle" x="1152" y="420" style="font-family:arial">rdf:_5</text>
</a></g>
<g id="node35" class="node"><title>:_10</title>
<ellipse cx="1088" cy="476" rx="32" ry="18" style="fill:#eedb82;stroke:#eedb82"/>
<text text-anchor="middle" x="1088" y="480" style="font-family:arial">tube:Line</text>
</g>
<g id="edge34" class="edge"><title>:_4-&gt;:_10</title>
<a xlink:href="http://www.w3.org/1999/02/22-rdf-syntax-ns#_6" target="_blank" onmouseover="show_status('http://www.w3.org/1999/02/22-rdf-syntax-ns#_6');">
<path style="fill:none;stroke:#add9e6" d="M1230,384C1201,403 1149,437 1116,458"/>
<polygon style="fill:#add9e6;stroke:#add9e6" points="1116,455 1109,462 1119,459 1116,455"/>
<text text-anchor="middle" x="1219" y="420" style="font-family:arial">rdf:_6</text>
</a></g>
<g id="node37" class="node"><title>:_11</title>
<ellipse cx="1250" cy="476" rx="32" ry="18" style="fill:#eedb82;stroke:#eedb82"/>
<text text-anchor="middle" x="1250" y="480" style="font-family:arial">tube:Line</text>
</g>
<g id="edge36" class="edge"><title>:_4-&gt;:_11</title>
<a xlink:href="http://www.w3.org/1999/02/22-rdf-syntax-ns#_7" target="_blank" onmouseover="show_status('http://www.w3.org/1999/02/22-rdf-syntax-ns#_7');">
<path style="fill:none;stroke:#add9e6" d="M1250,389C1250,405 1250,430 1250,449"/>
<polygon style="fill:#add9e6;stroke:#add9e6" points="1248,448 1250,458 1253,448 1248,448"/>
<text text-anchor="middle" x="1271" y="420" style="font-family:arial">rdf:_7</text>
</a></g>
<g id="node39" class="node"><title>:_12</title>
<ellipse cx="1415" cy="476" rx="32" ry="18" style="fill:#eedb82;stroke:#eedb82"/>
<text text-anchor="middle" x="1415" y="480" style="font-family:arial">tube:Line</text>
</g>
<g id="edge38" class="edge"><title>:_4-&gt;:_12</title>
<a xlink:href="http://www.w3.org/1999/02/22-rdf-syntax-ns#_8" target="_blank" onmouseover="show_status('http://www.w3.org/1999/02/22-rdf-syntax-ns#_8');">
<path style="fill:none;stroke:#add9e6" d="M1270,384C1299,403 1353,437 1386,458"/>
<polygon style="fill:#add9e6;stroke:#add9e6" points="1383,459 1393,462 1386,455 1383,459"/>
<text text-anchor="middle" x="1356" y="420" style="font-family:arial">rdf:_8</text>
</a></g>
<g id="node41" class="node"><title>:_13</title>
<ellipse cx="1609" cy="476" rx="32" ry="18" style="fill:#eedb82;stroke:#eedb82"/>
<text text-anchor="middle" x="1609" y="480" style="font-family:arial">tube:Line</text>
</g>
<g id="edge40" class="edge"><title>:_4-&gt;:_13</title>
<a xlink:href="http://www.w3.org/1999/02/22-rdf-syntax-ns#_9" target="_blank" onmouseover="show_status('http://www.w3.org/1999/02/22-rdf-syntax-ns#_9');">
<path style="fill:none;stroke:#add9e6" d="M1278,373C1331,379 1451,395 1543,433 1557,439 1571,448 1583,456"/>
<polygon style="fill:#add9e6;stroke:#add9e6" points="1580,457 1590,461 1583,453 1580,457"/>
<text text-anchor="middle" x="1540" y="420" style="font-family:arial">rdf:_9</text>
</a></g>
<g id="node43" class="node"><title>:_14</title>
<ellipse cx="1791" cy="476" rx="32" ry="18" style="fill:#eedb82;stroke:#eedb82"/>
<text text-anchor="middle" x="1791" y="480" style="font-family:arial">tube:Line</text>
</g>
<g id="edge42" class="edge"><title>:_4-&gt;:_14</title>
<a xlink:href="http://www.w3.org/1999/02/22-rdf-syntax-ns#_10" target="_blank" onmouseover="show_status('http://www.w3.org/1999/02/22-rdf-syntax-ns#_10');">
<path style="fill:none;stroke:#add9e6" d="M1278,372C1286,372 1294,373 1301,373 1491,389 1548,365 1725,433 1740,439 1754,448 1766,456"/>
<polygon style="fill:#add9e6;stroke:#add9e6" points="1763,457 1773,461 1766,453 1763,457"/>
<text text-anchor="middle" x="1726" y="420" style="font-family:arial">rdf:_10</text>
</a></g>
<g id="node45" class="node"><title>:_15</title>
<ellipse cx="1969" cy="476" rx="32" ry="18" style="fill:#eedb82;stroke:#eedb82"/>
<text text-anchor="middle" x="1969" y="480" style="font-family:arial">tube:Line</text>
</g>
<g id="edge44" class="edge"><title>:_4-&gt;:_15</title>
<a xlink:href="http://www.w3.org/1999/02/22-rdf-syntax-ns#_11" target="_blank" onmouseover="show_status('http://www.w3.org/1999/02/22-rdf-syntax-ns#_11');">
<path style="fill:none;stroke:#add9e6" d="M1278,372C1295,372 1317,372 1336,373 1522,383 1569,384 1753,407 1822,416 1843,407 1907,433 1921,439 1934,447 1945,455"/>
<polygon style="fill:#add9e6;stroke:#add9e6" points="1943,456 1952,461 1946,453 1943,456"/>
<text text-anchor="middle" x="1905" y="420" style="font-family:arial">rdf:_11</text>
</a></g>
<g id="node47" class="node"><title>:_16</title>
<ellipse cx="2163" cy="476" rx="32" ry="18" style="fill:#eedb82;stroke:#eedb82"/>
<text text-anchor="middle" x="2163" y="480" style="font-family:arial">tube:Line</text>
</g>
<g id="edge46" class="edge"><title>:_4-&gt;:_16</title>
<a xlink:href="http://www.w3.org/1999/02/22-rdf-syntax-ns#_12" target="_blank" onmouseover="show_status('http://www.w3.org/1999/02/22-rdf-syntax-ns#_12');">
<path style="fill:none;stroke:#add9e6" d="M1278,371C1303,372 1339,372 1370,373 1408,375 1417,375 1454,377 1667,389 1721,383 1931,407 1999,415 2017,412 2081,433 2099,440 2118,449 2133,458"/>
<polygon style="fill:#add9e6;stroke:#add9e6" points="2131,460 2141,462 2133,455 2131,460"/>
<text text-anchor="middle" x="2075" y="420" style="font-family:arial">rdf:_12</text>
</a></g>
<g id="node50" class="node"><title>doi:1014/tube/bakerloo_line</title>
<a xlink:href="http://dx.doi.org/1014/tube/bakerloo_line" target="_blank" onmouseover="show_status('http://dx.doi.org/1014/tube/bakerloo_line');">
<ellipse cx="123" cy="566" rx="80" ry="18" style="fill:#dca0dd;stroke:#dca0dd"/>
<text text-anchor="middle" x="123" y="570" style="font-family:arial">doi:1014/tube/bakerloo_line</text>
</a></g>
<g id="edge49" class="edge"><title>:_5-&gt;doi:1014/tube/bakerloo_line</title>
<a xlink:href="http://www2.elsevier.co.uk/~tony/1014/yads-schema-2002-04-03#resource" target="_blank" onmouseover="show_status('http://www2.elsevier.co.uk/~tony/1014/yads-schema-2002-04-03#resource');">
<path style="fill:none;stroke:#add9e6" d="M140,494C138,500 136,506 134,512 132,521 130,530 128,539"/>
<polygon style="fill:#add9e6;stroke:#add9e6" points="126,538 126,548 131,539 126,538"/>
<text text-anchor="middle" x="178" y="525" style="font-family:arial">has:resource</text>
</a></g>
<g id="node53" class="node"><title>doi:1014/tube/central_line</title>
<a xlink:href="http://dx.doi.org/1014/tube/central_line" target="_blank" onmouseover="show_status('http://dx.doi.org/1014/tube/central_line');">
<ellipse cx="301" cy="566" rx="74" ry="18" style="fill:#dca0dd;stroke:#dca0dd"/>
<text text-anchor="middle" x="301" y="570" style="font-family:arial">doi:1014/tube/central_line</text>
</a></g>
<g id="edge52" class="edge"><title>:_6-&gt;doi:1014/tube/central_line</title>
<a xlink:href="http://www2.elsevier.co.uk/~tony/1014/yads-schema-2002-04-03#resource" target="_blank" onmouseover="show_status('http://www2.elsevier.co.uk/~tony/1014/yads-schema-2002-04-03#resource');">
<path style="fill:none;stroke:#add9e6" d="M312,494C310,499 307,506 306,512 304,521 303,530 302,539"/>
<polygon style="fill:#add9e6;stroke:#add9e6" points="300,538 302,548 305,538 300,538"/>
<text text-anchor="middle" x="350" y="525" style="font-family:arial">has:resource</text>
</a></g>
<g id="node56" class="node"><title>doi:1014/tube/circle_line</title>
<a xlink:href="http://dx.doi.org/1014/tube/circle_line" target="_blank" onmouseover="show_status('http://dx.doi.org/1014/tube/circle_line');">
<ellipse cx="469" cy="566" rx="70" ry="18" style="fill:#dca0dd;stroke:#dca0dd"/>
<text text-anchor="middle" x="469" y="570" style="font-family:arial">doi:1014/tube/circle_line</text>
</a></g>
<g id="edge55" class="edge"><title>:_7-&gt;doi:1014/tube/circle_line</title>
<a xlink:href="http://www2.elsevier.co.uk/~tony/1014/yads-schema-2002-04-03#resource" target="_blank" onmouseover="show_status('http://www2.elsevier.co.uk/~tony/1014/yads-schema-2002-04-03#resource');">
<path style="fill:none;stroke:#add9e6" d="M476,494C474,499 471,506 470,512 469,521 468,530 468,538"/>
<polygon style="fill:#add9e6;stroke:#add9e6" points="466,538 468,548 471,538 466,538"/>
<text text-anchor="middle" x="514" y="525" style="font-family:arial">has:resource</text>
</a></g>
<g id="node59" class="node"><title>doi:1014/tube/district_line</title>
<a xlink:href="http://dx.doi.org/1014/tube/district_line" target="_blank" onmouseover="show_status('http://dx.doi.org/1014/tube/district_line');">
<ellipse cx="636" cy="566" rx="73" ry="18" style="fill:#dca0dd;stroke:#dca0dd"/>
<text text-anchor="middle" x="636" y="570" style="font-family:arial">doi:1014/tube/district_line</text>
</a></g>
<g id="edge58" class="edge"><title>:_8-&gt;doi:1014/tube/district_line</title>
<a xlink:href="http://www2.elsevier.co.uk/~tony/1014/yads-schema-2002-04-03#resource" target="_blank" onmouseover="show_status('http://www2.elsevier.co.uk/~tony/1014/yads-schema-2002-04-03#resource');">
<path style="fill:none;stroke:#add9e6" d="M646,494C644,499 641,506 640,512 638,521 637,530 636,539"/>
<polygon style="fill:#add9e6;stroke:#add9e6" points="634,538 636,548 639,538 634,538"/>
<text text-anchor="middle" x="684" y="525" style="font-family:arial">has:resource</text>
</a></g>
<g id="node62" class="node"><title>doi:1014/tube/east_london_lin</title>
<a xlink:href="http://dx.doi.org/1014/tube/east_london_line" target="_blank" onmouseover="show_status('http://dx.doi.org/1014/tube/east_london_line');">
<ellipse cx="820" cy="566" rx="87" ry="18" style="fill:#dca0dd;stroke:#dca0dd"/>
<text text-anchor="middle" x="820" y="570" style="font-family:arial">doi:1014/tube/east_london_lin</text>
</a></g>
<g id="edge61" class="edge"><title>:_9-&gt;doi:1014/tube/east_london_lin</title>
<a xlink:href="http://www2.elsevier.co.uk/~tony/1014/yads-schema-2002-04-03#resource" target="_blank" onmouseover="show_status('http://www2.elsevier.co.uk/~tony/1014/yads-schema-2002-04-03#resource');">
<path style="fill:none;stroke:#add9e6" d="M842,494C838,507 832,524 828,539"/>
<polygon style="fill:#add9e6;stroke:#add9e6" points="826,538 825,548 831,539 826,538"/>
<text text-anchor="middle" x="878" y="525" style="font-family:arial">has:resource</text>
</a></g>
<g id="node65" class="node"><title>doi:1014/tube/hammersmith_&amp;_c...e</title>
<a xlink:href="http://dx.doi.org/1014/tube/hammersmith_&amp;_city_line" target="_blank" onmouseover="show_status('http://dx.doi.org/1014/tube/hammersmith_&amp;_city_line');">
<ellipse cx="1046" cy="566" rx="115" ry="18" style="fill:#dca0dd;stroke:#dca0dd"/>
<text text-anchor="middle" x="1046" y="570" style="font-family:arial">doi:1014/tube/hammersmith_&amp;_c...e</text>
</a></g>
<g id="edge64" class="edge"><title>:_10-&gt;doi:1014/tube/hammersmith_&amp;_c...e</title>
<a xlink:href="http://www2.elsevier.co.uk/~tony/1014/yads-schema-2002-04-03#resource" target="_blank" onmouseover="show_status('http://www2.elsevier.co.uk/~tony/1014/yads-schema-2002-04-03#resource');">
<path style="fill:none;stroke:#add9e6" d="M1080,494C1073,507 1065,525 1058,540"/>
<polygon style="fill:#add9e6;stroke:#add9e6" points="1056,538 1054,548 1061,540 1056,538"/>
<text text-anchor="middle" x="1113" y="525" style="font-family:arial">has:resource</text>
</a></g>
<g id="node68" class="node"><title>doi:1014/tube/jubilee_line</title>
<a xlink:href="http://dx.doi.org/1014/tube/jubilee_line" target="_blank" onmouseover="show_status('http://dx.doi.org/1014/tube/jubilee_line');">
<ellipse cx="1258" cy="566" rx="73" ry="18" style="fill:#dca0dd;stroke:#dca0dd"/>
<text text-anchor="middle" x="1258" y="570" style="font-family:arial">doi:1014/tube/jubilee_line</text>
</a></g>
<g id="edge67" class="edge"><title>:_11-&gt;doi:1014/tube/jubilee_line</title>
<a xlink:href="http://www2.elsevier.co.uk/~tony/1014/yads-schema-2002-04-03#resource" target="_blank" onmouseover="show_status('http://www2.elsevier.co.uk/~tony/1014/yads-schema-2002-04-03#resource');">
<path style="fill:none;stroke:#add9e6" d="M1252,494C1253,507 1254,524 1255,539"/>
<polygon style="fill:#add9e6;stroke:#add9e6" points="1252,538 1256,548 1257,538 1252,538"/>
<text text-anchor="middle" x="1297" y="525" style="font-family:arial">has:resource</text>
</a></g>
<g id="node71" class="node"><title>doi:1014/tube/metropolitan_li...e</title>
<a xlink:href="http://dx.doi.org/1014/tube/metropolitan_line" target="_blank" onmouseover="show_status('http://dx.doi.org/1014/tube/metropolitan_line');">
<ellipse cx="1443" cy="566" rx="88" ry="18" style="fill:#dca0dd;stroke:#dca0dd"/>
<text text-anchor="middle" x="1443" y="570" style="font-family:arial">doi:1014/tube/metropolitan_li...e</text>
</a></g>
<g id="edge70" class="edge"><title>:_12-&gt;doi:1014/tube/metropolitan_li...e</title>
<a xlink:href="http://www2.elsevier.co.uk/~tony/1014/yads-schema-2002-04-03#resource" target="_blank" onmouseover="show_status('http://www2.elsevier.co.uk/~tony/1014/yads-schema-2002-04-03#resource');">
<path style="fill:none;stroke:#add9e6" d="M1421,494C1425,507 1431,524 1435,539"/>
<polygon style="fill:#add9e6;stroke:#add9e6" points="1432,539 1438,548 1437,538 1432,539"/>
<text text-anchor="middle" x="1473" y="525" style="font-family:arial">has:resource</text>
</a></g>
<g id="node74" class="node"><title>doi:1014/tube/northern_line</title>
<a xlink:href="http://dx.doi.org/1014/tube/northern_line" target="_blank" onmouseover="show_status('http://dx.doi.org/1014/tube/northern_line');">
<ellipse cx="1634" cy="566" rx="79" ry="18" style="fill:#dca0dd;stroke:#dca0dd"/>
<text text-anchor="middle" x="1634" y="570" style="font-family:arial">doi:1014/tube/northern_line</text>
</a></g>
<g id="edge73" class="edge"><title>:_13-&gt;doi:1014/tube/northern_line</title>
<a xlink:href="http://www2.elsevier.co.uk/~tony/1014/yads-schema-2002-04-03#resource" target="_blank" onmouseover="show_status('http://www2.elsevier.co.uk/~tony/1014/yads-schema-2002-04-03#resource');">
<path style="fill:none;stroke:#add9e6" d="M1614,494C1617,507 1622,524 1626,539"/>
<polygon style="fill:#add9e6;stroke:#add9e6" points="1623,539 1629,548 1628,538 1623,539"/>
<text text-anchor="middle" x="1666" y="525" style="font-family:arial">has:resource</text>
</a></g>
<g id="node77" class="node"><title>doi:1014/tube/piccadilly_line</title>
<a xlink:href="http://dx.doi.org/1014/tube/piccadilly_line" target="_blank" onmouseover="show_status('http://dx.doi.org/1014/tube/piccadilly_line');">
<ellipse cx="1816" cy="566" rx="79" ry="18" style="fill:#dca0dd;stroke:#dca0dd"/>
<text text-anchor="middle" x="1816" y="570" style="font-family:arial">doi:1014/tube/piccadilly_line</text>
</a></g>
<g id="edge76" class="edge"><title>:_14-&gt;doi:1014/tube/piccadilly_line</title>
<a xlink:href="http://www2.elsevier.co.uk/~tony/1014/yads-schema-2002-04-03#resource" target="_blank" onmouseover="show_status('http://www2.elsevier.co.uk/~tony/1014/yads-schema-2002-04-03#resource');">
<path style="fill:none;stroke:#add9e6" d="M1796,494C1799,507 1804,524 1808,539"/>
<polygon style="fill:#add9e6;stroke:#add9e6" points="1805,539 1811,548 1810,538 1805,539"/>
<text text-anchor="middle" x="1848" y="525" style="font-family:arial">has:resource</text>
</a></g>
<g id="node80" class="node"><title>doi:1014/tube/victoria_line</title>
<a xlink:href="http://dx.doi.org/1014/tube/victoria_line" target="_blank" onmouseover="show_status('http://dx.doi.org/1014/tube/victoria_line');">
<ellipse cx="1994" cy="566" rx="75" ry="18" style="fill:#dca0dd;stroke:#dca0dd"/>
<text text-anchor="middle" x="1994" y="570" style="font-family:arial">doi:1014/tube/victoria_line</text>
</a></g>
<g id="edge79" class="edge"><title>:_15-&gt;doi:1014/tube/victoria_line</title>
<a xlink:href="http://www2.elsevier.co.uk/~tony/1014/yads-schema-2002-04-03#resource" target="_blank" onmouseover="show_status('http://www2.elsevier.co.uk/~tony/1014/yads-schema-2002-04-03#resource');">
<path style="fill:none;stroke:#add9e6" d="M1974,494C1977,507 1982,524 1986,539"/>
<polygon style="fill:#add9e6;stroke:#add9e6" points="1983,539 1989,548 1988,538 1983,539"/>
<text text-anchor="middle" x="2026" y="525" style="font-family:arial">has:resource</text>
</a></g>
<g id="node83" class="node"><title>doi:1014/tube/waterloo_&amp;_city...e</title>
<a xlink:href="http://dx.doi.org/1014/tube/waterloo_&amp;_city_line" target="_blank" onmouseover="show_status('http://dx.doi.org/1014/tube/waterloo_&amp;_city_line');">
<ellipse cx="2202" cy="566" rx="109" ry="18" style="fill:#dca0dd;stroke:#dca0dd"/>
<text text-anchor="middle" x="2202" y="570" style="font-family:arial">doi:1014/tube/waterloo_&amp;_city...e</text>
</a></g>
<g id="edge82" class="edge"><title>:_16-&gt;doi:1014/tube/waterloo_&amp;_city...e</title>
<a xlink:href="http://www2.elsevier.co.uk/~tony/1014/yads-schema-2002-04-03#resource" target="_blank" onmouseover="show_status('http://www2.elsevier.co.uk/~tony/1014/yads-schema-2002-04-03#resource');">
<path style="fill:none;stroke:#add9e6" d="M2171,494C2177,507 2184,525 2190,539"/>
<polygon style="fill:#add9e6;stroke:#add9e6" points="2188,540 2194,548 2192,538 2188,540"/>
<text text-anchor="middle" x="2228" y="525" style="font-family:arial">has:resource</text>
</a></g>
<g id="node94" class="node"><title>:_19</title>
<ellipse cx="2828" cy="476" rx="27" ry="18" style="fill:#eedb82;stroke:#eedb82"/>
<text text-anchor="middle" x="2828" y="480" style="font-family:arial">dlr:Line</text>
</g>
<g id="edge93" class="edge"><title>:_18-&gt;:_19</title>
<a xlink:href="http://www.w3.org/1999/02/22-rdf-syntax-ns#_1" target="_blank" onmouseover="show_status('http://www.w3.org/1999/02/22-rdf-syntax-ns#_1');">
<path style="fill:none;stroke:#add9e6" d="M2871,388C2862,405 2850,431 2840,451"/>
<polygon style="fill:#add9e6;stroke:#add9e6" points="2838,449 2836,459 2843,451 2838,449"/>
<text text-anchor="middle" x="2880" y="420" style="font-family:arial">rdf:_1</text>
</a></g>
<g id="node97" class="node"><title>doi:1014/tube/docklands_light...y</title>
<a xlink:href="http://dx.doi.org/1014/tube/docklands_light_railway" target="_blank" onmouseover="show_status('http://dx.doi.org/1014/tube/docklands_light_railway');">
<ellipse cx="2808" cy="566" rx="91" ry="18" style="fill:#dca0dd;stroke:#dca0dd"/>
<text text-anchor="middle" x="2808" y="570" style="font-family:arial">doi:1014/tube/docklands_light...y</text>
</a></g>
<g id="edge96" class="edge"><title>:_19-&gt;doi:1014/tube/docklands_light...y</title>
<a xlink:href="http://www2.elsevier.co.uk/~tony/1014/yads-schema-2002-04-03#resource" target="_blank" onmouseover="show_status('http://www2.elsevier.co.uk/~tony/1014/yads-schema-2002-04-03#resource');">
<path style="fill:none;stroke:#add9e6" d="M2824,494C2821,507 2817,524 2814,539"/>
<polygon style="fill:#add9e6;stroke:#add9e6" points="2812,538 2812,548 2817,539 2812,538"/>
<text text-anchor="middle" x="2860" y="525" style="font-family:arial">has:resource</text>
</a></g>
</g>
</svg>
