<?xml version="1.0" encoding="UTF-8" standalone="no"?>
<!DOCTYPE svg PUBLIC "-//W3C//DTD SVG 1.0//EN"
 "http://www.w3.org/TR/2001/REC-SVG-20010904/DTD/svg10.dtd" [
 <!ATTLIST svg xmlns:xlink CDATA #FIXED "http://www.w3.org/1999/xlink">
]>
<!-- Generated by dot version 1.8.5 (Tue Apr 23 17:19:23  2002)
     For user: (Administrator) ,S-1-5-21-1454471165-688789844-1708537768-500   Title: yads    Pages: 1 -->
<svg width="1646px" height="325px"
 xmlns="http://www.w3.org/2000/svg" xmlns:xlink="http://www.w3.org/1999/xlink">
<g id="graph0" class="graph" style="font-family:Times-Roman;font-size:11.00">
<title>yads</title>
<text text-anchor="middle" x="823" y="314" style="font-family:arial;font-size:24.00">YADS - A Description Service</text>
<g id="graph2" class="cluster"><title>cluster_2</title>
<polygon style="fill:none;stroke:#d2d2d2;stroke-dasharray:5,2" points="19,282 585,282 585,123 19,123 19,282"/>
<text text-anchor="middle" x="35" y="135" style="font-family:arial">Item</text>
</g>
<g id="graph3" class="cluster"><title>cluster_3</title>
<polygon style="fill:none;stroke:#d2d2d2;stroke-dasharray:5,2" points="593,282 1093,282 1093,123 593,123 593,282"/>
<text text-anchor="middle" x="609" y="135" style="font-family:arial">Item</text>
</g>
<g id="graph4" class="cluster"><title>cluster_4</title>
<polygon style="fill:none;stroke:#d2d2d2;stroke-dasharray:5,2" points="1101,282 1627,282 1627,123 1101,123 1101,282"/>
<text text-anchor="middle" x="1117" y="135" style="font-family:arial">Item</text>
</g>
<g id="node1" class="node"><title>:_1</title>
<a target="_blank" xlink:href="http://www.w3.org/1999/02/22-rdf-syntax-ns#Alt">
<ellipse cx="828" cy="61" rx="27" ry="18" style="fill:#d2d2d2;stroke:#d2d2d2"/>
<text text-anchor="middle" x="828" y="65" style="font-family:arial">rdf:Alt</text>
</a></g>
<g id="node3" class="node"><title>:_2</title>
<ellipse cx="417" cy="166" rx="33" ry="18" style="fill:#eedb82;stroke:#eedb82"/>
<text text-anchor="middle" x="417" y="170" style="font-family:arial">dlib:Mirror</text>
</g>
<g id="edge2" class="edge"><title>:_1-&gt;:_2</title>
<a target="_blank" xlink:href="http://www.w3.org/1999/02/22-rdf-syntax-ns#_1">
<path style="fill:none;stroke:#add9e6" d="M803,67C733,85 537,135 454,156"/>
<polygon style="fill:#add9e6;stroke:#add9e6" points="456,153 447,158 457,158 456,153"/>
<text text-anchor="middle" x="713" y="110" style="font-family:arial">rdf:_1</text>
</a></g>
<g id="node5" class="node"><title>:_3</title>
<ellipse cx="828" cy="166" rx="33" ry="18" style="fill:#eedb82;stroke:#eedb82"/>
<text text-anchor="middle" x="828" y="170" style="font-family:arial">dlib:Mirror</text>
</g>
<g id="edge4" class="edge"><title>:_1-&gt;:_3</title>
<a target="_blank" xlink:href="http://www.w3.org/1999/02/22-rdf-syntax-ns#_2">
<path style="fill:none;stroke:#add9e6" d="M828,79C828,95 828,120 828,139"/>
<polygon style="fill:#add9e6;stroke:#add9e6" points="826,138 828,148 831,138 826,138"/>
<text text-anchor="middle" x="849" y="110" style="font-family:arial">rdf:_2</text>
</a></g>
<g id="node7" class="node"><title>:_4</title>
<ellipse cx="1258" cy="166" rx="33" ry="18" style="fill:#eedb82;stroke:#eedb82"/>
<text text-anchor="middle" x="1258" y="170" style="font-family:arial">dlib:Mirror</text>
</g>
<g id="edge6" class="edge"><title>:_1-&gt;:_4</title>
<a target="_blank" xlink:href="http://www.w3.org/1999/02/22-rdf-syntax-ns#_3">
<path style="fill:none;stroke:#add9e6" d="M854,67C902,77 1008,101 1097,123 1140,134 1189,147 1221,156"/>
<polygon style="fill:#add9e6;stroke:#add9e6" points="1218,158 1228,158 1219,153 1218,158"/>
<text text-anchor="middle" x="1083" y="110" style="font-family:arial">rdf:_3</text>
</a></g>
<g id="node10" class="node"><title>http://www.dlib.org/dlib/july...l</title>
<a target="_blank" xlink:href="http://www.dlib.org/dlib/july01/07contents.html">
<ellipse cx="109" cy="256" rx="82" ry="18" style="fill:#dca0dd;stroke:#dca0dd"/>
<text text-anchor="middle" x="109" y="260" style="font-family:arial">http://www.dlib.org/dlib/july...l</text>
</a></g>
<g id="edge9" class="edge"><title>:_2-&gt;http://www.dlib.org/dlib/july...l</title>
<a target="_blank" xlink:href="http://www2.elsevier.co.uk/~tony/1014/yads-schema-2002-04-03#resource">
<path style="fill:none;stroke:#add9e6" d="M385,169C323,179 304,183 240,202 210,212 177,225 152,236"/>
<polygon style="fill:#add9e6;stroke:#add9e6" points="152,233 144,240 154,238 152,233"/>
<text text-anchor="middle" x="292" y="215" style="font-family:arial">has:resource</text>
</a></g>
<g id="node12" class="node"><title>node_2</title>
<polygon style="fill:#6497ed;stroke:#6497ed" points="311,238 209,238 209,274 311,274 311,238"/>
<text text-anchor="middle" x="260" y="260" style="font-family:arial">Origin site - USA.</text>
</g>
<g id="edge11" class="edge"><title>:_2-&gt;node_2</title>
<a target="_blank" xlink:href="http://www2.elsevier.co.uk/~tony/1014/yads-schema-2002-04-03#label">
<path style="fill:none;stroke:#add9e6" d="M394,179C369,194 328,217 298,234"/>
<polygon style="fill:#add9e6;stroke:#add9e6" points="299,230 292,238 302,235 299,230"/>
<text text-anchor="middle" x="385" y="215" style="font-family:arial">has:label</text>
</a></g>
<g id="node14" class="node"><title>node_3</title>
<polygon style="fill:#6497ed;stroke:#6497ed" points="505,238 329,238 329,274 505,274 505,238"/>
<text text-anchor="middle" x="417" y="260" style="font-family:arial">The Corporation for National ....</text>
</g>
<g id="edge13" class="edge"><title>:_2-&gt;node_3</title>
<a target="_blank" xlink:href="http://www2.elsevier.co.uk/~tony/1014/yads-schema-2002-04-03#detail">
<path style="fill:none;stroke:#add9e6" d="M417,184C417,197 417,214 417,229"/>
<polygon style="fill:#add9e6;stroke:#add9e6" points="415,228 417,238 420,228 415,228"/>
<text text-anchor="middle" x="446" y="215" style="font-family:arial">has:detail</text>
</a></g>
<g id="node16" class="node"><title>node_4</title>
<polygon style="fill:#6497ed;stroke:#6497ed" points="577,238 523,238 523,274 577,274 577,238"/>
<text text-anchor="middle" x="550" y="260" style="font-family:arial">:default</text>
</g>
<g id="edge15" class="edge"><title>:_2-&gt;node_4</title>
<a target="_blank" xlink:href="http://www2.elsevier.co.uk/~tony/1014/yads-schema-2002-04-03#access">
<path style="fill:none;stroke:#add9e6" d="M441,179C453,185 468,194 480,202 494,211 509,222 521,232"/>
<polygon style="fill:#add9e6;stroke:#add9e6" points="519,233 528,238 522,230 519,233"/>
<text text-anchor="middle" x="542" y="215" style="font-family:arial">has:access</text>
</a></g>
<g id="node19" class="node"><title>http://mirrored.ukoln.ac.uk/l...l</title>
<a target="_blank" xlink:href="http://mirrored.ukoln.ac.uk/lis-journals/dlib/dlib/dlib/july01/07contents.html">
<ellipse cx="682" cy="256" rx="81" ry="18" style="fill:#dca0dd;stroke:#dca0dd"/>
<text text-anchor="middle" x="682" y="260" style="font-family:arial">http://mirrored.ukoln.ac.uk/l...l</text>
</a></g>
<g id="edge18" class="edge"><title>:_3-&gt;http://mirrored.ukoln.ac.uk/l...l</title>
<a target="_blank" xlink:href="http://www2.elsevier.co.uk/~tony/1014/yads-schema-2002-04-03#resource">
<path style="fill:none;stroke:#add9e6" d="M800,176C783,182 761,191 743,202 730,211 717,222 706,232"/>
<polygon style="fill:#add9e6;stroke:#add9e6" points="705,230 699,238 708,233 705,230"/>
<text text-anchor="middle" x="790" y="215" style="font-family:arial">has:resource</text>
</a></g>
<g id="node21" class="node"><title>node_6</title>
<polygon style="fill:#6497ed;stroke:#6497ed" points="875,238 781,238 781,274 875,274 875,238"/>
<text text-anchor="middle" x="828" y="260" style="font-family:arial">Mirror site - UK.</text>
</g>
<g id="edge20" class="edge"><title>:_3-&gt;node_6</title>
<a target="_blank" xlink:href="http://www2.elsevier.co.uk/~tony/1014/yads-schema-2002-04-03#label">
<path style="fill:none;stroke:#add9e6" d="M828,184C828,197 828,214 828,229"/>
<polygon style="fill:#add9e6;stroke:#add9e6" points="826,228 828,238 831,228 826,228"/>
<text text-anchor="middle" x="855" y="215" style="font-family:arial">has:label</text>
</a></g>
<g id="node23" class="node"><title>node_7</title>
<polygon style="fill:#6497ed;stroke:#6497ed" points="1085,238 893,238 893,274 1085,274 1085,238"/>
<text text-anchor="middle" x="989" y="260" style="font-family:arial">UKOLN: The UK Office for Libr...d</text>
</g>
<g id="edge22" class="edge"><title>:_3-&gt;node_7</title>
<a target="_blank" xlink:href="http://www2.elsevier.co.uk/~tony/1014/yads-schema-2002-04-03#detail">
<path style="fill:none;stroke:#add9e6" d="M851,179C877,194 919,217 950,234"/>
<polygon style="fill:#add9e6;stroke:#add9e6" points="947,235 957,238 950,231 947,235"/>
<text text-anchor="middle" x="954" y="215" style="font-family:arial">has:detail</text>
</a></g>
<g id="node26" class="node"><title>http://sunsite.anu.edu.au/mir...l</title>
<a target="_blank" xlink:href="http://sunsite.anu.edu.au/mirrors/dlib/dlib/july01/07contents.html">
<ellipse cx="1193" cy="256" rx="84" ry="18" style="fill:#dca0dd;stroke:#dca0dd"/>
<text text-anchor="middle" x="1193" y="260" style="font-family:arial">http://sunsite.anu.edu.au/mir...l</text>
</a></g>
<g id="edge25" class="edge"><title>:_4-&gt;http://sunsite.anu.edu.au/mir...l</title>
<a target="_blank" xlink:href="http://www2.elsevier.co.uk/~tony/1014/yads-schema-2002-04-03#resource">
<path style="fill:none;stroke:#add9e6" d="M1246,183C1237,197 1223,215 1212,231"/>
<polygon style="fill:#add9e6;stroke:#add9e6" points="1211,229 1206,238 1214,232 1211,229"/>
<text text-anchor="middle" x="1273" y="215" style="font-family:arial">has:resource</text>
</a></g>
<g id="node28" class="node"><title>node_9</title>
<polygon style="fill:#6497ed;stroke:#6497ed" points="1419,238 1295,238 1295,274 1419,274 1419,238"/>
<text text-anchor="middle" x="1357" y="260" style="font-family:arial">Mirror site - Australia.</text>
</g>
<g id="edge27" class="edge"><title>:_4-&gt;node_9</title>
<a target="_blank" xlink:href="http://www2.elsevier.co.uk/~tony/1014/yads-schema-2002-04-03#label">
<path style="fill:none;stroke:#add9e6" d="M1282,178C1293,185 1307,193 1317,202 1326,211 1334,221 1341,231"/>
<polygon style="fill:#add9e6;stroke:#add9e6" points="1338,231 1346,238 1342,228 1338,231"/>
<text text-anchor="middle" x="1358" y="215" style="font-family:arial">has:label</text>
</a></g>
<g id="node30" class="node"><title>node_10</title>
<polygon style="fill:#6497ed;stroke:#6497ed" points="1619,238 1437,238 1437,274 1619,274 1619,238"/>
<text text-anchor="middle" x="1528" y="260" style="font-family:arial">The Australian National Unive...a</text>
</g>
<g id="edge29" class="edge"><title>:_4-&gt;node_10</title>
<a target="_blank" xlink:href="http://www2.elsevier.co.uk/~tony/1014/yads-schema-2002-04-03#detail">
<path style="fill:none;stroke:#add9e6" d="M1290,170C1360,185 1435,215 1482,235"/>
<polygon style="fill:#add9e6;stroke:#add9e6" points="1478,236 1488,238 1480,231 1478,236"/>
<text text-anchor="middle" x="1471" y="215" style="font-family:arial">has:detail</text>
</a></g>
</g>
</svg>
