<!-- Generated by dot version 1.8.5 (Tue Apr 23 17:19:23  2002)
     For user: (Administrator) ,S-1-5-21-1454471165-688789844-1708537768-500   Title: yads    Pages: 1 -->
<svg width="1919px" height="700px"
 xmlns="http://www.w3.org/2000/svg" xmlns:xlink="http://www.w3.org/1999/xlink">
<g id="graph0" class="graph" style="font-family:Times-Roman;font-size:11.00">
<title>yads</title>
<text text-anchor="middle" x="959" y="689" style="font-family:arial;font-size:24.00">YADS - A Description Service</text>
<g id="graph2" class="cluster"><title>cluster_6</title>
<polygon style="fill:none;stroke:#d2d2d2;stroke-dasharray:5,2" points="19,657 227,657 227,498 19,498 19,657"/>
<text text-anchor="middle" x="35" y="510" style="font-family:arial">Item</text>
</g>
<g id="graph3" class="cluster"><title>cluster_7</title>
<polygon style="fill:none;stroke:#d2d2d2;stroke-dasharray:5,2" points="235,657 445,657 445,498 235,498 235,657"/>
<text text-anchor="middle" x="251" y="510" style="font-family:arial">Item</text>
</g>
<g id="graph4" class="cluster"><title>cluster_10</title>
<polygon style="fill:none;stroke:#d2d2d2;stroke-dasharray:5,2" points="1334,462 1900,462 1900,303 1334,303 1334,462"/>
<text text-anchor="middle" x="1350" y="315" style="font-family:arial">Item</text>
</g>
<g id="graph5" class="cluster"><title>cluster_11</title>
<polygon style="fill:none;stroke:#d2d2d2;stroke-dasharray:5,2" points="292,462 792,462 792,303 292,303 292,462"/>
<text text-anchor="middle" x="308" y="315" style="font-family:arial">Item</text>
</g>
<g id="graph6" class="cluster"><title>cluster_12</title>
<polygon style="fill:none;stroke:#d2d2d2;stroke-dasharray:5,2" points="800,462 1326,462 1326,303 800,303 800,462"/>
<text text-anchor="middle" x="816" y="315" style="font-family:arial">Item</text>
</g>
<g id="node1" class="node"><title>:_1</title>
<a target="_blank" xlink:href="http://www.w3.org/1999/02/22-rdf-syntax-ns#Bag">
<ellipse cx="698" cy="61" rx="28" ry="18" style="fill:#d2d2d2;stroke:#d2d2d2"/>
<text text-anchor="middle" x="698" y="65" style="font-family:arial">rdf:Bag</text>
</a></g>
<g id="node3" class="node"><title>:_2</title>
<a target="_blank" xlink:href="http://www2.elsevier.co.uk/~tony/1014/yads-schema-2002-04-03#Item">
<ellipse cx="603" cy="151" rx="28" ry="18" style="fill:#d2d2d2;stroke:#d2d2d2"/>
<text text-anchor="middle" x="603" y="155" style="font-family:arial">isa:Item</text>
</a></g>
<g id="edge2" class="edge"><title>:_1-&gt;:_2</title>
<a target="_blank" xlink:href="http://www.w3.org/1999/02/22-rdf-syntax-ns#_1">
<path style="fill:none;stroke:#add9e6" d="M682,76C666,91 642,113 625,130"/>
<polygon style="fill:#add9e6;stroke:#add9e6" points="624,127 619,136 628,131 624,127"/>
<text text-anchor="middle" x="683" y="110" style="font-family:arial">rdf:_1</text>
</a></g>
<g id="node5" class="node"><title>:_8</title>
<a target="_blank" xlink:href="http://www2.elsevier.co.uk/~tony/1014/yads-schema-2002-04-03#Item">
<ellipse cx="771" cy="151" rx="28" ry="18" style="fill:#d2d2d2;stroke:#d2d2d2"/>
<text text-anchor="middle" x="771" y="155" style="font-family:arial">isa:Item</text>
</a></g>
<g id="edge4" class="edge"><title>:_1-&gt;:_8</title>
<a target="_blank" xlink:href="http://www.w3.org/1999/02/22-rdf-syntax-ns#_2">
<path style="fill:none;stroke:#add9e6" d="M711,77C722,91 740,111 752,128"/>
<polygon style="fill:#add9e6;stroke:#add9e6" points="750,129 758,135 753,126 750,129"/>
<text text-anchor="middle" x="763" y="110" style="font-family:arial">rdf:_2</text>
</a></g>
<g id="node7" class="node"><title>:_3</title>
<a target="_blank" xlink:href="http://www.w3.org/1999/02/22-rdf-syntax-ns#Seq">
<ellipse cx="400" cy="241" rx="28" ry="18" style="fill:#d2d2d2;stroke:#d2d2d2"/>
<text text-anchor="middle" x="400" y="245" style="font-family:arial">rdf:Seq</text>
</a></g>
<g id="edge6" class="edge"><title>:_2-&gt;:_3</title>
<a target="_blank" xlink:href="http://www2.elsevier.co.uk/~tony/1014/yads-schema-2002-04-03#collection">
<path style="fill:none;stroke:#add9e6" d="M580,161C563,168 539,178 518,187 488,200 455,216 431,227"/>
<polygon style="fill:#add9e6;stroke:#add9e6" points="431,224 423,230 433,229 431,224"/>
<text text-anchor="middle" x="567" y="200" style="font-family:arial">has:collection</text>
</a></g>
<g id="node9" class="node"><title>node_3</title>
<polygon style="fill:#6497ed;stroke:#6497ed" points="692,223 514,223 514,259 692,259 692,223"/>
<text text-anchor="middle" x="603" y="245" style="font-family:arial">Table of Contents for July 20....</text>
</g>
<g id="edge8" class="edge"><title>:_2-&gt;node_3</title>
<a target="_blank" xlink:href="http://www2.elsevier.co.uk/~tony/1014/yads-schema-2002-04-03#detail">
<path style="fill:none;stroke:#add9e6" d="M603,169C603,182 603,199 603,214"/>
<polygon style="fill:#add9e6;stroke:#add9e6" points="601,213 603,223 606,213 601,213"/>
<text text-anchor="middle" x="632" y="200" style="font-family:arial">has:detail</text>
</a></g>
<g id="node25" class="node"><title>:_9</title>
<a target="_blank" xlink:href="http://www.w3.org/1999/02/22-rdf-syntax-ns#Alt">
<ellipse cx="771" cy="241" rx="27" ry="18" style="fill:#d2d2d2;stroke:#d2d2d2"/>
<text text-anchor="middle" x="771" y="245" style="font-family:arial">rdf:Alt</text>
</a></g>
<g id="edge24" class="edge"><title>:_8-&gt;:_9</title>
<a target="_blank" xlink:href="http://www2.elsevier.co.uk/~tony/1014/yads-schema-2002-04-03#collection">
<path style="fill:none;stroke:#add9e6" d="M771,169C771,182 771,199 771,214"/>
<polygon style="fill:#add9e6;stroke:#add9e6" points="769,213 771,223 774,213 769,213"/>
<text text-anchor="middle" x="812" y="200" style="font-family:arial">has:collection</text>
</a></g>
<g id="node27" class="node"><title>node_14</title>
<polygon style="fill:#6497ed;stroke:#6497ed" points="970,223 816,223 816,259 970,259 970,223"/>
<text text-anchor="middle" x="893" y="245" style="font-family:arial">Origin and mirror websites.</text>
</g>
<g id="edge26" class="edge"><title>:_8-&gt;node_14</title>
<a target="_blank" xlink:href="http://www2.elsevier.co.uk/~tony/1014/yads-schema-2002-04-03#detail">
<path style="fill:none;stroke:#add9e6" d="M797,158C815,164 839,173 856,187 865,195 874,205 880,215"/>
<polygon style="fill:#add9e6;stroke:#add9e6" points="877,215 884,223 882,213 877,215"/>
<text text-anchor="middle" x="902" y="200" style="font-family:arial">has:detail</text>
</a></g>
<g id="node11" class="node"><title>:_4</title>
<a target="_blank" xlink:href="http://www2.elsevier.co.uk/~tony/1014/yads-schema-2002-04-03#Item">
<ellipse cx="230" cy="346" rx="28" ry="18" style="fill:#d2d2d2;stroke:#d2d2d2"/>
<text text-anchor="middle" x="230" y="350" style="font-family:arial">isa:Item</text>
</a></g>
<g id="edge10" class="edge"><title>:_3-&gt;:_4</title>
<a target="_blank" xlink:href="http://www.w3.org/1999/02/22-rdf-syntax-ns#_1">
<path style="fill:none;stroke:#add9e6" d="M378,252C355,264 318,284 288,303 278,310 266,319 256,326"/>
<polygon style="fill:#add9e6;stroke:#add9e6" points="255,324 248,332 257,328 255,324"/>
<text text-anchor="middle" x="355" y="290" style="font-family:arial">rdf:_1</text>
</a></g>
<g id="node13" class="node"><title>:_5</title>
<a target="_blank" xlink:href="http://www.w3.org/1999/02/22-rdf-syntax-ns#Bag">
<ellipse cx="203" cy="436" rx="28" ry="18" style="fill:#d2d2d2;stroke:#d2d2d2"/>
<text text-anchor="middle" x="203" y="440" style="font-family:arial">rdf:Bag</text>
</a></g>
<g id="edge12" class="edge"><title>:_4-&gt;:_5</title>
<a target="_blank" xlink:href="http://www2.elsevier.co.uk/~tony/1014/yads-schema-2002-04-03#collection">
<path style="fill:none;stroke:#add9e6" d="M217,362C213,368 209,375 207,382 204,390 203,400 202,408"/>
<polygon style="fill:#add9e6;stroke:#add9e6" points="200,408 202,418 205,408 200,408"/>
<text text-anchor="middle" x="251" y="395" style="font-family:arial">has:collection</text>
</a></g>
<g id="node15" class="node"><title>:_6</title>
<ellipse cx="141" cy="541" rx="43" ry="18" style="fill:#eedb82;stroke:#eedb82"/>
<text text-anchor="middle" x="141" y="545" style="font-family:arial">dlib:TitleString</text>
</g>
<g id="edge14" class="edge"><title>:_5-&gt;:_6</title>
<a target="_blank" xlink:href="http://www.w3.org/1999/02/22-rdf-syntax-ns#_1">
<path style="fill:none;stroke:#add9e6" d="M193,453C183,470 168,496 156,515"/>
<polygon style="fill:#add9e6;stroke:#add9e6" points="154,513 152,523 159,515 154,513"/>
<text text-anchor="middle" x="202" y="485" style="font-family:arial">rdf:_1</text>
</a></g>
<g id="node17" class="node"><title>:_7</title>
<ellipse cx="317" cy="541" rx="51" ry="18" style="fill:#eedb82;stroke:#eedb82"/>
<text text-anchor="middle" x="317" y="545" style="font-family:arial">dlib:AuthorString</text>
</g>
<g id="edge16" class="edge"><title>:_5-&gt;:_7</title>
<a target="_blank" xlink:href="http://www.w3.org/1999/02/22-rdf-syntax-ns#_2">
<path style="fill:none;stroke:#add9e6" d="M219,451C238,468 269,497 291,518"/>
<polygon style="fill:#add9e6;stroke:#add9e6" points="289,519 298,524 292,516 289,519"/>
<text text-anchor="middle" x="283" y="485" style="font-family:arial">rdf:_2</text>
</a></g>
<g id="node20" class="node"><title>data:Generalizing the OpenURL...l</title>
<a target="_blank" xlink:href="data:Generalizing the OpenURL Framework beyond References to Scholarly Works: The Bison-Fute Model">
<ellipse cx="123" cy="631" rx="96" ry="18" style="fill:#dca0dd;stroke:#dca0dd"/>
<text text-anchor="middle" x="123" y="635" style="font-family:arial">data:Generalizing the OpenURL...l</text>
</a></g>
<g id="edge19" class="edge"><title>:_6-&gt;data:Generalizing the OpenURL...l</title>
<a target="_blank" xlink:href="http://www2.elsevier.co.uk/~tony/1014/yads-schema-2002-04-03#resource">
<path style="fill:none;stroke:#add9e6" d="M137,559C135,572 131,589 129,604"/>
<polygon style="fill:#add9e6;stroke:#add9e6" points="127,603 127,613 132,604 127,603"/>
<text text-anchor="middle" x="176" y="590" style="font-family:arial">has:resource</text>
</a></g>
<g id="node23" class="node"><title>data:Herbert Van de Sompel, C....</title>
<a target="_blank" xlink:href="data:Herbert Van de Sompel, Cornell University and Oren Beit-Arie, Ex Libris (USA) Inc.">
<ellipse cx="340" cy="631" rx="97" ry="18" style="fill:#dca0dd;stroke:#dca0dd"/>
<text text-anchor="middle" x="340" y="635" style="font-family:arial">data:Herbert Van de Sompel, C....</text>
</a></g>
<g id="edge22" class="edge"><title>:_7-&gt;data:Herbert Van de Sompel, C....</title>
<a target="_blank" xlink:href="http://www2.elsevier.co.uk/~tony/1014/yads-schema-2002-04-03#resource">
<path style="fill:none;stroke:#add9e6" d="M322,559C325,572 329,589 333,604"/>
<polygon style="fill:#add9e6;stroke:#add9e6" points="330,604 335,613 335,603 330,604"/>
<text text-anchor="middle" x="373" y="590" style="font-family:arial">has:resource</text>
</a></g>
<g id="node29" class="node"><title>:_10</title>
<ellipse cx="1575" cy="346" rx="33" ry="18" style="fill:#eedb82;stroke:#eedb82"/>
<text text-anchor="middle" x="1575" y="350" style="font-family:arial">dlib:Mirror</text>
</g>
<g id="edge28" class="edge"><title>:_9-&gt;:_10</title>
<a target="_blank" xlink:href="http://www.w3.org/1999/02/22-rdf-syntax-ns#_1">
<path style="fill:none;stroke:#add9e6" d="M797,247C802,251 802,256 809,259 863,283 1273,296 1330,303 1403,313 1486,329 1534,338"/>
<polygon style="fill:#add9e6;stroke:#add9e6" points="1534,340 1544,340 1535,336 1534,340"/>
<text text-anchor="middle" x="1202" y="290" style="font-family:arial">rdf:_1</text>
</a></g>
<g id="node31" class="node"><title>:_11</title>
<ellipse cx="585" cy="346" rx="33" ry="18" style="fill:#eedb82;stroke:#eedb82"/>
<text text-anchor="middle" x="585" y="350" style="font-family:arial">dlib:Mirror</text>
</g>
<g id="edge30" class="edge"><title>:_9-&gt;:_11</title>
<a target="_blank" xlink:href="http://www.w3.org/1999/02/22-rdf-syntax-ns#_2">
<path style="fill:none;stroke:#add9e6" d="M750,253C717,272 654,307 616,329"/>
<polygon style="fill:#add9e6;stroke:#add9e6" points="616,326 608,333 618,331 616,326"/>
<text text-anchor="middle" x="728" y="290" style="font-family:arial">rdf:_2</text>
</a></g>
<g id="node33" class="node"><title>:_12</title>
<ellipse cx="957" cy="346" rx="33" ry="18" style="fill:#eedb82;stroke:#eedb82"/>
<text text-anchor="middle" x="957" y="350" style="font-family:arial">dlib:Mirror</text>
</g>
<g id="edge32" class="edge"><title>:_9-&gt;:_12</title>
<a target="_blank" xlink:href="http://www.w3.org/1999/02/22-rdf-syntax-ns#_3">
<path style="fill:none;stroke:#add9e6" d="M792,253C825,272 888,307 926,329"/>
<polygon style="fill:#add9e6;stroke:#add9e6" points="924,331 934,333 926,326 924,331"/>
<text text-anchor="middle" x="887" y="290" style="font-family:arial">rdf:_3</text>
</a></g>
<g id="node36" class="node"><title>http://www.dlib.org/dlib/july...l</title>
<a target="_blank" xlink:href="http://www.dlib.org/dlib/july01/07contents.html">
<ellipse cx="1424" cy="436" rx="82" ry="18" style="fill:#dca0dd;stroke:#dca0dd"/>
<text text-anchor="middle" x="1424" y="440" style="font-family:arial">http://www.dlib.org/dlib/july...l</text>
</a></g>
<g id="edge35" class="edge"><title>:_10-&gt;http://www.dlib.org/dlib/july...l</title>
<a target="_blank" xlink:href="http://www2.elsevier.co.uk/~tony/1014/yads-schema-2002-04-03#resource">
<path style="fill:none;stroke:#add9e6" d="M1547,356C1530,362 1508,371 1490,382 1476,391 1462,402 1450,412"/>
<polygon style="fill:#add9e6;stroke:#add9e6" points="1449,410 1443,418 1452,413 1449,410"/>
<text text-anchor="middle" x="1537" y="395" style="font-family:arial">has:resource</text>
</a></g>
<g id="node38" class="node"><title>node_5</title>
<polygon style="fill:#6497ed;stroke:#6497ed" points="1626,418 1524,418 1524,454 1626,454 1626,418"/>
<text text-anchor="middle" x="1575" y="440" style="font-family:arial">Origin site - USA.</text>
</g>
<g id="edge37" class="edge"><title>:_10-&gt;node_5</title>
<a target="_blank" xlink:href="http://www2.elsevier.co.uk/~tony/1014/yads-schema-2002-04-03#label">
<path style="fill:none;stroke:#add9e6" d="M1575,364C1575,377 1575,394 1575,409"/>
<polygon style="fill:#add9e6;stroke:#add9e6" points="1573,408 1575,418 1578,408 1573,408"/>
<text text-anchor="middle" x="1602" y="395" style="font-family:arial">has:label</text>
</a></g>
<g id="node40" class="node"><title>node_6</title>
<polygon style="fill:#6497ed;stroke:#6497ed" points="1820,418 1644,418 1644,454 1820,454 1820,418"/>
<text text-anchor="middle" x="1732" y="440" style="font-family:arial">The Corporation for National ....</text>
</g>
<g id="edge39" class="edge"><title>:_10-&gt;node_6</title>
<a target="_blank" xlink:href="http://www2.elsevier.co.uk/~tony/1014/yads-schema-2002-04-03#detail">
<path style="fill:none;stroke:#add9e6" d="M1598,359C1623,374 1664,397 1694,414"/>
<polygon style="fill:#add9e6;stroke:#add9e6" points="1690,415 1700,418 1693,410 1690,415"/>
<text text-anchor="middle" x="1696" y="395" style="font-family:arial">has:detail</text>
</a></g>
<g id="node42" class="node"><title>node_7</title>
<polygon style="fill:#6497ed;stroke:#6497ed" points="1892,418 1838,418 1838,454 1892,454 1892,418"/>
<text text-anchor="middle" x="1865" y="440" style="font-family:arial">:default</text>
</g>
<g id="edge41" class="edge"><title>:_10-&gt;node_7</title>
<a target="_blank" xlink:href="http://www2.elsevier.co.uk/~tony/1014/yads-schema-2002-04-03#access">
<path style="fill:none;stroke:#add9e6" d="M1607,350C1705,368 1733,377 1829,418"/>
<polygon style="fill:#add9e6;stroke:#add9e6" points="1828,420 1838,422 1830,416 1828,420"/>
<text text-anchor="middle" x="1819" y="395" style="font-family:arial">has:access</text>
</a></g>
<g id="node45" class="node"><title>http://mirrored.ukoln.ac.uk/l...l</title>
<a target="_blank" xlink:href="http://mirrored.ukoln.ac.uk/lis-journals/dlib/dlib/dlib/july01/07contents.html">
<ellipse cx="381" cy="436" rx="81" ry="18" style="fill:#dca0dd;stroke:#dca0dd"/>
<text text-anchor="middle" x="381" y="440" style="font-family:arial">http://mirrored.ukoln.ac.uk/l...l</text>
</a></g>
<g id="edge44" class="edge"><title>:_11-&gt;http://mirrored.ukoln.ac.uk/l...l</title>
<a target="_blank" xlink:href="http://www2.elsevier.co.uk/~tony/1014/yads-schema-2002-04-03#resource">
<path style="fill:none;stroke:#add9e6" d="M561,359C559,361 556,363 552,364 517,380 503,368 467,382 448,390 428,403 411,414"/>
<polygon style="fill:#add9e6;stroke:#add9e6" points="411,411 404,419 414,415 411,411"/>
<text text-anchor="middle" x="517" y="395" style="font-family:arial">has:resource</text>
</a></g>
<g id="node47" class="node"><title>node_9</title>
<polygon style="fill:#6497ed;stroke:#6497ed" points="574,418 480,418 480,454 574,454 574,418"/>
<text text-anchor="middle" x="527" y="440" style="font-family:arial">Mirror site - UK.</text>
</g>
<g id="edge46" class="edge"><title>:_11-&gt;node_9</title>
<a target="_blank" xlink:href="http://www2.elsevier.co.uk/~tony/1014/yads-schema-2002-04-03#label">
<path style="fill:none;stroke:#add9e6" d="M574,363C566,377 553,395 544,410"/>
<polygon style="fill:#add9e6;stroke:#add9e6" points="542,408 539,418 546,411 542,408"/>
<text text-anchor="middle" x="589" y="395" style="font-family:arial">has:label</text>
</a></g>
<g id="node49" class="node"><title>node_10</title>
<polygon style="fill:#6497ed;stroke:#6497ed" points="784,418 592,418 592,454 784,454 784,418"/>
<text text-anchor="middle" x="688" y="440" style="font-family:arial">UKOLN: The UK Office for Libr...d</text>
</g>
<g id="edge48" class="edge"><title>:_11-&gt;node_10</title>
<a target="_blank" xlink:href="http://www2.elsevier.co.uk/~tony/1014/yads-schema-2002-04-03#detail">
<path style="fill:none;stroke:#add9e6" d="M603,362C619,375 642,395 660,412"/>
<polygon style="fill:#add9e6;stroke:#add9e6" points="658,413 667,418 661,410 658,413"/>
<text text-anchor="middle" x="676" y="395" style="font-family:arial">has:detail</text>
</a></g>
<g id="node52" class="node"><title>http://sunsite.anu.edu.au/mir...l</title>
<a target="_blank" xlink:href="http://sunsite.anu.edu.au/mirrors/dlib/dlib/july01/07contents.html">
<ellipse cx="892" cy="436" rx="84" ry="18" style="fill:#dca0dd;stroke:#dca0dd"/>
<text text-anchor="middle" x="892" y="440" style="font-family:arial">http://sunsite.anu.edu.au/mir...l</text>
</a></g>
<g id="edge51" class="edge"><title>:_12-&gt;http://sunsite.anu.edu.au/mir...l</title>
<a target="_blank" xlink:href="http://www2.elsevier.co.uk/~tony/1014/yads-schema-2002-04-03#resource">
<path style="fill:none;stroke:#add9e6" d="M945,363C936,377 922,395 911,411"/>
<polygon style="fill:#add9e6;stroke:#add9e6" points="910,409 905,418 913,412 910,409"/>
<text text-anchor="middle" x="972" y="395" style="font-family:arial">has:resource</text>
</a></g>
<g id="node54" class="node"><title>node_12</title>
<polygon style="fill:#6497ed;stroke:#6497ed" points="1118,418 994,418 994,454 1118,454 1118,418"/>
<text text-anchor="middle" x="1056" y="440" style="font-family:arial">Mirror site - Australia.</text>
</g>
<g id="edge53" class="edge"><title>:_12-&gt;node_12</title>
<a target="_blank" xlink:href="http://www2.elsevier.co.uk/~tony/1014/yads-schema-2002-04-03#label">
<path style="fill:none;stroke:#add9e6" d="M981,358C993,365 1006,373 1016,382 1025,391 1034,401 1040,411"/>
<polygon style="fill:#add9e6;stroke:#add9e6" points="1037,411 1045,418 1041,408 1037,411"/>
<text text-anchor="middle" x="1060" y="395" style="font-family:arial">has:label</text>
</a></g>
<g id="node56" class="node"><title>node_13</title>
<polygon style="fill:#6497ed;stroke:#6497ed" points="1318,418 1136,418 1136,454 1318,454 1318,418"/>
<text text-anchor="middle" x="1227" y="440" style="font-family:arial">The Australian National Unive...a</text>
</g>
<g id="edge55" class="edge"><title>:_12-&gt;node_13</title>
<a target="_blank" xlink:href="http://www2.elsevier.co.uk/~tony/1014/yads-schema-2002-04-03#detail">
<path style="fill:none;stroke:#add9e6" d="M989,350C1058,364 1131,393 1178,414"/>
<polygon style="fill:#add9e6;stroke:#add9e6" points="1178,417 1188,418 1180,412 1178,417"/>
<text text-anchor="middle" x="1173" y="395" style="font-family:arial">has:detail</text>
</a></g>
</g>
</svg>
