<?xml version="1.0" encoding="UTF-8" standalone="no"?>
<!DOCTYPE svg PUBLIC "-//W3C//DTD SVG 1.0//EN"
 "http://www.w3.org/TR/2001/REC-SVG-20010904/DTD/svg10.dtd" [
 <!ATTLIST svg xmlns:xlink CDATA #FIXED "http://www.w3.org/1999/xlink">
]>
<!-- Generated by dot version 1.8.5 (Tue Apr 23 17:19:23  2002)
     For user: (Administrator) ,S-1-5-21-1454471165-688789844-1708537768-500   Title: yads    Pages: 1 -->
<svg width="1884px" height="794px"
 xmlns="http://www.w3.org/2000/svg" xmlns:xlink="http://www.w3.org/1999/xlink">
<g id="graph0" class="graph" style="font-family:Times-Roman;font-size:11.00">
<title>yads</title>
<text text-anchor="middle" x="942" y="783" style="font-family:arial;font-size:24.00">YADS - A Description Service</text>
<g id="graph2" class="cluster"><title>cluster_1</title>
<polygon style="fill:none;stroke:#d2d2d2;stroke-dasharray:5,2" points="19,751 1865,751 1865,43 19,43 19,751"/>
<text text-anchor="middle" x="74" y="55" style="font-family:arial">Item - Deliverables</text>
</g>
<g id="graph3" class="cluster"><title>cluster_3</title>
<polygon style="fill:none;stroke:#d2d2d2;stroke-dasharray:5,2" points="27,522 201,522 201,244 27,244 27,522"/>
<text text-anchor="middle" x="74" y="256" style="font-family:arial">Item - Identifiers</text>
</g>
<g id="graph4" class="cluster"><title>cluster_5</title>
<polygon style="fill:none;stroke:#d2d2d2;stroke-dasharray:5,2" points="38,514 108,514 108,439 38,439 38,514"/>
<text text-anchor="middle" x="54" y="451" style="font-family:arial">Item</text>
</g>
<g id="graph5" class="cluster"><title>cluster_6</title>
<polygon style="fill:none;stroke:#d2d2d2;stroke-dasharray:5,2" points="116,514 186,514 186,439 116,439 116,514"/>
<text text-anchor="middle" x="132" y="451" style="font-family:arial">Item</text>
</g>
<g id="graph6" class="cluster"><title>cluster_7</title>
<polygon style="fill:none;stroke:#d2d2d2;stroke-dasharray:5,2" points="209,743 805,743 805,244 209,244 209,743"/>
<text text-anchor="middle" x="257" y="256" style="font-family:arial">Item - Metadata</text>
</g>
<g id="graph7" class="cluster"><title>cluster_9</title>
<polygon style="fill:none;stroke:#d2d2d2;stroke-dasharray:5,2" points="217,735 405,735 405,442 217,442 217,735"/>
<text text-anchor="middle" x="233" y="454" style="font-family:arial">Item</text>
</g>
<g id="graph8" class="cluster"><title>cluster_11</title>
<polygon style="fill:none;stroke:#d2d2d2;stroke-dasharray:5,2" points="225,727 305,727 305,652 225,652 225,727"/>
<text text-anchor="middle" x="241" y="664" style="font-family:arial">Item</text>
</g>
<g id="graph9" class="cluster"><title>cluster_12</title>
<polygon style="fill:none;stroke:#d2d2d2;stroke-dasharray:5,2" points="313,727 397,727 397,652 313,652 313,727"/>
<text text-anchor="middle" x="329" y="664" style="font-family:arial">Item</text>
</g>
<g id="graph10" class="cluster"><title>cluster_13</title>
<polygon style="fill:none;stroke:#d2d2d2;stroke-dasharray:5,2" points="413,735 601,735 601,442 413,442 413,735"/>
<text text-anchor="middle" x="429" y="454" style="font-family:arial">Item</text>
</g>
<g id="graph11" class="cluster"><title>cluster_15</title>
<polygon style="fill:none;stroke:#d2d2d2;stroke-dasharray:5,2" points="421,727 501,727 501,652 421,652 421,727"/>
<text text-anchor="middle" x="437" y="664" style="font-family:arial">Item</text>
</g>
<g id="graph12" class="cluster"><title>cluster_16</title>
<polygon style="fill:none;stroke:#d2d2d2;stroke-dasharray:5,2" points="509,727 593,727 593,652 509,652 509,727"/>
<text text-anchor="middle" x="525" y="664" style="font-family:arial">Item</text>
</g>
<g id="graph13" class="cluster"><title>cluster_17</title>
<polygon style="fill:none;stroke:#d2d2d2;stroke-dasharray:5,2" points="609,735 797,735 797,442 609,442 609,735"/>
<text text-anchor="middle" x="625" y="454" style="font-family:arial">Item</text>
</g>
<g id="graph14" class="cluster"><title>cluster_19</title>
<polygon style="fill:none;stroke:#d2d2d2;stroke-dasharray:5,2" points="617,727 697,727 697,652 617,652 617,727"/>
<text text-anchor="middle" x="633" y="664" style="font-family:arial">Item</text>
</g>
<g id="graph15" class="cluster"><title>cluster_20</title>
<polygon style="fill:none;stroke:#d2d2d2;stroke-dasharray:5,2" points="705,727 789,727 789,652 705,652 705,727"/>
<text text-anchor="middle" x="721" y="664" style="font-family:arial">Item</text>
</g>
<g id="graph16" class="cluster"><title>cluster_21</title>
<polygon style="fill:none;stroke:#d2d2d2;stroke-dasharray:5,2" points="813,519 1155,519 1155,244 813,244 813,519"/>
<text text-anchor="middle" x="862" y="256" style="font-family:arial">Item - OpenURL</text>
</g>
<g id="graph17" class="cluster"><title>cluster_23</title>
<polygon style="fill:none;stroke:#d2d2d2;stroke-dasharray:5,2" points="821,511 923,511 923,442 821,442 821,511"/>
<text text-anchor="middle" x="837" y="454" style="font-family:arial">Item</text>
</g>
<g id="graph18" class="cluster"><title>cluster_24</title>
<polygon style="fill:none;stroke:#d2d2d2;stroke-dasharray:5,2" points="931,511 1025,511 1025,442 931,442 931,511"/>
<text text-anchor="middle" x="947" y="454" style="font-family:arial">Item</text>
</g>
<g id="graph19" class="cluster"><title>cluster_25</title>
<polygon style="fill:none;stroke:#d2d2d2;stroke-dasharray:5,2" points="1033,511 1147,511 1147,442 1033,442 1033,511"/>
<text text-anchor="middle" x="1049" y="454" style="font-family:arial">Item</text>
</g>
<g id="graph20" class="cluster"><title>cluster_26</title>
<polygon style="fill:none;stroke:#d2d2d2;stroke-dasharray:5,2" points="1163,618 1857,618 1857,244 1163,244 1163,618"/>
<text text-anchor="middle" x="1216" y="256" style="font-family:arial">Item - Publications</text>
</g>
<g id="graph21" class="cluster"><title>cluster_28</title>
<polygon style="fill:none;stroke:#d2d2d2;stroke-dasharray:5,2" points="1171,610 1339,610 1339,442 1171,442 1171,610"/>
<text text-anchor="middle" x="1187" y="454" style="font-family:arial">Item</text>
</g>
<g id="graph22" class="cluster"><title>cluster_29</title>
<polygon style="fill:none;stroke:#d2d2d2;stroke-dasharray:5,2" points="1347,610 1529,610 1529,442 1347,442 1347,610"/>
<text text-anchor="middle" x="1363" y="454" style="font-family:arial">Item</text>
</g>
<g id="graph23" class="cluster"><title>cluster_30</title>
<polygon style="fill:none;stroke:#d2d2d2;stroke-dasharray:5,2" points="1537,610 1723,610 1723,442 1537,442 1537,610"/>
<text text-anchor="middle" x="1553" y="454" style="font-family:arial">Item</text>
</g>
<g id="graph24" class="cluster"><title>cluster_31</title>
<polygon style="fill:none;stroke:#d2d2d2;stroke-dasharray:5,2" points="1731,610 1849,610 1849,442 1731,442 1731,610"/>
<text text-anchor="middle" x="1747" y="454" style="font-family:arial">Item</text>
</g>
<g id="node2" class="node"><title>:_1</title>
<ellipse cx="680" cy="89" rx="43" ry="21" style="fill:#eedb82;stroke:#eedb82"/>
<text text-anchor="middle" x="680" y="87" style="font-family:arial">Deliverables</text>
<text text-anchor="middle" x="680" y="100" style="font-family:arial">2003</text>
</g>
<g id="node4" class="node"><title>:_2</title>
<a xlink:href="rdf#Bag">
<ellipse cx="680" cy="182" rx="28" ry="18" style="fill:#d2d2d2;stroke:#d2d2d2"/>
<text text-anchor="middle" x="680" y="186" style="font-family:arial">rdf:Bag</text>
</a></g>
<g id="edge3" class="edge"><title>:_1-&gt;:_2</title>
<a xlink:href="yads#collection">
<path style="fill:none;stroke:#add9e6" d="M680,110C680,124 680,141 680,155"/>
<polygon style="fill:#add9e6;stroke:#add9e6" points="678,154 680,164 683,154 678,154"/>
<text text-anchor="middle" x="721" y="141" style="font-family:arial">has:collection</text>
</a></g>
<g id="node6" class="node"><title>:_3</title>
<ellipse cx="112" cy="287" rx="33" ry="18" style="fill:#eedb82;stroke:#eedb82"/>
<text text-anchor="middle" x="112" y="291" style="font-family:arial">Identifiers</text>
</g>
<g id="edge5" class="edge"><title>:_2-&gt;:_3</title>
<a xlink:href="rdf#_1">
<path style="fill:none;stroke:#add9e6" d="M652,183C578,185 370,196 205,244 183,250 161,261 143,270"/>
<polygon style="fill:#add9e6;stroke:#add9e6" points="143,267 135,274 145,272 143,267"/>
<text text-anchor="middle" x="346" y="231" style="font-family:arial">rdf:_1</text>
</a></g>
<g id="node8" class="node"><title>:_7</title>
<ellipse cx="594" cy="287" rx="35" ry="18" style="fill:#eedb82;stroke:#eedb82"/>
<text text-anchor="middle" x="594" y="291" style="font-family:arial">Metadata</text>
</g>
<g id="edge7" class="edge"><title>:_2-&gt;:_7</title>
<a xlink:href="rdf#_2">
<path style="fill:none;stroke:#add9e6" d="M667,198C653,215 630,243 614,263"/>
<polygon style="fill:#add9e6;stroke:#add9e6" points="613,261 608,270 616,264 613,261"/>
<text text-anchor="middle" x="672" y="231" style="font-family:arial">rdf:_2</text>
</a></g>
<g id="node10" class="node"><title>:_21</title>
<ellipse cx="878" cy="287" rx="35" ry="18" style="fill:#eedb82;stroke:#eedb82"/>
<text text-anchor="middle" x="878" y="291" style="font-family:arial">OpenURL</text>
</g>
<g id="edge9" class="edge"><title>:_2-&gt;:_21</title>
<a xlink:href="rdf#_3">
<path style="fill:none;stroke:#add9e6" d="M703,192C730,204 773,225 809,244 822,251 837,260 848,268"/>
<polygon style="fill:#add9e6;stroke:#add9e6" points="846,270 856,273 849,266 846,270"/>
<text text-anchor="middle" x="815" y="231" style="font-family:arial">rdf:_3</text>
</a></g>
<g id="node12" class="node"><title>:_26</title>
<ellipse cx="1282" cy="287" rx="40" ry="18" style="fill:#eedb82;stroke:#eedb82"/>
<text text-anchor="middle" x="1282" y="291" style="font-family:arial">Publications</text>
</g>
<g id="edge11" class="edge"><title>:_2-&gt;:_26</title>
<a xlink:href="rdf#_4">
<path style="fill:none;stroke:#add9e6" d="M708,184C782,188 991,204 1159,244 1189,251 1221,262 1244,272"/>
<polygon style="fill:#add9e6;stroke:#add9e6" points="1242,274 1252,275 1244,269 1242,274"/>
<text text-anchor="middle" x="1139" y="231" style="font-family:arial">rdf:_4</text>
</a></g>
<g id="node15" class="node"><title>node_7</title>
<polygon style="fill:#6497ed;stroke:#6497ed" points="89,359 35,359 35,395 89,395 89,359"/>
<text text-anchor="middle" x="62" y="381" style="font-family:arial">IETF</text>
</g>
<g id="edge14" class="edge"><title>:_3-&gt;node_7</title>
<a xlink:href="yads#detail">
<path style="fill:none;stroke:#add9e6" d="M86,298C75,304 64,312 58,323 54,331 54,341 55,350"/>
<polygon style="fill:#add9e6;stroke:#add9e6" points="52,349 56,359 57,349 52,349"/>
<text text-anchor="middle" x="90" y="336" style="font-family:arial">has:detail</text>
</a></g>
<g id="node17" class="node"><title>:_4</title>
<a xlink:href="rdf#Bag">
<ellipse cx="135" cy="377" rx="28" ry="18" style="fill:#d2d2d2;stroke:#d2d2d2"/>
<text text-anchor="middle" x="135" y="381" style="font-family:arial">rdf:Bag</text>
</a></g>
<g id="edge16" class="edge"><title>:_3-&gt;:_4</title>
<a xlink:href="yads#collection">
<path style="fill:none;stroke:#add9e6" d="M116,305C118,316 121,329 124,341 125,344 126,347 127,349"/>
<polygon style="fill:#add9e6;stroke:#add9e6" points="125,350 129,359 129,349 125,350"/>
<text text-anchor="middle" x="165" y="336" style="font-family:arial">has:collection</text>
</a></g>
<g id="node26" class="node"><title>node_15</title>
<polygon style="fill:#6497ed;stroke:#6497ed" points="548,359 398,359 398,395 548,395 548,359"/>
<text text-anchor="middle" x="473" y="381" style="font-family:arial">Lists: rss_dev, rdf-interest</text>
</g>
<g id="edge25" class="edge"><title>:_7-&gt;node_15</title>
<a xlink:href="yads#detail">
<path style="fill:none;stroke:#add9e6" d="M569,300C557,306 543,314 531,323 520,332 507,343 497,353"/>
<polygon style="fill:#add9e6;stroke:#add9e6" points="496,351 490,359 499,354 496,351"/>
<text text-anchor="middle" x="566" y="336" style="font-family:arial">has:detail</text>
</a></g>
<g id="node28" class="node"><title>:_8</title>
<a xlink:href="rdf#Bag">
<ellipse cx="594" cy="377" rx="28" ry="18" style="fill:#d2d2d2;stroke:#d2d2d2"/>
<text text-anchor="middle" x="594" y="381" style="font-family:arial">rdf:Bag</text>
</a></g>
<g id="edge27" class="edge"><title>:_7-&gt;:_8</title>
<a xlink:href="yads#collection">
<path style="fill:none;stroke:#add9e6" d="M594,305C594,318 594,335 594,350"/>
<polygon style="fill:#add9e6;stroke:#add9e6" points="592,349 594,359 597,349 592,349"/>
<text text-anchor="middle" x="635" y="336" style="font-family:arial">has:collection</text>
</a></g>
<g id="node64" class="node"><title>node_40</title>
<polygon style="fill:#6497ed;stroke:#6497ed" points="905,359 851,359 851,395 905,395 905,359"/>
<text text-anchor="middle" x="878" y="381" style="font-family:arial">NISO</text>
</g>
<g id="edge63" class="edge"><title>:_21-&gt;node_40</title>
<a xlink:href="yads#detail">
<path style="fill:none;stroke:#add9e6" d="M878,305C878,318 878,335 878,350"/>
<polygon style="fill:#add9e6;stroke:#add9e6" points="876,349 878,359 881,349 876,349"/>
<text text-anchor="middle" x="907" y="336" style="font-family:arial">has:detail</text>
</a></g>
<g id="node66" class="node"><title>:_22</title>
<a xlink:href="rdf#Bag">
<ellipse cx="972" cy="377" rx="28" ry="18" style="fill:#d2d2d2;stroke:#d2d2d2"/>
<text text-anchor="middle" x="972" y="381" style="font-family:arial">rdf:Bag</text>
</a></g>
<g id="edge65" class="edge"><title>:_21-&gt;:_22</title>
<a xlink:href="yads#collection">
<path style="fill:none;stroke:#add9e6" d="M905,299C917,305 931,313 941,323 950,332 956,342 961,352"/>
<polygon style="fill:#add9e6;stroke:#add9e6" points="958,352 965,360 963,350 958,352"/>
<text text-anchor="middle" x="996" y="336" style="font-family:arial">has:collection</text>
</a></g>
<g id="node78" class="node"><title>node_50</title>
<polygon style="fill:#6497ed;stroke:#6497ed" points="1332,359 1232,359 1232,395 1332,395 1332,359"/>
<text text-anchor="middle" x="1282" y="381" style="font-family:arial">XML, DLib, W3C</text>
</g>
<g id="edge77" class="edge"><title>:_26-&gt;node_50</title>
<a xlink:href="yads#detail">
<path style="fill:none;stroke:#add9e6" d="M1282,305C1282,318 1282,335 1282,350"/>
<polygon style="fill:#add9e6;stroke:#add9e6" points="1280,349 1282,359 1285,349 1280,349"/>
<text text-anchor="middle" x="1311" y="336" style="font-family:arial">has:detail</text>
</a></g>
<g id="node80" class="node"><title>:_27</title>
<a xlink:href="rdf#Bag">
<ellipse cx="1438" cy="377" rx="28" ry="18" style="fill:#d2d2d2;stroke:#d2d2d2"/>
<text text-anchor="middle" x="1438" y="381" style="font-family:arial">rdf:Bag</text>
</a></g>
<g id="edge79" class="edge"><title>:_26-&gt;:_27</title>
<a xlink:href="yads#collection">
<path style="fill:none;stroke:#add9e6" d="M1307,301C1319,308 1333,316 1345,323 1367,335 1391,350 1410,361"/>
<polygon style="fill:#add9e6;stroke:#add9e6" points="1407,362 1417,365 1410,358 1407,362"/>
<text text-anchor="middle" x="1418" y="336" style="font-family:arial">has:collection</text>
</a></g>
<g id="node19" class="node"><title>:_5</title>
<ellipse cx="73" cy="485" rx="27" ry="21" style="fill:#eedb82;stroke:#eedb82"/>
<text text-anchor="middle" x="73" y="483" style="font-family:arial">RFC</text>
<text text-anchor="middle" x="73" y="496" style="font-family:arial">doi:</text>
</g>
<g id="edge18" class="edge"><title>:_4-&gt;:_5</title>
<a xlink:href="rdf#_1">
<path style="fill:none;stroke:#add9e6" d="M117,391C111,398 103,405 98,413 90,426 84,442 80,455"/>
<polygon style="fill:#add9e6;stroke:#add9e6" points="78,454 78,464 83,455 78,454"/>
<text text-anchor="middle" x="121" y="426" style="font-family:arial">rdf:_1</text>
</a></g>
<g id="node21" class="node"><title>:_6</title>
<ellipse cx="151" cy="485" rx="27" ry="21" style="fill:#eedb82;stroke:#eedb82"/>
<text text-anchor="middle" x="151" y="483" style="font-family:arial">RFC</text>
<text text-anchor="middle" x="151" y="496" style="font-family:arial">niso:</text>
</g>
<g id="edge20" class="edge"><title>:_4-&gt;:_6</title>
<a xlink:href="rdf#_2">
<path style="fill:none;stroke:#add9e6" d="M138,395C140,411 144,436 147,455"/>
<polygon style="fill:#add9e6;stroke:#add9e6" points="144,454 148,464 149,454 144,454"/>
<text text-anchor="middle" x="164" y="426" style="font-family:arial">rdf:_2</text>
</a></g>
<g id="node30" class="node"><title>:_9</title>
<ellipse cx="343" cy="485" rx="27" ry="18" style="fill:#eedb82;stroke:#eedb82"/>
<text text-anchor="middle" x="343" y="489" style="font-family:arial">PRISM</text>
</g>
<g id="edge29" class="edge"><title>:_8-&gt;:_9</title>
<a xlink:href="rdf#_1">
<path style="fill:none;stroke:#add9e6" d="M571,388C568,390 564,393 557,395 494,422 471,410 409,439 394,446 379,457 367,466"/>
<polygon style="fill:#add9e6;stroke:#add9e6" points="367,463 360,471 370,467 367,463"/>
<text text-anchor="middle" x="529" y="426" style="font-family:arial">rdf:_1</text>
</a></g>
<g id="node32" class="node"><title>:_13</title>
<ellipse cx="535" cy="485" rx="35" ry="18" style="fill:#eedb82;stroke:#eedb82"/>
<text text-anchor="middle" x="535" y="489" style="font-family:arial">OpenURL</text>
</g>
<g id="edge31" class="edge"><title>:_8-&gt;:_13</title>
<a xlink:href="rdf#_2">
<path style="fill:none;stroke:#add9e6" d="M585,394C575,412 560,439 549,459"/>
<polygon style="fill:#add9e6;stroke:#add9e6" points="547,457 545,467 552,459 547,457"/>
<text text-anchor="middle" x="597" y="426" style="font-family:arial">rdf:_2</text>
</a></g>
<g id="node34" class="node"><title>:_17</title>
<ellipse cx="654" cy="485" rx="36" ry="18" style="fill:#eedb82;stroke:#eedb82"/>
<text text-anchor="middle" x="654" y="489" style="font-family:arial">CrossRef</text>
</g>
<g id="edge33" class="edge"><title>:_8-&gt;:_17</title>
<a xlink:href="rdf#_3">
<path style="fill:none;stroke:#add9e6" d="M608,393C613,399 619,406 623,413 632,428 639,445 645,459"/>
<polygon style="fill:#add9e6;stroke:#add9e6" points="642,459 648,467 647,457 642,459"/>
<text text-anchor="middle" x="655" y="426" style="font-family:arial">rdf:_3</text>
</a></g>
<g id="node37" class="node"><title>:_10</title>
<a xlink:href="rdf#Bag">
<ellipse cx="316" cy="584" rx="28" ry="18" style="fill:#d2d2d2;stroke:#d2d2d2"/>
<text text-anchor="middle" x="316" y="588" style="font-family:arial">rdf:Bag</text>
</a></g>
<g id="edge36" class="edge"><title>:_9-&gt;:_10</title>
<a xlink:href="yads#collection">
<path style="fill:none;stroke:#add9e6" d="M337,503C334,511 331,521 328,530 326,539 324,548 322,557"/>
<polygon style="fill:#add9e6;stroke:#add9e6" points="320,556 320,566 325,557 320,556"/>
<text text-anchor="middle" x="372" y="543" style="font-family:arial">has:collection</text>
</a></g>
<g id="node46" class="node"><title>:_14</title>
<a xlink:href="rdf#Bag">
<ellipse cx="512" cy="584" rx="28" ry="18" style="fill:#d2d2d2;stroke:#d2d2d2"/>
<text text-anchor="middle" x="512" y="588" style="font-family:arial">rdf:Bag</text>
</a></g>
<g id="edge45" class="edge"><title>:_13-&gt;:_14</title>
<a xlink:href="yads#collection">
<path style="fill:none;stroke:#add9e6" d="M531,503C529,511 526,521 524,530 522,539 520,548 518,557"/>
<polygon style="fill:#add9e6;stroke:#add9e6" points="516,556 516,566 521,557 516,556"/>
<text text-anchor="middle" x="568" y="543" style="font-family:arial">has:collection</text>
</a></g>
<g id="node55" class="node"><title>:_18</title>
<a xlink:href="rdf#Bag">
<ellipse cx="657" cy="584" rx="28" ry="18" style="fill:#d2d2d2;stroke:#d2d2d2"/>
<text text-anchor="middle" x="657" y="588" style="font-family:arial">rdf:Bag</text>
</a></g>
<g id="edge54" class="edge"><title>:_17-&gt;:_18</title>
<a xlink:href="yads#collection">
<path style="fill:none;stroke:#add9e6" d="M655,503C655,518 656,540 656,557"/>
<polygon style="fill:#add9e6;stroke:#add9e6" points="654,556 656,566 659,556 654,556"/>
<text text-anchor="middle" x="698" y="543" style="font-family:arial">has:collection</text>
</a></g>
<g id="node39" class="node"><title>:_11</title>
<ellipse cx="265" cy="698" rx="32" ry="21" style="fill:#eedb82;stroke:#eedb82"/>
<text text-anchor="middle" x="265" y="696" style="font-family:arial">RSS 1.0</text>
<text text-anchor="middle" x="265" y="709" style="font-family:arial">prism:</text>
</g>
<g id="edge38" class="edge"><title>:_10-&gt;:_11</title>
<a xlink:href="rdf#_1">
<path style="fill:none;stroke:#add9e6" d="M304,600C298,608 292,617 288,626 281,640 276,656 272,669"/>
<polygon style="fill:#add9e6;stroke:#add9e6" points="270,667 270,677 275,668 270,667"/>
<text text-anchor="middle" x="311" y="639" style="font-family:arial">rdf:_1</text>
</a></g>
<g id="node41" class="node"><title>:_12</title>
<ellipse cx="355" cy="698" rx="34" ry="21" style="fill:#eedb82;stroke:#eedb82"/>
<text text-anchor="middle" x="355" y="696" style="font-family:arial">RDF</text>
<text text-anchor="middle" x="355" y="709" style="font-family:arial">Schema</text>
</g>
<g id="edge40" class="edge"><title>:_10-&gt;:_12</title>
<a xlink:href="rdf#_2">
<path style="fill:none;stroke:#add9e6" d="M322,602C328,619 337,648 345,669"/>
<polygon style="fill:#add9e6;stroke:#add9e6" points="342,669 348,677 347,667 342,669"/>
<text text-anchor="middle" x="357" y="639" style="font-family:arial">rdf:_2</text>
</a></g>
<g id="node48" class="node"><title>:_15</title>
<ellipse cx="461" cy="698" rx="32" ry="21" style="fill:#eedb82;stroke:#eedb82"/>
<text text-anchor="middle" x="461" y="696" style="font-family:arial">RSS 1.0</text>
<text text-anchor="middle" x="461" y="709" style="font-family:arial">open:</text>
</g>
<g id="edge47" class="edge"><title>:_14-&gt;:_15</title>
<a xlink:href="rdf#_1">
<path style="fill:none;stroke:#add9e6" d="M500,600C494,608 488,617 484,626 477,640 472,656 468,669"/>
<polygon style="fill:#add9e6;stroke:#add9e6" points="466,667 466,677 471,668 466,667"/>
<text text-anchor="middle" x="507" y="639" style="font-family:arial">rdf:_1</text>
</a></g>
<g id="node50" class="node"><title>:_16</title>
<ellipse cx="551" cy="698" rx="34" ry="21" style="fill:#eedb82;stroke:#eedb82"/>
<text text-anchor="middle" x="551" y="696" style="font-family:arial">RDF</text>
<text text-anchor="middle" x="551" y="709" style="font-family:arial">Schema</text>
</g>
<g id="edge49" class="edge"><title>:_14-&gt;:_16</title>
<a xlink:href="rdf#_2">
<path style="fill:none;stroke:#add9e6" d="M518,602C524,619 533,648 541,669"/>
<polygon style="fill:#add9e6;stroke:#add9e6" points="538,669 544,677 543,667 538,669"/>
<text text-anchor="middle" x="553" y="639" style="font-family:arial">rdf:_2</text>
</a></g>
<g id="node57" class="node"><title>:_19</title>
<ellipse cx="657" cy="698" rx="32" ry="21" style="fill:#eedb82;stroke:#eedb82"/>
<text text-anchor="middle" x="657" y="696" style="font-family:arial">RSS 1.0</text>
<text text-anchor="middle" x="657" y="709" style="font-family:arial">xref:</text>
</g>
<g id="edge56" class="edge"><title>:_18-&gt;:_19</title>
<a xlink:href="rdf#_1">
<path style="fill:none;stroke:#add9e6" d="M657,602C657,619 657,646 657,668"/>
<polygon style="fill:#add9e6;stroke:#add9e6" points="655,667 657,677 660,667 655,667"/>
<text text-anchor="middle" x="677" y="639" style="font-family:arial">rdf:_1</text>
</a></g>
<g id="node59" class="node"><title>:_20</title>
<ellipse cx="747" cy="698" rx="34" ry="21" style="fill:#eedb82;stroke:#eedb82"/>
<text text-anchor="middle" x="747" y="696" style="font-family:arial">RDF</text>
<text text-anchor="middle" x="747" y="709" style="font-family:arial">Schema</text>
</g>
<g id="edge58" class="edge"><title>:_18-&gt;:_20</title>
<a xlink:href="rdf#_2">
<path style="fill:none;stroke:#add9e6" d="M674,599C683,606 693,616 701,626 713,640 724,657 732,670"/>
<polygon style="fill:#add9e6;stroke:#add9e6" points="729,670 736,678 734,668 729,670"/>
<text text-anchor="middle" x="737" y="639" style="font-family:arial">rdf:_2</text>
</a></g>
<g id="node68" class="node"><title>:_23</title>
<ellipse cx="872" cy="485" rx="43" ry="18" style="fill:#eedb82;stroke:#eedb82"/>
<text text-anchor="middle" x="872" y="489" style="font-family:arial">Z39.88-2003</text>
</g>
<g id="edge67" class="edge"><title>:_22-&gt;:_23</title>
<a xlink:href="rdf#_1">
<path style="fill:none;stroke:#add9e6" d="M955,392C948,398 939,406 932,413 917,428 903,447 891,461"/>
<polygon style="fill:#add9e6;stroke:#add9e6" points="890,458 886,468 894,461 890,458"/>
<text text-anchor="middle" x="955" y="426" style="font-family:arial">rdf:_1</text>
</a></g>
<g id="node70" class="node"><title>:_24</title>
<ellipse cx="978" cy="485" rx="39" ry="18" style="fill:#eedb82;stroke:#eedb82"/>
<text text-anchor="middle" x="978" y="489" style="font-family:arial">DC Format</text>
</g>
<g id="edge69" class="edge"><title>:_22-&gt;:_24</title>
<a xlink:href="rdf#_2">
<path style="fill:none;stroke:#add9e6" d="M973,395C974,412 975,438 977,458"/>
<polygon style="fill:#add9e6;stroke:#add9e6" points="975,457 977,467 980,457 975,457"/>
<text text-anchor="middle" x="997" y="426" style="font-family:arial">rdf:_2</text>
</a></g>
<g id="node72" class="node"><title>:_25</title>
<ellipse cx="1090" cy="485" rx="49" ry="18" style="fill:#eedb82;stroke:#eedb82"/>
<text text-anchor="middle" x="1090" y="489" style="font-family:arial">PRISM Format</text>
</g>
<g id="edge71" class="edge"><title>:_22-&gt;:_25</title>
<a xlink:href="rdf#_3">
<path style="fill:none;stroke:#add9e6" d="M992,390C1002,396 1014,405 1023,413 1040,428 1058,446 1071,461"/>
<polygon style="fill:#add9e6;stroke:#add9e6" points="1068,461 1076,468 1072,458 1068,461"/>
<text text-anchor="middle" x="1064" y="426" style="font-family:arial">rdf:_3</text>
</a></g>
<g id="node82" class="node"><title>:_28</title>
<ellipse cx="1281" cy="485" rx="35" ry="18" style="fill:#eedb82;stroke:#eedb82"/>
<text text-anchor="middle" x="1281" y="489" style="font-family:arial">XML.com</text>
</g>
<g id="edge81" class="edge"><title>:_27-&gt;:_28</title>
<a xlink:href="rdf#_1">
<path style="fill:none;stroke:#add9e6" d="M1418,390C1399,402 1369,422 1343,439 1332,447 1319,456 1308,465"/>
<polygon style="fill:#add9e6;stroke:#add9e6" points="1308,462 1301,470 1311,466 1308,462"/>
<text text-anchor="middle" x="1406" y="426" style="font-family:arial">rdf:_1</text>
</a></g>
<g id="node84" class="node"><title>:_29</title>
<ellipse cx="1438" cy="485" rx="27" ry="18" style="fill:#eedb82;stroke:#eedb82"/>
<text text-anchor="middle" x="1438" y="489" style="font-family:arial">DLib</text>
</g>
<g id="edge83" class="edge"><title>:_27-&gt;:_29</title>
<a xlink:href="rdf#_2">
<path style="fill:none;stroke:#add9e6" d="M1438,395C1438,412 1438,438 1438,458"/>
<polygon style="fill:#add9e6;stroke:#add9e6" points="1436,457 1438,467 1441,457 1436,457"/>
<text text-anchor="middle" x="1459" y="426" style="font-family:arial">rdf:_2</text>
</a></g>
<g id="node86" class="node"><title>:_30</title>
<ellipse cx="1607" cy="485" rx="39" ry="18" style="fill:#eedb82;stroke:#eedb82"/>
<text text-anchor="middle" x="1607" y="489" style="font-family:arial">W3C Note</text>
</g>
<g id="edge85" class="edge"><title>:_27-&gt;:_30</title>
<a xlink:href="rdf#_3">
<path style="fill:none;stroke:#add9e6" d="M1458,390C1488,409 1543,444 1577,466"/>
<polygon style="fill:#add9e6;stroke:#add9e6" points="1574,467 1584,470 1577,463 1574,467"/>
<text text-anchor="middle" x="1544" y="426" style="font-family:arial">rdf:_3</text>
</a></g>
<g id="node88" class="node"><title>:_31</title>
<ellipse cx="1777" cy="485" rx="30" ry="18" style="fill:#eedb82;stroke:#eedb82"/>
<text text-anchor="middle" x="1777" y="489" style="font-family:arial">Elsevier</text>
</g>
<g id="edge87" class="edge"><title>:_27-&gt;:_31</title>
<a xlink:href="rdf#_4">
<path style="fill:none;stroke:#add9e6" d="M1466,378C1520,381 1640,394 1727,439 1738,445 1748,454 1757,462"/>
<polygon style="fill:#add9e6;stroke:#add9e6" points="1755,463 1763,469 1758,460 1755,463"/>
<text text-anchor="middle" x="1730" y="426" style="font-family:arial">rdf:_4</text>
</a></g>
<g id="node91" class="node"><title>node_54</title>
<polygon style="fill:#6497ed;stroke:#6497ed" points="1331,566 1179,566 1179,602 1331,602 1331,566"/>
<text text-anchor="middle" x="1255" y="582" style="font-family:arial">What's the Point of RSS?</text>
<text text-anchor="middle" x="1255" y="595" style="font-family:arial">Cre...y</text>
</g>
<g id="edge90" class="edge"><title>:_28-&gt;node_54</title>
<a xlink:href="yads#label">
<path style="fill:none;stroke:#add9e6" d="M1276,503C1273,518 1267,540 1262,557"/>
<polygon style="fill:#add9e6;stroke:#add9e6" points="1260,556 1260,566 1265,557 1260,556"/>
<text text-anchor="middle" x="1298" y="543" style="font-family:arial">has:label</text>
</a></g>
<g id="node94" class="node"><title>node_57</title>
<polygon style="fill:#6497ed;stroke:#6497ed" points="1521,566 1355,566 1355,602 1521,602 1521,566"/>
<text text-anchor="middle" x="1438" y="588" style="font-family:arial">Using OpenURL ... Differently</text>
</g>
<g id="edge93" class="edge"><title>:_29-&gt;node_57</title>
<a xlink:href="yads#label">
<path style="fill:none;stroke:#add9e6" d="M1438,503C1438,518 1438,540 1438,557"/>
<polygon style="fill:#add9e6;stroke:#add9e6" points="1436,556 1438,566 1441,556 1436,556"/>
<text text-anchor="middle" x="1465" y="543" style="font-family:arial">has:label</text>
</a></g>
<g id="node97" class="node"><title>node_60</title>
<polygon style="fill:#6497ed;stroke:#6497ed" points="1715,566 1545,566 1545,602 1715,602 1715,566"/>
<text text-anchor="middle" x="1630" y="588" style="font-family:arial">OpenURL Framework Primer</text>
</g>
<g id="edge96" class="edge"><title>:_30-&gt;node_60</title>
<a xlink:href="yads#label">
<path style="fill:none;stroke:#add9e6" d="M1611,503C1614,518 1620,540 1624,557"/>
<polygon style="fill:#add9e6;stroke:#add9e6" points="1621,557 1626,566 1626,556 1621,557"/>
<text text-anchor="middle" x="1650" y="543" style="font-family:arial">has:label</text>
</a></g>
<g id="node100" class="node"><title>node_63</title>
<polygon style="fill:#6497ed;stroke:#6497ed" points="1841,566 1739,566 1739,602 1841,602 1841,566"/>
<text text-anchor="middle" x="1790" y="588" style="font-family:arial">DOI White Paper</text>
</g>
<g id="edge99" class="edge"><title>:_31-&gt;node_63</title>
<a xlink:href="yads#label">
<path style="fill:none;stroke:#add9e6" d="M1779,503C1781,518 1784,540 1787,557"/>
<polygon style="fill:#add9e6;stroke:#add9e6" points="1784,556 1788,566 1789,556 1784,556"/>
<text text-anchor="middle" x="1811" y="543" style="font-family:arial">has:label</text>
</a></g>
</g>
</svg>
