<?xml version="1.0" encoding="UTF-8" standalone="no"?>
<!DOCTYPE svg PUBLIC "-//W3C//DTD SVG 1.0//EN"
 "http://www.w3.org/TR/2001/REC-SVG-20010904/DTD/svg10.dtd" [
 <!ATTLIST svg xmlns:xlink CDATA #FIXED "http://www.w3.org/1999/xlink">
]>
<!-- Generated by dot version 1.8.5 (Tue Apr 23 17:19:23  2002)
     For user: (Administrator) ,S-1-5-21-1454471165-688789844-1708537768-500   Title: yads    Pages: 1 -->
<svg width="670px" height="651px"
 xmlns="http://www.w3.org/2000/svg" xmlns:xlink="http://www.w3.org/1999/xlink">
<g id="graph0" class="graph" style="font-family:Times-Roman;font-size:11.00">
<title>yads</title>
<text text-anchor="middle" x="335" y="640" style="font-family:arial;font-size:24.00">YADS - A Description Service</text>
<g id="graph2" class="cluster"><title>cluster_1</title>
<polygon style="fill:none;stroke:#d2d2d2;stroke-dasharray:5,2" points="19,608 651,608 651,43 19,43 19,608"/>
<text text-anchor="middle" x="100" y="55" style="font-family:arial">Nest - Article/Suppl. Material</text>
</g>
<g id="graph3" class="cluster"><title>cluster_3</title>
<polygon style="fill:none;stroke:#d2d2d2;stroke-dasharray:5,2" points="27,600 643,600 643,238 27,238 27,600"/>
<text text-anchor="middle" x="80" y="250" style="font-family:arial">Nest - DOI Profile</text>
</g>
<g id="graph4" class="cluster"><title>cluster_5</title>
<polygon style="fill:none;stroke:#d2d2d2;stroke-dasharray:5,2" points="35,592 437,592 437,433 35,433 35,592"/>
<text text-anchor="middle" x="74" y="445" style="font-family:arial">Item - Article</text>
</g>
<g id="graph5" class="cluster"><title>cluster_6</title>
<polygon style="fill:none;stroke:#d2d2d2;stroke-dasharray:5,2" points="445,592 635,592 635,433 445,433 445,592"/>
<text text-anchor="middle" x="506" y="445" style="font-family:arial">Item - Suppl. Material</text>
</g>
<g id="node2" class="node"><title>:_1</title>
<a xlink:href="http://www2.elsevier.co.uk/~tony/1014/yads-schema-2002-04-03#Nest" target="_blank" onmouseover="show_status('http://www2.elsevier.co.uk/~tony/1014/yads-schema-2002-04-03#Nest');">
<ellipse cx="191" cy="86" rx="29" ry="18" style="fill:#d2d2d2;stroke:#d2d2d2"/>
<text text-anchor="middle" x="191" y="90" style="font-family:arial">isa:Nest</text>
</a></g>
<g id="node4" class="node"><title>doi:10.1006/asle.2000.0016</title>
<a xlink:href="http://dx.doi.org/10.1006/asle.2000.0016" target="_blank" onmouseover="show_status('http://dx.doi.org/10.1006/asle.2000.0016');">
<ellipse cx="136" cy="176" rx="76" ry="18" style="fill:#dca0dd;stroke:#dca0dd"/>
<text text-anchor="middle" x="136" y="180" style="font-family:arial">doi:10.1006/asle.2000.0016</text>
</a></g>
<g id="edge3" class="edge"><title>:_1-&gt;doi:10.1006/asle.2000.0016</title>
<a xlink:href="http://www2.elsevier.co.uk/~tony/1014/yads-schema-2002-04-03#resource" target="_blank" onmouseover="show_status('http://www2.elsevier.co.uk/~tony/1014/yads-schema-2002-04-03#resource');">
<path style="fill:none;stroke:#add9e6" d="M180,103C176,109 171,116 167,122 162,131 156,141 151,150"/>
<polygon style="fill:#add9e6;stroke:#add9e6" points="149,148 146,158 153,151 149,148"/>
<text text-anchor="middle" x="211" y="135" style="font-family:arial">has:resource</text>
</a></g>
<g id="node6" class="node"><title>:_2</title>
<a xlink:href="http://www.w3.org/1999/02/22-rdf-syntax-ns#Bag" target="_blank" onmouseover="show_status('http://www.w3.org/1999/02/22-rdf-syntax-ns#Bag');">
<ellipse cx="258" cy="176" rx="28" ry="18" style="fill:#d2d2d2;stroke:#d2d2d2"/>
<text text-anchor="middle" x="258" y="180" style="font-family:arial">rdf:Bag</text>
</a></g>
<g id="edge5" class="edge"><title>:_1-&gt;:_2</title>
<a xlink:href="http://www2.elsevier.co.uk/~tony/1014/yads-schema-2002-04-03#collection" target="_blank" onmouseover="show_status('http://www2.elsevier.co.uk/~tony/1014/yads-schema-2002-04-03#collection');">
<path style="fill:none;stroke:#add9e6" d="M216,95C229,101 244,109 252,122 257,130 260,140 260,149"/>
<polygon style="fill:#add9e6;stroke:#add9e6" points="258,148 260,158 263,148 258,148"/>
<text text-anchor="middle" x="302" y="135" style="font-family:arial">has:collection</text>
</a></g>
<g id="node8" class="node"><title>:_3</title>
<ellipse cx="258" cy="281" rx="34" ry="18" style="fill:#eedb82;stroke:#eedb82"/>
<text text-anchor="middle" x="258" y="285" style="font-family:arial">doi:Profile</text>
</g>
<g id="edge7" class="edge"><title>:_2-&gt;:_3</title>
<a xlink:href="http://www.w3.org/1999/02/22-rdf-syntax-ns#_1" target="_blank" onmouseover="show_status('http://www.w3.org/1999/02/22-rdf-syntax-ns#_1');">
<path style="fill:none;stroke:#add9e6" d="M258,194C258,210 258,235 258,254"/>
<polygon style="fill:#add9e6;stroke:#add9e6" points="256,253 258,263 261,253 256,253"/>
<text text-anchor="middle" x="278" y="225" style="font-family:arial">rdf:_1</text>
</a></g>
<g id="node11" class="node"><title>doi:10.0/profile.crossref</title>
<a xlink:href="http://dx.doi.org/10.0/profile.crossref" target="_blank" onmouseover="show_status('http://dx.doi.org/10.0/profile.crossref');">
<ellipse cx="226" cy="371" rx="69" ry="18" style="fill:#dca0dd;stroke:#dca0dd"/>
<text text-anchor="middle" x="226" y="375" style="font-family:arial">doi:10.0/profile.crossref</text>
</a></g>
<g id="edge10" class="edge"><title>:_3-&gt;doi:10.0/profile.crossref</title>
<a xlink:href="http://www2.elsevier.co.uk/~tony/1014/yads-schema-2002-04-03#resource" target="_blank" onmouseover="show_status('http://www2.elsevier.co.uk/~tony/1014/yads-schema-2002-04-03#resource');">
<path style="fill:none;stroke:#add9e6" d="M252,299C247,312 241,330 235,344"/>
<polygon style="fill:#add9e6;stroke:#add9e6" points="233,343 232,353 238,344 233,343"/>
<text text-anchor="middle" x="287" y="330" style="font-family:arial">has:resource</text>
</a></g>
<g id="node13" class="node"><title>:_4</title>
<a xlink:href="http://www.w3.org/1999/02/22-rdf-syntax-ns#Bag" target="_blank" onmouseover="show_status('http://www.w3.org/1999/02/22-rdf-syntax-ns#Bag');">
<ellipse cx="341" cy="371" rx="28" ry="18" style="fill:#d2d2d2;stroke:#d2d2d2"/>
<text text-anchor="middle" x="341" y="375" style="font-family:arial">rdf:Bag</text>
</a></g>
<g id="edge12" class="edge"><title>:_3-&gt;:_4</title>
<a xlink:href="http://www2.elsevier.co.uk/~tony/1014/yads-schema-2002-04-03#collection" target="_blank" onmouseover="show_status('http://www2.elsevier.co.uk/~tony/1014/yads-schema-2002-04-03#collection');">
<path style="fill:none;stroke:#add9e6" d="M288,289C304,295 321,304 331,317 337,324 340,335 341,344"/>
<polygon style="fill:#add9e6;stroke:#add9e6" points="338,343 342,353 343,343 338,343"/>
<text text-anchor="middle" x="381" y="330" style="font-family:arial">has:collection</text>
</a></g>
<g id="node15" class="node"><title>:_5</title>
<ellipse cx="323" cy="476" rx="38" ry="18" style="fill:#eedb82;stroke:#eedb82"/>
<text text-anchor="middle" x="323" y="480" style="font-family:arial">xref:Article</text>
</g>
<g id="edge14" class="edge"><title>:_4-&gt;:_5</title>
<a xlink:href="http://www.w3.org/1999/02/22-rdf-syntax-ns#_1" target="_blank" onmouseover="show_status('http://www.w3.org/1999/02/22-rdf-syntax-ns#_1');">
<path style="fill:none;stroke:#add9e6" d="M338,389C335,405 331,430 328,449"/>
<polygon style="fill:#add9e6;stroke:#add9e6" points="326,448 326,458 331,449 326,448"/>
<text text-anchor="middle" x="356" y="420" style="font-family:arial">rdf:_1</text>
</a></g>
<g id="node17" class="node"><title>:_6</title>
<ellipse cx="522" cy="476" rx="52" ry="18" style="fill:#eedb82;stroke:#eedb82"/>
<text text-anchor="middle" x="522" y="480" style="font-family:arial">xref:Supplement</text>
</g>
<g id="edge16" class="edge"><title>:_4-&gt;:_6</title>
<a xlink:href="http://www.w3.org/1999/02/22-rdf-syntax-ns#_2" target="_blank" onmouseover="show_status('http://www.w3.org/1999/02/22-rdf-syntax-ns#_2');">
<path style="fill:none;stroke:#add9e6" d="M362,383C393,401 451,434 487,456"/>
<polygon style="fill:#add9e6;stroke:#add9e6" points="485,458 495,460 487,453 485,458"/>
<text text-anchor="middle" x="454" y="420" style="font-family:arial">rdf:_2</text>
</a></g>
<g id="node20" class="node"><title>http://www.idealibrary.com/li...6</title>
<a xlink:href="http://www.idealibrary.com/links/doi/10.1006/asle.2000.0016" target="_blank" onmouseover="show_status('http://www.idealibrary.com/links/doi/10.1006/asle.2000.0016');">
<ellipse cx="132" cy="566" rx="89" ry="18" style="fill:#dca0dd;stroke:#dca0dd"/>
<text text-anchor="middle" x="132" y="570" style="font-family:arial">http://www.idealibrary.com/li...6</text>
</a></g>
<g id="edge19" class="edge"><title>:_5-&gt;http://www.idealibrary.com/li...6</title>
<a xlink:href="http://www2.elsevier.co.uk/~tony/1014/yads-schema-2002-04-03#resource" target="_blank" onmouseover="show_status('http://www2.elsevier.co.uk/~tony/1014/yads-schema-2002-04-03#resource');">
<path style="fill:none;stroke:#add9e6" d="M288,483C260,491 246,496 212,512 195,521 176,533 162,544"/>
<polygon style="fill:#add9e6;stroke:#add9e6" points="162,541 155,549 165,545 162,541"/>
<text text-anchor="middle" x="259" y="525" style="font-family:arial">has:resource</text>
</a></g>
<g id="node22" class="node"><title>node_1</title>
<polygon style="fill:#6497ed;stroke:#6497ed" points="357,548 239,548 239,584 357,584 357,548"/>
<text text-anchor="middle" x="298" y="570" style="font-family:arial">ASL (2000) 1: p. 156</text>
</g>
<g id="edge21" class="edge"><title>:_5-&gt;node_1</title>
<a xlink:href="http://www2.elsevier.co.uk/~tony/1014/yads-schema-2002-04-03#label" target="_blank" onmouseover="show_status('http://www2.elsevier.co.uk/~tony/1014/yads-schema-2002-04-03#label');">
<path style="fill:none;stroke:#add9e6" d="M309,493C304,498 300,505 298,512 295,520 294,530 294,538"/>
<polygon style="fill:#add9e6;stroke:#add9e6" points="292,538 295,548 296,538 292,538"/>
<text text-anchor="middle" x="328" y="525" style="font-family:arial">has:label</text>
</a></g>
<g id="node24" class="node"><title>node_3</title>
<polygon style="fill:#6497ed;stroke:#6497ed" points="429,548 375,548 375,584 429,584 429,548"/>
<text text-anchor="middle" x="402" y="570" style="font-family:arial">:default</text>
</g>
<g id="edge23" class="edge"><title>:_5-&gt;node_3</title>
<a xlink:href="http://www2.elsevier.co.uk/~tony/1014/yads-schema-2002-04-03#access" target="_blank" onmouseover="show_status('http://www2.elsevier.co.uk/~tony/1014/yads-schema-2002-04-03#access');">
<path style="fill:none;stroke:#add9e6" d="M340,492C346,498 352,505 357,512 363,520 364,523 369,530 372,533 375,537 378,540"/>
<polygon style="fill:#add9e6;stroke:#add9e6" points="376,541 384,548 380,539 376,541"/>
<text text-anchor="middle" x="405" y="525" style="font-family:arial">has:access</text>
</a></g>
<g id="node27" class="node"><title>doi:10.1006/asle.2000.0016.s0...1</title>
<a xlink:href="http://dx.doi.org/10.1006/asle.2000.0016.s001" target="_blank" onmouseover="show_status('http://dx.doi.org/10.1006/asle.2000.0016.s001');">
<ellipse cx="540" cy="566" rx="87" ry="18" style="fill:#dca0dd;stroke:#dca0dd"/>
<text text-anchor="middle" x="540" y="570" style="font-family:arial">doi:10.1006/asle.2000.0016.s0...1</text>
</a></g>
<g id="edge26" class="edge"><title>:_6-&gt;doi:10.1006/asle.2000.0016.s0...1</title>
<a xlink:href="http://www2.elsevier.co.uk/~tony/1014/yads-schema-2002-04-03#resource" target="_blank" onmouseover="show_status('http://www2.elsevier.co.uk/~tony/1014/yads-schema-2002-04-03#resource');">
<path style="fill:none;stroke:#add9e6" d="M526,494C528,507 532,524 534,539"/>
<polygon style="fill:#add9e6;stroke:#add9e6" points="531,539 536,548 536,538 531,539"/>
<text text-anchor="middle" x="573" y="525" style="font-family:arial">has:resource</text>
</a></g>
</g>
</svg>
