<?xml version="1.0" encoding="UTF-8" standalone="no"?>
<!DOCTYPE svg PUBLIC "-//W3C//DTD SVG 1.0//EN"
 "http://www.w3.org/TR/2001/REC-SVG-20010904/DTD/svg10.dtd" [
 <!ATTLIST svg xmlns:xlink CDATA #FIXED "http://www.w3.org/1999/xlink">
]>
<!-- Generated by dot version 1.8.5 (Tue Apr 23 17:19:23  2002)
     For user: (Administrator) ,S-1-5-21-1454471165-688789844-1708537768-500   Title: yads    Pages: 1 -->
<svg width="696px" height="651px"
 xmlns="http://www.w3.org/2000/svg" xmlns:xlink="http://www.w3.org/1999/xlink">
<g id="graph0" class="graph" style="font-family:Times-Roman;font-size:11.00">
<title>yads</title>
<text text-anchor="middle" x="348" y="640" style="font-family:arial;font-size:24.00">YADS - A Description Service</text>
<g id="graph2" class="cluster"><title>cluster_1</title>
<polygon style="fill:none;stroke:#d2d2d2;stroke-dasharray:5,2" points="19,608 677,608 677,43 19,43 19,608"/>
<text text-anchor="middle" x="84" y="55" style="font-family:arial">Nest - Article/Erratum</text>
</g>
<g id="graph3" class="cluster"><title>cluster_3</title>
<polygon style="fill:none;stroke:#d2d2d2;stroke-dasharray:5,2" points="27,600 669,600 669,238 27,238 27,600"/>
<text text-anchor="middle" x="80" y="250" style="font-family:arial">Nest - DOI Profile</text>
</g>
<g id="graph4" class="cluster"><title>cluster_5</title>
<polygon style="fill:none;stroke:#d2d2d2;stroke-dasharray:5,2" points="35,592 477,592 477,433 35,433 35,592"/>
<text text-anchor="middle" x="74" y="445" style="font-family:arial">Item - Article</text>
</g>
<g id="graph5" class="cluster"><title>cluster_6</title>
<polygon style="fill:none;stroke:#d2d2d2;stroke-dasharray:5,2" points="485,592 661,592 661,433 485,433 485,592"/>
<text text-anchor="middle" x="529" y="445" style="font-family:arial">Item - Erratum</text>
</g>
<g id="node2" class="node"><title>:_1</title>
<a xlink:href="http://www2.elsevier.co.uk/~tony/1014/yads-schema-2002-04-03#Nest" target="_blank" onmouseover="show_status('http://www2.elsevier.co.uk/~tony/1014/yads-schema-2002-04-03#Nest');">
<ellipse cx="197" cy="86" rx="29" ry="18" style="fill:#d2d2d2;stroke:#d2d2d2"/>
<text text-anchor="middle" x="197" y="90" style="font-family:arial">isa:Nest</text>
</a></g>
<g id="node4" class="node"><title>doi:10.1006/geno.2001.6453</title>
<a xlink:href="http://dx.doi.org/10.1006/geno.2001.6453" target="_blank" onmouseover="show_status('http://dx.doi.org/10.1006/geno.2001.6453');">
<ellipse cx="142" cy="176" rx="79" ry="18" style="fill:#dca0dd;stroke:#dca0dd"/>
<text text-anchor="middle" x="142" y="180" style="font-family:arial">doi:10.1006/geno.2001.6453</text>
</a></g>
<g id="edge3" class="edge"><title>:_1-&gt;doi:10.1006/geno.2001.6453</title>
<a xlink:href="http://www2.elsevier.co.uk/~tony/1014/yads-schema-2002-04-03#resource" target="_blank" onmouseover="show_status('http://www2.elsevier.co.uk/~tony/1014/yads-schema-2002-04-03#resource');">
<path style="fill:none;stroke:#add9e6" d="M187,103C179,117 167,135 158,150"/>
<polygon style="fill:#add9e6;stroke:#add9e6" points="156,148 153,158 160,151 156,148"/>
<text text-anchor="middle" x="217" y="135" style="font-family:arial">has:resource</text>
</a></g>
<g id="node6" class="node"><title>:_2</title>
<a xlink:href="http://www.w3.org/1999/02/22-rdf-syntax-ns#Bag" target="_blank" onmouseover="show_status('http://www.w3.org/1999/02/22-rdf-syntax-ns#Bag');">
<ellipse cx="267" cy="176" rx="28" ry="18" style="fill:#d2d2d2;stroke:#d2d2d2"/>
<text text-anchor="middle" x="267" y="180" style="font-family:arial">rdf:Bag</text>
</a></g>
<g id="edge5" class="edge"><title>:_1-&gt;:_2</title>
<a xlink:href="http://www2.elsevier.co.uk/~tony/1014/yads-schema-2002-04-03#collection" target="_blank" onmouseover="show_status('http://www2.elsevier.co.uk/~tony/1014/yads-schema-2002-04-03#collection');">
<path style="fill:none;stroke:#add9e6" d="M223,95C236,100 252,109 260,122 265,130 268,140 269,149"/>
<polygon style="fill:#add9e6;stroke:#add9e6" points="267,148 269,158 272,148 267,148"/>
<text text-anchor="middle" x="310" y="135" style="font-family:arial">has:collection</text>
</a></g>
<g id="node8" class="node"><title>:_3</title>
<ellipse cx="267" cy="281" rx="34" ry="18" style="fill:#eedb82;stroke:#eedb82"/>
<text text-anchor="middle" x="267" y="285" style="font-family:arial">doi:Profile</text>
</g>
<g id="edge7" class="edge"><title>:_2-&gt;:_3</title>
<a xlink:href="http://www.w3.org/1999/02/22-rdf-syntax-ns#_1" target="_blank" onmouseover="show_status('http://www.w3.org/1999/02/22-rdf-syntax-ns#_1');">
<path style="fill:none;stroke:#add9e6" d="M267,194C267,210 267,235 267,254"/>
<polygon style="fill:#add9e6;stroke:#add9e6" points="265,253 267,263 270,253 265,253"/>
<text text-anchor="middle" x="287" y="225" style="font-family:arial">rdf:_1</text>
</a></g>
<g id="node11" class="node"><title>doi:10.0/profile.crossref</title>
<a xlink:href="http://dx.doi.org/10.0/profile.crossref" target="_blank" onmouseover="show_status('http://dx.doi.org/10.0/profile.crossref');">
<ellipse cx="250" cy="371" rx="69" ry="18" style="fill:#dca0dd;stroke:#dca0dd"/>
<text text-anchor="middle" x="250" y="375" style="font-family:arial">doi:10.0/profile.crossref</text>
</a></g>
<g id="edge10" class="edge"><title>:_3-&gt;doi:10.0/profile.crossref</title>
<a xlink:href="http://www2.elsevier.co.uk/~tony/1014/yads-schema-2002-04-03#resource" target="_blank" onmouseover="show_status('http://www2.elsevier.co.uk/~tony/1014/yads-schema-2002-04-03#resource');">
<path style="fill:none;stroke:#add9e6" d="M264,299C262,312 258,329 256,344"/>
<polygon style="fill:#add9e6;stroke:#add9e6" points="254,343 254,353 259,344 254,343"/>
<text text-anchor="middle" x="302" y="330" style="font-family:arial">has:resource</text>
</a></g>
<g id="node13" class="node"><title>:_4</title>
<a xlink:href="http://www.w3.org/1999/02/22-rdf-syntax-ns#Bag" target="_blank" onmouseover="show_status('http://www.w3.org/1999/02/22-rdf-syntax-ns#Bag');">
<ellipse cx="365" cy="371" rx="28" ry="18" style="fill:#d2d2d2;stroke:#d2d2d2"/>
<text text-anchor="middle" x="365" y="375" style="font-family:arial">rdf:Bag</text>
</a></g>
<g id="edge12" class="edge"><title>:_3-&gt;:_4</title>
<a xlink:href="http://www2.elsevier.co.uk/~tony/1014/yads-schema-2002-04-03#collection" target="_blank" onmouseover="show_status('http://www2.elsevier.co.uk/~tony/1014/yads-schema-2002-04-03#collection');">
<path style="fill:none;stroke:#add9e6" d="M298,289C314,294 333,303 346,317 353,325 357,334 360,344"/>
<polygon style="fill:#add9e6;stroke:#add9e6" points="357,344 363,353 362,343 357,344"/>
<text text-anchor="middle" x="399" y="330" style="font-family:arial">has:collection</text>
</a></g>
<g id="node15" class="node"><title>:_5</title>
<ellipse cx="358" cy="476" rx="38" ry="18" style="fill:#eedb82;stroke:#eedb82"/>
<text text-anchor="middle" x="358" y="480" style="font-family:arial">xref:Article</text>
</g>
<g id="edge14" class="edge"><title>:_4-&gt;:_5</title>
<a xlink:href="http://www.w3.org/1999/02/22-rdf-syntax-ns#_1" target="_blank" onmouseover="show_status('http://www.w3.org/1999/02/22-rdf-syntax-ns#_1');">
<path style="fill:none;stroke:#add9e6" d="M364,389C363,405 362,430 360,449"/>
<polygon style="fill:#add9e6;stroke:#add9e6" points="358,448 359,458 363,448 358,448"/>
<text text-anchor="middle" x="384" y="420" style="font-family:arial">rdf:_1</text>
</a></g>
<g id="node17" class="node"><title>:_6</title>
<ellipse cx="553" cy="476" rx="42" ry="18" style="fill:#eedb82;stroke:#eedb82"/>
<text text-anchor="middle" x="553" y="480" style="font-family:arial">xref:Erratum</text>
</g>
<g id="edge16" class="edge"><title>:_4-&gt;:_6</title>
<a xlink:href="http://www.w3.org/1999/02/22-rdf-syntax-ns#_2" target="_blank" onmouseover="show_status('http://www.w3.org/1999/02/22-rdf-syntax-ns#_2');">
<path style="fill:none;stroke:#add9e6" d="M387,383C411,395 449,415 481,433 494,440 508,449 520,456"/>
<polygon style="fill:#add9e6;stroke:#add9e6" points="518,458 528,461 521,454 518,458"/>
<text text-anchor="middle" x="487" y="420" style="font-family:arial">rdf:_2</text>
</a></g>
<g id="node20" class="node"><title>http://www.idealibrary.com/li...3</title>
<a xlink:href="http://www.idealibrary.com/links/doi/10.1006/geno.2001.6453" target="_blank" onmouseover="show_status('http://www.idealibrary.com/links/doi/10.1006/geno.2001.6453');">
<ellipse cx="132" cy="566" rx="89" ry="18" style="fill:#dca0dd;stroke:#dca0dd"/>
<text text-anchor="middle" x="132" y="570" style="font-family:arial">http://www.idealibrary.com/li...3</text>
</a></g>
<g id="edge19" class="edge"><title>:_5-&gt;http://www.idealibrary.com/li...3</title>
<a xlink:href="http://www2.elsevier.co.uk/~tony/1014/yads-schema-2002-04-03#resource" target="_blank" onmouseover="show_status('http://www2.elsevier.co.uk/~tony/1014/yads-schema-2002-04-03#resource');">
<path style="fill:none;stroke:#add9e6" d="M324,484C296,492 282,498 246,512 222,523 195,535 174,545"/>
<polygon style="fill:#add9e6;stroke:#add9e6" points="174,542 166,549 176,547 174,542"/>
<text text-anchor="middle" x="296" y="525" style="font-family:arial">has:resource</text>
</a></g>
<g id="node22" class="node"><title>node_1</title>
<polygon style="fill:#6497ed;stroke:#6497ed" points="397,548 239,548 239,584 397,584 397,548"/>
<text text-anchor="middle" x="318" y="570" style="font-family:arial">Genomics (2001) 73: p. 223</text>
</g>
<g id="edge21" class="edge"><title>:_5-&gt;node_1</title>
<a xlink:href="http://www2.elsevier.co.uk/~tony/1014/yads-schema-2002-04-03#label" target="_blank" onmouseover="show_status('http://www2.elsevier.co.uk/~tony/1014/yads-schema-2002-04-03#label');">
<path style="fill:none;stroke:#add9e6" d="M346,494C343,499 339,506 336,512 332,520 329,530 326,539"/>
<polygon style="fill:#add9e6;stroke:#add9e6" points="324,538 323,548 329,539 324,538"/>
<text text-anchor="middle" x="366" y="525" style="font-family:arial">has:label</text>
</a></g>
<g id="node24" class="node"><title>node_3</title>
<polygon style="fill:#6497ed;stroke:#6497ed" points="469,548 415,548 415,584 469,584 469,548"/>
<text text-anchor="middle" x="442" y="570" style="font-family:arial">:default</text>
</g>
<g id="edge23" class="edge"><title>:_5-&gt;node_3</title>
<a xlink:href="http://www2.elsevier.co.uk/~tony/1014/yads-schema-2002-04-03#access" target="_blank" onmouseover="show_status('http://www2.elsevier.co.uk/~tony/1014/yads-schema-2002-04-03#access');">
<path style="fill:none;stroke:#add9e6" d="M376,492C382,498 389,505 395,512 402,520 403,523 409,530 412,534 415,537 418,541"/>
<polygon style="fill:#add9e6;stroke:#add9e6" points="416,543 425,548 420,539 416,543"/>
<text text-anchor="middle" x="445" y="525" style="font-family:arial">has:access</text>
</a></g>
<g id="node27" class="node"><title>doi:10.1006/geno.2002.6726</title>
<a xlink:href="http://dx.doi.org/10.1006/geno.2002.6726" target="_blank" onmouseover="show_status('http://dx.doi.org/10.1006/geno.2002.6726');">
<ellipse cx="573" cy="566" rx="80" ry="18" style="fill:#dca0dd;stroke:#dca0dd"/>
<text text-anchor="middle" x="573" y="570" style="font-family:arial">doi:10.1006/geno.2002.6726</text>
</a></g>
<g id="edge26" class="edge"><title>:_6-&gt;doi:10.1006/geno.2002.6726</title>
<a xlink:href="http://www2.elsevier.co.uk/~tony/1014/yads-schema-2002-04-03#resource" target="_blank" onmouseover="show_status('http://www2.elsevier.co.uk/~tony/1014/yads-schema-2002-04-03#resource');">
<path style="fill:none;stroke:#add9e6" d="M557,494C560,507 564,524 567,539"/>
<polygon style="fill:#add9e6;stroke:#add9e6" points="564,539 569,548 569,538 564,539"/>
<text text-anchor="middle" x="605" y="525" style="font-family:arial">has:resource</text>
</a></g>
</g>
</svg>
