<?xml version="1.0" encoding="UTF-8" standalone="no"?>
<!DOCTYPE svg PUBLIC "-//W3C//DTD SVG 1.0//EN"
 "http://www.w3.org/TR/2001/REC-SVG-20010904/DTD/svg10.dtd" [
 <!ATTLIST svg xmlns:xlink CDATA #FIXED "http://www.w3.org/1999/xlink">
]>
<!-- Generated by dot version 1.8.5 (Tue Apr 23 17:19:23  2002)
     For user: (Administrator) ,S-1-5-21-1454471165-688789844-1708537768-500   Title: yads    Pages: 1 -->
<svg width="628px" height="651px"
 xmlns="http://www.w3.org/2000/svg" xmlns:xlink="http://www.w3.org/1999/xlink">
<g id="graph0" class="graph" style="font-family:Times-Roman;font-size:11.00">
<title>yads</title>
<text text-anchor="middle" x="314" y="640" style="font-family:arial;font-size:24.00">YADS - A Description Service</text>
<g id="graph2" class="cluster"><title>cluster_1</title>
<polygon style="fill:none;stroke:#d2d2d2;stroke-dasharray:5,2" points="19,608 609,608 609,43 19,43 19,608"/>
<text text-anchor="middle" x="81" y="55" style="font-family:arial">Nest - Article/Journal</text>
</g>
<g id="graph3" class="cluster"><title>cluster_3</title>
<polygon style="fill:none;stroke:#d2d2d2;stroke-dasharray:5,2" points="27,600 601,600 601,238 27,238 27,600"/>
<text text-anchor="middle" x="80" y="250" style="font-family:arial">Nest - DOI Profile</text>
</g>
<g id="graph4" class="cluster"><title>cluster_5</title>
<polygon style="fill:none;stroke:#d2d2d2;stroke-dasharray:5,2" points="35,592 473,592 473,433 35,433 35,592"/>
<text text-anchor="middle" x="74" y="445" style="font-family:arial">Item - Article</text>
</g>
<g id="graph5" class="cluster"><title>cluster_6</title>
<polygon style="fill:none;stroke:#d2d2d2;stroke-dasharray:5,2" points="481,592 593,592 593,433 481,433 481,592"/>
<text text-anchor="middle" x="522" y="445" style="font-family:arial">Item - Journal</text>
</g>
<g id="node2" class="node"><title>:_1</title>
<a xlink:href="http://www2.elsevier.co.uk/~tony/1014/yads-schema-2002-04-03#Nest" target="_blank" onmouseover="show_status('http://www2.elsevier.co.uk/~tony/1014/yads-schema-2002-04-03#Nest');">
<ellipse cx="192" cy="86" rx="29" ry="18" style="fill:#d2d2d2;stroke:#d2d2d2"/>
<text text-anchor="middle" x="192" y="90" style="font-family:arial">isa:Nest</text>
</a></g>
<g id="node4" class="node"><title>doi:10.1006/jmbi.1993.1460</title>
<a xlink:href="http://dx.doi.org/10.1006/jmbi.1993.1460" target="_blank" onmouseover="show_status('http://dx.doi.org/10.1006/jmbi.1993.1460');">
<ellipse cx="138" cy="176" rx="75" ry="18" style="fill:#dca0dd;stroke:#dca0dd"/>
<text text-anchor="middle" x="138" y="180" style="font-family:arial">doi:10.1006/jmbi.1993.1460</text>
</a></g>
<g id="edge3" class="edge"><title>:_1-&gt;doi:10.1006/jmbi.1993.1460</title>
<a xlink:href="http://www2.elsevier.co.uk/~tony/1014/yads-schema-2002-04-03#resource" target="_blank" onmouseover="show_status('http://www2.elsevier.co.uk/~tony/1014/yads-schema-2002-04-03#resource');">
<path style="fill:none;stroke:#add9e6" d="M181,103C177,109 172,116 168,122 163,131 157,141 152,150"/>
<polygon style="fill:#add9e6;stroke:#add9e6" points="150,148 148,158 155,150 150,148"/>
<text text-anchor="middle" x="212" y="135" style="font-family:arial">has:resource</text>
</a></g>
<g id="node6" class="node"><title>:_2</title>
<a xlink:href="http://www.w3.org/1999/02/22-rdf-syntax-ns#Bag" target="_blank" onmouseover="show_status('http://www.w3.org/1999/02/22-rdf-syntax-ns#Bag');">
<ellipse cx="259" cy="176" rx="28" ry="18" style="fill:#d2d2d2;stroke:#d2d2d2"/>
<text text-anchor="middle" x="259" y="180" style="font-family:arial">rdf:Bag</text>
</a></g>
<g id="edge5" class="edge"><title>:_1-&gt;:_2</title>
<a xlink:href="http://www2.elsevier.co.uk/~tony/1014/yads-schema-2002-04-03#collection" target="_blank" onmouseover="show_status('http://www2.elsevier.co.uk/~tony/1014/yads-schema-2002-04-03#collection');">
<path style="fill:none;stroke:#add9e6" d="M217,95C230,101 245,109 253,122 258,130 261,140 261,149"/>
<polygon style="fill:#add9e6;stroke:#add9e6" points="259,148 261,158 264,148 259,148"/>
<text text-anchor="middle" x="303" y="135" style="font-family:arial">has:collection</text>
</a></g>
<g id="node8" class="node"><title>:_3</title>
<ellipse cx="259" cy="281" rx="34" ry="18" style="fill:#eedb82;stroke:#eedb82"/>
<text text-anchor="middle" x="259" y="285" style="font-family:arial">doi:Profile</text>
</g>
<g id="edge7" class="edge"><title>:_2-&gt;:_3</title>
<a xlink:href="http://www.w3.org/1999/02/22-rdf-syntax-ns#_1" target="_blank" onmouseover="show_status('http://www.w3.org/1999/02/22-rdf-syntax-ns#_1');">
<path style="fill:none;stroke:#add9e6" d="M259,194C259,210 259,235 259,254"/>
<polygon style="fill:#add9e6;stroke:#add9e6" points="257,253 259,263 262,253 257,253"/>
<text text-anchor="middle" x="279" y="225" style="font-family:arial">rdf:_1</text>
</a></g>
<g id="node11" class="node"><title>doi:10.0/profile.crossref</title>
<a xlink:href="http://dx.doi.org/10.0/profile.crossref" target="_blank" onmouseover="show_status('http://dx.doi.org/10.0/profile.crossref');">
<ellipse cx="245" cy="371" rx="69" ry="18" style="fill:#dca0dd;stroke:#dca0dd"/>
<text text-anchor="middle" x="245" y="375" style="font-family:arial">doi:10.0/profile.crossref</text>
</a></g>
<g id="edge10" class="edge"><title>:_3-&gt;doi:10.0/profile.crossref</title>
<a xlink:href="http://www2.elsevier.co.uk/~tony/1014/yads-schema-2002-04-03#resource" target="_blank" onmouseover="show_status('http://www2.elsevier.co.uk/~tony/1014/yads-schema-2002-04-03#resource');">
<path style="fill:none;stroke:#add9e6" d="M256,299C254,312 251,329 249,344"/>
<polygon style="fill:#add9e6;stroke:#add9e6" points="247,343 248,353 252,343 247,343"/>
<text text-anchor="middle" x="295" y="330" style="font-family:arial">has:resource</text>
</a></g>
<g id="node13" class="node"><title>:_4</title>
<a xlink:href="http://www.w3.org/1999/02/22-rdf-syntax-ns#Bag" target="_blank" onmouseover="show_status('http://www.w3.org/1999/02/22-rdf-syntax-ns#Bag');">
<ellipse cx="360" cy="371" rx="28" ry="18" style="fill:#d2d2d2;stroke:#d2d2d2"/>
<text text-anchor="middle" x="360" y="375" style="font-family:arial">rdf:Bag</text>
</a></g>
<g id="edge12" class="edge"><title>:_3-&gt;:_4</title>
<a xlink:href="http://www2.elsevier.co.uk/~tony/1014/yads-schema-2002-04-03#collection" target="_blank" onmouseover="show_status('http://www2.elsevier.co.uk/~tony/1014/yads-schema-2002-04-03#collection');">
<path style="fill:none;stroke:#add9e6" d="M290,289C307,294 326,303 339,317 346,325 351,334 354,344"/>
<polygon style="fill:#add9e6;stroke:#add9e6" points="351,344 357,353 356,343 351,344"/>
<text text-anchor="middle" x="392" y="330" style="font-family:arial">has:collection</text>
</a></g>
<g id="node15" class="node"><title>:_5</title>
<ellipse cx="355" cy="476" rx="38" ry="18" style="fill:#eedb82;stroke:#eedb82"/>
<text text-anchor="middle" x="355" y="480" style="font-family:arial">xref:Article</text>
</g>
<g id="edge14" class="edge"><title>:_4-&gt;:_5</title>
<a xlink:href="http://www.w3.org/1999/02/22-rdf-syntax-ns#_1" target="_blank" onmouseover="show_status('http://www.w3.org/1999/02/22-rdf-syntax-ns#_1');">
<path style="fill:none;stroke:#add9e6" d="M359,389C358,405 357,430 356,449"/>
<polygon style="fill:#add9e6;stroke:#add9e6" points="354,448 356,458 359,448 354,448"/>
<text text-anchor="middle" x="379" y="420" style="font-family:arial">rdf:_1</text>
</a></g>
<g id="node17" class="node"><title>:_6</title>
<ellipse cx="529" cy="476" rx="40" ry="18" style="fill:#eedb82;stroke:#eedb82"/>
<text text-anchor="middle" x="529" y="480" style="font-family:arial">xref:Journal</text>
</g>
<g id="edge16" class="edge"><title>:_4-&gt;:_6</title>
<a xlink:href="http://www.w3.org/1999/02/22-rdf-syntax-ns#_2" target="_blank" onmouseover="show_status('http://www.w3.org/1999/02/22-rdf-syntax-ns#_2');">
<path style="fill:none;stroke:#add9e6" d="M383,382C407,393 446,413 477,433 485,439 495,447 504,454"/>
<polygon style="fill:#add9e6;stroke:#add9e6" points="502,455 511,460 505,452 502,455"/>
<text text-anchor="middle" x="484" y="420" style="font-family:arial">rdf:_2</text>
</a></g>
<g id="node20" class="node"><title>http://www.idealibrary.com/li...0</title>
<a xlink:href="http://www.idealibrary.com/links/doi/10.1006/jmbi.1993.1460" target="_blank" onmouseover="show_status('http://www.idealibrary.com/links/doi/10.1006/jmbi.1993.1460');">
<ellipse cx="132" cy="566" rx="89" ry="18" style="fill:#dca0dd;stroke:#dca0dd"/>
<text text-anchor="middle" x="132" y="570" style="font-family:arial">http://www.idealibrary.com/li...0</text>
</a></g>
<g id="edge19" class="edge"><title>:_5-&gt;http://www.idealibrary.com/li...0</title>
<a xlink:href="http://www2.elsevier.co.uk/~tony/1014/yads-schema-2002-04-03#resource" target="_blank" onmouseover="show_status('http://www2.elsevier.co.uk/~tony/1014/yads-schema-2002-04-03#resource');">
<path style="fill:none;stroke:#add9e6" d="M321,484C293,492 279,498 243,512 219,522 193,535 172,545"/>
<polygon style="fill:#add9e6;stroke:#add9e6" points="172,542 164,549 174,547 172,542"/>
<text text-anchor="middle" x="293" y="525" style="font-family:arial">has:resource</text>
</a></g>
<g id="node22" class="node"><title>node_1</title>
<polygon style="fill:#6497ed;stroke:#6497ed" points="393,548 239,548 239,584 393,584 393,548"/>
<text text-anchor="middle" x="316" y="570" style="font-family:arial">J. Mol. Biol. (1993) 232: p.1...0</text>
</g>
<g id="edge21" class="edge"><title>:_5-&gt;node_1</title>
<a xlink:href="http://www2.elsevier.co.uk/~tony/1014/yads-schema-2002-04-03#label" target="_blank" onmouseover="show_status('http://www2.elsevier.co.uk/~tony/1014/yads-schema-2002-04-03#label');">
<path style="fill:none;stroke:#add9e6" d="M343,494C340,499 336,506 333,512 329,520 326,530 324,539"/>
<polygon style="fill:#add9e6;stroke:#add9e6" points="322,538 321,548 327,539 322,538"/>
<text text-anchor="middle" x="363" y="525" style="font-family:arial">has:label</text>
</a></g>
<g id="node24" class="node"><title>node_3</title>
<polygon style="fill:#6497ed;stroke:#6497ed" points="465,548 411,548 411,584 465,584 465,548"/>
<text text-anchor="middle" x="438" y="570" style="font-family:arial">:default</text>
</g>
<g id="edge23" class="edge"><title>:_5-&gt;node_3</title>
<a xlink:href="http://www2.elsevier.co.uk/~tony/1014/yads-schema-2002-04-03#access" target="_blank" onmouseover="show_status('http://www2.elsevier.co.uk/~tony/1014/yads-schema-2002-04-03#access');">
<path style="fill:none;stroke:#add9e6" d="M373,492C379,498 386,505 392,512 399,520 399,523 405,530 408,534 411,537 414,541"/>
<polygon style="fill:#add9e6;stroke:#add9e6" points="412,543 421,548 416,539 412,543"/>
<text text-anchor="middle" x="441" y="525" style="font-family:arial">has:access</text>
</a></g>
<g id="node27" class="node"><title>doi:10.1006/jmbi</title>
<a xlink:href="http://dx.doi.org/10.1006/jmbi" target="_blank" onmouseover="show_status('http://dx.doi.org/10.1006/jmbi');">
<ellipse cx="537" cy="566" rx="48" ry="18" style="fill:#dca0dd;stroke:#dca0dd"/>
<text text-anchor="middle" x="537" y="570" style="font-family:arial">doi:10.1006/jmbi</text>
</a></g>
<g id="edge26" class="edge"><title>:_6-&gt;doi:10.1006/jmbi</title>
<a xlink:href="http://www2.elsevier.co.uk/~tony/1014/yads-schema-2002-04-03#resource" target="_blank" onmouseover="show_status('http://www2.elsevier.co.uk/~tony/1014/yads-schema-2002-04-03#resource');">
<path style="fill:none;stroke:#add9e6" d="M513,493C506,504 499,518 504,530 505,535 508,540 512,545"/>
<polygon style="fill:#add9e6;stroke:#add9e6" points="508,544 516,550 512,541 508,544"/>
<text text-anchor="middle" x="545" y="525" style="font-family:arial">has:resource</text>
</a></g>
</g>
</svg>
