<?xml version="1.0" encoding="UTF-8" standalone="no"?>
<!DOCTYPE svg PUBLIC "-//W3C//DTD SVG 1.0//EN"
 "http://www.w3.org/TR/2001/REC-SVG-20010904/DTD/svg10.dtd" [
 <!ATTLIST svg xmlns:xlink CDATA #FIXED "http://www.w3.org/1999/xlink">
]>
<!-- Generated by dot version 1.8.5 (Tue Apr 23 17:19:23  2002)
     For user: (Administrator) ,S-1-5-21-1454471165-688789844-1708537768-500   Title: yads    Pages: 1 -->
<svg width="698px" height="651px"
 xmlns="http://www.w3.org/2000/svg" xmlns:xlink="http://www.w3.org/1999/xlink">
<g id="graph0" class="graph" style="font-family:Times-Roman;font-size:11.00">
<title>yads</title>
<text text-anchor="middle" x="349" y="640" style="font-family:arial;font-size:24.00">YADS - A Description Service</text>
<g id="graph2" class="cluster"><title>cluster_1</title>
<polygon style="fill:none;stroke:#d2d2d2;stroke-dasharray:5,2" points="19,608 679,608 679,43 19,43 19,608"/>
<text text-anchor="middle" x="84" y="55" style="font-family:arial">Nest - Erratum/Article</text>
</g>
<g id="graph3" class="cluster"><title>cluster_3</title>
<polygon style="fill:none;stroke:#d2d2d2;stroke-dasharray:5,2" points="27,600 671,600 671,238 27,238 27,600"/>
<text text-anchor="middle" x="80" y="250" style="font-family:arial">Nest - DOI Profile</text>
</g>
<g id="graph4" class="cluster"><title>cluster_5</title>
<polygon style="fill:none;stroke:#d2d2d2;stroke-dasharray:5,2" points="35,592 481,592 481,433 35,433 35,592"/>
<text text-anchor="middle" x="79" y="445" style="font-family:arial">Item - Erratum</text>
</g>
<g id="graph5" class="cluster"><title>cluster_6</title>
<polygon style="fill:none;stroke:#d2d2d2;stroke-dasharray:5,2" points="489,592 663,592 663,433 489,433 489,592"/>
<text text-anchor="middle" x="528" y="445" style="font-family:arial">Item - Article</text>
</g>
<g id="node2" class="node"><title>:_1</title>
<a xlink:href="http://www2.elsevier.co.uk/~tony/1014/yads-schema-2002-04-03#Nest" target="_blank" onmouseover="show_status('http://www2.elsevier.co.uk/~tony/1014/yads-schema-2002-04-03#Nest');">
<ellipse cx="200" cy="86" rx="29" ry="18" style="fill:#d2d2d2;stroke:#d2d2d2"/>
<text text-anchor="middle" x="200" y="90" style="font-family:arial">isa:Nest</text>
</a></g>
<g id="node4" class="node"><title>doi:10.1006/geno.2002.6726</title>
<a xlink:href="http://dx.doi.org/10.1006/geno.2002.6726" target="_blank" onmouseover="show_status('http://dx.doi.org/10.1006/geno.2002.6726');">
<ellipse cx="144" cy="176" rx="80" ry="18" style="fill:#dca0dd;stroke:#dca0dd"/>
<text text-anchor="middle" x="144" y="180" style="font-family:arial">doi:10.1006/geno.2002.6726</text>
</a></g>
<g id="edge3" class="edge"><title>:_1-&gt;doi:10.1006/geno.2002.6726</title>
<a xlink:href="http://www2.elsevier.co.uk/~tony/1014/yads-schema-2002-04-03#resource" target="_blank" onmouseover="show_status('http://www2.elsevier.co.uk/~tony/1014/yads-schema-2002-04-03#resource');">
<path style="fill:none;stroke:#add9e6" d="M189,103C181,117 169,135 160,150"/>
<polygon style="fill:#add9e6;stroke:#add9e6" points="158,148 155,158 162,151 158,148"/>
<text text-anchor="middle" x="219" y="135" style="font-family:arial">has:resource</text>
</a></g>
<g id="node6" class="node"><title>:_2</title>
<a xlink:href="http://www.w3.org/1999/02/22-rdf-syntax-ns#Bag" target="_blank" onmouseover="show_status('http://www.w3.org/1999/02/22-rdf-syntax-ns#Bag');">
<ellipse cx="270" cy="176" rx="28" ry="18" style="fill:#d2d2d2;stroke:#d2d2d2"/>
<text text-anchor="middle" x="270" y="180" style="font-family:arial">rdf:Bag</text>
</a></g>
<g id="edge5" class="edge"><title>:_1-&gt;:_2</title>
<a xlink:href="http://www2.elsevier.co.uk/~tony/1014/yads-schema-2002-04-03#collection" target="_blank" onmouseover="show_status('http://www2.elsevier.co.uk/~tony/1014/yads-schema-2002-04-03#collection');">
<path style="fill:none;stroke:#add9e6" d="M226,95C239,100 255,109 263,122 268,130 271,140 272,149"/>
<polygon style="fill:#add9e6;stroke:#add9e6" points="270,148 272,158 275,148 270,148"/>
<text text-anchor="middle" x="313" y="135" style="font-family:arial">has:collection</text>
</a></g>
<g id="node8" class="node"><title>:_3</title>
<ellipse cx="270" cy="281" rx="34" ry="18" style="fill:#eedb82;stroke:#eedb82"/>
<text text-anchor="middle" x="270" y="285" style="font-family:arial">doi:Profile</text>
</g>
<g id="edge7" class="edge"><title>:_2-&gt;:_3</title>
<a xlink:href="http://www.w3.org/1999/02/22-rdf-syntax-ns#_1" target="_blank" onmouseover="show_status('http://www.w3.org/1999/02/22-rdf-syntax-ns#_1');">
<path style="fill:none;stroke:#add9e6" d="M270,194C270,210 270,235 270,254"/>
<polygon style="fill:#add9e6;stroke:#add9e6" points="268,253 270,263 273,253 268,253"/>
<text text-anchor="middle" x="290" y="225" style="font-family:arial">rdf:_1</text>
</a></g>
<g id="node11" class="node"><title>doi:10.0/profile.crossref</title>
<a xlink:href="http://dx.doi.org/10.0/profile.crossref" target="_blank" onmouseover="show_status('http://dx.doi.org/10.0/profile.crossref');">
<ellipse cx="253" cy="371" rx="69" ry="18" style="fill:#dca0dd;stroke:#dca0dd"/>
<text text-anchor="middle" x="253" y="375" style="font-family:arial">doi:10.0/profile.crossref</text>
</a></g>
<g id="edge10" class="edge"><title>:_3-&gt;doi:10.0/profile.crossref</title>
<a xlink:href="http://www2.elsevier.co.uk/~tony/1014/yads-schema-2002-04-03#resource" target="_blank" onmouseover="show_status('http://www2.elsevier.co.uk/~tony/1014/yads-schema-2002-04-03#resource');">
<path style="fill:none;stroke:#add9e6" d="M267,299C265,312 261,329 259,344"/>
<polygon style="fill:#add9e6;stroke:#add9e6" points="257,343 257,353 262,344 257,343"/>
<text text-anchor="middle" x="305" y="330" style="font-family:arial">has:resource</text>
</a></g>
<g id="node13" class="node"><title>:_4</title>
<a xlink:href="http://www.w3.org/1999/02/22-rdf-syntax-ns#Bag" target="_blank" onmouseover="show_status('http://www.w3.org/1999/02/22-rdf-syntax-ns#Bag');">
<ellipse cx="368" cy="371" rx="28" ry="18" style="fill:#d2d2d2;stroke:#d2d2d2"/>
<text text-anchor="middle" x="368" y="375" style="font-family:arial">rdf:Bag</text>
</a></g>
<g id="edge12" class="edge"><title>:_3-&gt;:_4</title>
<a xlink:href="http://www2.elsevier.co.uk/~tony/1014/yads-schema-2002-04-03#collection" target="_blank" onmouseover="show_status('http://www2.elsevier.co.uk/~tony/1014/yads-schema-2002-04-03#collection');">
<path style="fill:none;stroke:#add9e6" d="M301,289C317,294 336,303 349,317 356,325 360,334 363,344"/>
<polygon style="fill:#add9e6;stroke:#add9e6" points="360,344 366,353 365,343 360,344"/>
<text text-anchor="middle" x="402" y="330" style="font-family:arial">has:collection</text>
</a></g>
<g id="node15" class="node"><title>:_5</title>
<ellipse cx="362" cy="476" rx="42" ry="18" style="fill:#eedb82;stroke:#eedb82"/>
<text text-anchor="middle" x="362" y="480" style="font-family:arial">xref:Erratum</text>
</g>
<g id="edge14" class="edge"><title>:_4-&gt;:_5</title>
<a xlink:href="http://www.w3.org/1999/02/22-rdf-syntax-ns#_1" target="_blank" onmouseover="show_status('http://www.w3.org/1999/02/22-rdf-syntax-ns#_1');">
<path style="fill:none;stroke:#add9e6" d="M367,389C366,405 365,430 363,449"/>
<polygon style="fill:#add9e6;stroke:#add9e6" points="361,448 363,458 366,448 361,448"/>
<text text-anchor="middle" x="387" y="420" style="font-family:arial">rdf:_1</text>
</a></g>
<g id="node17" class="node"><title>:_6</title>
<ellipse cx="554" cy="476" rx="38" ry="18" style="fill:#eedb82;stroke:#eedb82"/>
<text text-anchor="middle" x="554" y="480" style="font-family:arial">xref:Article</text>
</g>
<g id="edge16" class="edge"><title>:_4-&gt;:_6</title>
<a xlink:href="http://www.w3.org/1999/02/22-rdf-syntax-ns#_2" target="_blank" onmouseover="show_status('http://www.w3.org/1999/02/22-rdf-syntax-ns#_2');">
<path style="fill:none;stroke:#add9e6" d="M390,382C414,394 453,415 485,433 498,440 512,449 523,457"/>
<polygon style="fill:#add9e6;stroke:#add9e6" points="521,459 531,462 524,455 521,459"/>
<text text-anchor="middle" x="491" y="420" style="font-family:arial">rdf:_2</text>
</a></g>
<g id="node20" class="node"><title>http://www.idealibrary.com/li...6</title>
<a xlink:href="http://www.idealibrary.com/links/doi/10.1006/geno.2002.6726" target="_blank" onmouseover="show_status('http://www.idealibrary.com/links/doi/10.1006/geno.2002.6726');">
<ellipse cx="132" cy="566" rx="89" ry="18" style="fill:#dca0dd;stroke:#dca0dd"/>
<text text-anchor="middle" x="132" y="570" style="font-family:arial">http://www.idealibrary.com/li...6</text>
</a></g>
<g id="edge19" class="edge"><title>:_5-&gt;http://www.idealibrary.com/li...6</title>
<a xlink:href="http://www2.elsevier.co.uk/~tony/1014/yads-schema-2002-04-03#resource" target="_blank" onmouseover="show_status('http://www2.elsevier.co.uk/~tony/1014/yads-schema-2002-04-03#resource');">
<path style="fill:none;stroke:#add9e6" d="M326,485C300,493 285,499 250,512 225,523 197,535 175,545"/>
<polygon style="fill:#add9e6;stroke:#add9e6" points="175,542 167,549 177,547 175,542"/>
<text text-anchor="middle" x="300" y="525" style="font-family:arial">has:resource</text>
</a></g>
<g id="node22" class="node"><title>node_1</title>
<polygon style="fill:#6497ed;stroke:#6497ed" points="401,548 239,548 239,584 401,584 401,548"/>
<text text-anchor="middle" x="320" y="570" style="font-family:arial">Genomics (2002) 79: p. 462</text>
</g>
<g id="edge21" class="edge"><title>:_5-&gt;node_1</title>
<a xlink:href="http://www2.elsevier.co.uk/~tony/1014/yads-schema-2002-04-03#label" target="_blank" onmouseover="show_status('http://www2.elsevier.co.uk/~tony/1014/yads-schema-2002-04-03#label');">
<path style="fill:none;stroke:#add9e6" d="M351,494C347,499 343,506 340,512 336,521 332,530 329,539"/>
<polygon style="fill:#add9e6;stroke:#add9e6" points="327,538 326,548 332,539 327,538"/>
<text text-anchor="middle" x="370" y="525" style="font-family:arial">has:label</text>
</a></g>
<g id="node24" class="node"><title>node_3</title>
<polygon style="fill:#6497ed;stroke:#6497ed" points="473,548 419,548 419,584 473,584 473,548"/>
<text text-anchor="middle" x="446" y="570" style="font-family:arial">:default</text>
</g>
<g id="edge23" class="edge"><title>:_5-&gt;node_3</title>
<a xlink:href="http://www2.elsevier.co.uk/~tony/1014/yads-schema-2002-04-03#access" target="_blank" onmouseover="show_status('http://www2.elsevier.co.uk/~tony/1014/yads-schema-2002-04-03#access');">
<path style="fill:none;stroke:#add9e6" d="M380,492C386,498 393,505 399,512 406,520 407,523 413,530 416,534 419,537 422,541"/>
<polygon style="fill:#add9e6;stroke:#add9e6" points="420,543 429,548 424,539 420,543"/>
<text text-anchor="middle" x="449" y="525" style="font-family:arial">has:access</text>
</a></g>
<g id="node27" class="node"><title>doi:10.1006/geno.2001.6453</title>
<a xlink:href="http://dx.doi.org/10.1006/geno.2001.6453" target="_blank" onmouseover="show_status('http://dx.doi.org/10.1006/geno.2001.6453');">
<ellipse cx="576" cy="566" rx="79" ry="18" style="fill:#dca0dd;stroke:#dca0dd"/>
<text text-anchor="middle" x="576" y="570" style="font-family:arial">doi:10.1006/geno.2001.6453</text>
</a></g>
<g id="edge26" class="edge"><title>:_6-&gt;doi:10.1006/geno.2001.6453</title>
<a xlink:href="http://www2.elsevier.co.uk/~tony/1014/yads-schema-2002-04-03#resource" target="_blank" onmouseover="show_status('http://www2.elsevier.co.uk/~tony/1014/yads-schema-2002-04-03#resource');">
<path style="fill:none;stroke:#add9e6" d="M558,494C561,507 566,524 570,539"/>
<polygon style="fill:#add9e6;stroke:#add9e6" points="567,539 572,548 572,538 567,539"/>
<text text-anchor="middle" x="607" y="525" style="font-family:arial">has:resource</text>
</a></g>
</g>
</svg>
