<?xml version="1.0" encoding="UTF-8" standalone="no"?>
<!DOCTYPE svg PUBLIC "-//W3C//DTD SVG 1.0//EN"
 "http://www.w3.org/TR/2001/REC-SVG-20010904/DTD/svg10.dtd" [
 <!ATTLIST svg xmlns:xlink CDATA #FIXED "http://www.w3.org/1999/xlink">
]>
<!-- Generated by dot version 1.8.5 (Tue Apr 23 17:19:23  2002)
     For user: (Administrator) ,S-1-5-21-1454471165-688789844-1708537768-500   Title: yads    Pages: 1 -->
<svg width="734px" height="854px"
 xmlns="http://www.w3.org/2000/svg" xmlns:xlink="http://www.w3.org/1999/xlink">
<g id="graph0" class="graph" style="font-family:Times-Roman;font-size:11.00">
<title>yads</title>
<text text-anchor="middle" x="367" y="843" style="font-family:arial;font-size:24.00">YADS - A Description Service</text>
<g id="graph2" class="cluster"><title>cluster_1</title>
<polygon style="fill:none;stroke:#d2d2d2;stroke-dasharray:5,2" points="19,811 715,811 715,43 19,43 19,811"/>
<text text-anchor="middle" x="113" y="55" style="font-family:arial">Nest - Article (Format Metadata)</text>
</g>
<g id="graph3" class="cluster"><title>cluster_3</title>
<polygon style="fill:none;stroke:#d2d2d2;stroke-dasharray:5,2" points="27,803 707,803 707,238 27,238 27,803"/>
<text text-anchor="middle" x="80" y="250" style="font-family:arial">Nest - DOI Profile</text>
</g>
<g id="graph4" class="cluster"><title>cluster_5</title>
<polygon style="fill:none;stroke:#d2d2d2;stroke-dasharray:5,2" points="35,592 473,592 473,433 35,433 35,592"/>
<text text-anchor="middle" x="74" y="445" style="font-family:arial">Item - Article</text>
</g>
<g id="graph5" class="cluster"><title>cluster_6</title>
<polygon style="fill:none;stroke:#d2d2d2;stroke-dasharray:5,2" points="481,795 699,795 699,433 481,433 481,795"/>
<text text-anchor="middle" x="497" y="445" style="font-family:arial">Item</text>
</g>
<g id="graph6" class="cluster"><title>cluster_8</title>
<polygon style="fill:none;stroke:#d2d2d2;stroke-dasharray:5,2" points="489,787 586,787 586,628 489,628 489,787"/>
<text text-anchor="middle" x="550" y="640" style="font-family:arial">Item - HTML Format</text>
</g>
<g id="graph7" class="cluster"><title>cluster_9</title>
<polygon style="fill:none;stroke:#d2d2d2;stroke-dasharray:5,2" points="594,787 691,787 691,628 594,628 594,787"/>
<text text-anchor="middle" x="650" y="640" style="font-family:arial">Item - PDF Format</text>
</g>
<g id="node2" class="node"><title>:_1</title>
<a xlink:href="http://www2.elsevier.co.uk/~tony/1014/yads-schema-2002-04-03#Nest" target="_blank" onmouseover="show_status('http://www2.elsevier.co.uk/~tony/1014/yads-schema-2002-04-03#Nest');">
<ellipse cx="196" cy="86" rx="29" ry="18" style="fill:#d2d2d2;stroke:#d2d2d2"/>
<text text-anchor="middle" x="196" y="90" style="font-family:arial">isa:Nest</text>
</a></g>
<g id="node4" class="node"><title>doi:10.1006/jmbi.2002.5438</title>
<a xlink:href="http://dx.doi.org/10.1006/jmbi.2002.5438" target="_blank" onmouseover="show_status('http://dx.doi.org/10.1006/jmbi.2002.5438');">
<ellipse cx="141" cy="176" rx="78" ry="18" style="fill:#dca0dd;stroke:#dca0dd"/>
<text text-anchor="middle" x="141" y="180" style="font-family:arial">doi:10.1006/jmbi.2002.5438</text>
</a></g>
<g id="edge3" class="edge"><title>:_1-&gt;doi:10.1006/jmbi.2002.5438</title>
<a xlink:href="http://www2.elsevier.co.uk/~tony/1014/yads-schema-2002-04-03#resource" target="_blank" onmouseover="show_status('http://www2.elsevier.co.uk/~tony/1014/yads-schema-2002-04-03#resource');">
<path style="fill:none;stroke:#add9e6" d="M185,103C181,109 177,116 173,122 168,131 162,141 157,150"/>
<polygon style="fill:#add9e6;stroke:#add9e6" points="155,148 152,158 159,151 155,148"/>
<text text-anchor="middle" x="217" y="135" style="font-family:arial">has:resource</text>
</a></g>
<g id="node6" class="node"><title>:_2</title>
<a xlink:href="http://www.w3.org/1999/02/22-rdf-syntax-ns#Bag" target="_blank" onmouseover="show_status('http://www.w3.org/1999/02/22-rdf-syntax-ns#Bag');">
<ellipse cx="265" cy="176" rx="28" ry="18" style="fill:#d2d2d2;stroke:#d2d2d2"/>
<text text-anchor="middle" x="265" y="180" style="font-family:arial">rdf:Bag</text>
</a></g>
<g id="edge5" class="edge"><title>:_1-&gt;:_2</title>
<a xlink:href="http://www2.elsevier.co.uk/~tony/1014/yads-schema-2002-04-03#collection" target="_blank" onmouseover="show_status('http://www2.elsevier.co.uk/~tony/1014/yads-schema-2002-04-03#collection');">
<path style="fill:none;stroke:#add9e6" d="M222,95C235,100 250,109 258,122 263,130 266,140 267,149"/>
<polygon style="fill:#add9e6;stroke:#add9e6" points="265,148 267,158 270,148 265,148"/>
<text text-anchor="middle" x="308" y="135" style="font-family:arial">has:collection</text>
</a></g>
<g id="node8" class="node"><title>:_3</title>
<ellipse cx="265" cy="281" rx="34" ry="18" style="fill:#eedb82;stroke:#eedb82"/>
<text text-anchor="middle" x="265" y="285" style="font-family:arial">doi:Profile</text>
</g>
<g id="edge7" class="edge"><title>:_2-&gt;:_3</title>
<a xlink:href="http://www.w3.org/1999/02/22-rdf-syntax-ns#_1" target="_blank" onmouseover="show_status('http://www.w3.org/1999/02/22-rdf-syntax-ns#_1');">
<path style="fill:none;stroke:#add9e6" d="M265,194C265,210 265,235 265,254"/>
<polygon style="fill:#add9e6;stroke:#add9e6" points="263,253 265,263 268,253 263,253"/>
<text text-anchor="middle" x="285" y="225" style="font-family:arial">rdf:_1</text>
</a></g>
<g id="node11" class="node"><title>doi:10.0/profile.crossref</title>
<a xlink:href="http://dx.doi.org/10.0/profile.crossref" target="_blank" onmouseover="show_status('http://dx.doi.org/10.0/profile.crossref');">
<ellipse cx="248" cy="371" rx="69" ry="18" style="fill:#dca0dd;stroke:#dca0dd"/>
<text text-anchor="middle" x="248" y="375" style="font-family:arial">doi:10.0/profile.crossref</text>
</a></g>
<g id="edge10" class="edge"><title>:_3-&gt;doi:10.0/profile.crossref</title>
<a xlink:href="http://www2.elsevier.co.uk/~tony/1014/yads-schema-2002-04-03#resource" target="_blank" onmouseover="show_status('http://www2.elsevier.co.uk/~tony/1014/yads-schema-2002-04-03#resource');">
<path style="fill:none;stroke:#add9e6" d="M262,299C260,312 256,329 254,344"/>
<polygon style="fill:#add9e6;stroke:#add9e6" points="252,343 252,353 257,344 252,343"/>
<text text-anchor="middle" x="300" y="330" style="font-family:arial">has:resource</text>
</a></g>
<g id="node13" class="node"><title>:_4</title>
<a xlink:href="http://www.w3.org/1999/02/22-rdf-syntax-ns#Bag" target="_blank" onmouseover="show_status('http://www.w3.org/1999/02/22-rdf-syntax-ns#Bag');">
<ellipse cx="363" cy="371" rx="28" ry="18" style="fill:#d2d2d2;stroke:#d2d2d2"/>
<text text-anchor="middle" x="363" y="375" style="font-family:arial">rdf:Bag</text>
</a></g>
<g id="edge12" class="edge"><title>:_3-&gt;:_4</title>
<a xlink:href="http://www2.elsevier.co.uk/~tony/1014/yads-schema-2002-04-03#collection" target="_blank" onmouseover="show_status('http://www2.elsevier.co.uk/~tony/1014/yads-schema-2002-04-03#collection');">
<path style="fill:none;stroke:#add9e6" d="M296,289C312,294 331,303 344,317 351,325 355,334 358,344"/>
<polygon style="fill:#add9e6;stroke:#add9e6" points="355,344 361,353 360,343 355,344"/>
<text text-anchor="middle" x="397" y="330" style="font-family:arial">has:collection</text>
</a></g>
<g id="node15" class="node"><title>:_5</title>
<ellipse cx="356" cy="476" rx="38" ry="18" style="fill:#eedb82;stroke:#eedb82"/>
<text text-anchor="middle" x="356" y="480" style="font-family:arial">xref:Article</text>
</g>
<g id="edge14" class="edge"><title>:_4-&gt;:_5</title>
<a xlink:href="http://www.w3.org/1999/02/22-rdf-syntax-ns#_1" target="_blank" onmouseover="show_status('http://www.w3.org/1999/02/22-rdf-syntax-ns#_1');">
<path style="fill:none;stroke:#add9e6" d="M362,389C361,405 360,430 358,449"/>
<polygon style="fill:#add9e6;stroke:#add9e6" points="356,448 357,458 361,448 356,448"/>
<text text-anchor="middle" x="382" y="420" style="font-family:arial">rdf:_1</text>
</a></g>
<g id="node17" class="node"><title>:_6</title>
<ellipse cx="529" cy="476" rx="40" ry="18" style="fill:#eedb82;stroke:#eedb82"/>
<text text-anchor="middle" x="529" y="480" style="font-family:arial">xref:Format</text>
</g>
<g id="edge16" class="edge"><title>:_4-&gt;:_6</title>
<a xlink:href="http://www.w3.org/1999/02/22-rdf-syntax-ns#_2" target="_blank" onmouseover="show_status('http://www.w3.org/1999/02/22-rdf-syntax-ns#_2');">
<path style="fill:none;stroke:#add9e6" d="M386,382C410,393 447,413 477,433 486,439 495,447 504,454"/>
<polygon style="fill:#add9e6;stroke:#add9e6" points="502,455 511,460 505,452 502,455"/>
<text text-anchor="middle" x="485" y="420" style="font-family:arial">rdf:_2</text>
</a></g>
<g id="node20" class="node"><title>http://www.idealibrary.com/li...8</title>
<a xlink:href="http://www.idealibrary.com/links/doi/10.1006/jmbi.2002.5438" target="_blank" onmouseover="show_status('http://www.idealibrary.com/links/doi/10.1006/jmbi.2002.5438');">
<ellipse cx="132" cy="566" rx="89" ry="18" style="fill:#dca0dd;stroke:#dca0dd"/>
<text text-anchor="middle" x="132" y="570" style="font-family:arial">http://www.idealibrary.com/li...8</text>
</a></g>
<g id="edge19" class="edge"><title>:_5-&gt;http://www.idealibrary.com/li...8</title>
<a xlink:href="http://www2.elsevier.co.uk/~tony/1014/yads-schema-2002-04-03#resource" target="_blank" onmouseover="show_status('http://www2.elsevier.co.uk/~tony/1014/yads-schema-2002-04-03#resource');">
<path style="fill:none;stroke:#add9e6" d="M322,484C293,492 279,498 243,512 219,522 193,535 172,545"/>
<polygon style="fill:#add9e6;stroke:#add9e6" points="172,542 164,549 174,547 172,542"/>
<text text-anchor="middle" x="293" y="525" style="font-family:arial">has:resource</text>
</a></g>
<g id="node22" class="node"><title>node_1</title>
<polygon style="fill:#6497ed;stroke:#6497ed" points="393,548 239,548 239,584 393,584 393,548"/>
<text text-anchor="middle" x="316" y="570" style="font-family:arial">J. Mol. Biol. (2002) 317: p. ...5</text>
</g>
<g id="edge21" class="edge"><title>:_5-&gt;node_1</title>
<a xlink:href="http://www2.elsevier.co.uk/~tony/1014/yads-schema-2002-04-03#label" target="_blank" onmouseover="show_status('http://www2.elsevier.co.uk/~tony/1014/yads-schema-2002-04-03#label');">
<path style="fill:none;stroke:#add9e6" d="M344,493C340,499 336,506 333,512 329,520 326,530 324,539"/>
<polygon style="fill:#add9e6;stroke:#add9e6" points="322,538 321,548 327,539 322,538"/>
<text text-anchor="middle" x="363" y="525" style="font-family:arial">has:label</text>
</a></g>
<g id="node24" class="node"><title>node_3</title>
<polygon style="fill:#6497ed;stroke:#6497ed" points="465,548 411,548 411,584 465,584 465,548"/>
<text text-anchor="middle" x="438" y="570" style="font-family:arial">:default</text>
</g>
<g id="edge23" class="edge"><title>:_5-&gt;node_3</title>
<a xlink:href="http://www2.elsevier.co.uk/~tony/1014/yads-schema-2002-04-03#access" target="_blank" onmouseover="show_status('http://www2.elsevier.co.uk/~tony/1014/yads-schema-2002-04-03#access');">
<path style="fill:none;stroke:#add9e6" d="M373,492C380,498 386,505 392,512 399,520 399,523 405,530 408,534 411,537 414,541"/>
<polygon style="fill:#add9e6;stroke:#add9e6" points="412,543 421,548 416,539 412,543"/>
<text text-anchor="middle" x="441" y="525" style="font-family:arial">has:access</text>
</a></g>
<g id="node27" class="node"><title>:_7</title>
<a xlink:href="http://www.w3.org/1999/02/22-rdf-syntax-ns#Alt" target="_blank" onmouseover="show_status('http://www.w3.org/1999/02/22-rdf-syntax-ns#Alt');">
<ellipse cx="529" cy="566" rx="27" ry="18" style="fill:#d2d2d2;stroke:#d2d2d2"/>
<text text-anchor="middle" x="529" y="570" style="font-family:arial">rdf:Alt</text>
</a></g>
<g id="edge26" class="edge"><title>:_6-&gt;:_7</title>
<a xlink:href="http://www2.elsevier.co.uk/~tony/1014/yads-schema-2002-04-03#collection" target="_blank" onmouseover="show_status('http://www2.elsevier.co.uk/~tony/1014/yads-schema-2002-04-03#collection');">
<path style="fill:none;stroke:#add9e6" d="M529,494C529,507 529,524 529,539"/>
<polygon style="fill:#add9e6;stroke:#add9e6" points="527,538 529,548 532,538 527,538"/>
<text text-anchor="middle" x="570" y="525" style="font-family:arial">has:collection</text>
</a></g>
<g id="node29" class="node"><title>:_8</title>
<a xlink:href="http://www2.elsevier.co.uk/~tony/1014/yads-schema-2002-04-03#Item" target="_blank" onmouseover="show_status('http://www2.elsevier.co.uk/~tony/1014/yads-schema-2002-04-03#Item');">
<ellipse cx="526" cy="671" rx="28" ry="18" style="fill:#d2d2d2;stroke:#d2d2d2"/>
<text text-anchor="middle" x="526" y="675" style="font-family:arial">isa:Item</text>
</a></g>
<g id="edge28" class="edge"><title>:_7-&gt;:_8</title>
<a xlink:href="http://www.w3.org/1999/02/22-rdf-syntax-ns#_1" target="_blank" onmouseover="show_status('http://www.w3.org/1999/02/22-rdf-syntax-ns#_1');">
<path style="fill:none;stroke:#add9e6" d="M528,584C528,600 527,625 527,644"/>
<polygon style="fill:#add9e6;stroke:#add9e6" points="525,643 527,653 530,643 525,643"/>
<text text-anchor="middle" x="549" y="615" style="font-family:arial">rdf:_1</text>
</a></g>
<g id="node31" class="node"><title>:_9</title>
<a xlink:href="http://www2.elsevier.co.uk/~tony/1014/yads-schema-2002-04-03#Item" target="_blank" onmouseover="show_status('http://www2.elsevier.co.uk/~tony/1014/yads-schema-2002-04-03#Item');">
<ellipse cx="630" cy="671" rx="28" ry="18" style="fill:#d2d2d2;stroke:#d2d2d2"/>
<text text-anchor="middle" x="630" y="675" style="font-family:arial">isa:Item</text>
</a></g>
<g id="edge30" class="edge"><title>:_7-&gt;:_9</title>
<a xlink:href="http://www.w3.org/1999/02/22-rdf-syntax-ns#_2" target="_blank" onmouseover="show_status('http://www.w3.org/1999/02/22-rdf-syntax-ns#_2');">
<path style="fill:none;stroke:#add9e6" d="M547,580C556,586 565,594 573,602 588,617 602,634 613,648"/>
<polygon style="fill:#add9e6;stroke:#add9e6" points="610,648 618,655 614,645 610,648"/>
<text text-anchor="middle" x="611" y="615" style="font-family:arial">rdf:_2</text>
</a></g>
<g id="node34" class="node"><title>data:,HTML</title>
<a xlink:href="" onclick="show_data('HTML');" onmouseover="show_status('data:,HTML');">
<ellipse cx="536" cy="761" rx="39" ry="18" style="fill:#dca0dd;stroke:#dca0dd"/>
<text text-anchor="middle" x="536" y="765" style="font-family:arial">data:,HTML</text>
</a></g>
<g id="edge33" class="edge"><title>:_8-&gt;data:,HTML</title>
<a xlink:href="http://www2.elsevier.co.uk/~tony/1014/yads-schema-2002-04-03#resource" target="_blank" onmouseover="show_status('http://www2.elsevier.co.uk/~tony/1014/yads-schema-2002-04-03#resource');">
<path style="fill:none;stroke:#add9e6" d="M516,688C510,699 505,713 509,725 511,729 513,733 515,736"/>
<polygon style="fill:#add9e6;stroke:#add9e6" points="513,737 520,744 517,734 513,737"/>
<text text-anchor="middle" x="552" y="720" style="font-family:arial">has:resource</text>
</a></g>
<g id="node37" class="node"><title>data:,PDF</title>
<a xlink:href="" onclick="show_data('PDF');" onmouseover="show_status('data:,PDF');">
<ellipse cx="636" cy="761" rx="34" ry="18" style="fill:#dca0dd;stroke:#dca0dd"/>
<text text-anchor="middle" x="636" y="765" style="font-family:arial">data:,PDF</text>
</a></g>
<g id="edge36" class="edge"><title>:_9-&gt;data:,PDF</title>
<a xlink:href="http://www2.elsevier.co.uk/~tony/1014/yads-schema-2002-04-03#resource" target="_blank" onmouseover="show_status('http://www2.elsevier.co.uk/~tony/1014/yads-schema-2002-04-03#resource');">
<path style="fill:none;stroke:#add9e6" d="M615,686C606,697 597,712 602,725 604,730 607,735 610,739"/>
<polygon style="fill:#add9e6;stroke:#add9e6" points="608,741 617,746 612,737 608,741"/>
<text text-anchor="middle" x="644" y="720" style="font-family:arial">has:resource</text>
</a></g>
</g>
</svg>
