<?xml version="1.0" encoding="UTF-8" standalone="no"?>
<!DOCTYPE svg PUBLIC "-//W3C//DTD SVG 1.0//EN"
 "http://www.w3.org/TR/2001/REC-SVG-20010904/DTD/svg10.dtd" [
 <!ATTLIST svg xmlns:xlink CDATA #FIXED "http://www.w3.org/1999/xlink">
]>
<!-- Generated by dot version 1.8.5 (Tue Apr 23 17:19:23  2002)
     For user: (Administrator) ,S-1-5-21-1454471165-688789844-1708537768-500   Title: yads    Pages: 1 -->
<svg width="810px" height="651px"
 xmlns="http://www.w3.org/2000/svg" xmlns:xlink="http://www.w3.org/1999/xlink">
<g id="graph0" class="graph" style="font-family:Times-Roman;font-size:11.00">
<title>yads</title>
<text text-anchor="middle" x="405" y="640" style="font-family:arial;font-size:24.00">YADS - A Description Service</text>
<g id="graph2" class="cluster"><title>cluster_1</title>
<polygon style="fill:none;stroke:#d2d2d2;stroke-dasharray:5,2" points="19,608 791,608 791,43 19,43 19,608"/>
<text text-anchor="middle" x="80" y="55" style="font-family:arial">Nest - Book Review</text>
</g>
<g id="graph3" class="cluster"><title>cluster_3</title>
<polygon style="fill:none;stroke:#d2d2d2;stroke-dasharray:5,2" points="27,600 783,600 783,238 27,238 27,600"/>
<text text-anchor="middle" x="80" y="250" style="font-family:arial">Nest - DOI Profile</text>
</g>
<g id="graph4" class="cluster"><title>cluster_5</title>
<polygon style="fill:none;stroke:#d2d2d2;stroke-dasharray:5,2" points="35,592 467,592 467,433 35,433 35,592"/>
<text text-anchor="middle" x="78" y="445" style="font-family:arial">Item - Review</text>
</g>
<g id="graph5" class="cluster"><title>cluster_6</title>
<polygon style="fill:none;stroke:#d2d2d2;stroke-dasharray:5,2" points="475,592 775,592 775,433 475,433 475,592"/>
<text text-anchor="middle" x="534" y="445" style="font-family:arial">Item - Next Review</text>
</g>
<g id="node2" class="node"><title>:_1</title>
<a xlink:href="http://www2.elsevier.co.uk/~tony/1014/yads-schema-2002-04-03#Nest" target="_blank" onmouseover="show_status('http://www2.elsevier.co.uk/~tony/1014/yads-schema-2002-04-03#Nest');">
<ellipse cx="194" cy="86" rx="29" ry="18" style="fill:#d2d2d2;stroke:#d2d2d2"/>
<text text-anchor="middle" x="194" y="90" style="font-family:arial">isa:Nest</text>
</a></g>
<g id="node4" class="node"><title>doi:10.1006/anbo.2001.1478</title>
<a xlink:href="http://dx.doi.org/10.1006/anbo.2001.1478" target="_blank" onmouseover="show_status('http://dx.doi.org/10.1006/anbo.2001.1478');">
<ellipse cx="139" cy="176" rx="77" ry="18" style="fill:#dca0dd;stroke:#dca0dd"/>
<text text-anchor="middle" x="139" y="180" style="font-family:arial">doi:10.1006/anbo.2001.1478</text>
</a></g>
<g id="edge3" class="edge"><title>:_1-&gt;doi:10.1006/anbo.2001.1478</title>
<a xlink:href="http://www2.elsevier.co.uk/~tony/1014/yads-schema-2002-04-03#resource" target="_blank" onmouseover="show_status('http://www2.elsevier.co.uk/~tony/1014/yads-schema-2002-04-03#resource');">
<path style="fill:none;stroke:#add9e6" d="M183,103C179,109 175,116 171,122 166,131 160,141 155,150"/>
<polygon style="fill:#add9e6;stroke:#add9e6" points="153,148 150,158 157,151 153,148"/>
<text text-anchor="middle" x="215" y="135" style="font-family:arial">has:resource</text>
</a></g>
<g id="node6" class="node"><title>:_2</title>
<a xlink:href="http://www.w3.org/1999/02/22-rdf-syntax-ns#Bag" target="_blank" onmouseover="show_status('http://www.w3.org/1999/02/22-rdf-syntax-ns#Bag');">
<ellipse cx="262" cy="176" rx="28" ry="18" style="fill:#d2d2d2;stroke:#d2d2d2"/>
<text text-anchor="middle" x="262" y="180" style="font-family:arial">rdf:Bag</text>
</a></g>
<g id="edge5" class="edge"><title>:_1-&gt;:_2</title>
<a xlink:href="http://www2.elsevier.co.uk/~tony/1014/yads-schema-2002-04-03#collection" target="_blank" onmouseover="show_status('http://www2.elsevier.co.uk/~tony/1014/yads-schema-2002-04-03#collection');">
<path style="fill:none;stroke:#add9e6" d="M220,95C233,100 248,109 256,122 261,130 264,140 264,149"/>
<polygon style="fill:#add9e6;stroke:#add9e6" points="262,148 264,158 267,148 262,148"/>
<text text-anchor="middle" x="306" y="135" style="font-family:arial">has:collection</text>
</a></g>
<g id="node8" class="node"><title>:_3</title>
<ellipse cx="262" cy="281" rx="34" ry="18" style="fill:#eedb82;stroke:#eedb82"/>
<text text-anchor="middle" x="262" y="285" style="font-family:arial">doi:Profile</text>
</g>
<g id="edge7" class="edge"><title>:_2-&gt;:_3</title>
<a xlink:href="http://www.w3.org/1999/02/22-rdf-syntax-ns#_1" target="_blank" onmouseover="show_status('http://www.w3.org/1999/02/22-rdf-syntax-ns#_1');">
<path style="fill:none;stroke:#add9e6" d="M262,194C262,210 262,235 262,254"/>
<polygon style="fill:#add9e6;stroke:#add9e6" points="260,253 262,263 265,253 260,253"/>
<text text-anchor="middle" x="282" y="225" style="font-family:arial">rdf:_1</text>
</a></g>
<g id="node11" class="node"><title>doi:10.0/profile.crossref</title>
<a xlink:href="http://dx.doi.org/10.0/profile.crossref" target="_blank" onmouseover="show_status('http://dx.doi.org/10.0/profile.crossref');">
<ellipse cx="244" cy="371" rx="69" ry="18" style="fill:#dca0dd;stroke:#dca0dd"/>
<text text-anchor="middle" x="244" y="375" style="font-family:arial">doi:10.0/profile.crossref</text>
</a></g>
<g id="edge10" class="edge"><title>:_3-&gt;doi:10.0/profile.crossref</title>
<a xlink:href="http://www2.elsevier.co.uk/~tony/1014/yads-schema-2002-04-03#resource" target="_blank" onmouseover="show_status('http://www2.elsevier.co.uk/~tony/1014/yads-schema-2002-04-03#resource');">
<path style="fill:none;stroke:#add9e6" d="M258,299C256,312 252,329 250,344"/>
<polygon style="fill:#add9e6;stroke:#add9e6" points="248,343 248,353 253,344 248,343"/>
<text text-anchor="middle" x="297" y="330" style="font-family:arial">has:resource</text>
</a></g>
<g id="node13" class="node"><title>:_4</title>
<a xlink:href="http://www.w3.org/1999/02/22-rdf-syntax-ns#Bag" target="_blank" onmouseover="show_status('http://www.w3.org/1999/02/22-rdf-syntax-ns#Bag');">
<ellipse cx="359" cy="371" rx="28" ry="18" style="fill:#d2d2d2;stroke:#d2d2d2"/>
<text text-anchor="middle" x="359" y="375" style="font-family:arial">rdf:Bag</text>
</a></g>
<g id="edge12" class="edge"><title>:_3-&gt;:_4</title>
<a xlink:href="http://www2.elsevier.co.uk/~tony/1014/yads-schema-2002-04-03#collection" target="_blank" onmouseover="show_status('http://www2.elsevier.co.uk/~tony/1014/yads-schema-2002-04-03#collection');">
<path style="fill:none;stroke:#add9e6" d="M293,289C309,294 329,303 341,317 348,325 352,334 355,344"/>
<polygon style="fill:#add9e6;stroke:#add9e6" points="352,344 357,353 357,343 352,344"/>
<text text-anchor="middle" x="394" y="330" style="font-family:arial">has:collection</text>
</a></g>
<g id="node15" class="node"><title>:_5</title>
<ellipse cx="351" cy="476" rx="42" ry="18" style="fill:#eedb82;stroke:#eedb82"/>
<text text-anchor="middle" x="351" y="480" style="font-family:arial">xref:Review</text>
</g>
<g id="edge14" class="edge"><title>:_4-&gt;:_5</title>
<a xlink:href="http://www.w3.org/1999/02/22-rdf-syntax-ns#_1" target="_blank" onmouseover="show_status('http://www.w3.org/1999/02/22-rdf-syntax-ns#_1');">
<path style="fill:none;stroke:#add9e6" d="M358,389C356,405 355,430 353,449"/>
<polygon style="fill:#add9e6;stroke:#add9e6" points="351,448 352,458 356,448 351,448"/>
<text text-anchor="middle" x="377" y="420" style="font-family:arial">rdf:_1</text>
</a></g>
<g id="node17" class="node"><title>:_6</title>
<a xlink:href="http://www2.elsevier.co.uk/~tony/1014/yads-schema-2002-04-03#Item" target="_blank" onmouseover="show_status('http://www2.elsevier.co.uk/~tony/1014/yads-schema-2002-04-03#Item');">
<ellipse cx="560" cy="476" rx="28" ry="18" style="fill:#d2d2d2;stroke:#d2d2d2"/>
<text text-anchor="middle" x="560" y="480" style="font-family:arial">isa:Item</text>
</a></g>
<g id="edge16" class="edge"><title>:_4-&gt;:_6</title>
<a xlink:href="http://www.w3.org/1999/02/22-rdf-syntax-ns#_2" target="_blank" onmouseover="show_status('http://www.w3.org/1999/02/22-rdf-syntax-ns#_2');">
<path style="fill:none;stroke:#add9e6" d="M381,382C417,402 490,439 530,461"/>
<polygon style="fill:#add9e6;stroke:#add9e6" points="528,463 538,465 530,458 528,463"/>
<text text-anchor="middle" x="483" y="420" style="font-family:arial">rdf:_2</text>
</a></g>
<g id="node20" class="node"><title>http://www.idealibrary.com/li...8</title>
<a xlink:href="http://www.idealibrary.com/links/doi/10.1006/anbo.2001.1478" target="_blank" onmouseover="show_status('http://www.idealibrary.com/links/doi/10.1006/anbo.2001.1478');">
<ellipse cx="132" cy="566" rx="89" ry="18" style="fill:#dca0dd;stroke:#dca0dd"/>
<text text-anchor="middle" x="132" y="570" style="font-family:arial">http://www.idealibrary.com/li...8</text>
</a></g>
<g id="edge19" class="edge"><title>:_5-&gt;http://www.idealibrary.com/li...8</title>
<a xlink:href="http://www2.elsevier.co.uk/~tony/1014/yads-schema-2002-04-03#resource" target="_blank" onmouseover="show_status('http://www2.elsevier.co.uk/~tony/1014/yads-schema-2002-04-03#resource');">
<path style="fill:none;stroke:#add9e6" d="M314,485C287,492 273,498 238,512 215,522 191,534 171,545"/>
<polygon style="fill:#add9e6;stroke:#add9e6" points="171,542 163,549 173,547 171,542"/>
<text text-anchor="middle" x="288" y="525" style="font-family:arial">has:resource</text>
</a></g>
<g id="node22" class="node"><title>node_1</title>
<polygon style="fill:#6497ed;stroke:#6497ed" points="387,548 239,548 239,584 387,584 387,548"/>
<text text-anchor="middle" x="313" y="570" style="font-family:arial">Ann. Bot. (2001) 88: p. 517</text>
</g>
<g id="edge21" class="edge"><title>:_5-&gt;node_1</title>
<a xlink:href="http://www2.elsevier.co.uk/~tony/1014/yads-schema-2002-04-03#label" target="_blank" onmouseover="show_status('http://www2.elsevier.co.uk/~tony/1014/yads-schema-2002-04-03#label');">
<path style="fill:none;stroke:#add9e6" d="M338,493C334,499 330,506 327,512 323,520 320,530 318,539"/>
<polygon style="fill:#add9e6;stroke:#add9e6" points="316,538 316,548 321,539 316,538"/>
<text text-anchor="middle" x="357" y="525" style="font-family:arial">has:label</text>
</a></g>
<g id="node24" class="node"><title>node_3</title>
<polygon style="fill:#6497ed;stroke:#6497ed" points="459,548 405,548 405,584 459,584 459,548"/>
<text text-anchor="middle" x="432" y="570" style="font-family:arial">:default</text>
</g>
<g id="edge23" class="edge"><title>:_5-&gt;node_3</title>
<a xlink:href="http://www2.elsevier.co.uk/~tony/1014/yads-schema-2002-04-03#access" target="_blank" onmouseover="show_status('http://www2.elsevier.co.uk/~tony/1014/yads-schema-2002-04-03#access');">
<path style="fill:none;stroke:#add9e6" d="M368,493C374,499 381,505 386,512 393,520 393,523 399,530 402,534 405,537 408,541"/>
<polygon style="fill:#add9e6;stroke:#add9e6" points="406,543 415,548 410,539 406,543"/>
<text text-anchor="middle" x="435" y="525" style="font-family:arial">has:access</text>
</a></g>
<g id="node27" class="node"><title>doi:10.1006/anbo.2001.1474</title>
<a xlink:href="http://dx.doi.org/10.1006/anbo.2001.1474" target="_blank" onmouseover="show_status('http://dx.doi.org/10.1006/anbo.2001.1474');">
<ellipse cx="560" cy="566" rx="77" ry="18" style="fill:#dca0dd;stroke:#dca0dd"/>
<text text-anchor="middle" x="560" y="570" style="font-family:arial">doi:10.1006/anbo.2001.1474</text>
</a></g>
<g id="edge26" class="edge"><title>:_6-&gt;doi:10.1006/anbo.2001.1474</title>
<a xlink:href="http://www2.elsevier.co.uk/~tony/1014/yads-schema-2002-04-03#resource" target="_blank" onmouseover="show_status('http://www2.elsevier.co.uk/~tony/1014/yads-schema-2002-04-03#resource');">
<path style="fill:none;stroke:#add9e6" d="M560,494C560,507 560,524 560,539"/>
<polygon style="fill:#add9e6;stroke:#add9e6" points="558,538 560,548 563,538 558,538"/>
<text text-anchor="middle" x="601" y="525" style="font-family:arial">has:resource</text>
</a></g>
<g id="node29" class="node"><title>node_4</title>
<polygon style="fill:#6497ed;stroke:#6497ed" points="767,548 655,548 655,584 767,584 767,548"/>
<text text-anchor="middle" x="711" y="570" style="font-family:arial">doi:following_sibling</text>
</g>
<g id="edge28" class="edge"><title>:_6-&gt;node_4</title>
<a xlink:href="http://www2.elsevier.co.uk/~tony/1014/yads-schema-2002-04-03#role" target="_blank" onmouseover="show_status('http://www2.elsevier.co.uk/~tony/1014/yads-schema-2002-04-03#role');">
<path style="fill:none;stroke:#add9e6" d="M585,485C602,491 625,501 645,512 659,520 673,532 684,542"/>
<polygon style="fill:#add9e6;stroke:#add9e6" points="682,543 691,548 685,540 682,543"/>
<text text-anchor="middle" x="693" y="525" style="font-family:arial">has:role</text>
</a></g>
</g>
</svg>
