<?xml version="1.0" encoding="UTF-8" standalone="no"?>
<!DOCTYPE svg PUBLIC "-//W3C//DTD SVG 1.0//EN"
 "http://www.w3.org/TR/2001/REC-SVG-20010904/DTD/svg10.dtd" [
 <!ATTLIST svg xmlns:xlink CDATA #FIXED "http://www.w3.org/1999/xlink">
]>
<!-- Generated by dot version 1.8.5 (Tue Apr 23 17:19:23  2002)
     For user: (Administrator) ,S-1-5-21-1454471165-688789844-1708537768-500   Title: yads    Pages: 1 -->
<svg width="644px" height="651px"
 xmlns="http://www.w3.org/2000/svg" xmlns:xlink="http://www.w3.org/1999/xlink">
<g id="graph0" class="graph" style="font-family:Times-Roman;font-size:11.00">
<title>yads</title>
<text text-anchor="middle" x="322" y="640" style="font-family:arial;font-size:24.00">YADS - A Description Service</text>
<g id="graph2" class="cluster"><title>cluster_1</title>
<polygon style="fill:none;stroke:#d2d2d2;stroke-dasharray:5,2" points="19,608 625,608 625,43 19,43 19,608"/>
<text text-anchor="middle" x="100" y="55" style="font-family:arial">Nest - Suppl. Material/Article</text>
</g>
<g id="graph3" class="cluster"><title>cluster_3</title>
<polygon style="fill:none;stroke:#d2d2d2;stroke-dasharray:5,2" points="27,600 617,600 617,238 27,238 27,600"/>
<text text-anchor="middle" x="80" y="250" style="font-family:arial">Nest - DOI Profile</text>
</g>
<g id="graph4" class="cluster"><title>cluster_5</title>
<polygon style="fill:none;stroke:#d2d2d2;stroke-dasharray:5,2" points="35,592 433,592 433,433 35,433 35,592"/>
<text text-anchor="middle" x="96" y="445" style="font-family:arial">Item - Suppl. Material</text>
</g>
<g id="graph5" class="cluster"><title>cluster_6</title>
<polygon style="fill:none;stroke:#d2d2d2;stroke-dasharray:5,2" points="441,592 609,592 609,433 441,433 441,592"/>
<text text-anchor="middle" x="480" y="445" style="font-family:arial">Item - Article</text>
</g>
<g id="node2" class="node"><title>:_1</title>
<a xlink:href="http://www2.elsevier.co.uk/~tony/1014/yads-schema-2002-04-03#Nest" target="_blank" onmouseover="show_status('http://www2.elsevier.co.uk/~tony/1014/yads-schema-2002-04-03#Nest');">
<ellipse cx="219" cy="86" rx="29" ry="18" style="fill:#d2d2d2;stroke:#d2d2d2"/>
<text text-anchor="middle" x="219" y="90" style="font-family:arial">isa:Nest</text>
</a></g>
<g id="node4" class="node"><title>doi:10.1006/asle.2000.0016.s0...1</title>
<a xlink:href="http://dx.doi.org/10.1006/asle.2000.0016.s001" target="_blank" onmouseover="show_status('http://dx.doi.org/10.1006/asle.2000.0016.s001');">
<ellipse cx="162" cy="176" rx="87" ry="18" style="fill:#dca0dd;stroke:#dca0dd"/>
<text text-anchor="middle" x="162" y="180" style="font-family:arial">doi:10.1006/asle.2000.0016.s0...1</text>
</a></g>
<g id="edge3" class="edge"><title>:_1-&gt;doi:10.1006/asle.2000.0016.s0...1</title>
<a xlink:href="http://www2.elsevier.co.uk/~tony/1014/yads-schema-2002-04-03#resource" target="_blank" onmouseover="show_status('http://www2.elsevier.co.uk/~tony/1014/yads-schema-2002-04-03#resource');">
<path style="fill:none;stroke:#add9e6" d="M208,103C200,117 188,135 179,150"/>
<polygon style="fill:#add9e6;stroke:#add9e6" points="177,148 174,158 181,151 177,148"/>
<text text-anchor="middle" x="237" y="135" style="font-family:arial">has:resource</text>
</a></g>
<g id="node6" class="node"><title>:_2</title>
<a xlink:href="http://www.w3.org/1999/02/22-rdf-syntax-ns#Bag" target="_blank" onmouseover="show_status('http://www.w3.org/1999/02/22-rdf-syntax-ns#Bag');">
<ellipse cx="295" cy="176" rx="28" ry="18" style="fill:#d2d2d2;stroke:#d2d2d2"/>
<text text-anchor="middle" x="295" y="180" style="font-family:arial">rdf:Bag</text>
</a></g>
<g id="edge5" class="edge"><title>:_1-&gt;:_2</title>
<a xlink:href="http://www2.elsevier.co.uk/~tony/1014/yads-schema-2002-04-03#collection" target="_blank" onmouseover="show_status('http://www2.elsevier.co.uk/~tony/1014/yads-schema-2002-04-03#collection');">
<path style="fill:none;stroke:#add9e6" d="M244,95C257,101 272,110 281,122 287,129 290,140 292,149"/>
<polygon style="fill:#add9e6;stroke:#add9e6" points="289,149 294,158 294,148 289,149"/>
<text text-anchor="middle" x="331" y="135" style="font-family:arial">has:collection</text>
</a></g>
<g id="node8" class="node"><title>:_3</title>
<ellipse cx="295" cy="281" rx="34" ry="18" style="fill:#eedb82;stroke:#eedb82"/>
<text text-anchor="middle" x="295" y="285" style="font-family:arial">doi:Profile</text>
</g>
<g id="edge7" class="edge"><title>:_2-&gt;:_3</title>
<a xlink:href="http://www.w3.org/1999/02/22-rdf-syntax-ns#_1" target="_blank" onmouseover="show_status('http://www.w3.org/1999/02/22-rdf-syntax-ns#_1');">
<path style="fill:none;stroke:#add9e6" d="M295,194C295,210 295,235 295,254"/>
<polygon style="fill:#add9e6;stroke:#add9e6" points="293,253 295,263 298,253 293,253"/>
<text text-anchor="middle" x="315" y="225" style="font-family:arial">rdf:_1</text>
</a></g>
<g id="node11" class="node"><title>doi:10.0/profile.crossref</title>
<a xlink:href="http://dx.doi.org/10.0/profile.crossref" target="_blank" onmouseover="show_status('http://dx.doi.org/10.0/profile.crossref');">
<ellipse cx="232" cy="371" rx="69" ry="18" style="fill:#dca0dd;stroke:#dca0dd"/>
<text text-anchor="middle" x="232" y="375" style="font-family:arial">doi:10.0/profile.crossref</text>
</a></g>
<g id="edge10" class="edge"><title>:_3-&gt;doi:10.0/profile.crossref</title>
<a xlink:href="http://www2.elsevier.co.uk/~tony/1014/yads-schema-2002-04-03#resource" target="_blank" onmouseover="show_status('http://www2.elsevier.co.uk/~tony/1014/yads-schema-2002-04-03#resource');">
<path style="fill:none;stroke:#add9e6" d="M267,292C256,297 243,306 236,317 232,325 230,335 230,344"/>
<polygon style="fill:#add9e6;stroke:#add9e6" points="228,343 230,353 233,343 228,343"/>
<text text-anchor="middle" x="280" y="330" style="font-family:arial">has:resource</text>
</a></g>
<g id="node13" class="node"><title>:_4</title>
<a xlink:href="http://www.w3.org/1999/02/22-rdf-syntax-ns#Bag" target="_blank" onmouseover="show_status('http://www.w3.org/1999/02/22-rdf-syntax-ns#Bag');">
<ellipse cx="347" cy="371" rx="28" ry="18" style="fill:#d2d2d2;stroke:#d2d2d2"/>
<text text-anchor="middle" x="347" y="375" style="font-family:arial">rdf:Bag</text>
</a></g>
<g id="edge12" class="edge"><title>:_3-&gt;:_4</title>
<a xlink:href="http://www2.elsevier.co.uk/~tony/1014/yads-schema-2002-04-03#collection" target="_blank" onmouseover="show_status('http://www2.elsevier.co.uk/~tony/1014/yads-schema-2002-04-03#collection');">
<path style="fill:none;stroke:#add9e6" d="M308,298C312,304 317,311 321,317 326,326 332,336 336,346"/>
<polygon style="fill:#add9e6;stroke:#add9e6" points="333,346 340,354 338,344 333,346"/>
<text text-anchor="middle" x="373" y="330" style="font-family:arial">has:collection</text>
</a></g>
<g id="node15" class="node"><title>:_5</title>
<ellipse cx="317" cy="476" rx="52" ry="18" style="fill:#eedb82;stroke:#eedb82"/>
<text text-anchor="middle" x="317" y="480" style="font-family:arial">xref:Supplement</text>
</g>
<g id="edge14" class="edge"><title>:_4-&gt;:_5</title>
<a xlink:href="http://www.w3.org/1999/02/22-rdf-syntax-ns#_1" target="_blank" onmouseover="show_status('http://www.w3.org/1999/02/22-rdf-syntax-ns#_1');">
<path style="fill:none;stroke:#add9e6" d="M342,389C337,405 330,431 325,449"/>
<polygon style="fill:#add9e6;stroke:#add9e6" points="323,448 322,458 328,449 323,448"/>
<text text-anchor="middle" x="357" y="420" style="font-family:arial">rdf:_1</text>
</a></g>
<g id="node17" class="node"><title>:_6</title>
<ellipse cx="503" cy="476" rx="38" ry="18" style="fill:#eedb82;stroke:#eedb82"/>
<text text-anchor="middle" x="503" y="480" style="font-family:arial">xref:Article</text>
</g>
<g id="edge16" class="edge"><title>:_4-&gt;:_6</title>
<a xlink:href="http://www.w3.org/1999/02/22-rdf-syntax-ns#_2" target="_blank" onmouseover="show_status('http://www.w3.org/1999/02/22-rdf-syntax-ns#_2');">
<path style="fill:none;stroke:#add9e6" d="M366,384C393,403 443,436 474,457"/>
<polygon style="fill:#add9e6;stroke:#add9e6" points="471,458 481,461 474,454 471,458"/>
<text text-anchor="middle" x="447" y="420" style="font-family:arial">rdf:_2</text>
</a></g>
<g id="node20" class="node"><title>http://www.idealibrary.com/li...t</title>
<a xlink:href="http://www.idealibrary.com/links/doi/10.1006/asle.2000.0016/dat/0016s01.ppt" target="_blank" onmouseover="show_status('http://www.idealibrary.com/links/doi/10.1006/asle.2000.0016/dat/0016s01.ppt');">
<ellipse cx="130" cy="566" rx="87" ry="18" style="fill:#dca0dd;stroke:#dca0dd"/>
<text text-anchor="middle" x="130" y="570" style="font-family:arial">http://www.idealibrary.com/li...t</text>
</a></g>
<g id="edge19" class="edge"><title>:_5-&gt;http://www.idealibrary.com/li...t</title>
<a xlink:href="http://www2.elsevier.co.uk/~tony/1014/yads-schema-2002-04-03#resource" target="_blank" onmouseover="show_status('http://www2.elsevier.co.uk/~tony/1014/yads-schema-2002-04-03#resource');">
<path style="fill:none;stroke:#add9e6" d="M273,486C251,492 237,498 208,512 191,521 174,533 159,544"/>
<polygon style="fill:#add9e6;stroke:#add9e6" points="159,541 152,549 162,545 159,541"/>
<text text-anchor="middle" x="255" y="525" style="font-family:arial">has:resource</text>
</a></g>
<g id="node22" class="node"><title>node_1</title>
<polygon style="fill:#6497ed;stroke:#6497ed" points="353,548 235,548 235,584 353,584 353,548"/>
<text text-anchor="middle" x="294" y="570" style="font-family:arial">ASL (2000) 1: p. 156</text>
</g>
<g id="edge21" class="edge"><title>:_5-&gt;node_1</title>
<a xlink:href="http://www2.elsevier.co.uk/~tony/1014/yads-schema-2002-04-03#label" target="_blank" onmouseover="show_status('http://www2.elsevier.co.uk/~tony/1014/yads-schema-2002-04-03#label');">
<path style="fill:none;stroke:#add9e6" d="M303,493C300,499 296,506 294,512 292,521 291,530 291,539"/>
<polygon style="fill:#add9e6;stroke:#add9e6" points="288,538 292,548 293,538 288,538"/>
<text text-anchor="middle" x="324" y="525" style="font-family:arial">has:label</text>
</a></g>
<g id="node24" class="node"><title>node_3</title>
<polygon style="fill:#6497ed;stroke:#6497ed" points="425,548 371,548 371,584 425,584 425,548"/>
<text text-anchor="middle" x="398" y="570" style="font-family:arial">:default</text>
</g>
<g id="edge23" class="edge"><title>:_5-&gt;node_3</title>
<a xlink:href="http://www2.elsevier.co.uk/~tony/1014/yads-schema-2002-04-03#access" target="_blank" onmouseover="show_status('http://www2.elsevier.co.uk/~tony/1014/yads-schema-2002-04-03#access');">
<path style="fill:none;stroke:#add9e6" d="M335,493C341,499 348,506 353,512 360,520 360,523 365,530 368,533 371,537 374,540"/>
<polygon style="fill:#add9e6;stroke:#add9e6" points="372,541 380,548 376,539 372,541"/>
<text text-anchor="middle" x="401" y="525" style="font-family:arial">has:access</text>
</a></g>
<g id="node27" class="node"><title>doi:10.1006/asle.2000.0016</title>
<a xlink:href="http://dx.doi.org/10.1006/asle.2000.0016" target="_blank" onmouseover="show_status('http://dx.doi.org/10.1006/asle.2000.0016');">
<ellipse cx="525" cy="566" rx="76" ry="18" style="fill:#dca0dd;stroke:#dca0dd"/>
<text text-anchor="middle" x="525" y="570" style="font-family:arial">doi:10.1006/asle.2000.0016</text>
</a></g>
<g id="edge26" class="edge"><title>:_6-&gt;doi:10.1006/asle.2000.0016</title>
<a xlink:href="http://www2.elsevier.co.uk/~tony/1014/yads-schema-2002-04-03#resource" target="_blank" onmouseover="show_status('http://www2.elsevier.co.uk/~tony/1014/yads-schema-2002-04-03#resource');">
<path style="fill:none;stroke:#add9e6" d="M507,494C510,507 515,524 519,539"/>
<polygon style="fill:#add9e6;stroke:#add9e6" points="516,539 521,548 521,538 516,539"/>
<text text-anchor="middle" x="556" y="525" style="font-family:arial">has:resource</text>
</a></g>
</g>
</svg>
