<?xml version="1.0" encoding="UTF-8" standalone="no"?>
<!DOCTYPE svg PUBLIC "-//W3C//DTD SVG 1.0//EN"
 "http://www.w3.org/TR/2001/REC-SVG-20010904/DTD/svg10.dtd" [
 <!ATTLIST svg xmlns:xlink CDATA #FIXED "http://www.w3.org/1999/xlink">
]>
<!-- Generated by dot version 1.8.5 (Tue Apr 23 17:19:23  2002)
     For user: (Administrator) ,S-1-5-21-1454471165-688789844-1708537768-500   Title: G    Pages: 1 -->
<svg width="540px" height="202px"
 xmlns="http://www.w3.org/2000/svg" xmlns:xlink="http://www.w3.org/1999/xlink">
<g id="graph0" class="graph" style="font-family:Times-Roman;font-size:14.00">
<title>G</title>
<g id="node1" class="node"><title>yads</title>
<ellipse cx="326" cy="29" rx="34" ry="18" style="fill:none;stroke:black"/>
<text text-anchor="middle" x="326" y="34">YADS</text>
</g>
<g id="node3" class="node"><title>rdfs</title>
<ellipse cx="161" cy="101" rx="57" ry="18" style="fill:none;stroke:black"/>
<text text-anchor="middle" x="161" y="106">RDF Schema</text>
</g>
<g id="edge2" class="edge"><title>yads--rdfs</title>
<path style="fill:none;stroke:black" d="M299,41C271,53 226,73 195,86"/>
</g>
<g id="node9" class="node"><title>xmls</title>
<ellipse cx="326" cy="101" rx="59" ry="18" style="fill:none;stroke:black"/>
<text text-anchor="middle" x="326" y="106">XML Schema</text>
</g>
<g id="edge8" class="edge"><title>yads--xmls</title>
<path style="fill:none;stroke:black" d="M326,47C326,58 326,72 326,83"/>
</g>
<g id="node17" class="node"><title>ebnf</title>
<a xlink:href="schema-n3.html">
<ellipse cx="436" cy="101" rx="33" ry="18" style="fill:none;stroke:black"/>
<text text-anchor="middle" x="436" y="106">EBNF</text>
</a></g>
<g id="edge16" class="edge"><title>yads--ebnf</title>
<path style="fill:none;stroke:black" d="M347,43C366,56 395,74 414,87"/>
</g>
<g id="node5" class="node"><title>rdf_n3</title>
<a xlink:href="schema-n3.html">
<ellipse cx="52" cy="173" rx="41" ry="18" style="fill:none;stroke:black"/>
<text text-anchor="middle" x="52" y="178">RDF/N3</text>
</a></g>
<g id="edge4" class="edge"><title>rdfs--rdf_n3</title>
<path style="fill:none;stroke:black" d="M136,117C118,130 93,146 75,158"/>
</g>
<g id="node7" class="node"><title>rdf_xml</title>
<a xlink:href="schema.html">
<ellipse cx="161" cy="173" rx="50" ry="18" style="fill:none;stroke:black"/>
<text text-anchor="middle" x="161" y="178">RDF/XML</text>
</a></g>
<g id="edge6" class="edge"><title>rdfs--rdf_xml</title>
<path style="fill:none;stroke:black" d="M161,119C161,130 161,144 161,155"/>
</g>
<g id="node11" class="node"><title>xsd</title>
<a xlink:href="schema-n3.html">
<ellipse cx="256" cy="173" rx="27" ry="18" style="fill:none;stroke:black"/>
<text text-anchor="middle" x="256" y="178">XSD</text>
</a></g>
<g id="edge10" class="edge"><title>xmls--xsd</title>
<path style="fill:none;stroke:black" d="M309,118C297,130 282,146 271,158"/>
</g>
<g id="node13" class="node"><title>relax_ng</title>
<a xlink:href="schema.html">
<ellipse cx="357" cy="173" rx="56" ry="18" style="fill:none;stroke:black"/>
<text text-anchor="middle" x="357" y="178">RELAX NG</text>
</a></g>
<g id="edge12" class="edge"><title>xmls--relax_ng</title>
<path style="fill:none;stroke:black" d="M334,119C339,130 345,144 349,155"/>
</g>
<g id="node15" class="node"><title>xmi</title>
<a xlink:href="schema-n3.html">
<ellipse cx="480" cy="173" rx="49" ry="18" style="fill:none;stroke:black"/>
<text text-anchor="middle" x="480" y="178">MOF/XMI</text>
</a></g>
<g id="edge14" class="edge"><title>xmls--xmi</title>
<path style="fill:none;stroke:black" d="M358,116C385,129 423,146 450,159"/>
</g>
</g>
</svg>
