<?xml version="1.0" encoding="UTF-8" standalone="no"?>
<!DOCTYPE svg PUBLIC "-//W3C//DTD SVG 1.0//EN"
 "http://www.w3.org/TR/2001/REC-SVG-20010904/DTD/svg10.dtd" [
 <!ATTLIST svg xmlns:xlink CDATA #FIXED "http://www.w3.org/1999/xlink">
]>
<!-- Generated by dot version 1.8.5 (Tue Apr 23 17:19:23  2002)
     For user: (Administrator) ,S-1-5-21-1454471165-688789844-1708537768-500   Title: yads    Pages: 1 -->
<svg width="2356px" height="651px"
 xmlns="http://www.w3.org/2000/svg" xmlns:xlink="http://www.w3.org/1999/xlink">
<g id="graph0" class="graph" style="font-family:Times-Roman;font-size:11.00">
<title>yads</title>
<text text-anchor="middle" x="1178" y="640" style="font-family:arial;font-size:24.00">YADS - A Description Service</text>
<g id="graph2" class="cluster"><title>cluster_1</title>
<polygon style="fill:none;stroke:#d2d2d2;stroke-dasharray:5,2" points="19,608 2337,608 2337,43 19,43 19,608"/>
<text text-anchor="middle" x="116" y="55" style="font-family:arial">Nest - Schema Library for YADS</text>
</g>
<g id="graph3" class="cluster"><title>cluster_3</title>
<polygon style="fill:none;stroke:#d2d2d2;stroke-dasharray:5,2" points="763,600 981,600 981,238 763,238 763,600"/>
<text text-anchor="middle" x="819" y="250" style="font-family:arial">Nest - BNF Library</text>
</g>
<g id="graph4" class="cluster"><title>cluster_5</title>
<polygon style="fill:none;stroke:#d2d2d2;stroke-dasharray:5,2" points="771,592 973,592 973,433 771,433 771,592"/>
<text text-anchor="middle" x="828" y="445" style="font-family:arial">Item - ISO Schema</text>
</g>
<g id="graph5" class="cluster"><title>cluster_6</title>
<polygon style="fill:none;stroke:#d2d2d2;stroke-dasharray:5,2" points="27,600 755,600 755,238 27,238 27,600"/>
<text text-anchor="middle" x="84" y="250" style="font-family:arial">Nest - RDF Library</text>
</g>
<g id="graph6" class="cluster"><title>cluster_8</title>
<polygon style="fill:none;stroke:#d2d2d2;stroke-dasharray:5,2" points="35,592 319,592 319,433 35,433 35,592"/>
<text text-anchor="middle" x="97" y="445" style="font-family:arial">Item - W3C Schema</text>
</g>
<g id="graph7" class="cluster"><title>cluster_9</title>
<polygon style="fill:none;stroke:#d2d2d2;stroke-dasharray:5,2" points="327,592 519,592 519,433 327,433 327,592"/>
<text text-anchor="middle" x="389" y="445" style="font-family:arial">Item - W3C Schema</text>
</g>
<g id="graph8" class="cluster"><title>cluster_10</title>
<polygon style="fill:none;stroke:#d2d2d2;stroke-dasharray:5,2" points="527,592 747,592 747,433 527,433 527,592"/>
<text text-anchor="middle" x="589" y="445" style="font-family:arial">Item - W3C Schema</text>
</g>
<g id="graph9" class="cluster"><title>cluster_11</title>
<polygon style="fill:none;stroke:#d2d2d2;stroke-dasharray:5,2" points="989,600 2329,600 2329,238 989,238 989,600"/>
<text text-anchor="middle" x="1046" y="250" style="font-family:arial">Nest - XML Library</text>
</g>
<g id="graph10" class="cluster"><title>cluster_13</title>
<polygon style="fill:none;stroke:#d2d2d2;stroke-dasharray:5,2" points="997,592 1205,592 1205,433 997,433 997,592"/>
<text text-anchor="middle" x="1059" y="445" style="font-family:arial">Item - W3C Schema</text>
</g>
<g id="graph11" class="cluster"><title>cluster_14</title>
<polygon style="fill:none;stroke:#d2d2d2;stroke-dasharray:5,2" points="1213,592 1431,592 1431,433 1213,433 1213,592"/>
<text text-anchor="middle" x="1276" y="445" style="font-family:arial">Item - Oasis Schema</text>
</g>
<g id="graph12" class="cluster"><title>cluster_15</title>
<polygon style="fill:none;stroke:#d2d2d2;stroke-dasharray:5,2" points="1439,592 1669,592 1669,433 1439,433 1439,592"/>
<text text-anchor="middle" x="1501" y="445" style="font-family:arial">Item - W3C Schema</text>
</g>
<g id="graph13" class="cluster"><title>cluster_16</title>
<polygon style="fill:none;stroke:#d2d2d2;stroke-dasharray:5,2" points="1677,592 1899,592 1899,433 1677,433 1677,592"/>
<text text-anchor="middle" x="1748" y="445" style="font-family:arial">Item - R. Jelliffe Schema</text>
</g>
<g id="graph14" class="cluster"><title>cluster_17</title>
<polygon style="fill:none;stroke:#d2d2d2;stroke-dasharray:5,2" points="1907,592 2107,592 2107,433 1907,433 1907,592"/>
<text text-anchor="middle" x="1984" y="445" style="font-family:arial">Item - J. Ramalho Schema</text>
</g>
<g id="graph15" class="cluster"><title>cluster_18</title>
<polygon style="fill:none;stroke:#d2d2d2;stroke-dasharray:5,2" points="2115,592 2321,592 2321,433 2115,433 2115,592"/>
<text text-anchor="middle" x="2177" y="445" style="font-family:arial">Item - OMG Schema</text>
</g>
<g id="node2" class="node"><title>:_1</title>
<ellipse cx="865" cy="86" rx="49" ry="18" style="fill:#eedb82;stroke:#eedb82"/>
<text text-anchor="middle" x="865" y="90" style="font-family:arial">yads:Schemas</text>
</g>
<g id="node4" class="node"><title>http:yads.xml</title>
<a xlink:href="http:yads.xml" target="_blank" onmouseover="show_status('http:yads.xml');">
<ellipse cx="766" cy="176" rx="43" ry="18" style="fill:#dca0dd;stroke:#dca0dd"/>
<text text-anchor="middle" x="766" y="180" style="font-family:arial">http:yads.xml</text>
</a></g>
<g id="edge3" class="edge"><title>:_1-&gt;http:yads.xml</title>
<a xlink:href="http://www2.elsevier.co.uk/~tony/1014/yads-schema-2002-04-03#resource" target="_blank" onmouseover="show_status('http://www2.elsevier.co.uk/~tony/1014/yads-schema-2002-04-03#resource');">
<path style="fill:none;stroke:#add9e6" d="M823,95C808,101 791,109 780,122 774,129 770,139 768,149"/>
<polygon style="fill:#add9e6;stroke:#add9e6" points="766,148 767,158 771,148 766,148"/>
<text text-anchor="middle" x="824" y="135" style="font-family:arial">has:resource</text>
</a></g>
<g id="node6" class="node"><title>:_2</title>
<a xlink:href="http://www.w3.org/1999/02/22-rdf-syntax-ns#Bag" target="_blank" onmouseover="show_status('http://www.w3.org/1999/02/22-rdf-syntax-ns#Bag');">
<ellipse cx="863" cy="176" rx="28" ry="18" style="fill:#d2d2d2;stroke:#d2d2d2"/>
<text text-anchor="middle" x="863" y="180" style="font-family:arial">rdf:Bag</text>
</a></g>
<g id="edge5" class="edge"><title>:_1-&gt;:_2</title>
<a xlink:href="http://www2.elsevier.co.uk/~tony/1014/yads-schema-2002-04-03#collection" target="_blank" onmouseover="show_status('http://www2.elsevier.co.uk/~tony/1014/yads-schema-2002-04-03#collection');">
<path style="fill:none;stroke:#add9e6" d="M865,104C864,117 864,134 863,149"/>
<polygon style="fill:#add9e6;stroke:#add9e6" points="861,148 863,158 866,148 861,148"/>
<text text-anchor="middle" x="906" y="135" style="font-family:arial">has:collection</text>
</a></g>
<g id="node8" class="node"><title>node_25</title>
<polygon style="fill:#6497ed;stroke:#6497ed" points="1031,158 909,158 909,194 1031,194 1031,158"/>
<text text-anchor="middle" x="970" y="180" style="font-family:arial">Schemas for YADS</text>
</g>
<g id="edge7" class="edge"><title>:_1-&gt;node_25</title>
<a xlink:href="http://www2.elsevier.co.uk/~tony/1014/yads-schema-2002-04-03#label" target="_blank" onmouseover="show_status('http://www2.elsevier.co.uk/~tony/1014/yads-schema-2002-04-03#label');">
<path style="fill:none;stroke:#add9e6" d="M906,96C922,102 938,110 950,122 957,130 962,139 965,149"/>
<polygon style="fill:#add9e6;stroke:#add9e6" points="962,149 967,158 967,148 962,149"/>
<text text-anchor="middle" x="989" y="135" style="font-family:arial">has:label</text>
</a></g>
<g id="node10" class="node"><title>:_3</title>
<ellipse cx="863" cy="281" rx="63" ry="18" style="fill:#eedb82;stroke:#eedb82"/>
<text text-anchor="middle" x="863" y="285" style="font-family:arial">yads:BNF Schemas</text>
</g>
<g id="edge9" class="edge"><title>:_2-&gt;:_3</title>
<a xlink:href="http://www.w3.org/1999/02/22-rdf-syntax-ns#_1" target="_blank" onmouseover="show_status('http://www.w3.org/1999/02/22-rdf-syntax-ns#_1');">
<path style="fill:none;stroke:#add9e6" d="M863,194C863,210 863,235 863,254"/>
<polygon style="fill:#add9e6;stroke:#add9e6" points="861,253 863,263 866,253 861,253"/>
<text text-anchor="middle" x="883" y="225" style="font-family:arial">rdf:_1</text>
</a></g>
<g id="node12" class="node"><title>:_6</title>
<ellipse cx="684" cy="281" rx="63" ry="18" style="fill:#eedb82;stroke:#eedb82"/>
<text text-anchor="middle" x="684" y="285" style="font-family:arial">yads:RDF Schemas</text>
</g>
<g id="edge11" class="edge"><title>:_2-&gt;:_6</title>
<a xlink:href="http://www.w3.org/1999/02/22-rdf-syntax-ns#_2" target="_blank" onmouseover="show_status('http://www.w3.org/1999/02/22-rdf-syntax-ns#_2');">
<path style="fill:none;stroke:#add9e6" d="M842,188C812,206 756,239 720,261"/>
<polygon style="fill:#add9e6;stroke:#add9e6" points="720,258 712,265 722,263 720,258"/>
<text text-anchor="middle" x="826" y="225" style="font-family:arial">rdf:_2</text>
</a></g>
<g id="node14" class="node"><title>:_11</title>
<ellipse cx="1061" cy="281" rx="64" ry="18" style="fill:#eedb82;stroke:#eedb82"/>
<text text-anchor="middle" x="1061" y="285" style="font-family:arial">yads:XML Schemas</text>
</g>
<g id="edge13" class="edge"><title>:_2-&gt;:_11</title>
<a xlink:href="http://www.w3.org/1999/02/22-rdf-syntax-ns#_3" target="_blank" onmouseover="show_status('http://www.w3.org/1999/02/22-rdf-syntax-ns#_3');">
<path style="fill:none;stroke:#add9e6" d="M885,187C910,199 951,220 985,238 998,245 1013,253 1025,260"/>
<polygon style="fill:#add9e6;stroke:#add9e6" points="1023,262 1033,265 1026,258 1023,262"/>
<text text-anchor="middle" x="991" y="225" style="font-family:arial">rdf:_3</text>
</a></g>
<g id="node17" class="node"><title>doi:1014/yads</title>
<a xlink:href="http://dx.doi.org/1014/yads" target="_blank" onmouseover="show_status('http://dx.doi.org/1014/yads');">
<ellipse cx="814" cy="371" rx="43" ry="18" style="fill:#dca0dd;stroke:#dca0dd"/>
<text text-anchor="middle" x="814" y="375" style="font-family:arial">doi:1014/yads</text>
</a></g>
<g id="edge16" class="edge"><title>:_3-&gt;doi:1014/yads</title>
<a xlink:href="http://www2.elsevier.co.uk/~tony/1014/yads-schema-2002-04-03#resource" target="_blank" onmouseover="show_status('http://www2.elsevier.co.uk/~tony/1014/yads-schema-2002-04-03#resource');">
<path style="fill:none;stroke:#add9e6" d="M821,295C811,300 801,307 795,317 790,326 792,336 796,346"/>
<polygon style="fill:#add9e6;stroke:#add9e6" points="794,347 801,354 798,344 794,347"/>
<text text-anchor="middle" x="839" y="330" style="font-family:arial">has:resource</text>
</a></g>
<g id="node19" class="node"><title>:_4</title>
<a xlink:href="http://www.w3.org/1999/02/22-rdf-syntax-ns#Bag" target="_blank" onmouseover="show_status('http://www.w3.org/1999/02/22-rdf-syntax-ns#Bag');">
<ellipse cx="903" cy="371" rx="28" ry="18" style="fill:#d2d2d2;stroke:#d2d2d2"/>
<text text-anchor="middle" x="903" y="375" style="font-family:arial">rdf:Bag</text>
</a></g>
<g id="edge18" class="edge"><title>:_3-&gt;:_4</title>
<a xlink:href="http://www2.elsevier.co.uk/~tony/1014/yads-schema-2002-04-03#collection" target="_blank" onmouseover="show_status('http://www2.elsevier.co.uk/~tony/1014/yads-schema-2002-04-03#collection');">
<path style="fill:none;stroke:#add9e6" d="M871,299C877,312 885,331 891,345"/>
<polygon style="fill:#add9e6;stroke:#add9e6" points="889,346 895,354 893,344 889,346"/>
<text text-anchor="middle" x="929" y="330" style="font-family:arial">has:collection</text>
</a></g>
<g id="edge28" class="edge"><title>:_6-&gt;doi:1014/yads</title>
<a xlink:href="http://www2.elsevier.co.uk/~tony/1014/yads-schema-2002-04-03#resource" target="_blank" onmouseover="show_status('http://www2.elsevier.co.uk/~tony/1014/yads-schema-2002-04-03#resource');">
<path style="fill:none;stroke:#add9e6" d="M688,299C692,311 698,326 708,335 726,352 737,345 759,353 763,355 766,356 769,358"/>
<polygon style="fill:#add9e6;stroke:#add9e6" points="767,360 777,362 769,355 767,360"/>
<text text-anchor="middle" x="749" y="330" style="font-family:arial">has:resource</text>
</a></g>
<g id="node30" class="node"><title>:_7</title>
<a xlink:href="http://www.w3.org/1999/02/22-rdf-syntax-ns#Bag" target="_blank" onmouseover="show_status('http://www.w3.org/1999/02/22-rdf-syntax-ns#Bag');">
<ellipse cx="503" cy="371" rx="28" ry="18" style="fill:#d2d2d2;stroke:#d2d2d2"/>
<text text-anchor="middle" x="503" y="375" style="font-family:arial">rdf:Bag</text>
</a></g>
<g id="edge30" class="edge"><title>:_6-&gt;:_7</title>
<a xlink:href="http://www2.elsevier.co.uk/~tony/1014/yads-schema-2002-04-03#collection" target="_blank" onmouseover="show_status('http://www2.elsevier.co.uk/~tony/1014/yads-schema-2002-04-03#collection');">
<path style="fill:none;stroke:#add9e6" d="M652,297C640,303 625,310 611,317 584,330 554,345 532,356"/>
<polygon style="fill:#add9e6;stroke:#add9e6" points="532,353 525,360 535,357 532,353"/>
<text text-anchor="middle" x="658" y="330" style="font-family:arial">has:collection</text>
</a></g>
<g id="edge56" class="edge"><title>:_11-&gt;doi:1014/yads</title>
<a xlink:href="http://www2.elsevier.co.uk/~tony/1014/yads-schema-2002-04-03#resource" target="_blank" onmouseover="show_status('http://www2.elsevier.co.uk/~tony/1014/yads-schema-2002-04-03#resource');">
<path style="fill:none;stroke:#add9e6" d="M1039,298C1022,310 997,326 973,335 928,352 913,342 866,353 862,354 858,356 853,357"/>
<polygon style="fill:#add9e6;stroke:#add9e6" points="856,353 847,359 857,358 856,353"/>
<text text-anchor="middle" x="1055" y="330" style="font-family:arial">has:resource</text>
</a></g>
<g id="node57" class="node"><title>:_12</title>
<a xlink:href="http://www.w3.org/1999/02/22-rdf-syntax-ns#Bag" target="_blank" onmouseover="show_status('http://www.w3.org/1999/02/22-rdf-syntax-ns#Bag');">
<ellipse cx="1554" cy="371" rx="28" ry="18" style="fill:#d2d2d2;stroke:#d2d2d2"/>
<text text-anchor="middle" x="1554" y="375" style="font-family:arial">rdf:Bag</text>
</a></g>
<g id="edge58" class="edge"><title>:_11-&gt;:_12</title>
<a xlink:href="http://www2.elsevier.co.uk/~tony/1014/yads-schema-2002-04-03#collection" target="_blank" onmouseover="show_status('http://www2.elsevier.co.uk/~tony/1014/yads-schema-2002-04-03#collection');">
<path style="fill:none;stroke:#add9e6" d="M1115,291C1216,309 1435,350 1520,365"/>
<polygon style="fill:#add9e6;stroke:#add9e6" points="1517,367 1527,366 1517,362 1517,367"/>
<text text-anchor="middle" x="1395" y="330" style="font-family:arial">has:collection</text>
</a></g>
<g id="node21" class="node"><title>:_5</title>
<ellipse cx="903" cy="476" rx="38" ry="18" style="fill:#eedb82;stroke:#eedb82"/>
<text text-anchor="middle" x="903" y="480" style="font-family:arial">yads:EBNF</text>
</g>
<g id="edge20" class="edge"><title>:_4-&gt;:_5</title>
<a xlink:href="http://www.w3.org/1999/02/22-rdf-syntax-ns#_1" target="_blank" onmouseover="show_status('http://www.w3.org/1999/02/22-rdf-syntax-ns#_1');">
<path style="fill:none;stroke:#add9e6" d="M903,389C903,405 903,430 903,449"/>
<polygon style="fill:#add9e6;stroke:#add9e6" points="901,448 903,458 906,448 901,448"/>
<text text-anchor="middle" x="923" y="420" style="font-family:arial">rdf:_1</text>
</a></g>
<g id="node24" class="node"><title>http:yads-ebnf.xml</title>
<a xlink:href="http:yads-ebnf.xml" target="_blank" onmouseover="show_status('http:yads-ebnf.xml');">
<ellipse cx="836" cy="566" rx="57" ry="18" style="fill:#dca0dd;stroke:#dca0dd"/>
<text text-anchor="middle" x="836" y="570" style="font-family:arial">http:yads-ebnf.xml</text>
</a></g>
<g id="edge23" class="edge"><title>:_5-&gt;http:yads-ebnf.xml</title>
<a xlink:href="http://www2.elsevier.co.uk/~tony/1014/yads-schema-2002-04-03#resource" target="_blank" onmouseover="show_status('http://www2.elsevier.co.uk/~tony/1014/yads-schema-2002-04-03#resource');">
<path style="fill:none;stroke:#add9e6" d="M870,485C856,491 842,499 834,512 830,520 829,530 830,539"/>
<polygon style="fill:#add9e6;stroke:#add9e6" points="827,538 831,548 832,538 827,538"/>
<text text-anchor="middle" x="878" y="525" style="font-family:arial">has:resource</text>
</a></g>
<g id="node26" class="node"><title>node_1</title>
<polygon style="fill:#6497ed;stroke:#6497ed" points="965,548 911,548 911,584 965,584 965,548"/>
<text text-anchor="middle" x="938" y="570" style="font-family:arial">EBNF</text>
</g>
<g id="edge25" class="edge"><title>:_5-&gt;node_1</title>
<a xlink:href="http://www2.elsevier.co.uk/~tony/1014/yads-schema-2002-04-03#label" target="_blank" onmouseover="show_status('http://www2.elsevier.co.uk/~tony/1014/yads-schema-2002-04-03#label');">
<path style="fill:none;stroke:#add9e6" d="M910,494C915,507 922,525 928,539"/>
<polygon style="fill:#add9e6;stroke:#add9e6" points="925,539 931,548 930,538 925,539"/>
<text text-anchor="middle" x="952" y="525" style="font-family:arial">has:label</text>
</a></g>
<g id="node32" class="node"><title>:_8</title>
<ellipse cx="203" cy="476" rx="50" ry="18" style="fill:#eedb82;stroke:#eedb82"/>
<text text-anchor="middle" x="203" y="480" style="font-family:arial">yads:RDF/XML</text>
</g>
<g id="edge32" class="edge"><title>:_7-&gt;:_8</title>
<a xlink:href="http://www.w3.org/1999/02/22-rdf-syntax-ns#_1" target="_blank" onmouseover="show_status('http://www.w3.org/1999/02/22-rdf-syntax-ns#_1');">
<path style="fill:none;stroke:#add9e6" d="M477,379C415,399 394,409 323,433 298,442 270,452 247,460"/>
<polygon style="fill:#add9e6;stroke:#add9e6" points="247,457 239,463 249,462 247,457"/>
<text text-anchor="middle" x="422" y="420" style="font-family:arial">rdf:_1</text>
</a></g>
<g id="node34" class="node"><title>:_9</title>
<ellipse cx="456" cy="476" rx="45" ry="18" style="fill:#eedb82;stroke:#eedb82"/>
<text text-anchor="middle" x="456" y="480" style="font-family:arial">yads:RDF/N3</text>
</g>
<g id="edge34" class="edge"><title>:_7-&gt;:_9</title>
<a xlink:href="http://www.w3.org/1999/02/22-rdf-syntax-ns#_2" target="_blank" onmouseover="show_status('http://www.w3.org/1999/02/22-rdf-syntax-ns#_2');">
<path style="fill:none;stroke:#add9e6" d="M495,388C488,405 477,431 468,450"/>
<polygon style="fill:#add9e6;stroke:#add9e6" points="466,448 464,458 471,450 466,448"/>
<text text-anchor="middle" x="509" y="420" style="font-family:arial">rdf:_2</text>
</a></g>
<g id="node36" class="node"><title>:_10</title>
<ellipse cx="588" cy="476" rx="53" ry="18" style="fill:#eedb82;stroke:#eedb82"/>
<text text-anchor="middle" x="588" y="480" style="font-family:arial">yads:DAML+OIL</text>
</g>
<g id="edge36" class="edge"><title>:_7-&gt;:_10</title>
<a xlink:href="http://www.w3.org/1999/02/22-rdf-syntax-ns#_3" target="_blank" onmouseover="show_status('http://www.w3.org/1999/02/22-rdf-syntax-ns#_3');">
<path style="fill:none;stroke:#add9e6" d="M518,387C523,393 530,400 535,407 547,421 560,438 570,451"/>
<polygon style="fill:#add9e6;stroke:#add9e6" points="567,451 575,458 571,448 567,451"/>
<text text-anchor="middle" x="571" y="420" style="font-family:arial">rdf:_3</text>
</a></g>
<g id="node39" class="node"><title>http:yads-rdfs.xml</title>
<a xlink:href="http:yads-rdfs.xml" target="_blank" onmouseover="show_status('http:yads-rdfs.xml');">
<ellipse cx="99" cy="566" rx="56" ry="18" style="fill:#dca0dd;stroke:#dca0dd"/>
<text text-anchor="middle" x="99" y="570" style="font-family:arial">http:yads-rdfs.xml</text>
</a></g>
<g id="edge39" class="edge"><title>:_8-&gt;http:yads-rdfs.xml</title>
<a xlink:href="http://www2.elsevier.co.uk/~tony/1014/yads-schema-2002-04-03#resource" target="_blank" onmouseover="show_status('http://www2.elsevier.co.uk/~tony/1014/yads-schema-2002-04-03#resource');">
<path style="fill:none;stroke:#add9e6" d="M157,483C132,486 114,486 95,512 90,519 90,530 91,539"/>
<polygon style="fill:#add9e6;stroke:#add9e6" points="88,539 93,548 93,538 88,539"/>
<text text-anchor="middle" x="139" y="525" style="font-family:arial">has:resource</text>
</a></g>
<g id="node41" class="node"><title>node_4</title>
<polygon style="fill:#6497ed;stroke:#6497ed" points="239,548 173,548 173,584 239,584 239,548"/>
<text text-anchor="middle" x="206" y="570" style="font-family:arial">RDF/XML</text>
</g>
<g id="edge41" class="edge"><title>:_8-&gt;node_4</title>
<a xlink:href="http://www2.elsevier.co.uk/~tony/1014/yads-schema-2002-04-03#label" target="_blank" onmouseover="show_status('http://www2.elsevier.co.uk/~tony/1014/yads-schema-2002-04-03#label');">
<path style="fill:none;stroke:#add9e6" d="M189,494C182,504 176,518 180,530 181,533 183,536 184,540"/>
<polygon style="fill:#add9e6;stroke:#add9e6" points="182,541 190,548 186,539 182,541"/>
<text text-anchor="middle" x="209" y="525" style="font-family:arial">has:label</text>
</a></g>
<g id="node43" class="node"><title>node_6</title>
<polygon style="fill:#6497ed;stroke:#6497ed" points="311,548 257,548 257,584 311,584 311,548"/>
<text text-anchor="middle" x="284" y="570" style="font-family:arial">:default</text>
</g>
<g id="edge43" class="edge"><title>:_8-&gt;node_6</title>
<a xlink:href="http://www2.elsevier.co.uk/~tony/1014/yads-schema-2002-04-03#access" target="_blank" onmouseover="show_status('http://www2.elsevier.co.uk/~tony/1014/yads-schema-2002-04-03#access');">
<path style="fill:none;stroke:#add9e6" d="M221,493C227,499 234,506 239,512 246,520 246,523 251,530 254,533 257,537 260,540"/>
<polygon style="fill:#add9e6;stroke:#add9e6" points="258,541 266,548 262,539 258,541"/>
<text text-anchor="middle" x="287" y="525" style="font-family:arial">has:access</text>
</a></g>
<g id="node46" class="node"><title>http:yads-n3.xml</title>
<a xlink:href="http:yads-n3.xml" target="_blank" onmouseover="show_status('http:yads-n3.xml');">
<ellipse cx="387" cy="566" rx="52" ry="18" style="fill:#dca0dd;stroke:#dca0dd"/>
<text text-anchor="middle" x="387" y="570" style="font-family:arial">http:yads-n3.xml</text>
</a></g>
<g id="edge46" class="edge"><title>:_9-&gt;http:yads-n3.xml</title>
<a xlink:href="http://www2.elsevier.co.uk/~tony/1014/yads-schema-2002-04-03#resource" target="_blank" onmouseover="show_status('http://www2.elsevier.co.uk/~tony/1014/yads-schema-2002-04-03#resource');">
<path style="fill:none;stroke:#add9e6" d="M417,485C403,491 388,499 380,512 376,520 376,530 377,539"/>
<polygon style="fill:#add9e6;stroke:#add9e6" points="374,539 379,548 379,538 374,539"/>
<text text-anchor="middle" x="424" y="525" style="font-family:arial">has:resource</text>
</a></g>
<g id="node48" class="node"><title>node_7</title>
<polygon style="fill:#6497ed;stroke:#6497ed" points="511,548 457,548 457,584 511,584 511,548"/>
<text text-anchor="middle" x="484" y="570" style="font-family:arial">RDF/N3</text>
</g>
<g id="edge48" class="edge"><title>:_9-&gt;node_7</title>
<a xlink:href="http://www2.elsevier.co.uk/~tony/1014/yads-schema-2002-04-03#label" target="_blank" onmouseover="show_status('http://www2.elsevier.co.uk/~tony/1014/yads-schema-2002-04-03#label');">
<path style="fill:none;stroke:#add9e6" d="M459,494C461,505 464,518 468,530 469,533 470,536 471,539"/>
<polygon style="fill:#add9e6;stroke:#add9e6" points="469,540 475,548 473,538 469,540"/>
<text text-anchor="middle" x="495" y="525" style="font-family:arial">has:label</text>
</a></g>
<g id="node51" class="node"><title>http:yads-daml.xml</title>
<a xlink:href="http:yads-daml.xml" target="_blank" onmouseover="show_status('http:yads-daml.xml');">
<ellipse cx="593" cy="566" rx="58" ry="18" style="fill:#dca0dd;stroke:#dca0dd"/>
<text text-anchor="middle" x="593" y="570" style="font-family:arial">http:yads-daml.xml</text>
</a></g>
<g id="edge51" class="edge"><title>:_10-&gt;http:yads-daml.xml</title>
<a xlink:href="http://www2.elsevier.co.uk/~tony/1014/yads-schema-2002-04-03#resource" target="_blank" onmouseover="show_status('http://www2.elsevier.co.uk/~tony/1014/yads-schema-2002-04-03#resource');">
<path style="fill:none;stroke:#add9e6" d="M589,494C590,507 591,524 591,539"/>
<polygon style="fill:#add9e6;stroke:#add9e6" points="588,538 592,548 593,538 588,538"/>
<text text-anchor="middle" x="633" y="525" style="font-family:arial">has:resource</text>
</a></g>
<g id="node53" class="node"><title>node_9</title>
<polygon style="fill:#6497ed;stroke:#6497ed" points="739,548 669,548 669,584 739,584 739,548"/>
<text text-anchor="middle" x="704" y="570" style="font-family:arial">DAML+OIL</text>
</g>
<g id="edge53" class="edge"><title>:_10-&gt;node_9</title>
<a xlink:href="http://www2.elsevier.co.uk/~tony/1014/yads-schema-2002-04-03#label" target="_blank" onmouseover="show_status('http://www2.elsevier.co.uk/~tony/1014/yads-schema-2002-04-03#label');">
<path style="fill:none;stroke:#add9e6" d="M631,487C647,492 664,501 677,512 685,520 691,530 695,539"/>
<polygon style="fill:#add9e6;stroke:#add9e6" points="693,540 699,548 697,538 693,540"/>
<text text-anchor="middle" x="719" y="525" style="font-family:arial">has:label</text>
</a></g>
<g id="node59" class="node"><title>:_13</title>
<ellipse cx="1142" cy="476" rx="51" ry="18" style="fill:#eedb82;stroke:#eedb82"/>
<text text-anchor="middle" x="1142" y="480" style="font-family:arial">yads:XML DTD</text>
</g>
<g id="edge60" class="edge"><title>:_12-&gt;:_13</title>
<a xlink:href="http://www.w3.org/1999/02/22-rdf-syntax-ns#_1" target="_blank" onmouseover="show_status('http://www.w3.org/1999/02/22-rdf-syntax-ns#_1');">
<path style="fill:none;stroke:#add9e6" d="M1526,372C1465,376 1321,389 1209,433 1196,439 1183,447 1172,455"/>
<polygon style="fill:#add9e6;stroke:#add9e6" points="1171,453 1164,460 1174,457 1171,453"/>
<text text-anchor="middle" x="1320" y="420" style="font-family:arial">rdf:_1</text>
</a></g>
<g id="node61" class="node"><title>:_14</title>
<ellipse cx="1368" cy="476" rx="55" ry="18" style="fill:#eedb82;stroke:#eedb82"/>
<text text-anchor="middle" x="1368" y="480" style="font-family:arial">yads:RELAX NG</text>
</g>
<g id="edge62" class="edge"><title>:_12-&gt;:_14</title>
<a xlink:href="http://www.w3.org/1999/02/22-rdf-syntax-ns#_2" target="_blank" onmouseover="show_status('http://www.w3.org/1999/02/22-rdf-syntax-ns#_2');">
<path style="fill:none;stroke:#add9e6" d="M1532,382C1508,394 1468,414 1435,433 1424,440 1411,448 1400,455"/>
<polygon style="fill:#add9e6;stroke:#add9e6" points="1399,453 1392,460 1402,457 1399,453"/>
<text text-anchor="middle" x="1509" y="420" style="font-family:arial">rdf:_2</text>
</a></g>
<g id="node63" class="node"><title>:_15</title>
<ellipse cx="1554" cy="476" rx="61" ry="18" style="fill:#eedb82;stroke:#eedb82"/>
<text text-anchor="middle" x="1554" y="480" style="font-family:arial">yads:XML Schema</text>
</g>
<g id="edge64" class="edge"><title>:_12-&gt;:_15</title>
<a xlink:href="http://www.w3.org/1999/02/22-rdf-syntax-ns#_3" target="_blank" onmouseover="show_status('http://www.w3.org/1999/02/22-rdf-syntax-ns#_3');">
<path style="fill:none;stroke:#add9e6" d="M1554,389C1554,405 1554,430 1554,449"/>
<polygon style="fill:#add9e6;stroke:#add9e6" points="1552,448 1554,458 1557,448 1552,448"/>
<text text-anchor="middle" x="1575" y="420" style="font-family:arial">rdf:_3</text>
</a></g>
<g id="node65" class="node"><title>:_16</title>
<ellipse cx="1741" cy="476" rx="56" ry="18" style="fill:#eedb82;stroke:#eedb82"/>
<text text-anchor="middle" x="1741" y="480" style="font-family:arial">yads:Schematron</text>
</g>
<g id="edge66" class="edge"><title>:_12-&gt;:_16</title>
<a xlink:href="http://www.w3.org/1999/02/22-rdf-syntax-ns#_4" target="_blank" onmouseover="show_status('http://www.w3.org/1999/02/22-rdf-syntax-ns#_4');">
<path style="fill:none;stroke:#add9e6" d="M1576,382C1601,394 1640,414 1673,433 1685,439 1697,447 1708,455"/>
<polygon style="fill:#add9e6;stroke:#add9e6" points="1706,457 1716,460 1709,453 1706,457"/>
<text text-anchor="middle" x="1679" y="420" style="font-family:arial">rdf:_4</text>
</a></g>
<g id="node67" class="node"><title>:_17</title>
<ellipse cx="1955" cy="476" rx="40" ry="18" style="fill:#eedb82;stroke:#eedb82"/>
<text text-anchor="middle" x="1955" y="480" style="font-family:arial">yads:XCSL</text>
</g>
<g id="edge68" class="edge"><title>:_12-&gt;:_17</title>
<a xlink:href="http://www.w3.org/1999/02/22-rdf-syntax-ns#_5" target="_blank" onmouseover="show_status('http://www.w3.org/1999/02/22-rdf-syntax-ns#_5');">
<path style="fill:none;stroke:#add9e6" d="M1582,374C1724,393 1772,372 1903,433 1914,438 1924,445 1932,453"/>
<polygon style="fill:#add9e6;stroke:#add9e6" points="1930,454 1939,459 1933,451 1930,454"/>
<text text-anchor="middle" x="1903" y="420" style="font-family:arial">rdf:_5</text>
</a></g>
<g id="node69" class="node"><title>:_18</title>
<ellipse cx="2172" cy="476" rx="49" ry="18" style="fill:#eedb82;stroke:#eedb82"/>
<text text-anchor="middle" x="2172" y="480" style="font-family:arial">yads:MOF/XMI</text>
</g>
<g id="edge70" class="edge"><title>:_12-&gt;:_18</title>
<a xlink:href="http://www.w3.org/1999/02/22-rdf-syntax-ns#_6" target="_blank" onmouseover="show_status('http://www.w3.org/1999/02/22-rdf-syntax-ns#_6');">
<path style="fill:none;stroke:#add9e6" d="M1582,372C1681,377 2014,395 2111,433 2123,438 2136,446 2146,453"/>
<polygon style="fill:#add9e6;stroke:#add9e6" points="2144,454 2153,459 2147,451 2144,454"/>
<text text-anchor="middle" x="2104" y="420" style="font-family:arial">rdf:_6</text>
</a></g>
<g id="node72" class="node"><title>http:yads-dtd.xml</title>
<a xlink:href="http:yads-dtd.xml" target="_blank" onmouseover="show_status('http:yads-dtd.xml');">
<ellipse cx="1059" cy="566" rx="54" ry="18" style="fill:#dca0dd;stroke:#dca0dd"/>
<text text-anchor="middle" x="1059" y="570" style="font-family:arial">http:yads-dtd.xml</text>
</a></g>
<g id="edge73" class="edge"><title>:_13-&gt;http:yads-dtd.xml</title>
<a xlink:href="http://www2.elsevier.co.uk/~tony/1014/yads-schema-2002-04-03#resource" target="_blank" onmouseover="show_status('http://www2.elsevier.co.uk/~tony/1014/yads-schema-2002-04-03#resource');">
<path style="fill:none;stroke:#add9e6" d="M1101,487C1088,492 1075,500 1066,512 1061,519 1058,530 1057,539"/>
<polygon style="fill:#add9e6;stroke:#add9e6" points="1055,538 1057,548 1060,538 1055,538"/>
<text text-anchor="middle" x="1110" y="525" style="font-family:arial">has:resource</text>
</a></g>
<g id="node74" class="node"><title>node_12</title>
<polygon style="fill:#6497ed;stroke:#6497ed" points="1197,548 1131,548 1131,584 1197,584 1197,548"/>
<text text-anchor="middle" x="1164" y="570" style="font-family:arial">XML DTD</text>
</g>
<g id="edge75" class="edge"><title>:_13-&gt;node_12</title>
<a xlink:href="http://www2.elsevier.co.uk/~tony/1014/yads-schema-2002-04-03#label" target="_blank" onmouseover="show_status('http://www2.elsevier.co.uk/~tony/1014/yads-schema-2002-04-03#label');">
<path style="fill:none;stroke:#add9e6" d="M1146,494C1148,505 1151,518 1154,530 1155,533 1156,536 1157,538"/>
<polygon style="fill:#add9e6;stroke:#add9e6" points="1155,539 1159,548 1159,538 1155,539"/>
<text text-anchor="middle" x="1181" y="525" style="font-family:arial">has:label</text>
</a></g>
<g id="node77" class="node"><title>http:yads-rng.xml</title>
<a xlink:href="http:yads-rng.xml" target="_blank" onmouseover="show_status('http:yads-rng.xml');">
<ellipse cx="1275" cy="566" rx="54" ry="18" style="fill:#dca0dd;stroke:#dca0dd"/>
<text text-anchor="middle" x="1275" y="570" style="font-family:arial">http:yads-rng.xml</text>
</a></g>
<g id="edge78" class="edge"><title>:_14-&gt;http:yads-rng.xml</title>
<a xlink:href="http://www2.elsevier.co.uk/~tony/1014/yads-schema-2002-04-03#resource" target="_blank" onmouseover="show_status('http://www2.elsevier.co.uk/~tony/1014/yads-schema-2002-04-03#resource');">
<path style="fill:none;stroke:#add9e6" d="M1327,488C1314,494 1300,501 1291,512 1285,519 1281,529 1279,539"/>
<polygon style="fill:#add9e6;stroke:#add9e6" points="1277,538 1277,548 1282,539 1277,538"/>
<text text-anchor="middle" x="1335" y="525" style="font-family:arial">has:resource</text>
</a></g>
<g id="node79" class="node"><title>node_14</title>
<polygon style="fill:#6497ed;stroke:#6497ed" points="1423,548 1347,548 1347,584 1423,584 1423,548"/>
<text text-anchor="middle" x="1385" y="570" style="font-family:arial">RELAX NG</text>
</g>
<g id="edge80" class="edge"><title>:_14-&gt;node_14</title>
<a xlink:href="http://www2.elsevier.co.uk/~tony/1014/yads-schema-2002-04-03#label" target="_blank" onmouseover="show_status('http://www2.elsevier.co.uk/~tony/1014/yads-schema-2002-04-03#label');">
<path style="fill:none;stroke:#add9e6" d="M1371,494C1373,507 1377,524 1379,539"/>
<polygon style="fill:#add9e6;stroke:#add9e6" points="1376,539 1381,548 1381,538 1376,539"/>
<text text-anchor="middle" x="1406" y="525" style="font-family:arial">has:label</text>
</a></g>
<g id="node82" class="node"><title>http:yads-xsd.xml</title>
<a xlink:href="http:yads-xsd.xml" target="_blank" onmouseover="show_status('http:yads-xsd.xml');">
<ellipse cx="1502" cy="566" rx="55" ry="18" style="fill:#dca0dd;stroke:#dca0dd"/>
<text text-anchor="middle" x="1502" y="570" style="font-family:arial">http:yads-xsd.xml</text>
</a></g>
<g id="edge83" class="edge"><title>:_15-&gt;http:yads-xsd.xml</title>
<a xlink:href="http://www2.elsevier.co.uk/~tony/1014/yads-schema-2002-04-03#resource" target="_blank" onmouseover="show_status('http://www2.elsevier.co.uk/~tony/1014/yads-schema-2002-04-03#resource');">
<path style="fill:none;stroke:#add9e6" d="M1534,493C1529,499 1523,505 1519,512 1515,520 1511,530 1509,539"/>
<polygon style="fill:#add9e6;stroke:#add9e6" points="1507,538 1506,548 1512,539 1507,538"/>
<text text-anchor="middle" x="1563" y="525" style="font-family:arial">has:resource</text>
</a></g>
<g id="node84" class="node"><title>node_16</title>
<polygon style="fill:#6497ed;stroke:#6497ed" points="1661,548 1575,548 1575,584 1661,584 1661,548"/>
<text text-anchor="middle" x="1618" y="570" style="font-family:arial">XML Schema</text>
</g>
<g id="edge85" class="edge"><title>:_15-&gt;node_16</title>
<a xlink:href="http://www2.elsevier.co.uk/~tony/1014/yads-schema-2002-04-03#label" target="_blank" onmouseover="show_status('http://www2.elsevier.co.uk/~tony/1014/yads-schema-2002-04-03#label');">
<path style="fill:none;stroke:#add9e6" d="M1583,492C1591,498 1599,504 1604,512 1610,520 1613,530 1615,539"/>
<polygon style="fill:#add9e6;stroke:#add9e6" points="1612,539 1617,548 1617,538 1612,539"/>
<text text-anchor="middle" x="1640" y="525" style="font-family:arial">has:label</text>
</a></g>
<g id="node87" class="node"><title>http:yads-sch.xml</title>
<a xlink:href="http:yads-sch.xml" target="_blank" onmouseover="show_status('http:yads-sch.xml');">
<ellipse cx="1740" cy="566" rx="55" ry="18" style="fill:#dca0dd;stroke:#dca0dd"/>
<text text-anchor="middle" x="1740" y="570" style="font-family:arial">http:yads-sch.xml</text>
</a></g>
<g id="edge88" class="edge"><title>:_16-&gt;http:yads-sch.xml</title>
<a xlink:href="http://www2.elsevier.co.uk/~tony/1014/yads-schema-2002-04-03#resource" target="_blank" onmouseover="show_status('http://www2.elsevier.co.uk/~tony/1014/yads-schema-2002-04-03#resource');">
<path style="fill:none;stroke:#add9e6" d="M1741,494C1741,507 1741,524 1740,539"/>
<polygon style="fill:#add9e6;stroke:#add9e6" points="1738,538 1740,548 1743,538 1738,538"/>
<text text-anchor="middle" x="1782" y="525" style="font-family:arial">has:resource</text>
</a></g>
<g id="node89" class="node"><title>node_18</title>
<polygon style="fill:#6497ed;stroke:#6497ed" points="1891,548 1813,548 1813,584 1891,584 1891,548"/>
<text text-anchor="middle" x="1852" y="570" style="font-family:arial">Schematron</text>
</g>
<g id="edge90" class="edge"><title>:_16-&gt;node_18</title>
<a xlink:href="http://www2.elsevier.co.uk/~tony/1014/yads-schema-2002-04-03#label" target="_blank" onmouseover="show_status('http://www2.elsevier.co.uk/~tony/1014/yads-schema-2002-04-03#label');">
<path style="fill:none;stroke:#add9e6" d="M1785,488C1799,493 1815,501 1826,512 1834,520 1840,530 1844,539"/>
<polygon style="fill:#add9e6;stroke:#add9e6" points="1841,539 1847,548 1846,538 1841,539"/>
<text text-anchor="middle" x="1868" y="525" style="font-family:arial">has:label</text>
</a></g>
<g id="node92" class="node"><title>http:yads-xcsl.xml</title>
<a xlink:href="http:yads-xcsl.xml" target="_blank" onmouseover="show_status('http:yads-xcsl.xml');">
<ellipse cx="1971" cy="566" rx="56" ry="18" style="fill:#dca0dd;stroke:#dca0dd"/>
<text text-anchor="middle" x="1971" y="570" style="font-family:arial">http:yads-xcsl.xml</text>
</a></g>
<g id="edge93" class="edge"><title>:_17-&gt;http:yads-xcsl.xml</title>
<a xlink:href="http://www2.elsevier.co.uk/~tony/1014/yads-schema-2002-04-03#resource" target="_blank" onmouseover="show_status('http://www2.elsevier.co.uk/~tony/1014/yads-schema-2002-04-03#resource');">
<path style="fill:none;stroke:#add9e6" d="M1955,494C1956,505 1957,518 1959,530 1959,533 1960,536 1961,538"/>
<polygon style="fill:#add9e6;stroke:#add9e6" points="1959,539 1964,548 1964,538 1959,539"/>
<text text-anchor="middle" x="2000" y="525" style="font-family:arial">has:resource</text>
</a></g>
<g id="node94" class="node"><title>node_20</title>
<polygon style="fill:#6497ed;stroke:#6497ed" points="2099,548 2045,548 2045,584 2099,584 2099,548"/>
<text text-anchor="middle" x="2072" y="570" style="font-family:arial">XCSL</text>
</g>
<g id="edge95" class="edge"><title>:_17-&gt;node_20</title>
<a xlink:href="http://www2.elsevier.co.uk/~tony/1014/yads-schema-2002-04-03#label" target="_blank" onmouseover="show_status('http://www2.elsevier.co.uk/~tony/1014/yads-schema-2002-04-03#label');">
<path style="fill:none;stroke:#add9e6" d="M1991,484C2009,490 2029,499 2044,512 2049,517 2055,529 2061,541"/>
<polygon style="fill:#add9e6;stroke:#add9e6" points="2058,540 2064,548 2062,538 2058,540"/>
<text text-anchor="middle" x="2082" y="525" style="font-family:arial">has:label</text>
</a></g>
<g id="node97" class="node"><title>http:yads-xmi.xml</title>
<a xlink:href="http:yads-xmi.xml" target="_blank" onmouseover="show_status('http:yads-xmi.xml');">
<ellipse cx="2178" cy="566" rx="55" ry="18" style="fill:#dca0dd;stroke:#dca0dd"/>
<text text-anchor="middle" x="2178" y="570" style="font-family:arial">http:yads-xmi.xml</text>
</a></g>
<g id="edge98" class="edge"><title>:_18-&gt;http:yads-xmi.xml</title>
<a xlink:href="http://www2.elsevier.co.uk/~tony/1014/yads-schema-2002-04-03#resource" target="_blank" onmouseover="show_status('http://www2.elsevier.co.uk/~tony/1014/yads-schema-2002-04-03#resource');">
<path style="fill:none;stroke:#add9e6" d="M2172,494C2172,505 2172,518 2173,530 2173,533 2174,535 2174,538"/>
<polygon style="fill:#add9e6;stroke:#add9e6" points="2172,538 2175,548 2176,538 2172,538"/>
<text text-anchor="middle" x="2214" y="525" style="font-family:arial">has:resource</text>
</a></g>
<g id="node99" class="node"><title>node_22</title>
<polygon style="fill:#6497ed;stroke:#6497ed" points="2313,548 2251,548 2251,584 2313,584 2313,548"/>
<text text-anchor="middle" x="2282" y="570" style="font-family:arial">MOF/XMI</text>
</g>
<g id="edge100" class="edge"><title>:_18-&gt;node_22</title>
<a xlink:href="http://www2.elsevier.co.uk/~tony/1014/yads-schema-2002-04-03#label" target="_blank" onmouseover="show_status('http://www2.elsevier.co.uk/~tony/1014/yads-schema-2002-04-03#label');">
<path style="fill:none;stroke:#add9e6" d="M2209,488C2223,494 2238,502 2250,512 2258,520 2265,530 2270,540"/>
<polygon style="fill:#add9e6;stroke:#add9e6" points="2267,540 2274,548 2272,538 2267,540"/>
<text text-anchor="middle" x="2290" y="525" style="font-family:arial">has:label</text>
</a></g>
</g>
</svg>
