<?xml version="1.0" encoding="UTF-8" standalone="no"?>
<!DOCTYPE svg PUBLIC "-//W3C//DTD SVG 1.0//EN"
 "http://www.w3.org/TR/2001/REC-SVG-20010904/DTD/svg10.dtd" [
 <!ATTLIST svg xmlns:xlink CDATA #FIXED "http://www.w3.org/1999/xlink">
]>
<!-- Generated by dot version 1.8.5 (Tue Apr 23 17:19:23  2002)
     For user: (Administrator) ,S-1-5-21-1454471165-688789844-1708537768-500   Title: yads    Pages: 1 -->
<svg width="566px" height="651px"
 xmlns="http://www.w3.org/2000/svg" xmlns:xlink="http://www.w3.org/1999/xlink">
<g id="graph0" class="graph" style="font-family:Times-Roman;font-size:11.00">
<title>yads</title>
<text text-anchor="middle" x="283" y="640" style="font-family:arial;font-size:24.00">YADS - A Description Service</text>
<g id="graph2" class="cluster"><title>cluster_1</title>
<polygon style="fill:none;stroke:#d2d2d2;stroke-dasharray:5,2" points="19,608 547,608 547,43 19,43 19,608"/>
<text text-anchor="middle" x="68" y="55" style="font-family:arial">Nest - MetroRail</text>
</g>
<g id="graph3" class="cluster"><title>cluster_3</title>
<polygon style="fill:none;stroke:#d2d2d2;stroke-dasharray:5,2" points="27,600 539,600 539,238 27,238 27,600"/>
<text text-anchor="middle" x="99" y="250" style="font-family:arial">Nest - Application Profile</text>
</g>
<g id="graph4" class="cluster"><title>cluster_5</title>
<polygon style="fill:none;stroke:#d2d2d2;stroke-dasharray:5,2" points="35,592 193,592 193,433 35,433 35,592"/>
<text text-anchor="middle" x="51" y="445" style="font-family:arial">Item</text>
</g>
<g id="graph5" class="cluster"><title>cluster_6</title>
<polygon style="fill:none;stroke:#d2d2d2;stroke-dasharray:5,2" points="201,592 369,592 369,433 201,433 201,592"/>
<text text-anchor="middle" x="217" y="445" style="font-family:arial">Item</text>
</g>
<g id="graph6" class="cluster"><title>cluster_7</title>
<polygon style="fill:none;stroke:#d2d2d2;stroke-dasharray:5,2" points="377,592 531,592 531,433 377,433 377,592"/>
<text text-anchor="middle" x="393" y="445" style="font-family:arial">Item</text>
</g>
<g id="node2" class="node"><title>:_1</title>
<a xlink:href="http://www2.elsevier.co.uk/~tony/1014/yads-schema-2002-04-03#Nest" target="_blank" onmouseover="show_status('http://www2.elsevier.co.uk/~tony/1014/yads-schema-2002-04-03#Nest');">
<ellipse cx="147" cy="86" rx="29" ry="18" style="fill:#d2d2d2;stroke:#d2d2d2"/>
<text text-anchor="middle" x="147" y="90" style="font-family:arial">isa:Nest</text>
</a></g>
<g id="node4" class="node"><title>doi:1014/metro</title>
<a xlink:href="http://dx.doi.org/1014/metro" target="_blank" onmouseover="show_status('http://dx.doi.org/1014/metro');">
<ellipse cx="73" cy="176" rx="46" ry="18" style="fill:#dca0dd;stroke:#dca0dd"/>
<text text-anchor="middle" x="73" y="180" style="font-family:arial">doi:1014/metro</text>
</a></g>
<g id="edge3" class="edge"><title>:_1-&gt;doi:1014/metro</title>
<a xlink:href="http://www2.elsevier.co.uk/~tony/1014/yads-schema-2002-04-03#resource" target="_blank" onmouseover="show_status('http://www2.elsevier.co.uk/~tony/1014/yads-schema-2002-04-03#resource');">
<path style="fill:none;stroke:#add9e6" d="M120,93C95,100 60,111 52,122 47,131 49,141 53,151"/>
<polygon style="fill:#add9e6;stroke:#add9e6" points="51,152 58,159 55,149 51,152"/>
<text text-anchor="middle" x="96" y="135" style="font-family:arial">has:resource</text>
</a></g>
<g id="node6" class="node"><title>node_14</title>
<polygon style="fill:#6497ed;stroke:#6497ed" points="97,353 35,353 35,389 97,389 97,353"/>
<text text-anchor="middle" x="66" y="375" style="font-family:arial">MetroRail</text>
</g>
<g id="edge5" class="edge"><title>:_1-&gt;node_14</title>
<a xlink:href="http://www2.elsevier.co.uk/~tony/1014/yads-schema-2002-04-03#label" target="_blank" onmouseover="show_status('http://www2.elsevier.co.uk/~tony/1014/yads-schema-2002-04-03#label');">
<path style="fill:none;stroke:#add9e6" d="M145,104C142,126 137,163 128,194 114,249 90,312 77,346"/>
<polygon style="fill:#add9e6;stroke:#add9e6" points="76,343 74,353 80,345 76,343"/>
<text text-anchor="middle" x="152" y="225" style="font-family:arial">has:label</text>
</a></g>
<g id="node8" class="node"><title>node_2</title>
<polygon style="fill:#6497ed;stroke:#6497ed" points="355,158 157,158 157,194 355,194 355,158"/>
<text text-anchor="middle" x="256" y="180" style="font-family:arial">MetroRail implements the YADS...n</text>
</g>
<g id="edge7" class="edge"><title>:_1-&gt;node_2</title>
<a xlink:href="http://www2.elsevier.co.uk/~tony/1014/yads-schema-2002-04-03#detail" target="_blank" onmouseover="show_status('http://www2.elsevier.co.uk/~tony/1014/yads-schema-2002-04-03#detail');">
<path style="fill:none;stroke:#add9e6" d="M165,100C181,114 206,136 227,152"/>
<polygon style="fill:#add9e6;stroke:#add9e6" points="225,153 234,158 228,150 225,153"/>
<text text-anchor="middle" x="242" y="135" style="font-family:arial">has:detail</text>
</a></g>
<g id="node10" class="node"><title>:_2</title>
<a xlink:href="http://www.w3.org/1999/02/22-rdf-syntax-ns#Bag" target="_blank" onmouseover="show_status('http://www.w3.org/1999/02/22-rdf-syntax-ns#Bag');">
<ellipse cx="401" cy="176" rx="28" ry="18" style="fill:#d2d2d2;stroke:#d2d2d2"/>
<text text-anchor="middle" x="401" y="180" style="font-family:arial">rdf:Bag</text>
</a></g>
<g id="edge9" class="edge"><title>:_1-&gt;:_2</title>
<a xlink:href="http://www2.elsevier.co.uk/~tony/1014/yads-schema-2002-04-03#collection" target="_blank" onmouseover="show_status('http://www2.elsevier.co.uk/~tony/1014/yads-schema-2002-04-03#collection');">
<path style="fill:none;stroke:#add9e6" d="M175,90C259,108 282,121 364,158 366,159 368,160 370,161"/>
<polygon style="fill:#add9e6;stroke:#add9e6" points="369,163 379,165 371,159 369,163"/>
<text text-anchor="middle" x="365" y="135" style="font-family:arial">has:collection</text>
</a></g>
<g id="node12" class="node"><title>:_3</title>
<ellipse cx="346" cy="281" rx="34" ry="18" style="fill:#eedb82;stroke:#eedb82"/>
<text text-anchor="middle" x="346" y="285" style="font-family:arial">doi:Profile</text>
</g>
<g id="edge11" class="edge"><title>:_2-&gt;:_3</title>
<a xlink:href="http://www.w3.org/1999/02/22-rdf-syntax-ns#_1" target="_blank" onmouseover="show_status('http://www.w3.org/1999/02/22-rdf-syntax-ns#_1');">
<path style="fill:none;stroke:#add9e6" d="M392,193C383,211 369,236 359,256"/>
<polygon style="fill:#add9e6;stroke:#add9e6" points="357,254 355,264 362,256 357,254"/>
<text text-anchor="middle" x="402" y="225" style="font-family:arial">rdf:_1</text>
</a></g>
<g id="edge16" class="edge"><title>:_3-&gt;node_14</title>
<a xlink:href="http://www2.elsevier.co.uk/~tony/1014/yads-schema-2002-04-03#label" target="_blank" onmouseover="show_status('http://www2.elsevier.co.uk/~tony/1014/yads-schema-2002-04-03#label');">
<path style="fill:none;stroke:#add9e6" d="M319,292C318,295 316,297 311,299 284,313 202,302 175,317 167,323 170,330 162,335 141,351 131,344 106,353"/>
<polygon style="fill:#add9e6;stroke:#add9e6" points="105,351 97,357 107,355 105,351"/>
<text text-anchor="middle" x="209" y="330" style="font-family:arial">has:label</text>
</a></g>
<g id="node15" class="node"><title>doi:1014/profile.metro</title>
<a xlink:href="http://dx.doi.org/1014/profile.metro" target="_blank" onmouseover="show_status('http://dx.doi.org/1014/profile.metro');">
<ellipse cx="178" cy="371" rx="63" ry="18" style="fill:#dca0dd;stroke:#dca0dd"/>
<text text-anchor="middle" x="178" y="375" style="font-family:arial">doi:1014/profile.metro</text>
</a></g>
<g id="edge14" class="edge"><title>:_3-&gt;doi:1014/profile.metro</title>
<a xlink:href="http://www2.elsevier.co.uk/~tony/1014/yads-schema-2002-04-03#resource" target="_blank" onmouseover="show_status('http://www2.elsevier.co.uk/~tony/1014/yads-schema-2002-04-03#resource');">
<path style="fill:none;stroke:#add9e6" d="M323,294C319,296 315,298 312,299 290,309 283,307 261,317 243,326 224,339 209,349"/>
<polygon style="fill:#add9e6;stroke:#add9e6" points="208,347 201,354 211,351 208,347"/>
<text text-anchor="middle" x="309" y="330" style="font-family:arial">has:resource</text>
</a></g>
<g id="node18" class="node"><title>node_5</title>
<polygon style="fill:#6497ed;stroke:#6497ed" points="433,353 259,353 259,389 433,389 433,353"/>
<text text-anchor="middle" x="346" y="375" style="font-family:arial">MetroRail - The LA Metro Rail</text>
</g>
<g id="edge18" class="edge"><title>:_3-&gt;node_5</title>
<a xlink:href="http://www2.elsevier.co.uk/~tony/1014/yads-schema-2002-04-03#detail" target="_blank" onmouseover="show_status('http://www2.elsevier.co.uk/~tony/1014/yads-schema-2002-04-03#detail');">
<path style="fill:none;stroke:#add9e6" d="M346,299C346,312 346,329 346,344"/>
<polygon style="fill:#add9e6;stroke:#add9e6" points="344,343 346,353 349,343 344,343"/>
<text text-anchor="middle" x="375" y="330" style="font-family:arial">has:detail</text>
</a></g>
<g id="node20" class="node"><title>:_4</title>
<a xlink:href="http://www.w3.org/1999/02/22-rdf-syntax-ns#Bag" target="_blank" onmouseover="show_status('http://www.w3.org/1999/02/22-rdf-syntax-ns#Bag');">
<ellipse cx="479" cy="371" rx="28" ry="18" style="fill:#d2d2d2;stroke:#d2d2d2"/>
<text text-anchor="middle" x="479" y="375" style="font-family:arial">rdf:Bag</text>
</a></g>
<g id="edge20" class="edge"><title>:_3-&gt;:_4</title>
<a xlink:href="http://www2.elsevier.co.uk/~tony/1014/yads-schema-2002-04-03#collection" target="_blank" onmouseover="show_status('http://www2.elsevier.co.uk/~tony/1014/yads-schema-2002-04-03#collection');">
<path style="fill:none;stroke:#add9e6" d="M370,294C382,301 397,309 409,317 424,328 441,340 454,351"/>
<polygon style="fill:#add9e6;stroke:#add9e6" points="452,352 461,357 455,349 452,352"/>
<text text-anchor="middle" x="473" y="330" style="font-family:arial">has:collection</text>
</a></g>
<g id="node22" class="node"><title>:_5</title>
<ellipse cx="127" cy="476" rx="36" ry="18" style="fill:#eedb82;stroke:#eedb82"/>
<text text-anchor="middle" x="127" y="480" style="font-family:arial">metro:Line</text>
</g>
<g id="edge22" class="edge"><title>:_4-&gt;:_5</title>
<a xlink:href="http://www.w3.org/1999/02/22-rdf-syntax-ns#_1" target="_blank" onmouseover="show_status('http://www.w3.org/1999/02/22-rdf-syntax-ns#_1');">
<path style="fill:none;stroke:#add9e6" d="M452,377C448,381 447,386 440,389 433,393 204,431 197,433 182,439 167,448 155,456"/>
<polygon style="fill:#add9e6;stroke:#add9e6" points="154,454 147,461 157,458 154,454"/>
<text text-anchor="middle" x="376" y="420" style="font-family:arial">rdf:_1</text>
</a></g>
<g id="node24" class="node"><title>:_6</title>
<ellipse cx="303" cy="476" rx="36" ry="18" style="fill:#eedb82;stroke:#eedb82"/>
<text text-anchor="middle" x="303" y="480" style="font-family:arial">metro:Line</text>
</g>
<g id="edge24" class="edge"><title>:_4-&gt;:_6</title>
<a xlink:href="http://www.w3.org/1999/02/22-rdf-syntax-ns#_2" target="_blank" onmouseover="show_status('http://www.w3.org/1999/02/22-rdf-syntax-ns#_2');">
<path style="fill:none;stroke:#add9e6" d="M458,383C436,395 402,415 373,433 360,441 345,450 334,457"/>
<polygon style="fill:#add9e6;stroke:#add9e6" points="333,455 326,462 336,459 333,455"/>
<text text-anchor="middle" x="439" y="420" style="font-family:arial">rdf:_2</text>
</a></g>
<g id="node26" class="node"><title>:_7</title>
<ellipse cx="460" cy="476" rx="36" ry="18" style="fill:#eedb82;stroke:#eedb82"/>
<text text-anchor="middle" x="460" y="480" style="font-family:arial">metro:Line</text>
</g>
<g id="edge26" class="edge"><title>:_4-&gt;:_7</title>
<a xlink:href="http://www.w3.org/1999/02/22-rdf-syntax-ns#_3" target="_blank" onmouseover="show_status('http://www.w3.org/1999/02/22-rdf-syntax-ns#_3');">
<path style="fill:none;stroke:#add9e6" d="M476,389C473,405 468,430 465,449"/>
<polygon style="fill:#add9e6;stroke:#add9e6" points="463,448 463,458 468,449 463,448"/>
<text text-anchor="middle" x="492" y="420" style="font-family:arial">rdf:_3</text>
</a></g>
<g id="node29" class="node"><title>doi:1014/metro/blue_line</title>
<a xlink:href="http://dx.doi.org/1014/metro/blue_line" target="_blank" onmouseover="show_status('http://dx.doi.org/1014/metro/blue_line');">
<ellipse cx="114" cy="566" rx="71" ry="18" style="fill:#dca0dd;stroke:#dca0dd"/>
<text text-anchor="middle" x="114" y="570" style="font-family:arial">doi:1014/metro/blue_line</text>
</a></g>
<g id="edge29" class="edge"><title>:_5-&gt;doi:1014/metro/blue_line</title>
<a xlink:href="http://www2.elsevier.co.uk/~tony/1014/yads-schema-2002-04-03#resource" target="_blank" onmouseover="show_status('http://www2.elsevier.co.uk/~tony/1014/yads-schema-2002-04-03#resource');">
<path style="fill:none;stroke:#add9e6" d="M121,494C119,500 117,506 116,512 115,521 114,530 114,538"/>
<polygon style="fill:#add9e6;stroke:#add9e6" points="112,538 114,548 117,538 112,538"/>
<text text-anchor="middle" x="160" y="525" style="font-family:arial">has:resource</text>
</a></g>
<g id="node32" class="node"><title>doi:1014/metro/green_line</title>
<a xlink:href="http://dx.doi.org/1014/metro/green_line" target="_blank" onmouseover="show_status('http://dx.doi.org/1014/metro/green_line');">
<ellipse cx="285" cy="566" rx="76" ry="18" style="fill:#dca0dd;stroke:#dca0dd"/>
<text text-anchor="middle" x="285" y="570" style="font-family:arial">doi:1014/metro/green_line</text>
</a></g>
<g id="edge32" class="edge"><title>:_6-&gt;doi:1014/metro/green_line</title>
<a xlink:href="http://www2.elsevier.co.uk/~tony/1014/yads-schema-2002-04-03#resource" target="_blank" onmouseover="show_status('http://www2.elsevier.co.uk/~tony/1014/yads-schema-2002-04-03#resource');">
<path style="fill:none;stroke:#add9e6" d="M297,494C295,500 293,506 292,512 290,521 289,530 288,539"/>
<polygon style="fill:#add9e6;stroke:#add9e6" points="286,538 287,548 291,538 286,538"/>
<text text-anchor="middle" x="336" y="525" style="font-family:arial">has:resource</text>
</a></g>
<g id="node35" class="node"><title>doi:1014/metro/red_line</title>
<a xlink:href="http://dx.doi.org/1014/metro/red_line" target="_blank" onmouseover="show_status('http://dx.doi.org/1014/metro/red_line');">
<ellipse cx="454" cy="566" rx="69" ry="18" style="fill:#dca0dd;stroke:#dca0dd"/>
<text text-anchor="middle" x="454" y="570" style="font-family:arial">doi:1014/metro/red_line</text>
</a></g>
<g id="edge35" class="edge"><title>:_7-&gt;doi:1014/metro/red_line</title>
<a xlink:href="http://www2.elsevier.co.uk/~tony/1014/yads-schema-2002-04-03#resource" target="_blank" onmouseover="show_status('http://www2.elsevier.co.uk/~tony/1014/yads-schema-2002-04-03#resource');">
<path style="fill:none;stroke:#add9e6" d="M449,494C446,499 443,506 442,512 440,521 441,530 443,539"/>
<polygon style="fill:#add9e6;stroke:#add9e6" points="440,539 446,548 445,538 440,539"/>
<text text-anchor="middle" x="483" y="525" style="font-family:arial">has:resource</text>
</a></g>
</g>
</svg>
