<?xml version="1.0" encoding="UTF-8" standalone="no"?>
<!DOCTYPE svg PUBLIC "-//W3C//DTD SVG 1.0//EN"
 "http://www.w3.org/TR/2001/REC-SVG-20010904/DTD/svg10.dtd" [
 <!ATTLIST svg xmlns:xlink CDATA #FIXED "http://www.w3.org/1999/xlink">
]>
<!-- Generated by dot version 1.8.5 (Tue Apr 23 17:19:23  2002)
     For user: (Administrator) ,S-1-5-21-1454471165-688789844-1708537768-500   Title: yads    Pages: 1 -->
<svg width="2760px" height="651px"
 xmlns="http://www.w3.org/2000/svg" xmlns:xlink="http://www.w3.org/1999/xlink">
<g id="graph0" class="graph" style="font-family:Times-Roman;font-size:11.00">
<title>yads</title>
<text text-anchor="middle" x="1380" y="640" style="font-family:arial;font-size:24.00">YADS - A Description Service</text>
<g id="graph2" class="cluster"><title>cluster_1</title>
<polygon style="fill:none;stroke:#d2d2d2;stroke-dasharray:5,2" points="19,608 2741,608 2741,43 19,43 19,608"/>
<text text-anchor="middle" x="71" y="55" style="font-family:arial">Nest - TubeTime</text>
</g>
<g id="graph3" class="cluster"><title>cluster_3</title>
<polygon style="fill:none;stroke:#d2d2d2;stroke-dasharray:5,2" points="27,600 2161,600 2161,238 27,238 27,600"/>
<text text-anchor="middle" x="99" y="250" style="font-family:arial">Nest - Application Profile</text>
</g>
<g id="graph4" class="cluster"><title>cluster_5</title>
<polygon style="fill:none;stroke:#d2d2d2;stroke-dasharray:5,2" points="35,592 193,592 193,433 35,433 35,592"/>
<text text-anchor="middle" x="51" y="445" style="font-family:arial">Item</text>
</g>
<g id="graph5" class="cluster"><title>cluster_6</title>
<polygon style="fill:none;stroke:#d2d2d2;stroke-dasharray:5,2" points="201,592 349,592 349,433 201,433 201,592"/>
<text text-anchor="middle" x="217" y="445" style="font-family:arial">Item</text>
</g>
<g id="graph6" class="cluster"><title>cluster_7</title>
<polygon style="fill:none;stroke:#d2d2d2;stroke-dasharray:5,2" points="357,592 495,592 495,433 357,433 357,592"/>
<text text-anchor="middle" x="373" y="445" style="font-family:arial">Item</text>
</g>
<g id="graph7" class="cluster"><title>cluster_8</title>
<polygon style="fill:none;stroke:#d2d2d2;stroke-dasharray:5,2" points="503,592 649,592 649,433 503,433 503,592"/>
<text text-anchor="middle" x="519" y="445" style="font-family:arial">Item</text>
</g>
<g id="graph8" class="cluster"><title>cluster_9</title>
<polygon style="fill:none;stroke:#d2d2d2;stroke-dasharray:5,2" points="657,592 837,592 837,433 657,433 657,592"/>
<text text-anchor="middle" x="673" y="445" style="font-family:arial">Item</text>
</g>
<g id="graph9" class="cluster"><title>cluster_10</title>
<polygon style="fill:none;stroke:#d2d2d2;stroke-dasharray:5,2" points="845,592 1095,592 1095,433 845,433 845,592"/>
<text text-anchor="middle" x="861" y="445" style="font-family:arial">Item</text>
</g>
<g id="graph10" class="cluster"><title>cluster_11</title>
<polygon style="fill:none;stroke:#d2d2d2;stroke-dasharray:5,2" points="1103,592 1247,592 1247,433 1103,433 1103,592"/>
<text text-anchor="middle" x="1119" y="445" style="font-family:arial">Item</text>
</g>
<g id="graph11" class="cluster"><title>cluster_12</title>
<polygon style="fill:none;stroke:#d2d2d2;stroke-dasharray:5,2" points="1255,592 1433,592 1433,433 1255,433 1255,592"/>
<text text-anchor="middle" x="1271" y="445" style="font-family:arial">Item</text>
</g>
<g id="graph12" class="cluster"><title>cluster_13</title>
<polygon style="fill:none;stroke:#d2d2d2;stroke-dasharray:5,2" points="1441,592 1597,592 1597,433 1441,433 1441,592"/>
<text text-anchor="middle" x="1457" y="445" style="font-family:arial">Item</text>
</g>
<g id="graph13" class="cluster"><title>cluster_14</title>
<polygon style="fill:none;stroke:#d2d2d2;stroke-dasharray:5,2" points="1605,592 1763,592 1763,433 1605,433 1605,592"/>
<text text-anchor="middle" x="1621" y="445" style="font-family:arial">Item</text>
</g>
<g id="graph14" class="cluster"><title>cluster_15</title>
<polygon style="fill:none;stroke:#d2d2d2;stroke-dasharray:5,2" points="1771,592 1921,592 1921,433 1771,433 1771,592"/>
<text text-anchor="middle" x="1787" y="445" style="font-family:arial">Item</text>
</g>
<g id="graph15" class="cluster"><title>cluster_16</title>
<polygon style="fill:none;stroke:#d2d2d2;stroke-dasharray:5,2" points="1929,592 2153,592 2153,433 1929,433 1929,592"/>
<text text-anchor="middle" x="1945" y="445" style="font-family:arial">Item</text>
</g>
<g id="graph16" class="cluster"><title>cluster_17</title>
<polygon style="fill:none;stroke:#d2d2d2;stroke-dasharray:5,2" points="2169,600 2733,600 2733,238 2169,238 2169,600"/>
<text text-anchor="middle" x="2241" y="250" style="font-family:arial">Nest - Application Profile</text>
</g>
<g id="graph17" class="cluster"><title>cluster_19</title>
<polygon style="fill:none;stroke:#d2d2d2;stroke-dasharray:5,2" points="2523,592 2725,592 2725,433 2523,433 2523,592"/>
<text text-anchor="middle" x="2539" y="445" style="font-family:arial">Item</text>
</g>
<g id="node2" class="node"><title>:_1</title>
<a xlink:href="http://www2.elsevier.co.uk/~tony/1014/yads-schema-2002-04-03#Nest" target="_blank" onmouseover="show_status('http://www2.elsevier.co.uk/~tony/1014/yads-schema-2002-04-03#Nest');">
<ellipse cx="1493" cy="86" rx="29" ry="18" style="fill:#d2d2d2;stroke:#d2d2d2"/>
<text text-anchor="middle" x="1493" y="90" style="font-family:arial">isa:Nest</text>
</a></g>
<g id="node4" class="node"><title>doi:1014/tube</title>
<a xlink:href="http://dx.doi.org/1014/tube" target="_blank" onmouseover="show_status('http://dx.doi.org/1014/tube');">
<ellipse cx="1312" cy="176" rx="42" ry="18" style="fill:#dca0dd;stroke:#dca0dd"/>
<text text-anchor="middle" x="1312" y="180" style="font-family:arial">doi:1014/tube</text>
</a></g>
<g id="edge3" class="edge"><title>:_1-&gt;doi:1014/tube</title>
<a xlink:href="http://www2.elsevier.co.uk/~tony/1014/yads-schema-2002-04-03#resource" target="_blank" onmouseover="show_status('http://www2.elsevier.co.uk/~tony/1014/yads-schema-2002-04-03#resource');">
<path style="fill:none;stroke:#add9e6" d="M1464,88C1435,92 1390,101 1357,122 1346,129 1336,141 1328,152"/>
<polygon style="fill:#add9e6;stroke:#add9e6" points="1327,149 1323,159 1331,152 1327,149"/>
<text text-anchor="middle" x="1404" y="135" style="font-family:arial">has:resource</text>
</a></g>
<g id="node6" class="node"><title>node_1</title>
<polygon style="fill:#6497ed;stroke:#6497ed" points="1438,158 1372,158 1372,194 1438,194 1438,158"/>
<text text-anchor="middle" x="1405" y="180" style="font-family:arial">TubeTime</text>
</g>
<g id="edge5" class="edge"><title>:_1-&gt;node_1</title>
<a xlink:href="http://www2.elsevier.co.uk/~tony/1014/yads-schema-2002-04-03#label" target="_blank" onmouseover="show_status('http://www2.elsevier.co.uk/~tony/1014/yads-schema-2002-04-03#label');">
<path style="fill:none;stroke:#add9e6" d="M1478,102C1464,115 1445,135 1429,151"/>
<polygon style="fill:#add9e6;stroke:#add9e6" points="1427,149 1422,158 1431,153 1427,149"/>
<text text-anchor="middle" x="1487" y="135" style="font-family:arial">has:label</text>
</a></g>
<g id="node8" class="node"><title>node_2</title>
<polygon style="fill:#6497ed;stroke:#6497ed" points="1662,158 1456,158 1456,194 1662,194 1662,158"/>
<text text-anchor="middle" x="1559" y="180" style="font-family:arial">TubeTime implements the YADS ...n</text>
</g>
<g id="edge7" class="edge"><title>:_1-&gt;node_2</title>
<a xlink:href="http://www2.elsevier.co.uk/~tony/1014/yads-schema-2002-04-03#detail" target="_blank" onmouseover="show_status('http://www2.elsevier.co.uk/~tony/1014/yads-schema-2002-04-03#detail');">
<path style="fill:none;stroke:#add9e6" d="M1505,103C1515,116 1529,135 1540,151"/>
<polygon style="fill:#add9e6;stroke:#add9e6" points="1538,152 1546,158 1541,149 1538,152"/>
<text text-anchor="middle" x="1562" y="135" style="font-family:arial">has:detail</text>
</a></g>
<g id="node10" class="node"><title>:_2</title>
<a xlink:href="http://www.w3.org/1999/02/22-rdf-syntax-ns#Bag" target="_blank" onmouseover="show_status('http://www.w3.org/1999/02/22-rdf-syntax-ns#Bag');">
<ellipse cx="1708" cy="176" rx="28" ry="18" style="fill:#d2d2d2;stroke:#d2d2d2"/>
<text text-anchor="middle" x="1708" y="180" style="font-family:arial">rdf:Bag</text>
</a></g>
<g id="edge9" class="edge"><title>:_1-&gt;:_2</title>
<a xlink:href="http://www2.elsevier.co.uk/~tony/1014/yads-schema-2002-04-03#collection" target="_blank" onmouseover="show_status('http://www2.elsevier.co.uk/~tony/1014/yads-schema-2002-04-03#collection');">
<path style="fill:none;stroke:#add9e6" d="M1521,92C1586,111 1604,126 1671,158 1673,159 1675,160 1677,161"/>
<polygon style="fill:#add9e6;stroke:#add9e6" points="1676,163 1686,165 1678,159 1676,163"/>
<text text-anchor="middle" x="1674" y="135" style="font-family:arial">has:collection</text>
</a></g>
<g id="node12" class="node"><title>:_3</title>
<ellipse cx="1045" cy="281" rx="34" ry="18" style="fill:#eedb82;stroke:#eedb82"/>
<text text-anchor="middle" x="1045" y="285" style="font-family:arial">doi:Profile</text>
</g>
<g id="edge11" class="edge"><title>:_2-&gt;:_3</title>
<a xlink:href="http://www.w3.org/1999/02/22-rdf-syntax-ns#_1" target="_blank" onmouseover="show_status('http://www.w3.org/1999/02/22-rdf-syntax-ns#_1');">
<path style="fill:none;stroke:#add9e6" d="M1687,188C1682,190 1676,193 1671,194 1459,259 1191,275 1088,280"/>
<polygon style="fill:#add9e6;stroke:#add9e6" points="1089,277 1079,280 1089,282 1089,277"/>
<text text-anchor="middle" x="1626" y="225" style="font-family:arial">rdf:_1</text>
</a></g>
<g id="node14" class="node"><title>:_17</title>
<a xlink:href="http://www2.elsevier.co.uk/~tony/1014/yads-schema-2002-04-03#Nest" target="_blank" onmouseover="show_status('http://www2.elsevier.co.uk/~tony/1014/yads-schema-2002-04-03#Nest');">
<ellipse cx="2372" cy="281" rx="29" ry="18" style="fill:#d2d2d2;stroke:#d2d2d2"/>
<text text-anchor="middle" x="2372" y="285" style="font-family:arial">isa:Nest</text>
</a></g>
<g id="edge13" class="edge"><title>:_2-&gt;:_17</title>
<a xlink:href="http://www.w3.org/1999/02/22-rdf-syntax-ns#_2" target="_blank" onmouseover="show_status('http://www.w3.org/1999/02/22-rdf-syntax-ns#_2');">
<path style="fill:none;stroke:#add9e6" d="M1736,179C1807,187 2003,211 2165,238 2226,248 2295,264 2337,273"/>
<polygon style="fill:#add9e6;stroke:#add9e6" points="2335,275 2345,275 2336,270 2335,275"/>
<text text-anchor="middle" x="2128" y="225" style="font-family:arial">rdf:_2</text>
</a></g>
<g id="node17" class="node"><title>doi:1014/profile.tube</title>
<a xlink:href="http://dx.doi.org/1014/profile.tube" target="_blank" onmouseover="show_status('http://dx.doi.org/1014/profile.tube');">
<ellipse cx="819" cy="371" rx="59" ry="18" style="fill:#dca0dd;stroke:#dca0dd"/>
<text text-anchor="middle" x="819" y="375" style="font-family:arial">doi:1014/profile.tube</text>
</a></g>
<g id="edge16" class="edge"><title>:_3-&gt;doi:1014/profile.tube</title>
<a xlink:href="http://www2.elsevier.co.uk/~tony/1014/yads-schema-2002-04-03#resource" target="_blank" onmouseover="show_status('http://www2.elsevier.co.uk/~tony/1014/yads-schema-2002-04-03#resource');">
<path style="fill:none;stroke:#add9e6" d="M1011,284C977,287 924,296 882,317 867,325 853,337 841,348"/>
<polygon style="fill:#add9e6;stroke:#add9e6" points="840,345 835,354 844,349 840,345"/>
<text text-anchor="middle" x="929" y="330" style="font-family:arial">has:resource</text>
</a></g>
<g id="node19" class="node"><title>node_4</title>
<polygon style="fill:#6497ed;stroke:#6497ed" points="960,353 896,353 896,389 960,389 960,353"/>
<text text-anchor="middle" x="928" y="375" style="font-family:arial">The Tube</text>
</g>
<g id="edge18" class="edge"><title>:_3-&gt;node_4</title>
<a xlink:href="http://www2.elsevier.co.uk/~tony/1014/yads-schema-2002-04-03#label" target="_blank" onmouseover="show_status('http://www2.elsevier.co.uk/~tony/1014/yads-schema-2002-04-03#label');">
<path style="fill:none;stroke:#add9e6" d="M1022,294C1011,301 997,309 986,317 975,326 963,337 953,347"/>
<polygon style="fill:#add9e6;stroke:#add9e6" points="952,345 946,353 955,348 952,345"/>
<text text-anchor="middle" x="1019" y="330" style="font-family:arial">has:label</text>
</a></g>
<g id="node21" class="node"><title>node_5</title>
<polygon style="fill:#6497ed;stroke:#6497ed" points="1112,353 978,353 978,389 1112,389 1112,353"/>
<text text-anchor="middle" x="1045" y="375" style="font-family:arial">TubeTime - The Tube.</text>
</g>
<g id="edge20" class="edge"><title>:_3-&gt;node_5</title>
<a xlink:href="http://www2.elsevier.co.uk/~tony/1014/yads-schema-2002-04-03#detail" target="_blank" onmouseover="show_status('http://www2.elsevier.co.uk/~tony/1014/yads-schema-2002-04-03#detail');">
<path style="fill:none;stroke:#add9e6" d="M1045,299C1045,312 1045,329 1045,344"/>
<polygon style="fill:#add9e6;stroke:#add9e6" points="1043,343 1045,353 1048,343 1043,343"/>
<text text-anchor="middle" x="1074" y="330" style="font-family:arial">has:detail</text>
</a></g>
<g id="node23" class="node"><title>:_4</title>
<a xlink:href="http://www.w3.org/1999/02/22-rdf-syntax-ns#Bag" target="_blank" onmouseover="show_status('http://www.w3.org/1999/02/22-rdf-syntax-ns#Bag');">
<ellipse cx="1158" cy="371" rx="28" ry="18" style="fill:#d2d2d2;stroke:#d2d2d2"/>
<text text-anchor="middle" x="1158" y="375" style="font-family:arial">rdf:Bag</text>
</a></g>
<g id="edge22" class="edge"><title>:_3-&gt;:_4</title>
<a xlink:href="http://www2.elsevier.co.uk/~tony/1014/yads-schema-2002-04-03#collection" target="_blank" onmouseover="show_status('http://www2.elsevier.co.uk/~tony/1014/yads-schema-2002-04-03#collection');">
<path style="fill:none;stroke:#add9e6" d="M1070,293C1082,300 1097,308 1108,317 1119,326 1131,338 1139,348"/>
<polygon style="fill:#add9e6;stroke:#add9e6" points="1137,349 1145,355 1140,346 1137,349"/>
<text text-anchor="middle" x="1169" y="330" style="font-family:arial">has:collection</text>
</a></g>
<g id="node86" class="node"><title>doi:1014/profile.dlr</title>
<a xlink:href="http://dx.doi.org/1014/profile.dlr" target="_blank" onmouseover="show_status('http://dx.doi.org/1014/profile.dlr');">
<ellipse cx="2230" cy="371" rx="53" ry="18" style="fill:#dca0dd;stroke:#dca0dd"/>
<text text-anchor="middle" x="2230" y="375" style="font-family:arial">doi:1014/profile.dlr</text>
</a></g>
<g id="edge85" class="edge"><title>:_17-&gt;doi:1014/profile.dlr</title>
<a xlink:href="http://www2.elsevier.co.uk/~tony/1014/yads-schema-2002-04-03#resource" target="_blank" onmouseover="show_status('http://www2.elsevier.co.uk/~tony/1014/yads-schema-2002-04-03#resource');">
<path style="fill:none;stroke:#add9e6" d="M2346,289C2329,296 2306,305 2287,317 2275,326 2262,337 2252,347"/>
<polygon style="fill:#add9e6;stroke:#add9e6" points="2251,345 2246,354 2254,348 2251,345"/>
<text text-anchor="middle" x="2334" y="330" style="font-family:arial">has:resource</text>
</a></g>
<g id="node88" class="node"><title>node_18</title>
<polygon style="fill:#6497ed;stroke:#6497ed" points="2443,353 2301,353 2301,389 2443,389 2443,353"/>
<text text-anchor="middle" x="2372" y="375" style="font-family:arial">Docklands Light Railway</text>
</g>
<g id="edge87" class="edge"><title>:_17-&gt;node_18</title>
<a xlink:href="http://www2.elsevier.co.uk/~tony/1014/yads-schema-2002-04-03#label" target="_blank" onmouseover="show_status('http://www2.elsevier.co.uk/~tony/1014/yads-schema-2002-04-03#label');">
<path style="fill:none;stroke:#add9e6" d="M2372,299C2372,312 2372,329 2372,344"/>
<polygon style="fill:#add9e6;stroke:#add9e6" points="2370,343 2372,353 2375,343 2370,343"/>
<text text-anchor="middle" x="2399" y="330" style="font-family:arial">has:label</text>
</a></g>
<g id="node90" class="node"><title>node_19</title>
<polygon style="fill:#6497ed;stroke:#6497ed" points="2651,353 2461,353 2461,389 2651,389 2651,353"/>
<text text-anchor="middle" x="2556" y="375" style="font-family:arial">TubeTime - Docklands Light Ra....</text>
</g>
<g id="edge89" class="edge"><title>:_17-&gt;node_19</title>
<a xlink:href="http://www2.elsevier.co.uk/~tony/1014/yads-schema-2002-04-03#detail" target="_blank" onmouseover="show_status('http://www2.elsevier.co.uk/~tony/1014/yads-schema-2002-04-03#detail');">
<path style="fill:none;stroke:#add9e6" d="M2395,292C2424,306 2475,331 2511,349"/>
<polygon style="fill:#add9e6;stroke:#add9e6" points="2509,351 2519,353 2511,346 2509,351"/>
<text text-anchor="middle" x="2509" y="330" style="font-family:arial">has:detail</text>
</a></g>
<g id="node92" class="node"><title>:_18</title>
<a xlink:href="http://www.w3.org/1999/02/22-rdf-syntax-ns#Bag" target="_blank" onmouseover="show_status('http://www.w3.org/1999/02/22-rdf-syntax-ns#Bag');">
<ellipse cx="2697" cy="371" rx="28" ry="18" style="fill:#d2d2d2;stroke:#d2d2d2"/>
<text text-anchor="middle" x="2697" y="375" style="font-family:arial">rdf:Bag</text>
</a></g>
<g id="edge91" class="edge"><title>:_17-&gt;:_18</title>
<a xlink:href="http://www2.elsevier.co.uk/~tony/1014/yads-schema-2002-04-03#collection" target="_blank" onmouseover="show_status('http://www2.elsevier.co.uk/~tony/1014/yads-schema-2002-04-03#collection');">
<path style="fill:none;stroke:#add9e6" d="M2401,284C2516,302 2548,310 2660,353 2663,354 2666,355 2669,357"/>
<polygon style="fill:#add9e6;stroke:#add9e6" points="2665,358 2675,360 2667,353 2665,358"/>
<text text-anchor="middle" x="2650" y="330" style="font-family:arial">has:collection</text>
</a></g>
<g id="node25" class="node"><title>:_5</title>
<ellipse cx="129" cy="476" rx="32" ry="18" style="fill:#eedb82;stroke:#eedb82"/>
<text text-anchor="middle" x="129" y="480" style="font-family:arial">tube:Line</text>
</g>
<g id="edge24" class="edge"><title>:_4-&gt;:_5</title>
<a xlink:href="http://www.w3.org/1999/02/22-rdf-syntax-ns#_1" target="_blank" onmouseover="show_status('http://www.w3.org/1999/02/22-rdf-syntax-ns#_1');">
<path style="fill:none;stroke:#add9e6" d="M1132,377C1128,382 1127,387 1120,389 1118,391 339,407 336,407 274,414 256,411 197,433 182,439 167,448 155,456"/>
<polygon style="fill:#add9e6;stroke:#add9e6" points="155,453 148,461 158,457 155,453"/>
<text text-anchor="middle" x="437" y="420" style="font-family:arial">rdf:_1</text>
</a></g>
<g id="node27" class="node"><title>:_6</title>
<ellipse cx="285" cy="476" rx="32" ry="18" style="fill:#eedb82;stroke:#eedb82"/>
<text text-anchor="middle" x="285" y="480" style="font-family:arial">tube:Line</text>
</g>
<g id="edge26" class="edge"><title>:_4-&gt;:_6</title>
<a xlink:href="http://www.w3.org/1999/02/22-rdf-syntax-ns#_2" target="_blank" onmouseover="show_status('http://www.w3.org/1999/02/22-rdf-syntax-ns#_2');">
<path style="fill:none;stroke:#add9e6" d="M1132,377C1128,382 1127,387 1120,389 1116,391 484,407 479,407 423,414 407,412 353,433 338,439 323,448 311,456"/>
<polygon style="fill:#add9e6;stroke:#add9e6" points="311,453 304,461 314,457 311,453"/>
<text text-anchor="middle" x="566" y="420" style="font-family:arial">rdf:_2</text>
</a></g>
<g id="node29" class="node"><title>:_7</title>
<ellipse cx="431" cy="476" rx="32" ry="18" style="fill:#eedb82;stroke:#eedb82"/>
<text text-anchor="middle" x="431" y="480" style="font-family:arial">tube:Line</text>
</g>
<g id="edge28" class="edge"><title>:_4-&gt;:_7</title>
<a xlink:href="http://www.w3.org/1999/02/22-rdf-syntax-ns#_3" target="_blank" onmouseover="show_status('http://www.w3.org/1999/02/22-rdf-syntax-ns#_3');">
<path style="fill:none;stroke:#add9e6" d="M1132,377C1128,382 1127,386 1120,389 1114,392 644,407 637,407 575,414 558,411 499,433 484,439 469,448 457,456"/>
<polygon style="fill:#add9e6;stroke:#add9e6" points="457,453 450,461 460,457 457,453"/>
<text text-anchor="middle" x="709" y="420" style="font-family:arial">rdf:_3</text>
</a></g>
<g id="node31" class="node"><title>:_8</title>
<ellipse cx="585" cy="476" rx="32" ry="18" style="fill:#eedb82;stroke:#eedb82"/>
<text text-anchor="middle" x="585" y="480" style="font-family:arial">tube:Line</text>
</g>
<g id="edge30" class="edge"><title>:_4-&gt;:_8</title>
<a xlink:href="http://www.w3.org/1999/02/22-rdf-syntax-ns#_4" target="_blank" onmouseover="show_status('http://www.w3.org/1999/02/22-rdf-syntax-ns#_4');">
<path style="fill:none;stroke:#add9e6" d="M1132,377C1128,382 1127,386 1120,389 1107,396 864,406 848,407 761,416 736,404 653,433 638,439 623,448 611,456"/>
<polygon style="fill:#add9e6;stroke:#add9e6" points="611,453 604,461 614,457 611,453"/>
<text text-anchor="middle" x="909" y="420" style="font-family:arial">rdf:_4</text>
</a></g>
<g id="node33" class="node"><title>:_9</title>
<ellipse cx="772" cy="476" rx="32" ry="18" style="fill:#eedb82;stroke:#eedb82"/>
<text text-anchor="middle" x="772" y="480" style="font-family:arial">tube:Line</text>
</g>
<g id="edge32" class="edge"><title>:_4-&gt;:_9</title>
<a xlink:href="http://www.w3.org/1999/02/22-rdf-syntax-ns#_5" target="_blank" onmouseover="show_status('http://www.w3.org/1999/02/22-rdf-syntax-ns#_5');">
<path style="fill:none;stroke:#add9e6" d="M1132,379C1129,382 1128,386 1121,389 1093,403 871,423 841,433 826,439 811,448 799,456"/>
<polygon style="fill:#add9e6;stroke:#add9e6" points="798,454 791,461 801,458 798,454"/>
<text text-anchor="middle" x="1057" y="420" style="font-family:arial">rdf:_5</text>
</a></g>
<g id="node35" class="node"><title>:_10</title>
<ellipse cx="1013" cy="476" rx="32" ry="18" style="fill:#eedb82;stroke:#eedb82"/>
<text text-anchor="middle" x="1013" y="480" style="font-family:arial">tube:Line</text>
</g>
<g id="edge34" class="edge"><title>:_4-&gt;:_10</title>
<a xlink:href="http://www.w3.org/1999/02/22-rdf-syntax-ns#_6" target="_blank" onmouseover="show_status('http://www.w3.org/1999/02/22-rdf-syntax-ns#_6');">
<path style="fill:none;stroke:#add9e6" d="M1139,385C1114,404 1068,436 1039,458"/>
<polygon style="fill:#add9e6;stroke:#add9e6" points="1040,454 1033,462 1043,459 1040,454"/>
<text text-anchor="middle" x="1132" y="420" style="font-family:arial">rdf:_6</text>
</a></g>
<g id="node37" class="node"><title>:_11</title>
<ellipse cx="1158" cy="476" rx="32" ry="18" style="fill:#eedb82;stroke:#eedb82"/>
<text text-anchor="middle" x="1158" y="480" style="font-family:arial">tube:Line</text>
</g>
<g id="edge36" class="edge"><title>:_4-&gt;:_11</title>
<a xlink:href="http://www.w3.org/1999/02/22-rdf-syntax-ns#_7" target="_blank" onmouseover="show_status('http://www.w3.org/1999/02/22-rdf-syntax-ns#_7');">
<path style="fill:none;stroke:#add9e6" d="M1158,389C1158,405 1158,430 1158,449"/>
<polygon style="fill:#add9e6;stroke:#add9e6" points="1156,448 1158,458 1161,448 1156,448"/>
<text text-anchor="middle" x="1179" y="420" style="font-family:arial">rdf:_7</text>
</a></g>
<g id="node39" class="node"><title>:_12</title>
<ellipse cx="1319" cy="476" rx="32" ry="18" style="fill:#eedb82;stroke:#eedb82"/>
<text text-anchor="middle" x="1319" y="480" style="font-family:arial">tube:Line</text>
</g>
<g id="edge38" class="edge"><title>:_4-&gt;:_12</title>
<a xlink:href="http://www.w3.org/1999/02/22-rdf-syntax-ns#_8" target="_blank" onmouseover="show_status('http://www.w3.org/1999/02/22-rdf-syntax-ns#_8');">
<path style="fill:none;stroke:#add9e6" d="M1178,384C1206,403 1259,437 1291,458"/>
<polygon style="fill:#add9e6;stroke:#add9e6" points="1288,459 1298,462 1291,455 1288,459"/>
<text text-anchor="middle" x="1262" y="420" style="font-family:arial">rdf:_8</text>
</a></g>
<g id="node41" class="node"><title>:_13</title>
<ellipse cx="1494" cy="476" rx="32" ry="18" style="fill:#eedb82;stroke:#eedb82"/>
<text text-anchor="middle" x="1494" y="480" style="font-family:arial">tube:Line</text>
</g>
<g id="edge40" class="edge"><title>:_4-&gt;:_13</title>
<a xlink:href="http://www.w3.org/1999/02/22-rdf-syntax-ns#_9" target="_blank" onmouseover="show_status('http://www.w3.org/1999/02/22-rdf-syntax-ns#_9');">
<path style="fill:none;stroke:#add9e6" d="M1186,373C1238,378 1351,393 1437,433 1449,439 1461,447 1470,455"/>
<polygon style="fill:#add9e6;stroke:#add9e6" points="1468,456 1477,461 1471,453 1468,456"/>
<text text-anchor="middle" x="1437" y="420" style="font-family:arial">rdf:_9</text>
</a></g>
<g id="node43" class="node"><title>:_14</title>
<ellipse cx="1659" cy="476" rx="32" ry="18" style="fill:#eedb82;stroke:#eedb82"/>
<text text-anchor="middle" x="1659" y="480" style="font-family:arial">tube:Line</text>
</g>
<g id="edge42" class="edge"><title>:_4-&gt;:_14</title>
<a xlink:href="http://www.w3.org/1999/02/22-rdf-syntax-ns#_10" target="_blank" onmouseover="show_status('http://www.w3.org/1999/02/22-rdf-syntax-ns#_10');">
<path style="fill:none;stroke:#add9e6" d="M1186,372C1194,372 1202,373 1209,373 1385,389 1440,363 1601,433 1613,439 1625,447 1635,454"/>
<polygon style="fill:#add9e6;stroke:#add9e6" points="1633,455 1642,460 1636,452 1633,455"/>
<text text-anchor="middle" x="1604" y="420" style="font-family:arial">rdf:_10</text>
</a></g>
<g id="node45" class="node"><title>:_15</title>
<ellipse cx="1821" cy="476" rx="32" ry="18" style="fill:#eedb82;stroke:#eedb82"/>
<text text-anchor="middle" x="1821" y="480" style="font-family:arial">tube:Line</text>
</g>
<g id="edge44" class="edge"><title>:_4-&gt;:_15</title>
<a xlink:href="http://www.w3.org/1999/02/22-rdf-syntax-ns#_11" target="_blank" onmouseover="show_status('http://www.w3.org/1999/02/22-rdf-syntax-ns#_11');">
<path style="fill:none;stroke:#add9e6" d="M1186,371C1206,372 1231,372 1241,373 1415,383 1459,384 1631,407 1692,416 1712,408 1767,433 1778,439 1789,446 1798,454"/>
<polygon style="fill:#add9e6;stroke:#add9e6" points="1796,455 1805,460 1799,452 1796,455"/>
<text text-anchor="middle" x="1767" y="420" style="font-family:arial">rdf:_11</text>
</a></g>
<g id="node47" class="node"><title>:_16</title>
<ellipse cx="2005" cy="476" rx="32" ry="18" style="fill:#eedb82;stroke:#eedb82"/>
<text text-anchor="middle" x="2005" y="480" style="font-family:arial">tube:Line</text>
</g>
<g id="edge46" class="edge"><title>:_4-&gt;:_16</title>
<a xlink:href="http://www.w3.org/1999/02/22-rdf-syntax-ns#_12" target="_blank" onmouseover="show_status('http://www.w3.org/1999/02/22-rdf-syntax-ns#_12');">
<path style="fill:none;stroke:#add9e6" d="M1186,371C1210,372 1244,372 1273,373 1309,375 1317,375 1352,377 1549,389 1599,382 1793,407 1853,415 1869,413 1925,433 1943,440 1961,449 1976,458"/>
<polygon style="fill:#add9e6;stroke:#add9e6" points="1974,460 1984,462 1976,455 1974,460"/>
<text text-anchor="middle" x="1922" y="420" style="font-family:arial">rdf:_12</text>
</a></g>
<g id="node50" class="node"><title>1014/tube/bakerloo_line</title>
<a xlink:href="1014/tube/bakerloo_line">
<ellipse cx="114" cy="566" rx="71" ry="18" style="fill:#dca0dd;stroke:#dca0dd"/>
<text text-anchor="middle" x="114" y="570" style="font-family:arial">1014/tube/bakerloo_line</text>
</a></g>
<g id="edge49" class="edge"><title>:_5-&gt;1014/tube/bakerloo_line</title>
<a xlink:href="http://www2.elsevier.co.uk/~tony/1014/yads-schema-2002-04-03#resource" target="_blank" onmouseover="show_status('http://www2.elsevier.co.uk/~tony/1014/yads-schema-2002-04-03#resource');">
<path style="fill:none;stroke:#add9e6" d="M122,494C120,499 117,506 116,512 115,521 114,530 113,538"/>
<polygon style="fill:#add9e6;stroke:#add9e6" points="111,538 113,548 116,538 111,538"/>
<text text-anchor="middle" x="160" y="525" style="font-family:arial">has:resource</text>
</a></g>
<g id="node53" class="node"><title>1014/tube/central_line</title>
<a xlink:href="1014/tube/central_line">
<ellipse cx="275" cy="566" rx="66" ry="18" style="fill:#dca0dd;stroke:#dca0dd"/>
<text text-anchor="middle" x="275" y="570" style="font-family:arial">1014/tube/central_line</text>
</a></g>
<g id="edge52" class="edge"><title>:_6-&gt;1014/tube/central_line</title>
<a xlink:href="http://www2.elsevier.co.uk/~tony/1014/yads-schema-2002-04-03#resource" target="_blank" onmouseover="show_status('http://www2.elsevier.co.uk/~tony/1014/yads-schema-2002-04-03#resource');">
<path style="fill:none;stroke:#add9e6" d="M277,494C275,499 273,506 272,512 271,521 271,530 271,539"/>
<polygon style="fill:#add9e6;stroke:#add9e6" points="268,538 272,548 273,538 268,538"/>
<text text-anchor="middle" x="316" y="525" style="font-family:arial">has:resource</text>
</a></g>
<g id="node56" class="node"><title>1014/tube/circle_line</title>
<a xlink:href="1014/tube/circle_line">
<ellipse cx="426" cy="566" rx="61" ry="18" style="fill:#dca0dd;stroke:#dca0dd"/>
<text text-anchor="middle" x="426" y="570" style="font-family:arial">1014/tube/circle_line</text>
</a></g>
<g id="edge55" class="edge"><title>:_7-&gt;1014/tube/circle_line</title>
<a xlink:href="http://www2.elsevier.co.uk/~tony/1014/yads-schema-2002-04-03#resource" target="_blank" onmouseover="show_status('http://www2.elsevier.co.uk/~tony/1014/yads-schema-2002-04-03#resource');">
<path style="fill:none;stroke:#add9e6" d="M423,494C421,499 419,506 418,512 417,521 417,530 418,539"/>
<polygon style="fill:#add9e6;stroke:#add9e6" points="415,539 420,548 420,538 415,539"/>
<text text-anchor="middle" x="462" y="525" style="font-family:arial">has:resource</text>
</a></g>
<g id="node59" class="node"><title>1014/tube/district_line</title>
<a xlink:href="1014/tube/district_line">
<ellipse cx="576" cy="566" rx="65" ry="18" style="fill:#dca0dd;stroke:#dca0dd"/>
<text text-anchor="middle" x="576" y="570" style="font-family:arial">1014/tube/district_line</text>
</a></g>
<g id="edge58" class="edge"><title>:_8-&gt;1014/tube/district_line</title>
<a xlink:href="http://www2.elsevier.co.uk/~tony/1014/yads-schema-2002-04-03#resource" target="_blank" onmouseover="show_status('http://www2.elsevier.co.uk/~tony/1014/yads-schema-2002-04-03#resource');">
<path style="fill:none;stroke:#add9e6" d="M577,494C575,499 573,506 572,512 571,521 571,530 571,539"/>
<polygon style="fill:#add9e6;stroke:#add9e6" points="568,538 572,548 573,538 568,538"/>
<text text-anchor="middle" x="616" y="525" style="font-family:arial">has:resource</text>
</a></g>
<g id="node62" class="node"><title>1014/tube/east_london_line</title>
<a xlink:href="1014/tube/east_london_line">
<ellipse cx="747" cy="566" rx="82" ry="18" style="fill:#dca0dd;stroke:#dca0dd"/>
<text text-anchor="middle" x="747" y="570" style="font-family:arial">1014/tube/east_london_line</text>
</a></g>
<g id="edge61" class="edge"><title>:_9-&gt;1014/tube/east_london_line</title>
<a xlink:href="http://www2.elsevier.co.uk/~tony/1014/yads-schema-2002-04-03#resource" target="_blank" onmouseover="show_status('http://www2.elsevier.co.uk/~tony/1014/yads-schema-2002-04-03#resource');">
<path style="fill:none;stroke:#add9e6" d="M766,494C764,500 762,506 760,512 758,521 756,530 753,539"/>
<polygon style="fill:#add9e6;stroke:#add9e6" points="751,538 751,548 756,539 751,538"/>
<text text-anchor="middle" x="804" y="525" style="font-family:arial">has:resource</text>
</a></g>
<g id="node65" class="node"><title>1014/tube/hammersmith_&amp;_city_...e</title>
<a xlink:href="1014/tube/hammersmith_&amp;_city_line">
<ellipse cx="970" cy="566" rx="117" ry="18" style="fill:#dca0dd;stroke:#dca0dd"/>
<text text-anchor="middle" x="970" y="570" style="font-family:arial">1014/tube/hammersmith_&amp;_city_...e</text>
</a></g>
<g id="edge64" class="edge"><title>:_10-&gt;1014/tube/hammersmith_&amp;_city_...e</title>
<a xlink:href="http://www2.elsevier.co.uk/~tony/1014/yads-schema-2002-04-03#resource" target="_blank" onmouseover="show_status('http://www2.elsevier.co.uk/~tony/1014/yads-schema-2002-04-03#resource');">
<path style="fill:none;stroke:#add9e6" d="M1005,494C998,507 990,525 983,540"/>
<polygon style="fill:#add9e6;stroke:#add9e6" points="981,538 979,548 986,540 981,538"/>
<text text-anchor="middle" x="1038" y="525" style="font-family:arial">has:resource</text>
</a></g>
<g id="node68" class="node"><title>1014/tube/jubilee_line</title>
<a xlink:href="1014/tube/jubilee_line">
<ellipse cx="1175" cy="566" rx="64" ry="18" style="fill:#dca0dd;stroke:#dca0dd"/>
<text text-anchor="middle" x="1175" y="570" style="font-family:arial">1014/tube/jubilee_line</text>
</a></g>
<g id="edge67" class="edge"><title>:_11-&gt;1014/tube/jubilee_line</title>
<a xlink:href="http://www2.elsevier.co.uk/~tony/1014/yads-schema-2002-04-03#resource" target="_blank" onmouseover="show_status('http://www2.elsevier.co.uk/~tony/1014/yads-schema-2002-04-03#resource');">
<path style="fill:none;stroke:#add9e6" d="M1161,494C1163,507 1167,524 1169,539"/>
<polygon style="fill:#add9e6;stroke:#add9e6" points="1166,539 1171,548 1171,538 1166,539"/>
<text text-anchor="middle" x="1210" y="525" style="font-family:arial">has:resource</text>
</a></g>
<g id="node71" class="node"><title>1014/tube/metropolitan_line</title>
<a xlink:href="1014/tube/metropolitan_line">
<ellipse cx="1344" cy="566" rx="81" ry="18" style="fill:#dca0dd;stroke:#dca0dd"/>
<text text-anchor="middle" x="1344" y="570" style="font-family:arial">1014/tube/metropolitan_line</text>
</a></g>
<g id="edge70" class="edge"><title>:_12-&gt;1014/tube/metropolitan_line</title>
<a xlink:href="http://www2.elsevier.co.uk/~tony/1014/yads-schema-2002-04-03#resource" target="_blank" onmouseover="show_status('http://www2.elsevier.co.uk/~tony/1014/yads-schema-2002-04-03#resource');">
<path style="fill:none;stroke:#add9e6" d="M1324,494C1327,507 1332,524 1336,539"/>
<polygon style="fill:#add9e6;stroke:#add9e6" points="1333,539 1339,548 1338,538 1333,539"/>
<text text-anchor="middle" x="1376" y="525" style="font-family:arial">has:resource</text>
</a></g>
<g id="node74" class="node"><title>1014/tube/northern_line</title>
<a xlink:href="1014/tube/northern_line">
<ellipse cx="1519" cy="566" rx="70" ry="18" style="fill:#dca0dd;stroke:#dca0dd"/>
<text text-anchor="middle" x="1519" y="570" style="font-family:arial">1014/tube/northern_line</text>
</a></g>
<g id="edge73" class="edge"><title>:_13-&gt;1014/tube/northern_line</title>
<a xlink:href="http://www2.elsevier.co.uk/~tony/1014/yads-schema-2002-04-03#resource" target="_blank" onmouseover="show_status('http://www2.elsevier.co.uk/~tony/1014/yads-schema-2002-04-03#resource');">
<path style="fill:none;stroke:#add9e6" d="M1499,494C1502,507 1507,524 1511,539"/>
<polygon style="fill:#add9e6;stroke:#add9e6" points="1508,539 1514,548 1513,538 1508,539"/>
<text text-anchor="middle" x="1551" y="525" style="font-family:arial">has:resource</text>
</a></g>
<g id="node77" class="node"><title>1014/tube/piccadilly_line</title>
<a xlink:href="1014/tube/piccadilly_line">
<ellipse cx="1684" cy="566" rx="71" ry="18" style="fill:#dca0dd;stroke:#dca0dd"/>
<text text-anchor="middle" x="1684" y="570" style="font-family:arial">1014/tube/piccadilly_line</text>
</a></g>
<g id="edge76" class="edge"><title>:_14-&gt;1014/tube/piccadilly_line</title>
<a xlink:href="http://www2.elsevier.co.uk/~tony/1014/yads-schema-2002-04-03#resource" target="_blank" onmouseover="show_status('http://www2.elsevier.co.uk/~tony/1014/yads-schema-2002-04-03#resource');">
<path style="fill:none;stroke:#add9e6" d="M1664,494C1667,507 1672,524 1676,539"/>
<polygon style="fill:#add9e6;stroke:#add9e6" points="1673,539 1679,548 1678,538 1673,539"/>
<text text-anchor="middle" x="1716" y="525" style="font-family:arial">has:resource</text>
</a></g>
<g id="node80" class="node"><title>1014/tube/victoria_line</title>
<a xlink:href="1014/tube/victoria_line">
<ellipse cx="1846" cy="566" rx="67" ry="18" style="fill:#dca0dd;stroke:#dca0dd"/>
<text text-anchor="middle" x="1846" y="570" style="font-family:arial">1014/tube/victoria_line</text>
</a></g>
<g id="edge79" class="edge"><title>:_15-&gt;1014/tube/victoria_line</title>
<a xlink:href="http://www2.elsevier.co.uk/~tony/1014/yads-schema-2002-04-03#resource" target="_blank" onmouseover="show_status('http://www2.elsevier.co.uk/~tony/1014/yads-schema-2002-04-03#resource');">
<path style="fill:none;stroke:#add9e6" d="M1826,494C1829,507 1834,524 1838,539"/>
<polygon style="fill:#add9e6;stroke:#add9e6" points="1835,539 1841,548 1840,538 1835,539"/>
<text text-anchor="middle" x="1878" y="525" style="font-family:arial">has:resource</text>
</a></g>
<g id="node83" class="node"><title>1014/tube/waterloo_&amp;_city_lin</title>
<a xlink:href="1014/tube/waterloo_&amp;_city_line">
<ellipse cx="2041" cy="566" rx="104" ry="18" style="fill:#dca0dd;stroke:#dca0dd"/>
<text text-anchor="middle" x="2041" y="570" style="font-family:arial">1014/tube/waterloo_&amp;_city_lin</text>
</a></g>
<g id="edge82" class="edge"><title>:_16-&gt;1014/tube/waterloo_&amp;_city_lin</title>
<a xlink:href="http://www2.elsevier.co.uk/~tony/1014/yads-schema-2002-04-03#resource" target="_blank" onmouseover="show_status('http://www2.elsevier.co.uk/~tony/1014/yads-schema-2002-04-03#resource');">
<path style="fill:none;stroke:#add9e6" d="M2012,494C2018,507 2025,525 2031,539"/>
<polygon style="fill:#add9e6;stroke:#add9e6" points="2028,539 2034,548 2033,538 2028,539"/>
<text text-anchor="middle" x="2069" y="525" style="font-family:arial">has:resource</text>
</a></g>
<g id="node94" class="node"><title>:_19</title>
<ellipse cx="2645" cy="476" rx="27" ry="18" style="fill:#eedb82;stroke:#eedb82"/>
<text text-anchor="middle" x="2645" y="480" style="font-family:arial">dlr:Line</text>
</g>
<g id="edge93" class="edge"><title>:_18-&gt;:_19</title>
<a xlink:href="http://www.w3.org/1999/02/22-rdf-syntax-ns#_1" target="_blank" onmouseover="show_status('http://www.w3.org/1999/02/22-rdf-syntax-ns#_1');">
<path style="fill:none;stroke:#add9e6" d="M2688,388C2680,405 2667,431 2658,451"/>
<polygon style="fill:#add9e6;stroke:#add9e6" points="2656,449 2654,459 2661,451 2656,449"/>
<text text-anchor="middle" x="2698" y="420" style="font-family:arial">rdf:_1</text>
</a></g>
<g id="node97" class="node"><title>1014/tube/docklands_light_rai...y</title>
<a xlink:href="1014/tube/docklands_light_railway">
<ellipse cx="2624" cy="566" rx="93" ry="18" style="fill:#dca0dd;stroke:#dca0dd"/>
<text text-anchor="middle" x="2624" y="570" style="font-family:arial">1014/tube/docklands_light_rai...y</text>
</a></g>
<g id="edge96" class="edge"><title>:_19-&gt;1014/tube/docklands_light_rai...y</title>
<a xlink:href="http://www2.elsevier.co.uk/~tony/1014/yads-schema-2002-04-03#resource" target="_blank" onmouseover="show_status('http://www2.elsevier.co.uk/~tony/1014/yads-schema-2002-04-03#resource');">
<path style="fill:none;stroke:#add9e6" d="M2641,494C2638,507 2634,524 2630,539"/>
<polygon style="fill:#add9e6;stroke:#add9e6" points="2628,538 2628,548 2633,539 2628,538"/>
<text text-anchor="middle" x="2676" y="525" style="font-family:arial">has:resource</text>
</a></g>
</g>
</svg>
